<svg xmlns="http://www.w3.org/2000/svg" xmlns:xlink="http://www.w3.org/1999/xlink" width="86" height="86" viewBox="0 0 86 86">
  <defs>
    <clipPath id="clip-path">
      <rect id="Rectángulo_37448" data-name="Rectángulo 37448" width="39.852" height="45.651" fill="none"/>
    </clipPath>
  </defs>
  <g id="Grupo_849909" data-name="Grupo 849909" transform="translate(-410 -2364)">
    <circle id="Elipse_4739" data-name="Elipse 4739" cx="43" cy="43" r="43" transform="translate(410 2364)" fill="#4acfd9"/>
    <g id="Grupo_845775" data-name="Grupo 845775" transform="translate(433 2383.999)">
      <g id="Grupo_845774" data-name="Grupo 845774" transform="translate(0 0.001)" clip-path="url(#clip-path)">
        <path id="Trazado_583444" data-name="Trazado 583444" d="M40.966,36.193V34.41a5.028,5.028,0,0,1-.415-2.423q.022-3.961,0-7.922a2.136,2.136,0,0,0-.288-1.441,1.96,1.96,0,0,0-1.287-.274q-14.74-.008-29.481,0a2.005,2.005,0,0,0-1.283.251,1.967,1.967,0,0,0-.257,1.284Q7.946,36,7.956,48.108A2.134,2.134,0,0,0,8.189,49.4a1.817,1.817,0,0,0,1.272.278q14.752.01,29.505,0a2,2,0,0,0,1.291-.268,2.1,2.1,0,0,0,.294-1.439q.013-4.677,0-9.354a5.059,5.059,0,0,1,.415-2.425" transform="translate(-1.84 -5.172)" fill="#fecf85"/>
        <path id="Trazado_583445" data-name="Trazado 583445" d="M39.126,31.021c-.492-.088-.473.409-.733.652V44.209H6.415a1.925,1.925,0,0,0-1.353-.3A29.2,29.2,0,0,1,2,43.839c-.334-.772-.394-24.855-.067-25.951a17,17,0,0,1,3.036-.114c.5-.026,1.017.072,1.442-.3H38.392v11.11c.26.244.241.74.733.652.376.079.479-.281.711-.443,0-4.213.029-8.427-.018-12.642a4.362,4.362,0,0,0-1.34-3.185A4.4,4.4,0,0,0,36.106,11.6a.4.4,0,0,1-.214-.13c-.045-.039-.084-.084-.135-.134V6.047L29.737.012c-6.48,0-13.023,0-19.566-.012-.358,0-.641.249-1,.189l-.907.924c-.434.965-.164,1.969-.274,2.972H5.531a2.773,2.773,0,0,0-1.437,1.5v5.737c-.251.355-.63.344-.934.432A4.862,4.862,0,0,0,.194,14.731c.065.5-.2.937-.194,1.44Q.032,29.708,0,43.245a2.3,2.3,0,0,0,1.435,2.389h.78q17.589,0,35.179.017A2.379,2.379,0,0,0,39.7,44.5a4.672,4.672,0,0,0,.133-1.818q.006-5.61,0-11.217c-.232-.162-.335-.522-.711-.443" transform="translate(0 0)"/>
        <path id="Trazado_583446" data-name="Trazado 583446" d="M6.835,22.739H1.948c-.138.791-.191,23.481-.061,26.732H6.835Z" transform="translate(-0.42 -5.263)" fill="#fec265"/>
        <path id="Trazado_583447" data-name="Trazado 583447" d="M32.645,36.9c.079-.377-.28-.48-.442-.713-1.862,0-3.727,0-5.591,0A1.615,1.615,0,0,0,25,37.819c0,3.768,0,7.536,0,11.2a2.1,2.1,0,0,0,1.27,1.247h9.18c1.451,0,2.9-.009,4.352,0a2.677,2.677,0,0,0,1.8-.393c.214-.2.206-.547.463-.768q0-5.634,0-11.292a1.615,1.615,0,0,0-1.609-1.629c-1.805-.005-3.611,0-5.4,0-.221.238-.718.22-.629.713-.168.846.464.928,1.008.971,1.18.092,2.366.02,3.548.039a2.172,2.172,0,0,1,1.363.281c.012,3.323.025,6.742-.015,10.29-3.767.155-7.4-.005-11.019.093a12.113,12.113,0,0,1-2.552-.189c-.087-3.413-.045-6.858-.028-10.277a9.369,9.369,0,0,1,2.523-.231,16.789,16.789,0,0,0,2.479-.018c.53-.056,1.1-.175.915-.96" transform="translate(-5.786 -8.375)" fill="#010101"/>
        <path id="Trazado_583448" data-name="Trazado 583448" d="M30.478,49.056H41.763c.131-.736.174-8.733.059-11.2H36.093c-.18-.259-.539-.363-.46-.739H33.855c.081.37-.27.473-.437.713H30.478a1.038,1.038,0,0,0-.046,1.287,1.978,1.978,0,0,0,1.282.244c2.22.008,4.442-.006,6.663.012.42,0,.9-.106,1.24.377-.263.545-.778.453-1.218.457-2.22.022-4.442,0-6.663.013a2.089,2.089,0,0,0-1.288.232.98.98,0,0,0-.052,1.118,1.692,1.692,0,0,0,1.264.279c2.25.011,4.5,0,6.749.01.4,0,.835-.077,1.154.234.128.237-.008.357-.149.475a1.853,1.853,0,0,1-1.121.174c-2.213,0-4.427,0-6.64,0a1.873,1.873,0,0,0-1.16.192.761.761,0,0,0-.075.925,1.7,1.7,0,0,0,1.28.277c2.537.04,5.074-.064,7.606.059.218.085.43.177.469.453.01.327-.218.446-.476.538-2.512.11-5.022.012-7.53.05a2.019,2.019,0,0,0-1.28.214.737.737,0,0,0-.066.908c.33.341.763.27,1.167.271,2.244.009,4.489,0,6.733.006a1.76,1.76,0,0,1,1.111.187c.14.121.255.249.122.476a1.592,1.592,0,0,1-1.155.222c-2.235.011-4.47,0-6.705.008a1.9,1.9,0,0,0-1.272.248,1.043,1.043,0,0,0,.056,1.275" transform="translate(-6.996 -8.59)" fill="#daecfe"/>
        <path id="Trazado_583449" data-name="Trazado 583449" d="M11.956,17.664H33.094V12.528H29.172c-.151-.091-.21-.178-.335-.219A1.874,1.874,0,0,1,27.614,10.4c-.055-1.121-.013-2.246-.013-3.426H12.134a.815.815,0,0,0-.433.72,42.3,42.3,0,0,0,.015,4.393.864.864,0,0,0,.155.407,1.959,1.959,0,0,0,1.44.287c3.969.009,7.937,0,11.906.005a4.775,4.775,0,0,1,1.063.055c.366.084.532.267.247.619a1.554,1.554,0,0,1-1.106.208q-6.056.006-12.113,0a3.518,3.518,0,0,0-1.227.1.534.534,0,0,0-.246.234.791.791,0,0,0,.122.847,2.107,2.107,0,0,0,1.361.214q7.328.01,14.656.006a6.741,6.741,0,0,1,1.149.038c.244.092.512.154.6.466.015.334-.233.437-.487.538a14.178,14.178,0,0,1-2.129.046c-4.585.007-9.168,0-13.753.008a2.342,2.342,0,0,0-1.4.211.973.973,0,0,0,0,1.287" transform="translate(-2.697 -1.614)" fill="#daecfe"/>
        <path id="Trazado_583450" data-name="Trazado 583450" d="M29.663,4.515a.466.466,0,0,1,.15.065q2.954,2.955,5.9,5.911v5.926h2.64V7.367c-1.021,0-2.048,0-3.076,0A3.071,3.071,0,0,1,34.192,7.2a1.937,1.937,0,0,1-1.326-1.744c-.01-1.1,0-2.2-.005-3.3,0-.128.07-.317-.175-.319a.979.979,0,0,0-.6-.085q-7.181,0-14.363,0a1.042,1.042,0,0,0-.554.108,2.407,2.407,0,0,0-.221,2.422,1.866,1.866,0,0,0,1.034.133c3.576.006,7.152,0,10.728.008a1.827,1.827,0,0,1,.956.087" transform="translate(-3.871 -0.405)" fill="#61dcfb"/>
        <path id="Trazado_583451" data-name="Trazado 583451" d="M28.468,14.988a.137.137,0,0,0-.141-.175c-.237-.009-.473,0-.711,0H10.868v-.891c-.317-.381-1.076-.14-1.187-.8.234-.576.892-.239,1.187-.623q0-2.355,0-4.71a1.142,1.142,0,0,1,.179-.815c-.945,0-1.891,0-2.837,0-.339,0-.7-.091-.978.24A1.465,1.465,0,0,0,6.95,8.2c.013,2.993.007,5.985.007,8.978v.487h3.911V16.495c.206-.161.45-.076.673-.076,5.478-.006,10.954,0,16.431-.017.214,0,.534.216.673-.166-.446-.414-1-.289-1.522-.29-5.293-.011-10.586,0-15.879-.015-.471,0-1,.145-1.43-.318.425-.464.957-.319,1.428-.32,5.263-.014,10.527,0,15.791-.014.49,0,1.016.1,1.434-.291" transform="translate(-1.608 -1.611)" fill="#b4dbfe"/>
        <path id="Trazado_583452" data-name="Trazado 583452" d="M28.639,4.488c0-.244-.189-.174-.317-.175-.8-.005-1.6,0-2.393,0H16.018A11.477,11.477,0,0,0,16.006,3c-.048-.424.214-.756.235-1.182h15.42a.137.137,0,0,0-.141-.175c-.208-.01-.415,0-.623,0q-8.575,0-17.151,0a2.143,2.143,0,0,0-1.446.415v2.44Z" transform="translate(-2.847 -0.378)" fill="#00cef8"/>
        <path id="Trazado_583453" data-name="Trazado 583453" d="M4.511,16.947a2.311,2.311,0,0,0-1.729.767,2.643,2.643,0,0,0-.907,2.22H4.511Z" transform="translate(-0.433 -3.922)" fill="#faa50f"/>
        <path id="Trazado_583454" data-name="Trazado 583454" d="M49.173,19.944v-.726a3.976,3.976,0,0,0-1.4-1.918,2.009,2.009,0,0,0-1.212-.347v2.991Z" transform="translate(-10.776 -3.924)" fill="#f9a50f"/>
        <path id="Trazado_583455" data-name="Trazado 583455" d="M41.31,4.969c-.528-.744-1.268-1.284-1.911-2.027V5.816l.508.4h1.4a2.623,2.623,0,0,0,0-1.247" transform="translate(-9.118 -0.681)" fill="#00bff6"/>
        <path id="Trazado_583456" data-name="Trazado 583456" d="M36.03,10.116c-.473-.677-1.143-1.165-1.759-1.88-.034.553-.014,1.011-.018,1.468s0,.885,0,1.4l.571.437h1.384c.133-.5-.194-.941-.178-1.426" transform="translate(-7.927 -1.906)" fill="#89c7fb"/>
        <path id="Trazado_583457" data-name="Trazado 583457" d="M36.51,10.682c-.361.2-.068.548-.174.74l.351.686h1.362a17.585,17.585,0,0,0-1.539-1.426" transform="translate(-8.406 -2.473)" fill="#a9cff1"/>
        <path id="Trazado_583458" data-name="Trazado 583458" d="M41.826,5.579c-.028,0-.078-.009-.082,0a1.319,1.319,0,0,0,.082,1.246h1.363a13.144,13.144,0,0,0-1.363-1.247" transform="translate(-9.633 -1.291)" fill="#00caf2"/>
        <path id="Trazado_583459" data-name="Trazado 583459" d="M38.929,46.776c-.062-.347-.333-.168-.5-.17-2.366-.012-4.733-.008-7.1-.008H29.716v-.845c.025-.037.107-.047.2-.046,2.84,0,5.68,0,8.52-.008.163,0,.433.178.5-.169-.39-.375-.885-.284-1.348-.286-2.458-.012-4.915,0-7.372-.013-.387,0-.835.109-1.145-.325.311-.433.759-.322,1.145-.324,2.457-.017,4.914,0,7.372-.014.463,0,.958.09,1.348-.285-.062-.347-.333-.169-.5-.17-2.366-.012-4.733-.008-7.1-.008H29.716v-.846c.025-.037.107-.046.2-.046,2.84,0,5.68,0,8.52-.008.163,0,.433.178.5-.169-.361-.357-.825-.272-1.258-.274-2.481-.012-4.962,0-7.443-.011-.369,0-.771.088-1.089-.218-.055-.432.421-.46.546-.746V40.716c-.18-.294-.65-.274-.732-.665-.016-.517.533-.467.732-.761V38.043H26.932c-.133.759-.176,8.39-.061,11.227h2.814V48.023c-.134-.264-.513-.315-.573-.7.286-.383.731-.261,1.116-.263,2.481-.014,4.962,0,7.443-.012.433,0,.9.083,1.258-.274" transform="translate(-6.203 -8.805)" fill="#b4dbfe"/>
        <path id="Trazado_583460" data-name="Trazado 583460" d="M30.235,39.666H29.6l-.423.469v.524a1.224,1.224,0,0,0,1.054.433c2.8,0,5.608,0,8.412,0a1.318,1.318,0,0,0,1.172-.45v-.563l-.558-.417Z" transform="translate(-6.753 -9.18)" fill="#030404"/>
        <path id="Trazado_583461" data-name="Trazado 583461" d="M39.48,46.159H29.436l-.251.252v.743l.251.252H39.48c.177.009.213-.174.344-.244V46.4c-.131-.071-.167-.254-.344-.245" transform="translate(-6.754 -10.683)"/>
        <path id="Trazado_583462" data-name="Trazado 583462" d="M39.475,49.4H29.486c-.427.21-.3.53-.322.795l.442.453h.624q4.249,0,8.5,0a1.727,1.727,0,0,0,1.081-.244v-.765c-.117-.063-.153-.251-.334-.243" transform="translate(-6.749 -11.434)"/>
        <path id="Trazado_583463" data-name="Trazado 583463" d="M30.23,42.909h-.624l-.435.445c.014.272-.128.6.359.8h9.945c.181.008.216-.18.347-.25v-.717a1.967,1.967,0,0,0-.477-.27,2.663,2.663,0,0,0-.617-.011Z" transform="translate(-6.749 -9.928)"/>
        <path id="Trazado_583464" data-name="Trazado 583464" d="M29.166,17.406H10.439c-.22.209-.54.36-.46.829l.559.418H29.343c.017-.293.54-.339.339-.752a1.131,1.131,0,0,0-.516-.5" transform="translate(-2.306 -4.029)"/>
        <path id="Trazado_583465" data-name="Trazado 583465" d="M11.563,14.16H10.408a1.923,1.923,0,0,0-.457.722,1.547,1.547,0,0,0,.925.7h.687a1.807,1.807,0,0,1,.955-.087c4.341-.007,8.681,0,13.022-.008a1.9,1.9,0,0,0,.956-.083c.031-.224.275-.288.36-.484a1.624,1.624,0,0,0-.46-.763Z" transform="translate(-2.303 -3.277)" fill="#030303"/>
        <path id="Trazado_583466" data-name="Trazado 583466" d="M26.982,15.768c-4.754,0-9.507,0-14.262.012-.214,0-.533-.216-.671.166,4.754,0,9.507,0,14.261-.013.214,0,.533.217.672-.165" transform="translate(-2.788 -3.638)" fill="#b4dbfe"/>
      </g>
    </g>
  </g>
</svg>
