<svg xmlns="http://www.w3.org/2000/svg" xmlns:xlink="http://www.w3.org/1999/xlink" width="100" height="100" viewBox="0 0 100 100"><defs><filter id="a" x="0" y="0" width="100" height="100" filterUnits="userSpaceOnUse"><feOffset dy="5" input="SourceAlpha"/><feGaussianBlur stdDeviation="2.5" result="b"/><feFlood flood-opacity="0.161"/><feComposite operator="in" in2="b"/><feComposite in="SourceGraphic"/></filter><clipPath id="c"><rect width="50" height="50" fill="none"/></clipPath></defs><g transform="translate(-645.5 -1520.5)"><g transform="matrix(1, 0, 0, 1, 645.5, 1520.5)" filter="url(#a)"><circle cx="42.5" cy="42.5" r="42.5" transform="translate(7.5 2.5)" fill="#4acfd9"/></g><g transform="translate(671 1540)"><g transform="translate(0 0)" clip-path="url(#c)"><path d="M23.121,5.85a17.315,17.315,0,0,1,2.994-1.072,23.99,23.99,0,0,1,2.877-.553,22.5,22.5,0,0,1,3.427-.041c.6.412,1.322.051,1.951.314a14.616,14.616,0,0,1,1.772.5.732.732,0,0,0,.683-.047c.134-.273-.091-.387-.233-.507a5.319,5.319,0,0,1-1.544-2.59,7.5,7.5,0,0,1-.07-1.3l.538-.538c.932,0,1.868.006,2.8,0a4.493,4.493,0,0,1,3.374,1.4c.238.243.481.481.772.772.325-.316.614-.6.907-.88A4.477,4.477,0,0,1,46.479.024c.971-.019,1.942,0,3.005,0l.349.563.115-.092a5.915,5.915,0,0,1-.015,1.32,5.591,5.591,0,0,1-2.711,3.514,3.813,3.813,0,0,1-1.757.527c-.69-.013-1.381,0-2.153,0V8.885c.673.669,1.4,1.322,2.041,2.043A24.076,24.076,0,0,1,47.3,13.65a18.791,18.791,0,0,1,1.956,4.5,3.724,3.724,0,0,1,.277,1.33c-.017.4.32.655.253,1.062a1.16,1.16,0,0,0,.18,1.065c.069.074.01.267.01.407v.52a17.922,17.922,0,0,1-.022,2.287c-.091.708-.244,1.42-.363,2.125a20.176,20.176,0,0,1-1.7,5.027,18.907,18.907,0,0,1-2.924,4.209c-.676.69-1.358,1.382-2.08,2.012a25.105,25.105,0,0,1-2.349,1.592,14.7,14.7,0,0,1-4.416,1.905c-.568.16-1.144.26-1.7.409a14.332,14.332,0,0,1-4.2.386,18.6,18.6,0,0,1-5.784-1.106,22.094,22.094,0,0,1-5.257-2.9,24.141,24.141,0,0,1-3.25-3.14,18.513,18.513,0,0,1-2.6-4.319A30.753,30.753,0,0,1,12.1,27.469a2.635,2.635,0,0,1-.01-.758H10.769a2.675,2.675,0,0,1,.276,1.686,27.314,27.314,0,0,1,.21,3.452,2.959,2.959,0,0,1,.183,1.889c-.036.532.289.959.243,1.477a4.074,4.074,0,0,0,.019,1.552,21.368,21.368,0,0,1,.2,2.311c.193.877.049,1.771.221,2.617a12.205,12.205,0,0,1,.165,2.418c0,.408.4.73.161,1.2a3.776,3.776,0,0,1,2.132,1.981,3.939,3.939,0,0,1,.407,2.187l-.482.483H8.025c-.119-.108-.291-.263-.428-.387-.319-.036-.342.27-.536.374H.5l-.484-.484Q.016,37.3,0,25.123c0-.551.3-1.021.237-1.58a3.792,3.792,0,0,1,.015-1.551,7.333,7.333,0,0,0,.164-2.419C.409,19.09.729,18.7.655,18.2a3.458,3.458,0,0,1,.01-1.447,6.11,6.11,0,0,1,.583-1.945c.3-.431.717-.728,1.028-1.141a.581.581,0,0,0-.1-.133,3.631,3.631,0,0,1-1.348-3.2C.893,8.4.863,6.454.843,4.512A4.355,4.355,0,0,1,4.106.437a9.1,9.1,0,0,1,2.436.15A3.993,3.993,0,0,0,7.66.649c.292.022.64-.162.825.315.373-.407.81-.237,1.183-.339s.738-.253,1.093-.357a1.884,1.884,0,0,1,1.3-.188L12.5.795c0,.775.034,1.783-.008,2.787a3.185,3.185,0,0,1-1.657,2.626c0,1.465-.014,3.02,0,4.574a3.305,3.305,0,0,1-1.691,2.971.285.285,0,0,0-.193.29,4.414,4.414,0,0,1,1.221,1.685,5.913,5.913,0,0,1,.471,1.58,26.052,26.052,0,0,0,.628,3.171c.065.252.161.637.541.739a19.584,19.584,0,0,1,1.43-5.442c.3-.729.715-1.369,1.057-2.06a10.47,10.47,0,0,1,1.242-1.884A13.274,13.274,0,0,1,17.566,9.46a19.482,19.482,0,0,1,3.586-2.626A7.9,7.9,0,0,1,22.7,6.058c.087-.172.3-.088.416-.209" transform="translate(0 -0.001)"/><path d="M52.813,47.448A3.947,3.947,0,0,1,49.6,48.794a6.731,6.731,0,0,1-1.8-.169,4.315,4.315,0,0,1-1.507-.866,13.084,13.084,0,0,1-2.6-3.206,2.693,2.693,0,0,1,1.681-1.426,5,5,0,0,1,2.44-.34,4.349,4.349,0,0,1,2.459,1.07,19.128,19.128,0,0,1,2.351,2.768c.076.107.212.17.194.337-.014.137,0,.277,0,.486" transform="translate(-2.84 -2.769)"/><path d="M24.165,5.849c-.018.311-.259.177-.416.209.016-.206-.127-.208-.268-.209-.831,0-1.662,0-2.494,0a4.468,4.468,0,0,1-3.278-1.362,5.6,5.6,0,0,1-.834-.9,4.932,4.932,0,0,1-.8-3.075l.441-.441A.749.749,0,0,1,16.7.022c.762,0,1.527.039,2.285-.014a7.377,7.377,0,0,1,2.43.409c.3.079.411.323.643.455a5.007,5.007,0,0,1,1.5,1.474,6.988,6.988,0,0,1,.617,1.307,4.473,4.473,0,0,1,.206,1.776l-.477.312.262.108" transform="translate(-1.045 0)"/><path d="M31.9,45.858a1.8,1.8,0,0,1,.554,1.384A5.091,5.091,0,0,1,30.36,51.56a4.653,4.653,0,0,1-1.742.8,22.683,22.683,0,0,0-2.451.59,1.706,1.706,0,0,1-.5.007l-.5-.65c.028-.359-.35-.755-.223-1.257a7.051,7.051,0,0,1,1.028-2.8,4.974,4.974,0,0,1,3.345-1.951c.348-.432.883-.1,1.32-.33a3.268,3.268,0,0,1,1.265-.1" transform="translate(-1.62 -2.97)" fill="#000100"/><path d="M23.732,15.2c-1.146-.629-2.194-1.41-3.278-2.133a11.007,11.007,0,0,1-1.437-.993c.86-.7,1.49-1.479,2.3-2.12a25.025,25.025,0,0,1,2.376-1.595,14.216,14.216,0,0,1,2.653-1.119,13.713,13.713,0,0,1,2.8-.75,18.991,18.991,0,0,1,2.927-.268c1.02.016,2.016.19,3.057.283.07.19-.158.228-.24.338a.589.589,0,0,1-.415.258c-.138.019-.246.223-.378.333a2.974,2.974,0,0,1-.4.291,2,2,0,0,0-.856.942,29,29,0,0,1-1.427,2.841,1.116,1.116,0,0,0,.008,1.193c.7,1.442,1.327,2.92,1.956,4.392a12.183,12.183,0,0,1,1.011,2.4,1.691,1.691,0,0,0,1.069,1.1c2.124,1,4.225,2.036,6.29,3.151.967.522,1.947,1.013,2.875,1.61.618.4,1.3.719,1.953,1.061.856.448,1.665.981,2.487,1.36a17.668,17.668,0,0,1-5.689,9.286A14.322,14.322,0,0,1,39.2,39.749a17.881,17.881,0,0,1-8.4,1.437c.093-.62-.149-1.263.226-1.86-.159-.857.29-1.664.2-2.592A10.866,10.866,0,0,0,28.7,35.08c.507-1.273.877-2.6,1.5-3.847.575,0,1.095-.04,1.606.009a6.45,6.45,0,0,0,2.326-.422,2.332,2.332,0,0,0,.808-.537A4.948,4.948,0,0,0,37.044,25.9l-.649-.49c.116.025.052,0-.011,0-.8,0-1.6.048-2.392-.015a5.218,5.218,0,0,0-2.32.446,3.91,3.91,0,0,0-1.055.71c-.341.29-.633.638-.951.965-.44-.075-.619-.45-.875-.7A4.563,4.563,0,0,0,25.415,25.4c-.936.01-1.873,0-2.839,0l-.508.564a4.892,4.892,0,0,0,1.815,4.071,5.61,5.61,0,0,0,4.488,1.174c-.394,1.048-.749,2-1.12,2.987a17.954,17.954,0,0,0-2.265-1.5,19.316,19.316,0,0,0-3.161-1.66,2.269,2.269,0,0,1-1.22-1.209,10.4,10.4,0,0,0-.712-1.47c-.152-.241-.075-.458-.117-.68,1.086-1.617,1.863-3.419,2.927-4.94,1.362-.127,2.567-.5,3.9-.713.091-.108.244-.293.452-.541a1.344,1.344,0,0,0-.184-.849c-.784-1.476-1.551-2.962-2.251-4.478-.131-.284-.432-.426-.468-.743.434-.309.8-.007,1.151.163,1.06.506,2.1,1.047,3.159,1.563a1.565,1.565,0,0,0,1.264.287c.424-.764-.785-6.23-1.681-7.43a8.893,8.893,0,0,0-3.524.789c-.439.168-.478.642-.488,1.068-.018.726,0,1.451-.01,2.177a1.565,1.565,0,0,1-.287,1.175" transform="translate(-1.236 -0.403)" fill="#23a1df"/><path d="M37.764,7.768c.076-.471.61-.338.739-.63a15.567,15.567,0,0,1,5.531,3.025v2.788h1.639V11.593a17.4,17.4,0,0,1,5,12c-.441.3-.807.014-1.147-.187-2.837-1.677-5.809-3.093-8.756-4.555a3.122,3.122,0,0,1-1.579-1.565c-.9-2.026-1.779-4.061-2.7-6.077A1.461,1.461,0,0,1,36.5,9.9a8.411,8.411,0,0,1,1.261-2.136" transform="translate(-2.362 -0.462)" fill="#83c657"/><path d="M11.188,46.817H9.145c-.8-4.256-1.591-8.5-2.4-12.844l-.515-.447h-.6l-.483.584a.382.382,0,0,0-.007.193c.141.493-.187.905-.223,1.37-.032.425.212.9-.186,1.274-.036.034-.02.134-.009.2.13.855-.31,1.664-.207,2.513.05.415-.266.739-.227,1.163.035.386.145.818-.188,1.164-.035.036-.014.136,0,.2a11.288,11.288,0,0,1-.26,2.613c-.047.648-.133,1.318-.165,2.006H1.844V28.546H9.225c.135.109.034.393.277.484,0,.2.013.411,0,.616-.1,1.332.366,2.634.21,3.969.351.743.074,1.552.231,2.3.191.911.041,1.843.227,2.717a9.04,9.04,0,0,1,.151,2.106c-.01.516.309.948.237,1.476a3.192,3.192,0,0,0,.016,1.443,6.613,6.613,0,0,1,.175,2,1.258,1.258,0,0,0,.441,1.155" transform="translate(-0.12 -1.849)" fill="#201e57"/><path d="M8.041,16.447a2.377,2.377,0,0,1,1,1.7,24.557,24.557,0,0,1,.484,2.626,4.34,4.34,0,0,0,.426,1.581A2.982,2.982,0,0,0,12.163,24.2c.02.091.041.185.062.28.024.024.05.072.073.07.609-.043,1.154.3,1.784.242a2.594,2.594,0,0,1,1.861.676c.053.3-.173.389-.3.553-1.274,0-2.56.065-3.836-.02A4.592,4.592,0,0,1,8.7,24.486c-.079-.086,0-.273-.248-.368a1.882,1.882,0,0,0-1.32,1.1l.93.741c-1.215.12-2.2.055-3.18.066-1,.011-2,0-3,0-.126-.253-.16-.464.053-.67A.376.376,0,0,0,2,25.076c-.146-1.37.318-2.713.2-4.074-.053-.6.252-1.107.232-1.684s.011-1.171.032-1.755c0-.026.11-.05.17-.074.3.353.295-.071.374-.167a3.568,3.568,0,0,1,5.038-.874" transform="translate(-0.116 -1.022)" fill="#fecf50"/><path d="M37.618,7.812c-.02.614-.494,1.036-.673,1.59a7.408,7.408,0,0,1-.615,1.177c.442.975.87,1.905,1.287,2.838.56,1.255,1.108,2.515,1.668,3.77.143.321.309.632.466.95,1.787.9,3.57,1.848,5.4,2.7,1.282.6,2.465,1.373,3.742,1.98a6.161,6.161,0,0,0,1.634.816c0,.45-.022.9.006,1.35.026.417-.247.74-.277,1.15-.27-.169-.465-.374-.734-.515-1.6-.839-3.165-1.733-4.742-2.61-2.274-1.266-4.632-2.366-6.958-3.531a1.9,1.9,0,0,1-1.258-1.493c-.035-.267-.278-.5-.4-.766-.657-1.461-1.284-2.935-1.973-4.38-.167-.351-.017-.665-.1-.882.458-.921.873-1.754,1.307-2.624.792-.368,1.351-1.175,2.222-1.522" transform="translate(-2.216 -0.506)" fill="#96d56d"/><path d="M27.2,42.046c-.738-.216-1.449-.5-2.167-.774a19.311,19.311,0,0,1-3.453-1.934A18.733,18.733,0,0,1,16.306,33.3a12.817,12.817,0,0,1-1.182-2.826,6.161,6.161,0,0,1-.421-1.958h1.671c.194,2.148.928,3.945,3.123,4.788,0,.339.365.3.514.369a44.556,44.556,0,0,1,4.006,2.369c.695.414,1.384.839,2.112,1.357v.8c.524.16.909.607,1.486.513a4.395,4.395,0,0,1-.416,3.331" transform="translate(-0.956 -1.847)" fill="#83c657"/><path d="M18.236,24.271c-.688-1.055-2.033-1.515-3.713-1.454a8.126,8.126,0,0,1,.126-1.845,19.811,19.811,0,0,1,.669-2.534A10.225,10.225,0,0,1,16.7,15.482c.252-.313.223-.83.7-1,.383-.168.666.065.954.249.5.316.962.69,1.477.969,2.074,1.124,2.123,3.321,2.932,5.032a2.6,2.6,0,0,1-1.9.909,2.2,2.2,0,0,0-1.947,1.613,1.572,1.572,0,0,1-.681,1.012" transform="translate(-0.944 -0.935)" fill="#83c657"/><path d="M3.837,12.977c-.14-.258-.471-.208-.658-.429a1.69,1.69,0,0,1-.5-1.149c.014-1.383,0-2.766,0-4.2H9.349c0,1.423.014,2.866,0,4.31A1.565,1.565,0,0,1,7.78,12.974c-1.315.01-2.628,0-3.943,0" transform="translate(-0.174 -0.466)" fill="#feebda"/><path d="M24.06,15.435V11.254a1.313,1.313,0,0,1,1.144-.772c.895-.17,1.766-.4,2.637-.659a3.072,3.072,0,0,1,.726-.007l.352.537.1-.08c.6,2.418,1.2,4.834,1.811,7.279l-.791.623c-.249.108-.581-.119-.893-.273-1.437-.707-2.858-1.447-4.276-2.192-.141-.075-.262-.036-.39-.064-.018-.311-.258-.177-.416-.209" transform="translate(-1.564 -0.634)"/><path d="M18.436,24.247c0-.069-.025-.152,0-.206a16.587,16.587,0,0,0,.9-2.1c1.084-.65,2.354-.575,3.435-1.094-.49-1.237-.981-2.476-1.561-3.94A23.773,23.773,0,0,0,17.6,14.462v-.344c.472-.211.789.1,1.14.334,1.352.912,2.711,1.812,4.07,2.714.023.016.067,0,.1,0l1.955,3.91c-1.023.362-2.135.45-3.332.747-1.043,1.5-1.892,3.254-2.891,4.918-.192.052-.266-.012-.209-.208a1.16,1.16,0,0,1,.183-.754c.131-.175,0-.53.031-.8s-.313-.442-.214-.735" transform="translate(-1.144 -0.91)" fill="#96d46c"/><path d="M11.014,3.117v.933c-.241.19-.234.537-.5.732a1.524,1.524,0,0,1-.868.411C7.339,5.2,5.033,5.2,2.688,5.2c0-.4-.007-.745,0-1.085a.161.161,0,0,1,.2-.165A2.565,2.565,0,0,1,5.408,2.825a19.509,19.509,0,0,0,5.04.084.7.7,0,0,1,.567.208" transform="translate(-0.175 -0.182)" fill="#4a3a00"/><path d="M7.862,50.928a4.147,4.147,0,0,0-2.434-2.923c.289-2.361.571-4.661.848-6.921a2.282,2.282,0,0,1,.353.937,25.332,25.332,0,0,1,.56,2.866,11.685,11.685,0,0,1,.464,2.931,2.763,2.763,0,0,1,.206,1.573c.013.513,0,1.024,0,1.537" transform="translate(-0.353 -2.661)" fill="#f5f7f8"/><path d="M18.335,27.4c-.006.144.065.213.209.209a6.7,6.7,0,0,1-.567.911,1.182,1.182,0,0,0-.076,1.364c.614,1.085,1.128,2.227,1.683,3.345-.134-.036-.17.093-.245.137-.055.084-.084.02-.156-.006a3.755,3.755,0,0,1-2.315-2.421,18.274,18.274,0,0,0-.822-1.656l.415-.842c.347.111.55-.409.881-.184.388-.263.575-.693.993-.857" transform="translate(-1.043 -1.775)" fill="#96d46c"/><path d="M44.09,4.3c-.741,0-1.326.017-1.91,0a3.442,3.442,0,0,1-2.755-2.123,1.345,1.345,0,0,1,.018-.371,15.587,15.587,0,0,1,1.848.016,2.626,2.626,0,0,1,1.675.717,4.818,4.818,0,0,1,.969,1.158c.088.18,0,.338.156.607" transform="translate(-2.562 -0.115)" fill="#639441"/><path d="M51.081,1.8a.9.9,0,0,1-.127.72,3.214,3.214,0,0,1-2.8,1.774c-.514.023-1.029,0-1.534,0a.663.663,0,0,1,.064-.681A3.229,3.229,0,0,1,49.566,1.8c.485-.008.971,0,1.515,0" transform="translate(-3.026 -0.117)" fill="#639441"/><path d="M28.958,31.011c-.755,0-1.34.017-1.924,0a3.435,3.435,0,0,1-2.746-2.131,1.394,1.394,0,0,1,.022-.385,8.922,8.922,0,0,1,2.6.225,3.316,3.316,0,0,1,2.047,2.3" transform="translate(-1.578 -1.845)" fill="#639441"/><path d="M35.941,28.514a.9.9,0,0,1-.127.719,3.216,3.216,0,0,1-2.794,1.775c-.515.022-1.031,0-1.535,0a.657.657,0,0,1,.062-.68,3.233,3.233,0,0,1,2.878-1.817c.485-.008.972,0,1.517,0" transform="translate(-2.042 -1.847)" fill="#639441"/><path d="M11.029,3.079c-.242,0-.595-.1-.706.018-.437.473-1.116-.12-1.488.387-.226.077-.307-.2-.448-.187a16.235,16.235,0,0,1-2.92-.224,3.729,3.729,0,0,0-2.556.839A3.781,3.781,0,0,1,3.52,2.874c.454-.231.795-.627,1.392-.649,1.122-.042,2.2.32,3.326.267.379-.019.734.2,1.183-.007.359-.164.854.033,1.248-.232.065-.043.193.007.3.014.127.269.022.547.058.812" transform="translate(-0.189 -0.144)" fill="#5a4600"/><path d="M28.066,42.71c-.074-.842.314-1.637.239-2.492-.021-.234.209-.533.177-.839-.08-.286.11-.442.3-.612l1.367.874c-.341,1.137-.192,2.321-.608,3.433l-1.477-.364" transform="translate(-1.824 -2.511)" fill="#95d36b"/><path d="M5.907,51.524H1.846V49.876a6.814,6.814,0,0,1,2.877.332,9.042,9.042,0,0,1,1.184,1.316" transform="translate(-0.12 -3.231)" fill="#493a00"/><path d="M9.833,51.548V49.862c.942.1,1.887-.187,2.794.287a16.2,16.2,0,0,1,1.179,1.137,1.469,1.469,0,0,1-.071.19c-.019.028-.049.069-.073.069-1.244,0-2.489,0-3.829,0" transform="translate(-0.639 -3.23)" fill="#493a00"/><path d="M8.1,16.406a8.5,8.5,0,0,0-3-.4c-.839.7-2,1.047-2.3,2.366a2.239,2.239,0,0,1-.111-.927c-.022-.934.6-1.422,1.286-1.876.166-.111.315-.25.486-.387a5.688,5.688,0,0,1,2.59.4,1.432,1.432,0,0,1,1.05.818" transform="translate(-0.175 -0.98)" fill="#fad56e"/><path d="M50.868,46.959c-.485.5-1.033.188-1.512.291a1.954,1.954,0,0,1-1.318-.3,2.479,2.479,0,0,1-1.165-.917,5.384,5.384,0,0,0-.906-1.109,2.814,2.814,0,0,1,2.88-.021c.907.445,1.374,1.334,2.021,2.055" transform="translate(-2.988 -2.884)" fill="#639441"/><path d="M22.665,4.3c-.688,0-1.273.017-1.858,0a3.44,3.44,0,0,1-2.754-2.124,1.338,1.338,0,0,1,.018-.37,15.4,15.4,0,0,1,1.848.016,2.629,2.629,0,0,1,1.675.718,4.737,4.737,0,0,1,.967,1.159c.085.177.027.333.1.605" transform="translate(-1.173 -0.115)" fill="#639441"/><path d="M30.858,47.874c-.241,2.141-1.514,2.924-4.124,3.326a3.136,3.136,0,0,1,1-2.155,4.322,4.322,0,0,1,3.125-1.171" transform="translate(-1.738 -3.101)" fill="#639441"/><path d="M44.5,37.087l-4.829-.951-.468-.579V33.366l2.2-2.2c1.563.156,3.134.633,4.812.89l.46.514a.974.974,0,0,1-.039.641A31.253,31.253,0,0,1,44.5,37.087" transform="translate(-2.548 -2.019)"/><path d="M28.865,15.912l-2.984-1.468V12.325c.5-.287,1.161-.208,1.769-.606.542,1.31.677,2.67,1.215,4.193" transform="translate(-1.682 -0.759)" fill="#82c456"/><path d="M43.826,35.249c-.953.1-1.83-.4-2.757-.419-.04-.04-.085-.065-.085-.09-.006-.206,0-.412,0-.625l1.1-1.089a23,23,0,0,1,2.629.631,12.364,12.364,0,0,1-.884,1.591" transform="translate(-2.664 -2.139)" fill="#82c456"/></g></g></g></svg>