<svg xmlns="http://www.w3.org/2000/svg" xmlns:xlink="http://www.w3.org/1999/xlink" width="100" height="100" viewBox="0 0 100 100"><defs><filter id="a" x="0" y="0" width="100" height="100" filterUnits="userSpaceOnUse"><feOffset dy="5" input="SourceAlpha"/><feGaussianBlur stdDeviation="2.5" result="b"/><feFlood flood-opacity="0.161"/><feComposite operator="in" in2="b"/><feComposite in="SourceGraphic"/></filter><clipPath id="c"><rect width="50" height="30" fill="none"/></clipPath></defs><g transform="translate(-802.5 -1288.5)"><g transform="matrix(1, 0, 0, 1, 802.5, 1288.5)" filter="url(#a)"><circle cx="42.5" cy="42.5" r="42.5" transform="translate(7.5 2.5)" fill="#4acfd9"/></g><g transform="translate(828 1319)"><g transform="translate(0 0)" clip-path="url(#c)"><path d="M47.677,19.656a2.407,2.407,0,0,1,.744.439v1.55a7.639,7.639,0,0,0,1.17.11l.41.534V24.18a4.46,4.46,0,0,1-.428.849,2.508,2.508,0,0,1-2.006.983c-3.383.016-6.767.023-10.149-.009a2.515,2.515,0,0,1-1.671-.64,2.8,2.8,0,0,1-.759-1.57,3.3,3.3,0,0,1-.009-.747H33.095c-.143.152,0,.25.047.39a4.673,4.673,0,0,1,.43,1.775,4.363,4.363,0,0,1-1.229,3.054A6.2,6.2,0,0,1,30.884,29.4c-.556.256-1.158.323-1.725.525a3,3,0,0,1-1.741-.232,3.94,3.94,0,0,1-2.038-1.16,4.764,4.764,0,0,1-1.2-1.87,2.9,2.9,0,0,1-.141-.685c-.011-.623,0-1.246,0-1.87.165-.331.506-.61.343-1.072H20.027c-.09-.161-.3-.2-.288-.39-.223-.826-.025-1.134.887-1.2,1.169-.088,2.344-.041,3.515-.028a5.687,5.687,0,0,0,2.453-.5,5.364,5.364,0,0,1,4.437.015,3.926,3.926,0,0,0,1.471.46c1.855.029,3.711.032,5.566,0,.337-.007.744.019.88-.459-.275-.533-.822-.4-1.272-.4q-4.394-.041-8.79-.024c-8.432.036-16.864-.016-25.3.014a7.861,7.861,0,0,0-1.073.036c-.321.046-.571.153-.476.663a2.6,2.6,0,0,0,2.25-.083,5.846,5.846,0,0,1,5.426-.014,3.862,3.862,0,0,0,1.713.292c1.888.007,3.777-.036,5.665.02,1.074.031,1.317.344,1.081,1.217,0,.031.014.075,0,.091-.087.093-.181.179-.308.3H11.4c-.208.445.222.665.329.991,0,.527-.039,1.058.009,1.581a3.321,3.321,0,0,1-.9,2.449,4.021,4.021,0,0,1-2.424,1.6,4.826,4.826,0,0,1-1.726.27A5.428,5.428,0,0,1,4.4,29.154c-1.035-.822-2.043-1.727-2.058-3.195,0-.317-.386-.682-.163-.932.3-.343.008-.74.244-1.034.218-.27.074-.636.528-.932H.34A1.711,1.711,0,0,1,0,21.84c.02-.9.007-1.8.007-2.649a1.3,1.3,0,0,1,1.172-.457v-.965q0-8.188,0-16.374a1.767,1.767,0,0,1,.3-1.187A1.858,1.858,0,0,1,2.555,0C4.54.01,6.525,0,8.508,0a.44.44,0,0,0,.408.2L9.19.754c.184.889-.512.972-1.109,1.02-1.2.1-2.407.024-3.611.041a2.436,2.436,0,0,0-1.159.166c.67.418,31.223.492,32.313.08a2.069,2.069,0,0,0-1.405-.243q-10.739-.01-21.479-.006a5.346,5.346,0,0,1-1.457-.088c-.484-.136-.934-.339-.725-.969-.1-.518.447-.5.689-.746h25.8l.46.562V18.655a1.342,1.342,0,0,0,.789.022c0-.255.02-.5,0-.743-.13-1.324.323-2.619.2-3.941.319-.831.259-1.734.575-2.575a3.825,3.825,0,0,1,2.794-2.748,1.463,1.463,0,0,1,.464-.052c.518-.006,1.036,0,1.464,0a7.366,7.366,0,0,1,2,1.254,2.765,2.765,0,0,1,.851,1.44,5.755,5.755,0,0,1,.243,2.057c-.062.317-.289.6-.145,1,.233.284.7.383.984.734a2.466,2.466,0,0,1,.735,1.771c-.03.4-.006.805-.006,1.189-.169.18-.314.357-.586.283-.895.337-.954-.291-1.041-.847-.106-.673-.121-1.389-1.09-1.46a1.245,1.245,0,0,0-.829,1.075,19.811,19.811,0,0,0,0,4.009,1.17,1.17,0,0,0,.974.318.937.937,0,0,0,.807-.206c.3-.544-.088-1.479.985-1.578" transform="translate(0 0)"/><path d="M18.776,31.387v-.656l-.3-.28c-2.385,0-4.789,0-7.192,0A2.215,2.215,0,0,1,10.07,30.1a3.115,3.115,0,0,0-1.89-.589,10.162,10.162,0,0,1-1.072,0,3.151,3.151,0,0,0-1.978.621,1.59,1.59,0,0,1-1.033.323c-.615-.027-1.232-.007-1.887-.007V28.974h37.4c.135.132.292.288.461.455V30l-.516.456c-2.2,0-4.437-.008-6.678.008a1.672,1.672,0,0,1-1.033-.322,3.525,3.525,0,0,0-1.976-.633,4.883,4.883,0,0,0-3.2.748,1.69,1.69,0,0,1-.983.21c-1.689-.023-3.377-.01-5.047-.01l-.294.28v.656a1.539,1.539,0,0,0-1.563,0" transform="translate(-0.599 -8.737)" fill="#feaa56"/><path d="M11.6,1.079c-.093.4.322.5.48.775H37.17V2.918H3.835V1.855H9.724c.2-.272.592-.38.505-.776Z" transform="translate(-1.04 -0.326)" fill="#feaa56"/><path d="M62.688,22.509a1.2,1.2,0,0,1,1,.328,1.509,1.509,0,0,1,.356.95,7.607,7.607,0,0,1,.011,1.016c.2.376.5.326.781.325-.323.4-.157.87-.2,1.31-.04.3-.451.158-.582.6V28.5H62.884a6.666,6.666,0,0,1-.1-2.124,14.856,14.856,0,0,0-.209-3.338.564.564,0,0,1,.117-.527" transform="translate(-16.965 -6.784)" fill="#fb962a"/><path d="M57.958,25.98H56.423v-2.3c-.162-.125-.264-.237-.24-.411-.138-.12-.381-.068-.472-.265H54.537c-.2-.175.13-.207.106-.349a2.692,2.692,0,0,1-.006-.467c0-.717.041-1.435-.011-2.148a21.392,21.392,0,0,1,.249-2.445,7.619,7.619,0,0,1,.529-2.016,1.669,1.669,0,0,1,.522-.633,2.452,2.452,0,0,1,3.9.555c.062.147.029.385.286.466v2.465c-.423.371-.961.485-1.339.87a5.452,5.452,0,0,0-.81,1.264Z" transform="translate(-14.775 -4.284)" fill="#f7f9fa"/><path d="M35.768,12.129l-5.16-6.172H40.947l-5.179,6.172" transform="translate(-8.302 -1.796)" fill="#f7f9fa"/><path d="M18.779,5.949C17.06,8.07,15.362,10.105,13.6,12.093L8.474,5.949Z" transform="translate(-2.298 -1.794)" fill="#f7f9fa"/><path d="M30.657,24.1l5.132-6.141L40.928,24.1Z" transform="translate(-8.315 -5.417)" fill="#f7f9fa"/><path d="M8.6,24.134A2.388,2.388,0,0,1,8.9,23.6c1.688-1.729,3.052-3.721,4.787-5.548,1.773,2.016,3.4,4.033,5.1,6.083Z" transform="translate(-2.334 -5.443)" fill="#f7f9fa"/><path d="M16.752,13.838l5.139-6.1V19.689c-.531-.161-.61-.74-.988-1.057a5.4,5.4,0,0,1-1.01-1.184c-.3-.459-.72-.811-1.033-1.253a5.708,5.708,0,0,0-1-1.2c-.418-.338-.518-.91-1.107-1.162" transform="translate(-4.544 -2.333)" fill="#f6f8f9"/><path d="M7.305,19.836V7.719l5.058,6.044L7.305,19.836" transform="translate(-1.981 -2.328)" fill="#f6f8f9"/><path d="M29.56,8.053a6.609,6.609,0,0,1,1.407,1.569c.329.421.723.8,1.033,1.252.587.849,1.361,1.58,2.03,2.379a1.032,1.032,0,0,1,.343.8l-4.779,5.706c-.144-.553-.187-10.164-.034-11.7" transform="translate(-7.992 -2.429)" fill="#f7f9fa"/><path d="M43.984,19.766,39.094,13.9a2.591,2.591,0,0,1,.313-.616c1.619-1.665,2.965-3.547,4.577-5.343Z" transform="translate(-10.604 -2.395)" fill="#f7f9fa"/><path d="M4.874,20.489H3.832c-.089-.919-.1-13.526-.007-14.562H4.867c.088.92.095,13.526.007,14.562" transform="translate(-1.02 -1.787)" fill="#fa9529"/><rect width="1.108" height="14.531" transform="translate(18.795 4.138)" fill="#fa9529"/><rect width="1.107" height="14.529" transform="translate(35.011 4.173)" fill="#fd972a"/><path d="M61.194,33.28c.383.208.254.515.294.786-.225.153-.545.181-.624.478H50.609l-.329-.5-.112.088V33.28Z" transform="translate(-13.607 -10.036)" fill="#6a5c67"/><path d="M8.8,37.984H7.551c-.486-.381-1.138-.462-1.576-.914a12.2,12.2,0,0,1-.843-1.4,3.251,3.251,0,0,1,.815-3.034,3.1,3.1,0,0,1,2.464-1.018c1.1.3,1.387.6,1.412,1.513-.358.24-.686,0-1.025-.061a1.8,1.8,0,0,0-1.876.724,1.585,1.585,0,0,0-.044,2.009,1.739,1.739,0,0,0,1.855.754,2,2,0,0,1,1.051-.109c.318.891-.427,1.156-.983,1.532" transform="translate(-1.37 -9.533)" fill="#6b5d68"/><path d="M38.571,38.036H37.306a5.728,5.728,0,0,0-1.022-.578A3.069,3.069,0,0,1,34.889,34.3a1.954,1.954,0,0,1,.722-1.387c.4-.291.652-.734,1.153-.942a2.222,2.222,0,0,1,.635-.11c1.549-.237,2.06.038,2.249,1.214-.281.4-.635.155-.955.08a1.825,1.825,0,0,0-2.027.734,1.556,1.556,0,0,0,.026,1.988,1.79,1.79,0,0,0,1.949.7,3.285,3.285,0,0,1,.852-.154c.373.088.3.322.192.558a2.275,2.275,0,0,1-1.114,1.052" transform="translate(-9.454 -9.584)" fill="#6b5d68"/><path d="M62.3,22.513a1.177,1.177,0,0,0,.057.349,2.826,2.826,0,0,1,.343,1.353c-.026,1.175-.012,2.352-.006,3.529a1.057,1.057,0,0,1-.2.759H61.421l-.293-.282c0-.854-.012-1.724,0-2.595a5.84,5.84,0,0,1,.26-2.512c.273-.138.378-.657.909-.6" transform="translate(-16.577 -6.788)" fill="#f9a653"/><path d="M39.518,37.982a12.723,12.723,0,0,0,1.14-1.435l-.163-.063a.4.4,0,0,1,.057-.434,1.964,1.964,0,0,0,.021-2.416.471.471,0,0,1-.078-.519c-.021-.608-.5-.935-.885-1.31H38.346c.023-.054.039-.149.07-.154a4.213,4.213,0,0,1,1.955.161,3.757,3.757,0,0,1,2.09,2.881,3,3,0,0,1-.99,2.41,2.945,2.945,0,0,1-1.953.878" transform="translate(-10.401 -9.53)" fill="#564c55"/><path d="M10.052,37.988c.219-.45.762-.66.93-1.158a2.3,2.3,0,0,0,.047-.339A.264.264,0,0,1,11,36.228a2.329,2.329,0,0,0,0-2.843.258.258,0,0,1,.028-.263c.1-.418-.372-.556-.482-.9a.793.793,0,0,0-.821-.453c-.019,0-.043-.1-.064-.148a2.763,2.763,0,0,1,2.162.853,2.963,2.963,0,0,1,1,1.476,2.6,2.6,0,0,1-.24,2.282c-.218.358-.312.791-.8,1.025-.567.274-1.03.748-1.731.728" transform="translate(-2.62 -9.537)" fill="#564c55"/><path d="M10.222,33.61l.766,1.2v.953l-.766,1.211a3.24,3.24,0,0,1-1.922.373,3.582,3.582,0,0,1-1.359-.985c-.094-.5-.367-.965-.2-1.485A2.235,2.235,0,0,1,8.39,33.276a1.786,1.786,0,0,1,1.548.327c.049.046.187.006.284.006" transform="translate(-1.814 -10.024)" fill="#010101"/><path d="M39.991,33.61l.748,1.177a2.336,2.336,0,0,1-.206,1.493c-.1.279-.456.383-.542.7a2.714,2.714,0,0,1-2.189.212,1.8,1.8,0,0,1-.936-.8c-.116-.2-.227-.406-.375-.669V34.9a2.279,2.279,0,0,1,1.669-1.628,1.786,1.786,0,0,1,1.548.327c.049.046.187.006.284.006" transform="translate(-9.897 -10.024)" fill="#010101"/></g></g></g></svg>