<svg xmlns="http://www.w3.org/2000/svg" xmlns:xlink="http://www.w3.org/1999/xlink" width="100" height="100" viewBox="0 0 100 100"><defs><filter id="a" x="0" y="0" width="100" height="100" filterUnits="userSpaceOnUse"><feOffset dy="5" input="SourceAlpha"/><feGaussianBlur stdDeviation="2.5" result="b"/><feFlood flood-opacity="0.161"/><feComposite operator="in" in2="b"/><feComposite in="SourceGraphic"/></filter><clipPath id="c"><rect width="50" height="50" fill="none"/></clipPath></defs><g transform="translate(-487.5 -1288.5)"><g transform="matrix(1, 0, 0, 1, 487.5, 1288.5)" filter="url(#a)"><circle cx="42.5" cy="42.5" r="42.5" transform="translate(7.5 2.5)" fill="#4acfd9"/></g><g transform="translate(511 1307)"><g transform="translate(2 2)" clip-path="url(#c)"><path d="M49.878,24.861a2.041,2.041,0,0,0-.813.178c-.256.083-.56.034-.8.225a1.719,1.719,0,0,0-1.29-.385A11.545,11.545,0,1,1,57.355,14.4a1.7,1.7,0,0,0,.371,1.391c-.2.649-.391,1.3-.61,1.946-.083.245-.09.554-.4.675-.351-.245-.429-.667-.643-1a2.522,2.522,0,0,0-2.628-1.267,2.62,2.62,0,0,0-2.043,2.326c-.056.765-.117,1.442-.913,1.847-.354.18-.319.637-.325,1.006-.013.8.007,1.607-.01,2.411-.008.394.057.815-.279,1.131" transform="translate(-8.773 -0.472)" fill="#fed88b"/><path d="M1.656,44.537c0-1.616.013-3.128-.009-4.639a.941.941,0,0,1,.365-.862,1.14,1.14,0,0,0,.464-1.021,1.57,1.57,0,0,1,1.591-1.562,1.607,1.607,0,0,1,1.542.888c.549.771-.307,2.262-1.288,2.362-.314.031-.668-.14-.933.175-.247.294-.111.639-.116.957-.017,1.206-.007,2.413-.007,3.661h3.22c0-1.088.009-2.157,0-3.226a3.027,3.027,0,0,1,1.331-2.555,2.317,2.317,0,0,1,.543-.369c.265-.094.688-.065.7-.37.005-.2-.3-.462-.475-.687a3.19,3.19,0,0,1,3.047-4.837,3.06,3.06,0,0,1,1.8.77,3.245,3.245,0,0,1,1.117,2.77,3.439,3.439,0,0,1-.8,1.785c-.132.187-.1.469.083.491a2.657,2.657,0,0,1,1.53.933,2.647,2.647,0,0,1,.788,1.888c.033,1.134.009,2.269.009,3.426h3.221c0-1.435.005-2.869,0-4.3,0-.341-.186-.488-.568-.51a1.935,1.935,0,0,1-1.03-.192A1.916,1.916,0,0,1,16.97,37.4a2.364,2.364,0,0,1,.843-.848,1.871,1.871,0,0,1,1.172-.06,1.493,1.493,0,0,1,1.166,1.444,1.253,1.253,0,0,0,.558,1.186.756.756,0,0,1,.273.7c-.01,1.544,0,3.087,0,4.637.25.169.523.06.779.08a.836.836,0,0,1,.828.877c.009.739-.043,1.481.019,2.216a.9.9,0,0,1-.5.9,13.864,13.864,0,0,1-1.266.827,1.062,1.062,0,0,0-.674,1.153c.018,2.251,0,4.5.011,6.752a.91.91,0,0,1-.293.794.726.726,0,0,1-.528.2c-.569-.011-1.14,0-1.71,0q-7.043,0-14.086-.005c-.251,0-.509.083-.751-.135a1.034,1.034,0,0,1-.357-.868c.019-2.217,0-4.434.016-6.651a1.209,1.209,0,0,0-.68-1.249c-.591-.346-1.4-.618-1.661-1.256A5.767,5.767,0,0,1,.047,46.1c0-.236-.007-.471,0-.706A.833.833,0,0,1,.9,44.539c.23-.009.461,0,.759,0" transform="translate(0 -8.255)"/><path d="M57.254,15.318c-.718-.05-.984-.253-.78-.771a6.653,6.653,0,0,0,.182-1.639,7.992,7.992,0,0,0-.242-2.33,9.149,9.149,0,0,0-.742-2.2,6.74,6.74,0,0,0-1.061-1.965,12.969,12.969,0,0,0-1.829-1.982A16.252,16.252,0,0,0,50.168,2.7a7.712,7.712,0,0,0-3.153-.871c-.344,0-.558-.321-.926-.23a4.972,4.972,0,0,1-.9.016,11.056,11.056,0,0,0-5.962,1.863,11.322,11.322,0,0,0-4.133,4.9,7.808,7.808,0,0,0-.767,2.9c0,.344-.316.558-.231.927a7.14,7.14,0,0,1,.019,1,11.356,11.356,0,0,0,1.935,5.942c.2.285.311.645.625.855s.4.6.651.83A12.489,12.489,0,0,0,41.812,23.6a13.141,13.141,0,0,0,4.583.594,1.484,1.484,0,0,0,.447-.132c.668-.24.9-.042.954.734-.106.284.273.439.165.8-.535-.139-1.012.23-1.565.215a11.743,11.743,0,0,0-1.707.011c-.576.069-1.066-.25-1.628-.229a5.014,5.014,0,0,1-1.544-.389,5.706,5.706,0,0,1-1.469-.584c-.444-.274-.98-.4-1.431-.665s-.863-.659-1.313-.965a12.628,12.628,0,0,1-1.227-1.159,6.27,6.27,0,0,1-1.069-1.268,15.369,15.369,0,0,1-.89-1.344,14.933,14.933,0,0,1-1.433-4.039,12.759,12.759,0,0,1,.674-7.015,12.352,12.352,0,0,1,3.222-4.711,12.79,12.79,0,0,1,2.072-1.587A10.218,10.218,0,0,1,40.921.793,24.051,24.051,0,0,1,43.382.163,16.9,16.9,0,0,1,46.019,0a12.041,12.041,0,0,1,2.549.4,9.333,9.333,0,0,1,2.36.857,12.308,12.308,0,0,1,4.511,3.561,11.84,11.84,0,0,1,2.4,4.94c.641,3.39.536,2.621.127,5.751-.278.084-.432-.3-.715-.19" transform="translate(-8.3 0)"/><path d="M55.222,29.594c0-1.34,0-2.681,0-4.02,0-.722.235-.957.983-1.021a1.375,1.375,0,0,0,.223-.067,9.065,9.065,0,0,0-.009-1.172,2.325,2.325,0,0,1,.54-1.587,3.009,3.009,0,0,1,1.606-1.184A2.823,2.823,0,0,1,61.665,22a1.755,1.755,0,0,1,.4,1.141v1.311c.157.189.374.056.558.1a.877.877,0,0,1,.648.849q.009,2.364,0,4.727a.813.813,0,0,1-.927.87q-3.063.008-6.126,0c-.711,0-.98-.281-.994-1.007,0-.134,0-.268,0-.4" transform="translate(-14.117 -5.204)"/><path d="M10.3,8.7v1.544H8.744c-.089-.474,0-.994-.051-1.544Z" transform="translate(-2.222 -2.214)"/><path d="M13.087,8.673h1.542v1.574c-.474.051-.991.006-1.542.026Z" transform="translate(-3.346 -2.208)"/><path d="M17.39,10.241V8.7h1.572c.051.474.006.992.026,1.543Z" transform="translate(-4.446 -2.214)"/><path d="M21.716,10.241V8.7h1.572c.051.475.006.993.026,1.544Z" transform="translate(-5.552 -2.214)"/><path d="M27.611,8.7v1.543H26.039c-.051-.474-.006-.992-.026-1.543Z" transform="translate(-6.65 -2.214)"/><path d="M10.3,14.572H8.76V13c.476-.051.993-.006,1.543-.026Z" transform="translate(-2.24 -3.301)"/><rect width="1.545" height="1.545" transform="translate(6.52 12.95)"/><path d="M10.3,23.225H8.761V21.65c.474-.051.991-.006,1.542-.026Z" transform="translate(-2.24 -5.504)"/><path d="M10.3,27.55H8.762V25.976c.473-.052.99-.006,1.54-.026Z" transform="translate(-2.24 -6.605)"/><path d="M56.328,41.663v-1.6h1.51c.01.015.078.066.078.116,0,.464-.015.927-.025,1.391a9.172,9.172,0,0,1-1.562.092" transform="translate(-14.4 -10.197)"/><path d="M56.35,44.365h1.542v1.574c-.474.051-.991.006-1.542.026Z" transform="translate(-14.406 -11.292)"/><path d="M57.892,50.264H56.35V48.689c.473-.051.991-.006,1.542-.026Z" transform="translate(-14.406 -12.385)"/><path d="M56.275,53.019h1.6v1.512c-.015.01-.065.078-.115.078-.463,0-.926-.015-1.389-.025a9.214,9.214,0,0,1-.092-1.565" transform="translate(-14.387 -13.494)"/><path d="M34.695,58.912V57.368h1.572c.051.475.006.993.026,1.544Z" transform="translate(-8.87 -14.601)"/><path d="M40.588,58.912H39.043V57.35c.476-.084,1,0,1.545-.048Z" transform="translate(-9.981 -14.584)"/><path d="M43.37,57.345h1.543v1.563c-.475.086-.994,0-1.543.048Z" transform="translate(-11.088 -14.595)"/><path d="M49.239,57.366v1.546h-1.56c-.084-.476,0-1-.048-1.546Z" transform="translate(-12.177 -14.6)"/><path d="M52.024,57.345h1.541v1.574c-.473.051-.991.006-1.541.026Z" transform="translate(-13.3 -14.595)"/><path d="M56.35,57.345h1.541v1.574c-.473.051-.991.006-1.541.026Z" transform="translate(-14.406 -14.595)"/><path d="M47.894,10.838h1.533c.138.162.056.335.071.494.013.13-.02.291.17.291.377,0,.636.255.949.384.784.323,1,1.022,1.289,1.683.082.189.019.394-.293.362a5.448,5.448,0,0,0-.8,0,.474.474,0,0,1-.571-.335.888.888,0,0,0-.991-.486c-.463.055-.938,0-1.406.016a.839.839,0,0,0-.748,1.041,1,1,0,0,0,.932.555c.464.048.939-.01,1.407.016a2.5,2.5,0,0,1,2.1,1.267,1.866,1.866,0,0,1,.341,1.644,2.308,2.308,0,0,1-1.3,1.578,4.832,4.832,0,0,1-.5.239c-.523.083-.723.33-.548.877H47.947c-.118-.09-.057-.271-.049-.426.01-.242-.059-.306-.32-.361a2.964,2.964,0,0,1-2.092-1.9.344.344,0,0,1,.345-.507c.234-.005.469,0,.7,0,.282,0,.523-.047.665.367.1.277.517.441.895.439.47,0,.939.007,1.408,0a.872.872,0,0,0,.806-.695,1.014,1.014,0,0,0-.494-.9,1.282,1.282,0,0,0-.395-.018c-.436,0-.872,0-1.308,0a2.68,2.68,0,0,1-2.595-1.888,2.294,2.294,0,0,1,.5-1.975,3.32,3.32,0,0,1,1.408-.966c.433-.213.45-.18.467-.8" transform="translate(-11.618 -2.759)"/><path d="M2.245,50.832H21.433c.036.05.1.1.106.151a1.42,1.42,0,0,1-.86,1.654c-.521.286-1.176.526-1.451,1.062a4.177,4.177,0,0,0-.095,1.87c-.016,1.879-.006,3.76-.006,5.64-.863.158-10.934.211-14.491.073V58.09c0-1.276-.037-2.553.019-3.826a1.04,1.04,0,0,0-.521-.992,8.375,8.375,0,0,0-1.189-.765,1.115,1.115,0,0,1-.724-1.32c.009-.1.013-.193.024-.356" transform="translate(-0.565 -12.937)" fill="#7a8898"/><path d="M17.317,47H10.876c0-1.176-.019-2.339.008-3.5a1.513,1.513,0,0,1,1.308-1.315c1.27-.027,2.54-.029,3.81,0A1.514,1.514,0,0,1,17.311,43.6c.016,1.1.005,2.21.005,3.4" transform="translate(-2.779 -10.731)" fill="#7bb1f7"/><path d="M14.626,34.609a1.614,1.614,0,0,1,.1,3.225,1.613,1.613,0,1,1-.1-3.225" transform="translate(-3.334 -8.809)" fill="#fcd7a4"/><path d="M62.2,28.164v3.159H57.408a13.857,13.857,0,0,1-.023-1.531c-.01-.532,0-1.064,0-1.628Z" transform="translate(-14.668 -7.168)" fill="#d88c8d"/><path d="M61.42,25.11H59c0-.424-.021-.851.005-1.276a1.206,1.206,0,0,1,2.4-.025c.031.426.006.855.006,1.3" transform="translate(-15.083 -5.781)" fill="#fdd78b"/></g></g></g></svg>