<svg xmlns="http://www.w3.org/2000/svg" xmlns:xlink="http://www.w3.org/1999/xlink" width="118.011" height="120.057" viewBox="0 0 118.011 120.057"><defs><clipPath id="a"><rect width="118.011" height="120.057" fill="none"/></clipPath></defs><g transform="translate(5695 8518)"><g transform="translate(-5695 -8518)"><g transform="translate(0 0)" clip-path="url(#a)"><path d="M18.234,12.423c.447-1.571,1.91-2.652,2.108-4.435a2.4,2.4,0,0,0,2.391-1.564,26.205,26.205,0,0,0,4.239-2.085C42.813-5.231,61.255,6.06,63,21.991a22.752,22.752,0,0,1-5.223,17.9C54.424,43.854,49.8,46.957,50.245,53a20.679,20.679,0,0,1-9.8.136A55.14,55.14,0,0,1,40.233,40.4c1.023-1.237,2.159-1.382,3.122-1.841,5.582-2.656,7.672-8.119,5.223-13.781A56.75,56.75,0,0,0,40.811,12.6a2.259,2.259,0,0,0-1.61-1.064.886.886,0,0,0-.693.235c-3.935,4.456-7.439,9.22-9.307,14.926-1.438,4.389.885,9.148,5.248,11.537a16.2,16.2,0,0,1,3.691,1.956,54.033,54.033,0,0,1-.016,12.546,14.42,14.42,0,0,1-9.835.046c.177-5.621-4.135-8.8-7.45-12.724C14.785,32.89,13.737,24.7,17,15.953c.435-1.168.855-2.341,1.233-3.529" transform="translate(19.797 1.067)" fill="#efbf20"/><path d="M1.544,52.593c-.693.2-1.064-.274-1.5-.758,0-5.6-.122-11.254.041-16.9C.205,30.744,4.055,27.8,7.9,29.583a2.336,2.336,0,0,0,.931.016c.912,1.117,2.219,1.811,2.762,3.214v8.745c2.377-.855,4.746-.253,6.69-.477a13.306,13.306,0,0,1,7.139,5.213c.968,1.484,1.189,3.345,1.578,5.071.3,1.339-.306,3.315-1.428,6.008,2.3.864,3.787,2.656,5.3,4.591.622-2.041,2.9-2.587,4.267-4.274a9.871,9.871,0,0,1-1.6-6.52,11.4,11.4,0,0,1,4.379-8.093A10.957,10.957,0,0,1,47.066,41.2a10.119,10.119,0,0,1,7.9,6.831,11.551,11.551,0,0,1-.885,9.929,14.09,14.09,0,0,1,4.854,4.815,16.393,16.393,0,0,1,5.128-4.794c-1.9-2.543-1.8-5.481-1.44-8.268a7.446,7.446,0,0,1,2.7-5.114h1.7c1.129,1.394.016,2.481-.523,3.622a8.061,8.061,0,0,0,2.831,10.5,7.82,7.82,0,0,0,10.959-2.852A7.909,7.909,0,0,0,76.78,44.876c-1.276-.647-3.3-.544-3.262-2.781-.048-.528.56-.571.65-.974,2.8-.244,4.889,1.129,6.881,2.755A10.306,10.306,0,0,1,84.433,50.2a9.2,9.2,0,0,1-1.555,7.423c1.228,1.709,3.661,2.225,4.3,4.432,1.41-1.97,2.93-3.762,5.209-4.619-.795-2.133-1.852-4.35-1.269-6.582a13.975,13.975,0,0,1,2.626-5.937c1.567-1.845,3.707-2.435,5.552-3.836,2.244.242,4.637-.47,7.1.592.256-2.933.018-5.81.136-8.72,1.41-3.082,3.882-4.276,7.285-3.787.2.272.587.332.954.493,2.092.91,2.972,3.338,3.23,5.089a3.586,3.586,0,0,1,0,.5q0,22.859,0,45.714a2.514,2.514,0,0,1-.085.463c-1.3.915-1.3.915-2.412-.336-.979-1.129-.746-2.509-.749-3.817q-.024-19.58-.014-39.16a9.023,9.023,0,0,0-.4-3.693c-.454-1.051-1.17-1.9-2.437-1.758a2.117,2.117,0,0,0-2.018,2.175c-.088,3.677-.668,7.273,2.06,10.641,3.469,4.285,2.785,10.279-.965,14.417a11.536,11.536,0,0,1-14.525,2.451c-.933-.523-1.7-1.357-3.025-1.562C91,61.7,89.873,63.652,89.806,66.3c-.092,3.824-.007,7.649-.041,11.473-.009,1.154.115,2.352-.751,3.317-1.161,1.456-1.341,1.456-2.5,0-.82-.889-.71-2-.719-3.076-.028-3.327.076-6.658-.041-9.982a7.346,7.346,0,0,0-4.283-6.858c-2.629,1.145-5.025,2.728-8.008,2.665-2.94-.06-5.435-1.357-8.038-2.654a6.867,6.867,0,0,0-4.156,6.368c-.058,3.493.014,6.987-.037,10.482-.016,1.154.062,2.382-1.209,3.055v.9c-.7.041-1.431.493-2-.4a5.064,5.064,0,0,1-1.235-3.663c.021-3.488.051-6.978-.014-10.464-.053-2.843-1.449-4.826-4.1-6.257-2.509,1.143-4.972,2.548-7.893,2.629-2.979.083-5.435-1.3-7.75-2.534-3.057,1.011-4.64,3.281-4.743,6.755-.1,3.32-.007,6.644-.035,9.966-.009,1.071.1,2.182-.721,3.069-1.159,1.456-1.338,1.456-2.5,0-.875-.97-.716-2.172-.726-3.324-.03-3.744.039-7.49-.032-11.233-.053-2.714-1.177-4.764-3.578-5.78a6.956,6.956,0,0,0-2.894,1.44,11.469,11.469,0,0,1-14.74-2.331C3.267,55.641,2.7,49.608,6.3,45.212c2.781-3.4,1.931-7.02,1.783-10.676A2.023,2.023,0,0,0,6.1,32.617a2.339,2.339,0,0,0-2.325,1.564,6.771,6.771,0,0,0-.493,3.177c-.021,4.161.06,8.321-.048,12.48-.03,1.156.184,2.647-1.689,2.755" transform="translate(0 37.877)"/><path d="M19.4,13.491c.774.6.638,1.3.221,2.03a25.534,25.534,0,0,0-2.113,5.621,4.838,4.838,0,0,0-.106.954c-.085.947.217,1.919-.463,2.822-.24.318-.106.981-.028,1.468.624,3.847,1.069,7.745,3.267,11.139a23.339,23.339,0,0,0,2.834,3.82,49.366,49.366,0,0,0,3.732,3.684,8.055,8.055,0,0,1,2.585,4.435c.175.67.719,1.23.592,2.027a15.7,15.7,0,0,0-.025,2.368h8.925V41.132a11.307,11.307,0,0,1-6.858-3.794c-1.958-2.05-2.594-4.591-2.965-7.278-.253-.511.525-.659.426-1.253a2.829,2.829,0,0,1,.226-1.387A36.783,36.783,0,0,1,33.4,19.974c1.884-2.942,4.013-5.7,6.133-8.455h1.714c1.663,2.17,3.522,4.366,5.11,6.741,1.461,2.186,2.608,4.58,3.928,6.858.919,1.585.783,3.481,1.583,5.094-.961.882-.24,2.03-.558,2.983a14.015,14.015,0,0,1-3.622,5.264A10.194,10.194,0,0,1,41.964,41.1v12.77h8.805c.408-1.122-.074-2.258.334-3.4,1.325-3.709,1.3-3.7,4.082-6.563A37.022,37.022,0,0,0,59.31,39.4a20.975,20.975,0,0,0,3.61-7.768c.177-.848.687-1.666.445-2.541-.27-.981.417-1.686.564-2.541.221-1.283-.795-2.334-.521-3.543.288-1.276-.408-2.373-.62-3.527a8.169,8.169,0,0,0-1.29-3.2,33.331,33.331,0,0,1-1.6-3.073c-.786-1.415-2.221-2.311-2.859-3.81-1.714-.88-2.921-2.426-4.568-3.43a23.541,23.541,0,0,0-6.815-2.811c-2.311-.539-4.852-1.219-7.218-.553-1.177.332-2.361.164-3.493.583a40.545,40.545,0,0,0-6.354,2.774c-1.087.634-2.073,1.4-3.078,2.018-.7.228-1.074-.376-1.608-.477V6.228a20.354,20.354,0,0,1,5.923-3.764c1.6-.574,3.08-1.52,4.863-1.509.813-.9,2-.055,2.776-.511A5.7,5.7,0,0,1,40.534.01a7.038,7.038,0,0,1,2.818.405c.984.373,2.156.23,3.274.518a24.037,24.037,0,0,1,7.66,3.218,22.411,22.411,0,0,1,4.131,3.211c1.744,2.013,3.631,3.972,4.661,6.536.458,1.14,1.228,2.152,1.721,3.281s.352,2.467,1.062,3.557c.115.177.012.488.03.735a10.118,10.118,0,0,0,.415,3.573,2.372,2.372,0,0,1-.276,2.564c-.318.336-.131.792-.131,1.186a18.332,18.332,0,0,1-1.926,7.446,24.992,24.992,0,0,1-5.7,8.123c-.783.746-1.474,1.6-2.308,2.276-1.993,1.615-2.509,3.843-2.543,6.188-.074,5.407-.023,10.816-.023,16.225a5.925,5.925,0,0,1-3.612,3.423c-5.739,0-11.89.018-18.039-.012a4,4,0,0,1-3.85-2.7,2.322,2.322,0,0,0-.491-.548c0-5.324-.009-10.65,0-15.977a9.244,9.244,0,0,0-2.82-6.821c-1.177-1.175-2.345-2.361-3.534-3.527a18.189,18.189,0,0,1-3.605-5.25A19.8,19.8,0,0,1,15.3,32.009c-.145-1-.341-2.02-.405-3.053a4.071,4.071,0,0,0-.3-1.624,3.031,3.031,0,0,1,.069-2.8,2.208,2.208,0,0,0,.226-1.4c-.159-2.728,1.421-7.192,3.1-9.48.431-.313.94-.092,1.415-.159" transform="translate(18.627 -0.001)"/><path d="M.953,51.165c.509.023.611-.507,1-.714,0-4.981.085-9.973-.039-14.958-.055-2.214.477-3.99,2.405-5.315,1.767-.141,3.435.141,4.131,2.928v8.759C5.263,44.113,4.259,47.4,3.975,51.006a12.8,12.8,0,0,0,2,5.891C7.5,58.553,8.963,60.458,11.2,61.112c3.677,1.074,8.171,1.251,12.162-3.057,2.624.608,4.009,2.566,5.078,5.253v16.35a25.014,25.014,0,0,1-2.97-.03c-.659-.081-1,.445-1.53.53-.76-2.507.018-5.064-.24-7.586-.1-1.014.177-2.119-.76-3.092-.935.972-.657,2.078-.76,3.092-.258,2.523.523,5.08-.24,7.586-.534-.088-.885-.546-1.532-.532q-5.215.1-10.431,0c-.645-.014-1,.445-1.532.532-.76-2.507.018-5.064-.237-7.586-.1-1.014.175-2.119-.763-3.092-.935.972-.657,2.078-.76,3.092-.256,2.523.523,5.08-.237,7.586-.537-.085-.871-.611-1.532-.53a24.975,24.975,0,0,1-2.967.03c-.935-.924-.781-2.129-.792-3.262q-.055-6.434,0-12.867a14.03,14.03,0,0,0-.7-4.866A4.531,4.531,0,0,0,.741,54.77c-.2-.654-.419-1.106.044-1.712.426-.56.06-1.262.168-1.894" transform="translate(0.591 39.306)" fill="#72c0e7"/><path d="M38.639,79.643q0-7.488,0-14.979c0-3.209,1.732-5.492,5.114-6.577a9.638,9.638,0,0,0,6.105,3.488,10.975,10.975,0,0,0,6.828-.9,11.824,11.824,0,0,0,5.068-5,9.471,9.471,0,0,0,1.26-6.368c-1.041-4.764-2.67-6.2-4.375-7.388V31.948a5.145,5.145,0,0,1,2.495-1.788h1.788c.256.267.53.583.832.866a4.338,4.338,0,0,1,1.4,3.426c-.044,10.487-.023,20.974-.023,31.458V79.643h-4.5c-.583-2.357-.06-4.75-.237-7.121-.076-1.014.187-2.117-.947-3.26-1.251,3.587-.023,7.084-.816,10.381h-13.5c-.583-2.357-.06-4.75-.237-7.121-.076-1.014.187-2.117-.947-3.26-1.249,3.587-.021,7.084-.813,10.381Z" transform="translate(50.375 39.321)" fill="#fa5c3c"/><path d="M13.688,63.549V48.722c1.122-2.792,2.338-5.094,5.234-6.153,5.071,4.055,10.4,4.161,15.746-.065a10.116,10.116,0,0,1,5.008,5.564V59.759A14.284,14.284,0,0,1,39.652,62c-.127.8.763,1.267.525,2.046-.537-.085-.869-.611-1.53-.53a25.014,25.014,0,0,1-2.97.03c-1-1.021-.68-2.327-.749-3.539-.12-2.043.214-4.117-.369-6.663-.968,2.161-.468,3.951-.627,5.665-.143,1.53.424,3.179-.753,4.536h-13c-1-1.021-.677-2.327-.749-3.539-.12-2.043.214-4.117-.366-6.663-.968,2.161-.472,3.951-.629,5.665-.143,1.53.422,3.179-.753,4.536Z" transform="translate(17.846 55.415)" fill="#8a71e6"/><path d="M26.054,63.549a3.191,3.191,0,0,0,.5-2.29c-.009-4.495,0-8.987,0-13.189A10.093,10.093,0,0,1,31.565,42.5c5.34,4.225,10.673,4.119,15.744.062,2.9,1.064,4.112,3.364,5.236,6.158V63.549h-4c-1-1.021-.68-2.327-.749-3.539-.12-2.043.214-4.117-.369-6.663-.968,2.161-.47,3.951-.629,5.665-.141,1.53.424,3.179-.753,4.536h-13c-1-1.021-.677-2.327-.749-3.539-.12-2.043.214-4.117-.366-6.663-.968,2.161-.472,3.951-.631,5.665-.141,1.53.424,3.179-.751,4.536Z" transform="translate(33.969 55.415)" fill="#eebf1f"/><path d="M36.737,34.715A2.977,2.977,0,0,0,38.946,36.3,8.346,8.346,0,0,1,45.139,43a7.826,7.826,0,0,1-1.163,6.2,8.4,8.4,0,0,1-7.536,4.011c-.661-.009-1.322,0-1.5,0-2.783-1.016-4.889-2.272-6.034-4.605-1-2.048-.606-4.294-.68-6.5.742-.984.933-2.338,2.011-3.119V37.215l3.313-2.5Z" transform="translate(36.781 45.26)" fill="#feb59e"/><path d="M48.374,29.492c-2.6.323-4.52,2.145-4.557,4.354-.012.707-.723,1.039-.721,1.684H41.534a2.842,2.842,0,0,1-1.143-2.366,3.7,3.7,0,0,0-2.52-3.085,4.342,4.342,0,0,1-2.041-1.212V27.377c.974-.811,2.6-.634,3.347-1.912.663-1.133,1.638-2.131,1.631-3.3l1.168-1.5c.551-.127.721.062.878.249a6.034,6.034,0,0,1,1,2.087c.537,1.58,1.122,3.191,3.154,3.684.521.127,1.518.249,1.62.9.558.922-.684,1.1-.251,1.91" transform="translate(46.714 26.883)" fill="#020201"/><path d="M10.246,29.584c.336-.758-.511-.908-.463-1.428.06-.141.078-.336.184-.417a4.762,4.762,0,0,1,1.56-1.032c2.129-.447,2.684-2.14,3.246-3.845a4.384,4.384,0,0,1,1.385-2.288,3.159,3.159,0,0,1,1.7,2.066,6.626,6.626,0,0,0,2.808,4.025c.809-.359,1.223.666,1.937.514a3.417,3.417,0,0,1,.147,1.76,75.418,75.418,0,0,0-5.568,6.575c-.525.293-1.106.094-1.668.127.046-.689-.693-1-.753-1.691a4.7,4.7,0,0,0-4.513-4.366" transform="translate(12.752 26.823)" fill="#020201"/><path d="M.993,42.551c.687-.191,1.062.26,1.5.76V63.546c-1.11,1.249-1.11,1.249-2.454.311V43.24c.343-.182.445-.712.954-.689" transform="translate(0.051 55.418)" fill="#040404"/><path d="M3.379,58.621c-.74-2.6-.848-10.291.194-11.954H5.186c1.041,1.663.933,9.351.194,11.954a1.238,1.238,0,0,1-2,0" transform="translate(3.661 60.843)" fill="#0a1114"/><path d="M10.105,58.621c-.74-2.6-.848-10.291.194-11.954h1.613c1.041,1.663.933,9.351.194,11.954a1.238,1.238,0,0,1-2,0" transform="translate(12.43 60.843)" fill="#0a1114"/><path d="M40.891,58.121a3.68,3.68,0,0,1-.53-1.776c.081-2.228.053-4.462.018-6.692a4.4,4.4,0,0,1,.71-2.986h1.6a4.412,4.412,0,0,1,.707,2.986c-.035,2.23-.06,4.465.021,6.692a3.68,3.68,0,0,1-.53,1.776v.742c-.558.617-1.228.032-1.714.274-.438-.355-.223-.712-.286-1.016" transform="translate(52.62 60.843)" fill="#150806"/><path d="M47.617,58.121a3.68,3.68,0,0,1-.53-1.776c.081-2.228.053-4.462.018-6.692a4.4,4.4,0,0,1,.71-2.986h1.6a4.412,4.412,0,0,1,.707,2.986c-.035,2.23-.06,4.465.021,6.692a3.68,3.68,0,0,1-.53,1.776v.742c-.558.617-1.228.032-1.714.274-.438-.355-.223-.712-.286-1.016" transform="translate(61.389 60.843)" fill="#150806"/><path d="M15.423,58.108V47.416c1.152-.968,1.152-.968,2.5-.1v10.8c-1.161,1.456-1.341,1.456-2.5,0" transform="translate(20.108 60.856)" fill="#030305"/><path d="M22.149,58.108V47.416c1.152-.968,1.152-.968,2.5-.1v10.8c-1.161,1.456-1.341,1.456-2.5,0" transform="translate(28.877 60.856)" fill="#030305"/><path d="M28.007,58.108V47.416c1.152-.968,1.152-.968,2.5-.1v10.8c-1.161,1.456-1.341,1.456-2.5,0" transform="translate(36.515 60.856)" fill="#050401"/><path d="M34.732,58.108V47.416c1.152-.968,1.152-.968,2.5-.1v10.8c-1.161,1.456-1.341,1.456-2.5,0" transform="translate(45.283 60.856)" fill="#050401"/><path d="M35.962,41.855c-1.17.1-1.783-.256-1.795-1.548,1.106-1.424,1.926-3.308,3.939-4.11,2.129-2.35,4.211-4.741,5.059-7.9.534-1.986,1.216-3.986.993-6.075-.394-3.684-1.32-7.259-3.647-10.21a18.22,18.22,0,0,0-9.524-6.478c-1.8-.491-3.716-1.057-5.686-.567-.141-1.016-.343-1.827.682-2.585a18.17,18.17,0,0,1,3.783.4,21.023,21.023,0,0,1,3.806,1.09A26.859,26.859,0,0,1,37.1,5.6c3.285,2.35,6.144,5.084,7.609,9.024A17.682,17.682,0,0,1,46.23,20c.053,1.083.592,2.147.447,3.292-.546,4.322-1.5,8.446-4.485,11.9a17.66,17.66,0,0,1-3.7,3.675,3.03,3.03,0,0,0-1.362,1.663c-.166.553-.825.956-1.166,1.32" transform="translate(32.838 3.111)" fill="#f6e3ae"/><path d="M9.245,35.366H12.33c2.451,0,4.126,1.087,6.013,2.887a8.158,8.158,0,0,1,2.182,4.594c.47,2.262-.567,4.347-1.859,6.153-2.09,2.917-5.149,3.838-8.542,3.313A7.736,7.736,0,0,1,4.635,48.44c-.986-1.677-2-3.559-1.461-5.559.295-1.1.21-2.421,1-3.294,1.131-1.239,2.037-2.732,3.76-3.4.431-.168,1.233-.069,1.306-.816" transform="translate(3.944 46.109)" fill="#feb59e"/><path d="M51.7,35.4a13.564,13.564,0,0,0,1.675.986,7.466,7.466,0,0,1,3.665,3.675,8.006,8.006,0,0,1-.915,8.982,8.72,8.72,0,0,1-4.456,3.064,9.068,9.068,0,0,1-7.983-1.792,8.865,8.865,0,0,1-3.057-5.941A8.317,8.317,0,0,1,45,36.419a5.768,5.768,0,0,1,3.81-1.041A22.557,22.557,0,0,0,51.7,35.4" transform="translate(52.947 46.074)" fill="#feb59e"/><path d="M32.7,41.242c.152,5.559.3,7.879-6.195,11.164-6.674.677-9.754-2.615-10.708-6.9a7.968,7.968,0,0,1,5.08-9.464c4.755-1.55,8.519-1.08,11.823,5.2" transform="translate(20.322 46.015)" fill="#feb59e"/><path d="M33.521,31.233c.235.235.47.47.79.788h7.642V36.8c-.327.249-.845.64-1.56,1.177H22.271c-.4-.408-.811-.822-1.177-1.191V24.541H41.911v4.907H34.29a2.407,2.407,0,0,0-.769,1.785" transform="translate(27.502 31.995)" fill="#aeaeae"/><path d="M26.088,14.381l4.628-4.628a23.136,23.136,0,0,0,1.875,3.688c.965,1.265.514,2.785,1.309,3.972-.693,1.279-.426,2.781-1.286,4.131a11.367,11.367,0,0,1-5.006,4.2,4.084,4.084,0,0,1-1.52.025Z" transform="translate(34.013 12.715)" fill="#13bd6c"/><path d="M21.969,16.119V12.053c.567-.3.829.037,1.117.325,1.468,1.474,2.9,2.988,4.423,4.4a4.888,4.888,0,0,1,1.88,4.479,12.1,12.1,0,0,0-.009,1.594c-1.878.329-3.235-.6-4.488-1.689a7.643,7.643,0,0,1-2.923-5.045" transform="translate(28.643 15.56)" fill="#13bc6b"/><path d="M28.346,7.125A89.887,89.887,0,0,1,28.29,20.7c-.083,0-.191.035-.244,0-2-1.47-3.513-3.442-5.446-5.16a40.053,40.053,0,0,1,5.746-8.409" transform="translate(29.465 9.289)" fill="#12b768"/></g></g></g></svg>