<svg xmlns="http://www.w3.org/2000/svg" xmlns:xlink="http://www.w3.org/1999/xlink" width="119.788" height="119.166" viewBox="0 0 119.788 119.166"><defs><clipPath id="a"><rect width="119.788" height="119.166" fill="none"/></clipPath></defs><g transform="translate(5696 8065)"><g transform="translate(-5696 -8065)"><g transform="translate(0 0)" clip-path="url(#a)"><path d="M29.28,83.667c-7.022,0-14.03-.085-21.033.03A8.364,8.364,0,0,1,0,75.363c.147-7.346.117-14.7.011-22.049A8.3,8.3,0,0,1,8.107,45.1c8.111.087,16.223.041,24.334.019a7.863,7.863,0,0,1,7.167,4.2,3.627,3.627,0,0,0,.452.571,4.96,4.96,0,0,0,.482.4A31.785,31.785,0,0,1,56.86,43.338a32.47,32.47,0,0,1,17.905,2.8c.686-.292.322-.893.324-1.325.026-8.025.083-16.051-.006-24.076a8.314,8.314,0,0,1,8.209-8.1q14.193.144,28.391,0a8.31,8.31,0,0,1,8.089,8.221c-.1,8.023-.13,16.051.013,24.074a8.388,8.388,0,0,1-8.251,8.332c-8.863-.109-17.728-.032-26.859-.032A39.684,39.684,0,0,1,89.4,60.156,34.489,34.489,0,0,1,92.39,67.8,35.456,35.456,0,0,1,93.4,76.254a32.666,32.666,0,0,1-1.274,8.36,27.728,27.728,0,0,1-3.316,7.49C81.7,103.56,71.221,108.643,57.972,107.922a28.4,28.4,0,0,1-12.56-3.895A35.609,35.609,0,0,1,35.3,95.437c-2.873-3.523-4.454-7.591-6.02-11.77" transform="translate(0 11.176)"/><path d="M40.676,23.7v3.5c-.311.232-.712.531-1.061.793,0,1.6,1.2,2.378,1.8,3.582,2.014-.906,4.091-.571,5.464-.61,4.354,1.293,6.536,4.168,8.488,7.772v1.083c-1.509,1.79-3.67,2.766-5.636,4.156.256.946,1.389,1.37,1.381,2.676-.5.916-1.92,1.149-2.939,2.348a4.571,4.571,0,0,0-1.85-2.368c-2.37.388-3.667,3.109-6.355,3.115-3.457-3.186-5.168-7.024-4.147-12.119.7-.976.985-2.642,2.189-3.787-.068-1.153-1.343-1.671-1.547-2.836H32.509c-1.53-1.017-2.284-2.551-3.365-4.106-.627-.279-1.181.149-1.66.8.275,1.379,1.443,2.252,2.012,3.744-.254.91.462,2.152-.424,3.354a4.1,4.1,0,0,1-1.01,1.23c-3.269,2.118-6.532,4.243-9.769,6.408-1.709,1.144-1.683,1.183-3.629,1.134a6.951,6.951,0,0,1-3.218-3C9.887,37.985,8.159,35.5,6.434,33.015c-.281-.4-.09-1.046-.712-1.247-.3-2.295.746-3.68,2.683-4.938,2.668-1.735,5.311-3.527,7.94-5.33.663-.456,1.4-.752,2.039-1.212,1.4-1,2.627-.462,3.693.477a5.739,5.739,0,0,1,2.029,2.442c.138.43.682.729,1.021,1.068l1.242-.588c-.041-1.195-.448-1.973-1.914-3.657V16.541c1.281-1.724,3.3-2.44,4.9-3.838h3.444a13.213,13.213,0,0,1,3.041,4.019,1.475,1.475,0,0,0,1.86-1.055c-1.1-1.813-2.841-3.554-2.016-6.125.234-1.5,1.59-2.139,2.67-2.817Q42.9,3.867,47.267.744C47.665.462,48.3.631,48.5.038c2.3-.256,3.667.8,4.944,2.728,1.492,2.259,2.936,4.573,4.575,6.745a6.281,6.281,0,0,1,1.4,4c-.618,2.344-2.346,3.147-3.761,4.168-2.246,1.622-4.7,2.956-6.983,4.531-3.486,2.4-5.17,2.131-7.476-1.473a13.122,13.122,0,0,0-1.31-1.44c-.217.582-.914.332-1.311.833.115,1.4,1.212,2.314,2.093,3.565" transform="translate(5.015 -0.001)"/><path d="M42.618,11.619v3.855a4.377,4.377,0,0,0-4.181,4.151H34.661c-.6-1.358.258-2.623.569-3.868a5.924,5.924,0,0,1,3.312-3.322,7.723,7.723,0,0,1,4.075-.816" transform="translate(30.464 10.241)" fill="#020202"/><path d="M32.378,17.43A7.826,7.826,0,0,1,40.3,9.458v3.87c-1.967.543-4,1.3-3.989,4.1Z" transform="translate(28.62 8.36)" fill="#020202"/><path d="M19.8,22.618c.82.976,2.783.682,2.851,2.3-.793.761-1.445,1.385-2.1,2.01-.931.684-1.879-.3-3.05-.305s-2.114,1-3.369.456c-.155-.955-1.085-1.456-1.784-2.319,1.914-2.721,4.8-2.05,7.448-2.139" transform="translate(10.922 19.986)" fill="#030303"/><path d="M12.318,27.814c2.176-2.363,4.906-1.978,7.554-1.931.784.989,2.822.62,2.789,2.282-.774.78-1.407,1.421-2.383,2.406-.658.268-1.605-.718-2.777-.72s-2.108.995-3.3.479c-.177-1.023-1.185-1.466-1.882-2.515" transform="translate(10.891 22.839)" fill="#030303"/><path d="M47.491,55.4h4.742v5.33c-1.291,1.291-2.606,2.6-3.955,3.955v1.592c2.189,2.35,5.291,3.787,7.621,6.1-.266,2.165-1.786,3.891-1.545,6.129l3.073,3.071c-.369,1.3-1.718,1.5-2.655,2.152-1.879,1.308-4.147,1.822-6.139,2.913-.7.384-1.7-.217-2.265.648-2.968.207-5.924.842-8.908.473-1.11-.138-2.191-.447-3.337-.522-1.068-.072-2.022-.788-3.124-1A13.06,13.06,0,0,1,28.15,85.19c-.995-.45-1.916-1.049-2.922-1.5-.707-.32-1.172-1.174-1.724-1.767.923-1.9.953-4.2,2.133-6.231h7.158a17.33,17.33,0,0,0,3.463-6.636,6.1,6.1,0,0,0-3.177-2.093A56.173,56.173,0,0,1,27.434,64.7c-.207-.089-.341-.35-.514-.537.818-2.549,2.811-4.6,3.124-7.2-.691-1.794-2.687-1.66-3.65-2.96.072-.676.831-1.2.541-2.067,1.451-.467,2.677.4,3.987.565,1.255.164,2.378.972,3.957.757.283-.335.7-.837,1.17-1.387V42.547c-1.257-1.9-3.26-2.764-4.635-4.309C30.08,36.74,28.1,36,27.026,34.262a23.1,23.1,0,0,1,7.128-2.657,26.926,26.926,0,0,1,7.878-.641,5.287,5.287,0,0,1,2.725.9c-1.049,2.512-2.007,5.078-3.2,7.531a15.924,15.924,0,0,1-1.334,3.017c-.554.731-.038,1.835.447,2.491,2.082,2.813,3.574,5.984,5.5,8.891.379.571.908.944,1.323,1.613" transform="translate(20.781 27.329)" fill="#89cbe6"/><path d="M75.77,14.811c.262.643,1.019.415,1.432.891a4.41,4.41,0,0,1,1.362,3c-.024,8.607-.013,17.216-.013,25.416a4.381,4.381,0,0,1-3.25,3.107H45.354c-1,1-2.039,2.041-3.088,3.09-.405-.437-.224-.88-.224-1.276q-.02-14.948-.008-29.9c0-2.794,1.541-4.326,4.352-4.328q14.694-.008,29.384,0" transform="translate(37.137 13.093)" fill="#edbd33"/><path d="M43.106,64.652l3.3-3.2V51.836l-1.247-1.294H39.577c-1.029-.756-1.193-2.056-1.926-3.024-1.033-1.362-1.671-3.017-2.578-4.482a2.055,2.055,0,0,1-.109-2.069c1.347-3.071,2.721-6.131,4.092-9.217a35.52,35.52,0,0,1,5.274,2.227v7.162L46,42.419h1.287c.967-.995,1.963-2.02,2.934-3.017H51.1A28.251,28.251,0,0,1,58.583,58.67,28.615,28.615,0,0,1,51.1,77.924h-.891l-1.232-1.285c-.3-2.285,1.652-4.1,1.5-6.4-.725-1.5-2.263-2.144-3.486-3.018-1.17-.838-2.042-2.1-3.891-2.568" transform="translate(30.714 28.071)" fill="#4ba376"/><path d="M34.6,35.322V65.357c-.307-.23.122.16-.215.143-.062,0-.121-.107-.179-.166L31.34,62.469q-12.416,0-24.83,0c-2.8,0-4.33-1.541-4.332-4.351q-.008-11.65,0-23.294c.643-.262.415-1.021.891-1.432a4.41,4.41,0,0,1,3-1.362c8.609.024,17.218.013,25.423.013a4.4,4.4,0,0,1,3.113,3.28" transform="translate(1.923 28.318)" fill="#eddb99"/><path d="M25.735,63.442c1.212,2.007,3.523,1.715,5.006,2.928,1.285-.192,2.044,1.272,3.382,1.08a1.123,1.123,0,0,1,.693,1.4c-2.5.138-5.072.013-7.661.07-1.419.546-1.656,2-1.845,3.147-.26,1.586-1.106,2.922-1.27,4.407a.794.794,0,0,1-.985-.371c-1.189-2.054-3.248-3.542-3.93-5.911.318-.326.7-.428.9-.119a2.278,2.278,0,0,0,2.425.848l1.257-1.247V36.755c.848-1.249,2.472-1.573,3.246-2.83,3.037,2.348,5.841,4.842,8.848,7.588v4.332c-2.265-.183-4.39-1.477-6.757-1.262l-1.21,1.21c-.467,2.634-1.9,4.937-2.184,7.435a5.563,5.563,0,0,0,3.013,2.125,1.805,1.805,0,0,1-.26,1.573c-.846,1.487-1.351,3.173-2.244,4.622a3.934,3.934,0,0,0-.428,1.9" transform="translate(16.91 29.995)" fill="#4ba376"/><path d="M23.712,22.592a8.068,8.068,0,0,1,3.77-3.923,8.68,8.68,0,0,1,4.677.592,6.213,6.213,0,0,1,2.2,3.071c-3.03,2-6.058,4.006-9.308,6.157a3.678,3.678,0,0,0-1.336-2.01Z" transform="translate(20.965 16.414)" fill="#396694"/><path d="M26.47,18c-1.524-.292-1.79,1.49-3.111,1.059-1.786-2.954-4.017-5.637-5.773-9.084,1.524.292,1.79-1.49,3.111-1.059,1.786,2.954,4.017,5.637,5.773,9.084" transform="translate(15.549 7.827)" fill="#386491"/><path d="M69.557,33.147a4.7,4.7,0,0,0,.588,2.758,31.873,31.873,0,0,1-7.064,2.216c-2.449.618-4.786,1.984-7.1,1.652a9.607,9.607,0,0,1-3.565-2.711c-.328-.548.318-1.438-.861-1.656a2.671,2.671,0,0,0,.669-2.587c.552-.445,1.14-.916,1.745-1.4-1.012-2.4-2.988-3.949-4.094-6.131.552-1.208,2.114-1.268,2.9-2.653,1.605,2.131,3.032,4.023,4.53,6.009,3.621-2.713,7.286-5.462,10.923-8.189,1.146.812,1.528,2.125,2.408,3-.266.584-.548.959-1.078,1.072-1.242,2.523-4.1,3.326-5.758,5.33a2.609,2.609,0,0,0,.918,2.389c1.6.914,3.7-1.865,4.84.9" transform="translate(44.101 18.085)"/><path d="M52.111,15.908H63.018V19.8h-8.6c-1.831,2.726-2.551,5.922-4.629,8.238H48.2c-1.1-.82-1.63-2.186-2.457-3.341-.8-1.106-1.519-2.255-2.336-3.444.678-1.227,2.074-1.554,3-2.481.87,1.114,1.3,2.329,2.244,3.167,1.206-2,1.741-4.322,3.465-6.031" transform="translate(38.378 14.065)"/><path d="M63.644,31.237c-.69.057-.381-.594-.61-.863a24.3,24.3,0,0,0-4.29,1.283c-1.125-.9-1.213-2.564-2.176-3.749,2.342-1.75,4.709-3.522,7.077-5.293Z" transform="translate(50.015 19.995)" fill="#386693"/><path d="M3.253,34.364l1.289-1.245h25.89c.332.379.716.822,1.2,1.374v17.7c-.349.279-.806.643-1.507,1.2H22.556c-.217,1.786,1.4,3.165.912,4.888l-1.134,1.134H12.561l-1.206-1.5c-.307-1.424,1.221-2.715,1-4.456H4.6L3.253,52.125Z" transform="translate(2.876 29.282)"/><path d="M5.431,47.318V35.308H25.665c.017,3.919,0,7.925.009,12.01Z" transform="translate(4.802 31.218)" fill="#89cbe6"/></g></g></g></svg>