<svg xmlns="http://www.w3.org/2000/svg" xmlns:xlink="http://www.w3.org/1999/xlink" width="119.1" height="119.057" viewBox="0 0 119.1 119.057"><defs><clipPath id="a"><rect width="119.1" height="119.057" fill="none"/></clipPath></defs><g transform="translate(0 -0.001)"><g transform="translate(0 0.001)" clip-path="url(#a)"><path d="M34.046,18.229v-1.58a17.548,17.548,0,0,1,5.147-3.842A41.079,41.079,0,0,1,46.235,9.65a47.344,47.344,0,0,1,4.6-1.249A47.189,47.189,0,0,1,62.3,7.553a5.441,5.441,0,0,1,2.847.414c.736.408,1.836-.387,2.567.507,2.57-.136,4.787,1.153,7.093,1.929a42.653,42.653,0,0,1,6.34,3.157,40.039,40.039,0,0,1,6.364,4.854,37.891,37.891,0,0,1,7.471,8.963,43.605,43.605,0,0,1,3.154,6.119,30.777,30.777,0,0,1,1.812,5.966,18.69,18.69,0,0,0,.76,2.015c.435-.945.817.1,1.257,0a7.421,7.421,0,0,1,1.521-.021c.694,1.083,2.514,1.1,2.7,2.812,1.153-.7.4-1.911.851-2.538.59-.83.184-1.63.264-1.865a7.779,7.779,0,0,1,4.36-4.448c.446,0,1.219.053,1.98-.013a3.712,3.712,0,0,1,3.191,1.281c.528.563,1.089,1.1,1.652,1.657-.035.955.6,1.75.614,2.762.013.947-.809,1.649-.52,2.594-.9,1.625-.878,3.5-1.31,5.243-.4,1.609-.835,3.247-1.11,4.912a11.688,11.688,0,0,1-1.286,4.547c.1,2.618-1.406,4.936-1.406,7.535,0,.6-.782.977-.443,1.686a51.67,51.67,0,0,0-3.762,4.216c-.883,1.321-1.846,1.388-3.223.736A1.892,1.892,0,0,1,105.7,69.4c4.544-4.149,4.4-10.033,5.854-15.3,1.033-3.722,1.782-7.53,2.623-11.306.221-1,.782-2.148-.582-2.855-1.726.013-1.849,1.412-2.111,2.567-1.019,4.523-2.121,9.027-2.989,13.579a10.536,10.536,0,0,1-4.144,6.938c-2.906,2.167-5.582,4.64-8.405,6.922-2.879,2.324-6.164,1.55-9.3,1-1.489-.264-1.887-1.921-1.123-3.68A70.778,70.778,0,0,1,89.1,60.248c.71-1.235,1.548-2.511.979-4.12-1.817-.611-2.388.827-3.058,1.833-3.6,5.4-7.066,10.908-11,16.061a20.624,20.624,0,0,0-4.213,14.049c.189,4.627.043,9.27.037,13.9a4.812,4.812,0,0,1-.646,3.111,3.293,3.293,0,0,1-1.15,1.321c-.883.291-1.254-.5-1.863-.4a4.658,4.658,0,0,1-.72-2.957c.037-4.389.016-8.776.016-13.2a71.365,71.365,0,0,1-8.01.771,38.211,38.211,0,0,1-7.781-.923c0,4.651.005,9.115-.005,13.582,0,.883.243,1.828-.8,2.511-.374.125-.763.955-1.964.448a2.766,2.766,0,0,1-.945-1.153,4.829,4.829,0,0,1-.648-3.117q0-8.241,0-16.485a16.134,16.134,0,0,0-3.053-9.761c-4.139-5.788-8.114-11.7-12.029-17.646-.68-1.033-1.273-2.367-2.981-2.1-.83,1.356-.1,2.474.408,3.538,1.134,2.37,2.58,4.582,3.666,6.986,1.43,3.17.475,4.576-2.951,4.9a11.224,11.224,0,0,1-9.63-3.41,72.468,72.468,0,0,0-6.756-5.662,8.144,8.144,0,0,1-2.935-4.584C9.77,52.72,8.926,47.594,7.616,42.578c-.288-1.11-.288-2.6-2.041-2.628-1.179.534-.889,1.542-.686,2.41,1.726,7.383,3.359,14.785,5.134,22.155a4.838,4.838,0,0,0,1.211,2.207c5.886,6.348,11.671,12.787,17.649,19.049,1.5,1.569,2.78,3.319,4.3,4.867a3.38,3.38,0,0,1,.974,2.305c.1,3.4.083,6.8.013,10.206a2.113,2.113,0,0,1-.59,1.473c.205.982-.731,1.251-1.15,1.852h-1.38c-.7-.3-.624-1.169-1.174-1.6V93.245c-3.077-2.85-5.71-6.151-8.611-9.2-1.83-1.927-3.8-3.76-5.449-5.844-1.764-2.231-3.952-4.043-5.737-6.215-1.161-1.414-2.4-2.73-3.824-4.229-.459-2.041-.9-4.317-1.492-6.553-.611-2.3-1.123-4.635-1.686-6.943-.395-1.609-.758-3.263-1.1-4.9A73.128,73.128,0,0,0,.251,42.191a2.715,2.715,0,0,1,.3-2.818c.152-.165.024-.59.024-.7,1.756-2.668,4.011-3.914,7.64-2.991a6.433,6.433,0,0,1,3.218,3.85c.36,1.177.534,2.412.779,3.624.072.358-.144.774.344,1.169,1.1-.846,1.516-2.532,3.186-2.746A4.456,4.456,0,0,0,18.015,41c.163.147.326.291.491.44a7.219,7.219,0,0,0,.728-2.268,38.339,38.339,0,0,1,1.7-5.315c1.171-3.552,3.25-6.583,5.243-9.662a21.138,21.138,0,0,1,2.434-2.679,2.762,2.762,0,0,1,2.185.432c1.462.873.811,1.98.256,2.986-.9,1.628-2.172,3-3.138,4.59a19.332,19.332,0,0,0-2.783,6c2.634,2.826,2.634,2.826,3.255,8.91.873-1.849,1.724-3.562,3.664-3.837,2.826-.4,5.694-.635,8.475.344a4.7,4.7,0,0,1,2.252,2.255,39.1,39.1,0,0,0,5.385,6.642,14.721,14.721,0,0,0,6.545,4.152c2.687.779,3.194,1.577,3.186,4.371-.011,4.774.467,9.6-1.091,14.254-.44,2.273-1.326,4.243-3.485,5.446a2.416,2.416,0,0,0-1.332,2.511,24.9,24.9,0,0,0,.76,4.731c4.48,1.217,8.992,1.035,13.985.075-.219-5.8,2.359-10.543,5.742-14.943.555-1,1.51-1.782,1.684-3.149-1.062-1.814-2.831-3.114-4.312-4.664-2.527-2.644-5.87-4.8-4.912-9.126-2.239-1.142-4.36-1.2-6.367-1.686-2.8-.67-3.159-1.219-3.354-4.1-.24-3.522.31-6.706,2.652-9.523,1.7-2.049,1.073-4.512.942-6.521a2.176,2.176,0,0,0-1.348-1.121,6.2,6.2,0,0,1-5.065-5.083,3.071,3.071,0,0,0-2.735-2.474c-1.065-.179-2.121-.419-3.181-.632-4.3-.865-4.3-.865-5.569-5.086-1.4.035-2.271,1.155-3.407,1.71-1.361.662-2.647,1.1-3.456-.744" transform="translate(-0.001 12.581)"/><path d="M19.177,13.024c.587.077.75.72,1.428,1.009,2.273-.534,3.848-2.8,6.393-3.37v3.88a5.23,5.23,0,0,0,3.573,1.766,41.725,41.725,0,0,1,6.38,1.369,3.139,3.139,0,0,1,.638.462c.155,1.291.87,2.479,1.145,3.842a2.379,2.379,0,0,0,1.828,1.964c1.348.261,2.516,1.121,4.16,1.179v6.521l-3.7,5.449V44.71c.328,1.059,1.521.544,2.025,1.241,1.142-.179,2.172.614,3.258.472.907-.117,1.489.833,2.361.5s1.286.694,2.071.467v4.856c1.622,1.62,3.253,3.255,4.891,4.886s3.287,3.258,4.985,4.939c-.825,1.171-1.622,2.3-2.42,3.434-3.114,2.009-6.66,2.354-10.209,2.527-2.183.107-4.472.8-6.511-.67-.35-1.166.326-2.22.568-3.261a12.887,12.887,0,0,0,.352-2.847c.021-3.4.008-6.8.008-10.4l-1.353-1.049-5.081-1.678c-3.485-3.41-7.383-6.874-9.622-11.581-3.063-1.358-6.145-.491-9-.8-2.575.838-2.81,3.287-3.936,5.067a3.2,3.2,0,0,1-.744-2.562c.035-1.622.008-3.245.008-4.87-.723-1.5-2.361-1.6-3.762-2.22,1.038-1.577,1.34-3.261,2.164-4.76a41.686,41.686,0,0,1,3.474-5.286c.523-.686.835-1.545,1.4-2.188a1.56,1.56,0,0,0-.021-2.185c.8-1.489,2.452-2.228,3.25-3.717" transform="translate(14.868 17.787)" fill="#72cbc4"/><path d="M26.71,85.338V69.565c0-1.625.107-3.255-.029-4.87s.867-3.066.5-4.475c1.75-3.906,4.357-7.079,6.647-10.417,2.933-4.272,5.8-8.587,8.691-12.888A14.925,14.925,0,0,1,44,35.258c1.011-.363,1.758.235,2.639.528a7.99,7.99,0,0,1-1.684,5.478c-1.5,2.3-2.4,4.9-3.824,7.242-.173.28-.024.758-.024,1.324.36.3.822.691,1.332,1.118h7.175c1.814-1.484,3.445-3.018,5.3-4.3,1.041-.723,1.905-1.689,2.885-2.5,1.211-1.006,2.46-1.993,3.661-3.021A5.368,5.368,0,0,0,62.9,38.452a35.875,35.875,0,0,0,.678-3.669c.259-1.206.5-2.439.827-3.608.627-2.231.939-4.526,1.569-6.756a12.819,12.819,0,0,0,.694-3.882c.387-.39.768-.774,1.15-1.155h1.625a4.131,4.131,0,0,1-.077,2.508c-1.465,7.047-3.221,14.03-4.686,21.077-.536,2.588-2.209,4.453-3.957,6.161C54.9,54.809,49.624,61,43.751,66.622c-1.855,1.772-3.365,3.84-5.15,5.668a4,4,0,0,0-1.038,2.983c0,2.321.013,4.643-.008,6.967a3.48,3.48,0,0,1-.627,2.634c-2.775,0-5.55.008-8.328-.005a2.694,2.694,0,0,0-1.889.47" transform="translate(44.492 32.333)" fill="#fee4b9"/><path d="M2.078,19.38H3.692c1.283,1.022,1.3,2.612,1.58,3.976.491,2.428,1.11,4.835,1.553,7.279a26.178,26.178,0,0,0,1.094,4.624,37.5,37.5,0,0,1,1.123,4.405c.035.144.04.294.077.592q6.272,5.231,12.808,10.689H29.3c.294-.339.643-.747,1.134-1.318.237-.712-.243-1.516-.638-2.271-1.259-2.423-2.652-4.774-3.893-7.207a7,7,0,0,1-1.035-4.216c.726-.395,1.39-1.083,2.754-.544,1.353.843,2.105,2.716,3.213,4.259,2.025,2.823,3.538,6.033,5.7,8.731,2.223,2.767,3.784,5.966,6.132,8.635a15.622,15.622,0,0,1,1.681,3.178c.939,8.251.256,16.707.459,25.144a2.7,2.7,0,0,0-1.889-.47c-2.775.013-5.553.005-8.328.005-1.091-1.457-.6-3.143-.608-4.726-.056-7.245.043-7.317-5.091-12.347C22.806,61.839,17.237,55.39,11.1,49.479a15.8,15.8,0,0,1-4.8-8.774c-1.153-6.236-2.8-12.379-4.1-18.59a4.519,4.519,0,0,1-.131-2.735" transform="translate(3.174 32.332)" fill="#fee4b9"/><path d="M30.513,84.873V73.215c4.165-5.033,8.992-9.257,13.238-14.006,3.181-3.557,6.626-6.828,9.94-10.239,1.113-1.147,1.887-2.543,3.066-3.64.937-.873.843-2.3,1.091-3.464.288-1.353.75-2.671.95-4.021a31.3,31.3,0,0,1,.889-3.816c.422-1.534.686-3.13.987-4.7.592-3.079,1.545-6.084,1.9-9.211.032-.28.52-.352.454-.736.67.125.875.811,1.494,1.214-1.943,8.413-3.9,16.869-5.953,25.774-.736.736-1.847,1.793-2.893,2.906-.974,1.038-1.46,2.2-.544,3.549-1.1.24-1,1.494-1.777,2.084A5.439,5.439,0,0,0,51.414,57c-3.058.456-4.694,2.9-6.473,4.939-2.591,2.981-5.467,5.686-8,8.723a5.905,5.905,0,0,0-1.638,4.157c.069,2.476.037,4.952.005,7.429-.013.907.163,1.884-.616,2.62Z" transform="translate(50.907 32.333)" fill="#fed074"/><path d="M19.169,3.217A9.459,9.459,0,0,1,23.889.055c1.2-.259,2.951.419,4.486,1.564L31.163.186c2.634-.475,4.72.79,6.5,2.973-.037.859.56,1.665.592,2.666A10.443,10.443,0,0,1,36.5,11.38c-1.529,2.692-4.144,4.221-6.559,5.929a2.169,2.169,0,0,1-2.65.109c-3.234-2.012-6.268-4.123-7.768-7.834C18.5,7.049,18.393,6.443,19.161,3.85a2.2,2.2,0,0,0,.008-.632" transform="translate(31.132 -0.001)"/><path d="M38.533,6.847h4.1c1.358,1.081,2.8,1.417,4.253.005h4.165a4.466,4.466,0,0,0,1.011.9c1.887.846,2.313,2.5,2.49,4.3.278,2.871-.987,5.139-2.852,7.159A25.768,25.768,0,0,1,46.026,24H43.667c-.507-.286-.993-.742-1.537-1.1a21.3,21.3,0,0,1-5.758-5.644c-1.382-1.977-1.38-4.171-1.321-6.409.867-1.009.886-2.7,2.548-3.1.32-.077.552-.518.934-.9" transform="translate(58.446 11.422)"/><path d="M2.884,19.38a7.932,7.932,0,0,1,.883,3.109c.523,2.564,1.139,5.1,1.718,7.653.355,1.556.68,3.111,1.075,4.662.752,2.962,1.283,5.98,1.892,8.976A3.53,3.53,0,0,0,9.3,45.517c1.558,1.665,2.874,3.541,4.574,5.086a60.763,60.763,0,0,1,4.6,4.6c4.133,4.664,8.678,8.931,12.939,13.467,1.345,1.43,2.626,2.938,3.989,4.373V84.872H31.217V72.134c-2.884-2.842-5.5-5.937-8.256-8.894-1.758-1.884-3.688-3.64-5.281-5.662-1.8-2.289-4.083-4.123-5.873-6.377-1.43-1.8-3.122-3.311-4.483-4.88C5.336,37.7,3.386,29.232,1.419,20.706A3.767,3.767,0,0,1,2.884,19.38" transform="translate(2.367 32.332)" fill="#fed074"/><path d="M2.322,11.327A6.242,6.242,0,0,1,6.244,6.861c.376,0,1.225.024,2.068-.005a3.54,3.54,0,0,1,2.743.64,1.455,1.455,0,0,0,1.692.229c1.54-1.27,3.306-.747,4.993-.862.152-.011.31,0,.462,0,1.6.95,3.133,1.964,3.626,3.939a19.229,19.229,0,0,0,.027,2.543c.107.806-.5,1.34-.563,2.121a6.29,6.29,0,0,1-2.084,3.506,16.965,16.965,0,0,1-5.161,4.3c-.323.144-.528.547-.734.774H10.919c-.448-.291-.784-.675-1.233-.966a20.522,20.522,0,0,1-5.665-5.366,8.393,8.393,0,0,1-1.7-5.337c.019-.462,0-.926,0-1.043" transform="translate(3.858 11.408)"/><path d="M32.091,61.649V48.881c2.884-2.748,5.438-5.817,8.128-8.742,2.119-2.305,4.373-4.478,6.431-6.794a2.732,2.732,0,0,1,2.161.435,1.6,1.6,0,0,1,.043,2.2,7.311,7.311,0,0,1-.6.894c-2.682,2.522-4.928,5.443-7.493,8.08-1.686,1.732-3.279,3.584-4.971,5.331V61.9c-.667.264-.2,1.289-1,1.532H33.207c-.3-.467-1.278-.7-1.115-1.782" transform="translate(53.51 55.557)" fill="#010101"/><path d="M65.3,42.828c-2.2.272-4.253-.294-6.257.507-1.793.718-3.656,1.259-5.489,1.879A4.019,4.019,0,0,0,52.8,47.9c.056,1.935-.027,3.872.029,5.8a6.225,6.225,0,0,1-1.329,4.36,24.066,24.066,0,0,0-2.442,3.73c-2.732-2.73-5.441-5.438-8.312-8.315-.253-1.836.483-4.08-.491-6.2a20.058,20.058,0,0,0-4.646-1.1A41.924,41.924,0,0,1,30.987,45.1V41.259c.982-1.441,2-2.866,2.935-4.347a3.88,3.88,0,0,0,.809-2.228c-.075-2.933-.027-5.865-.027-8.848-1.919-1.438-4.368-1.494-6.431-2.655-.224-1.718-1.222-3.293-1.5-5.1-.112-.728-1.134-.63-1.529-1.129a72.027,72.027,0,0,1-8.1-1.532v-3.96c1.935-.6,3.984-1.233,6.03-1.873.067-.019.123-.139.176-.131,1.983.294,3.856-.64,5.846-.5,1.927.133,3.917-.243,5.79.1a41.713,41.713,0,0,1,6.85,1.358,62.689,62.689,0,0,1,6.308,2.711A30.667,30.667,0,0,1,56.774,19.2a40.912,40.912,0,0,1,5.764,6.663,55.841,55.841,0,0,1,4.571,9.257,6.4,6.4,0,0,1-.363,5.182c-.451.827-.934,1.633-1.441,2.524" transform="translate(28.606 14.858)" fill="#66be00"/><path d="M34.867,35.068c-.171,4.491.56,9.054-1.187,13.6-.792.36-1.5,1.438-2.89,1.286a20.8,20.8,0,0,0-1.951-1.4,5.561,5.561,0,0,1-2.268-2.236c-3.391-5.6-7.479-10.74-10.874-16.346-.889-1.47-2.626-2.06-4.488-2.156,1.067-2.116,2.116-4.2,3.186-6.313h5.462a33.879,33.879,0,0,1,2.423,3.482,14.149,14.149,0,0,0,2.7,3.514,30.725,30.725,0,0,1,2.607,2.634,10.4,10.4,0,0,0,5.387,3.234c.632.189,1.187.515,1.892.7" transform="translate(18.701 35.872)" fill="#66be00"/><path d="M24.318,33.111c1.017.163,2.145-.39,3.069.47.619.112.939-.56,1.657-.526a15.367,15.367,0,0,0,5.39-.366c1.788-.547,3.744-.472,5.457-1.414.3-.163.76-.021,1.147-.021-1.209,1.985-2.671,3.805-3.794,5.854a7.959,7.959,0,0,0-1.307,4.333c.048.838-.622,1.486-.5,2.367a18.4,18.4,0,0,1,.024,2.546,34,34,0,0,1-15.789.141c.371-2.386-.68-4.7-.448-7.114,1.118-1.441,3.077-1.822,4.059-3.159.3-1.147.547-2.129.809-3.109.005-.019.147,0,.224,0" transform="translate(32.021 52.046)" fill="#11baa2"/><path d="M7.538,36.1H9.63c.216-.216.432-.438.6-.606.576-1.588-.2-3.042-.483-4.453a22.73,22.73,0,0,1-.334-3.773c-.059-1.7-.016-3.4-.016-5.1,2.244,1.588,2.831,4,3.253,6.5a6.97,6.97,0,0,0-.211,6.948c.79,1.761,1.825,3.41,2.743,5.11.272.5.523,1.014.833,1.617-.758.483-1.521.165-2.247.27-1.238-1.774-3.725-2.34-4.371-4.656-.742-.5-1.782-.694-1.857-1.857" transform="translate(12.576 36.98)" fill="#57a923"/><path d="M39.161,23.625c.6-.021.7-.726,1.393-.942v6.423c-.966.833-.067,2.151-.854,3.114-.424.52.163,1.542.963,2.079.192.131.408.184.355.475.654,1.249.093,2.095-.929,2.786.168,1.171-.841,1.734-1.51,2.1-.985.534-1.548,1.425-2.471,2.025H33.96a21.709,21.709,0,0,1,2.3-4.643,10.723,10.723,0,0,0,1.991-7.071c-.061-.87-.734-1.4-.947-2.161-.237-1.774.806-2.981,1.857-4.181" transform="translate(56.658 37.842)" fill="#11b9a2"/><path d="M36.257,39.307a10.072,10.072,0,0,0,.929-2.786h.923a2.636,2.636,0,0,0,1.758-2.562c.085-1.428.608-2.764.582-4.192-.045-2.618-.011-5.235-.011-7.888.523-.408,1.118-.187,1.678-.173a4.136,4.136,0,0,1,.654,2.764c-.027,3.311-.011,6.623-.011,9.86-1.462,2.057-3.829,3.053-5.281,4.977Z" transform="translate(60.49 36.094)" fill="#fbc251"/><path d="M10.2,36.969c.1.894.9.16,1.382.857.056.117.267.56.475,1-.294-.075-.384.2-.734.456-1.457-1.86-3.714-2.866-5.3-4.968,0-2.02-.08-4.248.024-6.468.1-2.073-.568-4.243.646-6.2H8.094a.6.6,0,0,1,.248.579c-.005,1.777.04,3.554-.013,5.326a24.175,24.175,0,0,0,.929,7.261,3.552,3.552,0,0,1,.011.923c.213.486.851.651.929,1.235" transform="translate(9.917 36.11)" fill="#fac150"/><path d="M42.6,23.071c-.2,1.577-1.342,2.74-1.857,4.181l-2.991-1.822H34.587c-.792.411-1.614.841-2.532,1.318a6.015,6.015,0,0,1-.128-2.089,14.3,14.3,0,0,1,7.223-1.6c1.145.1,2.3.016,3.453.016" transform="translate(53.216 38.396)" fill="#70c8c1"/><path d="M11.574,32.648c-.929-1.972-1.871-3.939-2.77-5.926-.12-.261-.037-.611-.48-.576,0-1-.374-2.244.083-2.954.734-1.139-.245-2.666,1.2-3.41.08.075.294.28.654.624-.8,4,1.233,7.581,2.287,11.3-.232.5-.488.846-.974.947" transform="translate(13.647 33.001)" fill="#64bc00"/><path d="M21.785,1.92a1.493,1.493,0,0,1,1.2.462c1.606,1.259,2.45,1.278,4.064.056a3.888,3.888,0,0,1,2.909-.969c.3.344.654.744,1.118,1.27-.155.691.24,1.569-.229,2.458-.907,1.716-2.076,3.821-3.947,4.619a1,1,0,0,1-1.281.032c-1.983-1.489-3.821-3.138-4.6-5.588-.261-.83-.8-2,.768-2.34" transform="translate(34.555 2.415)" fill="#fdc351"/><path d="M22.842,1.95c-.937.568-.189,1.449-.395,1.86C23.333,6.519,25.471,7.9,27.1,9.7c.253.28.568.091.851.149-.221.969-1.23.907-1.828,1.444a11.8,11.8,0,0,1-6.047-6.62V2.591l1.243-1.009c.382.117,1.142-.614,1.521.368" transform="translate(33.497 2.384)" fill="#f89a46"/><path d="M37.64,8.266a1.963,1.963,0,0,1,1.764.7c.563.566,1.409.531,1.753,1.235,1.79-.659,3.01-2.495,5.174-1.838l.966.966c.486,1.857-.5,3.378-1.436,4.816a14.346,14.346,0,0,1-2.434,2.463c-.123.117-.448.016-.678.016-3.17-1.014-4.48-3.64-5.534-6.455a1.784,1.784,0,0,1,.424-1.905" transform="translate(61.895 13.72)" fill="#fdc451"/><path d="M38.792,8.24c-.072,3.333,1.766,5.574,4.264,7.423.358.264.766.44.846.937-.128.672-.814.875-1.139,1.377-3.3-1.988-6.241-4.229-6.353-8.5.467-.472.843-.857,1.217-1.235Z" transform="translate(60.743 13.746)" fill="#f99a46"/><path d="M4.421,8.267a2.691,2.691,0,0,1,2.244.688c.576.5,1.262.739,1.884,1.2,1.644-.608,2.863-2.442,5.027-1.788.27.272.6.6.966.969.486,1.857-.5,3.378-1.436,4.816a14.346,14.346,0,0,1-2.434,2.463c-.123.117-.448.016-.678.016a8.494,8.494,0,0,1-5.574-8.36" transform="translate(7.333 13.719)" fill="#fdc451"/><path d="M5.6,8.259c-.032.464.5.64.5,1.174A6.412,6.412,0,0,0,8.149,13.8c.939,1,2.009,1.881,3.021,2.815C11,17.51,10.067,17.5,9.5,18c-.8-1.182-2.209-1.676-3.213-2.714-.793-.819-1.313-1.806-2.049-2.655-.766-.886-.507-2.121-.488-3.231.6-.416.867-1.353,1.847-1.145" transform="translate(6.159 13.727)" fill="#f89a46"/><path d="M30.591,18.737A3.227,3.227,0,0,1,28.283,16.6c.568-.3.237-1.332,1.049-1.572h5.99a2.091,2.091,0,0,1,.1,3.13c-.742.005-1.452.651-2.375.587s-1.841-.013-2.458-.013" transform="translate(47.186 25.079)" fill="#030500"/></g></g></svg>