<svg xmlns="http://www.w3.org/2000/svg" xmlns:xlink="http://www.w3.org/1999/xlink" width="202" height="359" viewBox="0 0 202 359"><defs><clipPath id="a"><rect width="202" height="359" transform="translate(1125.024 1112)" fill="#fff" stroke="#707070" stroke-width="1"/></clipPath><clipPath id="b"><path d="M0,0,296.7,4.151l4.156,297.642-296.7-4.151Z" fill="none"/></clipPath></defs><g transform="translate(-1125.024 -1112)" clip-path="url(#a)"><g transform="translate(1093.572 1315.683) rotate(-47)" opacity="0.2"><g clip-path="url(#b)"><path d="M156.9,28.956c0-.934-.3-1.967.871-2.556-1.209-4.862-5.733-6.47-9.063-9.107a67.431,67.431,0,0,0-15.53-9.129,76.1,76.1,0,0,0-17.622-5.6,91.87,91.87,0,0,0-13.468-1.008c-2.538-.046-5.1-.687-7.7.832C92.5,3.486,89.479,1.5,87.445,3.6c-4.607-.785-8.338,2.5-12.795,2.41-6.944,3.49-14.543,5.56-21.288,9.522-8.062,4.732-15.891,9.775-23.506,15.2-4.029,2.872-7.109,6.562-10.693,9.65C23.138,54.123,48.029,87.691,60.536,95.65c.265,1.424-.937,1.966-1.671,2.738-4.225,4.525-9.152,8.4-12.48,13.733-2.8,4.477-10.369,13.455-12.134,21.4-.348,1.561-1.924,2.912-2.121,4.852-.233,2.33-2.279,3.962-2.279,6.562a11.52,11.52,0,0,1-1.476,6.218c-1.5,2.187.775,5.138-1.708,6.826-.088.061-.01.371,0,.564.141,4.528-.718,9.022-.74,13.449a96.286,96.286,0,0,0,2.481,21.69c1.516,6.672,4.075,13.088,6.474,19.554,2.788,7.489,7.112,14.117,11.711,20.321a88.834,88.834,0,0,0,17,17.769,171.106,171.106,0,0,0,20.742,13.744c2.411,1.355,5.471,1.079,6.978,3.4,2.191.187,2.345-2.238,4.038-2.246,3.176-4.268.687-6.762-3.064-8.6-5.43-2.671-10.763-5.439-15.709-9.633.763-11.391-2.158-22.109-7.284-32.434-1.791-3.617-.268-7.24,1.264-10.58,2.549-5.556,5.307-11.02,7.347-16.818,3.779-10.733,1.409-18.5-9.565-21.889-14.26-4.4-17.122-17.144-23.74-27.292a4.063,4.063,0,0,1,.034-3.926,79.722,79.722,0,0,1,24.081-30.419c9.82,5.457,19.58,10.715,30.556,12.394.189,3.119-2.059,4.059-3.251,5.629-6.79,8.9-10.523,18.486-6.973,30.12,4.2,13.774,15.2,21.628,29.488,20.622a145.22,145.22,0,0,0,16.635-1.636c1.86-.35,3.771-.84,6.389.418,3.11,5.938,2.459,13.034,3.142,19.8.719,7.11.387,14.3.43,21.463a40.042,40.042,0,0,0,2.017,12.01c3.547,11.123,12.587,15.536,23.3,11.4,1.607-.625,3.138-1.4,4.7-2.111,6.766-3.523,11.909-8.771,16.078-15.077,4.725-7.159,6.758-14.936,5.027-23.621-.532-2.68-.68-5.387-.952-8.085-1.425-13.965,5.067-23.689,18.846-28.059,1.781,1.821,1.722,4.253,1.977,6.481,5.585,48.835-27.405,91.58-75.447,97.914-3.818.505-7.581,1.152-11.475.664-3.633-.056-7.285-.389-10.874.051-2.887.341-5.786.974-5.553,4.945.689,2.333.689,2.333,3.206,4.942,5.052-2.012,10.075,2.094,15.754.534,5.237-1.446,11.2-.261,16.652-1.558a113.2,113.2,0,0,0,14.793-4.455c4.778-1.849,9.6-3.479,14-6.482,4.268-2.927,8.7-5.689,13.026-8.583,4.791-3.2,8.42-7.494,12.3-11.522,3.636-3.771,6.518-8.231,9.395-12.67a90.193,90.193,0,0,0,7.433-13.585,124.644,124.644,0,0,0,4.69-13,47.329,47.329,0,0,0,2.157-13.46c-.012-4.944,1.324-9.635,1.276-14.6-.041-4.783-1.355-9.343-1.744-14.047a62.587,62.587,0,0,0-3.251-13.771c-1.454-4.5-3.265-8.822-5.04-13.169-1.726-4.216-4.384-7.971-6.472-12-2.275-4.365-5.716-7.807-8.573-11.668-2.884-3.893-6.66-7.188-10.3-10.46-3.6-3.24-7.516-6.125-11.526-9.345,3.8-3.455,8.289-5.637,11.54-9.768,2.93,2.39,5.82,4.493,8.407,6.92,4,3.757,7.8,7.721,11.652,11.633,5.158,5.225,8.842,11.542,12.964,17.535,4.792,6.964,6.819,15.189,10.933,22.451.616,5.657,3.59,10.831,3.749,16.6.072,2.575,1.538,4.934,1.326,7.677-.2,2.535-.734,5.3,1.17,7.654-.5,3.689,1.226,7.6-.938,11.159-.423.694.011,1.9-.033,2.866-.135,2.65.949,5.631-.416,7.872-1.345,2.216.738,5.111-1.687,6.81-.345,8.87-3.939,16.813-7.363,24.56a88.866,88.866,0,0,1-13.692,22.5q-4.4,5.084-8.979,9.977c-9.195,9.827-20.33,16.881-32.417,22.643a84.723,84.723,0,0,1-24.329,7.778c-2.326,2.082-5.514.273-7.982,1.528-2.727,1.387-5.605.465-8.4.509-5.59.094-11.2-.23-16.79-.136-3.407.057-6.655-.793-9.975-1.241-3.3-.443-6.381-1.718-9.547-2.326-11.6-2.2-21.683-7.973-31.864-13.534-3.707-2.02-6.977-4.864-10.466-7.315-6.383-4.485-11.509-10.336-16.885-15.888-4.15-4.287-7.208-9.467-10.466-14.436A110.312,110.312,0,0,1,16.25,205.648c-1.275-4.367-2.26-8.876-3.183-13.373-1.929-9.377-.829-18.7-1.329-28.018-.143-2.759-.478-5.509.806-8.305.683-1.478,1.149-4.281-1.962-5.807l-5.618-.079c-.956,2.075-1.986,4.039-1.495,6.39.76,3.649-1.535,6.859-1.093,10.552.418,3.446.154,6.956.234,10.445.068,2.977.051,5.874,1.14,8.865,1,2.739-.666,6.036,1.415,8.785.395,6.636,2.758,12.824,4.909,19.046a128.6,128.6,0,0,0,11.045,23,87.724,87.724,0,0,0,7.609,10.924c7.65,9.384,7.916,11.241,17.691,19.126,4.258,3.437,8.195,7.356,12.826,10.266A170.466,170.466,0,0,0,81.8,289.44c6.543,2.853,13.449,4.151,20,6.743,2.242.882,4.918-.412,6.931,1.585,4.762-.816,9.266,1.612,14.021,1.423,4.807-.2,9.742.653,14.449-.012,5.455-.775,11.149-.481,16.358-2.089,4.929-1.518,10.007-2.434,14.923-4.109A125.306,125.306,0,0,0,195.8,280.092c9.048-5.815,17.571-12.587,24.505-20.906a137.135,137.135,0,0,0,19.439-30.353c3.06-6.64,4.868-13.7,7.567-20.448.755-1.885.768-4.338.978-6.444.342-3.509,2.124-6.846,1.229-10.508,2.267-7.841.293-15.951.886-23.888.194-2.555-.884-4.732-1.339-7.088-.411-2.172,1.024-4.643-1.222-6.512-.172-7.823-4-14.726-6.019-22.079-.511-1.861-1.934-3.071-2.023-4.978a156.363,156.363,0,0,0,23.619-9.761C272.4,112.585,284.176,102.575,290,93.1c4.8-7.811,5.1-11.461,6.665-19.74a41.554,41.554,0,0,0,.885-8.247,19.56,19.56,0,0,0-1.129-7.711c-.97-2.326.734-5.294-1.393-7.616-2.28-12.536-6.773-22.335-10.961-31.191-.907-1.923-1.681-4.362-4.272-5.187-5.915-.85-11.106,2.043-16.542,3.83a54.41,54.41,0,0,0-7.844,3.19,142.665,142.665,0,0,0-20.036,12.615,50.5,50.5,0,0,0-12.255,13.836,45.217,45.217,0,0,0-6.842,17.9,84.145,84.145,0,0,0-.739,13.47c.028,2.386-.4,4.782,1.106,7.152.7,1.1.156,2.962.175,4.3-1.274.932-1.945.281-2.653-.439a110.038,110.038,0,0,0-13.19-12.1c-.311-.229-.51-.7-.84-.805-5.387-1.814-7.515-6.443-9.877-11.013-3.037-5.895-7.092-11.188-10.769-16.7-2.273-3.41-5.233-6.093-7.911-9.028l-2.95-.041c-4.645,2.1-3.888,5.527-1.75,9.018,2.837,4.629,6.628,8.613,9.465,13.247,1.088,1.769,2.512,3.4,3.032,5.947-7.719-1.293-15.191-2.8-22.644-4.379-8.527-.574-14.494-4.724-19.41-12-8.21-12.149-17.224-23.75-25.955-35.541-.519-1-1.742-1.632-1.558-3.363,8.469.16,16.15,3.144,23.552,7.09a105.549,105.549,0,0,1,14.158,9.371c3.055,2.329,6.379,4.177,9.379-.01" transform="translate(-0.003 0.001)"/><path d="M133.9,132.2c-2.89-.249-4.955,1.847-7.582,2.53-8,2.081-15.455-1.548-18.034-9.321a41.742,41.742,0,0,1-2.52-14.763c.134-3.861-.343-7.768-.074-11.607.578-8.225-1.484-16.315-1.7-24.5-.056-2.11-.5-4.8-2.628-6.474-4-1.173-7.6,1.789-11.582.793-2.045,2.039-4.679.744-7.03,1.071-1.971.27-4.229-.952-5.921,1.024a1.731,1.731,0,0,1-1.662-.013c-2.774-1.986-5.879-.85-8.84-1.314-.538-.858-1.524-.9-2.342-1.3C55.781,64.3,50.924,57.885,49.27,48.8c-1.614-8.887-.307-15.667,4.549-23.132,2.5-3.854,5.983-6.662,8.916-10.045-.894-.931-1.668-1.877-3.293-1.826-5.219.157-10.03-1.837-14.767-3.778C38.779,7.6,32.978,4.9,27.939.391,16.115,10.328,6.469,21.851.511,36.558A59.806,59.806,0,0,1,7.785,48.526c1.624,3.6,4.257,6.737,5.924,10.451,1.038,2.322,3.665,3.5,6.282,4.338A52.051,52.051,0,0,1,28.029,66.5c3.779,1.948,7.157,3.937,8.924,8.823,1.4,7.574-2.973,14.326-5.833,21.485-1.379,3.453-3.231,6.653-4.511,10.206a10.224,10.224,0,0,0,.595,9.009,59.983,59.983,0,0,1,5.045,12.01,12.855,12.855,0,0,1,.867,3.134,22.165,22.165,0,0,0,1.035,6.572c.635,1.794,1.2,4.46-.753,6.495-.57.592-.057,2.228-.041,3.4a58.03,58.03,0,0,1,7.9,4.788,38.671,38.671,0,0,0,8.622,4.71c2.681.956,4.563,2.105,5.394,4.9a2.886,2.886,0,0,0-.842,2.75c.722.2.931-.472,1.634-.917,4.9,2.355,10.4,3.294,15.8,4.648.264-1.646,1.945-2.113,2.792-3.448l14.535.2c17.805-3.682,30.962-14.472,42.64-27.465,1.329-1.475,2.858-3.15,2.074-5.594" transform="translate(40.913 101.443)" fill="#96c8e7"/><path d="M51.818,18.212c-1.9,1.581-4.195,1.09-5.894,1.05C32.519,8.189,18.537-.177,0,.018,1.39,1.426,2.094,2.6,3.106,3.053c1.4.63.306,2.865,2.208,2.9C21.743,18.235,36.279,32.336,47.273,49.828a29.8,29.8,0,0,0,3.891,4.388c3.014-.245,5.712,1.97,8.773,1.355,1.506,1.88,3.575,1.157,5.351,1.088,1.8-.069,2.862,1.935,4.766,1.341,2.573-.81,4.795,2.693,7.513.716-4.3-8.346-10.251-15.827-16.175-23.61l-.047-3.363c.428-1.064,2.043-1.433,2.205-2.908-2.909-1.581-4.627-4.461-7.089-6.526-1.582-1.327-2.625-3.274-4.642-4.1" transform="translate(105.08 10.745)" fill="#07b028"/><path d="M63.968.9C60.7.875,58.4,3.172,55.658,4.35c-8.023,3.448-16.474,6.812-24.9,7.812-1.93.229-3.8,1.226-5.885.957a4.042,4.042,0,0,0-2.859,1.255c-5.158,4.506-11.366,7.73-15.776,13.15C.146,35.007-1.346,43.1,3.353,52.014a15.387,15.387,0,0,0,13.44,8.75c5.747.373,11.181-1.566,16.868-1.054,2.677-2.724,6.776.544,9.5-2.013,2.127,1.58,5.093.5,7.066,2.281a14.173,14.173,0,0,1,4.211,6.413c1.268,4.247,2.485,8.513,2.531,12.988.072,7.733.4,15.48.246,23.2-.113,5.715.84,11.3,1.791,17.41.952,1.36,1.459,3.732,4.244,5.071l6.191.087c6.16-2.561,10.594-7.391,14.83-12.26,2.887-3.322,4.043-7.832,5.386-12.073.474-1.5-.957-2.885-1.059-4.171-.564-7.192-2.551-14.4-1.463-21.556.759-4.944,1.844-10.087,6.158-13.493,1.051-.831,2.028-1.757,1.594-3.356a5.652,5.652,0,0,0,.822-4.948C91.124,33.633,81.949,16.49,67.028,2.5A5.493,5.493,0,0,0,63.968.9" transform="translate(97.445 102.469)" fill="#b9ea6c"/><path d="M46.276,78.781c-3.127,5.887-8.032,10.287-12.9,14.521-6.589,5.734-13.735,10.829-22.032,14.064-3.115,1.215-5.992,3-9.387,3.534-.182.029-.268.612-.4.939,4.4.886,8.5-.941,12.814-1.037,4.177-.1,7.961-1.893,11.916-3.007,13.822-3.879,17.012-6.351,26.348-12.48,5.607-3.686,14.792-13.837,19.417-19.228,4.763-5.556,7.552-12.184,10.866-18.5,2.258-4.312,5.038-17.215,5.816-21.193,1.382-7.023.476-14.022.6-21.021.04-2.364.673-4.815-.856-7.227-1.22-1.928.276-4.481-1.071-6.927-8.663,5.026-17.853,9.2-22.09,19.206-.657,1.818.839,4.126-1.19,5.831-.376.313-.285,1.6.021,2.235,1.734,3.627.383,7.633,1.489,11.094.915,2.863.734,5.544,1.064,8.305.726,6.061-2.164,11.064-5,15.712a34,34,0,0,1-7.873,9.366q-3.773,2.915-7.552,5.809" transform="translate(128.54 154.866)" fill="#60b5fe"/><path d="M31.488,92.248c.5-6.467-1.636-11.947-3.926-17.362-.841-2-2.345-3.724-3.17-5.725a14.266,14.266,0,0,1-.538-10.183,79.48,79.48,0,0,1,5.68-13.745c2.482-4.7,4.1-9.789,5.793-14.636-1.442-1.362-2.836-2.687-5.085-4.817a53.307,53.307,0,0,1-12.353-4.762c-1.124-.637-4.6-4.847-5.895-7.193C9.434,9.216,7.35,4.353,4.237.059A4.735,4.735,0,0,0,2.5,2.541,91.923,91.923,0,0,0,3.778,47.426c4.836,17.213,13.391,32.446,27.71,44.822" transform="translate(34.428 149.352)" fill="#b9ea6b"/><path d="M33.542.469c-10.987,8.006-22,16.038-33.2,24.193,6.758,7.451,14.812,12.225,23.349,16.8,15.144-11.023,30.082-21.9,45.582-33.188C57.207,5.64,45.683,3.119,33.542.469" transform="translate(60.938 60.124)" fill="#49ca5c"/><path d="M.1,6.825c.841,2.048,2.7,3.222,4.166,4.71,9.672,9.778,14.4,17.832,20.991,32.266,2.532,5.549,3.3,11.438,5.655,16.927.425.993.089,2.293.105,3.447,4.011-1.186,6.131-5,9.705-6.855,3.616-1.876,7.04-4.1,10.642-6.226C49.195,37.077,32.285,11.99,11.153.156,7.384,2.249,3.433,4.042.1,6.825" transform="translate(161.318 96.539)" fill="#95d529"/><path d="M25.509,41.648c6.485,2.445,11.93,3.205,17.243,4.193,5.135.954,10.208,3.369,16.2,2.555-3.587-6.148-8.018-11.112-11.881-16.46-3.789-5.253-7.139-10.865-11.339-15.753C31.361,11.094,28.455,4.878,23.515.329,15.472,2.362,7.289,2.968.1,7.3,8.828,19.1,17.415,30.7,25.509,41.648" transform="translate(70.98 10.171)" fill="#49ca5c"/><path d="M66.43,4.511C60.182,4.105,54.209,2.126,47.67.667,32.3,12.261,16.171,23.349.495,35.445c5.272,2.569,10.39,1.873,15.431,2.043,17.648-4.843,32.317-14.855,46.207-26.136,2.061-1.673,4.883-3.273,4.3-6.842" transform="translate(94.577 69.809)" fill="#49ca5b"/><path d="M22.755,32.536C17.868,21.008,13.514,10.719,9.026.126,5.654,4.2,4.171,8.819,2.539,13.542c-1.287,3.741.061,7.738-1.89,11.3C-.5,26.916,2.2,28.9,1.9,31.3a15.9,15.9,0,0,0,.314,6.833c1.018,3.136,1.262,6.418,2.451,9.484a71.289,71.289,0,0,1,3.2,8.6c.614,2.541,2.163,4.515,3.07,6.814,1.787-.774,2.338-2.729,2.695-4.05,1.368-5.024,4.026-9.451,5.7-14.293,1.457-4.214,4.342-8.063,3.431-12.153" transform="translate(222.994 49.434)" fill="#49ca5b"/><path d="M6.29,31.4c-1.757,2.184-2.5,4.893-3.282,7.488A46.185,46.185,0,0,1,.614,43.994c2.208.25,4.044-.737,5.627-1.488,6.253-2.961,12.6-5.718,18.389-9.626,9.038-6.1,14.3-11.865,18.687-21.5.895-1.961,1.977-3.93,1.9-6.082C45.154,3.655,46.6,2.7,46.44.65c-4.293.8-8.034,2.628-11.858,4.162C30.81,6.325,27.1,7.975,23.362,9.568a7.622,7.622,0,0,0-3.017,3.346C17.265,20.331,11.714,25.808,6.29,31.4" transform="translate(242 72.023)" fill="#07b028"/><path d="M0,0C6.085,11.529,12.583,21.968,21.393,30.5c9.078-6.608,18.1-13.185,27.725-20.192C32.306,6.78,16.153,3.39,0,0" transform="translate(33.523 48.025)" fill="#49ca5b"/><path d="M50.975.713c-3.162,4.926-8.006,8.011-12.533,11.436a124.191,124.191,0,0,1-15.2,9.973C16.911,25.583,10.672,29.166,3.769,31.5c-1.141.386-2.864.5-3.3,2.188,2.5.035,4.994.153,7.489.089,7.855-.193,15.324-2.229,22.513-4.963A152.073,152.073,0,0,0,49.2,20.339c6.1-3.329,12.34-6.6,17.489-11.366,1.255-1.162,3.481-.714,3.829-3.011-.317-.286-.881-.8-1.546-1.405A41.149,41.149,0,0,1,57.377,2.1c-2-.764-4.477.3-6.4-1.39" transform="translate(110.033 73.607)" fill="#07b028"/><path d="M28.7.4C18.452,5.338,9.382,11.382.253,18.135c.595.055,1.435.14,2.27.22,2.344.351,5.292,2.1,8.272,2.836,2.965.731,6.3.151,8.962,2.229,5.224-.141,10.051,2.631,15.276,2.537,1.951,1.63,4.721.379,6.356,1.457,2.309,1.52,4.447.574,6.606,1.037a5.4,5.4,0,0,0,1.138-.193C42.648,18.587,35.577,9.645,28.7.4" transform="translate(34.038 20.362)" fill="#49ca5b"/><path d="M20.726.29C17.2.778,14.521,2.9,11.713,4.8,7.81,7.444,3.451,9.461.185,13.253q6.2,14.762,12.488,29.714C15.1,38.072,16.918,32.8,19.03,27.654c2.006-4.89,3.937-9.859,6.157-14.668a7.921,7.921,0,0,0,.319-2.178C25.183,6.753,24.457,2.869,20.726.29" transform="translate(238.11 28.934)" fill="#49ca5b"/><path d="M2.3,42.853a84.8,84.8,0,0,1,11.322-4.535,19.937,19.937,0,0,0,5.725-2.7c1.109-.8,2.162-.377,3.646-.826C23.4,22.547,18.464,11.446,14.1.2,12.823.754,12.515,1.835,11.958,3c-3.589,7.509-5.727,15.66-9.693,23.018-.579,1.073-.681,2.742-1.3,4.044.825,4.235-2.212,8.766,1.335,12.794" transform="translate(265.233 28.311)" fill="#07b028"/><path d="M45.85,48.327c.574-2.164-1.556-2.867-2.384-4.278-3.384-5.785-7.568-10.981-11.639-16.3-4.389-5.731-9.6-10.565-14.692-15.523A90.231,90.231,0,0,0,1.142.1C.859-.078.387.067,0,.062Q16.535,22.729,33.027,45.349L45.85,48.327" transform="translate(110.394 16.634)" fill="#48ca5b"/><path d="M.4,22.074c.14.331.275.662.464,1.119,5.224-4.657,10.079-9.564,13.458-15.725,1.255-2.29,2.111-4.81,3.151-7.223C13.987,1.01,10.9,2.836,7.667,3.684,4.428,8.989,3.749,15.271.413,20.362c-.26.393-.021,1.133-.013,1.712" transform="translate(247.89 81.347)" fill="#47c759"/><path d="M.059,4.254c1.1,3.425,3.227,6.482,3.83,10.093.029.183.619.285.949.426,1.9.016.653-2.481,2.171-2.763C7.208,7.559,10.969,4.537,11,.162,8.628-.022,3.464,1.821.059,4.254" transform="translate(258.777 24.971)" fill="#08ac28"/><path d="M7.756,12.89,7.6,1.554C7.587.765,7.5.028,6.421.1,4.487,4.9,2.548,9.716.217,15.526L7.756,12.89" transform="translate(259.774 58.274)" fill="#46c358"/></g></g></g></svg>