<svg xmlns="http://www.w3.org/2000/svg" xmlns:xlink="http://www.w3.org/1999/xlink" width="233" height="226" viewBox="0 0 233 226"><defs><clipPath id="a"><rect width="233" height="226" transform="translate(137 2847)" fill="#fff" stroke="#707070" stroke-width="1"/></clipPath></defs><g transform="translate(-137 -2847)" opacity="0.2" clip-path="url(#a)"><g transform="translate(11880.168 16095.401)"><path d="M636.337,289.781c42.155,28.049,92.428,40.285,136.788,51.067a9.73,9.73,0,0,0,9.175-2.571,10.819,10.819,0,0,0,3.118-9.452c-7.447-51.7-33.8-100.371-72.266-133.5s-88.881-50.619-138.344-47.96a9.549,9.549,0,0,0-3.823,1.006,10.039,10.039,0,0,0-1.991-.22,9.9,9.9,0,0,0-7.841,3.834,10.972,10.972,0,0,0-2.351,6.845c.035,48.988,29.745,99.152,77.535,130.954" transform="translate(-12342.206 -13377.573)" fill="#9fbe37"/><path d="M741.345,348.066a3.645,3.645,0,0,0,2.482-4.4l-.1-.411c-2.918-12.412-6.147-24.722-9.444-37.009-1.714-6.485-3.533-12.934-5.379-19.375q12.124,10.3,24.213,20.668,27.732,23.885,55.154,48.225l.034.029a2.835,2.835,0,0,0,4.017-.235,3.293,3.293,0,0,0-.076-4.451c-17.251-17.664-35.1-34.512-53.232-51.074-8.352-7.646-16.828-15.13-25.361-22.541,2.441.118,4.875.235,7.315.375l22.236,1.1c14.837.529,29.675,1.036,44.547.984a3.029,3.029,0,0,0,2.932-2.762,3.115,3.115,0,0,0-2.579-3.511c-14.755-1.946-29.544-3.327-44.333-4.686l-22.2-1.733c-7.2-.5-14.4-1.161-21.606-1.535-5.469-4.679-10.918-9.372-16.414-14.013-6.631-5.457-13.344-10.789-20.051-16.136l13.849-1.946c8.006-1.182,16.04-2.2,24.033-3.511,16.006-2.519,32.005-5.082,47.942-8.174a3.124,3.124,0,0,0,2.42-3.312,3.026,3.026,0,0,0-3.153-2.93c-16.165,1.153-32.268,2.842-48.364,4.568-8.055.808-16.075,1.917-24.116,2.857l-24.1,2.989c-.111.015-.229.051-.346.073-8.56-6.683-17.161-13.308-25.865-19.779-3.782-2.769-7.606-5.5-11.422-8.219,10.6-3.011,21.219-5.949,31.742-9.262,13.213-3.973,26.391-8.079,39.486-12.537a3.174,3.174,0,0,0,2.006-3.606,2.99,2.99,0,0,0-3.485-2.482c-13.489,2.835-26.889,6.015-40.261,9.328-13.413,3.151-26.674,6.9-40.018,10.327a5.006,5.006,0,0,0-.712.353c-12.459-8.615-51.413-37.347-64.329-45.184a3.122,3.122,0,0,0-4.28,1.065,3.56,3.56,0,0,0,.877,4.767l.028.022c13.165,9.4,52.519,39.382,65.463,49.1,3.035,15.211,6.368,30.348,9.589,45.514,3.734,16.342,7.453,32.691,11.734,48.908a3.242,3.242,0,0,0,3.623,2.468,3.416,3.416,0,0,0,2.69-3.929c-2.475-16.635-5.5-33.146-8.525-49.657-2.248-11.318-4.46-22.651-6.749-33.961,2.316,1.777,4.674,3.5,6.99,5.288q14.312,11.149,28.513,22.482c3.54,13.426,6.956,26.9,10.717,40.263,4.086,14.777,8.262,29.525,12.847,44.156a3.215,3.215,0,0,0,3.741,2.277,3.436,3.436,0,0,0,2.489-4.076c-3.015-15.086-6.437-30.047-9.942-44.993-2.061-8.946-4.28-17.855-6.506-26.749,5.034,4.091,10.095,8.138,15.087,12.3,5.918,4.826,11.761,9.768,17.617,14.682,3.45,11.4,6.755,22.849,10.4,34.189q5.071,16.052,10.557,31.964a3.667,3.667,0,0,0,.249,1.5l1.369,3.305a3.371,3.371,0,0,0,3.955,2.056" transform="translate(-12370.732 -13392.918)" fill="#507533"/></g></g></svg>