<svg xmlns="http://www.w3.org/2000/svg" xmlns:xlink="http://www.w3.org/1999/xlink" width="100" height="100" viewBox="0 0 100 100"><defs><filter id="a" x="0" y="0" width="100" height="100" filterUnits="userSpaceOnUse"><feOffset dy="5" input="SourceAlpha"/><feGaussianBlur stdDeviation="2.5" result="b"/><feFlood flood-opacity="0.161"/><feComposite operator="in" in2="b"/><feComposite in="SourceGraphic"/></filter><clipPath id="c"><rect width="50" height="50" fill="none"/></clipPath></defs><g transform="translate(-960.5 -1520.5)"><g transform="matrix(1, 0, 0, 1, 960.5, 1520.5)" filter="url(#a)"><circle cx="42.5" cy="42.5" r="42.5" transform="translate(7.5 2.5)" fill="#4acfd9"/></g><g transform="translate(986 1541)"><g transform="translate(0 0)" clip-path="url(#c)"><path d="M50,18.237V32.856H46.843v1.635h1.524v1.634H43.64a21.911,21.911,0,0,1-8.1,7.824V48.3H46.757v1.531c-.894.174-38.071.247-43.436.078V48.373c-.016.018,0-.011.028-.03a.156.156,0,0,1,.085-.035h9.484V42.953a22.39,22.39,0,0,1-5.947-5.966,3.5,3.5,0,0,1-2.535-1.831,2.684,2.684,0,0,1-.353-1.275c.018-.708,0-1.416,0-2.068-.273-.408-.444-.788-.913-1.006A9.467,9.467,0,0,1,.688,27.914a14.955,14.955,0,0,1-.6-2.178,5.775,5.775,0,0,1-.006-1.92,7.235,7.235,0,0,1,1.261-3.208,5.8,5.8,0,0,1,2.868-2.356A24.774,24.774,0,0,1,9.359,9.581a23.318,23.318,0,0,1,8.47-5.5c-.171-.5-.312-.9-.451-1.308a.514.514,0,0,1,.642-.105,5.884,5.884,0,0,0,1.658.367,6.3,6.3,0,0,0,1.706.008A3.371,3.371,0,0,0,23.145,2.2a6.462,6.462,0,0,0,1.514-1.9A.516.516,0,0,1,25.108,0a7.034,7.034,0,0,1,.923,1.155A4.729,4.729,0,0,0,28.3,3a.738.738,0,0,0,.381.052,10.184,10.184,0,0,0,1.208-.006c.349-.035.7.13,1.056-.131.3-.223.761.067,1.112-.245a.545.545,0,0,1,.646.087c-.044.418-.483.693-.41,1.151.074.359.44.436.663.495a14.811,14.811,0,0,1,2.2,1.024,18.085,18.085,0,0,1,2.112,1.246c.351.218.541.682,1.017.694a20.331,20.331,0,0,1,3.1,2.956,20.929,20.929,0,0,1,3.41,5.365c.347.836.684,1.675,1.042,2.551Z" transform="translate(0 0)"/><path d="M34.247,33.159h3.193v1.6H35.882v1.635H42.1a19.042,19.042,0,0,1-6.215,5.894V40.793l-.235-.236-4.6-.93V33.989H29.43V32.383H27.807V33.93H26.189V30.748H24.6v3.193H23V32.374c-.548-.064-1.066-.016-1.62-.037v1.6H19.762V37.42c-.3.627-.857.235-1.192.479-.392.286-.93-.082-1.277.329-.44-.124-.8.243-1.226.2a4.564,4.564,0,0,0-1.318.253c-.4.075-.811.117-1.156.161l-.3.3v2.094a17,17,0,0,1-4.225-4.331c.242-.32.643-.417.924-.706a3.034,3.034,0,0,0,.886-2.172c.01-.642,0-1.285,0-1.927a3.2,3.2,0,0,1,.99-1.108,7.8,7.8,0,0,0,2.737-3.914,7.356,7.356,0,0,0-.272-4.806,7.7,7.7,0,0,0-2.408-3.137,7.186,7.186,0,0,0-2.612-1.216,11.439,11.439,0,0,0-2.721-.2A20.323,20.323,0,0,1,11.3,10.511a19.049,19.049,0,0,1,7.175-4.5c.169.364-.033.67-.137,1.007A3.761,3.761,0,0,1,16.2,9.648a7.535,7.535,0,0,0-1.162.754,5.939,5.939,0,0,0,1.071.729,3.951,3.951,0,0,1,1.763,1.561,4.081,4.081,0,0,1,.335,3.849c-.183.426-.34.863-.511,1.3.412.21.714-.026,1.048-.084.375-.066.749-.129,1.124-.212a5.253,5.253,0,0,1,1.1-.016h1.1c1.552.515,2.345,1.841,3.235,3.112.546-.3.741-.851,1.069-1.265a4.557,4.557,0,0,1,1.958-1.681,3.517,3.517,0,0,1,2.512-.236c.358.135.8-.086,1.059.1.336.245.606.107.957.19a3.551,3.551,0,0,0-.308-.985c-.5-.691-.27-1.462-.322-2.2a3.674,3.674,0,0,1,.354-1.372A3.392,3.392,0,0,1,34.4,11.274a3.568,3.568,0,0,1,1.5-.748c-.486-.317-.783-.52-1.089-.708-.373-.231-.776-.421-1.127-.682a4.109,4.109,0,0,1-1.235-2.015c-.128-.339-.391-.7-.16-1.121a18.057,18.057,0,0,1,5.139,2.835,25.943,25.943,0,0,1,2.389,2.019,26,26,0,0,1,1.907,2.355A17.186,17.186,0,0,1,43.3,15.791c.453.858.737,1.793,1.189,2.669a.135.135,0,0,1-.032.043.159.159,0,0,1-.084.039H34.247V33.159Z" transform="translate(-0.344 -0.27)" fill="#9fbe37"/><path d="M8.993,32.963H8.254V28.005a6.1,6.1,0,0,0,1.272-1.122,2.617,2.617,0,0,0-.068-2.5l-.91-.916c-.4.042-.7-.257-1.109-.265s-.725.3-1.139.225c-.34.36-.687.725-1.056,1.114A2.589,2.589,0,0,0,5.3,26.882c.337.275.652.852,1.275,1.1V32.9a1.492,1.492,0,0,1-.727.059,4.115,4.115,0,0,0-1.778-2.7,5.457,5.457,0,0,1-2.158-3.34,6.2,6.2,0,0,1,.308-3.59,5.258,5.258,0,0,1,1.983-2.345,5.55,5.55,0,0,1,3.917-.974,4.367,4.367,0,0,1,2.038.643,7.489,7.489,0,0,1,1.9,1.811,5.4,5.4,0,0,1,.96,3.849,4.924,4.924,0,0,1-1.425,3.148,11.833,11.833,0,0,1-1.184,1.022,3.249,3.249,0,0,0-1.416,2.48" transform="translate(-0.093 -0.897)" fill="#fee9a6"/><path d="M20.814,15.732c-.148-.726.014-1.377-.139-2.052a14.821,14.821,0,0,0-.708-1.842c-.233-.636-.818-1-1.273-1.563a6.276,6.276,0,0,0,2.064-5.437,9.438,9.438,0,0,0,2.9-.366,7.261,7.261,0,0,0,2.33-1.794A9.438,9.438,0,0,0,28.314,4.44a9.077,9.077,0,0,0,2.94.377,6.229,6.229,0,0,0,2.117,5.448,5.5,5.5,0,0,0-2.079,5.2c-.57.205-1.108-.024-1.62.146A9.767,9.767,0,0,0,28.32,16a3.415,3.415,0,0,0-1.272.838c-.285.361-.782.507-.918,1.117a10.075,10.075,0,0,0-2.414-1.84,9.233,9.233,0,0,0-2.9-.381" transform="translate(-0.975 -0.121)" fill="#fec629"/><path d="M23.781,38.483c-.357-.232-.48.208-.775.138a.63.63,0,0,0-.8.288c-.075-.689-.025-1.272-.045-1.89H30.2v3.632A20.913,20.913,0,0,1,27.036,40v9.956c-.547.036-1.071.011-1.592.016s-1.064,0-1.663,0Z" transform="translate(-1.156 -1.663)" fill="#cbd0d8"/><path d="M21.781,50.112H15.4V41.867l6.38-1.293Z" transform="translate(-0.803 -1.822)" fill="#deb18a"/><path d="M29,42.277l6.381,1.287v6.575c.009-.01-.011.018-.039.036a.173.173,0,0,1-.087.03c-2.074,0-4.149,0-6.255,0Z" transform="translate(-1.512 -1.899)" fill="#e5e8ec"/><path d="M40.659,25.685H37.506v-4.84c.479-.032,1-.007,1.524-.011s1.063,0,1.629,0Z" transform="translate(-1.956 -0.936)" fill="#69d5f3"/><path d="M42.587,25.669v-4.8h3.138c-.014-.013.014.007.033.033a.164.164,0,0,1,.033.086c0,1.548,0,3.1,0,4.68Z" transform="translate(-2.221 -0.937)" fill="#69d5f3"/><path d="M50.877,20.869v4.8h-3.2c-.011-1.563,0-3.164-.006-4.8Z" transform="translate(-2.486 -0.937)" fill="#69d5f3"/><path d="M40.676,27.668v4.8H37.536c.013.012-.016-.008-.034-.034a.165.165,0,0,1-.032-.087c0-1.548,0-3.1,0-4.679Z" transform="translate(-1.954 -1.243)" fill="#69d5f3"/><path d="M42.587,32.468v-4.8h3.138c-.012-.012.016.008.034.034a.167.167,0,0,1,.033.087c0,1.548,0,3.1,0,4.679Z" transform="translate(-2.221 -1.243)" fill="#69d5f3"/><path d="M50.861,32.484H47.708V27.644c.476-.032,1-.007,1.521-.011s1.063,0,1.631,0Z" transform="translate(-2.488 -1.241)" fill="#69d5f3"/><path d="M47.3,34.464v1.559H40.891c-.053-.482-.008-1-.027-1.559Z" transform="translate(-2.131 -1.548)" fill="#cbd0d8"/><path d="M6.015,35.3H9.222c.069.845-.467,1.251-1.136,1.6a1.922,1.922,0,0,1-1.508-.341A1.579,1.579,0,0,1,6.015,35.3" transform="translate(-0.314 -1.585)" fill="#a7aeb9"/><path d="M31.728,23.415v1.56H20.488c-.053-.483-.008-1.006-.027-1.56Z" transform="translate(-1.067 -1.052)"/><path d="M31,10a5.006,5.006,0,0,1-1.518,3.864,4.734,4.734,0,0,1-3.439,1.423,5.055,5.055,0,0,1-4.748-4.96,5.107,5.107,0,0,1,4.909-4.808c2.445.028,4.879,2.342,4.8,4.48" transform="translate(-1.111 -0.248)"/><path d="M17.1,43.8h3.153v1.581a13.414,13.414,0,0,1-1.527.024c-.53.011-1.062,0-1.627,0Z" transform="translate(-0.892 -1.967)"/><path d="M20.271,47.214V48.77H17.088c-.053-.479-.007-1-.027-1.556Z" transform="translate(-0.89 -2.121)"/><path d="M30.7,47.2h3.154v1.582a14.177,14.177,0,0,1-1.53.023c-.531.01-1.061,0-1.625,0Z" transform="translate(-1.601 -2.12)"/><path d="M29.462,10.481a3.28,3.28,0,0,1-3.223,3.265A3.35,3.35,0,0,1,23,10.482a3.349,3.349,0,0,1,3.24-3.265,3.28,3.28,0,0,1,3.224,3.264" transform="translate(-1.199 -0.324)" fill="#fbd66f"/></g></g></g></svg>