<svg xmlns="http://www.w3.org/2000/svg" xmlns:xlink="http://www.w3.org/1999/xlink" width="295" height="314.427" viewBox="0 0 295 314.427"><defs><style>.a,.b{fill:#4acfd9;}.a{opacity:0.25;}.c{fill:none;}.d{opacity:0.2;clip-path:url(#a);}.e{clip-path:url(#b);}.f{opacity:0.55;}.g{clip-path:url(#e);}.h{mix-blend-mode:multiply;isolation:isolate;}.i{clip-path:url(#f);}.j{clip-path:url(#g);}.k{clip-path:url(#i);}.l{clip-path:url(#j);}.m{clip-path:url(#m);}.n{clip-path:url(#n);}.o{clip-path:url(#o);}.p{clip-path:url(#q);}.q{clip-path:url(#r);}.r{clip-path:url(#s);}.s{clip-path:url(#t);}.t{clip-path:url(#u);}.u{clip-path:url(#x);}.v{clip-path:url(#y);}.w{clip-path:url(#ab);}.x{clip-path:url(#ac);}.y{clip-path:url(#ad);}.z{clip-path:url(#ae);}.aa{clip-path:url(#af);}.ab{clip-path:url(#ai);}.ac{clip-path:url(#ak);}.ad{clip-path:url(#al);}.ae{clip-path:url(#an);}.af{clip-path:url(#ao);}.ag{clip-path:url(#aq);}.ah{clip-path:url(#as);}.ai{clip-path:url(#at);}.aj{clip-path:url(#au);}.ak{clip-path:url(#aw);}.al{clip-path:url(#ax);}.am{clip-path:url(#ay);}.an{clip-path:url(#az);}.ao{clip-path:url(#bc);}.ap{clip-path:url(#be);}.aq{clip-path:url(#bf);}.ar{clip-path:url(#bg);}.as{clip-path:url(#bh);}.at{clip-path:url(#bi);}.au{clip-path:url(#bl);}.av{clip-path:url(#bn);}.aw{clip-path:url(#bp);}.ax{clip-path:url(#bq);}.ay{clip-path:url(#br);}.az{clip-path:url(#bs);}.ba{clip-path:url(#bt);}.bb{clip-path:url(#bw);}.bc{clip-path:url(#by);}.bd{clip-path:url(#bz);}.be{clip-path:url(#ca);}.bf{clip-path:url(#cd);}.bg{clip-path:url(#cf);}.bh{clip-path:url(#cg);}.bi{clip-path:url(#ch);}.bj{clip-path:url(#ck);}.bk{clip-path:url(#cl);}.bl{clip-path:url(#co);}.bm{clip-path:url(#cp);}.bn{clip-path:url(#cs);}.bo{clip-path:url(#ct);}.bp{clip-path:url(#cw);}.bq{clip-path:url(#cy);}.br{clip-path:url(#cz);}.bs{clip-path:url(#dc);}.bt{clip-path:url(#dd);}.bu{clip-path:url(#de);}.bv{clip-path:url(#dh);}.bw{clip-path:url(#di);}.bx{clip-path:url(#dl);}.by{clip-path:url(#dm);}.bz{clip-path:url(#dn);}.ca{clip-path:url(#dq);}.cb{clip-path:url(#ds);}.cc{clip-path:url(#dt);}.cd{clip-path:url(#du);}.ce{clip-path:url(#dv);}.cf{fill:#fe8264;}.cg{fill:#feb577;}.ch{fill:#fed88d;}.ci{fill:#feccab;}.cj{fill:#6bd4e0;}.ck{fill:#060504;}</style><clipPath id="a"><rect class="a" width="295" height="314.427" rx="21"/></clipPath><clipPath id="b"><rect class="b" width="675.34" height="390.699"/></clipPath><clipPath id="e"><rect class="b" width="556.476" height="313.018"/></clipPath><clipPath id="f"><rect class="b" width="90.077" height="78.14"/></clipPath><clipPath id="g"><path class="b" d="M222.5,147.533h45.039l22.519-39.071L267.543,69.393H222.5l-22.52,39.069Z" transform="translate(-199.984 -69.393)"/></clipPath><clipPath id="i"><path class="b" d="M102.513,78.14h45.039L170.07,39.071,147.551,0H102.513L79.994,39.071Z" transform="translate(-79.994)"/></clipPath><clipPath id="j"><path class="b" d="M142.51,0,119.991,39.069,142.51,78.14h45.039l22.519-39.071L187.548,0Z" transform="translate(-119.991)"/></clipPath><clipPath id="m"><path class="b" d="M22.519,78.14H67.557l22.52-39.069L67.557,0H22.519L0,39.071Z"/></clipPath><clipPath id="n"><path class="b" d="M62.516,147.533h45.039l22.52-39.071-22.52-39.069H62.516L40,108.462Z" transform="translate(-39.997 -69.393)"/></clipPath><clipPath id="o"><path class="b" d="M102.513,147.533h45.039l22.519-39.071L147.551,69.393H102.513L79.994,108.462Z" transform="translate(-79.994 -69.393)"/></clipPath><clipPath id="q"><rect class="b" width="90.076" height="78.14"/></clipPath><clipPath id="r"><path class="b" d="M142.51,147.533h45.039l22.519-39.071L187.548,69.393H142.51l-22.519,39.069Z" transform="translate(-119.991 -69.393)"/></clipPath><clipPath id="s"><path class="b" d="M35.617,69.393v78.14H63.068l22.52-39.071L63.068,69.393Z" transform="translate(-35.617 -69.393)"/></clipPath><clipPath id="t"><path class="b" d="M182.507,147.533h45.039l22.519-39.071L227.546,69.393H182.507l-22.52,39.069Z" transform="translate(-159.987 -69.393)"/></clipPath><clipPath id="u"><path class="b" d="M62.516,0,40,39.069,62.516,78.14h45.039l22.52-39.071L107.554,0Z" transform="translate(-39.997)"/></clipPath><clipPath id="x"><path class="b" d="M182.507,78.14h45.039l22.519-39.069L227.546,0H182.507l-22.52,39.071Z" transform="translate(-159.987)"/></clipPath><clipPath id="y"><path class="b" d="M222.5,0l-22.52,39.069L222.5,78.14h45.037l22.52-39.071L267.541,0Z" transform="translate(-199.984)"/></clipPath><clipPath id="ab"><path class="b" d="M262.5,147.533H307.54l22.519-39.071L307.54,69.393H262.5l-22.52,39.069Z" transform="translate(-239.981 -69.393)"/></clipPath><clipPath id="ac"><path class="b" d="M262.491,0l-22.52,39.069,22.52,39.071H307.53l22.519-39.071L307.53,0Z" transform="translate(-239.971)"/></clipPath><clipPath id="ad"><path class="b" d="M35.617,208.179v78.139H63.068l22.52-39.071-22.52-39.068Z" transform="translate(-35.617 -208.179)"/></clipPath><clipPath id="ae"><path class="b" d="M35.617,138.786v78.14H63.068l22.52-39.071-22.52-39.069Z" transform="translate(-35.617 -138.786)"/></clipPath><clipPath id="af"><path class="b" d="M62.516,216.926h45.039l22.52-39.071-22.52-39.069H62.516L40,177.855Z" transform="translate(-39.997 -138.786)"/></clipPath><clipPath id="ai"><path class="b" d="M102.513,216.926h45.039l22.519-39.071-22.519-39.069H102.513L79.994,177.855Z" transform="translate(-79.994 -138.786)"/></clipPath><clipPath id="ak"><path class="b" d="M102.513,355.711h45.039l22.519-39.069-22.519-39.071H102.513L79.994,316.642Z" transform="translate(-79.994 -277.571)"/></clipPath><clipPath id="al"><path class="b" d="M140.019,277.571l-.265.459h45.568l-.265-.459Z" transform="translate(-139.754 -277.571)"/></clipPath><clipPath id="an"><rect class="b" width="90.077" height="78.139"/></clipPath><clipPath id="ao"><path class="b" d="M62.516,286.318h45.039l22.52-39.069-22.52-39.069H62.516L40,247.248Z" transform="translate(-39.997 -208.179)"/></clipPath><clipPath id="aq"><path class="b" d="M182.507,216.926h45.039l22.519-39.071-22.519-39.069H182.507l-22.52,39.069Z" transform="translate(-159.987 -138.786)"/></clipPath><clipPath id="as"><path class="b" d="M22.519,355.711H67.557l22.52-39.069-22.52-39.071H22.519L0,316.642Z" transform="translate(0 -277.571)"/></clipPath><clipPath id="at"><path class="b" d="M142.51,216.926h45.039l22.519-39.071-22.519-39.069H142.51l-22.519,39.069Z" transform="translate(-119.991 -138.786)"/></clipPath><clipPath id="au"><path class="b" d="M102.513,286.318h45.039l22.519-39.069-22.519-39.069H102.513L79.994,247.248Z" transform="translate(-79.994 -208.179)"/></clipPath><clipPath id="aw"><rect class="b" width="90.076" height="78.139"/></clipPath><clipPath id="ax"><path class="b" d="M142.51,286.318h45.039l22.519-39.069-22.519-39.069H142.51l-22.519,39.069Z" transform="translate(-119.991 -208.179)"/></clipPath><clipPath id="ay"><path class="b" d="M182.507,286.318h45.039l22.519-39.069-22.519-39.069H182.507l-22.52,39.069Z" transform="translate(-159.987 -208.179)"/></clipPath><clipPath id="az"><path class="b" d="M60.025,277.571l-.265.459h45.568l-.265-.459Z" transform="translate(-59.76 -277.571)"/></clipPath><clipPath id="bc"><path class="b" d="M182.507,355.711h45.039l22.519-39.069-22.519-39.071H182.507l-22.52,39.071Z" transform="translate(-159.987 -277.571)"/></clipPath><clipPath id="be"><path class="b" d="M542.268,78.14h45.039l22.519-39.069L587.306,0H542.268L519.749,39.071Z" transform="translate(-519.749)"/></clipPath><clipPath id="bf"><path class="b" d="M502.271,69.393l-22.519,39.069,22.519,39.071h33.838V69.393Z" transform="translate(-479.752 -69.393)"/></clipPath><clipPath id="bg"><path class="b" d="M519.749,106.287l11.318,19.637V86.651Z" transform="translate(-519.749 -86.651)"/></clipPath><clipPath id="bh"><path class="b" d="M502.271,0,479.752,39.069,502.271,78.14h33.838V0Z" transform="translate(-479.752)"/></clipPath><clipPath id="bi"><path class="b" d="M502.271,138.786l-22.519,39.069,22.519,39.071h33.838v-78.14Z" transform="translate(-479.752 -138.786)"/></clipPath><clipPath id="bl"><path class="b" d="M542.268,216.926h45.039l22.519-39.071-22.519-39.069H542.268l-22.519,39.069Z" transform="translate(-519.749 -138.786)"/></clipPath><clipPath id="bn"><path class="b" d="M542.268,355.711h45.039l22.519-39.069-22.519-39.071H542.268l-22.519,39.071Z" transform="translate(-519.749 -277.571)"/></clipPath><clipPath id="bp"><path class="b" d="M502.271,286.318H547.31l22.52-39.069-22.52-39.069H502.271l-22.519,39.069Z" transform="translate(-479.752 -208.179)"/></clipPath><clipPath id="bq"><path class="b" d="M519.749,245.072l11.318,19.637V225.436Z" transform="translate(-519.749 -225.436)"/></clipPath><clipPath id="br"><path class="b" d="M499.78,277.571l-.265.459h34.1v-.459Z" transform="translate(-499.515 -277.571)"/></clipPath><clipPath id="bs"><path class="b" d="M220.013,277.571l-.265.459h45.567l-.265-.459Z" transform="translate(-219.748 -277.571)"/></clipPath><clipPath id="bt"><path class="b" d="M222.5,286.318h45.039l22.519-39.069-22.519-39.069H222.5l-22.52,39.069Z" transform="translate(-199.984 -208.179)"/></clipPath><clipPath id="bw"><path class="b" d="M222.5,216.926h45.039l22.519-39.071-22.519-39.069H222.5l-22.52,39.069Z" transform="translate(-199.984 -138.786)"/></clipPath><clipPath id="by"><path class="b" d="M262.5,286.318H307.54l22.519-39.069L307.54,208.179H262.5l-22.52,39.069Z" transform="translate(-239.981 -208.179)"/></clipPath><clipPath id="bz"><path class="b" d="M260.009,277.571l-.265.459h45.568l-.265-.459Z" transform="translate(-259.744 -277.571)"/></clipPath><clipPath id="ca"><path class="b" d="M262.5,216.926H307.54l22.519-39.071L307.54,138.786H262.5l-22.52,39.069Z" transform="translate(-239.981 -138.786)"/></clipPath><clipPath id="cd"><path class="b" d="M422.276,147.533h45.039l22.52-39.071-22.52-39.069H422.276l-22.519,39.069Z" transform="translate(-399.757 -69.393)"/></clipPath><clipPath id="cf"><path class="b" d="M302.286,78.14h45.039l22.519-39.069L347.325,0H302.286l-22.52,39.071Z" transform="translate(-279.766)"/></clipPath><clipPath id="cg"><path class="b" d="M342.283,0,319.764,39.069,342.283,78.14h45.039L409.84,39.069,387.321,0Z" transform="translate(-319.764)"/></clipPath><clipPath id="ch"><path class="b" d="M302.286,147.533h45.039l22.519-39.071L347.325,69.393H302.286l-22.52,39.069Z" transform="translate(-279.766 -69.393)"/></clipPath><clipPath id="ck"><path class="b" d="M342.283,147.533h45.039l22.519-39.071L387.322,69.393H342.283l-22.52,39.069Z" transform="translate(-319.763 -69.393)"/></clipPath><clipPath id="cl"><path class="b" d="M382.28,147.533h45.038l22.52-39.071-22.52-39.069H382.28l-22.52,39.069Z" transform="translate(-359.76 -69.393)"/></clipPath><clipPath id="co"><path class="b" d="M382.28,78.14h45.038l22.52-39.069L427.317,0H382.28L359.76,39.071Z" transform="translate(-359.76)"/></clipPath><clipPath id="cp"><path class="b" d="M422.276,0,399.757,39.069,422.276,78.14h45.039l22.519-39.071L467.315,0Z" transform="translate(-399.757)"/></clipPath><clipPath id="cs"><path class="b" d="M462.274,147.533h45.037l22.52-39.071-22.52-39.069H462.274l-22.52,39.069Z" transform="translate(-439.754 -69.393)"/></clipPath><clipPath id="ct"><path class="b" d="M462.264,0,439.745,39.069,462.264,78.14H507.3l22.519-39.071L507.3,0Z" transform="translate(-439.745)"/></clipPath><clipPath id="cw"><path class="b" d="M302.286,216.926h45.039l22.519-39.071-22.519-39.069H302.286l-22.52,39.069Z" transform="translate(-279.766 -138.786)"/></clipPath><clipPath id="cy"><path class="b" d="M302.286,355.711h45.039l22.519-39.069-22.519-39.071H302.286l-22.52,39.071Z" transform="translate(-279.766 -277.571)"/></clipPath><clipPath id="cz"><path class="b" d="M339.792,277.571l-.265.459h45.568l-.265-.459Z" transform="translate(-339.527 -277.571)"/></clipPath><clipPath id="dc"><path class="b" d="M382.28,216.926h45.038l22.52-39.071-22.52-39.069H382.28l-22.52,39.069Z" transform="translate(-359.76 -138.786)"/></clipPath><clipPath id="dd"><path class="b" d="M342.283,216.926h45.039l22.519-39.071-22.519-39.069H342.283l-22.52,39.069Z" transform="translate(-319.763 -138.786)"/></clipPath><clipPath id="de"><path class="b" d="M302.286,286.318h45.039l22.519-39.069-22.519-39.069H302.286l-22.52,39.069Z" transform="translate(-279.766 -208.179)"/></clipPath><clipPath id="dh"><path class="b" d="M342.283,286.318h45.039l22.519-39.069-22.519-39.069H342.283l-22.52,39.069Z" transform="translate(-319.763 -208.179)"/></clipPath><clipPath id="di"><path class="b" d="M382.28,286.318h45.038l22.52-39.069-22.52-39.069H382.28l-22.52,39.069Z" transform="translate(-359.76 -208.179)"/></clipPath><clipPath id="dl"><path class="b" d="M382.28,355.711h45.038l22.52-39.069-22.52-39.071H382.28l-22.52,39.071Z" transform="translate(-359.76 -277.571)"/></clipPath><clipPath id="dm"><path class="b" d="M419.785,277.571l-.264.459h45.567l-.265-.459Z" transform="translate(-419.521 -277.571)"/></clipPath><clipPath id="dn"><path class="b" d="M422.276,286.318h45.039l22.52-39.069-22.52-39.069H422.276l-22.519,39.069Z" transform="translate(-399.757 -208.179)"/></clipPath><clipPath id="dq"><path class="b" d="M422.276,216.926h45.039l22.52-39.071-22.52-39.069H422.276l-22.519,39.069Z" transform="translate(-399.757 -138.786)"/></clipPath><clipPath id="ds"><path class="b" d="M462.274,286.318h45.037l22.52-39.069-22.52-39.069H462.274l-22.52,39.069Z" transform="translate(-439.754 -208.179)"/></clipPath><clipPath id="dt"><path class="b" d="M459.782,277.571l-.265.459h45.568l-.265-.459Z" transform="translate(-459.517 -277.571)"/></clipPath><clipPath id="du"><path class="b" d="M462.274,216.926h45.037l22.52-39.071-22.52-39.069H462.274l-22.52,39.069Z" transform="translate(-439.754 -138.786)"/></clipPath><clipPath id="dv"><rect class="c" width="69" height="67.988"/></clipPath></defs><g transform="translate(-652.5 -3793)"><g class="d" transform="translate(652.5 3793)"><rect class="a" width="295" height="314.427" rx="21" transform="translate(-0.898)"/><g transform="translate(-112.257)"><g class="e"><g class="e"><g class="f"><g class="e"><g transform="translate(40.107)"><g class="g"><g class="h" transform="translate(185.086 78.14)"><g class="i"><g class="j"><rect class="b" width="82.175" height="93.554" transform="translate(-3.567 77.977) rotate(-87.381)"/></g></g></g><g class="h" transform="translate(49.97)"><g class="i"><g transform="translate(0)"><g class="k"><rect class="b" width="82.175" height="93.553" transform="translate(-3.567 77.977) rotate(-87.381)"/></g></g></g></g></g></g><g transform="translate(135.116)"><g class="l"><rect class="b" width="82.175" height="93.553" transform="matrix(0.046, -0.999, 0.999, 0.046, -3.567, 77.977)"/></g></g><g transform="translate(40.107)"><g class="g"><g class="h" transform="translate(-40.107)"><g class="i"><g class="m"><rect class="b" width="82.175" height="93.554" transform="translate(-3.567 77.977) rotate(-87.381)"/></g></g></g></g></g><g transform="translate(45.039 78.14)"><g class="n"><rect class="b" width="82.175" height="93.554" transform="translate(-3.567 77.977) rotate(-87.381)"/></g></g><g transform="translate(90.077 78.14)"><g class="o"><rect class="b" width="82.175" height="93.553" transform="translate(-3.567 77.977) rotate(-87.381)"/></g></g><g transform="translate(40.107)"><g class="g"><g class="h" transform="translate(95.009 78.14)"><g class="p"><g class="q"><rect class="b" width="82.175" height="93.553" transform="matrix(0.046, -0.999, 0.999, 0.046, -3.567, 77.977)"/></g></g></g></g></g><g transform="translate(40.107 78.14)"><g class="r"><rect class="b" width="80.342" height="53.489" transform="matrix(0.046, -0.999, 0.999, 0.046, -3.567, 77.977)"/></g></g><g transform="translate(180.153 78.14)"><g class="s"><rect class="b" width="82.175" height="93.554" transform="translate(-3.567 77.977) rotate(-87.381)"/></g></g><g transform="translate(45.039)"><g class="t"><rect class="b" width="82.175" height="93.554" transform="translate(-3.567 77.977) rotate(-87.381)"/></g></g><g transform="translate(40.107)"><g class="g"><g class="h" transform="translate(140.047)"><g class="i"><g class="u"><rect class="b" width="118.829" height="119.047" transform="matrix(0.698, -0.716, 0.716, 0.698, -39.057, 40.078)"/></g></g></g></g></g><g transform="translate(225.192)"><g class="v"><rect class="b" width="118.829" height="119.047" transform="matrix(0.698, -0.716, 0.716, 0.698, -39.057, 40.078)"/></g></g><g transform="translate(40.107)"><g class="g"><g class="h" transform="translate(230.124 78.14)"><g class="i"><g class="w"><rect class="b" width="119.109" height="117.106" transform="translate(-37.97 29.864) rotate(-38.186)"/></g></g></g></g></g><g transform="translate(270.219)"><g class="x"><rect class="b" width="82.175" height="93.554" transform="translate(-3.567 77.977) rotate(-87.381)"/></g></g><g transform="translate(40.107 234.42)"><g class="y"><rect class="b" width="80.341" height="53.489" transform="matrix(0.046, -0.999, 0.999, 0.046, -3.567, 77.976)"/></g></g><g transform="translate(40.107 156.28)"><g class="z"><rect class="b" width="80.342" height="53.489" transform="matrix(0.046, -0.999, 0.999, 0.046, -3.567, 77.977)"/></g></g><g transform="translate(45.039 156.28)"><g class="aa"><rect class="b" width="82.175" height="93.554" transform="translate(-3.567 77.977) rotate(-87.381)"/></g></g><g transform="translate(40.107)"><g class="g"><g class="h" transform="translate(49.97 156.28)"><g class="i"><g transform="translate(0)"><g class="ab"><rect class="b" width="82.175" height="93.553" transform="translate(-3.567 77.977) rotate(-87.381)"/></g></g></g></g><g class="h" transform="translate(49.97 312.559)"><g class="i"><g transform="translate(0 0)"><g class="ac"><rect class="b" width="82.175" height="93.553" transform="translate(-3.567 77.977) rotate(-87.381)"/></g></g></g></g></g></g><g transform="translate(157.37 312.559)"><g class="ad"><rect class="b" width="2.541" height="45.541" transform="translate(-0.021 0.458) rotate(-87.381)"/></g></g><g transform="translate(40.107)"><g class="g"><g class="h" transform="translate(4.932 234.42)"><g class="ae"><g transform="translate(0)"><g class="af"><rect class="b" width="119.108" height="117.105" transform="translate(-37.969 29.864) rotate(-38.186)"/></g></g></g></g><g class="h" transform="translate(140.047 156.28)"><g class="i"><g class="ag"><rect class="b" width="82.175" height="93.554" transform="translate(-3.567 77.977) rotate(-87.381)"/></g></g></g><g class="h" transform="translate(-40.107 312.559)"><g class="i"><g transform="translate(0 0)"><g class="ah"><rect class="b" width="82.175" height="93.554" transform="matrix(0.046, -0.999, 0.999, 0.046, -3.567, 77.977)"/></g></g></g></g></g></g><g transform="translate(135.116 156.28)"><g class="ai"><rect class="b" width="82.175" height="93.553" transform="translate(-3.567 77.977) rotate(-87.381)"/></g></g><g transform="translate(90.077 234.42)"><g class="aj"><rect class="b" width="119.107" height="117.104" transform="translate(-37.969 29.864) rotate(-38.186)"/></g></g><g transform="translate(40.107)"><g class="g"><g class="h" transform="translate(95.009 234.42)"><g class="ak"><g class="al"><rect class="b" width="82.174" height="93.553" transform="matrix(0.046, -0.999, 0.999, 0.046, -3.567, 77.976)"/></g></g></g></g></g><g transform="translate(180.153 234.42)"><g class="am"><rect class="b" width="82.174" height="93.554" transform="translate(-3.567 77.976) rotate(-87.381)"/></g></g><g transform="translate(67.293 312.559)"><g class="an"><rect class="b" width="2.541" height="45.541" transform="matrix(0.046, -0.999, 0.999, 0.046, -0.021, 0.458)"/></g></g><g transform="translate(40.107)"><g class="g"><g class="h" transform="translate(140.047 312.559)"><g class="i"><g transform="translate(0 0)"><g class="ao"><rect class="b" width="118.829" height="119.047" transform="matrix(0.698, -0.716, 0.716, 0.698, -39.057, 40.078)"/></g></g></g></g><g class="h" transform="translate(545.157)"><g class="p"><g class="ap"><rect class="b" width="82.175" height="93.553" transform="matrix(0.046, -0.999, 0.999, 0.046, -3.567, 77.977)"/></g></g></g></g></g><g transform="translate(540.225 78.14)"><g class="aq"><rect class="b" width="80.634" height="59.869" transform="translate(-3.567 77.977) rotate(-87.381)"/></g></g><g transform="translate(585.264 97.573)"><g class="ar"><rect class="b" width="39.749" height="13.101" transform="matrix(0.046, -0.999, 0.999, 0.046, -1.793, 39.191)"/></g></g><g transform="translate(540.225)"><g class="as"><rect class="b" width="80.634" height="59.868" transform="translate(-3.567 77.977) rotate(-87.381)"/></g></g><g transform="translate(540.225 156.28)"><g class="at"><rect class="b" width="80.634" height="59.868" transform="matrix(0.046, -0.999, 0.999, 0.046, -3.567, 77.977)"/></g></g><g transform="translate(40.107)"><g class="g"><g class="h" transform="translate(545.157 156.28)"><g class="p"><g class="au"><rect class="b" width="82.175" height="93.553" transform="matrix(0.046, -0.999, 0.999, 0.046, -3.567, 77.977)"/></g></g></g><g class="h" transform="translate(545.157 312.559)"><g class="p"><g transform="translate(0 0)"><g class="av"><rect class="b" width="82.175" height="93.553" transform="translate(-3.567 77.977) rotate(-87.381)"/></g></g></g></g><g class="h" transform="translate(500.118 234.42)"><g class="ae"><g class="aw"><rect class="b" width="119.108" height="117.105" transform="translate(-37.969 29.863) rotate(-38.186)"/></g></g></g></g></g><g transform="translate(585.264 253.852)"><g class="ax"><rect class="b" width="33.175" height="37.866" transform="translate(-19.084 15.01) rotate(-38.186)"/></g></g><g transform="translate(562.479 312.559)"><g class="ay"><rect class="b" width="2.017" height="34.088" transform="translate(-0.021 0.459) rotate(-87.381)"/></g></g><g transform="translate(247.447 312.559)"><g class="az"><rect class="b" width="32.131" height="32.954" transform="matrix(0.698, -0.716, 0.716, 0.698, -0.23, 0.236)"/></g></g><g transform="translate(225.192 234.42)"><g class="ba"><rect class="b" width="118.828" height="119.046" transform="matrix(0.698, -0.716, 0.716, 0.698, -39.056, 40.078)"/></g></g><g transform="translate(40.107)"><g class="g"><g class="h" transform="translate(185.086 156.28)"><g class="i"><g class="bb"><rect class="b" width="82.175" height="93.554" transform="translate(-3.567 77.977) rotate(-87.381)"/></g></g></g><g class="h" transform="translate(230.124 234.42)"><g class="ae"><g class="bc"><rect class="b" width="82.174" height="93.554" transform="translate(-3.567 77.976) rotate(-87.381)"/></g></g></g></g></g><g transform="translate(292.485 312.559)"><g class="bd"><rect class="b" width="2.541" height="45.541" transform="matrix(0.046, -0.999, 0.999, 0.046, -0.021, 0.458)"/></g></g><g transform="translate(270.231 156.28)"><g class="be"><rect class="b" width="118.829" height="119.047" transform="translate(-39.057 40.078) rotate(-45.739)"/></g></g><g transform="translate(40.107)"><g class="g"><g class="h" transform="translate(410.04 78.14)"><g transform="translate(0)"><g class="i"><g class="bf"><rect class="b" width="82.175" height="93.554" transform="translate(-3.567 77.977) rotate(-87.381)"/></g></g></g></g><g class="h" transform="translate(274.924)"><g transform="translate(0)"><g class="i"><g class="bg"><rect class="b" width="82.175" height="93.554" transform="translate(-3.567 77.977) rotate(-87.381)"/></g></g></g></g></g></g><g transform="translate(360.07)"><g class="bh"><rect class="b" width="82.175" height="93.553" transform="matrix(0.046, -0.999, 0.999, 0.046, -3.567, 77.977)"/></g></g><g transform="translate(315.031 78.14)"><g class="bi"><rect class="b" width="82.175" height="93.554" transform="translate(-3.567 77.977) rotate(-87.381)"/></g></g><g transform="translate(40.107)"><g class="g"><g class="h" transform="translate(319.963 78.14)"><g class="i"><g class="bj"><rect class="b" width="82.175" height="93.554" transform="translate(-3.567 77.977) rotate(-87.381)"/></g></g></g></g></g><g transform="translate(405.108 78.14)"><g class="bk"><rect class="b" width="82.175" height="93.554" transform="translate(-3.567 77.977) rotate(-87.381)"/></g></g><g transform="translate(40.107)"><g class="g"><g class="h" transform="translate(365.001)"><g transform="translate(0)"><g class="i"><g class="bl"><rect class="b" width="118.829" height="119.047" transform="translate(-39.057 40.078) rotate(-45.739)"/></g></g></g></g></g></g><g transform="translate(450.147)"><g class="bm"><rect class="b" width="118.828" height="119.046" transform="translate(-39.057 40.078) rotate(-45.739)"/></g></g><g transform="translate(40.107)"><g class="g"><g class="h" transform="translate(455.079 78.14)"><g class="i"><g class="bn"><rect class="b" width="119.109" height="117.106" transform="translate(-37.97 29.864) rotate(-38.186)"/></g></g></g></g></g><g transform="translate(495.175)"><g class="bo"><rect class="b" width="82.175" height="93.553" transform="translate(-3.567 77.977) rotate(-87.381)"/></g></g><g transform="translate(40.107)"><g class="g"><g class="h" transform="translate(274.924 156.28)"><g transform="translate(0)"><g class="i"><g class="bp"><rect class="b" width="82.175" height="93.554" transform="translate(-3.567 77.977) rotate(-87.381)"/></g></g></g></g><g class="h" transform="translate(274.924 312.559)"><g transform="translate(0)"><g class="i"><g transform="translate(0 0)"><g class="bq"><rect class="b" width="82.175" height="93.554" transform="matrix(0.046, -0.999, 0.999, 0.046, -3.567, 77.977)"/></g></g></g></g></g></g></g><g transform="translate(382.325 312.559)"><g class="br"><rect class="b" width="2.541" height="45.541" transform="matrix(0.046, -0.999, 0.999, 0.046, -0.021, 0.458)"/></g></g><g transform="translate(40.107)"><g class="g"><g class="h" transform="translate(365.001 156.28)"><g transform="translate(0)"><g class="i"><g class="bs"><rect class="b" width="82.175" height="93.554" transform="translate(-3.567 77.977) rotate(-87.381)"/></g></g></g></g></g></g><g transform="translate(360.069 156.28)"><g class="bt"><rect class="b" width="82.175" height="93.554" transform="translate(-3.567 77.977) rotate(-87.381)"/></g></g><g transform="translate(315.031 234.42)"><g class="bu"><rect class="b" width="119.108" height="117.105" transform="translate(-37.969 29.864) rotate(-38.186)"/></g></g><g transform="translate(40.107)"><g class="g"><g class="h" transform="translate(319.963 234.42)"><g class="ae"><g class="bv"><rect class="b" width="82.174" height="93.554" transform="translate(-3.567 77.976) rotate(-87.381)"/></g></g></g></g></g><g transform="translate(405.108 234.42)"><g class="bw"><rect class="b" width="82.174" height="93.554" transform="translate(-3.567 77.976) rotate(-87.381)"/></g></g><g transform="translate(40.107)"><g class="g"><g class="h" transform="translate(365.001 312.559)"><g transform="translate(0)"><g class="i"><g transform="translate(0 0)"><g class="bx"><rect class="b" width="118.829" height="119.047" transform="translate(-39.057 40.078) rotate(-45.739)"/></g></g></g></g></g></g></g><g transform="translate(472.402 312.559)"><g class="by"><rect class="b" width="32.131" height="32.954" transform="matrix(0.698, -0.716, 0.716, 0.698, -0.23, 0.236)"/></g></g><g transform="translate(450.147 234.42)"><g class="bz"><rect class="b" width="118.828" height="119.046" transform="translate(-39.056 40.078) rotate(-45.739)"/></g></g><g transform="translate(40.107)"><g class="g"><g class="h" transform="translate(410.04 156.28)"><g transform="translate(0)"><g class="i"><g class="ca"><rect class="b" width="82.175" height="93.554" transform="translate(-3.567 77.977) rotate(-87.381)"/></g></g></g></g><g class="h" transform="translate(455.079 234.42)"><g class="ae"><g class="cb"><rect class="b" width="82.174" height="93.554" transform="translate(-3.567 77.976) rotate(-87.381)"/></g></g></g></g></g><g transform="translate(517.439 312.559)"><g class="cc"><rect class="b" width="2.541" height="45.541" transform="translate(-0.021 0.458) rotate(-87.381)"/></g></g><g transform="translate(495.185 156.28)"><g class="cd"><rect class="b" width="118.829" height="119.047" transform="translate(-39.057 40.078) rotate(-45.739)"/></g></g></g></g></g></g></g></g><circle class="b" cx="77.233" cy="77.233" r="77.233" transform="translate(723 3872)"/><g transform="translate(765 3916)"><g class="ce" transform="translate(0 0)"><path d="M26.036,12.861A13.052,13.052,0,0,0,23.6,14.979a7.4,7.4,0,0,0-2.441-2.091,10.9,10.9,0,0,0,1.323-2.4c.208-.727.376-1.465.537-2.2a1.114,1.114,0,0,0-.006-.666c-.422-.854-.16-1.864-.647-2.7a16.791,16.791,0,0,0-.973-1.747,6.49,6.49,0,0,0-1.516-1.521c-3.221-2.119-6.439-2.379-9.863.275a6.794,6.794,0,0,0-2.62,5.237,7.625,7.625,0,0,0,1.62,5.68c-.326.488-.9.637-1.3,1.026A9.445,9.445,0,0,0,5.279,17.7a3.437,3.437,0,0,0-.031.8c0,2.382-.015,4.763,0,7.144a3.014,3.014,0,0,0,3,3c4.757.015,9.514,0,14.275,0l1-.546c.306.2.714.232.982.546q7.054,0,14.125,0a2.4,2.4,0,0,0,2.171-.671,2.5,2.5,0,0,0,2.094.673c4.621-.01,9.244-.006,13.715-.006a3.409,3.409,0,0,0,2.513-2.3c0-2.336-.033-4.672.012-7.008a7.082,7.082,0,0,0-.886-3.545,8.356,8.356,0,0,0-2.89-2.885,9.849,9.849,0,0,0,1.472-3.1,3.21,3.21,0,0,0,.132-.747c.016-.538-.022-1.08.009-1.617a6.738,6.738,0,0,0-1.257-3.93A7.814,7.814,0,0,0,51.875.485,7.721,7.721,0,0,0,47.7.26a9.581,9.581,0,0,0-2.212.859,7.058,7.058,0,0,0-3.58,4.024A6.264,6.264,0,0,0,41.377,7.6a8.456,8.456,0,0,0,1.878,5.342c-.6-.128-.778.455-1.221.652-.536.238-.91.84-1.361,1.291a11.536,11.536,0,0,0-2.344-2.035c2.487-3.66,2.326-8.032-1.349-11.092a7.461,7.461,0,0,0-9.213-.325C23.633,4.569,23.43,8.97,26.036,12.861" transform="translate(0.711 0)"/><path d="M51.67,35.779a4.8,4.8,0,0,0-4.023-2.37c-3.9-.024-7.809-.031-11.714.016a13.714,13.714,0,0,1-1.773-.3c-.55-.061-1.162.26-1.648-.241a3.844,3.844,0,0,1-2.014-.349c-.648-.232-1.392,0-1.951-.482a29.642,29.642,0,0,0-4.168.045,11.3,11.3,0,0,0-3.6,1.028,22.428,22.428,0,0,0-3.135,1.88c-1.046.77-1.861,1.757-2.826,2.593-.474.41-.583,1.09-1.171,1.408-1.036-.393-1.6-1.395-2.452-2.09a2.073,2.073,0,0,0-1.724.636c-.945.817-1.59,1.889-2.466,2.76Q5.046,42.26,3.1,44.219A20.549,20.549,0,0,0,.019,47.713C-.15,48.8.785,49.429,1.564,50.094a6.453,6.453,0,0,1,.613.433C5.24,53.782,8.63,56.7,11.81,59.834c1.545,1.524,3.164,2.984,4.756,4.547h1.147c3.029-3.033,6.068-6.092,9.129-9.127a2.433,2.433,0,0,0,.91-2.326L26.619,51.8c1.121.059,2.075-.344,3.116-.338q9.356.046,18.714,0a14.7,14.7,0,0,0,5.428-1.187,5.48,5.48,0,0,0,1.784-1.222c1.272-1.271,2.385-2.677,3.551-4.041a23.44,23.44,0,0,1,2.169-2.476c.472-.417.671-1.009,1.119-1.44.432-.416.991-.743,1.169-1.4.04-.151.24-.259.368-.385a27.734,27.734,0,0,0,2.679-3.2,22.648,22.648,0,0,0,1.518-1.8,4.6,4.6,0,0,0,.024-5.044,5.422,5.422,0,0,0-3.769-2.549,5.589,5.589,0,0,0-5.365,1.585c-2.486,2.522-5,5.016-7.454,7.472" transform="translate(0 3.606)"/><path class="cf" d="M22.564,23.771l.377.377H36.734l.377-.377c0-1.834-.02-3.672.008-5.51a6.134,6.134,0,0,0-1.085-3.59,4.649,4.649,0,0,0-2.411-1.545c-.44-.177-.755.459-1.229.262-1.18.817-2.526.527-3.809.51-.6-.007-1.133-.536-1.793-.511-.619-.644-1.278-.126-1.73.133a4.035,4.035,0,0,0-1.689,1.395,5.678,5.678,0,0,0-.783,2.491c-.083,2.141-.027,4.287-.027,6.366" transform="translate(3.06 1.774)"/><path class="cg" d="M18.533,13.076a9.206,9.206,0,0,1-4.684.836,3.979,3.979,0,0,1-1.681-.462c-1.111-.706-1.961-.131-2.76.467a4.34,4.34,0,0,0-1.8,3.825c.064,2.015.015,4.033.015,6.029l.368.368h13.88V16.184c-1.074-1.81-1.249-2.142-3.334-3.108" transform="translate(1.032 1.774)"/><path class="ch" d="M37.745,24.15h13.9c.189-.214.4-.344.392-.679-.023-2.2.041-4.4-.04-6.6a3.188,3.188,0,0,0-.927-2.165,5.845,5.845,0,0,0-1.959-1.448,1.249,1.249,0,0,0-1.1-.034,6.7,6.7,0,0,1-3.345.7,7.8,7.8,0,0,1-2.486-.491c-.328-.116-.675-.388-1.078-.326a3.3,3.3,0,0,0-1.123.536,4.762,4.762,0,0,0-1.712,1.721,3.22,3.22,0,0,0-.535,1.807c.033,2.287.012,4.576.012,6.973" transform="translate(5.121 1.778)"/><path class="ci" d="M49.641,9.03a13.6,13.6,0,0,0-.02-2.129,3.955,3.955,0,0,0-1.749-3.154c-.37-.212-.563-.616-1.012-.8a5.092,5.092,0,0,0-4.2-.132,4.677,4.677,0,0,0-2.989,3.824c-.592.828-.076,1.658.084,2.441a4.433,4.433,0,0,0,1.288,2.153,4.808,4.808,0,0,0,2.067,1.187,4.784,4.784,0,0,0,5.072-1.162,6.012,6.012,0,0,0,1.17-1.788,2.855,2.855,0,0,1,.287-.436" transform="translate(5.346 0.328)"/><path class="ci" d="M19.728,7.378c-.03-.092-.262-.136-.245-.355a4.218,4.218,0,0,0-1.147-2.881A4.424,4.424,0,0,0,15.554,2.48a5.078,5.078,0,0,0-5.5,2.638,3.71,3.71,0,0,0-.542,2.068c.047.621.01,1.249.01,1.627,1.018,2.771,2.857,4.056,5.577,3.841a4.889,4.889,0,0,0,3.316-1.723,7.28,7.28,0,0,0,1.316-3.554" transform="translate(1.289 0.326)"/><path class="ci" d="M29.51,2.425A5.213,5.213,0,0,0,24.467,7.65a5.11,5.11,0,0,0,10.219-.135,5.207,5.207,0,0,0-5.177-5.09" transform="translate(3.32 0.329)"/><path class="ci" d="M62.952,29.3c-.471.2-.762-.36-1.231-.285a4.819,4.819,0,0,1-.943.012,6.567,6.567,0,0,0-2.9,2.11c-2.48,2.476-4.954,4.957-7.4,7.4A5.3,5.3,0,0,1,47.248,43.4c-.114.048-.158.236-.327.186-.678-.2-1.241.3-1.909.287-3.095-.039-6.191-.017-8.98-.017A1.928,1.928,0,0,1,34.5,42.448a2.393,2.393,0,0,1,.712-1.286h5.673c.763,0,1.528,0,2.291,0a8.018,8.018,0,0,0,3.247-.37l.154.248a4.233,4.233,0,0,1,.653-.834c.271-.212.143-.617.474-.765.117-1.457.072-2.849-1.464-3.673-3.528,0-7.074-.059-10.618.026-1.6.039-3.157-.241-4.736-.329a13.526,13.526,0,0,1-2.6-.546A16.657,16.657,0,0,0,24.6,34.4a11.774,11.774,0,0,0-7.508,2.729,15.231,15.231,0,0,0-3.3,3.62c2.765,2.786,5.483,5.621,8.57,8.219a4.714,4.714,0,0,0,1.913-.24c.656-.186,1.382.2,2.057-.26.246-.167.7-.026,1.06-.026,6.33,0,12.662.044,18.991-.032A10.506,10.506,0,0,0,50.932,47.4a7.016,7.016,0,0,0,2.361-2.034c.32-.4.68-.779.995-1.189a12.88,12.88,0,0,1,.959-1.217c1.039-1.063,1.9-2.279,2.88-3.38.7-.787,1.359-1.615,2.042-2.415a37.14,37.14,0,0,0,2.52-2.985,17.549,17.549,0,0,0,1.507-1.94,1.625,1.625,0,0,0-.3-1.976,13.289,13.289,0,0,0-.949-.962" transform="translate(1.871 3.936)"/><path class="cj" d="M3.088,46.423c1.136,1.137,2.176,2.327,3.369,3.34,2.174,1.848,4.028,4.027,6.176,5.883,1.414,1.221,2.661,2.6,4.1,3.868,1.236-1.237,2.509-2.472,3.735-3.751a22.555,22.555,0,0,0,3.59-3.956,28.515,28.515,0,0,0-2.525-2.32c-1.325-1.2-2.567-2.5-3.814-3.792-2.319-2.4-4.772-4.661-7.292-6.943-.308-.037-.451.3-.659.5Q7.29,41.717,4.823,44.2c-.189.191-.5.355-.546.576-.15.745-1.065.924-1.189,1.649" transform="translate(0.419 5.258)"/><path class="ck" d="M27.315,41.423A3.069,3.069,0,0,0,28.6,42.441,1.676,1.676,0,0,0,30,41a1.7,1.7,0,0,0-1.316-1.533c-.31.1-.566.422-.951.27a2.047,2.047,0,0,0-.419,1.683" transform="translate(3.704 5.356)"/></g></g></g></svg>