<svg xmlns="http://www.w3.org/2000/svg" xmlns:xlink="http://www.w3.org/1999/xlink" width="115" height="115" viewBox="0 0 115 115">
  <defs>
    <filter id="Elipse_4716" x="0" y="0" width="115" height="115" filterUnits="userSpaceOnUse">
      <feOffset dy="10" input="SourceAlpha"/>
      <feGaussianBlur stdDeviation="5" result="blur"/>
      <feFlood flood-opacity="0.161"/>
      <feComposite operator="in" in2="blur"/>
      <feComposite in="SourceGraphic"/>
    </filter>
    <clipPath id="clip-path">
      <rect id="Rect치ngulo_36986" data-name="Rect치ngulo 36986" width="41" height="45.594" fill="none"/>
    </clipPath>
  </defs>
  <g id="Grupo_849909" data-name="Grupo 849909" transform="translate(-270 -6355)">
    <g transform="matrix(1, 0, 0, 1, 270, 6355)" filter="url(#Elipse_4716)">
      <circle id="Elipse_4716-2" data-name="Elipse 4716" cx="42.5" cy="42.5" r="42.5" transform="translate(15 5)" fill="#4acfd9"/>
    </g>
    <g id="Grupo_80647" data-name="Grupo 80647" transform="translate(307 6380)">
      <g id="Grupo_80646" data-name="Grupo 80646" clip-path="url(#clip-path)">
        <path id="Trazado_114086" data-name="Trazado 114086" d="M40.289,20.475c.375-.079.478.28.71.443,0,6.28.008,12.564-.007,18.846a5.833,5.833,0,0,1-.981,2.967A6.07,6.07,0,0,1,36.5,45.344a4.848,4.848,0,0,1-1.5.248q-14.05-.024-28.1,0c-.585,0-1.108-.314-1.611-.2a2.734,2.734,0,0,0-.653-.342,2.991,2.991,0,0,1-1.5-.877,6.224,6.224,0,0,1-1.731-2.212,5.3,5.3,0,0,1-.533-2.183c.04-.828.009-1.659.009-2.484l.778-.78H7.206l.246.513c.17.777-.387.9-.918.956-.94.1-1.889.024-2.834.041a2.244,2.244,0,0,0-1.11.156,4.514,4.514,0,0,0,3.959,5.669c1.978.063,3.959.015,5.938.015q8.021,0,16.042,0a2.5,2.5,0,0,0,1.034-.093A12.364,12.364,0,0,1,28.2,41.132a23.07,23.07,0,0,1-.349-2.854,1.89,1.89,0,0,0-1.333-.245q-7.844-.01-15.687,0a6.083,6.083,0,0,1-1.15-.049c-.681-.131-.818-.387-.628-1.124-.009-.181.18-.218.262-.372h2.912V26.064a2.294,2.294,0,0,1-1.044-.974.82.82,0,0,0-.138-.208c-.761-.647-1.3-1.5-2.005-2.194-.816-.8-1.519-1.7-2.295-2.532a13.017,13.017,0,0,1-1.39-1.549c-.6-.9-1.551-1.478-2.091-2.42a1.091,1.091,0,0,0-.248-.253c-.906-.793-1.533-1.848-2.45-2.629-.25-.212-.212-.622-.563-.712v-.927c.158-.193.4-.33.432-.618C1.2,10.691,1.585,9.9,2.255,9.443A4.368,4.368,0,0,1,2.983,9.1c.367-.076.523.334.793.132.972.863,1.728,1.877,2.583,2.8,1.025,1.1,2.024,2.237,3.013,3.374.913,1.05,1.895,2.035,2.748,3.136a.7.7,0,0,0,.093-.081.137.137,0,0,0,.031-.075q0-8.59,0-17.178A2.183,2.183,0,0,1,13.49,0C22.028,0,30.662,0,39.3,0A1.615,1.615,0,0,1,41,1.715q0,4.358,0,8.713c-.248.052-.067.428-.355.433-.707.328-1.047-.05-1.246-.664a3.7,3.7,0,0,1-.1-1.144c0-1.98,0-3.961-.005-5.942A2.209,2.209,0,0,0,39.117,1.9c-.4-.272-.857-.139-1.285-.208-7.424.043-14.848.005-22.273.022a3.06,3.06,0,0,0-1.4.149,1.922,1.922,0,0,0-.2,1.282c-.007,5.133.018,10.267-.023,15.4a3.419,3.419,0,0,0,1.033,2.718c1.455,1.369,1.638,3.315,2.211,5.062.309.942-.636,1.672-1.651,1.457-.463-.1-.843-.442-1.333-.449a42.287,42.287,0,0,0-.071,8.711,2.269,2.269,0,0,0,1.288.171q5.9.01,11.8,0c2.1,0,2.689.614,2.712,2.793a4.548,4.548,0,0,0,3,4.654,7.009,7.009,0,0,0,2.195.211,4.461,4.461,0,0,0,4.178-4.159c.007-1.333,0-2.666.005-4q0-6.575,0-13.149a4.355,4.355,0,0,1,.129-1.409c.137-.406.308-.794.86-.684" transform="translate(0 0)"/>
        <path id="Trazado_114087" data-name="Trazado 114087" d="M9.266,40.618v.622l.277.278H28.407a12.963,12.963,0,0,0,.354,3.513,7.037,7.037,0,0,0,1.816,2.8c-.23.16-.472.079-.7.079q-11.615.008-23.231-.005A4.061,4.061,0,0,1,3.416,46.17a5.5,5.5,0,0,1-.661-1.146,3.83,3.83,0,0,1-.414-1.608c.007-.618,0-1.236,0-1.883H7.21c.179-.258.537-.361.459-.738a8.862,8.862,0,0,1,1.053.011c.235.028.353-.158.544-.189" transform="translate(-0.217 -3.762)" fill="#9bc5da"/>
        <path id="Trazado_114088" data-name="Trazado 114088" d="M43.875,20.62c-.183-.015-.24.279-.454.188a3.944,3.944,0,0,0-.255,1.942q0,8.543,0,17.087A4.278,4.278,0,0,1,41.924,42.8,5.143,5.143,0,0,1,39.661,44.2a6.92,6.92,0,0,1-.933.1c-.034-.422.292-.633.541-.867a5.884,5.884,0,0,0,1.837-4.552q-.023-17.844,0-35.687A2.3,2.3,0,0,1,41.39,1.57h1.68a.424.424,0,0,1,.063.058.144.144,0,0,1,.031.075q0,4.345,0,8.685c.26.1.074.5.249.509a1.872,1.872,0,0,0,.816.109c.019.24-.2.135-.355.257v1.346c-.794,1.777-.373,3.642-.387,5.474,0,.477.492.623.741.936.02.241-.206.133-.355.261Z" transform="translate(-3.587 -0.145)" fill="#bcdef3"/>
        <path id="Trazado_114089" data-name="Trazado 114089" d="M44.681,20.144h-.607c-.271-.118-.24-.447-.458-.62,0-.927-.024-1.866.007-2.8a6.3,6.3,0,0,1,.26-2.773l.443-.213c.373-.081.475.277.71.441q0,2.549,0,5.109c0,.339-.02.663-.357.859" transform="translate(-4.038 -1.271)" fill="#040405"/>
        <path id="Trazado_114090" data-name="Trazado 114090" d="M39.2,1.57q0,18.946,0,37.893a5.279,5.279,0,0,1-1.605,3.866c-.338.337-.7.649-1.053.972H35.384a4.114,4.114,0,0,1-2.726-1.132,4.878,4.878,0,0,1-1.525-2.394,1.88,1.88,0,0,1-.1-.491c-.008-.534-.018-1.068,0-1.6a2.05,2.05,0,0,0-.761-1.821c-.069-.054-.126-.125-.218-.216H15.092V26.8c.441.213.843.376,1.212.594a2.141,2.141,0,0,0,1.5.329,1.96,1.96,0,0,0,.488-.612.905.905,0,0,0,0-.865c-.327-.753-.544-1.551-.89-2.3-.122-.262.046-.566-.122-.84a3.365,3.365,0,0,0-.7-1.044c-.608-.467-.915-1.205-1.507-1.682V1.57Z" transform="translate(-1.397 -0.145)" fill="#e2f3fe"/>
        <path id="Trazado_114091" data-name="Trazado 114091" d="M15.06,24.468l-.377.341a2.451,2.451,0,0,1-.655-.574c-.2-.181-.454-.344-.549-.572a2.664,2.664,0,0,0-.711-.858c-.841-.813-1.566-1.734-2.359-2.591C9.405,19.131,8.446,18,7.46,16.9c-.543-.605-1.128-1.177-1.632-1.81-.3-.376-.61-.742-.935-1.086l.26-.273a5.375,5.375,0,0,1,1.5,1.417,1,1,0,0,0,.19.273c.887.769,1.521,1.778,2.385,2.567.409.374.639.885,1.052,1.263a3.431,3.431,0,0,1,1.08,1.234c.019.051.078.088.123.127.975.849,1.666,1.966,2.637,2.816.354.309.426.84.943,1.038" transform="translate(-0.453 -1.272)" fill="#bcfa64"/>
        <path id="Trazado_114092" data-name="Trazado 114092" d="M3.3,15.377l.392-.351a11.362,11.362,0,0,1,1.342,1.389,5.373,5.373,0,0,0,.658.785c.863.835,1.592,1.791,2.417,2.661.453.478.912.969,1.338,1.479,1.045,1.249,2.132,2.458,3.25,3.641a8.908,8.908,0,0,1,.761.953c-.093.348-.32.14-.454.2a33.118,33.118,0,0,1-2.429-2.655c-.451-.48-.887-.993-1.349-1.469-.384-.395-.644-.883-1.053-1.263a3.267,3.267,0,0,1-1.016-1.174c-.019-.05-.078-.087-.122-.126-.975-.851-1.68-1.954-2.634-2.824-.406-.37-.6-.929-1.1-1.248" transform="translate(-0.305 -1.392)" fill="#98db56"/>
        <path id="Trazado_114093" data-name="Trazado 114093" d="M3.23,11.556l.815.818-1.52,1.51h-.2l-.75-.76c.377-.643,1.2-.9,1.659-1.567" transform="translate(-0.146 -1.07)" fill="#f87fa8"/>
        <path id="Trazado_114094" data-name="Trazado 114094" d="M16.873,28.59a4.432,4.432,0,0,1-1.2-.659c.149-.36.513-.444.8-.629.123.4.248.8.4,1.288" transform="translate(-1.452 -2.529)" fill="#43657e"/>
        <path id="Trazado_114095" data-name="Trazado 114095" d="M18.8,9.629V4.956l.227-.228H37.7l.224.224V9.443l-.414.432q-8.843,0-17.664,0a1.665,1.665,0,0,1-1.043-.25" transform="translate(-1.741 -0.438)" fill="#010000"/>
        <path id="Trazado_114096" data-name="Trazado 114096" d="M25.4,35.339l-.539-.373c-.085-.377.173-.554.2-.8a2.39,2.39,0,0,1,.973-.227q5.18.022,10.36,0a1.789,1.789,0,0,1,1,.243c.078.129.05.353.273.426-.2.26-.213.544-.48.73Z" transform="translate(-2.301 -3.143)" fill="#040404"/>
        <path id="Trazado_114097" data-name="Trazado 114097" d="M37.4,18.764c-.024.121.182.206.22.37.054.2-.288.24-.177.46a1.742,1.742,0,0,1-1.034.281q-5.179-.018-10.359,0a2.247,2.247,0,0,1-.977-.22c-.049-.24-.295-.418-.213-.79l.548-.421H36.365a1.13,1.13,0,0,1,1.035.319" transform="translate(-2.301 -1.708)" fill="#040404"/>
        <path id="Trazado_114098" data-name="Trazado 114098" d="M25.3,27.541c-.2-.227-.554-.367-.446-.825l.536-.409H37.194l.449.554c.078.308-.277.449-.478.68Z" transform="translate(-2.3 -2.437)"/>
        <path id="Trazado_114099" data-name="Trazado 114099" d="M18.385,17.629a2.436,2.436,0,0,1,2.154-2.9,2.125,2.125,0,0,1,1.335.393,2.9,2.9,0,0,1,1.114,1.658c.075.548-.269,1.005-.423,1.505a1.437,1.437,0,0,1-.972.856c-1,.4-2.245.468-3.208-1.511" transform="translate(-1.702 -1.362)" fill="#010101"/>
        <path id="Trazado_114100" data-name="Trazado 114100" d="M20.74,27.158a2.745,2.745,0,0,1-2.07-1.2,2.734,2.734,0,0,1-.284-1.621,2.316,2.316,0,0,1,4.577.612,2.309,2.309,0,0,1-.75,1.549c-.432.465-1.019.424-1.473.659" transform="translate(-1.702 -2.085)" fill="#010101"/>
        <path id="Trazado_114101" data-name="Trazado 114101" d="M21.473,30.414a2.388,2.388,0,0,1,1.385,1.729c.409.51,0,1.011-.137,1.431a1.971,1.971,0,0,1-1.162,1.137A2.353,2.353,0,0,1,18.74,33.8a1.947,1.947,0,0,1-.193-1.919A2.558,2.558,0,0,1,19.7,30.59a1.375,1.375,0,0,0,.2-.176Z" transform="translate(-1.702 -2.817)" fill="#010101"/>
        <path id="Trazado_114102" data-name="Trazado 114102" d="M25.048,17.932c-.015-.319-.317-.489-.182-.843l.477-.395h3.689l.417.517v.455a1.236,1.236,0,0,1-.885.437c-.941,0-1.883-.016-2.824.013-.253.008-.4-.223-.692-.184" transform="translate(-2.3 -1.546)" fill="#060707"/>
        <path id="Trazado_114103" data-name="Trazado 114103" d="M25.023,32.456a1.567,1.567,0,0,1,1.04-.28c.735.013,1.471.02,2.206,0a1.392,1.392,0,0,1,1.168.439v.582l-.529.389H25.263l-.419-.42c-.131-.294.189-.466.18-.708" transform="translate(-2.298 -2.98)" fill="#060606"/>
        <path id="Trazado_114104" data-name="Trazado 114104" d="M28.861,24.528l.57.422c.081.374-.163.551-.218.808H25.258c-.1-.123-.243-.3-.449-.56-.077-.3.276-.439.478-.671h3.574" transform="translate(-2.297 -2.272)" fill="#010101"/>
        <path id="Trazado_114105" data-name="Trazado 114105" d="M25.028,23.654c.05-.342-.28-.461-.2-.725s.3-.4.46-.549c.315-.12.476.2.725.191.083.179.162.35.24.518-.011.178-.265.244-.193.452l-.5.25c-.2.038-.245-.289-.54-.136" transform="translate(-2.299 -2.07)" fill="#17181a"/>
        <path id="Trazado_114106" data-name="Trazado 114106" d="M25.271,14.718h.553c.149.229.506.325.442.7-.048.25-.3.338-.43.534h-.577l-.335-.438c-.25-.407.181-.542.348-.795" transform="translate(-2.301 -1.363)" fill="#09090a"/>
        <path id="Trazado_114107" data-name="Trazado 114107" d="M25.241,30.218h.585l.434.48c0,.307,0,.307-.449.767h-.522c-.138-.2-.487-.293-.449-.691.012-.277.314-.323.4-.555" transform="translate(-2.3 -2.799)" fill="#080909"/>
        <rect id="Rect치ngulo_36985" data-name="Rect치ngulo 36985" width="16.65" height="2.431" transform="translate(18.296 5.55)" fill="#fc6095"/>
        <path id="Trazado_114108" data-name="Trazado 114108" d="M19.982,16.7l.414-.4c.351-.007.729-.1,1.044.2.349.3.292.729.282,1.126l-.416.418h-.932l-.392-.393Z" transform="translate(-1.851 -1.508)" fill="#f5af00"/>
        <path id="Trazado_114109" data-name="Trazado 114109" d="M20.386,25.89l-.434-.436v-.883a1.971,1.971,0,0,1,.886-.632,1.741,1.741,0,0,1,.887.652c0,.187,0,.394,0,.6,0,.177-.267.243-.192.453a1.568,1.568,0,0,1-1.146.244" transform="translate(-1.848 -2.217)" fill="#f4ae00"/>
        <path id="Trazado_114110" data-name="Trazado 114110" d="M21.1,31.791l.622.618v.7a2.052,2.052,0,0,1-.887.639,1.7,1.7,0,0,1-.885-.661v-.859a1.3,1.3,0,0,1,1.149-.435" transform="translate(-1.848 -2.943)" fill="#f4af00"/>
      </g>
    </g>
  </g>
</svg>
