<svg xmlns="http://www.w3.org/2000/svg" xmlns:xlink="http://www.w3.org/1999/xlink" width="115" height="115" viewBox="0 0 115 115">
  <defs>
    <filter id="Elipse_4717" x="0" y="0" width="115" height="115" filterUnits="userSpaceOnUse">
      <feOffset dy="10" input="SourceAlpha"/>
      <feGaussianBlur stdDeviation="5" result="blur"/>
      <feFlood flood-opacity="0.161"/>
      <feComposite operator="in" in2="blur"/>
      <feComposite in="SourceGraphic"/>
    </filter>
    <clipPath id="clip-path">
      <rect id="Rectángulo_36988" data-name="Rectángulo 36988" width="47.787" height="49.871" fill="none"/>
    </clipPath>
  </defs>
  <g id="Grupo_849911" data-name="Grupo 849911" transform="translate(-900 -6355)">
    <g transform="matrix(1, 0, 0, 1, 900, 6355)" filter="url(#Elipse_4717)">
      <circle id="Elipse_4717-2" data-name="Elipse 4717" cx="42.5" cy="42.5" r="42.5" transform="translate(15 5)" fill="#4acfd9"/>
    </g>
    <g id="Grupo_80651" data-name="Grupo 80651" transform="translate(934 6378)">
      <g id="Grupo_80650" data-name="Grupo 80650" transform="translate(0 0)" clip-path="url(#clip-path)">
        <path id="Trazado_114132" data-name="Trazado 114132" d="M34.971,5.093V4.024a6.151,6.151,0,0,0-1.754-1.159A20.748,20.748,0,0,0,28.51.888,6.7,6.7,0,0,0,26.177.422C25.666.092,25.049.371,24.54.159A5.27,5.27,0,0,0,22.748.042,8.948,8.948,0,0,0,21,.045a26.76,26.76,0,0,0-4.164.7c-.925.267-1.85.541-2.754.862a18.033,18.033,0,0,0-3.058,1.515,20.449,20.449,0,0,0-2.06,1.369c-.443.338-.886.7-1.292,1.057a21.812,21.812,0,0,0-3.1,3.271,24.435,24.435,0,0,0-2.414,4.051A22.767,22.767,0,0,0,.606,17.48c-.2.815-.264,1.649-.418,2.46A15.833,15.833,0,0,0,.07,23.949a16.523,16.523,0,0,0,.673,3.984c.272.859.541,1.72.815,2.579a13.139,13.139,0,0,0,.783,1.72,15.978,15.978,0,0,0,.881,1.68,19.7,19.7,0,0,0,1.232,1.826,20.043,20.043,0,0,0,1.459,1.818,26.21,26.21,0,0,0,2.872,2.678,25.853,25.853,0,0,0,4.041,2.424,22.546,22.546,0,0,0,4.6,1.558c.813.184,1.648.252,2.453.418a34.435,34.435,0,0,0,4,.173c.4.037.7-.231,1.085-.219.33.009.713.168.987-.182a8.107,8.107,0,0,0,1.98-.353c.931-.18,1.768-.607,2.7-.819.159.8.511,1.56.629,2.354a15.536,15.536,0,0,1,.029,2.425,2.773,2.773,0,0,0,1.747,1.843c3.435,0,6.989-.012,10.543.017.369,0,.623-.326.966-.218a3.174,3.174,0,0,0,1.3-2.951c0-.323,0-.648,0-.978a10.114,10.114,0,0,0,1.466-2.109,4.511,4.511,0,0,0,.477-1.845c0-2.366-.014-4.733,0-7.1a2.776,2.776,0,0,0-2.023-2.726c-.863-.241-.858-.261-1.956.167-.444-.221-.491-.8-.9-1.053a14.347,14.347,0,0,0,1-2.942c.113-.565.329-1.1.4-1.687a14.945,14.945,0,0,1,.207-1.762,26.6,26.6,0,0,0,.174-3.815c.04-.4-.253-.694-.218-1.089.03-.33.124-.705-.18-.988a5.853,5.853,0,0,0-.4-2.171,18.168,18.168,0,0,0-.669-2.152,27.4,27.4,0,0,0-1.279-2.774,7.988,7.988,0,0,0-1.225-1.915H39.629c-.732.663-.8,1.073-.188,2.01a18.724,18.724,0,0,1,2.2,4.957,19.684,19.684,0,0,1-.45,12.688c-.157.428-.3.872-.89.962-.741-.25-.673-.782-.452-1.391a18.756,18.756,0,0,0,1.211-7.045,18.282,18.282,0,0,0-4.174-11.277,18.244,18.244,0,0,0-15.4-6.99A17.646,17.646,0,0,0,10.632,7.85,18.4,18.4,0,0,0,3.667,23.39a17.347,17.347,0,0,0,2.473,8.3,1.232,1.232,0,0,0,1.779.638c.768-.579.615-1.278.237-1.991A16.98,16.98,0,0,1,6.27,24.445,15.69,15.69,0,0,1,9.653,12.328,15.862,15.862,0,0,1,22.769,6.142,16.364,16.364,0,0,1,38.4,19.947a16.672,16.672,0,0,1-.755,7.856,1.942,1.942,0,0,1-.6,1.091c-.368-.214-.24-.571-.247-.867-.023-.842.02-1.687-.019-2.529a3.163,3.163,0,0,0-6.325.018c-.057,2.983-.012,5.968-.018,8.951a3.306,3.306,0,0,1-2.176,3.1,16.172,16.172,0,0,1-13.439-.737c-.78-.39-1.574-.916-2.343.032a1.221,1.221,0,0,0,.6,1.79,17.936,17.936,0,0,0,13.091,2.1c1.006-.214,1.986-.534,2.938-.782A1.072,1.072,0,0,1,29.526,41a1.577,1.577,0,0,1-.969.566A18.776,18.776,0,0,1,14.9,41.11,19.584,19.584,0,0,1,2.417,24.825a19.872,19.872,0,0,1,10.9-20.412A19.48,19.48,0,0,1,32.8,5.185c1.125.659,1.484.674,2.176-.092" transform="translate(0 0)"/>
        <path id="Trazado_114133" data-name="Trazado 114133" d="M7.6,31.945c-.644.305-1.04.2-1.356-.4A21.435,21.435,0,0,1,4.384,27.26a4.23,4.23,0,0,1-.256-1.243c.016-.374-.3-.613-.237-.994a1.107,1.107,0,0,0-.164-1c-.08-.09-.012-.313-.012-.476,0-.616,0-1.232,0-1.848a16.6,16.6,0,0,1,.991-5.522,18.679,18.679,0,0,1,2.456-4.715,17.9,17.9,0,0,1,2.4-2.794,19.267,19.267,0,0,1,5.442-3.492A10.4,10.4,0,0,1,18.64,4.116c.475-.416,1.085-.063,1.621-.306a4.431,4.431,0,0,1,1.711-.08,8.663,8.663,0,0,1,1.742.012A23.51,23.51,0,0,1,28.817,5a37.381,37.381,0,0,1,4.519,2.445c.817.961,2.066,1.487,2.662,2.67a9.891,9.891,0,0,1,1.848,2.443,21.86,21.86,0,0,1,1.41,2.816c.365.835.5,1.734.864,2.559a11.6,11.6,0,0,1,.241,1.162,16.936,16.936,0,0,1,.208,4.764,15.509,15.509,0,0,1-.38,2.269c-.258.686-.311,1.419-.57,2.1-.183.475-.4.937-.6,1.4.169.352.614.488.639.9.454.209.771-.123,1.108-.2a5.43,5.43,0,0,0,.768-1.884,13.027,13.027,0,0,0,.646-2.663c.08-.786.271-1.578.335-2.373s-.026-1.623.03-2.43a8.519,8.519,0,0,0-.223-1.184c-.022-.4.207-.843-.179-1.185.075-.981-.482-1.828-.587-2.772a4.446,4.446,0,0,0-.41-1,11.354,11.354,0,0,0-1.63-3.3,1.438,1.438,0,0,1-.094-1.983c-.409-.508-.808-1.026-1.235-1.518a.562.562,0,0,1-.123-.428c-.413-.168-.848.359-1.165.026-.577-.469-.03-.957-.194-1.388-.449.037-.669-.368-1-.549a5.44,5.44,0,0,1-.938-.813c-.16-.028-.2.135-.306.2a1.152,1.152,0,0,1-1.441-.111A7.412,7.412,0,0,0,31,3.769a18.682,18.682,0,0,0-4.172-1.406c-.325-.341-.8-.069-1.149-.27-.394-.226-.825-.014-1.209-.129A9.9,9.9,0,0,0,21.153,1.8a17.314,17.314,0,0,0-5.385,1.034,20.223,20.223,0,0,0-2.659,1.078,22.594,22.594,0,0,0-4.04,2.681A19.985,19.985,0,0,0,7.388,8.13a27.238,27.238,0,0,0-2.915,3.937,21.989,21.989,0,0,0-2.057,4.981,7.527,7.527,0,0,0-.456,2.637c.021.593-.27,1.151-.2,1.769.065.576-.017,1.166.02,1.748a19.009,19.009,0,0,0,1.036,5.4,21.267,21.267,0,0,0,1.076,2.666A30.188,30.188,0,0,0,6.56,35.321a18,18,0,0,0,1.6,1.753,27.468,27.468,0,0,0,3.853,2.864A21.287,21.287,0,0,0,16.985,42a7.592,7.592,0,0,0,2.627.46c.595-.023,1.145.286,1.765.207.573-.074,1.165.021,1.743-.022a18.528,18.528,0,0,0,5.468-1.078,2.379,2.379,0,0,1,1.046-.285,3.842,3.842,0,0,0-.379-1.938c-.115,0-.274-.051-.36.008a9.177,9.177,0,0,1-2.907.944,14.861,14.861,0,0,1-5.454.372,17.929,17.929,0,0,1-3.666-.716,30.349,30.349,0,0,1-3.39-1.427c-.217-.1-.422-.231-.632-.349-.592-.332-.7-.713-.4-1.361a3.414,3.414,0,0,0-1.923-1.553c-.482.022-1.016.238-1.37-.424-.129-.267.043-.614,0-.954A3.492,3.492,0,0,0,7.6,31.945" transform="translate(0.199 0.199)" fill="#9ce2d0"/>
        <path id="Trazado_114134" data-name="Trazado 114134" d="M33.172,5.811c0,.032.013.077,0,.094-.109.116-.225.225-.36.359V7.1l.456.457h.763c.185-.1.265-.345.5-.385a.99.99,0,0,0-1.359-1.362" transform="translate(3.739 0.645)" fill="#040404"/>
        <path id="Trazado_114135" data-name="Trazado 114135" d="M10.11,35.051c.156,0,.3-.02.43.131a8.919,8.919,0,0,0,1.511,1.231c.071-.522.676-.241.861-.566a16.706,16.706,0,0,0,15.968.913A2.167,2.167,0,0,1,30.1,35.349q0-5.2,0-10.4a2.9,2.9,0,0,1,3.558-2.9A2.771,2.771,0,0,1,35.92,24.8c.03,1.322.007,2.646.007,3.951a1.409,1.409,0,0,0,.736.049,9.068,9.068,0,0,0,.8-1.981,22.665,22.665,0,0,0,.644-2.956,17.448,17.448,0,0,0,.129-2.844,14.332,14.332,0,0,0-.515-3.179,14.522,14.522,0,0,0-1.6-4.106,11.572,11.572,0,0,0-1.79-2.561c-.343-.329-.518-.776-.88-1.1a18.865,18.865,0,0,0-5.33-3.544,17.919,17.919,0,0,0-2.935-.891,9.071,9.071,0,0,1-1.556-.211,4.43,4.43,0,0,0-1.587-.144A5.342,5.342,0,0,0,20.4,5.3c-.752.168-1.529.147-2.269.366-.72.214-1.449.4-2.157.648a14.983,14.983,0,0,0-3.8,2.061,13.821,13.821,0,0,0-2.238,1.857,18.511,18.511,0,0,0-3.418,5.192,19.118,19.118,0,0,0-.857,2.852,14.945,14.945,0,0,0-.385,2.366c-.065.838-.014,1.684-.014,2.528,0,.405.323.754.2,1.184-.116.391.124.75.233,1.072.127.373.061.782.3,1.143a5.175,5.175,0,0,1,.3,1.039,31.493,31.493,0,0,0,1.466,3.086c-.311.178-.028.785-.55.856a8.94,8.94,0,0,0,1.228,1.516c.151.127.133.274.131.43.373.322.916-.118,1.268.286.4.353-.036.9.285,1.271" transform="translate(0.597 0.596)" fill="#b7ebbb"/>
        <path id="Trazado_114136" data-name="Trazado 114136" d="M28.1,35.4a3.419,3.419,0,0,0,.289,1.821,37.746,37.746,0,0,0,1.247,4.053c-.061.547.349.981.377,1.493.043.775.011,1.555.011,2.335l.293.291c3.31,0,6.637,0,9.964,0a.711.711,0,0,0,.175-.046c.068-.069.137-.137.225-.225V42.662a2.506,2.506,0,0,1,.667-.927c.307-.2.349-.58.606-.827a2.341,2.341,0,0,0,.684-1.751c.008-2.431,0-4.861,0-7.289a.433.433,0,0,1-.209-.405,3.6,3.6,0,0,0-.568-.266c-.192-.053-.338.038-.966.451a1.392,1.392,0,0,1-.411,1.211c-.313.275-.684.286-1.254.07-.188-.1.056-.453-.276-.421V30.7l-.7-.681h-.545a1.411,1.411,0,0,0-.622.818,1.171,1.171,0,0,1-.791,1c-.233.167-.242.007-.313-.021-.222-.088-.544.041-.658-.275a3.437,3.437,0,0,1-.247-.867c-.04-.514-.011-1.032-.011-1.528-.087-.088-.156-.157-.258-.258H33.755c-.212.117-.236.439-.428.681v2.5l-.5.479h-.948c-.293-.119-.258-.485-.5-.673q0-4.209,0-8.443c0-.371.094-.764-.235-1.078a1.049,1.049,0,0,0-1.4-.089c-.356.315-.309.76-.309,1.194,0,3.372,0,6.743.008,10.115a1.879,1.879,0,0,1-.315,1.136c-.268.315-.768.252-1.033.694" transform="translate(3.198 2.512)" fill="#fedbd4"/>
        <path id="Trazado_114137" data-name="Trazado 114137" d="M9.792,32.181c.051-.426.315-.818.159-1.3l-.417-.418c-.48-.156-.871.109-1.3.159a.934.934,0,0,1-.207.77c.222.257.261.58.561.812.465.359.805-.051,1.2-.025" transform="translate(0.915 3.466)" fill="#040505"/>
        <path id="Trazado_114138" data-name="Trazado 114138" d="M19.378,20.065c-.652-.654-1.186-1.164-1.692-1.7a3.991,3.991,0,0,0-1.743-1.186c-.082-.026-.145-.119-.227-.189-.373,0-.761.006-1.148,0a3.258,3.258,0,0,0-3.038,2.627c-.06.361-.307.788-.14,1.071.2.343.075.719.305,1.052a8.6,8.6,0,0,0,.908,1.271c1.352,1.349,2.7,2.707,4.05,4.054a4.543,4.543,0,0,0,1.7,1.043,3.046,3.046,0,0,0,2.325-.129,3.629,3.629,0,0,0,1.219-.815q3.788-3.835,7.613-7.631c.34-.338.545-.76.861-1.11.3-.325.1-.847.4-1.193a3.8,3.8,0,0,0-.737-2.411,3.4,3.4,0,0,0-3.316-1.3,3.876,3.876,0,0,0-2.119,1.2c-1.594,1.611-3.2,3.209-4.8,4.817a6.341,6.341,0,0,0-.421.544" transform="translate(1.291 1.535)"/>
        <path id="Trazado_114139" data-name="Trazado 114139" d="M18.594,26.119h1.019a2.714,2.714,0,0,0,.948-.763c2.31-2.314,4.61-4.637,6.933-6.937a4.882,4.882,0,0,0,1.15-1.662c-.168-.647-.32-1.283-1.284-1.518h-.783c-2.093,2.1-4.219,4.226-6.338,6.359a1.531,1.531,0,0,1-1.415.616C17.6,21.085,16.5,19.783,15.238,18.73c-.343,0-.6-.01-.857,0a1.166,1.166,0,0,0-.987.613c-.145.275-.4.628-.275.936a3.147,3.147,0,0,0,.6,1.115q2.065,2.055,4.113,4.127c.223.226.583.248.765.6" transform="translate(1.491 1.737)" fill="#fefefe"/>
      </g>
    </g>
  </g>
</svg>
