<svg xmlns="http://www.w3.org/2000/svg" xmlns:xlink="http://www.w3.org/1999/xlink" width="1240" height="468" viewBox="0 0 1240 468"><defs><filter id="a" x="720" y="0" width="115" height="115" filterUnits="userSpaceOnUse"><feOffset dy="10" input="SourceAlpha"/><feGaussianBlur stdDeviation="5" result="b"/><feFlood flood-opacity="0.161"/><feComposite operator="in" in2="b"/><feComposite in="SourceGraphic"/></filter><filter id="c" x="1035" y="0" width="115" height="115" filterUnits="userSpaceOnUse"><feOffset dy="10" input="SourceAlpha"/><feGaussianBlur stdDeviation="5" result="d"/><feFlood flood-opacity="0.161"/><feComposite operator="in" in2="d"/><feComposite in="SourceGraphic"/></filter><clipPath id="e"><rect width="53.977" height="53.871" transform="translate(0 0)" fill="none"/></clipPath><filter id="f" x="90" y="0" width="115" height="115" filterUnits="userSpaceOnUse"><feOffset dy="10" input="SourceAlpha"/><feGaussianBlur stdDeviation="5" result="g"/><feFlood flood-opacity="0.161"/><feComposite operator="in" in2="g"/><feComposite in="SourceGraphic"/></filter><clipPath id="h"><rect width="41" height="45.594" fill="none"/></clipPath><filter id="i" x="405" y="0" width="115" height="115" filterUnits="userSpaceOnUse"><feOffset dy="10" input="SourceAlpha"/><feGaussianBlur stdDeviation="5" result="j"/><feFlood flood-opacity="0.161"/><feComposite operator="in" in2="j"/><feComposite in="SourceGraphic"/></filter><clipPath id="k"><rect width="47.787" height="49.871" fill="none"/></clipPath><clipPath id="l"><rect width="43.588" height="50.538" fill="none"/></clipPath></defs><g transform="translate(-180 -6355)"><rect width="295" height="361" rx="20" transform="translate(180 6418)" fill="#ddf8fb"/><rect width="295" height="361" rx="20" transform="translate(810 6418)" fill="#ddf8fb"/><rect width="295" height="361" rx="20" transform="translate(495 6418)" fill="#ddf8fb"/><rect width="295" height="361" rx="20" transform="translate(1125 6418)" fill="#ddf8fb"/><text transform="translate(208 6459)" fill="#12263f" font-size="16" font-family="Roboto-Bold, Roboto" font-weight="700"><tspan x="0" y="17">Planificar</tspan><tspan font-family="Roboto-Regular, Roboto" font-weight="400"><tspan x="0" y="41">Establecer los objetivos de los </tspan><tspan x="0" y="65">procesos y del sistema e </tspan><tspan x="0" y="89">identificación de riesgos y </tspan><tspan x="0" y="113">oportunidades incluyendo su </tspan><tspan x="0" y="137">forma de gestión, así como la </tspan><tspan x="0" y="161">determinación de los recursos </tspan><tspan x="0" y="185">necesarios que apalanquen el </tspan><tspan x="0" y="209">cumplimiento de las políticas de </tspan><tspan x="0" y="233">la organización y los </tspan><tspan x="0" y="257">requerimientos de los clientes.</tspan></tspan></text><text transform="translate(523 6524)" fill="#12263f" font-size="16" font-family="Roboto-Bold, Roboto" font-weight="700"><tspan x="0" y="17">Hacer</tspan><tspan font-family="Roboto-Regular, Roboto" font-weight="400"><tspan x="0" y="41">Implementar lo planificado o </tspan><tspan x="0" y="65">proyectado</tspan></tspan></text><text transform="translate(838 6488)" fill="#12263f" font-size="16" font-family="Roboto-Bold, Roboto" font-weight="700"><tspan x="0" y="17">Verificar</tspan><tspan font-family="Roboto-Regular, Roboto" font-weight="400"><tspan x="0" y="41">Seguimiento y evaluación del </tspan><tspan x="0" y="65">cumplimiento de las actividades, </tspan><tspan x="0" y="89">políticas, objetivos y requisitos </tspan><tspan x="0" y="113">proyectadas e informe de </tspan><tspan x="0" y="137">resultados.</tspan></tspan></text><text transform="translate(1153 6512)" fill="#12263f" font-size="16" font-family="Roboto-Bold, Roboto" font-weight="700"><tspan x="0" y="17">Actuar</tspan><tspan font-family="Roboto-Regular, Roboto" font-weight="400"><tspan x="0" y="41">Acciones encaminadas a </tspan><tspan x="0" y="65">promover la mejora continua del </tspan><tspan x="0" y="89">desempeño de la organización.</tspan></tspan></text><g transform="matrix(1, 0, 0, 1, 180, 6355)" filter="url(#a)"><circle cx="42.5" cy="42.5" r="42.5" transform="translate(735 5)" fill="#4acfd9"/></g><g transform="matrix(1, 0, 0, 1, 180, 6355)" filter="url(#c)"><circle cx="42.5" cy="42.5" r="42.5" transform="translate(1050 5)" fill="#4acfd9"/></g><g transform="translate(1245.512 6376)"><g clip-path="url(#e)"><path d="M27.009,38.232a11.506,11.506,0,0,1,1.358.122,3.991,3.991,0,0,1,2.146,1.682,5.329,5.329,0,0,0,1.457,1.651H44.829a2.029,2.029,0,0,1,1.318,1.532c0,2.044,0,4.431,0,6.818a1.469,1.469,0,0,1-.43,1.128c-.774.763-1.554,1.521-2.3,2.314-.185.2-.492.12-.62.391H29.093a2.027,2.027,0,0,1-1.234-1.53V48.26a4.548,4.548,0,0,1-1.9.419c-1.079-.037-2.16-.01-3.277-.01v5.173H5.274V45.954a10.067,10.067,0,0,1-2.648-3.728A14.028,14.028,0,0,1,1.958,40.1a9.425,9.425,0,0,1-.164-2.418,9.237,9.237,0,0,1,1.072-4.115,8.811,8.811,0,0,1,2.806-3.514,4.093,4.093,0,0,0,1.32-1.085V25.72a2.94,2.94,0,0,0-1.257-.8,3.328,3.328,0,0,1-1.16-.85A10.294,10.294,0,0,1,1.7,20.854,24.679,24.679,0,0,1,.581,18.489c-.126-.351.121-.822-.322-1.06.127-.508-.2-.95-.211-1.432a10.992,10.992,0,0,1,.016-2.17,12.684,12.684,0,0,1,.925-3.416A12.321,12.321,0,0,1,3.216,7.087,10.643,10.643,0,0,1,6.358,4.676,12.1,12.1,0,0,1,9.517,3.627a52.869,52.869,0,0,1,6.438-.177,4.388,4.388,0,0,1,2.82,1.036A4.837,4.837,0,0,1,20.187,6.06a9.15,9.15,0,0,1,.74,2.2,5.181,5.181,0,0,1-.456,2.532,4.34,4.34,0,0,1-1.291,1.66c0,.457.031.927-.007,1.391a3.558,3.558,0,0,0,.861,2.805,8.948,8.948,0,0,1,.886,1.515v.962a3.492,3.492,0,0,1-1.755,1.746A6.274,6.274,0,0,1,18.078,25.5a5.669,5.669,0,0,1-4.069,2.312v1.718h.964c3.043,0,6.088-.041,9.13.023,1.04.022,2.032-.3,3.062-.24.461-.356,1.029-.112,1.519-.27a12.588,12.588,0,0,1,1.47-.394c.458-.089.894-.287,1.344-.421a11.513,11.513,0,0,0,1.433-.475A14.314,14.314,0,0,0,35.517,26.4a7.38,7.38,0,0,1-.69-3.037,4.489,4.489,0,0,1,2.651-3.979c.244-.128.489-.039.784-.081a3.1,3.1,0,0,0,.052-1.034c.009-1.34.045-2.682-.01-4.021a1.916,1.916,0,0,1,1.323-2.112c3.387,0,6.9.007,10.413-.007a1.718,1.718,0,0,1,1.307.528c.687.7,1.362,1.406,2.084,2.065.25.227.276.566.545.781q0,8.778,0,17.585a1.425,1.425,0,0,1-.957,1.449,1.071,1.071,0,0,0-.248.213q-6.344,0-12.707,0a1.588,1.588,0,0,1-1.611-1.05,23.063,23.063,0,0,1-3.414,1.917A24.144,24.144,0,0,1,30,37.383a14.043,14.043,0,0,1-2,.408c-.349.023-.623.343-1,.224-1.379.792-2.96.366-4.4.61-.1,1.973.216,2.635,1.313,2.641.6-1.387,1.059-3.041,3.091-3.034"/><path d="M33.1,17.031a5.238,5.238,0,0,1-.355,2.525l-1.031,1.031c-.429-.058-.757.281-1.2.275s-.783-.315-1.222-.241l-1.18-1.2c.109-.376-.323-.68-.249-1.136a7.777,7.777,0,0,0,.013-1.215c-.461-.671-1.248-1-1.8-1.6A7.1,7.1,0,0,1,24.582,12.6a5.932,5.932,0,0,1,.312-3.845A5.415,5.415,0,0,1,26.953,6.28a6.043,6.043,0,0,1,8.539,1.581,5.6,5.6,0,0,1,1.057,4.11,6.35,6.35,0,0,1-1.537,3.376c-.563.655-1.364,1.025-1.909,1.684"/><path d="M27.009,38.232c-.245.281-.629.191-.935.367a3.431,3.431,0,0,0-1.722,3.09H22.7c-.27-1.116-.382-2.265-.771-3.457h1.153c.687,0,1.375-.029,2.06.008.64.035,1.214-.391,1.862-.225Z" fill="#f6f8f9"/><path d="M31.341,0V3.4H29.646a14.9,14.9,0,0,1-.025-1.647c-.011-.573,0-1.147,0-1.757Z"/><path d="M25.933,4.52c-.232.658-.991.63-1.3,1.247-.642-.974-1.2-1.816-1.753-2.656.342-.465.913-.616,1.342-1.1L25.933,4.52" fill="#040404"/><path d="M36.758,2.049c.446.467,1.049.587,1.367,1.154L36.449,5.686a5.859,5.859,0,0,1-1.368-1.05l1.677-2.587" fill="#040404"/><path d="M7.962,30.423H9.78c.2,1.368.616,2.68.744,4.048l.268.268h3.29c.505,1.121.553,2.334,1,3.416l5.132.749c.65.834.375,1.861.762,2.808-2.5,0-4.883.076-7.262-.036a5.087,5.087,0,0,1-2.853-1.216,6.9,6.9,0,0,1-2.1-3.475,2.711,2.711,0,0,1-.01-.973,4.845,4.845,0,0,0-.735-2.306c-.117-.256-.382-.3-.7-.247l-.755.845c-.19.626.626,1.142.447,1.876-.164.681.383,1.283.244,1.785a7.992,7.992,0,0,0,5.347,5.3c3.132.429,6.552.05,10.014.22V46.93H21.222c-2.9,0-5.8-.028-8.7.011A8.606,8.606,0,0,1,7.91,45.749a8.115,8.115,0,0,1-2.48-2.173,13.61,13.61,0,0,1-1.587-2.941c-.188-.455.05-.99-.321-1.389A9.275,9.275,0,0,1,5.07,33.16a9.4,9.4,0,0,1,2.56-2.413,1.925,1.925,0,0,0,.332-.324" fill="#b3dc7e"/><path d="M48.757,13.915v3.408h3.426V32.976H40.077v-8.8c.679-.246,1.006-.879,1.481-1.251.63-2.062-.087-2.957-1.483-3.7V13.915Z" fill="#e5e8ec"/><path d="M11.01,12.139c-.144-.167-.307-.358-.516-.6v-.625c.151-.122.345-.281.637-.519h1.057V8.686a3.866,3.866,0,0,0-2.061.257L9.055,9.989A2.734,2.734,0,0,0,9,12.4a13.57,13.57,0,0,0-1.328,1.549c-.34.565-.377,1.22-.744,1.811-.569.2-.885.8-1.372,1.188a4.083,4.083,0,0,0-.039,2.527c.5.369.789,1,1.435,1.208v2.764c-.739-.029-1.142-.6-1.6-.952a6.167,6.167,0,0,1-2.092-2.476c-.165-.411-.661-.642-.605-1.161-.561-.727-.507-1.664-.827-2.48a3.72,3.72,0,0,1-.031-1.611c.044-.477-.176-.964.18-1.449.2-.268-.138-.779.243-1.086A9.163,9.163,0,0,1,5.466,7.287a9.213,9.213,0,0,1,3.58-1.818,6.42,6.42,0,0,1,1.84-.3c1.556.03,3.114.044,4.67,0a3.484,3.484,0,0,1,3.6,4.1,3.322,3.322,0,0,1-3.213,2.847c-1.626.069-3.257.015-4.93.015" fill="#b17846"/><path d="M10.157,24.536a10.7,10.7,0,0,0-1.04,1.317,13.831,13.831,0,0,0,3.061,1.781v1.489a10.712,10.712,0,0,0-3.425-.438V19.14H7.576l-.568-.621v-.634l.6-.546H8.687c.139-2.237.214-2.423,1.492-3.7a9.92,9.92,0,0,0,3.573.225,8.393,8.393,0,0,0,3.688-.321,7.021,7.021,0,0,0,.039,1.935,4.041,4.041,0,0,0,.761,1.543,10.615,10.615,0,0,1,.905,1.325c.118.424-.112.571-.289.75H17.514a14.656,14.656,0,0,0-.109,1.709H14.016a4.7,4.7,0,0,0,1.69,4.484,3.13,3.13,0,0,1-4,.156c-.226-.185-.615-.2-.792-.409-.2-.241-.518-.223-.753-.5" fill="#efcfb3"/><path d="M21.3,36.527a14.575,14.575,0,0,0-4.5-5.253H18.87c1.7,0,3.407-.056,5.1.02a17.068,17.068,0,0,0,3.38-.283,23.124,23.124,0,0,0,5.29-1.362c.313-.13.667-.125.952-.4l1.629,4.36c-.789.364-1.6.778-2.435,1.112a22.153,22.153,0,0,1-3.558,1.11c-.978.209-1.992.282-2.96.483-1.684.35-3.357.009-4.978.211" fill="#b3dc7e"/><path d="M29.657,49.1a7.919,7.919,0,0,0,2.5.853c.231.065.45.155.672.217a5.264,5.264,0,0,0,1.535.249c1.587-.037,3.176-.013,4.8-.013V48.69h-4.29V46.939h7.781V45.227H34.6c-.7-.467-.918-1.221-1.615-1.745H44.359v5.172H40.937v3.473H29.657Z" fill="#e5e8ec"/><path d="M7.021,52.114V47.453c.279-.271.385.045.55.13a16.015,16.015,0,0,0,2.677.883,7.645,7.645,0,0,0,2.3.2c2.753.006,5.5,0,8.335,0a14.63,14.63,0,0,1,.03,1.69c.01.573,0,1.148,0,1.755Z" fill="#b3dc7e"/><path d="M37.64,27.366c-.3-.882-.556-1.68-.85-2.463a3.8,3.8,0,0,1,.066-2.713l1.1-1.091c.5-.048.96-.421,1.633-.189.069.087.223.285.448.573v.586l-.671.5H38.355v8.99A2.808,2.808,0,0,1,36.692,32.6c-.51-1.37-1-2.69-1.492-4.012l2.44-1.225" fill="#eecfb3"/><path d="M19.422,36.874c-1.023.223-1.875-.368-2.809-.141-.736-1.159-.651-2.529-1.219-3.717H12.071c-.144-.721-.282-1.412-.417-2.086,2.516.076,6.427,2.945,7.768,5.944" fill="#9ed267"/><path d="M27.879,44.653V45.73c-.27.146-.215.491-.447.686a1.73,1.73,0,0,1-1.2.517c-.576-.015-1.153,0-1.783,0V43.451c.541,0,1.107.006,1.674,0a1.452,1.452,0,0,1,1.54.964c.035.093.138.159.212.24" fill="#eeceb3"/><path d="M30.052,42.257l1.821,2.5a4.537,4.537,0,0,1-1.027.891c-.358.183-.6.6-.79.811-.391.072-.458-.142-.6-.228a3.053,3.053,0,0,0-.491-2.993c-.017-.376.421-.146.537-.41.092-.21.33-.354.551-.575" fill="#fb806c"/><path d="M26.17,41.77a1.474,1.474,0,0,1,1.2-1.824,1.714,1.714,0,0,1,1.637.886c-.244.544-.968.567-1.172,1.043-.6.246-1.039-.356-1.664-.1" fill="#a5adb8"/><path d="M30.9,47.872c.877-.54,1.371-1.2,2.15-1.608v2.2l-2.15-.589" fill="#a4acb6"/><path d="M16.893,23.878,15.712,22.7a8.648,8.648,0,0,1,1.8-.144c-.3.465-.164.982-.616,1.325" fill="#f67d6a"/><path d="M51.868,15.576h-1.35V14.389c.123.09-.062-.071.083-.068.026,0,.052.041.076.065l1.191,1.19" fill="#abd178"/><path d="M42.694,51.844V50.438h1.178c-.071.11.065-.079.081.065,0,.023-.022.054-.043.075-.37.387-.742.772-1.216,1.266" fill="#abd178"/><path d="M31.787,8.957a2.956,2.956,0,0,0-2.51-.064l-1.153,1.153c.069.432-.276.76-.271,1.2s.318.784.241,1.227a8.187,8.187,0,0,0,1.487,1.3v1.768c-.323.3-.7-.006-.9-.167-.693-.564-1.553-.981-1.933-1.868a4.205,4.205,0,0,1-.472-3.166,6.213,6.213,0,0,1,.609-1.494,4.22,4.22,0,0,1,4.091-1.9,4.385,4.385,0,0,1,2.316.941,6.41,6.41,0,0,1,1.312,1.734c-.116.541.267.991.259,1.536a4.414,4.414,0,0,1-.282,1.525,3.46,3.46,0,0,1-1.646,2.14c-.33.154-.541.52-.908.694a1.067,1.067,0,0,1-.635.061V13.756c.611-.209.912-.833,1.406-1.183a4.888,4.888,0,0,0,.308-1.657c-.031-.282-.389-.453-.228-.778L31.787,8.957" fill="#fde9a6"/><path d="M30.787,19.084H30.15l-.5-.5V17.4h1.689v1.176l-.549.506" fill="#a7afba"/><path d="M30.162,10.4h.658c.165.173.337.354.529.554v.667l-.606.5h-.61l-.515-.6v-.613l.669-.385-.125-.127" fill="#f2ce6b"/><path d="M50.476,26.09v1.7H41.825c-.061-.551-.012-1.112-.033-1.7Z"/><rect width="8.656" height="1.663" transform="translate(41.819 29.573)"/><path d="M43.557,20.8v-1.67h6.915c.057.517.008,1.076.03,1.67Z"/><path d="M43.575,22.594h5.143v1.7c-1.674.049-3.39,0-5.143.027Z"/><path d="M46.981,17.34H45.313v-1.7c.515-.055,1.074-.007,1.668-.028Z"/><path d="M41.835,15.637H43.5v1.7c-.512.056-1.07.007-1.665.028Z"/><path d="M10.707,17.64c.155-.356-.3-.59-.237-.967a6.6,6.6,0,0,0,.01-1.01h1.715v1.142l.7.553h.533l.536-.762v-.924h1.7a2.844,2.844,0,0,1-.95,2.8,2.5,2.5,0,0,1-2.945.248l-1.06-1.081" fill="#010100"/></g></g><g transform="matrix(1, 0, 0, 1, 180, 6355)" filter="url(#f)"><circle cx="42.5" cy="42.5" r="42.5" transform="translate(105 5)" fill="#4acfd9"/></g><g transform="translate(307 6380)"><g clip-path="url(#h)"><path d="M40.289,20.475c.375-.079.478.28.71.443,0,6.28.008,12.564-.007,18.846a5.833,5.833,0,0,1-.981,2.967A6.07,6.07,0,0,1,36.5,45.344a4.848,4.848,0,0,1-1.5.248q-14.05-.024-28.1,0c-.585,0-1.108-.314-1.611-.2a2.734,2.734,0,0,0-.653-.342,2.991,2.991,0,0,1-1.5-.877,6.224,6.224,0,0,1-1.731-2.212,5.3,5.3,0,0,1-.533-2.183c.04-.828.009-1.659.009-2.484l.778-.78H7.206l.246.513c.17.777-.387.9-.918.956-.94.1-1.889.024-2.834.041a2.244,2.244,0,0,0-1.11.156,4.514,4.514,0,0,0,3.959,5.669c1.978.063,3.959.015,5.938.015q8.021,0,16.042,0a2.5,2.5,0,0,0,1.034-.093A12.364,12.364,0,0,1,28.2,41.132a23.07,23.07,0,0,1-.349-2.854,1.89,1.89,0,0,0-1.333-.245q-7.844-.01-15.687,0a6.083,6.083,0,0,1-1.15-.049c-.681-.131-.818-.387-.628-1.124-.009-.181.18-.218.262-.372h2.912V26.064a2.294,2.294,0,0,1-1.044-.974.82.82,0,0,0-.138-.208c-.761-.647-1.3-1.5-2.005-2.194-.816-.8-1.519-1.7-2.295-2.532a13.017,13.017,0,0,1-1.39-1.549c-.6-.9-1.551-1.478-2.091-2.42a1.091,1.091,0,0,0-.248-.253c-.906-.793-1.533-1.848-2.45-2.629-.25-.212-.212-.622-.563-.712v-.927c.158-.193.4-.33.432-.618C1.2,10.691,1.585,9.9,2.255,9.443A4.368,4.368,0,0,1,2.983,9.1c.367-.076.523.334.793.132.972.863,1.728,1.877,2.583,2.8,1.025,1.1,2.024,2.237,3.013,3.374.913,1.05,1.895,2.035,2.748,3.136a.7.7,0,0,0,.093-.081.137.137,0,0,0,.031-.075q0-8.59,0-17.178A2.183,2.183,0,0,1,13.49,0C22.028,0,30.662,0,39.3,0A1.615,1.615,0,0,1,41,1.715q0,4.358,0,8.713c-.248.052-.067.428-.355.433-.707.328-1.047-.05-1.246-.664a3.7,3.7,0,0,1-.1-1.144c0-1.98,0-3.961-.005-5.942A2.209,2.209,0,0,0,39.117,1.9c-.4-.272-.857-.139-1.285-.208-7.424.043-14.848.005-22.273.022a3.06,3.06,0,0,0-1.4.149,1.922,1.922,0,0,0-.2,1.282c-.007,5.133.018,10.267-.023,15.4a3.419,3.419,0,0,0,1.033,2.718c1.455,1.369,1.638,3.315,2.211,5.062.309.942-.636,1.672-1.651,1.457-.463-.1-.843-.442-1.333-.449a42.287,42.287,0,0,0-.071,8.711,2.269,2.269,0,0,0,1.288.171q5.9.01,11.8,0c2.1,0,2.689.614,2.712,2.793a4.548,4.548,0,0,0,3,4.654,7.009,7.009,0,0,0,2.195.211,4.461,4.461,0,0,0,4.178-4.159c.007-1.333,0-2.666.005-4q0-6.575,0-13.149a4.355,4.355,0,0,1,.129-1.409c.137-.406.308-.794.86-.684" transform="translate(0 0)"/><path d="M9.266,40.618v.622l.277.278H28.407a12.963,12.963,0,0,0,.354,3.513,7.037,7.037,0,0,0,1.816,2.8c-.23.16-.472.079-.7.079q-11.615.008-23.231-.005A4.061,4.061,0,0,1,3.416,46.17a5.5,5.5,0,0,1-.661-1.146,3.83,3.83,0,0,1-.414-1.608c.007-.618,0-1.236,0-1.883H7.21c.179-.258.537-.361.459-.738a8.862,8.862,0,0,1,1.053.011c.235.028.353-.158.544-.189" transform="translate(-0.217 -3.762)" fill="#9bc5da"/><path d="M43.875,20.62c-.183-.015-.24.279-.454.188a3.944,3.944,0,0,0-.255,1.942q0,8.543,0,17.087A4.278,4.278,0,0,1,41.924,42.8,5.143,5.143,0,0,1,39.661,44.2a6.92,6.92,0,0,1-.933.1c-.034-.422.292-.633.541-.867a5.884,5.884,0,0,0,1.837-4.552q-.023-17.844,0-35.687A2.3,2.3,0,0,1,41.39,1.57h1.68a.424.424,0,0,1,.063.058.144.144,0,0,1,.031.075q0,4.345,0,8.685c.26.1.074.5.249.509a1.872,1.872,0,0,0,.816.109c.019.24-.2.135-.355.257v1.346c-.794,1.777-.373,3.642-.387,5.474,0,.477.492.623.741.936.02.241-.206.133-.355.261Z" transform="translate(-3.587 -0.145)" fill="#bcdef3"/><path d="M44.681,20.144h-.607c-.271-.118-.24-.447-.458-.62,0-.927-.024-1.866.007-2.8a6.3,6.3,0,0,1,.26-2.773l.443-.213c.373-.081.475.277.71.441q0,2.549,0,5.109c0,.339-.02.663-.357.859" transform="translate(-4.038 -1.271)" fill="#040405"/><path d="M39.2,1.57q0,18.946,0,37.893a5.279,5.279,0,0,1-1.605,3.866c-.338.337-.7.649-1.053.972H35.384a4.114,4.114,0,0,1-2.726-1.132,4.878,4.878,0,0,1-1.525-2.394,1.88,1.88,0,0,1-.1-.491c-.008-.534-.018-1.068,0-1.6a2.05,2.05,0,0,0-.761-1.821c-.069-.054-.126-.125-.218-.216H15.092V26.8c.441.213.843.376,1.212.594a2.141,2.141,0,0,0,1.5.329,1.96,1.96,0,0,0,.488-.612.905.905,0,0,0,0-.865c-.327-.753-.544-1.551-.89-2.3-.122-.262.046-.566-.122-.84a3.365,3.365,0,0,0-.7-1.044c-.608-.467-.915-1.205-1.507-1.682V1.57Z" transform="translate(-1.397 -0.145)" fill="#e2f3fe"/><path d="M15.06,24.468l-.377.341a2.451,2.451,0,0,1-.655-.574c-.2-.181-.454-.344-.549-.572a2.664,2.664,0,0,0-.711-.858c-.841-.813-1.566-1.734-2.359-2.591C9.405,19.131,8.446,18,7.46,16.9c-.543-.605-1.128-1.177-1.632-1.81-.3-.376-.61-.742-.935-1.086l.26-.273a5.375,5.375,0,0,1,1.5,1.417,1,1,0,0,0,.19.273c.887.769,1.521,1.778,2.385,2.567.409.374.639.885,1.052,1.263a3.431,3.431,0,0,1,1.08,1.234c.019.051.078.088.123.127.975.849,1.666,1.966,2.637,2.816.354.309.426.84.943,1.038" transform="translate(-0.453 -1.272)" fill="#bcfa64"/><path d="M3.3,15.377l.392-.351a11.362,11.362,0,0,1,1.342,1.389,5.373,5.373,0,0,0,.658.785c.863.835,1.592,1.791,2.417,2.661.453.478.912.969,1.338,1.479,1.045,1.249,2.132,2.458,3.25,3.641a8.908,8.908,0,0,1,.761.953c-.093.348-.32.14-.454.2a33.118,33.118,0,0,1-2.429-2.655c-.451-.48-.887-.993-1.349-1.469-.384-.395-.644-.883-1.053-1.263a3.267,3.267,0,0,1-1.016-1.174c-.019-.05-.078-.087-.122-.126-.975-.851-1.68-1.954-2.634-2.824-.406-.37-.6-.929-1.1-1.248" transform="translate(-0.305 -1.392)" fill="#98db56"/><path d="M3.23,11.556l.815.818-1.52,1.51h-.2l-.75-.76c.377-.643,1.2-.9,1.659-1.567" transform="translate(-0.146 -1.07)" fill="#f87fa8"/><path d="M16.873,28.59a4.432,4.432,0,0,1-1.2-.659c.149-.36.513-.444.8-.629.123.4.248.8.4,1.288" transform="translate(-1.452 -2.529)" fill="#43657e"/><path d="M18.8,9.629V4.956l.227-.228H37.7l.224.224V9.443l-.414.432q-8.843,0-17.664,0a1.665,1.665,0,0,1-1.043-.25" transform="translate(-1.741 -0.438)" fill="#010000"/><path d="M25.4,35.339l-.539-.373c-.085-.377.173-.554.2-.8a2.39,2.39,0,0,1,.973-.227q5.18.022,10.36,0a1.789,1.789,0,0,1,1,.243c.078.129.05.353.273.426-.2.26-.213.544-.48.73Z" transform="translate(-2.301 -3.143)" fill="#040404"/><path d="M37.4,18.764c-.024.121.182.206.22.37.054.2-.288.24-.177.46a1.742,1.742,0,0,1-1.034.281q-5.179-.018-10.359,0a2.247,2.247,0,0,1-.977-.22c-.049-.24-.295-.418-.213-.79l.548-.421H36.365a1.13,1.13,0,0,1,1.035.319" transform="translate(-2.301 -1.708)" fill="#040404"/><path d="M25.3,27.541c-.2-.227-.554-.367-.446-.825l.536-.409H37.194l.449.554c.078.308-.277.449-.478.68Z" transform="translate(-2.3 -2.437)"/><path d="M18.385,17.629a2.436,2.436,0,0,1,2.154-2.9,2.125,2.125,0,0,1,1.335.393,2.9,2.9,0,0,1,1.114,1.658c.075.548-.269,1.005-.423,1.505a1.437,1.437,0,0,1-.972.856c-1,.4-2.245.468-3.208-1.511" transform="translate(-1.702 -1.362)" fill="#010101"/><path d="M20.74,27.158a2.745,2.745,0,0,1-2.07-1.2,2.734,2.734,0,0,1-.284-1.621,2.316,2.316,0,0,1,4.577.612,2.309,2.309,0,0,1-.75,1.549c-.432.465-1.019.424-1.473.659" transform="translate(-1.702 -2.085)" fill="#010101"/><path d="M21.473,30.414a2.388,2.388,0,0,1,1.385,1.729c.409.51,0,1.011-.137,1.431a1.971,1.971,0,0,1-1.162,1.137A2.353,2.353,0,0,1,18.74,33.8a1.947,1.947,0,0,1-.193-1.919A2.558,2.558,0,0,1,19.7,30.59a1.375,1.375,0,0,0,.2-.176Z" transform="translate(-1.702 -2.817)" fill="#010101"/><path d="M25.048,17.932c-.015-.319-.317-.489-.182-.843l.477-.395h3.689l.417.517v.455a1.236,1.236,0,0,1-.885.437c-.941,0-1.883-.016-2.824.013-.253.008-.4-.223-.692-.184" transform="translate(-2.3 -1.546)" fill="#060707"/><path d="M25.023,32.456a1.567,1.567,0,0,1,1.04-.28c.735.013,1.471.02,2.206,0a1.392,1.392,0,0,1,1.168.439v.582l-.529.389H25.263l-.419-.42c-.131-.294.189-.466.18-.708" transform="translate(-2.298 -2.98)" fill="#060606"/><path d="M28.861,24.528l.57.422c.081.374-.163.551-.218.808H25.258c-.1-.123-.243-.3-.449-.56-.077-.3.276-.439.478-.671h3.574" transform="translate(-2.297 -2.272)" fill="#010101"/><path d="M25.028,23.654c.05-.342-.28-.461-.2-.725s.3-.4.46-.549c.315-.12.476.2.725.191.083.179.162.35.24.518-.011.178-.265.244-.193.452l-.5.25c-.2.038-.245-.289-.54-.136" transform="translate(-2.299 -2.07)" fill="#17181a"/><path d="M25.271,14.718h.553c.149.229.506.325.442.7-.048.25-.3.338-.43.534h-.577l-.335-.438c-.25-.407.181-.542.348-.795" transform="translate(-2.301 -1.363)" fill="#09090a"/><path d="M25.241,30.218h.585l.434.48c0,.307,0,.307-.449.767h-.522c-.138-.2-.487-.293-.449-.691.012-.277.314-.323.4-.555" transform="translate(-2.3 -2.799)" fill="#080909"/><rect width="16.65" height="2.431" transform="translate(18.296 5.55)" fill="#fc6095"/><path d="M19.982,16.7l.414-.4c.351-.007.729-.1,1.044.2.349.3.292.729.282,1.126l-.416.418h-.932l-.392-.393Z" transform="translate(-1.851 -1.508)" fill="#f5af00"/><path d="M20.386,25.89l-.434-.436v-.883a1.971,1.971,0,0,1,.886-.632,1.741,1.741,0,0,1,.887.652c0,.187,0,.394,0,.6,0,.177-.267.243-.192.453a1.568,1.568,0,0,1-1.146.244" transform="translate(-1.848 -2.217)" fill="#f4ae00"/><path d="M21.1,31.791l.622.618v.7a2.052,2.052,0,0,1-.887.639,1.7,1.7,0,0,1-.885-.661v-.859a1.3,1.3,0,0,1,1.149-.435" transform="translate(-1.848 -2.943)" fill="#f4af00"/></g></g><g transform="matrix(1, 0, 0, 1, 180, 6355)" filter="url(#i)"><circle cx="42.5" cy="42.5" r="42.5" transform="translate(420 5)" fill="#4acfd9"/></g><g transform="translate(934 6378)"><g transform="translate(0 0)" clip-path="url(#k)"><path d="M34.971,5.093V4.024a6.151,6.151,0,0,0-1.754-1.159A20.748,20.748,0,0,0,28.51.888,6.7,6.7,0,0,0,26.177.422C25.666.092,25.049.371,24.54.159A5.27,5.27,0,0,0,22.748.042,8.948,8.948,0,0,0,21,.045a26.76,26.76,0,0,0-4.164.7c-.925.267-1.85.541-2.754.862a18.033,18.033,0,0,0-3.058,1.515,20.449,20.449,0,0,0-2.06,1.369c-.443.338-.886.7-1.292,1.057a21.812,21.812,0,0,0-3.1,3.271,24.435,24.435,0,0,0-2.414,4.051A22.767,22.767,0,0,0,.606,17.48c-.2.815-.264,1.649-.418,2.46A15.833,15.833,0,0,0,.07,23.949a16.523,16.523,0,0,0,.673,3.984c.272.859.541,1.72.815,2.579a13.139,13.139,0,0,0,.783,1.72,15.978,15.978,0,0,0,.881,1.68,19.7,19.7,0,0,0,1.232,1.826,20.043,20.043,0,0,0,1.459,1.818,26.21,26.21,0,0,0,2.872,2.678,25.853,25.853,0,0,0,4.041,2.424,22.546,22.546,0,0,0,4.6,1.558c.813.184,1.648.252,2.453.418a34.435,34.435,0,0,0,4,.173c.4.037.7-.231,1.085-.219.33.009.713.168.987-.182a8.107,8.107,0,0,0,1.98-.353c.931-.18,1.768-.607,2.7-.819.159.8.511,1.56.629,2.354a15.536,15.536,0,0,1,.029,2.425,2.773,2.773,0,0,0,1.747,1.843c3.435,0,6.989-.012,10.543.017.369,0,.623-.326.966-.218a3.174,3.174,0,0,0,1.3-2.951c0-.323,0-.648,0-.978a10.114,10.114,0,0,0,1.466-2.109,4.511,4.511,0,0,0,.477-1.845c0-2.366-.014-4.733,0-7.1a2.776,2.776,0,0,0-2.023-2.726c-.863-.241-.858-.261-1.956.167-.444-.221-.491-.8-.9-1.053a14.347,14.347,0,0,0,1-2.942c.113-.565.329-1.1.4-1.687a14.945,14.945,0,0,1,.207-1.762,26.6,26.6,0,0,0,.174-3.815c.04-.4-.253-.694-.218-1.089.03-.33.124-.705-.18-.988a5.853,5.853,0,0,0-.4-2.171,18.168,18.168,0,0,0-.669-2.152,27.4,27.4,0,0,0-1.279-2.774,7.988,7.988,0,0,0-1.225-1.915H39.629c-.732.663-.8,1.073-.188,2.01a18.724,18.724,0,0,1,2.2,4.957,19.684,19.684,0,0,1-.45,12.688c-.157.428-.3.872-.89.962-.741-.25-.673-.782-.452-1.391a18.756,18.756,0,0,0,1.211-7.045,18.282,18.282,0,0,0-4.174-11.277,18.244,18.244,0,0,0-15.4-6.99A17.646,17.646,0,0,0,10.632,7.85,18.4,18.4,0,0,0,3.667,23.39a17.347,17.347,0,0,0,2.473,8.3,1.232,1.232,0,0,0,1.779.638c.768-.579.615-1.278.237-1.991A16.98,16.98,0,0,1,6.27,24.445,15.69,15.69,0,0,1,9.653,12.328,15.862,15.862,0,0,1,22.769,6.142,16.364,16.364,0,0,1,38.4,19.947a16.672,16.672,0,0,1-.755,7.856,1.942,1.942,0,0,1-.6,1.091c-.368-.214-.24-.571-.247-.867-.023-.842.02-1.687-.019-2.529a3.163,3.163,0,0,0-6.325.018c-.057,2.983-.012,5.968-.018,8.951a3.306,3.306,0,0,1-2.176,3.1,16.172,16.172,0,0,1-13.439-.737c-.78-.39-1.574-.916-2.343.032a1.221,1.221,0,0,0,.6,1.79,17.936,17.936,0,0,0,13.091,2.1c1.006-.214,1.986-.534,2.938-.782A1.072,1.072,0,0,1,29.526,41a1.577,1.577,0,0,1-.969.566A18.776,18.776,0,0,1,14.9,41.11,19.584,19.584,0,0,1,2.417,24.825a19.872,19.872,0,0,1,10.9-20.412A19.48,19.48,0,0,1,32.8,5.185c1.125.659,1.484.674,2.176-.092" transform="translate(0 0)"/><path d="M7.6,31.945c-.644.305-1.04.2-1.356-.4A21.435,21.435,0,0,1,4.384,27.26a4.23,4.23,0,0,1-.256-1.243c.016-.374-.3-.613-.237-.994a1.107,1.107,0,0,0-.164-1c-.08-.09-.012-.313-.012-.476,0-.616,0-1.232,0-1.848a16.6,16.6,0,0,1,.991-5.522,18.679,18.679,0,0,1,2.456-4.715,17.9,17.9,0,0,1,2.4-2.794,19.267,19.267,0,0,1,5.442-3.492A10.4,10.4,0,0,1,18.64,4.116c.475-.416,1.085-.063,1.621-.306a4.431,4.431,0,0,1,1.711-.08,8.663,8.663,0,0,1,1.742.012A23.51,23.51,0,0,1,28.817,5a37.381,37.381,0,0,1,4.519,2.445c.817.961,2.066,1.487,2.662,2.67a9.891,9.891,0,0,1,1.848,2.443,21.86,21.86,0,0,1,1.41,2.816c.365.835.5,1.734.864,2.559a11.6,11.6,0,0,1,.241,1.162,16.936,16.936,0,0,1,.208,4.764,15.509,15.509,0,0,1-.38,2.269c-.258.686-.311,1.419-.57,2.1-.183.475-.4.937-.6,1.4.169.352.614.488.639.9.454.209.771-.123,1.108-.2a5.43,5.43,0,0,0,.768-1.884,13.027,13.027,0,0,0,.646-2.663c.08-.786.271-1.578.335-2.373s-.026-1.623.03-2.43a8.519,8.519,0,0,0-.223-1.184c-.022-.4.207-.843-.179-1.185.075-.981-.482-1.828-.587-2.772a4.446,4.446,0,0,0-.41-1,11.354,11.354,0,0,0-1.63-3.3,1.438,1.438,0,0,1-.094-1.983c-.409-.508-.808-1.026-1.235-1.518a.562.562,0,0,1-.123-.428c-.413-.168-.848.359-1.165.026-.577-.469-.03-.957-.194-1.388-.449.037-.669-.368-1-.549a5.44,5.44,0,0,1-.938-.813c-.16-.028-.2.135-.306.2a1.152,1.152,0,0,1-1.441-.111A7.412,7.412,0,0,0,31,3.769a18.682,18.682,0,0,0-4.172-1.406c-.325-.341-.8-.069-1.149-.27-.394-.226-.825-.014-1.209-.129A9.9,9.9,0,0,0,21.153,1.8a17.314,17.314,0,0,0-5.385,1.034,20.223,20.223,0,0,0-2.659,1.078,22.594,22.594,0,0,0-4.04,2.681A19.985,19.985,0,0,0,7.388,8.13a27.238,27.238,0,0,0-2.915,3.937,21.989,21.989,0,0,0-2.057,4.981,7.527,7.527,0,0,0-.456,2.637c.021.593-.27,1.151-.2,1.769.065.576-.017,1.166.02,1.748a19.009,19.009,0,0,0,1.036,5.4,21.267,21.267,0,0,0,1.076,2.666A30.188,30.188,0,0,0,6.56,35.321a18,18,0,0,0,1.6,1.753,27.468,27.468,0,0,0,3.853,2.864A21.287,21.287,0,0,0,16.985,42a7.592,7.592,0,0,0,2.627.46c.595-.023,1.145.286,1.765.207.573-.074,1.165.021,1.743-.022a18.528,18.528,0,0,0,5.468-1.078,2.379,2.379,0,0,1,1.046-.285,3.842,3.842,0,0,0-.379-1.938c-.115,0-.274-.051-.36.008a9.177,9.177,0,0,1-2.907.944,14.861,14.861,0,0,1-5.454.372,17.929,17.929,0,0,1-3.666-.716,30.349,30.349,0,0,1-3.39-1.427c-.217-.1-.422-.231-.632-.349-.592-.332-.7-.713-.4-1.361a3.414,3.414,0,0,0-1.923-1.553c-.482.022-1.016.238-1.37-.424-.129-.267.043-.614,0-.954A3.492,3.492,0,0,0,7.6,31.945" transform="translate(0.199 0.199)" fill="#9ce2d0"/><path d="M33.172,5.811c0,.032.013.077,0,.094-.109.116-.225.225-.36.359V7.1l.456.457h.763c.185-.1.265-.345.5-.385a.99.99,0,0,0-1.359-1.362" transform="translate(3.739 0.645)" fill="#040404"/><path d="M10.11,35.051c.156,0,.3-.02.43.131a8.919,8.919,0,0,0,1.511,1.231c.071-.522.676-.241.861-.566a16.706,16.706,0,0,0,15.968.913A2.167,2.167,0,0,1,30.1,35.349q0-5.2,0-10.4a2.9,2.9,0,0,1,3.558-2.9A2.771,2.771,0,0,1,35.92,24.8c.03,1.322.007,2.646.007,3.951a1.409,1.409,0,0,0,.736.049,9.068,9.068,0,0,0,.8-1.981,22.665,22.665,0,0,0,.644-2.956,17.448,17.448,0,0,0,.129-2.844,14.332,14.332,0,0,0-.515-3.179,14.522,14.522,0,0,0-1.6-4.106,11.572,11.572,0,0,0-1.79-2.561c-.343-.329-.518-.776-.88-1.1a18.865,18.865,0,0,0-5.33-3.544,17.919,17.919,0,0,0-2.935-.891,9.071,9.071,0,0,1-1.556-.211,4.43,4.43,0,0,0-1.587-.144A5.342,5.342,0,0,0,20.4,5.3c-.752.168-1.529.147-2.269.366-.72.214-1.449.4-2.157.648a14.983,14.983,0,0,0-3.8,2.061,13.821,13.821,0,0,0-2.238,1.857,18.511,18.511,0,0,0-3.418,5.192,19.118,19.118,0,0,0-.857,2.852,14.945,14.945,0,0,0-.385,2.366c-.065.838-.014,1.684-.014,2.528,0,.405.323.754.2,1.184-.116.391.124.75.233,1.072.127.373.061.782.3,1.143a5.175,5.175,0,0,1,.3,1.039,31.493,31.493,0,0,0,1.466,3.086c-.311.178-.028.785-.55.856a8.94,8.94,0,0,0,1.228,1.516c.151.127.133.274.131.43.373.322.916-.118,1.268.286.4.353-.036.9.285,1.271" transform="translate(0.597 0.596)" fill="#b7ebbb"/><path d="M28.1,35.4a3.419,3.419,0,0,0,.289,1.821,37.746,37.746,0,0,0,1.247,4.053c-.061.547.349.981.377,1.493.043.775.011,1.555.011,2.335l.293.291c3.31,0,6.637,0,9.964,0a.711.711,0,0,0,.175-.046c.068-.069.137-.137.225-.225V42.662a2.506,2.506,0,0,1,.667-.927c.307-.2.349-.58.606-.827a2.341,2.341,0,0,0,.684-1.751c.008-2.431,0-4.861,0-7.289a.433.433,0,0,1-.209-.405,3.6,3.6,0,0,0-.568-.266c-.192-.053-.338.038-.966.451a1.392,1.392,0,0,1-.411,1.211c-.313.275-.684.286-1.254.07-.188-.1.056-.453-.276-.421V30.7l-.7-.681h-.545a1.411,1.411,0,0,0-.622.818,1.171,1.171,0,0,1-.791,1c-.233.167-.242.007-.313-.021-.222-.088-.544.041-.658-.275a3.437,3.437,0,0,1-.247-.867c-.04-.514-.011-1.032-.011-1.528-.087-.088-.156-.157-.258-.258H33.755c-.212.117-.236.439-.428.681v2.5l-.5.479h-.948c-.293-.119-.258-.485-.5-.673q0-4.209,0-8.443c0-.371.094-.764-.235-1.078a1.049,1.049,0,0,0-1.4-.089c-.356.315-.309.76-.309,1.194,0,3.372,0,6.743.008,10.115a1.879,1.879,0,0,1-.315,1.136c-.268.315-.768.252-1.033.694" transform="translate(3.198 2.512)" fill="#fedbd4"/><path d="M9.792,32.181c.051-.426.315-.818.159-1.3l-.417-.418c-.48-.156-.871.109-1.3.159a.934.934,0,0,1-.207.77c.222.257.261.58.561.812.465.359.805-.051,1.2-.025" transform="translate(0.915 3.466)" fill="#040505"/><path d="M19.378,20.065c-.652-.654-1.186-1.164-1.692-1.7a3.991,3.991,0,0,0-1.743-1.186c-.082-.026-.145-.119-.227-.189-.373,0-.761.006-1.148,0a3.258,3.258,0,0,0-3.038,2.627c-.06.361-.307.788-.14,1.071.2.343.075.719.305,1.052a8.6,8.6,0,0,0,.908,1.271c1.352,1.349,2.7,2.707,4.05,4.054a4.543,4.543,0,0,0,1.7,1.043,3.046,3.046,0,0,0,2.325-.129,3.629,3.629,0,0,0,1.219-.815q3.788-3.835,7.613-7.631c.34-.338.545-.76.861-1.11.3-.325.1-.847.4-1.193a3.8,3.8,0,0,0-.737-2.411,3.4,3.4,0,0,0-3.316-1.3,3.876,3.876,0,0,0-2.119,1.2c-1.594,1.611-3.2,3.209-4.8,4.817a6.341,6.341,0,0,0-.421.544" transform="translate(1.291 1.535)"/><path d="M18.594,26.119h1.019a2.714,2.714,0,0,0,.948-.763c2.31-2.314,4.61-4.637,6.933-6.937a4.882,4.882,0,0,0,1.15-1.662c-.168-.647-.32-1.283-1.284-1.518h-.783c-2.093,2.1-4.219,4.226-6.338,6.359a1.531,1.531,0,0,1-1.415.616C17.6,21.085,16.5,19.783,15.238,18.73c-.343,0-.6-.01-.857,0a1.166,1.166,0,0,0-.987.613c-.145.275-.4.628-.275.936a3.147,3.147,0,0,0,.6,1.115q2.065,2.055,4.113,4.127c.223.226.583.248.765.6" transform="translate(1.491 1.737)" fill="#fefefe"/></g></g><rect width="1240" height="33" transform="translate(180 6790)" fill="#ddf8fb"/><text transform="translate(1273 6812)" fill="#12263f" font-size="14" font-family="Roboto-Regular, Roboto"><tspan x="0" y="0">Nota. SENA (2022). </tspan></text><g transform="translate(621 6377)"><g transform="translate(0 0)" clip-path="url(#l)"><path d="M35.995,20.44c.808,1.123,1.952,1.918,2.879,3,.023,1.934.045,3.93.068,6.035a40.114,40.114,0,0,1,4.64,4.205c0,.24.005.479.007.6l-3.168,3.24-.709.008-.337-.6c-.314.139-.331.26-.329.4.048,4,.093,8,.14,12.113l-.82.708-7.661.087-.637-.987c-.023-2.05-.05-4.467-.078-6.948L9.4,42.546c.028,2.41.055,4.826.082,7.194l-.693.709L.97,50.538.3,49.879q-.147-13-.3-26l4.18-4.247,2.6-.03c-.049-4.327-.1-8.605-.148-12.972l.9-.746,5.007-.057c.315-.9,1.143-1.342,1.67-2.021.573.141.942-.433,1.471-.33a4.777,4.777,0,0,1,.871-2.079A4.536,4.536,0,0,1,18.435.081,4.361,4.361,0,0,1,20.7.336l1.645,1.547c-.161.569.521.906.234,1.492a4.411,4.411,0,0,1,3.438,2.268l5.069-.058c.2.26.431.553.746.959.046,4.092.095,8.377.144,12.73l2.5-.029c.465.188.568.587.931.629q.7-.135.579.565" transform="translate(0 0)"/><path d="M17.376,30.958l1.306-.014.687-.815c-.008-.684-.017-1.511-.027-2.34a23.689,23.689,0,0,1,2.4-3.992c.218-.334.427-.776.981-.622A32.1,32.1,0,0,0,25.688,26.2c.107.113.324.12.491.177.023,2.02.046,4.014.068,5.953l4.6,4.5c.021,1.8.041,3.546.06,5.353l-20.472.233c-.173-.234-.051-.526-.092-.8a10.562,10.562,0,0,1,1.287-2.286c.246-.308.425-.758.968-.6,0,.237.005.473.009.718.235.224.476.452.733.7l5.454-.062.649-.835q-.028-2.431-.061-5.373l-.771-.39.166-.259-2.808.032a2.948,2.948,0,0,1,1.4-2.3" transform="translate(-1.022 -2.286)" fill="#ef5a29"/><path d="M22.688,21.761c-.64.262-.76.944-1.111,1.429-.695.958-1.29,1.988-1.936,2.982-.068.105-.155.246-.333.2q-.016-1.5-.034-3l-.729-.7-5.444.062-.716.833c0,.374.01.886.015,1.374-.73.287-1.529-.213-2.21.442-.062-5.466-.123-10.834-.186-16.313.5-.016,1.053-.039,1.606-.051S12.74,9,13.352,9c.006.561.013,1.073.018,1.521l.758.758,12.306-.14.737-.791c0-.43-.011-.941-.017-1.477l3.289-.038c.2.265.075.558.116.829-.814,1.492-1.341,3.195-3,4.066-1.323.176-2.657.06-3.983.137-.6.035-1.274-.034-1.538.916,1.2,1.152,2.827.165,4.123.735.614,1.337-.449,1.852-1.231,2.5l-1.592.018-.687.817c.01.873.022,1.891.033,2.908" transform="translate(-0.988 -0.872)" fill="#f88700"/><path d="M2.6,27.07l2.646-2.727,1.785-.021c.023,2.029.047,4.057.07,6.119l.922.707.774-.009.628-.865c0-.049,0-.326-.008-.7l.836-.474-.17-.2,1.587-.018c.015,1.358.032,2.724.048,4.145L7.928,36.866l-5.219.059c-.038-3.3-.075-6.568-.113-9.856" transform="translate(-0.256 -2.402)" fill="#f9c7b1"/><path d="M35.852,51.764c-.048-4.176-.095-8.3-.142-12.483l4.414-.05c.214,1.141.354,8.216.236,12.482l-4.508.051" transform="translate(-3.527 -3.874)" fill="#00587e"/><path d="M7.254,40.873c.043,3.8.086,7.545.129,11.341l-4.416.05a110.142,110.142,0,0,1-.218-11.34l4.505-.051" transform="translate(-0.267 -4.037)" fill="#00587e"/><path d="M29.376,13.5c.638-.269.749-.955,1.114-1.437.5-.666.91-1.407,1.37-2.108.069-.105.155-.248.333-.2q.068,5.9.132,11.8a1.429,1.429,0,0,1-.1.266c-1.238-1.437-2.859-2.355-4.07-3.722l-1.583.018a19.809,19.809,0,0,0,1.4-2.3c.361-.458,1.093-.287,1.419-.862.324-.459-.25-.951-.014-1.442" transform="translate(-2.624 -0.962)" fill="#ef5a29"/><path d="M18.994,6.036l.7-.717C19.688,4.661,19.68,4,19.671,3.3l.756-.7.847-.01.671.777c.006.536.014,1.2.023,1.93l.908.686,1.829-.021.695.679c.005.472.011.981.017,1.55l-9.074.1c-.006-.508-.012-1.018-.018-1.545l.662-.693,2.005-.023" transform="translate(-1.612 -0.256)" fill="#feeb00"/><path d="M30.449,25.349l1.617-.018.652.833c.016,1.4.034,3.011.053,4.693A41.606,41.606,0,0,0,37.988,35.5c-.819.024-1.366.045-1.913.056-.523.012-1.045.014-1.487.018L30.52,31.6c-.023-1.948-.046-4.038-.071-6.252" transform="translate(-3.007 -2.502)" fill="#f8c7b1"/><path d="M40,26.753c.01.845.019,1.692.029,2.547-1.3-.58-2.28-1.514-5.507-5.222l2.71-.031L40,26.753" transform="translate(-3.409 -2.375)" fill="#f7c6b0"/><path d="M44.249,36.858c-.015.469-.37.5-.433.735-.183-.049-.292-.046-.35-.1-1.878-1.711-3.785-3.389-5.623-5.147-.693-.662-1.486-1.252-2.225-1.947,0-.388-.009-.8-.014-1.2.073-.146.117-.129.212-.029,2.305,2.437,5.029,4.429,7.312,6.887.338.363.974.345,1.12.8" transform="translate(-3.516 -2.873)" fill="#00a3e0"/><path d="M12.6,40.168c-.833.589-1.116,1.573-1.682,2.353-.162.224-.268.477-.573.533-.013-1.09-.025-2.179-.035-3.078l2.261-2.314c.01.824.019,1.665.029,2.506" transform="translate(-1.018 -3.72)" fill="#f68600"/><path d="M15.285,29.011c-.008-.744-.016-1.442-.025-2.189l2.233-.026c.081.672.024,1.408.062,2.189l-2.27.026" transform="translate(-1.507 -2.646)" fill="#fefefe"/><path d="M17.618,39.159l-2.189.025c-.008-.716-.016-1.414-.026-2.233.672-.082,1.408-.025,2.189-.062.009.745.017,1.445.026,2.27" transform="translate(-1.521 -3.643)" fill="#fefefe"/><path d="M17.864,31.814a19.778,19.778,0,0,1-1.4,2.3l-1.108.013c-.087-.724-.032-1.46-.07-2.287l2.582-.03" transform="translate(-1.509 -3.142)" fill="#f88700"/><path d="M28.332,22.713a.815.815,0,0,1-.488.533l-1.209-1.269c0,.091-.106-.141.072-.394l.423-.031,1.2,1.161" transform="translate(-2.627 -2.128)" fill="#009ad5"/><path d="M23.731,41.649l-.71-.715c0-.258-.006-.54-.01-.873l.751-.685,5.433-.061.64.863c0,.036,0,.312.009.748l-1.056.665-5.056.058" transform="translate(-2.273 -3.883)" fill="#010000"/><path d="M25.588,27.918l.709.72c0,.249.006.529.01.872l-.835.677-1.92.023c-.12-.185-.3-.461-.481-.737l-.151.118c0-.274-.006-.547-.012-.967l.892-.685,1.787-.021" transform="translate(-2.262 -2.757)" fill="#040200"/><path d="M12.61,14.763l.674-.664,5.45-.062.673.789c.019,1.709.04,3.548.06,5.366l-.652.667-5.5.063-.643-.628c-.021-1.793-.041-3.632-.063-5.53" transform="translate(-1.245 -1.386)"/><path d="M29,13.911c.058.355.437.46.58.748,0,.236.005.472.01.832l-.947.712-1.047.013-4.166.047-.682-.785c0-.157-.005-.434-.01-.821.2-.128.479-.308.757-.488-.044-.064-.089-.128-.133-.193L29,13.911" transform="translate(-2.245 -1.374)" fill="#010000"/><path d="M17.39,18.85l-2.194.025c-.008-.72-.016-1.419-.025-2.233.676-.08,1.412-.025,2.193-.062.009.752.017,1.451.026,2.27" transform="translate(-1.498 -1.637)" fill="#fefefe"/></g></g><g transform="translate(0 -4)"><path d="M18.105,31.3l-1.561,1.561a1.681,1.681,0,0,1-2.384,0L.492,19.2a1.681,1.681,0,0,1,0-2.384L14.161,3.143a1.681,1.681,0,0,1,2.384,0L18.105,4.7a1.689,1.689,0,0,1-.028,2.412L9.6,15.188H29.813A1.683,1.683,0,0,1,31.5,16.875v2.25a1.683,1.683,0,0,1-1.687,1.688H9.6l8.473,8.072A1.677,1.677,0,0,1,18.105,31.3Z" transform="translate(311.752 6738.353)" fill="#161730"/><path d="M13.395,4.7l1.561-1.561a1.681,1.681,0,0,1,2.384,0L31.008,16.8a1.681,1.681,0,0,1,0,2.384L17.339,32.857a1.681,1.681,0,0,1-2.384,0L13.395,31.3a1.689,1.689,0,0,1,.028-2.412L21.9,20.813H1.688A1.683,1.683,0,0,1,0,19.125v-2.25a1.683,1.683,0,0,1,1.688-1.687H21.9L13.423,7.116A1.677,1.677,0,0,1,13.395,4.7Z" transform="translate(1256.748 6738.353)" fill="#161730"/><path d="M-8032.748-4943.647H-7120" transform="translate(8376 11700)" fill="none" stroke="#161730" stroke-width="3" stroke-dasharray="3"/></g></g></svg>