<svg xmlns="http://www.w3.org/2000/svg" xmlns:xlink="http://www.w3.org/1999/xlink" width="115" height="115" viewBox="0 0 115 115">
  <defs>
    <filter id="Elipse_4719" x="0" y="0" width="115" height="115" filterUnits="userSpaceOnUse">
      <feOffset dy="10" input="SourceAlpha"/>
      <feGaussianBlur stdDeviation="5" result="blur"/>
      <feFlood flood-opacity="0.161"/>
      <feComposite operator="in" in2="blur"/>
      <feComposite in="SourceGraphic"/>
    </filter>
    <clipPath id="clip-path">
      <rect id="Rect치ngulo_36984" data-name="Rect치ngulo 36984" width="53.977" height="53.871" transform="translate(0 0)" fill="none"/>
    </clipPath>
  </defs>
  <g id="Grupo_849912" data-name="Grupo 849912" transform="translate(-1215 -6355)">
    <g transform="matrix(1, 0, 0, 1, 1215, 6355)" filter="url(#Elipse_4719)">
      <circle id="Elipse_4719-2" data-name="Elipse 4719" cx="42.5" cy="42.5" r="42.5" transform="translate(15 5)" fill="#4acfd9"/>
    </g>
    <g id="Grupo_80645" data-name="Grupo 80645" transform="translate(1245.512 6376)">
      <g id="Grupo_80644" data-name="Grupo 80644" clip-path="url(#clip-path)">
        <path id="Trazado_114055" data-name="Trazado 114055" d="M27.009,38.232a11.506,11.506,0,0,1,1.358.122,3.991,3.991,0,0,1,2.146,1.682,5.329,5.329,0,0,0,1.457,1.651H44.829a2.029,2.029,0,0,1,1.318,1.532c0,2.044,0,4.431,0,6.818a1.469,1.469,0,0,1-.43,1.128c-.774.763-1.554,1.521-2.3,2.314-.185.2-.492.12-.62.391H29.093a2.027,2.027,0,0,1-1.234-1.53V48.26a4.548,4.548,0,0,1-1.9.419c-1.079-.037-2.16-.01-3.277-.01v5.173H5.274V45.954a10.067,10.067,0,0,1-2.648-3.728A14.028,14.028,0,0,1,1.958,40.1a9.425,9.425,0,0,1-.164-2.418,9.237,9.237,0,0,1,1.072-4.115,8.811,8.811,0,0,1,2.806-3.514,4.093,4.093,0,0,0,1.32-1.085V25.72a2.94,2.94,0,0,0-1.257-.8,3.328,3.328,0,0,1-1.16-.85A10.294,10.294,0,0,1,1.7,20.854,24.679,24.679,0,0,1,.581,18.489c-.126-.351.121-.822-.322-1.06.127-.508-.2-.95-.211-1.432a10.992,10.992,0,0,1,.016-2.17,12.684,12.684,0,0,1,.925-3.416A12.321,12.321,0,0,1,3.216,7.087,10.643,10.643,0,0,1,6.358,4.676,12.1,12.1,0,0,1,9.517,3.627a52.869,52.869,0,0,1,6.438-.177,4.388,4.388,0,0,1,2.82,1.036A4.837,4.837,0,0,1,20.187,6.06a9.15,9.15,0,0,1,.74,2.2,5.181,5.181,0,0,1-.456,2.532,4.34,4.34,0,0,1-1.291,1.66c0,.457.031.927-.007,1.391a3.558,3.558,0,0,0,.861,2.805,8.948,8.948,0,0,1,.886,1.515v.962a3.492,3.492,0,0,1-1.755,1.746A6.274,6.274,0,0,1,18.078,25.5a5.669,5.669,0,0,1-4.069,2.312v1.718h.964c3.043,0,6.088-.041,9.13.023,1.04.022,2.032-.3,3.062-.24.461-.356,1.029-.112,1.519-.27a12.588,12.588,0,0,1,1.47-.394c.458-.089.894-.287,1.344-.421a11.513,11.513,0,0,0,1.433-.475A14.314,14.314,0,0,0,35.517,26.4a7.38,7.38,0,0,1-.69-3.037,4.489,4.489,0,0,1,2.651-3.979c.244-.128.489-.039.784-.081a3.1,3.1,0,0,0,.052-1.034c.009-1.34.045-2.682-.01-4.021a1.916,1.916,0,0,1,1.323-2.112c3.387,0,6.9.007,10.413-.007a1.718,1.718,0,0,1,1.307.528c.687.7,1.362,1.406,2.084,2.065.25.227.276.566.545.781q0,8.778,0,17.585a1.425,1.425,0,0,1-.957,1.449,1.071,1.071,0,0,0-.248.213q-6.344,0-12.707,0a1.588,1.588,0,0,1-1.611-1.05,23.063,23.063,0,0,1-3.414,1.917A24.144,24.144,0,0,1,30,37.383a14.043,14.043,0,0,1-2,.408c-.349.023-.623.343-1,.224-1.379.792-2.96.366-4.4.61-.1,1.973.216,2.635,1.313,2.641.6-1.387,1.059-3.041,3.091-3.034"/>
        <path id="Trazado_114056" data-name="Trazado 114056" d="M33.1,17.031a5.238,5.238,0,0,1-.355,2.525l-1.031,1.031c-.429-.058-.757.281-1.2.275s-.783-.315-1.222-.241l-1.18-1.2c.109-.376-.323-.68-.249-1.136a7.777,7.777,0,0,0,.013-1.215c-.461-.671-1.248-1-1.8-1.6A7.1,7.1,0,0,1,24.582,12.6a5.932,5.932,0,0,1,.312-3.845A5.415,5.415,0,0,1,26.953,6.28a6.043,6.043,0,0,1,8.539,1.581,5.6,5.6,0,0,1,1.057,4.11,6.35,6.35,0,0,1-1.537,3.376c-.563.655-1.364,1.025-1.909,1.684"/>
        <path id="Trazado_114057" data-name="Trazado 114057" d="M27.009,38.232c-.245.281-.629.191-.935.367a3.431,3.431,0,0,0-1.722,3.09H22.7c-.27-1.116-.382-2.265-.771-3.457h1.153c.687,0,1.375-.029,2.06.008.64.035,1.214-.391,1.862-.225Z" fill="#f6f8f9"/>
        <path id="Trazado_114058" data-name="Trazado 114058" d="M31.341,0V3.4H29.646a14.9,14.9,0,0,1-.025-1.647c-.011-.573,0-1.147,0-1.757Z"/>
        <path id="Trazado_114059" data-name="Trazado 114059" d="M25.933,4.52c-.232.658-.991.63-1.3,1.247-.642-.974-1.2-1.816-1.753-2.656.342-.465.913-.616,1.342-1.1L25.933,4.52" fill="#040404"/>
        <path id="Trazado_114060" data-name="Trazado 114060" d="M36.758,2.049c.446.467,1.049.587,1.367,1.154L36.449,5.686a5.859,5.859,0,0,1-1.368-1.05l1.677-2.587" fill="#040404"/>
        <path id="Trazado_114061" data-name="Trazado 114061" d="M7.962,30.423H9.78c.2,1.368.616,2.68.744,4.048l.268.268h3.29c.505,1.121.553,2.334,1,3.416l5.132.749c.65.834.375,1.861.762,2.808-2.5,0-4.883.076-7.262-.036a5.087,5.087,0,0,1-2.853-1.216,6.9,6.9,0,0,1-2.1-3.475,2.711,2.711,0,0,1-.01-.973,4.845,4.845,0,0,0-.735-2.306c-.117-.256-.382-.3-.7-.247l-.755.845c-.19.626.626,1.142.447,1.876-.164.681.383,1.283.244,1.785a7.992,7.992,0,0,0,5.347,5.3c3.132.429,6.552.05,10.014.22V46.93H21.222c-2.9,0-5.8-.028-8.7.011A8.606,8.606,0,0,1,7.91,45.749a8.115,8.115,0,0,1-2.48-2.173,13.61,13.61,0,0,1-1.587-2.941c-.188-.455.05-.99-.321-1.389A9.275,9.275,0,0,1,5.07,33.16a9.4,9.4,0,0,1,2.56-2.413,1.925,1.925,0,0,0,.332-.324" fill="#b3dc7e"/>
        <path id="Trazado_114062" data-name="Trazado 114062" d="M48.757,13.915v3.408h3.426V32.976H40.077v-8.8c.679-.246,1.006-.879,1.481-1.251.63-2.062-.087-2.957-1.483-3.7V13.915Z" fill="#e5e8ec"/>
        <path id="Trazado_114063" data-name="Trazado 114063" d="M11.01,12.139c-.144-.167-.307-.358-.516-.6v-.625c.151-.122.345-.281.637-.519h1.057V8.686a3.866,3.866,0,0,0-2.061.257L9.055,9.989A2.734,2.734,0,0,0,9,12.4a13.57,13.57,0,0,0-1.328,1.549c-.34.565-.377,1.22-.744,1.811-.569.2-.885.8-1.372,1.188a4.083,4.083,0,0,0-.039,2.527c.5.369.789,1,1.435,1.208v2.764c-.739-.029-1.142-.6-1.6-.952a6.167,6.167,0,0,1-2.092-2.476c-.165-.411-.661-.642-.605-1.161-.561-.727-.507-1.664-.827-2.48a3.72,3.72,0,0,1-.031-1.611c.044-.477-.176-.964.18-1.449.2-.268-.138-.779.243-1.086A9.163,9.163,0,0,1,5.466,7.287a9.213,9.213,0,0,1,3.58-1.818,6.42,6.42,0,0,1,1.84-.3c1.556.03,3.114.044,4.67,0a3.484,3.484,0,0,1,3.6,4.1,3.322,3.322,0,0,1-3.213,2.847c-1.626.069-3.257.015-4.93.015" fill="#b17846"/>
        <path id="Trazado_114064" data-name="Trazado 114064" d="M10.157,24.536a10.7,10.7,0,0,0-1.04,1.317,13.831,13.831,0,0,0,3.061,1.781v1.489a10.712,10.712,0,0,0-3.425-.438V19.14H7.576l-.568-.621v-.634l.6-.546H8.687c.139-2.237.214-2.423,1.492-3.7a9.92,9.92,0,0,0,3.573.225,8.393,8.393,0,0,0,3.688-.321,7.021,7.021,0,0,0,.039,1.935,4.041,4.041,0,0,0,.761,1.543,10.615,10.615,0,0,1,.905,1.325c.118.424-.112.571-.289.75H17.514a14.656,14.656,0,0,0-.109,1.709H14.016a4.7,4.7,0,0,0,1.69,4.484,3.13,3.13,0,0,1-4,.156c-.226-.185-.615-.2-.792-.409-.2-.241-.518-.223-.753-.5" fill="#efcfb3"/>
        <path id="Trazado_114065" data-name="Trazado 114065" d="M21.3,36.527a14.575,14.575,0,0,0-4.5-5.253H18.87c1.7,0,3.407-.056,5.1.02a17.068,17.068,0,0,0,3.38-.283,23.124,23.124,0,0,0,5.29-1.362c.313-.13.667-.125.952-.4l1.629,4.36c-.789.364-1.6.778-2.435,1.112a22.153,22.153,0,0,1-3.558,1.11c-.978.209-1.992.282-2.96.483-1.684.35-3.357.009-4.978.211" fill="#b3dc7e"/>
        <path id="Trazado_114066" data-name="Trazado 114066" d="M29.657,49.1a7.919,7.919,0,0,0,2.5.853c.231.065.45.155.672.217a5.264,5.264,0,0,0,1.535.249c1.587-.037,3.176-.013,4.8-.013V48.69h-4.29V46.939h7.781V45.227H34.6c-.7-.467-.918-1.221-1.615-1.745H44.359v5.172H40.937v3.473H29.657Z" fill="#e5e8ec"/>
        <path id="Trazado_114067" data-name="Trazado 114067" d="M7.021,52.114V47.453c.279-.271.385.045.55.13a16.015,16.015,0,0,0,2.677.883,7.645,7.645,0,0,0,2.3.2c2.753.006,5.5,0,8.335,0a14.63,14.63,0,0,1,.03,1.69c.01.573,0,1.148,0,1.755Z" fill="#b3dc7e"/>
        <path id="Trazado_114068" data-name="Trazado 114068" d="M37.64,27.366c-.3-.882-.556-1.68-.85-2.463a3.8,3.8,0,0,1,.066-2.713l1.1-1.091c.5-.048.96-.421,1.633-.189.069.087.223.285.448.573v.586l-.671.5H38.355v8.99A2.808,2.808,0,0,1,36.692,32.6c-.51-1.37-1-2.69-1.492-4.012l2.44-1.225" fill="#eecfb3"/>
        <path id="Trazado_114069" data-name="Trazado 114069" d="M19.422,36.874c-1.023.223-1.875-.368-2.809-.141-.736-1.159-.651-2.529-1.219-3.717H12.071c-.144-.721-.282-1.412-.417-2.086,2.516.076,6.427,2.945,7.768,5.944" fill="#9ed267"/>
        <path id="Trazado_114070" data-name="Trazado 114070" d="M27.879,44.653V45.73c-.27.146-.215.491-.447.686a1.73,1.73,0,0,1-1.2.517c-.576-.015-1.153,0-1.783,0V43.451c.541,0,1.107.006,1.674,0a1.452,1.452,0,0,1,1.54.964c.035.093.138.159.212.24" fill="#eeceb3"/>
        <path id="Trazado_114071" data-name="Trazado 114071" d="M30.052,42.257l1.821,2.5a4.537,4.537,0,0,1-1.027.891c-.358.183-.6.6-.79.811-.391.072-.458-.142-.6-.228a3.053,3.053,0,0,0-.491-2.993c-.017-.376.421-.146.537-.41.092-.21.33-.354.551-.575" fill="#fb806c"/>
        <path id="Trazado_114072" data-name="Trazado 114072" d="M26.17,41.77a1.474,1.474,0,0,1,1.2-1.824,1.714,1.714,0,0,1,1.637.886c-.244.544-.968.567-1.172,1.043-.6.246-1.039-.356-1.664-.1" fill="#a5adb8"/>
        <path id="Trazado_114073" data-name="Trazado 114073" d="M30.9,47.872c.877-.54,1.371-1.2,2.15-1.608v2.2l-2.15-.589" fill="#a4acb6"/>
        <path id="Trazado_114074" data-name="Trazado 114074" d="M16.893,23.878,15.712,22.7a8.648,8.648,0,0,1,1.8-.144c-.3.465-.164.982-.616,1.325" fill="#f67d6a"/>
        <path id="Trazado_114075" data-name="Trazado 114075" d="M51.868,15.576h-1.35V14.389c.123.09-.062-.071.083-.068.026,0,.052.041.076.065l1.191,1.19" fill="#abd178"/>
        <path id="Trazado_114076" data-name="Trazado 114076" d="M42.694,51.844V50.438h1.178c-.071.11.065-.079.081.065,0,.023-.022.054-.043.075-.37.387-.742.772-1.216,1.266" fill="#abd178"/>
        <path id="Trazado_114077" data-name="Trazado 114077" d="M31.787,8.957a2.956,2.956,0,0,0-2.51-.064l-1.153,1.153c.069.432-.276.76-.271,1.2s.318.784.241,1.227a8.187,8.187,0,0,0,1.487,1.3v1.768c-.323.3-.7-.006-.9-.167-.693-.564-1.553-.981-1.933-1.868a4.205,4.205,0,0,1-.472-3.166,6.213,6.213,0,0,1,.609-1.494,4.22,4.22,0,0,1,4.091-1.9,4.385,4.385,0,0,1,2.316.941,6.41,6.41,0,0,1,1.312,1.734c-.116.541.267.991.259,1.536a4.414,4.414,0,0,1-.282,1.525,3.46,3.46,0,0,1-1.646,2.14c-.33.154-.541.52-.908.694a1.067,1.067,0,0,1-.635.061V13.756c.611-.209.912-.833,1.406-1.183a4.888,4.888,0,0,0,.308-1.657c-.031-.282-.389-.453-.228-.778L31.787,8.957" fill="#fde9a6"/>
        <path id="Trazado_114078" data-name="Trazado 114078" d="M30.787,19.084H30.15l-.5-.5V17.4h1.689v1.176l-.549.506" fill="#a7afba"/>
        <path id="Trazado_114079" data-name="Trazado 114079" d="M30.162,10.4h.658c.165.173.337.354.529.554v.667l-.606.5h-.61l-.515-.6v-.613l.669-.385-.125-.127" fill="#f2ce6b"/>
        <path id="Trazado_114080" data-name="Trazado 114080" d="M50.476,26.09v1.7H41.825c-.061-.551-.012-1.112-.033-1.7Z"/>
        <rect id="Rect치ngulo_36983" data-name="Rect치ngulo 36983" width="8.656" height="1.663" transform="translate(41.819 29.573)"/>
        <path id="Trazado_114081" data-name="Trazado 114081" d="M43.557,20.8v-1.67h6.915c.057.517.008,1.076.03,1.67Z"/>
        <path id="Trazado_114082" data-name="Trazado 114082" d="M43.575,22.594h5.143v1.7c-1.674.049-3.39,0-5.143.027Z"/>
        <path id="Trazado_114083" data-name="Trazado 114083" d="M46.981,17.34H45.313v-1.7c.515-.055,1.074-.007,1.668-.028Z"/>
        <path id="Trazado_114084" data-name="Trazado 114084" d="M41.835,15.637H43.5v1.7c-.512.056-1.07.007-1.665.028Z"/>
        <path id="Trazado_114085" data-name="Trazado 114085" d="M10.707,17.64c.155-.356-.3-.59-.237-.967a6.6,6.6,0,0,0,.01-1.01h1.715v1.142l.7.553h.533l.536-.762v-.924h1.7a2.844,2.844,0,0,1-.95,2.8,2.5,2.5,0,0,1-2.945.248l-1.06-1.081" fill="#010100"/>
      </g>
    </g>
  </g>
</svg>
