<svg xmlns="http://www.w3.org/2000/svg" xmlns:xlink="http://www.w3.org/1999/xlink" width="115" height="115" viewBox="0 0 115 115">
  <defs>
    <filter id="Elipse_4718" x="0" y="0" width="115" height="115" filterUnits="userSpaceOnUse">
      <feOffset dy="10" input="SourceAlpha"/>
      <feGaussianBlur stdDeviation="5" result="blur"/>
      <feFlood flood-opacity="0.161"/>
      <feComposite operator="in" in2="blur"/>
      <feComposite in="SourceGraphic"/>
    </filter>
    <clipPath id="clip-path">
      <rect id="Rectángulo_36987" data-name="Rectángulo 36987" width="43.588" height="50.538" fill="none"/>
    </clipPath>
  </defs>
  <g id="Grupo_849910" data-name="Grupo 849910" transform="translate(-585 -6355)">
    <g transform="matrix(1, 0, 0, 1, 585, 6355)" filter="url(#Elipse_4718)">
      <circle id="Elipse_4718-2" data-name="Elipse 4718" cx="42.5" cy="42.5" r="42.5" transform="translate(15 5)" fill="#4acfd9"/>
    </g>
    <g id="Grupo_80649" data-name="Grupo 80649" transform="translate(621 6377)">
      <g id="Grupo_80648" data-name="Grupo 80648" transform="translate(0 0)" clip-path="url(#clip-path)">
        <path id="Trazado_114111" data-name="Trazado 114111" d="M35.995,20.44c.808,1.123,1.952,1.918,2.879,3,.023,1.934.045,3.93.068,6.035a40.114,40.114,0,0,1,4.64,4.205c0,.24.005.479.007.6l-3.168,3.24-.709.008-.337-.6c-.314.139-.331.26-.329.4.048,4,.093,8,.14,12.113l-.82.708-7.661.087-.637-.987c-.023-2.05-.05-4.467-.078-6.948L9.4,42.546c.028,2.41.055,4.826.082,7.194l-.693.709L.97,50.538.3,49.879q-.147-13-.3-26l4.18-4.247,2.6-.03c-.049-4.327-.1-8.605-.148-12.972l.9-.746,5.007-.057c.315-.9,1.143-1.342,1.67-2.021.573.141.942-.433,1.471-.33a4.777,4.777,0,0,1,.871-2.079A4.536,4.536,0,0,1,18.435.081,4.361,4.361,0,0,1,20.7.336l1.645,1.547c-.161.569.521.906.234,1.492a4.411,4.411,0,0,1,3.438,2.268l5.069-.058c.2.26.431.553.746.959.046,4.092.095,8.377.144,12.73l2.5-.029c.465.188.568.587.931.629q.7-.135.579.565" transform="translate(0 0)"/>
        <path id="Trazado_114112" data-name="Trazado 114112" d="M17.376,30.958l1.306-.014.687-.815c-.008-.684-.017-1.511-.027-2.34a23.689,23.689,0,0,1,2.4-3.992c.218-.334.427-.776.981-.622A32.1,32.1,0,0,0,25.688,26.2c.107.113.324.12.491.177.023,2.02.046,4.014.068,5.953l4.6,4.5c.021,1.8.041,3.546.06,5.353l-20.472.233c-.173-.234-.051-.526-.092-.8a10.562,10.562,0,0,1,1.287-2.286c.246-.308.425-.758.968-.6,0,.237.005.473.009.718.235.224.476.452.733.7l5.454-.062.649-.835q-.028-2.431-.061-5.373l-.771-.39.166-.259-2.808.032a2.948,2.948,0,0,1,1.4-2.3" transform="translate(-1.022 -2.286)" fill="#ef5a29"/>
        <path id="Trazado_114113" data-name="Trazado 114113" d="M22.688,21.761c-.64.262-.76.944-1.111,1.429-.695.958-1.29,1.988-1.936,2.982-.068.105-.155.246-.333.2q-.016-1.5-.034-3l-.729-.7-5.444.062-.716.833c0,.374.01.886.015,1.374-.73.287-1.529-.213-2.21.442-.062-5.466-.123-10.834-.186-16.313.5-.016,1.053-.039,1.606-.051S12.74,9,13.352,9c.006.561.013,1.073.018,1.521l.758.758,12.306-.14.737-.791c0-.43-.011-.941-.017-1.477l3.289-.038c.2.265.075.558.116.829-.814,1.492-1.341,3.195-3,4.066-1.323.176-2.657.06-3.983.137-.6.035-1.274-.034-1.538.916,1.2,1.152,2.827.165,4.123.735.614,1.337-.449,1.852-1.231,2.5l-1.592.018-.687.817c.01.873.022,1.891.033,2.908" transform="translate(-0.988 -0.872)" fill="#f88700"/>
        <path id="Trazado_114114" data-name="Trazado 114114" d="M2.6,27.07l2.646-2.727,1.785-.021c.023,2.029.047,4.057.07,6.119l.922.707.774-.009.628-.865c0-.049,0-.326-.008-.7l.836-.474-.17-.2,1.587-.018c.015,1.358.032,2.724.048,4.145L7.928,36.866l-5.219.059c-.038-3.3-.075-6.568-.113-9.856" transform="translate(-0.256 -2.402)" fill="#f9c7b1"/>
        <path id="Trazado_114115" data-name="Trazado 114115" d="M35.852,51.764c-.048-4.176-.095-8.3-.142-12.483l4.414-.05c.214,1.141.354,8.216.236,12.482l-4.508.051" transform="translate(-3.527 -3.874)" fill="#00587e"/>
        <path id="Trazado_114116" data-name="Trazado 114116" d="M7.254,40.873c.043,3.8.086,7.545.129,11.341l-4.416.05a110.142,110.142,0,0,1-.218-11.34l4.505-.051" transform="translate(-0.267 -4.037)" fill="#00587e"/>
        <path id="Trazado_114117" data-name="Trazado 114117" d="M29.376,13.5c.638-.269.749-.955,1.114-1.437.5-.666.91-1.407,1.37-2.108.069-.105.155-.248.333-.2q.068,5.9.132,11.8a1.429,1.429,0,0,1-.1.266c-1.238-1.437-2.859-2.355-4.07-3.722l-1.583.018a19.809,19.809,0,0,0,1.4-2.3c.361-.458,1.093-.287,1.419-.862.324-.459-.25-.951-.014-1.442" transform="translate(-2.624 -0.962)" fill="#ef5a29"/>
        <path id="Trazado_114118" data-name="Trazado 114118" d="M18.994,6.036l.7-.717C19.688,4.661,19.68,4,19.671,3.3l.756-.7.847-.01.671.777c.006.536.014,1.2.023,1.93l.908.686,1.829-.021.695.679c.005.472.011.981.017,1.55l-9.074.1c-.006-.508-.012-1.018-.018-1.545l.662-.693,2.005-.023" transform="translate(-1.612 -0.256)" fill="#feeb00"/>
        <path id="Trazado_114119" data-name="Trazado 114119" d="M30.449,25.349l1.617-.018.652.833c.016,1.4.034,3.011.053,4.693A41.606,41.606,0,0,0,37.988,35.5c-.819.024-1.366.045-1.913.056-.523.012-1.045.014-1.487.018L30.52,31.6c-.023-1.948-.046-4.038-.071-6.252" transform="translate(-3.007 -2.502)" fill="#f8c7b1"/>
        <path id="Trazado_114120" data-name="Trazado 114120" d="M40,26.753c.01.845.019,1.692.029,2.547-1.3-.58-2.28-1.514-5.507-5.222l2.71-.031L40,26.753" transform="translate(-3.409 -2.375)" fill="#f7c6b0"/>
        <path id="Trazado_114121" data-name="Trazado 114121" d="M44.249,36.858c-.015.469-.37.5-.433.735-.183-.049-.292-.046-.35-.1-1.878-1.711-3.785-3.389-5.623-5.147-.693-.662-1.486-1.252-2.225-1.947,0-.388-.009-.8-.014-1.2.073-.146.117-.129.212-.029,2.305,2.437,5.029,4.429,7.312,6.887.338.363.974.345,1.12.8" transform="translate(-3.516 -2.873)" fill="#00a3e0"/>
        <path id="Trazado_114122" data-name="Trazado 114122" d="M12.6,40.168c-.833.589-1.116,1.573-1.682,2.353-.162.224-.268.477-.573.533-.013-1.09-.025-2.179-.035-3.078l2.261-2.314c.01.824.019,1.665.029,2.506" transform="translate(-1.018 -3.72)" fill="#f68600"/>
        <path id="Trazado_114123" data-name="Trazado 114123" d="M15.285,29.011c-.008-.744-.016-1.442-.025-2.189l2.233-.026c.081.672.024,1.408.062,2.189l-2.27.026" transform="translate(-1.507 -2.646)" fill="#fefefe"/>
        <path id="Trazado_114124" data-name="Trazado 114124" d="M17.618,39.159l-2.189.025c-.008-.716-.016-1.414-.026-2.233.672-.082,1.408-.025,2.189-.062.009.745.017,1.445.026,2.27" transform="translate(-1.521 -3.643)" fill="#fefefe"/>
        <path id="Trazado_114125" data-name="Trazado 114125" d="M17.864,31.814a19.778,19.778,0,0,1-1.4,2.3l-1.108.013c-.087-.724-.032-1.46-.07-2.287l2.582-.03" transform="translate(-1.509 -3.142)" fill="#f88700"/>
        <path id="Trazado_114126" data-name="Trazado 114126" d="M28.332,22.713a.815.815,0,0,1-.488.533l-1.209-1.269c0,.091-.106-.141.072-.394l.423-.031,1.2,1.161" transform="translate(-2.627 -2.128)" fill="#009ad5"/>
        <path id="Trazado_114127" data-name="Trazado 114127" d="M23.731,41.649l-.71-.715c0-.258-.006-.54-.01-.873l.751-.685,5.433-.061.64.863c0,.036,0,.312.009.748l-1.056.665-5.056.058" transform="translate(-2.273 -3.883)" fill="#010000"/>
        <path id="Trazado_114128" data-name="Trazado 114128" d="M25.588,27.918l.709.72c0,.249.006.529.01.872l-.835.677-1.92.023c-.12-.185-.3-.461-.481-.737l-.151.118c0-.274-.006-.547-.012-.967l.892-.685,1.787-.021" transform="translate(-2.262 -2.757)" fill="#040200"/>
        <path id="Trazado_114129" data-name="Trazado 114129" d="M12.61,14.763l.674-.664,5.45-.062.673.789c.019,1.709.04,3.548.06,5.366l-.652.667-5.5.063-.643-.628c-.021-1.793-.041-3.632-.063-5.53" transform="translate(-1.245 -1.386)"/>
        <path id="Trazado_114130" data-name="Trazado 114130" d="M29,13.911c.058.355.437.46.58.748,0,.236.005.472.01.832l-.947.712-1.047.013-4.166.047-.682-.785c0-.157-.005-.434-.01-.821.2-.128.479-.308.757-.488-.044-.064-.089-.128-.133-.193L29,13.911" transform="translate(-2.245 -1.374)" fill="#010000"/>
        <path id="Trazado_114131" data-name="Trazado 114131" d="M17.39,18.85l-2.194.025c-.008-.72-.016-1.419-.025-2.233.676-.08,1.412-.025,2.193-.062.009.752.017,1.451.026,2.27" transform="translate(-1.498 -1.637)" fill="#fefefe"/>
      </g>
    </g>
  </g>
</svg>
