<svg xmlns="http://www.w3.org/2000/svg" width="976.503" height="30.705" viewBox="0 0 976.503 30.705">
  <g id="Grupo_845872" data-name="Grupo 845872" transform="translate(-311.748 -6741)">
    <path id="Icon_awesome-arrow-left" data-name="Icon awesome-arrow-left" d="M18.105,31.3l-1.561,1.561a1.681,1.681,0,0,1-2.384,0L.492,19.2a1.681,1.681,0,0,1,0-2.384L14.161,3.143a1.681,1.681,0,0,1,2.384,0L18.105,4.7a1.689,1.689,0,0,1-.028,2.412L9.6,15.188H29.813A1.683,1.683,0,0,1,31.5,16.875v2.25a1.683,1.683,0,0,1-1.687,1.688H9.6l8.473,8.072A1.677,1.677,0,0,1,18.105,31.3Z" transform="translate(311.752 6738.353)" fill="#161730"/>
    <path id="Icon_awesome-arrow-right" data-name="Icon awesome-arrow-right" d="M13.395,4.7l1.561-1.561a1.681,1.681,0,0,1,2.384,0L31.008,16.8a1.681,1.681,0,0,1,0,2.384L17.339,32.857a1.681,1.681,0,0,1-2.384,0L13.395,31.3a1.689,1.689,0,0,1,.028-2.412L21.9,20.813H1.688A1.683,1.683,0,0,1,0,19.125v-2.25a1.683,1.683,0,0,1,1.688-1.687H21.9L13.423,7.116A1.677,1.677,0,0,1,13.395,4.7Z" transform="translate(1256.748 6738.353)" fill="#161730"/>
    <path id="Trazado_584144" data-name="Trazado 584144" d="M-8032.748-4943.647H-7120" transform="translate(8376 11700)" fill="none" stroke="#161730" stroke-width="3" stroke-dasharray="3"/>
  </g>
</svg>
