<svg xmlns="http://www.w3.org/2000/svg" xmlns:xlink="http://www.w3.org/1999/xlink" width="400" height="314.427" viewBox="0 0 400 314.427"><defs><clipPath id="a"><rect width="400" height="314.427" rx="21" fill="#4acfd9" opacity="0.25"/></clipPath><clipPath id="b"><rect width="85" height="84.956" fill="none"/></clipPath></defs><g transform="translate(-1020 -1821.667)"><g transform="translate(1020 1821.667)" clip-path="url(#a)"><rect width="400" height="314.427" rx="21" transform="translate(-1.218)" fill="#4acfd9" opacity="0.25"/></g><text transform="translate(1163 2081.363)" fill="#12263f" font-size="20" font-family="Roboto-Black, Roboto" font-weight="800"><tspan x="0" y="0">Rentabilidad</tspan></text><g transform="translate(105)"><circle cx="77.233" cy="77.233" r="77.233" transform="translate(1038 1897)" fill="#4acfd9"/><g transform="translate(1073 1932)"><g transform="translate(0 0)" clip-path="url(#b)"><path d="M82.571,84.527l1.752-1.752c.78-1.732.474-3.421.52-5.08a3.48,3.48,0,0,0-1.135-2.646,4.823,4.823,0,0,0,1.149-3.722c-.061-1.312.151-2.646-.51-4.072-.474-.471-1.1-1.091-1.477-1.46-1.292-.831-2.449-.682-3.858-.7a12.708,12.708,0,0,0,5.345-7.563,8.936,8.936,0,0,0,.138-6.2c.126-1.948-1.032-3.464-1.8-5.083a9.387,9.387,0,0,0-3.085-3.469c-1.863-1.344-3.833-2.621-6.256-2.786-.117-.007-.314.039-.34-.008-.187-.362-.619-.265-.88-.5v-3.88a2.864,2.864,0,0,1,1.847-.569,3.865,3.865,0,0,0,2.628-.853c.665-.52,1.8-.661,1.892-1.8.748-.5.841-1.438,1.387-2.147a18.079,18.079,0,0,1,.739-3.987c-.155-.551-.668-.71-.868-1.1a20.674,20.674,0,0,0-5.031.343c-1.7.454-2.728,1.768-3.919,2.913-1.127-.515-1.621-1.664-2.663-2.235a9.516,9.516,0,0,0-2.952-.97,20.048,20.048,0,0,0-3.484-.046l-.928.926a31.223,31.223,0,0,1,.78,4.218A16.492,16.492,0,0,1,62.77,32.31a6.235,6.235,0,0,0,4.874,2.74c.282.031.641-.039.829.109a1.752,1.752,0,0,0,.819.3v4.016c-.874.75-1.963.478-2.9.841a14.338,14.338,0,0,0-8.105,6.842,16.553,16.553,0,0,0-1.751,8.131c.007.466.484.656.343,1.266-.955.133-1.98.02-3.069.066V40.572c-.357-.3-.671-.566-1.132-.953H39.635V17.09H45.73l.919-1V14.9L27.439.1c-1.129-.406-1.813.483-2.5,1.04-1.4,1.135-2.91,2.13-4.3,3.26-1.19.967-2.376,1.939-3.629,2.814C16.039,7.9,15.2,8.729,14.219,9.4a19.953,19.953,0,0,0-2.694,2c-1.4,1.361-3.2,2.213-4.463,3.686v1.064c.277.219.637.5,1.108.877h5.887V39.6H.891L0,40.7v43.3l.865.909q28.4,0,56.758.008a4.4,4.4,0,0,0,3.18-1.161,4.624,4.624,0,0,0,3.54,1.166c4.6-.036,9.191.005,13.787-.024,1.485-.01,3.007.306,4.441-.364" transform="translate(0 0)"/><path d="M32.457,12.8h3.312L21.634,1.9,7.507,12.772c1.095.219,2.245-.014,3.362.127l.809.811V38.237h19.79V13.787l.989-.989" transform="translate(5.252 1.33)" fill="#fe9711"/><path d="M35.909,47.549c-.476-1.2-.457-3.219.031-6.13l1.92-1.881c2.252-.777,4.647-.313,7-.393a3.94,3.94,0,0,0,1.932-.472,2.938,2.938,0,0,1,2.045-.608c.435.075.6-.286.87-.513V35.082a1.4,1.4,0,0,0-.95-.585,10.726,10.726,0,0,1-4.341-1.888,11.22,11.22,0,0,1-3.89-5.262,2.5,2.5,0,0,0-.331-.433c-.141-.605.3-1.4-.539-1.905H11.495a18.393,18.393,0,0,1-1.711,4.557,11.555,11.555,0,0,1-3.52,3.544,16.916,16.916,0,0,1-4.579,1.7v2.767c.231.124.3.518.663.478,1.462-.168,2.5.785,3.673,1.378a7.931,7.931,0,0,1,2.893,2.43c.846,1.137,1.349,2.408,2.079,3.574.352.561.034,1.137.258,1.7.1.1.223.223.408.406Z" transform="translate(1.179 17.495)" fill="#00c5ad"/><path d="M46.484,24.984a11.083,11.083,0,0,0-8.248,3.365,11.327,11.327,0,0,0-3.312,8.331,12.32,12.32,0,0,0,3.3,7.638,11.422,11.422,0,0,0,8.5,3.336A11.132,11.132,0,0,0,54.31,44.3a10.9,10.9,0,0,0,3.3-8.5,11.524,11.524,0,0,0-3.277-7.463c-1.626-1.751-5.2-3.6-7.845-3.348" transform="translate(24.43 17.462)" fill="#fed322"/><path d="M12.513,54.08H23.7V40.091c.022.027-.01-.024-.054-.058a.282.282,0,0,0-.15-.061c-3.642,0-7.284,0-10.988,0Z" transform="translate(8.754 27.96)" fill="#e5e6e7"/><path d="M26.115,47.716V45H24.134c-.255.257-.546.547-.84.84v3.882l.885.875H42.244c.218-.262.479-.574.826-.989V45.78c-.235-.182-.556-.432-1.032-.8H40.327v2.707H37.484v-2.66H34.642V47.7H31.8V45.015H28.957v2.7Z" transform="translate(16.296 31.466)" fill="#ed8600"/><path d="M56.4,45.858l-.831-.831H53.576V47.74H50.8V45.031H47.953v2.723H45.112V45.017H42.27v2.75H39.486V45.041c-.675-.032-1.3-.061-2.019-.1l-.836,1.106v3.732c.262.263.512.512.8.806H55.552l.843-.841V45.858" transform="translate(25.626 31.44)" fill="#fea633"/><path d="M34.584,40.016V42.73H31.8V40H28.962v2.741H26.121V39.989H24.129l-.811.811v3.98l1.02.831H42.2c.291-.292.581-.583.877-.879V40.823L42.2,40H40.269v2.712H37.426v-2.7Z" transform="translate(16.312 27.974)" fill="#fea633"/><path d="M47.9,40.017v2.711h-2.78V40H42.279v2.738H39.437V39.99h-2c-.265.267-.515.517-.807.807v3.982l1.042.833H55.508c.291-.291.581-.583.879-.882V40.819L55.5,40H53.586v2.712H50.743v-2.7Z" transform="translate(25.627 27.975)" fill="#ed8600"/><path d="M23.3,39.756c.292.292.583.583.88.879H42.226c.265-.279.547-.578.858-.908V37.655a6.984,6.984,0,0,1-1.472-2.57c-.374-.209-.785-.07-1.305-.1v2.779h-2.85V35.019H34.672v2.7h-2.85V35.062H28.973v2.682H26.189v-2.7H24.123c-.245.243-.537.535-.828.826v3.889" transform="translate(16.296 24.461)" fill="#ed8600"/><path d="M1.678,46.659v2.718H17.163c.093-.841.014-1.752.048-2.718Z" transform="translate(1.174 32.64)" fill="#00b29c"/><path d="M1.667,46.126H17.161V43.495c-1.423-.248-10.123-.32-15.4-.117-.212.433-.048.906-.083,1.36-.032.41-.007.824-.007,1.389" transform="translate(1.151 30.262)" fill="#009885"/><path d="M1.667,42.8H17.162V40.165c-1.423-.246-10.175-.318-15.4-.114-.212.433-.049.906-.083,1.36-.032.408-.007.823-.007,1.387" transform="translate(1.151 27.934)" fill="#00b29c"/><path d="M1.674,34.179v6.948H8.632a9.066,9.066,0,0,0-6.958-6.948" transform="translate(1.171 23.91)" fill="#009885"/><path d="M8.626,25.025h-6.9c-.141,2.247-.019,4.562-.065,6.875a8.331,8.331,0,0,0,4.557-2.424,9,9,0,0,0,2.41-4.451" transform="translate(1.157 17.506)" fill="#009885"/><path d="M32.757,31.949V25.015H25.875a8.43,8.43,0,0,0,2.407,4.5,9.27,9.27,0,0,0,4.475,2.435" transform="translate(18.101 17.499)" fill="#009885"/><path d="M37.635,16.636A5.465,5.465,0,0,0,40.7,20.664h2.007c-.45-.909-.5-1.854-1.137-2.573a3.085,3.085,0,0,0-1.6-1.2c-.739-.121-1.431-.765-2.34-.258" transform="translate(26.328 11.503)" fill="#00af99"/><path d="M47.673,16.474a5.235,5.235,0,0,0-3.382,1.02c-1.037.712-1.258,1.905-1.671,3.071.612.3,1.258.027,1.808.17,1.463-.928,2.107-.789,3.244-4.261" transform="translate(29.815 11.519)" fill="#00af9a"/><path d="M22.212,48.239a3.344,3.344,0,0,1,1.169-2.726,4.612,4.612,0,0,1-1.169-2.93,1.025,1.025,0,0,0-1.414,0v5.656a1.028,1.028,0,0,0,1.414,0" transform="translate(14.549 29.59)" fill="#009784"/><path d="M22.212,45.794H20.8V50H22.54c-.5-.675-.3-1.4-.323-2.1s-.005-1.406-.005-2.109" transform="translate(14.549 32.035)" fill="#00b19c"/><path d="M20.8,44.216h1.414a25.351,25.351,0,0,1,.117-3.819c.019-.092.163-.158.314-.3a5.107,5.107,0,0,0-1.846-.105Z" transform="translate(14.549 27.957)" fill="#00b19c"/><path d="M11.642,34.982a7.254,7.254,0,0,0,2.022,4.58,6.166,6.166,0,0,0,4.8,1.977,7.4,7.4,0,0,0,5.015-1.953c1.519-1.44,1.837-3.251,2.31-5.075-.595-4.108-2.906-6.87-7.206-6.994-3.851-.112-6.893,2.945-6.941,7.464" transform="translate(8.144 19.247)" fill="#6f5c0e"/><path d="M45.9,30.873c.382.415.9.731.989,1.383h2.588C50.017,31.5,49,31,49.236,30.317l-1.8-1.8-2.055-.6v-1.23H42.652c-.337.313.036.836-.185,1.319-.7-.146-1.176.624-1.847.367-.685.685-1.31,1.309-1.7,1.7a4.516,4.516,0,0,0-.073,4.339c.445.447,1.071,1.071,1.594,1.6,1.825.807,3.635.413,5.51.534l.814.987v.987l-1.195.8H42.033c-.355-.335-.884-.615-.962-1.322H38.408a.654.654,0,0,0-.012.87c.306.313.238.631.262,1.013.617.576,1.259,1.176,2.029,1.9.491.141,1.174.34,1.851.535v1.2c.9.178,1.813.005,2.668.1.3-.454.065-.877.246-1.37.175-.257.653.129.874-.155.277-.355.627-.231.994-.27l1.834-1.9a4.344,4.344,0,0,0,.019-3.865l-2-2c-1.6-.661-3.413-.245-5.151-.379-.309-.309-.6-.6-.892-.892V31.755c.3-.3.59-.59.88-.882H45.9" transform="translate(26.748 18.672)"/><path d="M16.436,29.154a5.543,5.543,0,0,0-3.108,3.2v2.288a5.024,5.024,0,0,0,1.38,1.764c1.518,1.628,3.168,1.523,5.139.464a3.819,3.819,0,0,0,1.871-3.389,4.034,4.034,0,0,0-2.026-3.618,5.032,5.032,0,0,0-3.256-.7" transform="translate(9.324 20.394)" fill="#fed322"/></g></g></g></g></svg>