<svg xmlns="http://www.w3.org/2000/svg" xmlns:xlink="http://www.w3.org/1999/xlink" width="400" height="314.427" viewBox="0 0 400 314.427"><defs><clipPath id="a"><rect width="400" height="314.427" rx="21" fill="#4acfd9" opacity="0.25"/></clipPath><clipPath id="b"><rect width="69" height="67.988" fill="none"/></clipPath></defs><g transform="translate(-600 -1817.572)"><g transform="translate(600 1817.572)" clip-path="url(#a)"><rect width="400" height="314.427" rx="21" transform="translate(-1.218)" fill="#4acfd9" opacity="0.25"/></g><text transform="translate(763 2081.363)" fill="#12263f" font-size="20" font-family="Roboto-Black, Roboto" font-weight="800"><tspan x="0" y="0">Clientes</tspan></text><circle cx="77.233" cy="77.233" r="77.233" transform="translate(723 1897)" fill="#4acfd9"/><g transform="translate(766 1940)"><g transform="translate(0 0)" clip-path="url(#b)"><path d="M26.036,12.861A13.052,13.052,0,0,0,23.6,14.979a7.4,7.4,0,0,0-2.441-2.091,10.9,10.9,0,0,0,1.323-2.4c.208-.727.376-1.465.537-2.2a1.114,1.114,0,0,0-.006-.666c-.422-.854-.16-1.864-.647-2.7a16.791,16.791,0,0,0-.973-1.747,6.49,6.49,0,0,0-1.516-1.521c-3.221-2.119-6.439-2.379-9.863.275a6.794,6.794,0,0,0-2.62,5.237,7.625,7.625,0,0,0,1.62,5.68c-.326.488-.9.637-1.3,1.026A9.445,9.445,0,0,0,5.279,17.7a3.437,3.437,0,0,0-.031.8c0,2.382-.015,4.763,0,7.144a3.014,3.014,0,0,0,3,3c4.757.015,9.514,0,14.275,0l1-.546c.306.2.714.232.982.546q7.054,0,14.125,0a2.4,2.4,0,0,0,2.171-.671,2.5,2.5,0,0,0,2.094.673c4.621-.01,9.244-.006,13.715-.006a3.409,3.409,0,0,0,2.513-2.3c0-2.336-.033-4.672.012-7.008a7.082,7.082,0,0,0-.886-3.545,8.356,8.356,0,0,0-2.89-2.885,9.849,9.849,0,0,0,1.472-3.1,3.21,3.21,0,0,0,.132-.747c.016-.538-.022-1.08.009-1.617a6.738,6.738,0,0,0-1.257-3.93A7.814,7.814,0,0,0,51.875.485,7.721,7.721,0,0,0,47.7.26a9.581,9.581,0,0,0-2.212.859,7.058,7.058,0,0,0-3.58,4.024A6.264,6.264,0,0,0,41.377,7.6a8.456,8.456,0,0,0,1.878,5.342c-.6-.128-.778.455-1.221.652-.536.238-.91.84-1.361,1.291a11.536,11.536,0,0,0-2.344-2.035c2.487-3.66,2.326-8.032-1.349-11.092a7.461,7.461,0,0,0-9.213-.325C23.633,4.569,23.43,8.97,26.036,12.861" transform="translate(0.711 0)"/><path d="M51.67,35.779a4.8,4.8,0,0,0-4.023-2.37c-3.9-.024-7.809-.031-11.714.016a13.714,13.714,0,0,1-1.773-.3c-.55-.061-1.162.26-1.648-.241a3.844,3.844,0,0,1-2.014-.349c-.648-.232-1.392,0-1.951-.482a29.642,29.642,0,0,0-4.168.045,11.3,11.3,0,0,0-3.6,1.028,22.428,22.428,0,0,0-3.135,1.88c-1.046.77-1.861,1.757-2.826,2.593-.474.41-.583,1.09-1.171,1.408-1.036-.393-1.6-1.395-2.452-2.09a2.073,2.073,0,0,0-1.724.636c-.945.817-1.59,1.889-2.466,2.76Q5.046,42.26,3.1,44.219A20.549,20.549,0,0,0,.019,47.713C-.15,48.8.785,49.429,1.564,50.094a6.453,6.453,0,0,1,.613.433C5.24,53.782,8.63,56.7,11.81,59.834c1.545,1.524,3.164,2.984,4.756,4.547h1.147c3.029-3.033,6.068-6.092,9.129-9.127a2.433,2.433,0,0,0,.91-2.326L26.619,51.8c1.121.059,2.075-.344,3.116-.338q9.356.046,18.714,0a14.7,14.7,0,0,0,5.428-1.187,5.48,5.48,0,0,0,1.784-1.222c1.272-1.271,2.385-2.677,3.551-4.041a23.44,23.44,0,0,1,2.169-2.476c.472-.417.671-1.009,1.119-1.44.432-.416.991-.743,1.169-1.4.04-.151.24-.259.368-.385a27.734,27.734,0,0,0,2.679-3.2,22.648,22.648,0,0,0,1.518-1.8,4.6,4.6,0,0,0,.024-5.044,5.422,5.422,0,0,0-3.769-2.549,5.589,5.589,0,0,0-5.365,1.585c-2.486,2.522-5,5.016-7.454,7.472" transform="translate(0 3.606)"/><path d="M22.564,23.771l.377.377H36.734l.377-.377c0-1.834-.02-3.672.008-5.51a6.134,6.134,0,0,0-1.085-3.59,4.649,4.649,0,0,0-2.411-1.545c-.44-.177-.755.459-1.229.262-1.18.817-2.526.527-3.809.51-.6-.007-1.133-.536-1.793-.511-.619-.644-1.278-.126-1.73.133a4.035,4.035,0,0,0-1.689,1.395,5.678,5.678,0,0,0-.783,2.491c-.083,2.141-.027,4.287-.027,6.366" transform="translate(3.06 1.774)" fill="#fe8264"/><path d="M18.533,13.076a9.206,9.206,0,0,1-4.684.836,3.979,3.979,0,0,1-1.681-.462c-1.111-.706-1.961-.131-2.76.467a4.34,4.34,0,0,0-1.8,3.825c.064,2.015.015,4.033.015,6.029l.368.368h13.88V16.184c-1.074-1.81-1.249-2.142-3.334-3.108" transform="translate(1.032 1.774)" fill="#feb577"/><path d="M37.745,24.15h13.9c.189-.214.4-.344.392-.679-.023-2.2.041-4.4-.04-6.6a3.188,3.188,0,0,0-.927-2.165,5.845,5.845,0,0,0-1.959-1.448,1.249,1.249,0,0,0-1.1-.034,6.7,6.7,0,0,1-3.345.7,7.8,7.8,0,0,1-2.486-.491c-.328-.116-.675-.388-1.078-.326a3.3,3.3,0,0,0-1.123.536,4.762,4.762,0,0,0-1.712,1.721,3.22,3.22,0,0,0-.535,1.807c.033,2.287.012,4.576.012,6.973" transform="translate(5.121 1.778)" fill="#fed88d"/><path d="M49.641,9.03a13.6,13.6,0,0,0-.02-2.129,3.955,3.955,0,0,0-1.749-3.154c-.37-.212-.563-.616-1.012-.8a5.092,5.092,0,0,0-4.2-.132,4.677,4.677,0,0,0-2.989,3.824c-.592.828-.076,1.658.084,2.441a4.433,4.433,0,0,0,1.288,2.153,4.808,4.808,0,0,0,2.067,1.187,4.784,4.784,0,0,0,5.072-1.162,6.012,6.012,0,0,0,1.17-1.788,2.855,2.855,0,0,1,.287-.436" transform="translate(5.346 0.328)" fill="#feccab"/><path d="M19.728,7.378c-.03-.092-.262-.136-.245-.355a4.218,4.218,0,0,0-1.147-2.881A4.424,4.424,0,0,0,15.554,2.48a5.078,5.078,0,0,0-5.5,2.638,3.71,3.71,0,0,0-.542,2.068c.047.621.01,1.249.01,1.627,1.018,2.771,2.857,4.056,5.577,3.841a4.889,4.889,0,0,0,3.316-1.723,7.28,7.28,0,0,0,1.316-3.554" transform="translate(1.289 0.326)" fill="#feccab"/><path d="M29.51,2.425A5.213,5.213,0,0,0,24.467,7.65a5.11,5.11,0,0,0,10.219-.135,5.207,5.207,0,0,0-5.177-5.09" transform="translate(3.32 0.329)" fill="#feccab"/><path d="M62.952,29.3c-.471.2-.762-.36-1.231-.285a4.819,4.819,0,0,1-.943.012,6.567,6.567,0,0,0-2.9,2.11c-2.48,2.476-4.954,4.957-7.4,7.4A5.3,5.3,0,0,1,47.248,43.4c-.114.048-.158.236-.327.186-.678-.2-1.241.3-1.909.287-3.095-.039-6.191-.017-8.98-.017A1.928,1.928,0,0,1,34.5,42.448a2.393,2.393,0,0,1,.712-1.286h5.673c.763,0,1.528,0,2.291,0a8.018,8.018,0,0,0,3.247-.37l.154.248a4.233,4.233,0,0,1,.653-.834c.271-.212.143-.617.474-.765.117-1.457.072-2.849-1.464-3.673-3.528,0-7.074-.059-10.618.026-1.6.039-3.157-.241-4.736-.329a13.526,13.526,0,0,1-2.6-.546A16.657,16.657,0,0,0,24.6,34.4a11.774,11.774,0,0,0-7.508,2.729,15.231,15.231,0,0,0-3.3,3.62c2.765,2.786,5.483,5.621,8.57,8.219a4.714,4.714,0,0,0,1.913-.24c.656-.186,1.382.2,2.057-.26.246-.167.7-.026,1.06-.026,6.33,0,12.662.044,18.991-.032A10.506,10.506,0,0,0,50.932,47.4a7.016,7.016,0,0,0,2.361-2.034c.32-.4.68-.779.995-1.189a12.88,12.88,0,0,1,.959-1.217c1.039-1.063,1.9-2.279,2.88-3.38.7-.787,1.359-1.615,2.042-2.415a37.14,37.14,0,0,0,2.52-2.985,17.549,17.549,0,0,0,1.507-1.94,1.625,1.625,0,0,0-.3-1.976,13.289,13.289,0,0,0-.949-.962" transform="translate(1.871 3.936)" fill="#feccab"/><path d="M3.088,46.423c1.136,1.137,2.176,2.327,3.369,3.34,2.174,1.848,4.028,4.027,6.176,5.883,1.414,1.221,2.661,2.6,4.1,3.868,1.236-1.237,2.509-2.472,3.735-3.751a22.555,22.555,0,0,0,3.59-3.956,28.515,28.515,0,0,0-2.525-2.32c-1.325-1.2-2.567-2.5-3.814-3.792-2.319-2.4-4.772-4.661-7.292-6.943-.308-.037-.451.3-.659.5Q7.29,41.717,4.823,44.2c-.189.191-.5.355-.546.576-.15.745-1.065.924-1.189,1.649" transform="translate(0.419 5.258)" fill="#6bd4e0"/><path d="M27.315,41.423A3.069,3.069,0,0,0,28.6,42.441,1.676,1.676,0,0,0,30,41a1.7,1.7,0,0,0-1.316-1.533c-.31.1-.566.422-.951.27a2.047,2.047,0,0,0-.419,1.683" transform="translate(3.704 5.356)" fill="#060504"/></g></g></g></svg>