<svg xmlns="http://www.w3.org/2000/svg" xmlns:xlink="http://www.w3.org/1999/xlink" width="103" height="103" viewBox="0 0 103 103"><defs><filter id="a" x="0" y="0" width="103" height="103" filterUnits="userSpaceOnUse"><feOffset dy="3" input="SourceAlpha"/><feGaussianBlur stdDeviation="3" result="b"/><feFlood flood-opacity="0.161"/><feComposite operator="in" in2="b"/><feComposite in="SourceGraphic"/></filter><clipPath id="c"><rect width="50" height="50" fill="none"/></clipPath></defs><g transform="translate(-381 -3687)"><g transform="matrix(1, 0, 0, 1, 381, 3687)" filter="url(#a)"><rect width="85" height="85" rx="20" transform="translate(9 6)" fill="#fff"/></g><g transform="translate(408 3711)"><g transform="translate(0 0)" clip-path="url(#c)"><path d="M35.3,3.547a16.857,16.857,0,0,0-20.585-.019,6.709,6.709,0,0,0-2.35-2.252A8.728,8.728,0,0,0,10.405.411,7.869,7.869,0,0,0,6.717.2a8.3,8.3,0,0,0-2.722.99A6.488,6.488,0,0,0,1.246,3.849,7.924,7.924,0,0,0,.364,5.8C.229,6.319.124,6.844.035,7.366c-.084.489.018,1.007-.029,1.506a4.985,4.985,0,0,0,.253,1.42,6.879,6.879,0,0,0,1.105,2.45c1.539,2.323,3.151,4.6,4.663,6.936.279.432.673.7.9,1.061a3.094,3.094,0,0,0,1.662.194,14.162,14.162,0,0,0,1.667,4.314,14.8,14.8,0,0,0,2.86,3.688c-.24.17-.5.086-.743.091-.671.013-1.346-.032-2.013.017a2.257,2.257,0,0,0-1.379.566,2.683,2.683,0,0,0-.919,2.249c.035,1.476.008,2.952.011,4.429a.774.774,0,0,0,.283.786H6.483v9.641H11.61A4.244,4.244,0,0,0,13.4,49.108a4.38,4.38,0,0,0,3.258.858,4.934,4.934,0,0,0,3.974-3.2H34.185a4.106,4.106,0,0,0,1.73,2.3,4.361,4.361,0,0,0,3.242.9,4.845,4.845,0,0,0,4.009-3.219c1.172,0,2.37-.03,3.567.007a3.275,3.275,0,0,0,3.247-3.228c-.036-3.59-.024-7.181,0-10.771a5.523,5.523,0,0,0-.474-2.224,7.246,7.246,0,0,0-4.73-4.383,5.353,5.353,0,0,0-1.57-.343q-1.611.01-3.223,0c-.156,0-.334.071-.515-.124a16.158,16.158,0,0,0,1.917-4.666c.308-.16.771.133,1.079-.119.213-.175.46-.017.632-.194a6.413,6.413,0,0,0,.774-.79c1.108-1.65,2.19-3.318,3.279-4.982.432-.659.84-1.334,1.29-1.98a8.08,8.08,0,0,0,1.155-2.345,9.845,9.845,0,0,0,.371-1.755,8.172,8.172,0,0,0-.214-2.731A8.476,8.476,0,0,0,48.58,3.587,7.889,7.889,0,0,0,44.106.341a4.219,4.219,0,0,0-1.788-.3c-.577.069-1.2-.241-1.73.194a6.381,6.381,0,0,0-3.533,1.427A5.443,5.443,0,0,0,35.3,3.547" transform="translate(0 0)"/><path d="M38.364,50.359h1.585a4.786,4.786,0,0,1,1.883-3.741,4.542,4.542,0,0,1,3.176-1.078,5.078,5.078,0,0,1,4.7,4.819h3.645a1.769,1.769,0,0,0,1.1-1.257V42.347H40.079c-.19-.269-.095-.543-.1-.8-.013-1.174-.023-2.347,0-3.521a5.816,5.816,0,0,1,.186-2.441l1.13-1.072a5.6,5.6,0,0,1,2.444-.245c2.948,0,5.9,0,8.884,0-.129-.383-.419-.5-.715-.675a10.533,10.533,0,0,0-2.142-.9,2,2,0,0,0-.592-.031c-2.314,0-4.63-.056-6.942.017A3.769,3.769,0,0,0,38.668,35.1a3.726,3.726,0,0,0-.314,1.583c.018,4.526.01,9.053.01,13.673" transform="translate(-6.12 -5.239)" fill="#fbd670"/><path d="M9.628,46.134V52.51H12.8a4.881,4.881,0,0,1,2.076-3.893,4.391,4.391,0,0,1,3.342-.9,5.051,5.051,0,0,1,4.313,4.79H32.1c-.014.012.014-.008.033-.034a.159.159,0,0,0,.033-.086c0-2.074,0-4.149,0-6.256Z" transform="translate(-1.536 -7.406)" fill="#fee9a6"/><path d="M8.054,19.681h.618A8.44,8.44,0,0,0,9.984,17.86c1.151-1.7,2.274-3.414,3.422-5.113a11.589,11.589,0,0,0,1.4-3.035,6.285,6.285,0,0,0,0-1.405c-.034-.41.2-.87-.193-1.224a5.986,5.986,0,0,0-1.5-3.094,2.588,2.588,0,0,0-1.058-.839c-.377-.165-.6-.552-1.063-.6-.421-.046-.781-.327-1.237-.411a5.914,5.914,0,0,0-3.829.347,5.629,5.629,0,0,0-2.21,1.442,6.431,6.431,0,0,0-1.6,3.054,6.21,6.21,0,0,0,.045,3.446,7.878,7.878,0,0,0,1.182,2.321c1.417,2.125,2.815,4.261,4.228,6.388a5.648,5.648,0,0,0,.48.548" transform="translate(-0.303 -0.317)" fill="#fe816d"/><path d="M48.33,19.675h.643c.629-.773,1.109-1.673,1.694-2.5,1.045-1.471,2-3,3.03-4.48a7.018,7.018,0,0,0,1.344-3.05,6.1,6.1,0,0,0-.476-3.7A6.537,6.537,0,0,0,52.977,3.6a5.636,5.636,0,0,0-3.018-1.442c-.64-.421-1.355-.1-2.028-.2-.43-.064-.779.333-1.219.212a7.437,7.437,0,0,0-3.526,2.772,7.692,7.692,0,0,0-1,4.615,9.616,9.616,0,0,0,.951,2.321c1.421,2.567,3.274,4.853,4.772,7.37a2.5,2.5,0,0,0,.415.428" transform="translate(-6.725 -0.31)" fill="#fe816d"/><path d="M44.057,21.178h-7.07a.638.638,0,0,0-.057.2,21.482,21.482,0,0,1-.255,3.838,20.887,20.887,0,0,1-.538,3.381c-.149.62-.836,3.355-1.148,4.056a6.316,6.316,0,0,0-.6,1.5c.242.188.039.547.183.892l1.525-.484a6.172,6.172,0,0,1,1.065-3.02A3.741,3.741,0,0,1,38.75,30.1a6.275,6.275,0,0,1,4.12-.888,6,6,0,0,0,1.419-2.274c.455-1.255,1.209-2.45,1.1-3.78l-1.334-1.977" transform="translate(-5.488 -3.4)" fill="#69d5f3"/><path d="M55.094,41.3a28.721,28.721,0,0,0-.026-2.941,2.637,2.637,0,0,0-.661-1.846H42.678l-.457.583v4.2Z" transform="translate(-6.738 -5.862)" fill="#4fc0e8"/><path d="M33.661,17.976a7.624,7.624,0,0,0-.21-2.46.949.949,0,0,1-.005-.5c.138-.895-.3-1.74-.212-2.633.025-.25-.378-.411-.1-.771H24.614a49.053,49.053,0,0,0-.7,6.361Z" transform="translate(-3.817 -1.865)" fill="#69d5f3"/><path d="M24.176,24.357a6.4,6.4,0,0,1,2.617.324l1,1.063c-.135.31.284.529.228.878a6.128,6.128,0,0,0-.01.935h4.971c.126-.467.2-.991.3-1.519.149-.816.011-1.66.208-2.426a19.209,19.209,0,0,0,.182-2.437H24.061c-.335,1.048.189,2.063.115,3.182" transform="translate(-3.822 -3.399)" fill="#69d5f3"/><path d="M19.078,42.949l.5-.5V37l-.491-.465H17.976v3.156H13.16a14.862,14.862,0,0,1-.022-1.533c-.009-.531,0-1.063,0-1.624H12.016L11.527,37v5.447l.5.5h7.05" transform="translate(-1.839 -5.865)" fill="#d29f6c"/><path d="M30.588,42.949l.5-.5V37l-.491-.465H29.485v3.156H24.67a14.39,14.39,0,0,1-.022-1.532c-.009-.532,0-1.064,0-1.624H23.507l-.44.441v5.5l.471.471h7.05" transform="translate(-3.681 -5.865)" fill="#d29f6c"/><path d="M24.835,33.356l.5-.5V27.408l-.489-.466H23.733V30.1H18.894c0-.484,0-1.009,0-1.533V26.942H17.756l-.441.442v5.5l.471.473h7.049" transform="translate(-2.763 -4.325)" fill="#d29f6c"/><path d="M20.551,21.16H13.332L12.01,23.142a3.9,3.9,0,0,0,.382,1.9,17.521,17.521,0,0,0,1.633,3.65c.176.326.577.515.726,1,.226-1.379-.187-2.718.33-4.069l1.024-.987a7.617,7.617,0,0,1,2.985-.259c.5-.019,1,0,1.549,0,.12-1.074-.434-2.085-.089-3.213" transform="translate(-1.91 -3.397)" fill="#69d5f3"/><path d="M32.868,8.374a12.125,12.125,0,0,0-.45-1.862,23.25,23.25,0,0,0-1-2.4,6.821,6.821,0,0,0-1.046-1.469,1.71,1.71,0,0,0-1.511-.66,2.287,2.287,0,0,0-1.44.871,12.447,12.447,0,0,0-2.044,4.78c-.055.235-.3.426-.136.737Z" transform="translate(-4.019 -0.315)" fill="#69d5f3"/><path d="M21.8,53.113a3.264,3.264,0,0,0-3.26-3.2,3.238,3.238,0,1,0,.075,6.477A3.268,3.268,0,0,0,21.8,53.113" transform="translate(-2.448 -8.012)" fill="#959ea9"/><path d="M42.2,53.252a3.259,3.259,0,0,0,3.324,3.135,3.238,3.238,0,1,0-.2-6.472A3.265,3.265,0,0,0,42.2,53.252" transform="translate(-6.733 -8.012)" fill="#959ea9"/><path d="M20.89,17.97a43.631,43.631,0,0,1,.65-6.4c-.528-.037-1.05-.011-1.569-.016s-1.064,0-1.649,0a5.8,5.8,0,0,1-1.1,2.954c-.678,1.194-1.54,2.283-2.352,3.46Z" transform="translate(-2.372 -1.855)" fill="#68d5f3"/><path d="M39.889,11.579H36.763c-.323.38.182.638.137,1a1.37,1.37,0,0,0,.07.963.653.653,0,0,1,.113.457c-.111,1.319.372,2.6.174,3.967h6.025a49.424,49.424,0,0,1-2.873-4.589,3.8,3.8,0,0,1-.52-1.792" transform="translate(-5.849 -1.859)" fill="#68d5f3"/><path d="M24.783,2.383a14.816,14.816,0,0,0-6.318,3,9.306,9.306,0,0,1,.647,3.064h3.305a17.831,17.831,0,0,1,2.366-6.067" transform="translate(-2.947 -0.383)" fill="#68d5f3"/><path d="M35.877,8.491h3.291a9.063,9.063,0,0,1,.65-3.015c-1.1-1.223-4.826-3-6.229-2.957a17.787,17.787,0,0,1,2.288,5.973" transform="translate(-5.36 -0.404)" fill="#68d5f3"/><path d="M33.422,30.768H28.741c0,.521.026,1.048-.008,1.571s.171,1.054-.2,1.58c1.224.2,2.49-.2,3.681.3a11.388,11.388,0,0,0,1.208-3.447" transform="translate(-4.553 -4.939)" fill="#68d5f3"/><path d="M36.068,39.17a4.6,4.6,0,0,1-1.551.423c-.111,1.179.076,2.369-.1,3.546-.008.052-.077.094-.159.187h1.814Z" transform="translate(-5.466 -6.288)" fill="#f6f8f9"/><path d="M15.379,36.542v1.54h1.56c.089-.472,0-.991.05-1.54Z" transform="translate(-2.454 -5.866)" fill="#b17946"/><path d="M28.446,36.52H26.9v1.573c.476.051.993.006,1.544.026Z" transform="translate(-4.293 -5.863)" fill="#b17946"/><path d="M22.7,28.49V26.947H21.131c-.051.475-.007.993-.026,1.543Z" transform="translate(-3.368 -4.326)" fill="#b17946"/><path d="M8.52,3.878A5,5,0,0,0,3.832,8.764a5.034,5.034,0,0,0,4.981,4.788,4.73,4.73,0,0,0,3.3-1.509,4.642,4.642,0,0,0-.076-6.74A4.554,4.554,0,0,0,8.52,3.878" transform="translate(-0.611 -0.622)"/><path d="M44.116,8.878a4.841,4.841,0,0,0,9.678-.294,4.725,4.725,0,0,0-1.509-3.3,4.649,4.649,0,0,0-6.743.074,4.552,4.552,0,0,0-1.426,3.517" transform="translate(-7.04 -0.622)"/><path d="M8.993,5.8A3.267,3.267,0,0,0,5.752,9.02a3.336,3.336,0,0,0,3.239,3.24,3.336,3.336,0,0,0,3.241-3.238A3.267,3.267,0,0,0,8.993,5.8" transform="translate(-0.918 -0.931)" fill="#fee9a6"/><path d="M52.477,8.98a3.264,3.264,0,0,0-3.26-3.2,3.334,3.334,0,0,0-3.2,3.276,3.333,3.333,0,0,0,3.277,3.2A3.268,3.268,0,0,0,52.477,8.98" transform="translate(-7.343 -0.928)" fill="#fee9a6"/></g></g></g></svg>