<svg xmlns="http://www.w3.org/2000/svg" xmlns:xlink="http://www.w3.org/1999/xlink" width="103" height="103" viewBox="0 0 103 103"><defs><filter id="a" x="0" y="0" width="103" height="103" filterUnits="userSpaceOnUse"><feOffset dy="3" input="SourceAlpha"/><feGaussianBlur stdDeviation="3" result="b"/><feFlood flood-opacity="0.161"/><feComposite operator="in" in2="b"/><feComposite in="SourceGraphic"/></filter><clipPath id="c"><rect width="50" height="50" fill="none"/></clipPath></defs><g transform="translate(-381 -4035)"><g transform="translate(88 439)"><g transform="matrix(1, 0, 0, 1, 293, 3596)" filter="url(#a)"><rect width="85" height="85" rx="20" transform="translate(9 6)" fill="#fff"/></g></g><g transform="translate(408 4059)"><g transform="translate(0 0)" clip-path="url(#c)"><path d="M45.155,12.984a.406.406,0,0,0,.184-.4c.7-.353,1.521-.353,2.2-.78V7.573a9.885,9.885,0,0,0-2.146-.748c-.05-.031-.048-.127-.071-.223a.82.82,0,0,0-.166-.241,6.626,6.626,0,0,0,.987-1.918L43.1,1.4c-.361-.051-.629.3-.983.405s-.454.581-.905.523a.983.983,0,0,1-.738-.947A7.406,7.406,0,0,0,40.064.021h-4.32a18.1,18.1,0,0,0-.722,2.141c-.1.145-.44-.08-.417.241a9.206,9.206,0,0,0-1.839-1L29.627,4.551c.029.588.657,1.109.967,1.827-.034.093-.244.164-.15.4-.7.352-1.518.361-2.234.774V8.831c-2,.176-4-.184-5.909.216l-1.078,1.079a7.334,7.334,0,0,0-.26,2.746c-.507.082-1.027,0-1.609.051,0-.916.015-1.782-.005-2.647a6.087,6.087,0,0,0-.213-2.532L18.086,6.691a12.076,12.076,0,0,0-3.455-.254,6.9,6.9,0,0,1-.341-1.043,8.419,8.419,0,0,0-1.768-3.109A7.879,7.879,0,0,0,9.3.307a6.942,6.942,0,0,0-4.765.26A7.787,7.787,0,0,0,1.42,2.977,6.564,6.564,0,0,0,.238,5.5,7.57,7.57,0,0,0,0,7.229,6.208,6.208,0,0,0,.456,9.674a7.018,7.018,0,0,0,1.665,2.649,7.486,7.486,0,0,0,2.99,1.805,5.767,5.767,0,0,0,3.581.21,9.224,9.224,0,0,0,1.6-.516,6.588,6.588,0,0,0,2.851-2.311A5.838,5.838,0,0,0,14.3,8.98a7.309,7.309,0,0,1,.305-.9h2.676c.1.139.238.328.449.616v4.535c-.554.592-1.42.595-1.965,1.158-.56.58-1.136,1.143-1.741,1.75-3.248,0-6.531.008-9.814-.011-.464,0-.885.16-1.326.2a2.332,2.332,0,0,0-1.163.612A3.269,3.269,0,0,0,.2,19.131a4.748,4.748,0,0,0-.174,1.335c0,5.211.005,10.423-.008,15.634a4.2,4.2,0,0,0,.823,2.683,3.721,3.721,0,0,0,2.113,1.394,7.285,7.285,0,0,0,1.735.17c1.91.007,3.818,0,5.767,0V41.9c-.224.142-.53.057-.814.055A3.2,3.2,0,0,0,6.48,45.453a1.268,1.268,0,0,0,.861,1.157c.087.028.154.119.25.2q9.07,0,18.188.005a1.673,1.673,0,0,0,1.647-1.27c.21-1.933-1.251-3.823-4-3.586V40.35h6.331a3.974,3.974,0,0,0,2.6-1,3.008,3.008,0,0,1,.655,2.6H31.457V50h17.6a74.372,74.372,0,0,0,.061-8.036H47.575a2.223,2.223,0,0,1,.251-1.757c.3-.345.538-.73.825-1.082a5.461,5.461,0,0,0,1.3-3.488q.026-4.59,0-9.178a5.91,5.91,0,0,0-.187-2.546l-1.108-1.075c-.565-.088-1.16-.509-1.843-.066-.306-.322-.549-.735-.858-1.093a2.3,2.3,0,0,0-3.227-.067,2.338,2.338,0,0,0-2.39-.484V17.422c.3-.345.766-.277,1.231-.277a3.526,3.526,0,0,0,1.474.811l3.094-3.1c-.061-.653-.677-1.179-.985-1.872" transform="translate(0 0)"/><path d="M40.19,42.527v1.786c.05.034.076.067.1.067,3.687,0,7.374,0,11.105,0V42.551c.7-.928,1.419-1.762,2-2.681a3.609,3.609,0,0,0,.466-1.919c0-3.6,0-7.192,0-10.836l-.57-.474h-.566l-.476.7v1.674H50.684V25.537l-.628-.511H49.5l-.471.609v3.377H47.464V25.53l-.741-.5h-.449l-.464.62v3.363H44.255c.014.015-.013-.007-.03-.035a.18.18,0,0,1-.03-.088c0-4.335,0-8.67,0-13.087l-.621-.455h-.531l-.345.5-.064-.064a.711.711,0,0,0-.047.181c0,4.906-.029,9.813.016,14.719a6.848,6.848,0,0,1-.9,3.565c-.08.139-.1.3-.167.43H39.642l-.234-.235c-.157-.322.078-.7-.2-1.034-.215-.262.068-.681-.211-1.022-.208-.256.133-.727-.231-1.006.119-.5-.177-.941-.224-1.423a3.814,3.814,0,0,0-2.129-3.1,2.039,2.039,0,0,0-1.633-.182l-.254.252c-.043.289.187.48.3.679a12.25,12.25,0,0,1,.92,1.537,5.1,5.1,0,0,1,.57,2.376c-.04.452.208.806.231,1.228s-.181.85.163,1.245c.1.116.023.388.026.587a7.755,7.755,0,0,0,.551,1.99c.817,1.917,1.777,3.766,2.673,5.645a2.58,2.58,0,0,0,.223.313" transform="translate(-5.507 -2.418)" fill="#efcfb3"/><path d="M13.758,24.925H5.818V39.387h24.1V31.679a17.9,17.9,0,0,0-1.157-1.858,2.035,2.035,0,0,1-.39-1.769l.491-.949c.293-.321.8-.275,1.068-.7V24.939H28.406c-.336.333-.127.912-.471,1.279a6.525,6.525,0,0,1-2.658,3.819,7.1,7.1,0,0,1-2.442,1.126,6.531,6.531,0,0,1-2.532.179,5.9,5.9,0,0,1-1.807-.481,7.848,7.848,0,0,1-2.471-1.6,8.3,8.3,0,0,1-1.9-3.157c-.139-.382-.029-.839-.366-1.178" transform="translate(-0.928 -3.927)" fill="#69d5f3"/><path d="M31,38.983a1.863,1.863,0,0,1-1.3,1.453H4.661c-.113-.231-.4-.171-.563-.347A1.688,1.688,0,0,1,3.544,38.9c.009-5.043.006-10.085.006-14.978a1.779,1.779,0,0,1,1.357-1.243h8.217c.34-.489.224-1.068.527-1.509a1.137,1.137,0,0,0-.738-.1c-2.785-.006-5.572.017-8.356-.023-.477-.007-.865.259-1.321.233l-.977.979a5.327,5.327,0,0,0-.318,2.518c0,4.406-.013,8.811.008,13.217a6.421,6.421,0,0,0,.19,2.744l1.021,1.013a5.491,5.491,0,0,0,2.562.3q11.577.005,23.155,0a5.354,5.354,0,0,0,2.458-.3l.594-.659A9.739,9.739,0,0,0,31,38.983" transform="translate(-0.302 -3.316)" fill="#cbd0d8"/><path d="M38.645,3.56l-1.5,1.5c.463.382.541,1.051.915,1.555a8.851,8.851,0,0,0-.8,1.885L35.512,9v1.964l1.747.487c.052.7.585,1.206.777,1.921-.316.426-.4,1.1-.878,1.5l1.5,1.5c.351-.453,1.016-.528,1.575-.943a2.24,2.24,0,0,0,.837.585,2.416,2.416,0,0,0,.057-.928c.015-.332,0-.666,0-.983a4.8,4.8,0,0,1-1.568-1.382,4.394,4.394,0,0,1-.813-1.872,3.332,3.332,0,0,1,0-1.791,4.9,4.9,0,0,1,9.609.034,4.883,4.883,0,0,1-2.366,4.973v1.87a1.194,1.194,0,0,0,.862-.493c.524.378,1.2.476,1.623.992L50,14.913c-.325-.147-.382-.491-.561-.75s-.183-.606-.425-.822a7.19,7.19,0,0,0,.8-1.872,14.049,14.049,0,0,0,1.779-.572V9.039a11.445,11.445,0,0,0-1.76-.524c-.071-.719-.6-1.23-.788-1.921.34-.435.414-1.131.939-1.552L48.468,3.553c-.408.467-1.062.58-1.586.936a7.594,7.594,0,0,0-1.851-.8,17.6,17.6,0,0,0-.565-1.768H42.638a8.509,8.509,0,0,0-.567,1.757c-.7.064-1.211.583-1.9.794-.424-.35-1.123-.409-1.522-.912" transform="translate(-5.664 -0.303)" fill="#fec629"/><path d="M53.818,56.546V51.768H39.391c.01-.01-.018.009-.037.036a.166.166,0,0,0-.032.086c0,1.541,0,3.082,0,4.655Z" transform="translate(-6.272 -8.157)" fill="#b3dc7f"/><path d="M5.172,8.884a3.315,3.315,0,0,1-.793-2.768A3.527,3.527,0,0,1,5.732,4.063a3.361,3.361,0,0,1,3.827.117,3.366,3.366,0,0,1,1.251,2.306A3.459,3.459,0,0,1,10,8.888a7.052,7.052,0,0,1,2.164,1.746,5.449,5.449,0,0,0-.945-7.4,5.648,5.648,0,0,0-7.107-.153,5.487,5.487,0,0,0-1.137,7.576A7.4,7.4,0,0,1,5.172,8.884" transform="translate(-0.309 -0.298)" fill="#fee9a6"/><path d="M18.265,26.021a7.289,7.289,0,0,1,2.24-1.812,3.207,3.207,0,0,1,.515-4.782,3.382,3.382,0,0,1,3.753-.025,3.492,3.492,0,0,1,1.361,2.254,3.369,3.369,0,0,1-.817,2.556c.961.308,1.485,1.166,2.23,1.748a5.5,5.5,0,0,0-1.108-7.5,5.584,5.584,0,0,0-6.951-.093,4.725,4.725,0,0,0-1.763,2.176,6.22,6.22,0,0,0-.454,2.836,6.709,6.709,0,0,0,.994,2.637" transform="translate(-2.75 -2.711)" fill="#fee9a6"/><path d="M32.5,13.774V12.483H27.336l-.47.471v2.23c.558.558,1.427.628,2,1.191s1.137,1.138,1.7,1.706h4.2l-.973-.973a3.892,3.892,0,0,1,.505-1.162c.139-.371.522-.565.552-1.061-.016-.032-.214-.108-.124-.338-.7-.347-1.515-.362-2.232-.773" transform="translate(-4.285 -1.967)" fill="#f7f9fa"/><path d="M42.533,13.5l.582-.628a2.7,2.7,0,0,1,2.558-.052l.618.674a3.181,3.181,0,0,0,.751-4.558A3.241,3.241,0,1,0,42.533,13.5" transform="translate(-6.575 -1.206)" fill="#f7f9fa"/><path d="M27.332,53.315a1.623,1.623,0,0,0-1.161-1.568H10.759a1.626,1.626,0,0,0-1.146,1.568Z" transform="translate(-1.533 -8.154)" fill="#a9b1bc"/><path d="M41.713,20.621a1.82,1.82,0,0,0-1.3-.246,2.237,2.237,0,0,1-1.1.636,4.976,4.976,0,0,1,.808,2.2c0,1.708,0,3.415,0,5.057a6.982,6.982,0,0,1,.829,2.347,5.525,5.525,0,0,0,.359,1.558c.121.228.021.575.021.966l.38-.349Z" transform="translate(-6.271 -3.205)" fill="#f7f9fa"/><path d="M19.876,28.867a5.623,5.623,0,0,0,6.905.005,3.52,3.52,0,0,0-3.448-2.031,3.567,3.567,0,0,0-3.458,2.026" transform="translate(-3.17 -4.229)" fill="#fd816d"/><path d="M11.46,13.517A3.655,3.655,0,0,0,8.272,11.5a3.743,3.743,0,0,0-3.7,2.05,5.588,5.588,0,0,0,6.891-.029" transform="translate(-0.729 -1.809)" fill="#fd816d"/><rect width="9.595" height="1.548" transform="translate(12.127 40.38)" fill="#a9b1bc"/><path d="M31.966,21.068c.4.569.321,1.115.61,1.589h2.042c.113.289.417.189.581.382a1.715,1.715,0,0,1,.536,1.195c-.02.6-.005,1.2-.005,1.8a6.451,6.451,0,0,1,1.611.693c0-1.2.048-2.37-.027-3.531A1.992,1.992,0,0,0,36.791,22a2.659,2.659,0,0,0-2.239-.94c-.8.035-1.6.008-2.586.008" transform="translate(-5.099 -3.318)" fill="#cbd0d8"/><path d="M22.071,23.081a1.723,1.723,0,0,0,2.075,1.2c.5-.263.984-.483,1.129-1.059v-1.03a1.792,1.792,0,0,0-1.093-1.083,1.707,1.707,0,0,0-2.111,1.175Z" transform="translate(-3.521 -3.32)" fill="#edcdb2"/><path d="M8.85,5.781A1.707,1.707,0,0,0,6.738,6.957v.8A1.689,1.689,0,0,0,8.709,8.97,1.745,1.745,0,0,0,9.942,7.675v-.81A1.792,1.792,0,0,0,8.85,5.781" transform="translate(-1.075 -0.904)" fill="#edcdb2"/><path d="M14.185,36.491H12.564V28.509a13.554,13.554,0,0,0-1.622-.1v8.059H9.32V26.86H7.756V38.1H26.991v-1.57H25.434V33.3H23.848v3.16H22.225V34.941H20.6v1.533h-1.61c-.029-.479-.006-1.005-.01-1.529s0-1.067,0-1.63H17.393v3.171H15.772V30.075H14.185Z" transform="translate(-1.237 -4.232)"/></g></g></g></svg>