<svg xmlns="http://www.w3.org/2000/svg" xmlns:xlink="http://www.w3.org/1999/xlink" width="85" height="85" viewBox="0 0 85 85">
  <defs>
    <clipPath id="clip-path">
      <rect id="Rectángulo_37126" data-name="Rectángulo 37126" width="84.154" height="84.073" fill="none"/>
    </clipPath>
  </defs>
  <g id="Grupo_849908" data-name="Grupo 849908" transform="translate(-600 -7596)">
    <g id="Grupo_80935" data-name="Grupo 80935" transform="translate(0 796)">
      <path id="Trazado_245468" data-name="Trazado 245468" d="M42.5,0A42.5,42.5,0,1,1,0,42.5,42.5,42.5,0,0,1,42.5,0Z" transform="translate(600 6800)" fill="#4acfd9"/>
      <g id="Grupo_80718" data-name="Grupo 80718" transform="translate(600.846 6800.865)">
        <g id="Grupo_80717" data-name="Grupo 80717" transform="translate(0 0)" clip-path="url(#clip-path)">
          <path id="Trazado_114517" data-name="Trazado 114517" d="M18.52,40.693a2.463,2.463,0,0,0,.224,1.248c.174.313-.127.779.254,1.118.1.09.015.388.015.591.255.185.242.55.494.739.029.74.65,1.337.492,2.073.1.175.235.138.446.15-.087.712.66,1.161.538,1.9l.4.087c.262.632.274,1.385,1,1.8a1.074,1.074,0,0,1,.339.821c-.018.376.258.547.675.58a2.232,2.232,0,0,0,.913,1.552c.189.228.114.509.11.784a1.128,1.128,0,0,0-.833.617c-.24.483-.862.562-1.03,1.023-.2.547-.749.592-1.081.931-.479.5-1.246,0-1.726.493h-.877c-.251.313-.526.61-.882.514L1.227,74.478c-.368.24-.066,1-.829.955a4.861,4.861,0,0,0-.13,3.538c.083.2.276.13.434.2.1.307.012.734.411.914.435.2.634.624.938.946.278.293.658.454.879.84.158.274.645.376.762.651.158.368.5.5.636.807h.5c.174.1.1.235.129.349a4.73,4.73,0,0,0,2.42.374,2.372,2.372,0,0,0,1.311-.648A1.808,1.808,0,0,1,9.3,83.1a.882.882,0,0,0,.595-.508c.321-.616,1.107-.816,1.367-1.494.63.051.482-.692.857-.851a1.4,1.4,0,0,0,.861-.865.424.424,0,0,1,.528-.25c.1-.663.641-1.287.081-1.977a1.2,1.2,0,0,0-.755-.488,1.767,1.767,0,0,0-.722.008c-1.334.562-2.082,1.8-3.111,2.713-.639.569-1.194,1.23-1.855,1.777a1.278,1.278,0,0,1-.415.246.624.624,0,0,1-.416-.22,17.676,17.676,0,0,1-1.5-1.477c-.66-.63-1.309-1.269-1.922-1.943-.1-.128-.227-.237-.212-.445a1.319,1.319,0,0,1,.245-.392c3.8-3.961,7.746-7.774,11.622-11.657a1.111,1.111,0,0,1,.711-.375A16.9,16.9,0,0,1,17.53,67a15.77,15.77,0,0,1,1.711,1.84c-.381.982-1.312,1.513-1.962,2.274s-1.6,1.31-1.95,2.339a1.753,1.753,0,0,0-.015.723,1.184,1.184,0,0,0,.493.761c.631.565,1.249.018,1.9-.046-.015-.687.966-.595,1.022-1.1.078-.709,1.009-.437,1.053-1.157.031-.5.866-.373,1.018-1.025.105-.453.963-.485,1.066-1.122a2.43,2.43,0,0,0,1.112-1.111c.683-.046.628-.981,1.128-1.051.687-.1.444-.97,1.037-1.017.648-.052.424-1.074,1.185-1,.154-.381.032-.925.576-1.02v-.94c.5-.48-.009-1.247.493-1.725.339-.331.385-.882.933-1.081.462-.167.541-.789,1.024-1.027a1.134,1.134,0,0,0,.618-.841h.735a1.964,1.964,0,0,0,1.53,1.015c.151.237.162.665.531.687a1.363,1.363,0,0,1,1.176.726c.131.208.588.187.8.376.243.218.549.059.752.177.038.177.063.289.095.435.739-.069,1.2.643,1.911.565.009.175.014.254.023.433.8-.146,1.429.442,2.2.505.189.251.554.237.74.493a10.1,10.1,0,0,1,1.919.361,5.109,5.109,0,0,0,1.04.132c.243.335.746.151.986.492.651-.155,1.233.225,1.858.243a5.954,5.954,0,0,1,1.823.043,7.2,7.2,0,0,0,2.363.2,8.183,8.183,0,0,0,2.439-.033,26.238,26.238,0,0,1,2.846-.229,7.005,7.005,0,0,1,1.74-.223c.187-.254.552-.241.739-.492a2.489,2.489,0,0,0,1.249-.224c.313-.174.78.125,1.119-.254.09-.1.389-.015.591-.015.187-.255.552-.242.74-.493.743-.036,1.345-.639,2.081-.5.18-.105.127-.24.149-.451.679.12,1.11-.609,1.818-.534.189-.076.116-.269.223-.494.683.219,1.084-.625,1.781-.483.189-.323.18-.779.689-.745.467.032.613-.278.7-.666.241-.193.67.095.847-.332.136-.328.487-.2.746-.26.162-.8,1.249-.809,1.309-1.614.468-.124.991-.059,1-.694.708-.133.856-.929,1.445-1.212.368-.176.407-.753.73-.858.528-.171.524-.518.576-.919a.379.379,0,0,1,.251-.252c.517-.073.651-.5.856-.865.11-.2.32-.21.567-.266-.28-.689.793-.888.485-1.564.387-.159.784-.223.76-.7s.333-.569.669-.687a8.811,8.811,0,0,1,.823-1.922,11.215,11.215,0,0,0,.817-1.935l.344-.089a22.069,22.069,0,0,0,.6-2.61l.417-.086c-.032-.982.6-1.876.522-2.917.336-.243.151-.746.493-.986-.142-.649.3-1.206.272-1.858-.023-.571-.224-1.189.2-1.746.118-.155.018-.477.018-.721,0-1.632-.045-3.267.023-4.9.026-.619-.365-1.114-.289-1.738a2.323,2.323,0,0,0-.209-1.621c-.111-.174-.018-.478-.018-.723-.293-.233-.236-.567-.252-.882a.759.759,0,0,0-.241-.6c-.183-.952-.366-1.9-.546-2.838-.891-.512-.67-1.52-1.021-2.284l-.312-.081a.675.675,0,0,1-.09-.207,4.125,4.125,0,0,0-.913-2.066,2.673,2.673,0,0,1-.6-1.584l-.374-.084c-.211-.233.069-.66-.335-.843-.319-.144-.244-.472-.26-.745-.513-.24-1.041-.463-.97-1.247-.653-.113-.721-.744-1.051-1.18A3.052,3.052,0,0,0,75.573,10.9c-.548-.229-.56-1.05-1.26-1.061-.095-.615-.831-.722-1.011-1.16-.243-.593-1-.615-1.135-1.23-.51-.17-1.061-.286-1.195-.975a1.134,1.134,0,0,1-1.212-.942c-.2-.189-.631.084-.816-.309-.148-.313-.468-.257-.773-.262-.047-.136-.1-.278-.148-.42a4.444,4.444,0,0,1-1.7-.917,3.287,3.287,0,0,0-2.068-.63.3.3,0,0,1-.115-.319c-.664-.529-1.736-.167-2.327-1.078-.852-.344-1.9-.243-2.855-.567a.766.766,0,0,0-.6-.24c-.313-.017-.648.041-.883-.253-.617.185-1.128-.286-1.736-.268-.535.016-1.109.2-1.628-.207C53.967-.061,53.642.04,53.4.04c-1.633,0-3.269.04-4.9-.019-.653-.024-1.2.344-1.861.286A2.614,2.614,0,0,0,44.89.515c-.175.111-.479.017-.725.017-.24.341-.743.157-.987.493a4,4,0,0,0-1.934.382c-.33.124-.639,0-.962.17-.036.1-.088.244-.123.344l-2.736.669c.043-.015.1.174.057.312a11.194,11.194,0,0,0-1.945.81,6.122,6.122,0,0,1-1.818.764c-.227.275-.24.778-.774.739-.485-.035-.549.358-.68.682-.229.148-.564-.068-.762.254a.538.538,0,0,1-.812.2c-.026.935-1.264.791-1.232,1.7-.462.182-1.074.077-1.092.754-.735.1-.862.908-1.44,1.22-.456.246-.6.869-1.122,1.105-.276.124-.04.457-.227.732-.795.025-.751,1.174-1.573,1.3-.151.228.069.563-.254.762-.248.153-.433.392-.26.705-.3.266-.817.269-.777.8.037.485-.354.552-.678.682a8.156,8.156,0,0,1-.824,1.908,11.075,11.075,0,0,0-.81,1.943l-.346.088c-.209.852-.42,1.709-.644,2.614l-.361.075c-.014,1.057-.569,2.055-.528,3.164-.252.189-.238.554-.493.739.156.651-.225,1.232-.243,1.857a5.913,5.913,0,0,1-.042,1.822,7.579,7.579,0,0,0-.2,2.483,8.655,8.655,0,0,0,.033,2.56,13.555,13.555,0,0,1,.2,2.847c.026.509.423.951.252,1.489.341.24.157.743.493.986" transform="translate(0 0)"/>
          <path id="Trazado_114518" data-name="Trazado 114518" d="M4.183,72.17a3.406,3.406,0,0,0,1.48,1.478.715.715,0,0,0,.987,0c.15-.033.3.046.46-.078.313-.248.416-.7.718-.881a1.767,1.767,0,0,0,.8-.8c.151-.323.565-.345.8-.618.176-.2.115-.565.564-.649.31-.058.485-.671.737-.84.27-.181.478-.531.851-.572a.434.434,0,0,1,.739,0c.262.036.426.367.74.246.25-.4.3-.966.919-1.052a.369.369,0,0,0,.246-.246c.086-.624.656-.669,1.053-.919.121-.313-.21-.477-.246-.738a.433.433,0,0,1,0-.739c.34-.331.385-.883.935-1.082.462-.166.545-.781,1.021-1.032.309-.163.454-.612.749-.827.322-.236.67-.4.754-.845.037-.2.271-.11.388-.189a.65.65,0,0,0,.268-.91,10.894,10.894,0,0,1-1.894-1.768c-.578-.188-.93.184-1.278.531Q10.269,65.331,4.581,71.037c-.3.3-.754.587-.4,1.134" transform="translate(0.528 7.696)" fill="#fe7f85"/>
          <path id="Trazado_114519" data-name="Trazado 114519" d="M17.476,50.662h1.6c.194-.175.1-.345.127-.493H17.6c-.194.175-.1.345-.127.493" transform="translate(2.277 6.538)" fill="#8d8e8f"/>
          <path id="Trazado_114520" data-name="Trazado 114520" d="M24.3,55.4h-.44a11.087,11.087,0,0,0-.053,1.725h.44A11.086,11.086,0,0,0,24.3,55.4" transform="translate(3.101 7.219)" fill="#8d8f8f"/>
          <rect id="Rectángulo_37061" data-name="Rectángulo 37061" width="0.987" height="0.493" transform="translate(43.426 65.576)" fill="#717272"/>
          <rect id="Rectángulo_37062" data-name="Rectángulo 37062" width="0.493" height="0.986" transform="translate(83.128 39.953)" fill="#626363"/>
          <rect id="Rectángulo_37063" data-name="Rectángulo 37063" width="0.493" height="0.986" transform="translate(18.027 39.707)" fill="#656666"/>
          <rect id="Rectángulo_37064" data-name="Rectángulo 37064" width="0.493" height="0.739" transform="translate(19.014 43.649)" fill="#9d9e9f"/>
          <rect id="Rectángulo_37065" data-name="Rectángulo 37065" width="0.493" height="0.739" transform="translate(18.027 25.909)" fill="#666667"/>
          <path id="Trazado_114521" data-name="Trazado 114521" d="M73.544,22.936v.739h.493v-.739a.334.334,0,0,0-.493,0" transform="translate(9.584 2.974)" fill="#3f4040"/>
          <rect id="Rectángulo_37066" data-name="Rectángulo 37066" width="0.493" height="0.739" transform="translate(83.128 25.17)" fill="#bfc0c1"/>
          <rect id="Rectángulo_37067" data-name="Rectángulo 37067" width="0.739" height="0.493" transform="translate(57.482 65.576)" fill="#757677"/>
          <rect id="Rectángulo_37068" data-name="Rectángulo 37068" width="0.739" height="0.493" transform="translate(39.727 64.591)" fill="#a5a6a7"/>
          <rect id="Rectángulo_37069" data-name="Rectángulo 37069" width="0.739" height="0.493" transform="translate(61.182 64.591)" fill="#8d8f8f"/>
          <path id="Trazado_114522" data-name="Trazado 114522" d="M76.967,27.838c-.1-.45.151-.916-.218-1.382-.229-.292.127-.833-.252-1.237-.142-.15-.023-.546-.023-.831-.255-.185-.242-.55-.494-.739a8.8,8.8,0,0,0-.483-2.013c-.068-.307-.355-.115-.48-.31.064-.814-.479-1.5-.587-2.3-.949-.118-.3-1.588-1.257-1.572-.45-.58-.1-1.513-1.1-1.749a1.222,1.222,0,0,0-.982-1.244,1.747,1.747,0,0,0-.736-1.368c-.321-.284-.714-.452-.813-.921-.562-.106-.722-.509-.779-1.013a.376.376,0,0,0-.252-.252c-.5-.055-.908-.216-1.014-.779-.469-.1-.639-.491-.922-.812a1.749,1.749,0,0,0-1.368-.735c-.217-.546-.486-1.02-1.19-.946-.384-.72-.43-.746-1.771-1.029-.113-1.015-1.494-.527-1.7-1.432-.788-.008-1.425-.64-2.117-.509-.677-.859-1.6-.8-2.421-.97-.189-.251-.554-.237-.739-.493-.379-.059-.756.093-1.142-.218-.264-.215-.731.047-1.142-.173-.492-.264-1.1-.066-1.663-.1-.315-.4-.92-.084-1.233-.493H43.677a32.021,32.021,0,0,0-8.968,4.569A7.927,7.927,0,0,0,32.141,9.14a.705.705,0,0,0,.164.53c.834.385,1.4-.3,1.994-.6a31.569,31.569,0,0,1,5.886-2.239,1.519,1.519,0,0,1,1.07-.313,39.183,39.183,0,0,1,10.732,0,1.476,1.476,0,0,1,1.058.29A25.47,25.47,0,0,1,60.926,10.1a27.9,27.9,0,0,1,6.766,5.984,43.077,43.077,0,0,1,2.791,4.17,22.958,22.958,0,0,1,2.358,6.286,1.563,1.563,0,0,1,.342.952c.059,1.094.653,2.236-.306,3.234a2.26,2.26,0,0,0-.357.718,4.614,4.614,0,0,0,.272,3.09,2.52,2.52,0,0,1,.575,2.375c-.053.523-.2,1.036-.2,1.567a1.445,1.445,0,0,1-.319.983A28.236,28.236,0,0,1,67.214,50.5a25.533,25.533,0,0,1-8.031,6.35,28.844,28.844,0,0,1-6.16,2.373,1.708,1.708,0,0,1-1.264.283A52.032,52.032,0,0,1,41.551,59.5a1.522,1.522,0,0,1-1.1-.3,26.33,26.33,0,0,1-6.028-2.21,3.51,3.51,0,0,0-1.3-.311.837.837,0,0,0-.535.159c-.054.843.632,1.164,1.154,1.57a34.334,34.334,0,0,0,9.309,5.072c.361.14.815-.034,1.112.326h5.179c.394-.459,1.083-.04,1.48-.493.61,0,1.334.206,1.8-.053.556-.306,1.2.062,1.675-.42.121-.122.47-.019.714-.019.187-.254.552-.241.74-.492a18.064,18.064,0,0,1,2.363-.518c.136-.079.094-.21.1-.327a5.663,5.663,0,0,1,1.594-.554c.417-.113.29-.864.855-.573a2.9,2.9,0,0,1,.968-.335c.324-.119.51-.565.7-.6A1.257,1.257,0,0,0,63.162,59c.163-.2.381-.07.6-.144.213-.235.21-.754.747-.713.482.037.556-.346.677-.66l1.4-.665c-.031-.757.878-.781,1.194-1.381a4.124,4.124,0,0,1,1.277-1.269c.522-.374.665-1.168,1.41-1.221.358-.569.392-1.33,1.122-1.629.21-.086.2-.312.211-.523.017-.393.307-.517.649-.57.235-.174-.086-.534.173-.654.458-.215.239-.835.639-1.025.449-.214.4-.692.623-1.023a2.484,2.484,0,0,1,.59-.61c.139-.107-.019-.544.28-.722-.116-.576.223-1.052.346-1.572l.423-.093c-.346-.892.777-1.43.443-2.3l.517-.187c-.141-1.333.589-2.538.491-3.853a.814.814,0,0,0,.241-.627c.038-.376-.1-.792.252-1.1v-6.9c-.349-.3-.215-.72-.252-1.1a.815.815,0,0,0-.241-.628" transform="translate(4.188 0.288)" fill="#daecfe"/>
          <path id="Trazado_114523" data-name="Trazado 114523" d="M45.066,63.318a2.015,2.015,0,0,0-1.567-.492,1.221,1.221,0,0,0-.907-.734c-.524-.146-1.107-.148-1.414-.735a1.1,1.1,0,0,0-.39-.2c-.487-.144-1.039-.1-1.4-.575-.309-.41-.913-.384-1.231-.727a4.448,4.448,0,0,0-1.675-1.032c-.072-.572-.459-.763-1.027-.677a2.271,2.271,0,0,0-.995-1.232.938.938,0,0,0-.232-.853A31.785,31.785,0,0,1,24.945,46.1a25.11,25.11,0,0,1-2.666-6.951A1.474,1.474,0,0,1,22,38.086,51.7,51.7,0,0,1,22,27.92a1.636,1.636,0,0,1,.277-1.252,31.851,31.851,0,0,1,2.265-5.938,25.184,25.184,0,0,1,6.95-8.624,6.631,6.631,0,0,0,2.163-1.961,3.534,3.534,0,0,0,.558-1.031c.115-.432.435-.522.833-.492.206-.252.224-.659.647-.746a.573.573,0,0,0,.505-.658c.328-.137.714.029.893-.359.153-.33.5-.158.734-.218.135-.374.224-.746.689-.727s.563-.339.683-.67a9.032,9.032,0,0,0,1.92-.814A6.991,6.991,0,0,1,42.94,3.7c.2-.084.124-.277.188-.406.66-.194,1.318-.381,1.97-.587a.612.612,0,0,0,.461-.488H44.327c-.241.341-.744.158-.987.493a9.107,9.107,0,0,0-2.529.417,8.609,8.609,0,0,1-1.334.11c-.11.066-.079.194-.087.411-.868-.112-1.491.732-2.4.523-.041.184-.066.3-.094.422-.688.192-1.382.4-2.084.576-.41.106-.54.547-.917.7-.328.136-.751.14-.918.553a.777.777,0,0,1-.1.2c-.625-.164-.875.735-1.508.524-.2.307-.228.807-.78.738s-.426.659-.9.762a4.68,4.68,0,0,0-1.07.565,2.458,2.458,0,0,1-.957.975c-.33.222-.511.675-.94.946-.371.235-.571.731-1.029,1.022-.33.209-.445.792-1.006.959l-.686,1.347c-.189.149-.684.166-.649.7.031.478-.357.55-.7.684-.021.185,0,.523-.076.549-.555.181-.253.865-.722,1.118-.382.206-.444.647-.5,1.084-.029.245-.358.4-.671.436a13.767,13.767,0,0,1-.614,2.4l-.392.019a14.306,14.306,0,0,1-.515,2.448c-.252.188-.238.553-.494.739.128.453-.251.8-.258,1.237-.006.378.136.771-.211,1.137-.142.149-.024.545-.024.83a1.144,1.144,0,0,0-.244.887c-.069.528.175,1.1-.249,1.576v5.421c.307.258.232.615.248.949.014.357-.052.732.245,1.022.069.5-.163,1.04.163,1.517.275.4-.138.94.309,1.35.141.13.021.545.021.829.255.186.242.552.494.739.191.739.381,1.48.565,2.191.15.055.294-.038.392.165a3.057,3.057,0,0,0,.54,1.793,2.831,2.831,0,0,1,.73,1.65c.327.076.089.7.589.607a4.658,4.658,0,0,1,.682,1.648c.106.171.536.073.6.368.2.9,1.257,1.292,1.378,2.35.709-.024.8.8,1.35,1.155a5.022,5.022,0,0,1,1.355,1.373c.366.541,1.2.643,1.224,1.325.46.236,1.061.344,1.228.671.348.687,1.417.508,1.5,1.391a3.158,3.158,0,0,1,1.684.945c.388.358.939.283,1.374.566.219.142.616.012.643.458a5.058,5.058,0,0,0,1.736.562c.118,0,.234.017.379.027.025.123.047.236.08.393l2.188.564c.189.252.554.239.74.493.537-.172.98.211,1.484.257.458.041.908-.121,1.39.2.311.206.869.038,1.318.038a.518.518,0,0,0,.739,0" transform="translate(2.306 0.288)" fill="#b4dbfe"/>
          <path id="Trazado_114524" data-name="Trazado 114524" d="M4.418,72.453a.525.525,0,0,1,.263-.624c.685-.3.834-1.212,1.621-1.382.176-.51.633-.732.989-1.07a13.16,13.16,0,0,1,.953-.938c.329-.26.414-.833.969-.913.142-.7.919-.856,1.214-1.434.182-.357.691-.424.87-.73a2.61,2.61,0,0,1,.795-.813c.413-.3.537-.942,1.155-1.039.118-.569.7-.7.988-1.062s.506-.756.983-.908c.115-.777,1.014-.879,1.308-1.528.162-.358.618-.441.962-.616-.088-.355-.563-.388-.645-.572-.313-.7-1.157-.873-1.425-1.6a.517.517,0,0,0-.743-.267c-.388.242-.55.739-1.011.987-.381.206-.457.769-.947.93-.406.133-.346.729-.849.87-.359.1-.44.67-.732.851-.389.241-.728.444-.822.914-.732.1-.862.9-1.436,1.221-.307.17-.448.624-.746.834-.329.231-.677.4-.755.838-.677.165-.845.911-1.41,1.226-.333.185-.468.7-.737.865-.313.2-.731.43-.771.677-.079.5-.541.382-.758.643-.194.234-.136.668-.641.753a.816.816,0,0,0-.615.928.711.711,0,0,0,0,.986,3.131,3.131,0,0,0,1.092,1.225,1.245,1.245,0,0,1,.511.746Z" transform="translate(0.293 7.414)" fill="#e4646e"/>
          <path id="Trazado_114525" data-name="Trazado 114525" d="M20.958,54.786a3.522,3.522,0,0,0-1.108-1.251c-.214-.136-.518-.3-.37-.63a2.186,2.186,0,0,0-1.71-.272c-.182.634-.912.812-1.268,1.377-.332.529-1.133.687-1.151,1.509a1.822,1.822,0,0,0,1.075,1.322c.17.061.318.5.528.735a.616.616,0,0,0,.552.167.735.735,0,0,0,.864-.266,21.414,21.414,0,0,0,2.588-2.691" transform="translate(2.001 6.849)" fill="#da4654"/>
          <path id="Trazado_114526" data-name="Trazado 114526" d="M20.711,54.53c-.332-.061-.391.26-.563.373a5.573,5.573,0,0,0-1.033,1.016c-.288.314-.774.462-.887.969-.445,0-.583.5-.969.6,0,.2-.044.407.171.541a8.107,8.107,0,0,1,1.39,1.4H20.1c.5-.15.547-.862,1.112-1.135.487-.234.67-.911,1.221-1.122a1.9,1.9,0,0,0-.394-1.582,1.648,1.648,0,0,1-.961-1.058h-.368" transform="translate(2.248 7.105)" fill="#e3636d"/>
          <path id="Trazado_114527" data-name="Trazado 114527" d="M24.693,50.775v-.364c-.5-.231-.974-.493-1.03-1.108h-.556c-.217.27-.22.755-.756.749-.113,0-.305.2-.33.329a.785.785,0,0,1-.682.68c-.387.1-.288.619-.584.834.431.341.578,1,1.225,1.1.788.214,1.043-.5,1.48-.871a5.622,5.622,0,0,0,1.233-1.346" transform="translate(2.705 6.425)" fill="#89c7fb"/>
          <path id="Trazado_114528" data-name="Trazado 114528" d="M24.552,50.606c-.15.033-.328-.078-.456.085-.426.545-1.039.936-1.419,1.483-.244.353-.566.431-.839.65.077.669.8.754,1.078,1.235,1.072-.6,1.6-1.754,2.612-2.37v-.514c-.471.054-.586-.48-.978-.569" transform="translate(2.846 6.594)" fill="#b1d8fb"/>
          <path id="Trazado_114529" data-name="Trazado 114529" d="M42,56.273h-.739v.44a11.1,11.1,0,0,0,1.726.053v-.493Z" transform="translate(5.376 7.333)" fill="#94b3ce"/>
          <path id="Trazado_114530" data-name="Trazado 114530" d="M17.694,27.247h.425a6.711,6.711,0,0,0,.068-1.478.334.334,0,0,0-.493,0Z" transform="translate(2.306 3.344)" fill="#95b6d2"/>
          <path id="Trazado_114531" data-name="Trazado 114531" d="M48.844,56.273H47.489c-.192.177-.1.345-.125.493h1.354c.192-.177.1-.345.125-.493" transform="translate(6.172 7.333)" fill="#aebccb"/>
          <path id="Trazado_114532" data-name="Trazado 114532" d="M18.187,33.758V32.526a.334.334,0,0,0-.493,0v1.108c.18.19.346.1.493.124" transform="translate(2.306 4.224)" fill="#546676"/>
          <path id="Trazado_114533" data-name="Trazado 114533" d="M72.292,32.513H71.8V33.5a.334.334,0,0,0,.493,0Z" transform="translate(9.357 4.237)" fill="#98a4b1"/>
          <path id="Trazado_114534" data-name="Trazado 114534" d="M71.8,25.551v.986h.493v-.986a.334.334,0,0,0-.493,0" transform="translate(9.357 3.315)" fill="#9eabb8"/>
          <rect id="Rectángulo_37070" data-name="Rectángulo 37070" width="0.493" height="0.986" transform="translate(20 28.127)" fill="#242c33"/>
          <path id="Trazado_114535" data-name="Trazado 114535" d="M2.48,69.029v-.986H2.108c-.281.276-.014.606-.131.843.177.217.353.112.5.142" transform="translate(0.257 8.867)" fill="#6c2f34"/>
          <rect id="Rectángulo_37071" data-name="Rectángulo 37071" width="0.739" height="0.493" transform="translate(41.701 62.621)" fill="#43515e"/>
          <rect id="Rectángulo_37072" data-name="Rectángulo 37072" width="0.739" height="0.493" transform="translate(59.208 62.621)" fill="#5f676e"/>
          <rect id="Rectángulo_37073" data-name="Rectángulo 37073" width="0.493" height="0.739" transform="translate(20.987 41.678)" fill="#4a5a68"/>
          <rect id="Rectángulo_37074" data-name="Rectángulo 37074" width="0.493" height="0.739" transform="translate(81.156 28.127)" fill="#4d535a"/>
          <rect id="Rectángulo_37075" data-name="Rectángulo 37075" width="0.493" height="0.739" transform="translate(20.987 24.184)" fill="#5a6d7f"/>
          <rect id="Rectángulo_37076" data-name="Rectángulo 37076" width="0.493" height="0.739" transform="translate(80.169 23.938)" fill="#6b747c"/>
          <rect id="Rectángulo_37077" data-name="Rectángulo 37077" width="0.493" height="0.739" transform="translate(81.156 37.736)" fill="#444a50"/>
          <path id="Trazado_114536" data-name="Trazado 114536" d="M11.453,68.1v-.366c-.192-.231-.431-.112-.657-.088-.157.13-.053.3-.083.454Z" transform="translate(1.395 8.809)" fill="#ee777d"/>
          <path id="Trazado_114537" data-name="Trazado 114537" d="M13.825,64.992h-.366c-.232.192-.112.431-.088.656.129.158.3.053.454.084Z" transform="translate(1.736 8.469)" fill="#d26a6f"/>
          <rect id="Rectángulo_37078" data-name="Rectángulo 37078" width="0.493" height="0.739" transform="translate(20 36.011)" fill="#97b8d5"/>
          <path id="Trazado_114538" data-name="Trazado 114538" d="M73.587,33.854c-.043-.264-.281-.433-.262-.756.049-.813.016-1.631.016-2.447-.153-.255-.445-.367-.615-.6a7.265,7.265,0,0,0-.517-.522.888.888,0,0,1-.278-.8c.008-.228.014-.454.018-.683a8.793,8.793,0,0,0-.6-2.951,2,2,0,0,1-.424-.966,20.44,20.44,0,0,0-4.438-7.979,27.547,27.547,0,0,0-4.579-4.252,17.674,17.674,0,0,0-6.439-3.218,2.345,2.345,0,0,1-.991-.414,12.443,12.443,0,0,0-3.051-.615c-.326,0-.651,0-.975,0a2.475,2.475,0,0,1-1.657-.375,6.845,6.845,0,0,0-2.851-.024,5.229,5.229,0,0,1-1.211.517,28.423,28.423,0,0,0-10.208,7.08c-.28.313-.761.592-.358,1.135a1.03,1.03,0,0,0,.909.071,2.726,2.726,0,0,1,2.706-.031c3.9.853,5.855,3.531,6.788,7.181a4.2,4.2,0,0,0,.26.813,1.584,1.584,0,0,1,.284,1.222c-.016,1.153-.021,2.306,0,3.458a1.675,1.675,0,0,1-.3,1.259,20.533,20.533,0,0,0-.656,2.981,1.706,1.706,0,0,1-.34,1.006c-.2.712-.237,1.455-.373,2.18-.29,1.552-.728,2.03-2.246,2.359a6.753,6.753,0,0,0-1.3.357,1.618,1.618,0,0,1-1,.349,16.237,16.237,0,0,0-3.159.617c-.314.159-.593.411-.986.364-2.063.009-2.817-.549-3.386-2.566-.442-1.561-.978-3.091-1.45-4.642a1.548,1.548,0,0,1-.376-.969A3.124,3.124,0,0,0,29.1,30.5c-.287-.336-.569-.7-1.041-.243a7.866,7.866,0,0,0-.094,3.662,2.854,2.854,0,0,1,.4,1.88A22.52,22.52,0,0,0,34.1,48.985a.64.64,0,0,0,.564-.049c.4-1.278-.524-2.257-.763-3.391-.1-.2-.3-.354-.336-.6,0-.21.158-.346.243-.517A2.9,2.9,0,0,1,36.1,42.623a1.393,1.393,0,0,1,.928-.31,20.538,20.538,0,0,0,3.959-.787c1.126-.424,1.881-.053,2.8,1.151a1.607,1.607,0,0,1,.411.936,5.805,5.805,0,0,0,.612,1.984c1.456,2.2-.026,5.828-3.035,6.748-.353.107-.723.141-1.07.264a.888.888,0,0,1-1.059.014.926.926,0,0,0-.869.155c-.275.622.184.91.58,1.181a20.252,20.252,0,0,0,6.115,3.018,5.2,5.2,0,0,1,1.369.5,4.963,4.963,0,0,0,2.412.012,2.25,2.25,0,0,1,1.409-.389,22.209,22.209,0,0,0,12.9-5.655A24.656,24.656,0,0,0,70.275,42.5a10.17,10.17,0,0,0,.647-1.847,2.238,2.238,0,0,1,.408-1,12.791,12.791,0,0,0,.618-2.987c0-.241,0-.482,0-.721a1.386,1.386,0,0,1,.306-1.073c.209-.647.922-.639,1.333-1.024" transform="translate(3.623 0.926)" fill="#fe7f85"/>
          <path id="Trazado_114539" data-name="Trazado 114539" d="M71.522,40.746c-.037.705-.561,1.26-.522,1.932l-.417.086c-.084.94-.139,1.029-.937,1.966a1.218,1.218,0,0,0-.323.715c.011.532-.319.676-.777.81.232.606-.479.826-.547,1.337-.5-.04-.5.46-.632.706-.115.21-.231.5-.4.544a.776.776,0,0,0-.628.6c-.106.331-.474.371-.726.541-.3.2-.237.753-.617.831-.433.089-.562.354-.685.7a.43.43,0,0,1-.255.254c-.852.163-1.192,1.121-2.031,1.292a1.2,1.2,0,0,1-.238,0c-.208.151-.089.465-.349.607-.4.219-.905.18-1.255.518a3.753,3.753,0,0,1-1.1.595,1.044,1.044,0,0,0-.876.575c-.141.313-.437.087-.634.189a4.606,4.606,0,0,1-2.028.492c-.027.133-.051.245-.092.448-.636-.066-1.218.361-1.915.281-.674-.076-1.294.417-1.99.237-.313.409-.918.09-1.233.493H47.6a31.794,31.794,0,0,0-3.41-.84c-7.939-1.216-13.643-5.624-17.611-12.419a19.03,19.03,0,0,1-2.405-6.784,5.863,5.863,0,0,0-.34-1.432,2.808,2.808,0,0,1-.288-1.849c.036-1.031.032-2.061.006-3.09a2.815,2.815,0,0,1,.263-1.833c.479-1.6.639-3.261,1.237-4.849a25.308,25.308,0,0,1,4.782-8.054A27.378,27.378,0,0,1,36.5,11c1.091-.641,2.317-1.017,3.445-1.591a1.272,1.272,0,0,1,.953-.356,13.8,13.8,0,0,0,2.946-.634,1.777,1.777,0,0,1,1.231-.346c.51-.132,1.084.032,1.539-.338h3.207c.374.348.842.214,1.276.245.406.035.85-.11,1.189.248a6.864,6.864,0,0,1,2.168.37c.357.085.7.058,1.038.123.189.252.554.238.74.493.741.032,1.341.647,2.075.494.18.1.133.236.156.446.667-.092,1.11.587,1.81.545.437.746.477.769,1.772,1,.437.814.45.824,1.255.983.025.826,1.263.683,1.232,1.509.324.341.749.1,1.023.487A4.139,4.139,0,0,1,66.4,16.1c.753.127.911,1.035,1.639,1.386-.034.569.319.934.93,1.137.37.531.033,1.515,1.049,1.758-.082.715.651,1.17.56,1.885l.435.02c-.14.8.443,1.43.508,2.2.255.185.242.55.493.739-.063.634.415,1.2.246,1.845.477.381.148.908.248,1.358.293.234.236.569.252.883a.759.759,0,0,0,.241.6.6.6,0,0,0,.493.493.713.713,0,0,0,.987,0c.306.042.545-.06.736-.487-.105-.644.211-1.467-.227-2.252-.1-.182-.016-.471-.016-.711-.254-.185-.241-.55-.493-.739A6.473,6.473,0,0,0,74.1,24.03a7.659,7.659,0,0,0-.141-.933c-.072-.119-.2-.086-.406-.095.047-.5-.253-.91-.345-1.41-.073-.4-.028-1.035-.685-1.159.119-.322-.335-.417-.275-.754.084-.475-.34-.549-.58-.643-.443-.613-.033-1.637-1.122-1.744v-.535c-.287-.274-.477-.659-.92-.7-.212-.448-.424-.891-.645-1.356a2.06,2.06,0,0,1-.957-.9c-.246-.366-.725-.586-1.026-1.026-.224-.326-.772-.467-.961-1.011L64.714,11.1c-.1-.187-.2-.644-.479-.627-.7.041-.857-.446-.986-.9L61.72,9.148c-.214-.833-1.395-.522-1.616-1.4-.908.093-1.646-.624-2.585-.527-.029-.142-.052-.254-.087-.419a15.367,15.367,0,0,0-2.924-.552c-.189-.251-.554-.237-.74-.492-.692.177-1.3-.266-1.979-.25a5.544,5.544,0,0,1-1.943-.037,9.642,9.642,0,0,0-2.607-.2c-.555-.054-1.024.364-1.614.263a3.409,3.409,0,0,0-1.578.015,5.3,5.3,0,0,1-1.622.214c-.186.254-.552.241-.74.492a4.187,4.187,0,0,0-1.928.375c-.326.112-.628.027-.953.149-.042.118-.092.26-.156.443-.58-.06-1.089.294-1.648.362-.472.058-.428.632-.938.685a8.331,8.331,0,0,0-1.165.388c-.394.112-.264.446-.491.555h-.611c-.235.118-.523.075-.74.246-.244-.019-.246.151-.245.319a.688.688,0,0,1-.13.442c-.28.391-.926.1-1.143.715-.111.319-.613.511-.955.732-.087.057-.241.009-.364.009a2.442,2.442,0,0,1-1,1.076c-.33.232-.544.658-.943.944-.365.262-.494.867-1.065.985-.025.031-.077.068-.071.09.159.621-.562.827-.627,1.339-.529.043-.579.4-.634.836-.032.251-.341.414-.644.445-.2.183.092.6-.174.644-.653.1-.026,1.065-.766,1.038a8.938,8.938,0,0,1-.539,1.251c-.14.231.077.51-.161.673-.14.1-.319.029-.427.3-.235.579-.3,1.19-.472,1.775a.776.776,0,0,1-.133.19h-.327c0,1.01-.492,1.934-.523,2.952-.336.243-.151.746-.494.986.13.927-.362,1.783-.267,2.723s.02,1.88.02,2.82.051,1.885-.015,2.822c-.06.851.393,1.63.261,2.475.255.187.242.552.494.739a6.179,6.179,0,0,0,.385,2.183c.094.321-.011.636.142.922.072.136.206.088.4.105-.05.5.39.888.314,1.428-.014.095.122.2.128.309.02.44.611.44.656.957a2.939,2.939,0,0,0,.354,1.07c.217.39.667.56.8,1,.114.385.2.76.662.964.172.075.249.556.4.779.137.2.1.509.422.651.468.209.5.975,1.246,1-.038.4.258.694.4,1.03a1.287,1.287,0,0,0,.737.637c.367.192.192.766.752.83.285.033.463.572.914.418.31.387.424.962,1.048,1.008.163.487.611.6,1.025.771.06.431.42.65.686.938h.616a2.587,2.587,0,0,0,.739.739c.264.044.436.283.757.267.417-.019.513.11,1.292.66a1.206,1.206,0,0,0,.727.284c.557-.075.9.46,1.4.284.017.215.023.294.035.443,1.079.01,2.074.57,3.182.527.189.252.554.238.74.493.927-.13,1.784.362,2.725.267s1.881-.02,2.822-.02,1.886-.051,2.824.015c.852.06,1.632-.392,2.479-.261.24-.341.743-.157.987-.493a4.183,4.183,0,0,0,1.934-.378c.324-.113.631-.023.951-.151.044-.121.095-.263.156-.431a2.787,2.787,0,0,0,1.936-.564,5.564,5.564,0,0,1,1.415-.729c.245-.121.722.016.789-.541.043-.367.717.041.879-.443.12-.356.51-.129.761-.271.1-.147.078-.346.232-.509.29-.3.945-.023,1-.511.059-.556.661-.362.807-.758.1-.28.45-.043.653-.176.155-.529.652-.721.986-1.066.312-.322.619-.631.943-.942.345-.332.537-.83,1.066-.986.133-.2-.1-.549.177-.652.4-.146.2-.747.758-.806.489-.053.207-.706.512-1,.163-.155.362-.136.531-.246a1.03,1.03,0,0,1,.419-.928c.275-.177-.136-.781.505-.784.116,0,.27-.434.337-.685a3.29,3.29,0,0,1,.7-1.429,2.813,2.813,0,0,0,.563-1.966l.442-.092c-.036-.986.6-1.877.52-2.916.252-.188.238-.553.493-.739-.034-1.1.425-2.157.251-3.268a3.371,3.371,0,0,1,0-.543c-.218-.263-.41-.466-.739-.378H73.425c-.467.194-.451.588-.424.986a.993.993,0,0,0-.244.8c-.016.324.053.671-.249.919a6.857,6.857,0,0,1-.37,2.167c-.086.356-.058.7-.124,1.036-.251.189-.237.553-.493.739" transform="translate(2.728 0.686)"/>
          <path id="Trazado_114540" data-name="Trazado 114540" d="M68.422,27.5h-.987v.493h.74c.368-.021.209-.306.246-.493" transform="translate(8.788 3.583)" fill="#7b4d52"/>
          <rect id="Rectángulo_37079" data-name="Rectángulo 37079" width="0.987" height="0.493" transform="translate(56.249 59.664)" fill="#6c747d"/>
          <path id="Trazado_114541" data-name="Trazado 114541" d="M33.053,50.69c0-.266.051-.543-.38-.515-.113.008-.168-.253-.359-.224.094.243-.229.624.246.739Z" transform="translate(4.208 6.509)" fill="#d2e4f7"/>
          <rect id="Rectángulo_37080" data-name="Rectángulo 37080" width="0.739" height="0.493" transform="translate(44.66 59.664)" fill="#666f77"/>
          <rect id="Rectángulo_37081" data-name="Rectángulo 37081" width="0.493" height="0.739" transform="translate(77.21 38.968)" fill="#575e65"/>
          <rect id="Rectángulo_37082" data-name="Rectángulo 37082" width="0.493" height="0.739" transform="translate(77.21 26.895)" fill="#494f55"/>
          <path id="Trazado_114542" data-name="Trazado 114542" d="M31.656,9.057c.243-.094.624.228.739-.246V8.318l-.739.739" transform="translate(4.125 1.084)" fill="#d2e8fe"/>
          <rect id="Rectángulo_37083" data-name="Rectángulo 37083" width="0.493" height="0.986" transform="translate(23.945 26.895)" fill="#617688"/>
          <rect id="Rectángulo_37084" data-name="Rectángulo 37084" width="0.493" height="0.739" transform="translate(23.946 38.721)" fill="#6a8196"/>
          <path id="Trazado_114543" data-name="Trazado 114543" d="M43.644,7.91a6.863,6.863,0,0,0-2.168.368c-.356.086-.7.059-1.038.124-.187.254-.552.241-.74.493-.705.037-1.261.561-1.933.522-.042.2-.064.313-.086.416-.942.084-1.03.14-1.968.936a1.208,1.208,0,0,1-.715.323c-.534-.01-.676.319-.81.775-.608-.231-.827.48-1.338.547.04.5-.461.5-.708.631-.211.116-.5.231-.545.4a.772.772,0,0,1-.6.627c-.332.106-.371.475-.543.726-.2.3-.753.237-.832.617-.089.432-.354.562-.7.684a.436.436,0,0,0-.254.255c-.163.852-1.122,1.191-1.293,2.029a1.214,1.214,0,0,0,0,.24c-.151.208-.465.088-.607.348-.22.4-.18.905-.519,1.254a3.709,3.709,0,0,0-.595,1.094,1.044,1.044,0,0,1-.576.876c-.313.14-.087.436-.189.633a4.616,4.616,0,0,0-.493,2.026l-.448.093c.066.635-.361,1.216-.281,1.912.076.674-.417,1.293-.237,1.989-.5.48.008,1.246-.494,1.725v3.449c.5.479,0,1.244.494,1.725a3.468,3.468,0,0,0,.222,1.507c.192.4-.1.921.244,1.38.157.206.027.628.027.916.1.167.229.136.381.141a20.69,20.69,0,0,0,.588,2.185c.1.232-.046.592.409.546q.3.738.595,1.474l1.131,1.953c.661.218.5.945.845,1.363.17.086.338.174.509.257.428.208.029.838.52,1.014.331.12.7.2.7.674a.136.136,0,0,0,.071.09,2.325,2.325,0,0,1,1.2,1.2c.57.057.676.578.928.98.4.144,1,.057,1.024.712.47.413,1.2.339,1.559,1.021.155.3.763.326,1.074.586a2.485,2.485,0,0,0,1.651.725c.095.315.622.093.649.572.019.314.416.084.611.189a5.815,5.815,0,0,0,2.032.52c.021.1.044.214.072.35.745.136,1.512.271,2.281.392a20.382,20.382,0,0,0,2.314.2c.047.185.077.3.127.489h2.157v-.448a12.221,12.221,0,0,1-2.814-.574c-.191-.049-.11-.246-.236-.461-.667.19-1.09-.563-1.794-.543-.167.006.016-.534-.4-.44-.223.05-.357-.137-.53-.2a1.587,1.587,0,0,1-.955-.68c-.162-.277-.645-.363-.981-.543-.225-.121-.177-.341-.175-.543a.335.335,0,0,0-.269-.45,6.14,6.14,0,0,1-3.424-2.865c-.272-.3-.718-.328-.992-.626-.26-.268-.2-.648-.342-.995-.426-.268-1.023-.41-.963-1.147.011-.14-.27-.394-.565-.342-.379-.564-.061-1.53-1.088-1.8.182-.743-.8-1.211-.48-1.943-.129-.238-.269-.156-.431-.2a17.976,17.976,0,0,1-.613-2.654c-.027-.076-.214-.018-.446-.089.127-.644-.342-1.217-.26-1.911.079-.668-.414-1.285-.236-1.977-.5-.478,0-1.244-.493-1.725V30.084a3.731,3.731,0,0,0,.583-.979.7.7,0,0,0-.02-.336A1.772,1.772,0,0,1,29.2,27.6a23.246,23.246,0,0,1,.012-4.65,1.342,1.342,0,0,1,.286-1,8.459,8.459,0,0,1,4.768-5.6c.237-.113.588-.153.5-.565v-.367a2.354,2.354,0,0,0,1.065-.992c.216-.33.674-.511.953-.928.245-.365.815-.531,1.038-1.1l1.32-.642c.148-.223.171-.678.72-.666a.568.568,0,0,0,.59-.608,6.626,6.626,0,0,0,1.753-1.007,2.091,2.091,0,0,1,.713-.336c.519-.149,1.048-.182,1.41-.728.192-.292.779-.146,1.042-.511a.9.9,0,0,0-.757-.241,1.276,1.276,0,0,0-.969.241" transform="translate(2.988 0.999)" fill="#e4646e"/>
          <path id="Trazado_114544" data-name="Trazado 114544" d="M46.985,28.933a4.268,4.268,0,0,0,.366,1.918,7.878,7.878,0,0,1,.127,1.039c.255.185.242.55.494.739-.189.73.3,1.376.254,2.1a3.008,3.008,0,0,0,.327,1.961c.241.193.682.26.677.784.489.073.912.39,1.448.341.505-.045.948.408,1.485.236.244.336.747.151.987.493a6.863,6.863,0,0,1,2.168.368c.357.086.7.059,1.038.124.189.252.554.238.74.493H59.17c.184-.085.125-.271.188-.448.648.023,1.049-.249.962-.974l.461-.1a12.731,12.731,0,0,1,.508-2.421c.251-.188.237-.553.493-.739-.141-.642.362-1.2.246-1.839.417-.264.173-.732.257-1.058l.4-.1c.026-.07.084-.144.075-.209a4.368,4.368,0,0,1,.372-1.915,7.462,7.462,0,0,0,.127-1.036.765.765,0,0,0,.24-.6c.017-.313-.041-.648.253-.883-.18-.814.242-1.556.283-2.357.064-1.263-.415-2.456-.276-3.648-.111-.191-.244-.145-.457-.167.08-.651-.389-1.211-.314-1.863-.2-.185-.335-.413-.692-.364.229-.679-.7-.934-.517-1.653-.7-.04-1.093-.6-1.513-1.013-.328-.319-1.062-.014-1.048-.735-.4-.132-.781-.394-1.241-.275-.391-.46-.918-.162-1.377-.246a2.863,2.863,0,0,0-2.465,0,4,4,0,0,0-2.245.808,2.892,2.892,0,0,1-1.571.691c-.129.249-.209.619-.521.7a.707.707,0,0,0-.607.739c-.026.357-.278.563-.715.5a.968.968,0,0,1-.509,1.07v.856l-.433.089a15.448,15.448,0,0,0-.55,2.923,1.144,1.144,0,0,0-.244.887c-.069.528.175,1.1-.249,1.576v1.232c.353.318.215.744.249,1.133a1.052,1.052,0,0,0,.244.839" transform="translate(6.059 1.904)"/>
          <path id="Trazado_114545" data-name="Trazado 114545" d="M34.118,14.89a.189.189,0,0,1-.194.242c-.541.011-1.072-.026-1.327.64-.1.272-.544-.04-.745.26-.128.189-.293.4-.585.353-.167.787-1,1-1.416,1.591-.2.279.145.94-.552.868-.158.347-.237.766-.4,1.053a2.635,2.635,0,0,0-.2,1.152c-.251.189-.237.554-.493.739a7.334,7.334,0,0,1-.207,2.237,1.655,1.655,0,0,0,.161,1.373c.225.406.046,1.034.046,1.564.341.24.158.743.493.986v.246c-.47.584.145.989.248,1.478,0,.505.419.943.246,1.477.254.187.241.552.493.739-.123.572.4,1.04.26,1.615.437.341.124.841.258,1.239.083.14.216.094.37.106.215.922.432,1.857.649,2.791.018.2.208.14.367.2.121.3.071.662.392.943.235.2.749.156.694.744h2.188c.187-.255.552-.242.74-.493a3.251,3.251,0,0,0,1.365-.233c.389-.145.851.141,1.256-.237.15-.141.547-.023.831-.023.187-.255.552-.242.74-.493a19.573,19.573,0,0,0,2.85-.508c.181-.32.245-.762.758-.757a15.113,15.113,0,0,0,.391-1.92,10.3,10.3,0,0,0,.193-1.989c.251-.188.237-.553.493-.739-.141-.644.367-1.2.246-1.845.477-.381.148-.909.246-1.358.336-.243.151-.746.494-.986V24.006c-.342-.24-.158-.743-.494-.986a3.989,3.989,0,0,0-.382-1.934c-.125-.329,0-.637-.283-1.17.066.111-.068.157-.274.139.037-1.125-1.017-1.71-1.385-2.673-.04-.105-.171-.254-.254-.251-.617.023-.535-.619-1-.981-.224-.1-.858.035-.869-.706a13.368,13.368,0,0,0-2.7-.554,3.351,3.351,0,0,0-2.712,0Z" transform="translate(3.637 1.903)"/>
          <path id="Trazado_114546" data-name="Trazado 114546" d="M34.221,45.709c.538-.031-.072.9.618.74.167.335.336.669.529,1.055l1.068.541c-.08.7.652.18.853.569.137.261.712-.225.877.3h.986a.529.529,0,0,0,.74,0,4.983,4.983,0,0,0,2.359-.51c.267-.693,1.088-.563,1.536-1.108.129-.5.683-.926.569-1.585H44.7a5.194,5.194,0,0,0-.023-3.915l-.277-.059-.561-2.185c-.254-.187-.241-.552-.493-.739v-.55a1.2,1.2,0,0,0-1.171-.7c-.036-.153-.062-.263-.1-.423H40.217c-.243.7-1.1.257-1.564.691-.848-.19-1.624.319-2.46.246-.185.254-.552.241-.739.493a2.671,2.671,0,0,0-1.881.606c-.062.441-.827.7-.586,1.365a.71.71,0,0,0,0,.985c.076.838.614,1.565.488,2.405l.5.125v.919a1.037,1.037,0,0,0,.246.739" transform="translate(4.273 4.839)"/>
          <path id="Trazado_114547" data-name="Trazado 114547" d="M52.44,48.917c.648.141,1.207-.374,1.854-.252.083-.32.557-.13.66-.57.055-.24.611-.362,1.01-.573.158-.6.771-.98,1.016-1.572a12.422,12.422,0,0,0,.478-1.92l.384-.083a2.011,2.011,0,0,1,.35-1.386c.309-.32.095-.694.165-1.035.4-.347.105-.833.245-1.232-.087-.493-.806-.561-.739-1.129-.659-.267-1.216-.758-1.974-.6-.188-.252-.553-.238-.739-.493a6.869,6.869,0,0,1-2.168-.368c-.357-.086-.7-.058-1.036-.124-.244-.335-.746-.151-.988-.493H49.368c-.183.089-.1.289-.216.471-.54-.015-1,.125-.917.866.016.133-.269.183-.235.388-.252.189-.237.553-.493.739a1.775,1.775,0,0,1-.27,1.344c-.3.332-.165.676-.243,1.039l-.416.145c-.2.505.173,1.126-.314,1.589.411.6.208,1.3.259,1.9.11.194.245.129.372.155.286.166.014.506.233.746.326.359.835.5,1.05,1,.173.407.773.463.92.94a7.251,7.251,0,0,0,2.354.506.714.714,0,0,0,.988,0" transform="translate(6.029 4.833)"/>
          <path id="Trazado_114548" data-name="Trazado 114548" d="M34.274,14.914h2.713v-.367c-.064-.042-.128-.12-.192-.12-.812-.008-1.624-.006-2.389-.006-.208.165-.1.341-.131.493" transform="translate(4.466 1.879)" fill="#814144"/>
          <path id="Trazado_114549" data-name="Trazado 114549" d="M53.256,14.909h2.466v-.376c-.026-.023-.055-.075-.086-.075-.765,0-1.53,0-2.3,0-.159.127-.051.3-.083.454" transform="translate(6.939 1.883)" fill="#a55357"/>
          <path id="Trazado_114550" data-name="Trazado 114550" d="M42.141,7.939h1.726V7.446H42.141a.334.334,0,0,0,0,.493" transform="translate(5.477 0.97)" fill="#cc5b63"/>
          <path id="Trazado_114551" data-name="Trazado 114551" d="M28.166,30.988v1.6c.176.194.345.1.493.127v-1.6c-.175-.194-.345-.1-.493-.127" transform="translate(3.67 4.038)" fill="#ec6c75"/>
          <path id="Trazado_114552" data-name="Trazado 114552" d="M46.492,24.631h.425a6.711,6.711,0,0,0,.068-1.478.335.335,0,0,0-.493,0Z" transform="translate(6.059 3.003)" fill="#0e0707"/>
          <path id="Trazado_114553" data-name="Trazado 114553" d="M47.972,7.446h-1.48v.425a6.788,6.788,0,0,0,1.48.068.334.334,0,0,0,0-.493" transform="translate(6.059 0.97)" fill="#df7075"/>
          <path id="Trazado_114554" data-name="Trazado 114554" d="M28.905,28.106c.125-.528-.372-.951-.246-1.478h-.493v.986c.214.021.511-.109.5.305a.186.186,0,0,0,.241.188" transform="translate(3.67 3.47)" fill="#e46e75"/>
          <path id="Trazado_114555" data-name="Trazado 114555" d="M46.928,51.534h1.109c.189-.18.1-.346.124-.493H47.052c-.19.18-.1.346-.124.493" transform="translate(6.115 6.651)" fill="#6b3639"/>
          <path id="Trazado_114556" data-name="Trazado 114556" d="M57.21,39.925c-.219-.016-.248.127-.246.3v.937h.406a1.221,1.221,0,0,0-.159-1.232" transform="translate(7.423 5.203)" fill="#804144"/>
          <rect id="Rectángulo_37085" data-name="Rectángulo 37085" width="0.987" height="0.493" transform="translate(58.221 39.953)" fill="#7a3d40"/>
          <path id="Trazado_114557" data-name="Trazado 114557" d="M51.842,47.554h-.988v.374c.277.274.607.007.841.132.22-.181.116-.356.147-.506" transform="translate(6.627 6.197)" fill="#e37277"/>
          <path id="Trazado_114558" data-name="Trazado 114558" d="M67.056,32.627v-.986h-.493v.986a.334.334,0,0,0,.493,0" transform="translate(8.674 4.123)" fill="#9b4e52"/>
          <path id="Trazado_114559" data-name="Trazado 114559" d="M33.023,41.128v-.986h-.374c-.275.277-.007.606-.132.84.181.22.356.115.506.146" transform="translate(4.237 5.231)" fill="#ba5e62"/>
          <rect id="Rectángulo_37086" data-name="Rectángulo 37086" width="0.493" height="0.986" transform="translate(48.605 29.852)" fill="#5d2f31"/>
          <path id="Trazado_114560" data-name="Trazado 114560" d="M46.985,27.408v-.986a.334.334,0,0,0-.493,0v.986Z" transform="translate(6.059 3.429)" fill="#964b4f"/>
          <rect id="Rectángulo_37087" data-name="Rectángulo 37087" width="0.493" height="0.986" transform="translate(52.551 28.866)" fill="#341a1b"/>
          <rect id="Rectángulo_37088" data-name="Rectángulo 37088" width="0.493" height="0.986" transform="translate(48.605 24.923)" fill="#743a3c"/>
          <rect id="Rectángulo_37089" data-name="Rectángulo 37089" width="0.987" height="0.493" transform="translate(56.989 41.925)" fill="#9c4e52"/>
          <rect id="Rectángulo_37090" data-name="Rectángulo 37090" width="0.493" height="0.986" transform="translate(52.551 25.17)" fill="#a05054"/>
          <rect id="Rectángulo_37091" data-name="Rectángulo 37091" width="0.987" height="0.493" transform="translate(54.03 8.416)" fill="#402022"/>
          <path id="Trazado_114561" data-name="Trazado 114561" d="M34.142,44.805c-.094-.243.228-.624-.246-.739H33.4c-.006.266-.052.543.38.515.113-.008.168.253.359.224" transform="translate(4.352 5.742)" fill="#e96a73"/>
          <rect id="Rectángulo_37092" data-name="Rectángulo 37092" width="0.493" height="0.739" transform="translate(47.619 34.039)" fill="#733a3c"/>
          <rect id="Rectángulo_37093" data-name="Rectángulo 37093" width="0.493" height="0.739" transform="translate(53.537 33.794)" fill="#854345"/>
          <rect id="Rectángulo_37094" data-name="Rectángulo 37094" width="0.493" height="0.739" transform="translate(32.823 33.055)" fill="#763b3d"/>
          <path id="Trazado_114562" data-name="Trazado 114562" d="M39.159,47.554H38.42v.366c.191.231.431.112.656.088.158-.13.053-.3.084-.454" transform="translate(5.007 6.197)" fill="#e57379"/>
          <rect id="Rectángulo_37095" data-name="Rectángulo 37095" width="0.493" height="0.739" transform="translate(47.618 43.648)" fill="#53292c"/>
          <rect id="Rectángulo_37096" data-name="Rectángulo 37096" width="0.493" height="0.739" transform="translate(53.536 43.648)" fill="#8d474a"/>
          <rect id="Rectángulo_37097" data-name="Rectángulo 37097" width="0.739" height="0.493" transform="translate(39.727 42.91)" fill="#934a4d"/>
          <rect id="Rectángulo_37098" data-name="Rectángulo 37098" width="0.739" height="0.493" transform="translate(61.181 42.91)" fill="#8f484b"/>
          <path id="Trazado_114563" data-name="Trazado 114563" d="M61.327,26.423v.739h.493v-.739a.334.334,0,0,0-.493,0" transform="translate(7.992 3.429)" fill="#b2595e"/>
          <path id="Trazado_114564" data-name="Trazado 114564" d="M67.056,27.162v-.739a.334.334,0,0,0-.493,0v.739Z" transform="translate(8.674 3.429)" fill="#a25155"/>
          <rect id="Rectángulo_37099" data-name="Rectángulo 37099" width="0.739" height="0.493" transform="translate(38.495 40.939)" fill="#8c464a"/>
          <rect id="Rectángulo_37100" data-name="Rectángulo 37100" width="0.493" height="0.739" transform="translate(69.319 29.112)" fill="#341a1b"/>
          <rect id="Rectángulo_37101" data-name="Rectángulo 37101" width="0.493" height="0.739" transform="translate(75.237 29.112)" fill="#482426"/>
          <rect id="Rectángulo_37102" data-name="Rectángulo 37102" width="0.739" height="0.493" transform="translate(62.415 40.939)" fill="#9b4e52"/>
          <rect id="Rectángulo_37103" data-name="Rectángulo 37103" width="0.493" height="0.739" transform="translate(74.25 40.693)" fill="#51282a"/>
          <rect id="Rectángulo_37104" data-name="Rectángulo 37104" width="0.739" height="0.493" transform="translate(42.686 39.953)" fill="#7a3d3f"/>
          <rect id="Rectángulo_37105" data-name="Rectángulo 37105" width="0.493" height="0.739" transform="translate(74.25 25.17)" fill="#6e373a"/>
          <rect id="Rectángulo_37106" data-name="Rectángulo 37106" width="0.739" height="0.493" transform="translate(58.223 9.402)" fill="#653235"/>
          <rect id="Rectángulo_37107" data-name="Rectángulo 37107" width="0.493" height="0.739" transform="translate(67.346 36.75)" fill="#b65b5f"/>
          <rect id="Rectángulo_37108" data-name="Rectángulo 37108" width="0.493" height="0.739" transform="translate(75.237 36.75)" fill="#3d1f20"/>
          <path id="Trazado_114565" data-name="Trazado 114565" d="M22.931,28.135h.44a11.088,11.088,0,0,0,.053-1.725h-.44a11.087,11.087,0,0,0-.053,1.725" transform="translate(2.987 3.441)" fill="#57262a"/>
          <path id="Trazado_114566" data-name="Trazado 114566" d="M23.423,32.712v-1.6c-.176-.194-.345-.1-.493-.127v1.6c.175.194.345.1.493.127" transform="translate(2.988 4.038)" fill="#512327"/>
          <rect id="Rectángulo_37109" data-name="Rectángulo 37109" width="0.987" height="0.493" transform="translate(46.631 8.416)" fill="#311517"/>
          <rect id="Rectángulo_37110" data-name="Rectángulo 37110" width="0.739" height="0.493" transform="translate(42.686 9.402)" fill="#481f22"/>
          <rect id="Rectángulo_37111" data-name="Rectángulo 37111" width="0.493" height="0.986" transform="translate(31.836 28.866)" fill="#552529"/>
          <rect id="Rectángulo_37112" data-name="Rectángulo 37112" width="0.493" height="0.739" transform="translate(31.836 22.953)" fill="#602a2e"/>
          <path id="Trazado_114567" data-name="Trazado 114567" d="M52.809,35.544c.2,0,.4-.042.539.164.113.165.3.052.448.083.243.336.746.151.986.493.524-.154.961.213,1.451.243s.991-.123,1.3.323c.277-.249.181-.418.208-.566.252-.189.238-.553.494-.739-.127-.564.418-1.024.246-1.6.459-.335.142-.825.3-1.338.033-.067.226.011.411-.094-.038-.975.6-1.86.52-2.885.251-.189.237-.554.493-.739a24,24,0,0,0,.518-4.578,14.41,14.41,0,0,0-.634-4.5c-.2-.118-.65-.109-.623-.61.02-.383-.172-.564-.532-.674-.314-.095-.2-.627-.549-.684a2.508,2.508,0,0,1-.868-.285,3.739,3.739,0,0,0-2.736-.745,5.83,5.83,0,0,0-2.318,2.939,13.675,13.675,0,0,0-1.416,7.489A10.262,10.262,0,0,0,51.6,30.5a1.754,1.754,0,0,1,.368,1.074c.278,1.325.188,2.726.84,3.97" transform="translate(6.645 2.192)" fill="#3f6d8d"/>
          <path id="Trazado_114568" data-name="Trazado 114568" d="M52.1,30.621c.175-.579-.245-1.061-.262-1.619-.015-.5.227-1.06-.231-1.5.109-.871-.225-1.776.193-2.625a.427.427,0,0,0,.05-.224,8.933,8.933,0,0,1,.319-2.864l.332-.068c.248-.249-.076-.652.161-.888.287-.285.131-.609.177-.916a.96.96,0,0,1,.722-.443c-.228-.671.751-.907.5-1.581.677-.088.753-.654,1-1.073-.732-.173-1.387.3-2.125.269-.094.062-.1.18-.088.388-.375.1-.9.072-1.062.536-.24.689-1.381.715-1.171,1.673-1.078.322-.795,1.309-1.056,2.016l-.333.086c-.027.029-.085.066-.079.087.163.653-.272,1.218-.26,1.858.029,1.388.042,2.777-.007,4.164-.019.608.448,1.119.263,1.735.254.187.241.552.492.739-.119.416.348.671.274,1.12a1.422,1.422,0,0,0,.127,1.155c.235.33.057.78.094,1.174.342.24.157.743.493.986v.45c.839-.063,1.607.407,2.466.289-.087-.586.16-1.186-.153-1.769-.275-.517.076-1.168-.322-1.7-.118-.157-.019-.475-.019-.719-.254-.187-.24-.552-.492-.739" transform="translate(6.369 2.187)" fill="#365e7c"/>
          <rect id="Rectángulo_37113" data-name="Rectángulo 37113" width="0.987" height="0.493" transform="translate(60.44 37.982)" fill="#182a36"/>
          <rect id="Rectángulo_37114" data-name="Rectángulo 37114" width="0.493" height="0.986" transform="translate(56.497 36.011)" fill="#233e52"/>
          <rect id="Rectángulo_37115" data-name="Rectángulo 37115" width="0.493" height="0.739" transform="translate(55.51 31.823)" fill="#101c25"/>
          <rect id="Rectángulo_37116" data-name="Rectángulo 37116" width="0.493" height="0.739" transform="translate(66.36 31.084)" fill="#29485e"/>
          <rect id="Rectángulo_37117" data-name="Rectángulo 37117" width="0.493" height="0.739" transform="translate(64.387 37.736)" fill="#203748"/>
          <path id="Trazado_114569" data-name="Trazado 114569" d="M41.4,21.012c.04-.156-.165-.207-.163-.3.015-.7-.527-1.093-.875-1.578a3.037,3.037,0,0,0-.807-.665,4.961,4.961,0,0,1-.635-.808c-.191-.231-.48.019-.668-.166-.029-.113-.058-.224-.1-.378-.729-.007-1.408-.452-2.18-.3-1.605.383-2.284,1.735-2.713,3.038a14.974,14.974,0,0,0-.028,8.914c.2.311.47.59.431,1a9.8,9.8,0,0,0,.626,2.748,1.857,1.857,0,0,1,.407,1.016,17.443,17.443,0,0,0,.442,1.733.945.945,0,0,0,1.059.757,1.028,1.028,0,0,0,.763-.237c.379-.06.757.092,1.143-.219.266-.215.758.115,1.138-.19.294-.235.7-.029,1.148-.115a.978.978,0,0,1,.506-1.042,4.886,4.886,0,0,1,.22-1.651c.189-.43-.034-1,.265-1.481.11-.176.018-.478.018-.722.252-.188.238-.553.493-.739-.125-.529.294-.951.271-1.484-.019-.445-.254-.978.223-1.36-.1-.788.213-1.6-.166-2.37-.017-.035-.081-.064-.077-.088.155-.884-.294-1.709-.251-2.582-.254-.187-.241-.55-.493-.739" transform="translate(4.244 2.188)" fill="#3f6d8d"/>
          <path id="Trazado_114570" data-name="Trazado 114570" d="M34.809,32.593a10,10,0,0,0-.362-1.918,5.1,5.1,0,0,1-.131-1.039c-.255-.185-.242-.55-.494-.739.12-.348-.292-.538-.254-.878a2.143,2.143,0,0,0-.009-.971c-.433-1.1-.154-2.224-.223-3.333a3.8,3.8,0,0,1,.045-1.809c.288-.556-.044-1.2.426-1.674.1-.1.015-.389.015-.561.1-.155.222-.136.418-.137,0-1.051,1.169-1.447,1.369-2.4.2-.188.623.163.679-.307-.813-.179-1.558.267-2.352.255-.222.087-.052.389-.376.522-.417.171-.981.234-1.208.722-.15.322-.573.222-.706.545-.1.248.084.59-.254.754.136.478-.762.316-.532.868.095.228-.253.283-.245.51.031.917-.417,1.792-.243,2.722a.711.711,0,0,0,0,.986c.087.584-.161,1.185.151,1.768.277.517-.075,1.168.323,1.7.118.156.018.474.018.718.255.187.242.552.494.739-.123.572.4,1.04.26,1.615.436.341.124.841.258,1.239.083.14.215.094.37.106.215.922.432,1.857.649,2.791.017.2.208.14.346.193.225.274-.043.64.173.912a2.108,2.108,0,0,0,.173.175,27.587,27.587,0,0,1,2.95-.379.332.332,0,0,0,0-.493h-.683a17.219,17.219,0,0,0-.55-2.464c-.254-.186-.241-.552-.493-.739" transform="translate(3.932 2.187)" fill="#365e7c"/>
          <path id="Trazado_114571" data-name="Trazado 114571" d="M30.4,23.908v-.986h-.363c-.171.107-.128.277-.13.432s0,.314,0,.424c.167.2.342.1.493.13" transform="translate(3.898 2.987)" fill="#040709"/>
          <rect id="Rectángulo_37118" data-name="Rectángulo 37118" width="0.493" height="0.739" transform="translate(45.646 31.823)" fill="#21394a"/>
          <rect id="Rectángulo_37119" data-name="Rectángulo 37119" width="0.493" height="0.739" transform="translate(34.796 31.084)" fill="#172936"/>
          <rect id="Rectángulo_37120" data-name="Rectángulo 37120" width="0.739" height="0.493" transform="translate(40.466 37.982)" fill="#162632"/>
          <rect id="Rectángulo_37121" data-name="Rectángulo 37121" width="0.493" height="0.739" transform="translate(45.646 23.199)" fill="#162732"/>
          <path id="Trazado_114572" data-name="Trazado 114572" d="M37.861,40.146c-.887-.138-1.706.428-2.638.214a3.573,3.573,0,0,0-.059,1.212l.465.1c-.073.874.457,1.654.518,2.558.071.1.181.125.37.093.2.3.105.732.453,1.017.236.193.767.133.665.764.609-.231,1.055.242,1.623.218.515-.02.938-.443,1.42-.249.22-.174.112-.352.144-.5a4.322,4.322,0,0,1-1.648-2.757,4.251,4.251,0,0,0-1.311-2.663" transform="translate(4.579 5.229)" fill="#365d7c"/>
          <path id="Trazado_114573" data-name="Trazado 114573" d="M37.547,40.229a1.5,1.5,0,0,1,.234,1.174l.475.121c-.009.961.541,1.821.55,2.816l.431.156c.127.346-.142.825.5,1.153h.767c.289-.184.654-.241.89-.519.7-1.51.225-2.95-.254-4.383l-.376-.079V39.48c-.617.063-1.189-.125-1.753.24-.173.112-.479.017-.726.017-.187.253-.549.244-.739.493" transform="translate(4.893 5.145)" fill="#3e6c8d"/>
          <rect id="Rectángulo_37122" data-name="Rectángulo 37122" width="0.739" height="0.493" transform="translate(42.44 44.88)" fill="#2a485e"/>
          <path id="Trazado_114574" data-name="Trazado 114574" d="M52.128,39.738c-.384.116-.617-.321-1.011-.259a6.83,6.83,0,0,1-1.085.012c-.132.13-.248.246-.367.366v.717c-.088.2-.288.114-.5.241a2.42,2.42,0,0,1-.228,1.176,4.037,4.037,0,0,0,.1,3.167,3.323,3.323,0,0,0,1.126.574v.362c.384.124.824.018,1.224.271s.795-.261,1.237-.222c.238-.868-.648-1.28-.807-1.987a.962.962,0,0,1-.011-1.431,13.225,13.225,0,0,0,.9-2.386c-.047-.336-.406-.376-.571-.6" transform="translate(6.341 5.144)" fill="#365d7c"/>
          <path id="Trazado_114575" data-name="Trazado 114575" d="M52.306,40.155c.024.326-.274.194-.5.348.2.745-.443,1.352-.489,2.116a1.231,1.231,0,0,0,0,1.478c-.118.411.344.662.286,1.1-.025.194.354.48.7.418v.448c.218-.018.527.106.493-.311a2.667,2.667,0,0,0,1.174-1.163c.021-.042.145-.029.323-.06-.29-.852.674-1.429.471-2.318l.5-.172c0-.214,0-.449,0-.684-.006-.215.316-.264.218-.6l-.323-.366c-.774.207-1.526-.323-2.36-.243a.342.342,0,0,0-.493,0" transform="translate(6.656 5.219)" fill="#3e6c8d"/>
          <path id="Trazado_114576" data-name="Trazado 114576" d="M52.221,40.2h.493v-.493h-.986V40.2Z" transform="translate(6.741 5.174)" fill="#243f53"/>
          <rect id="Rectángulo_37123" data-name="Rectángulo 37123" width="0.493" height="0.739" transform="translate(58.469 32.809)" fill="#3a6585"/>
          <rect id="Rectángulo_37124" data-name="Rectángulo 37124" width="0.493" height="0.739" transform="translate(38.74 34.779)" fill="#396383"/>
          <rect id="Rectángulo_37125" data-name="Rectángulo 37125" width="0.493" height="0.739" transform="translate(37.755 31.084)" fill="#3c6888"/>
          <path id="Trazado_114577" data-name="Trazado 114577" d="M51.341,43.8V42.322h-.43v1.426c.1.128.279.021.43.052" transform="translate(6.635 5.515)" fill="#37607f"/>
        </g>
      </g>
    </g>
  </g>
</svg>
