<svg xmlns="http://www.w3.org/2000/svg" xmlns:xlink="http://www.w3.org/1999/xlink" width="85" height="96" viewBox="0 0 85 96"><defs><clipPath id="a"><rect width="80.624" height="81.062" fill="none"/></clipPath></defs><g transform="translate(-285 -6789)"><circle cx="42.5" cy="42.5" r="42.5" transform="translate(285 6800)" fill="#9fbe37"/><g transform="translate(285 6789)"><g transform="translate(0 0)" clip-path="url(#a)"><path d="M10.295,71.277a1.621,1.621,0,0,0,2.015,0c1.536-1.352,3.135-1.256,5.09-.775,3.508.861,6.988,0,10.341-1.186a1.922,1.922,0,0,0,1.3-2.407,9.5,9.5,0,0,0-.266-.966c-1.26-4.1-1.26-4.1-5.531-4.186-1.726-.033-1.821-.075-2.834-1.451a44.152,44.152,0,0,1,28.971-3.152,3.41,3.41,0,0,1-.693,4.119c-.24.233-.472.475-.708.712-2.382,2.392-2.529,5.248-.408,7.954a1.894,1.894,0,0,0,.793.6,8.5,8.5,0,0,0,4.114-.508,6.352,6.352,0,0,1,5.447.71,3.988,3.988,0,0,0,1.394.56,1.862,1.862,0,0,1,.671.316h2.35c3.294-.368,6.616-.335,9.911-.682a3.146,3.146,0,0,1,1.84.682c.427.054.542.52,1,.715A12.626,12.626,0,0,0,77.1,70.778,48.576,48.576,0,0,0,59.691,57.223V38.944l-1.2-.77H48.984V32.313l-1.065-.887h-1.6c.011-4.209-2.291-5.635-5.409-5.333V23.458H38.2v2.535c-4.211-.034-5.708,2.229-5.4,5.389l-1.91.084c-.169.218-.406.523-.786,1.014v5.6h-9.85l-.889.893V57.135c-1.506.814-3.1,1.585-4.6,2.511a50.226,50.226,0,0,0-4.585,3.137,35.4,35.4,0,0,0-4.2,3.589c-1.258,1.349-2.8,2.446-3.76,4.132a6.626,6.626,0,0,1,1.843,1.434c.641.043.7-.653,1.186-.663.789-.578,1.319-1.462,2.271-1.93,1.139.324,1.67,1.543,2.765,1.93" transform="translate(0.83 8.736)"/><path d="M45.837,61.575a2.334,2.334,0,0,1-1.076-1.467,24.48,24.48,0,0,0-1.206-3.347,2.145,2.145,0,0,1-.082-.885l4.01-4V48.3c-.191-.163-.357-.427-.524-.428-1.893-.008-3.681-.847-5.59-.688-2.555-.7-5.167-.147-7.742-.353-.685-.055-1.188.427-1.876.388a3.121,3.121,0,0,0-1.906.236,6.173,6.173,0,0,1-2.181.333,31.286,31.286,0,0,0-5.591,1.532,30.247,30.247,0,0,0-4.761,1.858,5.378,5.378,0,0,0-.585.436c.609.607,1.226,1.22,1.936,1.93H23.94c1.337,1.662,1.449,3.821,2.284,5.774l-1.381.946c-1.263.334-2.931.752-4.584,1.23a3.114,3.114,0,0,1-.8.078c-.615.022-1.231-.019-1.845.012a9.3,9.3,0,0,1-5.146-.943,2.827,2.827,0,0,0-1.043-.092c-.564.7-1.4,1.189-1.851,2.034q14.579,0,29.159,0c.641,0,1.313-.143,1.794.416l.445-.414c.075.077.152.221.235.224,5.347.236,10.7.047,16.046.108.01-.232-.1-.343-.335-.335-1.99-.81-4.08-.435-6.129-.491a37.984,37.984,0,0,0-4.525.047c-.631.058-.376-.31-.427-.56" transform="translate(3.565 17.434)" fill="#a6dafb"/><path d="M0,26.23a13.449,13.449,0,0,0,4.1,9.4,13.03,13.03,0,0,0,9.648,3.824,12.994,12.994,0,0,0,9.367-4.1,12.95,12.95,0,0,0,3.78-9.642A12.9,12.9,0,0,0,22.727,16.4,13.016,13.016,0,0,0,13.032,12.7a13.069,13.069,0,0,0-9.319,4.212A13.615,13.615,0,0,0,0,26.23" transform="translate(0 4.725)"/><path d="M52.7,39.485a13.407,13.407,0,0,0,9.533-4.106,12.964,12.964,0,0,0,3.795-9.636,12.907,12.907,0,0,0-4.153-9.319,13.376,13.376,0,0,0-19.009.469,12.982,12.982,0,0,0-3.678,9.682A12.479,12.479,0,0,0,41.2,33.1a11.437,11.437,0,0,0,4.286,4.329A13.082,13.082,0,0,0,52.7,39.485" transform="translate(14.59 4.725)"/><path d="M19.593,13.5A13.381,13.381,0,0,0,23.72,23a13.386,13.386,0,0,0,19.013-.375,12.905,12.905,0,0,0,3.727-9.66A12.937,12.937,0,0,0,42.244,3.67,13.077,13.077,0,0,0,32.528.011a12.484,12.484,0,0,0-6.545,2.006A11.47,11.47,0,0,0,21.647,6.3a13.033,13.033,0,0,0-2.053,7.2" transform="translate(7.293 0.001)"/><path d="M57.78,58.915c-.01-.489-.708-.543-.674-1.061a1.511,1.511,0,0,0-.074-.284c-.579.136-1.239-.3-1.794.333-.049.055-.218.021-.328.005-1.6-.222-3.129.52-4.728.342-.7-.078-1.294.469-2.046.354a9.853,9.853,0,0,0-1.989.037c-.044,0-.08.178-.119.273H57.78" transform="translate(17.141 21.432)" fill="#8dccf5"/><path d="M9.48,59.052A28.753,28.753,0,0,0,6.9,56.283a4.734,4.734,0,0,0-1.276,1.1,15.773,15.773,0,0,0-1.165,1.182c-.082.095-.012.321-.012.487Z" transform="translate(1.644 20.96)" fill="#a2d4f4"/><path d="M24.54,50.292h2.58V45.517l.888-.887h6.384l.88.9V50.29h2.642V31.418a119.638,119.638,0,0,0-13.374-.124Z" transform="translate(9.139 11.612)" fill="#a7a7a7"/><path d="M24.655,36.124H16.712V51.439a41.616,41.616,0,0,1,7.943-2.367Z" transform="translate(6.224 13.453)" fill="#989898"/><path d="M44.23,36.124H36.285V49.062a43.25,43.25,0,0,1,7.945,2.389Z" transform="translate(13.513 13.453)" fill="#989898"/><path d="M49.249,52.317a18.014,18.014,0,0,0-4.318-2.292c-1.353-.608-2.775-1.117-4.175-1.65a2.655,2.655,0,0,0-.513-.077v3.784l-3.7,3.675c-.27.84.324,1.467.371,2.19,1.121.285,2.13-.248,3.174-.4A18.927,18.927,0,0,1,43.541,57c2.415-.941,4.61-2.149,5.708-4.687" transform="translate(13.584 17.987)" fill="#62bb93"/><path d="M47.332,51.227c-.774,1.345-2.152,2.041-3.281,3a29.16,29.16,0,0,1-2.426,1.688,25.662,25.662,0,0,0,4.027,2.166c.358.2.8.553,1.117.476,1.274-.312,2.584-.178,3.84-.441a2.894,2.894,0,0,1,.914-.181c1.431.189,2.753-.527,4.541-.292a34.9,34.9,0,0,0-8.731-6.415" transform="translate(15.501 19.078)" fill="#55a07d"/><path d="M11.494,55.934a6.313,6.313,0,0,1,2.893.719,8.075,8.075,0,0,0,3.253.608,13.124,13.124,0,0,0,3.4-.265,3.782,3.782,0,0,1,2.013-.408c.344.071.386-.36.688-.434-.611-.368-.034-1.285-1.2-1.544h-4.2l-3.424-3.417a37.447,37.447,0,0,0-7.265,5.179L9.263,57.99a25.869,25.869,0,0,0,2.232-2.056" transform="translate(2.846 19.065)" fill="#62bb93"/><path d="M27.294,27.321l-.836.834v1.669a.762.762,0,0,0,.107.115.275.275,0,0,0,.141.058c2.566,0,5.131,0,7.751,0V28.106c-.232-.232-.508-.509-.785-.785H27.294" transform="translate(9.853 10.175)" fill="#dadada"/><path d="M36.459,57.915c-.077.638-.731.118-.878.406-.184.364-.653.093-.825.6H47.54a20.96,20.96,0,0,0-3.749-2.011c-.183-.1-.354-.221-.431-.27-2.362.4-4.588,1.059-6.9,1.276" transform="translate(12.943 21.093)" fill="#91d1fa"/><path d="M31.072,45.538V42.974H28.45c-.086.788-.01,1.648-.043,2.564Z" transform="translate(10.579 16.004)" fill="#e9e9e9"/><path d="M8.476,25.763A5.131,5.131,0,0,1,9.5,18.434a5.447,5.447,0,0,1,6.745.185c2.285,1.914,2.429,5.365.858,7.031a1.6,1.6,0,0,0,.929,1.055,2.861,2.861,0,0,1,1.444,1.431,11.051,11.051,0,0,0,.811,1.158c.294.483-.045,1.027.313,1.379.417.409.067.957.3,1.419a10.094,10.094,0,0,0-.321-14.049,10.4,10.4,0,0,0-15.243-.382,10.151,10.151,0,0,0-.786,14.412c.876-3.13-.14-2.513,3.929-6.312" transform="translate(0.714 5.409)" fill="#a6dafb"/><path d="M8.07,24.759c-.593.592-1.186,1.183-1.656,1.651-.714,1.536-.465,3.021-.508,4.495a10.021,10.021,0,0,0,10.753.044c-.073-1.431.233-2.953-.553-4.577l-1.618-1.613a13.238,13.238,0,0,0-6.417,0" transform="translate(2.196 9.074)" fill="#e9e9e9"/><path d="M13.177,22.051A2.837,2.837,0,0,0,11.22,18.54H9.9a2.806,2.806,0,0,0-2.026,3.276,2.9,2.9,0,0,0,2.155,2.05h1.348a2.98,2.98,0,0,0,1.8-1.816" transform="translate(2.915 6.905)" fill="#fcd3a6"/><path d="M62.656,25.823a10.624,10.624,0,0,0-3.181-8.063,10.783,10.783,0,0,0-7.906-3.15,11.666,11.666,0,0,0-7.259,3.108,10.744,10.744,0,0,0-3.184,8.04,10.376,10.376,0,0,0,3.169,7.2,10.749,10.749,0,0,0,15.154.027,9.953,9.953,0,0,0,3.207-7.163" transform="translate(15.312 5.441)" fill="#a6dafb"/><path d="M32.514,1.938A10.546,10.546,0,0,0,24.68,5.125a10.714,10.714,0,0,0-3.144,7.889,11.645,11.645,0,0,0,3.132,7.231,10.842,10.842,0,0,0,8.07,3.159,10.429,10.429,0,0,0,7.215-3.173,10.441,10.441,0,0,0,3.124-8.056,10.892,10.892,0,0,0-3.113-7.066c-1.544-1.656-4.935-3.408-7.449-3.17" transform="translate(8.02 0.714)" fill="#a6dafb"/><path d="M26.455,37.247v2.337a.855.855,0,0,0,.115.118.281.281,0,0,0,.144.054c2.56,0,5.12,0,7.74,0V37.243a46.346,46.346,0,0,0-8,0" transform="translate(9.852 13.806)"/><path d="M34.485,35.781V33.217H26.5c-.091.788-.011,1.648-.045,2.564Z" transform="translate(9.85 12.371)"/><path d="M21.285,44.565V42H18.664c-.085.793-.011,1.654-.044,2.568Z" transform="translate(6.934 15.64)"/><rect width="2.573" height="2.569" transform="translate(25.593 52.28)"/><path d="M38.219,42v2.564h2.623c.086-.788.01-1.648.043-2.564Z" transform="translate(14.233 15.641)"/><path d="M40.864,40.661V38.095h-2.6c-.143.789.005,1.654-.082,2.566Z" transform="translate(14.218 14.187)"/><path d="M43.131,22.889c-.383,2.841.994,4.6,3.726,5.771h2.916V32.59h2.7V28.649c.592,0,1.134-.025,1.674,0a4.773,4.773,0,0,0,4.716-2.947,1.953,1.953,0,0,1,.355-.57c0-.35,0-.734,0-1.119A4.408,4.408,0,0,0,56.681,19.9a3.882,3.882,0,0,1-1.341-1.231,5.132,5.132,0,0,0-6.585-1.529A4.508,4.508,0,0,0,46.79,18.98c-.139.226-.3.552-.505.609-1.673.458-2.431,1.791-3.154,3.3" transform="translate(16.039 6.168)"/><path d="M23.519,10.1v1.051l1.077.774h1.547v5.824l.924.877h9.072c.225-.251.483-.541.836-.937V11.988H38.78l.844-1.062v-.888c-2.391-2.157-5.015-4.061-7.532-6.1-1.05-.269-1.709.473-2.389,1.027-1.582,1.286-3.136,2.6-4.8,3.784A12.2,12.2,0,0,0,23.519,10.1" transform="translate(8.758 1.447)"/><path d="M46.556,25.235c2.323,0,4.666,0,7.007,0a1.957,1.957,0,0,0,1.893-.946c.664-1.16.291-2.135-.9-2.857-.369-.225-.753-.062-1.138-.393-.686-.747-.7-2.229-2.14-2.5-.331,0-.663,0-.995,0a2.285,2.285,0,0,0-2.238,1.471c-.3.634-.62,1.248-1.573,1.341a1.731,1.731,0,0,0-1.409,1.842,1.619,1.619,0,0,0,1.235,1.8c.093.026.159.151.257.247" transform="translate(16.781 6.905)" fill="#62bb93"/><path d="M27.456,9.8v3.9h5.306c.012-.575.029-1.217.036-1.86.005-.661,0-1.322,0-2.041Z" transform="translate(10.225 3.65)" fill="#e9e9e9"/><path d="M27.483,8.3H32.69c-.314-1.069-1.715-1-1.978-1.96H29.591A18.016,18.016,0,0,1,27.483,8.3" transform="translate(10.235 2.362)" fill="#f87d84"/></g></g></g></svg>