<svg xmlns="http://www.w3.org/2000/svg" xmlns:xlink="http://www.w3.org/1999/xlink" width="85" height="86" viewBox="0 0 85 86">
  <defs>
    <clipPath id="clip-path">
      <rect id="Rectángulo_37129" data-name="Rectángulo 37129" width="83" height="83" transform="translate(0 -0.005)" fill="none"/>
    </clipPath>
  </defs>
  <g id="Grupo_849909" data-name="Grupo 849909" transform="translate(-916 -7596)">
    <g id="Grupo_80936" data-name="Grupo 80936" transform="translate(0 796)">
      <path id="Trazado_245469" data-name="Trazado 245469" d="M42.5,0A42.5,42.5,0,1,1,0,42.5,42.5,42.5,0,0,1,42.5,0Z" transform="translate(916 6800)" fill="#ffb840"/>
      <g id="Grupo_80720" data-name="Grupo 80720" transform="translate(917 6803.005)">
        <g id="Grupo_80719" data-name="Grupo 80719" transform="translate(0 0)" clip-path="url(#clip-path)">
          <path id="Trazado_114578" data-name="Trazado 114578" d="M44.343,51.683H41.2c-.012-.611-.056-1.238-.032-1.861.1-2.667-.565-5.3-.329-7.971-.619-1.6-.06-3.289-.364-4.883a30.8,30.8,0,0,1-.291-4.9c-.2-.172-.394-.353-.339-.663-.22-.224-.636-.11-.8-.495-2.041.176-4.128-.234-6.071.247a3.014,3.014,0,0,0-.56,2.195,21.244,21.244,0,0,1-.3,3.6,20.642,20.642,0,0,1-.077,3.549c-.4,1.545-.026,3.081-.3,4.577a41.228,41.228,0,0,0-.306,6.251c-1.078.709-2.286.187-3.553.414,0-.689-.038-1.323.007-1.951.222-3.1-.447-6.166-.352-9.268a75.68,75.68,0,0,0-.052-9.394c-.212-2.237-.191-4.454-.239-6.681s-.012-4.428-.012-6.637a.721.721,0,0,1-.351-.673c-.229-.208-.632-.118-.783-.459H17.675c-.267.267-.533.536-.848.849.31,6.074-.513,12.174-.292,18.295a26.3,26.3,0,0,1-.015,3.888c-.578,5.137-.2,10.287-.273,15.429-.009.616-.631,1-.242,1.74-2.844,0-5.53.06-8.211-.032a10.756,10.756,0,0,0-2.61.406,2.643,2.643,0,0,0-1.931,1.643,11,11,0,0,1-.639,1.164c0,.36-.008.843,0,1.326.008.413.623.661.27,1.117.356.353.663.656.995.984V75.3H.5c-.057.515-.585.8-.483,1.326.093.46.554.622.794.979h81.2l.815-.679c.4-.8-.456-.987-.14-1.569H77.819V58.276l.869-.869a5.914,5.914,0,0,1,.339-1.139,3.948,3.948,0,0,0-2.463-4.22,5.435,5.435,0,0,0-2.121-.392c-2.31.085-4.626.03-6.9.03a2.728,2.728,0,0,1-.479-1.984c.02-.486.005-.972,0-1.458-.009-2.338-.545-4.65-.324-7-.582-1.6-.083-3.285-.364-4.884a29.688,29.688,0,0,1-.288-4.575c-.226-.451-.726-.541-1.257-.849-.91,0-1.986-.024-3.06.007-.987.029-2.008-.216-2.974.351a2.615,2.615,0,0,0-.483,2.011,11.692,11.692,0,0,1-.021,2.426c-.37,1.9-.056,3.839-.369,5.7a37.626,37.626,0,0,0-.241,4.74,14.5,14.5,0,0,0-.361,2.625,23.609,23.609,0,0,1,.025,2.871c-1.082-.069-2.176.3-3.153-.273a2.114,2.114,0,0,1-.083-.426c.221-3.1-.53-6.169-.328-9.268-.565-1.709-.082-3.5-.374-5.206A18.659,18.659,0,0,1,53.18,32.4c.024-.466-.664-.525-.341-.93-.2-.38-.779.012-.733-.574-2.14.189-4.225-.233-6.191.27a3.242,3.242,0,0,0-.556,2.012c.1,2.5-.549,4.974-.312,7.484-.57,1.709-.021,3.522-.38,5.2-.409,1.913-.09,3.807-.324,5.816" transform="translate(0 5.385)"/>
          <path id="Trazado_114579" data-name="Trazado 114579" d="M15.2,16.289c.037.091.057.246.115.262a4.342,4.342,0,0,0,.636.082c1.842,1.693,3.15,1.782,4.913-.351.6.6,1.163,1.285,2.109,1.3a16.472,16.472,0,0,0,4.908-2.148c2.875,2.855,6.2,3.839,10.087,1.922,3.449,3.51,7.449,4.553,11.759,2.807A3.03,3.03,0,0,1,51.5,21.662a13.43,13.43,0,0,0,16.673,4.561,14.32,14.32,0,0,0,5.186-4.29,1.567,1.567,0,0,0,.508-1.464c-.651-.413-1.255-.05-1.857.131a13.379,13.379,0,0,1-15.072-4.636c-1.114-1.393-2.155-1.946-3.981-1.475-3.969,1.025-7.231-.425-9.77-3.494a3.446,3.446,0,0,0-3.455-1.463c-2.643.333-4.526-1.049-5.862-3.249A7.241,7.241,0,0,0,33.1,4.865c-1.8-.331-3.757.822-5.064,2.951-.417.679-.614,1.513-1.471,2.031-1.31.115-2.772-.488-4.162.3-1.339.754-1.615,2.216-2.187,3.2a2.142,2.142,0,0,1-1.479.286,1.743,1.743,0,0,0-1.894.942c-.341.806-1.056,1.191-1.646,1.722" transform="translate(4.908 1.553)" fill="#d1effe"/>
          <path id="Trazado_114580" data-name="Trazado 114580" d="M15.358,17.842h1.065c.918-.495.572-1.667,1.388-2.274.639.09,1.393-.221,2.035.329.361.108.438-.52.911-.286.5-1.527.688-3.281,2.565-3.863,1.3-.392,2.544.352,3.858.258a3.565,3.565,0,0,0,1-1.681,6.966,6.966,0,0,1,3.1-3.346A2.73,2.73,0,0,1,33.174,6.5c1.554.81,3.4.364,4.684,1.255A6.643,6.643,0,0,0,40.279,6.26a8.637,8.637,0,0,1,10.258-.578c2.432,1.441,2.443,1.455,4.658-.229C61.582.6,72.151,2.9,74.757,11.973a12.582,12.582,0,0,1-.328,8.1c-.242.631-.738,1.225-.442,1.984a15.4,15.4,0,0,1-3.332,3.788,10.122,10.122,0,0,1-2.987,1.748,13.941,13.941,0,0,1-6.077.955,15.025,15.025,0,0,1-4.875-1.519A14.444,14.444,0,0,1,53,24.265,6.93,6.93,0,0,1,51.9,22.76a12.412,12.412,0,0,0-1.483-1.781c-4.535,2.036-8.59,1.382-11.787-2.369a1.667,1.667,0,0,0-1.644.216,6.506,6.506,0,0,1-7.517-1.279c-.312-.366-.644-.717-.9-1H27.5a5.629,5.629,0,0,1-2.158,1.519c-.458.237-.943.026-1.419.12-.222.341-.7.486-.791.954-.149.463.39.722.344,1.155l.974.493c.5-.525,1.159-.307,1.638-.348l1.777-.918c.859.106,1.2,1.1,2.047,1.41a7.094,7.094,0,0,0,2.905.806.83.83,0,0,1,.734.189.968.968,0,0,0,1.058.1c1-.544,2.154-.156,3.043-.713A13.852,13.852,0,0,0,42.8,24.076c.587.632,1.4.024,2.1.415a2.06,2.06,0,0,0,2.085-.124c.4-.235,1.189.148,1.554-.106.484-.337.906-.149,1.314-.282,3.709,6.281,12.7,9.074,19.928,5.346A15.385,15.385,0,0,0,72.462,27.6a12.072,12.072,0,0,0,2.387-2.409,17.717,17.717,0,0,0,2.208-3.774,10.064,10.064,0,0,0,.786-2.257,22.172,22.172,0,0,0,.352-5.047c-.029-.254-.032-.505-.086-.767a21.59,21.59,0,0,0-1.965-5.511,16.315,16.315,0,0,0-3.564-4.187A13.376,13.376,0,0,0,67.863.97,14.28,14.28,0,0,0,62.594,0a17.254,17.254,0,0,0-5.42,1,25.045,25.045,0,0,0-4.536,2.623,11.29,11.29,0,0,0-14.85.991,8.926,8.926,0,0,0-6.843-.073,8.434,8.434,0,0,0-4.886,4.587c-3.274-.314-5.756.643-7.117,3.8-.729-.1-1.355.314-2.148.407L15.1,15.163c-.176.794-.925,1.81.259,2.679" transform="translate(4.748 0)"/>
          <path id="Trazado_114581" data-name="Trazado 114581" d="M17.646,51.131V64.257c1.434.251,45.93.351,51.827.111V51.131a11.813,11.813,0,0,0-6.982-.156c-.582.667.046,1.331.011,2-.05.951.429,2.07-.841,2.72-1.023-.7-.792-1.7-.725-2.645.046-.63.5-1.221.177-1.89A3.879,3.879,0,0,0,57.2,51.07c-.384.909.294,1.75.172,2.652-.1.709.134,1.531-.836,1.943-1.163-.6-.815-1.683-.816-2.638,0-.626.508-1.2.208-1.865a3.863,3.863,0,0,0-3.908-.1c-.389.909.292,1.75.171,2.652-.1.709.132,1.532-.836,1.945-1.164-.6-.815-1.681-.816-2.637,0-.627.508-1.2.206-1.867a3.862,3.862,0,0,0-3.911-.091c-.381.911.3,1.756.172,2.66-.1.71.127,1.533-.79,1.922-.9-.249-.8-1.008-.909-1.674-.16-.968.447-1.871.22-2.843a3.874,3.874,0,0,0-3.891-.05c-.339.963.339,1.859.189,2.819-.1.663.063,1.423-.852,1.762-.863-.339-.759-1.134-.855-1.853-.119-.913.464-1.758.225-2.678a3.884,3.884,0,0,0-3.885-.056c-.344.6.083,1.147.114,1.724.054,1,.258,2.04-.618,2.88-.97-.253-.9-1-1.013-1.68-.16-.98.448-1.892.216-2.875a3.89,3.89,0,0,0-3.885-.044c-.345.647.138,1.236.135,1.86-.005.968.318,2.036-.74,2.717-.962-.266-.816-1.032-.915-1.693-.144-.967.456-1.865.225-2.836a3.86,3.86,0,0,0-3.893-.04c-.333.646.142,1.234.138,1.857,0,.966.323,2.033-.81,2.744-1.175-.66-.753-1.749-.794-2.695-.03-.664.557-1.311.054-1.992a11.533,11.533,0,0,0-7.023.123" transform="translate(5.698 16.315)" fill="#bd778b"/>
          <path id="Trazado_114582" data-name="Trazado 114582" d="M15.025,18.634c-.446,0-.319.347-.319.581-.008,2.375-.066,4.752.009,7.125.11,3.474-.258,6.928-.324,10.393-.066,3.507.205,7.037-.09,10.52-.2,2.4-.187,4.774-.237,7.16-.052,2.429.224,4.887-.065,7.281-.464,3.851-.119,7.691-.269,11.533-.015.366,0,.736,0,1.132H16.26V57.53l-.931-.751c.093-.5-.214-.784-.279-1.111a4.111,4.111,0,0,1,2.577-4.3,10.268,10.268,0,0,1,3.229-.321V46.385c0-1.943-.09-3.892.026-5.829s-.4-3.788-.359-5.7c.037-1.888.008-3.778.008-5.667,0-1.943-.016-3.887.009-5.83.009-.737-.565-1.371-.332-2.133-1.315-1-2.95-.1-4.337-.737-.487-.521-.307-1.356-.847-1.857" transform="translate(4.432 6.018)" fill="#a96477"/>
          <path id="Trazado_114583" data-name="Trazado 114583" d="M66.218,48.661c.066-.683.855-.521,1.11-.968H70.6l.459-.5V45.854l-.962-.736H17.422c-.14.23-.337.554-.536.878l-.194-.159v1.4c.245.216.4.516.806.462a8.481,8.481,0,0,1,1.131-.011H62.171a.723.723,0,0,0,.677.351l.454.946c1.054.635,2.053.766,2.916-.324" transform="translate(5.39 14.57)" fill="#e7f6fe"/>
          <path id="Trazado_114584" data-name="Trazado 114584" d="M65.91,47.8c-.347.056-.564.4-.992.344a16.068,16.068,0,0,0-1.924-.02c.146.685-.509.873-.819,1.318H17.646v2.573c2.185,0,4.371,0,6.556,0,.233,0,.568-.118.57.32a.883.883,0,0,0,1.3,0,.248.248,0,0,1,.254-.319q1.691-.016,3.38,0a.249.249,0,0,1,.254.319.883.883,0,0,0,1.3,0,.248.248,0,0,1,.254-.319q1.689-.016,3.379,0a.248.248,0,0,1,.254.319.884.884,0,0,0,1.3,0,.247.247,0,0,1,.253-.319q1.691-.016,3.38,0a.248.248,0,0,1,.254.319.883.883,0,0,0,1.3,0,.248.248,0,0,1,.254-.319q1.689-.016,3.38,0a.247.247,0,0,1,.253.319.884.884,0,0,0,1.3,0,.248.248,0,0,1,.254-.319q1.689-.016,3.379,0a.248.248,0,0,1,.254.319.885.885,0,0,0,1.3,0,.249.249,0,0,1,.254-.319q1.691-.016,3.38,0a.249.249,0,0,1,.254.319.885.885,0,0,0,1.3,0,.248.248,0,0,1,.254-.319q1.689-.016,3.379,0a.248.248,0,0,1,.254.319.887.887,0,0,0,1.3,0c0-.438.337-.319.57-.32,2.185-.007,4.371,0,6.555,0V49.5c-1.2-.29-2.42.325-3.588-.683-.082-.175.081-.606.025-1.019" transform="translate(5.698 15.435)" fill="#a96478"/>
          <path id="Trazado_114585" data-name="Trazado 114585" d="M4.914,55.061v7.932a.693.693,0,0,0,.108.115.254.254,0,0,0,.138.056c2.9,0,5.809,0,8.824,0V59.6a21.588,21.588,0,0,0,.134-4.329c-.13-.2-.187-.332-.278-.351a17.61,17.61,0,0,0-8.926.14" transform="translate(1.587 17.572)" fill="#9f546d"/>
          <path id="Trazado_114586" data-name="Trazado 114586" d="M36.583,29.416c-.091.038-.241.054-.265.118a1.1,1.1,0,0,0-.056.46c.224,3.092-.5,6.149-.328,9.238a20.831,20.831,0,0,0-.312,5.522c0,.484-.5.775-.359,1.326a6.072,6.072,0,0,1,.024,1.453h5.19c-.13-1.057.171-2.106-.287-3.207a5.622,5.622,0,0,1-.044-2.081c.029-2.494-.554-4.96-.324-7.46A5.965,5.965,0,0,1,39.5,32.01c-.578-.606-1.449-.332-2.088-.668-.529-.562-.259-1.426-.828-1.926" transform="translate(11.379 9.5)" fill="#a96377"/>
          <path id="Trazado_114587" data-name="Trazado 114587" d="M46.361,29.661c-.091.038-.241.054-.265.118a1.1,1.1,0,0,0-.056.46c.224,3.092-.5,6.149-.328,9.238-.507,1.816-.2,3.683-.36,5.518a6.875,6.875,0,0,0-.2,2.458h5.1c-.142-1.164.217-2.324-.284-3.53a5.631,5.631,0,0,1-.042-2.082c.03-2.492-.554-4.958-.324-7.46a4.925,4.925,0,0,1-.324-2.451c-.566-.585-1.4-.341-2.023-.632-.594-.413-.347-1.237-.893-1.636" transform="translate(14.558 9.579)" fill="#a96377"/>
          <path id="Trazado_114588" data-name="Trazado 114588" d="M26.455,31.507c.237,1.176-.328,2.275-.324,3.429a14.7,14.7,0,0,1-.048,3.389c-.41,1.7-.032,3.4-.324,5.051a25.32,25.32,0,0,0-.284,3.635h5.147c-.061-.856.311-1.757-.221-2.684a2.544,2.544,0,0,1-.054-1.266c.147-2.827-.564-5.62-.329-8.449a7.144,7.144,0,0,1-.323-3.1,2.737,2.737,0,0,0-3.24,0" transform="translate(8.226 10.003)" fill="#a96377"/>
          <path id="Trazado_114589" data-name="Trazado 114589" d="M9.109,52.9c-.029-.335.512-.434.328-.849,1.627-.915,3.424-.18,5.14-.527V49.071H4.655l-.7.908v1.168a1.435,1.435,0,0,0,.8.48,1.574,1.574,0,0,1,1.441.945c.863,1.09,1.861.959,2.916.324" transform="translate(1.278 15.847)" fill="#e7f6fe"/>
          <path id="Trazado_114590" data-name="Trazado 114590" d="M8.8,52.041a16.072,16.072,0,0,0-1.924.02c-.429.052-.644-.288-.992-.344v1.122c-.176.37-.856-.041-.971.564v2.529h9.07v4.539c.32.025.323-.2.323-.419,0-2.2,0-4.408,0-6.668H9.637c-.327-.47-.98-.658-.836-1.343" transform="translate(1.587 16.701)" fill="#81465a"/>
          <rect id="Rectángulo_37127" data-name="Rectángulo 37127" width="5.183" height="2.594" transform="translate(19.458 24.65)" fill="#bc778a"/>
          <path id="Trazado_114591" data-name="Trazado 114591" d="M26.216,32.012h3.24V29.434c-1.038-.038-2.085,0-3.24-.022Z" transform="translate(8.466 9.498)" fill="#bb768a"/>
          <rect id="Rectángulo_37128" data-name="Rectángulo 37128" width="2.916" height="2.594" transform="translate(47.962 38.915)" fill="#bc778a"/>
          <path id="Trazado_114592" data-name="Trazado 114592" d="M46.049,29.742v2.269h2.916V29.434a21.538,21.538,0,0,0-2.8.044c-.048.005-.077.173-.115.265" transform="translate(14.87 9.498)" fill="#bc778b"/>
          <path id="Trazado_114593" data-name="Trazado 114593" d="M69.483,21.426a11.794,11.794,0,0,0,1.455-3.6,22,22,0,0,0,.067-5.734c-.519-.36-.041-.987-.422-1.459a7.36,7.36,0,0,1-.542-1.38,17.965,17.965,0,0,0-1.909-2.936,10.819,10.819,0,0,0-3.78-2.994,9.47,9.47,0,0,0-4.944-1.355c-.7.048-1.4.02-2.1.007a11.187,11.187,0,0,0-7.5,3.006c-.206.171-.43.56-.57.528-.454-.1-.548.643-1.045.353C47.2,5.324,46.3,4.583,45.235,4.1a6.594,6.594,0,0,0-3.385-.831c-.427.038-.863.008-1.294.005a7.657,7.657,0,0,0-4.78,1.771A17.692,17.692,0,0,0,33.6,6.934,7.26,7.26,0,0,0,28.67,5.865,2.7,2.7,0,0,0,29.315,7.7a6.54,6.54,0,0,0,5.9,3.332c.656.005,1.254-.553,2.312-.038a23.7,23.7,0,0,0,2.188,2.531,9.436,9.436,0,0,0,4.994,2.441,17.557,17.557,0,0,0,2.137.27c.266,0,.589.079.79-.04.89-.53,2.045-.18,2.889-.915,1.258,1.046,2.054,2.518,3.281,3.609a18.7,18.7,0,0,0,3.5,2.5,9.656,9.656,0,0,0,2.99.939,11.54,11.54,0,0,0,3.253.413,17.093,17.093,0,0,0,5.325-1.216,2.4,2.4,0,0,1,.607-.1" transform="translate(9.252 0.631)" fill="#e7f6fe"/>
          <path id="Trazado_114594" data-name="Trazado 114594" d="M24.487,51.227h-1.3a1.485,1.485,0,0,0-.651,1.41c.008.861,0,1.721,0,2.671l.939.754h.864a2.48,2.48,0,0,0,.8-2.135,4.894,4.894,0,0,0-.388-2.582c-.044-.069-.177-.079-.269-.118" transform="translate(7.279 16.543)" fill="#070405"/>
          <path id="Trazado_114595" data-name="Trazado 114595" d="M28.405,51.227h-1.3a1.485,1.485,0,0,0-.651,1.41c.008.861,0,1.721,0,2.671l.939.754h.864a2.48,2.48,0,0,0,.8-2.135,4.894,4.894,0,0,0-.388-2.582c-.044-.069-.177-.079-.269-.118" transform="translate(8.544 16.543)" fill="#070405"/>
          <path id="Trazado_114596" data-name="Trazado 114596" d="M36.251,51.227h-1.3c-.5-.032-.431.5-.464.672-.283,1.43-.495,2.881.533,4.163h1.091c.257-.255.484-.484.712-.712a1.308,1.308,0,0,0,.067-.294c.007-.806,0-1.613.005-2.42a1.481,1.481,0,0,0-.65-1.41" transform="translate(11.063 16.542)" fill="#070405"/>
          <path id="Trazado_114597" data-name="Trazado 114597" d="M40.169,51.227h-1.3c-.5-.032-.431.5-.464.672-.283,1.43-.495,2.881.533,4.163h1.091c.257-.255.484-.484.712-.712a1.308,1.308,0,0,0,.067-.294c.007-.806,0-1.613.005-2.42a1.481,1.481,0,0,0-.65-1.41" transform="translate(12.328 16.542)" fill="#070405"/>
          <path id="Trazado_114598" data-name="Trazado 114598" d="M32.334,51.227h-1.3c-.5-.032-.431.5-.464.672-.283,1.43-.495,2.881.533,4.163h1.086a2.48,2.48,0,0,0,.8-2.135,4.894,4.894,0,0,0-.388-2.582c-.044-.069-.177-.079-.269-.118" transform="translate(9.798 16.542)" fill="#070405"/>
          <path id="Trazado_114599" data-name="Trazado 114599" d="M44.064,51.227h-1.3c-.045.355-.382.48-.606.784v2.963c.4.173.134.837.554.909.4.373.8.079,1.162.27.257-.314.493-.6.827-1.007-.254-1.185.587-2.705-.642-3.92" transform="translate(13.615 16.543)" fill="#070405"/>
          <path id="Trazado_114600" data-name="Trazado 114600" d="M47.982,51.227h-1.3c-.045.355-.382.48-.606.784v2.963c.4.173.134.837.554.909.4.373.8.079,1.162.27.257-.314.493-.6.827-1.007-.254-1.185.587-2.705-.642-3.92" transform="translate(14.88 16.543)" fill="#070405"/>
          <path id="Trazado_114601" data-name="Trazado 114601" d="M51.914,51.227h-1.3c-.9,1.126-.607,2.457-.652,3.728.443.193.18.857.6.929.4.373.8.079,1.162.27.257-.314.493-.6.827-1.007-.254-1.185.587-2.705-.642-3.92" transform="translate(16.132 16.543)" fill="#060405"/>
        </g>
      </g>
    </g>
  </g>
</svg>
