<svg xmlns="http://www.w3.org/2000/svg" xmlns:xlink="http://www.w3.org/1999/xlink" width="293" height="484" viewBox="0 0 293 484">
  <defs>
    <clipPath id="clip-path">
      <rect id="Rect치ngulo_39034" data-name="Rect치ngulo 39034" width="293" height="484" transform="translate(229 69)" fill="#fff" stroke="#707070" stroke-width="1"/>
    </clipPath>
    <clipPath id="clip-path-2">
      <rect id="Rect치ngulo_38945" data-name="Rect치ngulo 38945" width="484.03" height="484.988" fill="none"/>
    </clipPath>
  </defs>
  <g id="Enmascarar_grupo_82" data-name="Enmascarar grupo 82" transform="translate(-229 -69)" opacity="0.2" clip-path="url(#clip-path)">
    <g id="Grupo_849898" data-name="Grupo 849898" transform="translate(268 68.506)" opacity="0.3">
      <g id="Grupo_849620" data-name="Grupo 849620" transform="translate(0 0)" clip-path="url(#clip-path-2)">
        <path id="Trazado_585964" data-name="Trazado 585964" d="M405.566,64.51c17.182,0,33.874.068,50.565-.045,4.386-.03,8.493.3,11.565,3.624,2.31,1.751-.2,5.322,2.854,6.553-5.775,13.7-18.639,21.161-27.955,32.7,7.361,9.61,13.03,20.783,18.488,31.994,5.609,11.528,9.723,23.75,13.438,36.063,2.582,8.546,3.9,17.356,5.888,26,1.336,5.805.521,11.724,1.865,17.2,3.269,13.317.672,26.694,1.736,39.973.3,3.79-2.393,6.726-2.1,10.6.264,3.5.317,6.968-1.412,10.712-1.631,3.526-1.306,8.229-1.872,12.366-1.268,9.24-4.877,17.612-7.255,26.415-4.084,15.106-11.264,28.831-18.277,42.593-3.88,7.617-8.938,14.691-13.959,21.659-5.888,8.168-11.747,16.435-19.432,23.252,0,17.333.03,34.674-.015,52.015-.023,7.776-1.351,9.452-8.961,12.071-.536.181-.906.861-1.193,1.14-13.747-5.76-21.138-18.767-32.545-27.947-10.584,7.663-22.467,13.815-34.606,19.515-7.753,3.646-30.2,11.988-41.287,14.434-11.422,2.522-22.867,4.4-34.455,6.047a186.653,186.653,0,0,1-37.059,1.117,258.959,258.959,0,0,1-36.5-4.862c-11.1-2.235-21.553-5.964-32.266-9.082-11.8-3.442-22.814-8.946-33.549-14.774A223.7,223.7,0,0,1,91.7,432,141.813,141.813,0,0,1,78.69,420.5H24.108c-7.361-1.631-10.131-5.141-9.1-13.324,4.386-10.863,17.635-18.058,26.438-29.51-7.632-10.645-13.777-22.618-19.53-34.8C18.5,335.62,9.5,312.315,7.742,301.407c-3.284-3.2-.377-8.085-2.68-11.15-2.62-3.5-.091-7.542-2.62-11.362-1.887-2.846.566-8.236-.551-12-2.906-9.814-1.51-19.726-1.555-29.57-.03-5.413-1.291-10.863,1.276-16.457,2.212-4.832-.883-10.811,2.182-16.148,1.7-2.959-.672-6.908,1.736-10.69,1.646-2.582,1.276-6.885,1.94-10.418,1.8-9.64,5.534-18.617,8.636-27.736,3.367-9.882,8.629-19.122,13.128-28.619,4.333-9.142,10.524-17.137,16.11-25.479C50.78,93.666,56.721,85.86,64.2,79.02V22.876c1.842-2.431,1.895-5.534,3.767-6.515,2.355-1.948,5.232.128,6.455-2.567.445-.37.74.234,1.359.453,5.632,1.985,9.784,5.873,13.808,10.078,5.669,5.919,11.55,11.633,17.454,17.545,10.728-8.931,23.388-14.827,35.867-20.5,12.939-5.9,26.43-10.931,40.592-13.868,5.775-1.193,11.724-2.008,17.318-3.767,5.753-1.8,11.7-.551,17.167-1.918C230.951-1.418,244,1.149,256.928.032c4.145-.355,7.383,2.355,11.513,2.174,3.458-.159,6.923-.77,10.743,1.351C282.46,5.384,287.39,5,291.474,5.452c11.067,1.215,21.153,5.405,31.48,8.7A189.059,189.059,0,0,1,362.6,32.433c10.207,6.138,20.262,12.554,29.525,20.225,4.507,3.722,8.908,7.5,13.438,11.852" transform="translate(-0.004 0)"/>
        <path id="Trazado_585965" data-name="Trazado 585965" d="M71.57,275.567V201.455c-3.1-3.45-6.432-6.477-11.46-6.8-12.139,7.368-20.5,18.888-31.254,28.461-1.7-5.473-4.718-10.275-6.877-15.6-2.121-5.217-1.585-11.241-5.224-15.816.959-6.213-3.322-11.89-1.887-18.141.951-4.122-2.672-7.277-2.046-11.55.747-5.073.008-10.2,1.827-15.363,1.563-4.431-1.231-9.859,2.106-14.283C17.5,120.029,22.236,109,27.2,97.879A123.146,123.146,0,0,1,40.173,75.85c.959-1.321.649-2.982,2.061-4.182,21.848,0,43.861.015,65.883-.008,9.633-.008,11.55-1.533,14.555-11.467-7.247-12.222-19.092-20.579-28.31-31.322,7.338-3.14,14.1-7.21,21.991-8.9,5.2-1.11,10.569-2.084,15.529-3.6,5.277-1.616,10.735.083,15.272-1.8a26.571,26.571,0,0,1,14.419-1.382c8.3,1.193,16.684,1.608,24.958,3.382,8.953,1.925,17.7,4.069,26.143,7.7,10.6,4.552,21,9.354,29.842,16.978.619.536,1.887-.34,2.71,1.215v72.866c2.552,4.635,6.825,6.039,10.478,7.723,7.338-3,11.973-8.372,16.926-13.34,5.1-5.111,10.139-10.275,15.129-15.34,6.3,9.625,9.3,20.466,11.905,31.163,1.231,5.081,3.08,10.456,2.521,16.1-.672,6.742,2.793,13.151,1.857,20.043-2.408,17.68-4.016,35.512-11.392,52.09-4.681,10.516-9.814,20.776-16.978,29.88-.332.423-.294,1.132-.513,2.031H201.252c-3.442,3.3-6.575,6.221-7.013,11.414C201.252,269.452,213.2,277.8,222.45,288.4c-9.414,6.432-20.511,9.444-31.428,12-5.677,1.329-11.754,2.71-18.028,2.567-5.624-.121-11.331,1.57-17.152,1.834-4.492.2-8.017-2.71-12.464-2.227-4.175.453-8.365-.815-12.487-1.366-4.19-.566-8.146-2.121-12.343-2.65-3.82-.483-7.813-2.265-11.649-3.624-4.628-1.638-8.41-5.5-13.725-5.617-4.816-5.088-11.981-6.689-16.971-11.445-1.4-1.336-3.141-1.646-4.635-2.31" transform="translate(83.582 83.735)" fill="#f7f9fa"/>
        <path id="Trazado_585966" data-name="Trazado 585966" d="M307.194,47.918H270.128c-9.006,3.11-11.037,8.455-10.69,15.552.37,7.466.083,14.955.083,23.35-5.186-2.28-8.682-5.511-13.022-7.217-11.671-4.59-22.95-10.071-35.436-12.592a250.043,250.043,0,0,0-25.826-3.978c-5.375-.521-10.9-2.235-16.223-1.374-13.793,2.219-27.7,3.148-41.4,6.968-12.3,3.42-23.652,8.485-34.885,13.951-4.673,2.272-10.244,5.284-10.924,12.9,3.85,9.89,14,15.325,20.511,23.682-6.9,1.5-49.455,1.933-88.093.83V32.155c4.8,4.809,9.8,9.822,13.876,13.906,3.752.393,6.138-.257,7.391,2.106,10.629-4.681,19.47-12.268,29.5-17.831A110.394,110.394,0,0,1,84,21.5c6.59-2.167,12.32-6.84,19.613-7.338,2.816-3.4,7.338-1.472,10.856-3.548,2.846-1.668,6.87-1.729,10.358-2.4,7.957-1.548,16.042-2.37,23.909-3.888C162.112,1.747,175.46,2.366,188.6,3.242c10.2.679,20.987.679,30.733,5.247,8.553-.347,16.352,3.1,24.014,5.9,13.37,4.9,26.785,9.769,39.037,17.582,8.07,5.149,16,10.524,24.807,15.952" transform="translate(69.469 16.26)" fill="#99cc68"/>
        <path id="Trazado_585967" data-name="Trazado 585967" d="M236.072,70.83c-4.333-10.3-14.366-15.786-21.153-24.6h88.644V133.9c-.944-.6.695.559-.551.732-.2.023-.483-.189-.657-.362-4.862-4.922-9.716-9.852-14.3-14.495-2.152-.513-4.409,1.019-5.292-1.616-5.873,1.714-10.478,5.088-15.355,8.312-9.52,6.273-19.2,12.57-29.842,16.8-11.354,4.522-22.52,9.723-34.561,12.328-6.379,1.374-12.751,2.831-19.137,4.137-5.481,1.117-11.324.113-16.148,1.925-5.934,2.227-11.565,1.1-17.3,1.465-5.647.362-11.369-.37-16.978.2-6.273.642-11.883-2.416-18.126-2.227-5.526.166-11.014-1.85-16.5-3.14-3.971-.936-8.689-.6-12.185-2.559-3.533-1.978-7.413-2.016-10.962-3.178-7.225-2.363-14.208-5.405-21.2-8.206-6.976-2.8-13.574-6.908-20.187-10.7-7.949-4.545-14.948-10.561-23.237-14.449a2.4,2.4,0,0,1,.37-.657,1.314,1.314,0,0,1,.755-.43c12.275-.023,24.55-.015,36.561-.015,7.934-2.454,9.822-8.146,9.474-15.552-.34-7.436-.075-14.9-.075-23.463,4.409,2.763,7.451,5.224,10.909,6.726,6.658,2.907,13.853,4.983,20.187,8.183,6.772,3.412,14.457,2.982,20.768,6.953,5.9-1.034,11.18,3.163,17.122,2.016,6.2-1.193,11.792,2.869,18.111,1.955,14.774-2.129,29.623-2.952,44.231-7.157a163.2,163.2,0,0,0,34.055-13.694c5.186-2.854,10.728-5.066,12.547-12.894" transform="translate(96.987 302.755)" fill="#ea5463"/>
        <path id="Trazado_585968" data-name="Trazado 585968" d="M91.445,14.249v37.18c3.11,9.074,8.455,11.09,15.544,10.735,7.444-.377,14.917-.083,22.2-.083,1.1,3.978-2.378,4.582-3.367,6.643-4.794,9.988-7.9,20.715-13.264,30.454.408,7.043-2.929,13.37-4.107,20.141-1.072,6.107-.211,12.479-1.91,18.088a36.945,36.945,0,0,0-1.291,17.258c2.378,13.166,3.148,26.513,6.847,39.619,3.458,12.29,8.674,23.591,13.913,34.968a23.573,23.573,0,0,0,5.639,8.025c1.721,1.465,4.107,2.144,6.289,3.224,10.946-4.092,16.118-14.555,24.648-20.745,1.465,6.923,1.887,50.837.762,88.13H75.659c4.839-4.847,9.837-9.859,13.981-14.011.325-3.684-.294-6.062,2.008-7.285-4.575-10.712-12.117-19.583-17.816-29.563a192.013,192.013,0,0,1-12.3-27.057c-3.027-7.942-5.428-16.08-7.874-24.211-1.48-4.854-1.8-9.852-3.2-14.691-1.661-5.73-1.306-12.222-2.506-17.99-2.786-13.377-2.016-26.792-1.08-39.951.725-10.214.566-21.047,5.216-30.794-.34-8.576,3.073-16.4,5.9-24.06C62.9,64.882,67.732,51.437,75.531,39.147c5.133-8.078,10.524-15.989,15.914-24.9" transform="translate(-27.344 93.322)" fill="#fccc56"/>
        <path id="Trazado_585969" data-name="Trazado 585969" d="M28.188,78.929c-2.461-.823-3.3,2.884-5.753,2.069q-9.354,9.365-18.7,18.737C2.369,91.99,1.969,36.351,3.1,11.1h88.04c-4.892,4.9-9.7,9.723-14.51,14.54-1.178,2.34,1.268,5.768-1.668,6.809,3.578,10.546,11.43,18.518,16.5,28.2,3.39,6.485,7.179,12.721,9.6,19.689,2.393,6.877,5.4,13.543,8,20.338,1.389,3.631.528,7.595,3.08,11.082a13.786,13.786,0,0,1,2.106,10.41c3.82,3.261.642,8.191,2.99,12.041,2.167,3.548-.181,8.093.883,11.913,3.6,12.9,2.174,26.09,1.4,38.962-.642,10.569-.861,21.621-5.269,31.737.355,8.576-3.02,16.45-5.926,24.044-5.088,13.317-9.769,26.823-17.56,39.136-5.02,7.949-10.9,15.438-15.484,24.935-1.336-7.127-.551-13.483-.679-19.772-.143-6.606-.038-13.219-.038-17.967-2.68-9.225-8.387-10.622-15.355-10.343-7.436.3-14.895.068-23.524.068,2.718-4.318,4.952-7.406,6.711-10.75,4.356-8.259,6.953-17.288,10.72-25.834,2.574-5.836,2.884-12.645,4.484-18.956,1.676-6.606.921-13.543,2.265-19.953,1.027-4.9,1.985-9.754,1.306-14.427C59.17,153.139,58.3,139.18,54.406,125.44A183.28,183.28,0,0,0,40.478,90.495C37.806,85.354,35.1,79.76,28.188,78.929" transform="translate(345.124 72.692)" fill="#4fbfe7"/>
        <path id="Trazado_585970" data-name="Trazado 585970" d="M58.847,183.372V173.219c-11.143-3.926-21.342-9.082-27.419-19.968-6.485-11.588-6.893-24.845.521-36.508,7.746-12.169,16.933-15.906,28-18.684,5.519-1.382,10.818-1.4,16.269-1.631A29.958,29.958,0,0,0,90.947,81.555V73.878c-2.152-6.077-6.394-9.278-10-13.03-16.691-6.047-27.91.2-38.094,10.863H36.931c-1.827-2.046-3.918-4.379-6.387-7.142V57.707c7.338-8.614,16.374-14.615,28.03-16.639V30.522c1.948-4.877,4.077-8.735,9.648-9.663a17.542,17.542,0,0,1,9.429,6.674V38.456c2.612,3.843,6.726,3.254,9.852,4.869a41.617,41.617,0,0,1,22.051,28.136c2.552,10.75-1.208,20.866-8.727,29.284C95.1,107.177,88.553,111.964,80,114.372c-3.14.883-6.017.785-8.991.929-6.681.31-12.63,2.514-18.458,5.654-3.6,1.94-2.635,7.134-6.96,7.889,0,2.672.038,4.847-.008,7.021-.136,7.557,3.692,12.222,10.275,15.544,13.491,6.817,19.47,3.669,30.258-3.8,1.517-1.049,2.786-3.654,4.077-3.593,2.287.106,2.778-2.748,4.884-2.136,2.771-.913,4.046,2.574,6.613,2.242,2.839,3.661,2.8,7.859,2.3,12.139-7.089,7.572-15.076,13.71-26.128,16.608-.687,4.009.717,9.052-1.978,13.468-1.789,2.944-5.519,2.355-6.908,5.149-3.963-2.235-8.032-3.133-10.131-8.108" transform="translate(173.799 136.613)"/>
      </g>
    </g>
  </g>
</svg>
