<svg xmlns="http://www.w3.org/2000/svg" xmlns:xlink="http://www.w3.org/1999/xlink" width="81.907" height="87.449" viewBox="0 0 81.907 87.449">
  <defs>
    <clipPath id="clip-path">
      <rect id="Rectángulo_37617" data-name="Rectángulo 37617" width="81.907" height="87.449" fill="none"/>
    </clipPath>
  </defs>
  <g id="Grupo_845866" data-name="Grupo 845866" transform="translate(0 0.001)">
    <g id="Grupo_845865" data-name="Grupo 845865" transform="translate(0 0)" clip-path="url(#clip-path)">
      <path id="Trazado_584116" data-name="Trazado 584116" d="M57.762,75.692c.455.034.264-.384.495-.691.693.1,1.508-.226,2.233.35a4.939,4.939,0,0,1,3.736-1.217,4.449,4.449,0,0,0,2.789-.451c1.6-1.253,1.9-2.987,1.9-4.88Q68.9,52.1,68.911,35.4q0-10.566-.006-21.134a4.168,4.168,0,0,0-.507-2.745,2.746,2.746,0,0,0-1.982-.465q-28.016-.018-56.03,0a4.878,4.878,0,0,0-1.183.1c-.949.322-1.039,1.143-1.045,1.944q-.078,10.41-.01,20.816A3.826,3.826,0,0,0,9.331,36.66q2.748,2.8,5.546,5.548a3.08,3.08,0,0,0,2.417,1.047c5.166-.286,10.338-.106,15.508-.124q13.81-.048,27.619.008c.885,0,1.958-.29,2.527.941-.723.985-1.762.689-2.657.691q-19.18.033-38.36.024c-1,0-2.056-.186-2.979.511-.162,1.005.575,1.546,1.145,2.13,2.3,2.359,4.611,4.717,7,6.992a5.364,5.364,0,0,1,1.842,4.547c-.066.849.012,1.706-.014,2.559a5.687,5.687,0,0,0,1.111,4.175.9.9,0,0,1,.264,1c-.264.286-.535.264-.687.124-1.75-1.628-3.91-1.778-6.083-1.54a7.21,7.21,0,0,1-6.712-2.773c-1.852-2.146-3.975-4.061-6-6.057a3.2,3.2,0,0,0-1.98-1.243c-.713.41-.679,1.137-.687,1.8-.042,3.922-.1,7.849.012,11.771.1,3.568,2.04,5.382,5.608,5.386q20.033.021,40.063,0c1.532,0,2.961.124,3.926,1.524" transform="translate(8.117 11.069)" fill="#f8f4f2"/>
      <path id="Trazado_584117" data-name="Trazado 584117" d="M65.879,86.761V85.568a2.892,2.892,0,0,0-2.036-.839,12.363,12.363,0,0,0-1.7-.016q-20.543,0-41.085,0a2.887,2.887,0,0,1-2.182-.485,4.549,4.549,0,0,1-1.776-2.5,8.831,8.831,0,0,1-.338-1.57c.032-4.435.016-8.872.02-13.307a2.814,2.814,0,0,1,.03-.348l10.352,10.36c2.513,0,4.725.052,6.932-.02a3.283,3.283,0,0,1,2.765,1.171c.262.3.559.567.841.849.559.092,1.111.17,1.544-.443V77c-.525-.527-1.047-1.049-1.63-1.632V67.455a5.438,5.438,0,0,0-1.388-1.668q-4.214-4.226-8.438-8.446c-.262-.262-.525-.525-.9-.9H71.1a3.728,3.728,0,0,0,.923-1.406,1.927,1.927,0,0,0-1.187-1.376q-22.162,0-44.32-.03c-.7,0-1.239.428-1.732.386-2.653-2.657-5.214-5.22-8-8.011V41.812c0-6.085-.006-12.17.016-18.257,0-.312-.34-.833.324-.953a3.454,3.454,0,0,1,1.834-.166q27.4-.015,54.8-.036a7.864,7.864,0,0,1,4.589,1.163c.5,1.346.194,2.835.264,4.289a17.472,17.472,0,0,0,.146,3.055c.212.927.583,1.756,1.794,1.592.366.062.439-.587.821-.334.384-.2-.046-.823.543-.765,0-6.225,0-12.364,0-18.505a8.162,8.162,0,0,0-2.048-5.108A6.055,6.055,0,0,0,75.54,5.879c-.675.01-1.352,0-2.136,0-.092-1.217.164-2.459-.6-3.822l-1.5-1.5C70.176.149,69.055-.256,68.034.2a4.618,4.618,0,0,0-2.417,1.972,7.576,7.576,0,0,0-.434,3.208l-.438.438H59.512l-.432-.434c-.13-1.382.356-2.9-.949-4.035a4.381,4.381,0,0,0-3.9-1.217c-2.713.881-3.542,2.937-3.334,5.668H45.084a6.879,6.879,0,0,0-.675-3.836c-.29-.288-.851-.853-1.414-1.416a4.323,4.323,0,0,0-4.2.19L37.275,2.257A8.116,8.116,0,0,0,36.9,5.845H31.1c.148-2.591-.487-4.775-3.586-5.757a4.518,4.518,0,0,0-2.773.629A3.192,3.192,0,0,0,22.91,3.725c.024.561,0,1.125,0,1.644l-.511.511c-.615,0-1.342.006-2.066,0a4.631,4.631,0,0,0-2.559.833A7.262,7.262,0,0,0,14.9,9.94c-.122.272-.032.715-.509.8V43.928c-.849-.851-1.586-1.5-2.213-2.239A11.736,11.736,0,0,0,10.1,40.058a1.669,1.669,0,0,0-1.362-.418,7.614,7.614,0,0,1-1.668.026A20.607,20.607,0,0,0,1.3,45.086c-.27.406-.777.6-.9,1.163C.239,46.938-.2,47.657.1,48.313a7.307,7.307,0,0,0,1.364,2.519c4.343,4.257,8.618,8.582,12.927,12.893q0,8.6,0,17.216a6.13,6.13,0,0,0,2.839,5.138,6.954,6.954,0,0,0,4.207,1.366H65.05c.1-.475.819-.13.829-.683" transform="translate(0 0.001)"/>
      <path id="Trazado_584118" data-name="Trazado 584118" d="M71.973,21.405c-.352.028-.461-.537-.871-.36-.246-.226-.112-.675-.489-.827V11.562c-1.313.124-2.549-.4-3.862-.4q-28.37.006-56.738.026c-.475,0-1.123-.426-1.464.318H67.842V70.948a10.492,10.492,0,0,1-1.666,2.673,3.351,3.351,0,0,0,4.263-1.64,7.287,7.287,0,0,0,.731-3.971q0-19.705-.01-39.411a9.883,9.883,0,0,1,.813-4.805Z" transform="translate(8.568 11.094)" fill="#f8e9df"/>
      <path id="Trazado_584119" data-name="Trazado 584119" d="M46.2,17.425c-.352-.028-.459.537-.871.358-.248.226-.108.675-.487.827V63.983a4.26,4.26,0,0,1-2.907,3.266H40.4c-1.113,0-2.227,0-3.338,0a4.418,4.418,0,0,0-1.876.3c-.833.372-.873.282-.925,1.4.1.491.617.631.807,1.023,1.908,0,3.78.012,5.65,0A6.037,6.037,0,0,0,45.2,68.064,6.8,6.8,0,0,0,46.682,66.3a8.009,8.009,0,0,0,.873-3.386q.018-22.15.008-44.294a.766.766,0,0,1-.37-.713l-.993-.479" transform="translate(34.342 17.464)" fill="#020202"/>
      <path id="Trazado_584120" data-name="Trazado 584120" d="M12.617,18.447l-.471.471v1.448l.436.436H59.035c.184-.232.457-.581.871-1.107.138-.531-.541-.807-.933-1.247H12.617" transform="translate(12.174 18.49)"/>
      <path id="Trazado_584121" data-name="Trazado 584121" d="M12.62,14.186l-.477.477V16.1c.158.158.278.278.436.438H59c.288-.274.577-.547.827-.783.236-.837-.469-1.105-.809-1.568Z" transform="translate(12.171 14.219)"/>
      <path id="Trazado_584122" data-name="Trazado 584122" d="M59.022,25.078c.306-.43.971-.637.823-1.55-.07-.282-.551-.457-.785-.8H12.623c-.749.535-.432,1.245-.475,1.858a3.134,3.134,0,0,0,2.225.495q22.318,0,44.649,0" transform="translate(12.145 22.78)"/>
      <path id="Trazado_584123" data-name="Trazado 584123" d="M20.218,31.673c.052.236-.354.4-.42.715-.14.392.653.42.286.847a3.417,3.417,0,0,0,2.042.571q13.87-.027,27.739,0a4.431,4.431,0,0,0,1.884-.422c.212-.236-.054-.739.4-.735.22-.559-.633-.627-.282-1.069a3.083,3.083,0,0,0-2.094-.525q-13.786.015-27.571.008a2.178,2.178,0,0,0-1.988.609" transform="translate(19.826 31.127)" fill="#040404"/>
      <path id="Trazado_584124" data-name="Trazado 584124" d="M64.99,4.489V6.322c-.633,2.257-2.012,3.436-3.882,3.568-1.936.136-3.328-1.083-4.3-2.929V4.2H50.668c0,.493,0,1.039,0,1.588a3.793,3.793,0,0,1-2.935,3.818,2.87,2.87,0,0,1-2.427-.042c-.729-.3-1.654-.549-1.9-1.566-.056-.236-.38-.406-.581-.609.118-1.057-.667-2.01-.27-3.168H36.732V6.241c-.7,2.327-2.082,3.646-4.139,3.646a4.369,4.369,0,0,1-4.123-3.154V4.187H22.782c-.224.763-.108,1.574-.358,2.381A4.218,4.218,0,0,1,19.41,9.679a3.213,3.213,0,0,1-2.545-.3,4.075,4.075,0,0,1-2.006-1.858A1.959,1.959,0,0,1,14.513,6.3c.046-.673.01-1.352.01-2.184-1.069.158-2.056-.09-3.108.344C9.909,5.076,8.434,6.646,8.4,8.2c-.052,2.487-.014,4.978-.014,7.553H68.059a2.071,2.071,0,0,0,.513-1.406,63.928,63.928,0,0,0-.052-6.954c-.218-2.4-1.336-3.246-3.53-2.9" transform="translate(8.391 4.121)" fill="#fecd69"/>
      <path id="Trazado_584125" data-name="Trazado 584125" d="M6.194,25.765c-.763.763-1.428,1.43-1.988,1.988L24.135,47.7l1.72-1.72c-.04-.21.11-.5-.154-.733-.214-.186-.4-.4-.6-.6Q15.833,35.375,6.569,26.105c-.116-.116-.242-.222-.374-.34" transform="translate(4.216 25.825)" fill="#9fc7fd"/>
      <path id="Trazado_584126" data-name="Trazado 584126" d="M7.009,24.492c-.493.094-.645.6-1.005.835l20,20.013a1.72,1.72,0,0,0,1.119-1.053c.2-.843-.475-1.227-.929-1.684q-8.593-8.641-17.23-17.236c-.509-.5-.947-1.4-1.96-.875" transform="translate(6.018 24.388)" fill="#9fc6fd"/>
      <path id="Trazado_584127" data-name="Trazado 584127" d="M5.811,21.344c-1.628,1.211-2.855,2.841-4.395,4.189v1.482c1.153,1.151,2.309,2.309,3.552,3.554,1.606-1.748,3.456-3.254,4.936-5.13a6.673,6.673,0,0,0-4.093-4.095" transform="translate(1.419 21.394)" fill="#f88dba"/>
      <path id="Trazado_584128" data-name="Trazado 584128" d="M6.506,24.993c.208.046.441-.1.635.116.306.334.639.645.959.967Q16.822,34.8,25.538,43.538a3.8,3.8,0,0,1,1.087,1.249,2.478,2.478,0,0,0,.981-.861L7.529,23.832c-.2.274-.789.563-1.023,1.161" transform="translate(6.521 23.887)" fill="#90b1f8"/>
      <path id="Trazado_584129" data-name="Trazado 584129" d="M36.652,4.472H38.2a4.7,4.7,0,0,1,1.538,3.61c-.074,2.549-.02,5.1-.02,7.653h2.693V7.525a5.235,5.235,0,0,0-3.152-3.394c-.781,0-1.564-.01-2.345.006a.261.261,0,0,0-.266.334" transform="translate(36.729 4.139)" fill="#febc61"/>
      <path id="Trazado_584130" data-name="Trazado 584130" d="M26.772,8.887c.092.491.595.641.837,1.015h1.406L29.821,9V2.168c-.206-.138-.531-.358-1.1-.741H27.583c-.216.334-.719.485-.811.977a24.239,24.239,0,0,1,0,6.483" transform="translate(26.833 1.431)" fill="#aac2d4"/>
      <path id="Trazado_584131" data-name="Trazado 584131" d="M19.791,8.892c.092.491.595.641.837,1.015h1.019a3.442,3.442,0,0,0,1.213-1.77c0-1.309,0-2.885,0-4.463a5.013,5.013,0,0,0-.8-2.253h-1.8c-.122.23-.481.3-.465.645.036,2.275-.016,4.551,0,6.826" transform="translate(19.832 1.426)" fill="#a7c0d1"/>
      <path id="Trazado_584132" data-name="Trazado 584132" d="M12.637,8.209v.857l.863.841h1.388l.8-.939V2.176c-.214-.156-.533-.384-1.043-.753h-1.2c-.12.228-.481.3-.465.643,0,1.642.014,3.286-.006,4.928-.006.42.2.929-.334,1.215" transform="translate(12.666 1.427)" fill="#aac3d5"/>
      <path id="Trazado_584133" data-name="Trazado 584133" d="M33.924,9.231c.418.737,1.131.689,1.9.683.208-.272.451-.585.793-1.029V1.86c-.152-.152-.272-.272-.434-.436h-1.8c-.12.224-.481.292-.465.641q.006,3.583,0,7.166" transform="translate(34.001 1.428)" fill="#aac3d4"/>
      <path id="Trazado_584134" data-name="Trazado 584134" d="M3.611,21.7A28.458,28.458,0,0,1,7.7,25.792a2.991,2.991,0,0,0,1.135-1.043c-1.356-1.3-2.443-2.817-4.129-3.758-.34.268-.911.172-1.1.707" transform="translate(3.619 21.04)" fill="#ef7cac"/>
      <path id="Trazado_584135" data-name="Trazado 584135" d="M15.761,38.8H19V35.561q-1.6,1.6-3.238,3.238" transform="translate(15.797 35.643)" fill="#f0e2d8"/>
      <path id="Trazado_584136" data-name="Trazado 584136" d="M34.106,8.914a.26.26,0,0,0,.334-.268q.015-3.316,0-6.63a.259.259,0,0,0-.334-.268c-.06.364-.378.6-.362,1.043.054,1.692.054,3.388,0,5.078-.016.445.3.679.362,1.045" transform="translate(33.819 1.745)" fill="#b5ccd9"/>
      <path id="Trazado_584137" data-name="Trazado 584137" d="M12.642,7.89c.549-.072.166.591.683.7V4.048c0-.679.008-1.356-.008-2.034a.26.26,0,0,0-.334-.266c-.459,0-.334.352-.336.6-.008,1.848,0,3.7,0,5.544" transform="translate(12.661 1.746)" fill="#b0c8d7"/>
      <path id="Trazado_584138" data-name="Trazado 584138" d="M19.976,8.573A.26.26,0,0,0,20.31,8.3q.015-3.145,0-6.289a.26.26,0,0,0-.334-.268c-.657,2.068-.224,4.195-.328,6.291-.008.188.376.252.328.535" transform="translate(19.647 1.746)" fill="#b8cfda"/>
      <path id="Trazado_584139" data-name="Trazado 584139" d="M26.772,8.4a.26.26,0,0,0,.334-.268q.015-2.973,0-5.947a.259.259,0,0,0-.334-.268Z" transform="translate(26.833 1.917)" fill="#bcd2dc"/>
    </g>
  </g>
</svg>
