<svg xmlns="http://www.w3.org/2000/svg" width="33.18" height="25.306" viewBox="0 0 33.18 25.306">
  <path id="Trazado_586295" data-name="Trazado 586295" d="M8.47-18.27a12.947,12.947,0,0,0-1.155,5.915A12.947,12.947,0,0,0,8.47-6.44,3.806,3.806,0,0,0,12.075-4.2a3.806,3.806,0,0,0,3.6-2.24,12.947,12.947,0,0,0,1.155-5.915A12.947,12.947,0,0,0,15.68-18.27a3.806,3.806,0,0,0-3.6-2.24A3.806,3.806,0,0,0,8.47-18.27ZM12.075.28Q7,.28,4.48-3.168T1.96-12.373q0-5.758,2.52-9.205t7.6-3.448q5.075,0,7.6,3.448t2.52,9.205q0,5.758-2.52,9.205T12.075.28Zm13.16-24.745h9.9V0H29.89V-19.81H25.235Z" transform="translate(-1.96 25.025)" fill="#12263f"/>
</svg>
