<svg xmlns="http://www.w3.org/2000/svg" width="53" height="53" viewBox="0 0 53 53">
  <g id="Grupo_80736" data-name="Grupo 80736" transform="translate(-737 -6767)">
    <g id="Grupo_80712" data-name="Grupo 80712" transform="translate(137 -303)">
      <circle id="Elipse_4732" data-name="Elipse 4732" cx="26.5" cy="26.5" r="26.5" transform="translate(600 7070)" fill="#f0d1ff"/>
      <path id="Trazado_114602" data-name="Trazado 114602" d="M19.5,0A19.5,19.5,0,1,1,0,19.5,19.5,19.5,0,0,1,19.5,0Z" transform="translate(607 7077)" fill="#161730"/>
    </g>
    <path id="Trazado_586294" data-name="Trazado 586294" d="M2.725-12.981v2.329H2.593a4.447,4.447,0,0,0-2.729.8A3.358,3.358,0,0,0-1.45-7.646a3.464,3.464,0,0,1,2.531-.984A3.231,3.231,0,0,1,3.727-7.418a4.892,4.892,0,0,1,.984,3.182A4.48,4.48,0,0,1,4.135-2,4.108,4.108,0,0,1,2.527-.4,4.622,4.622,0,0,1,.237.176,4.777,4.777,0,0,1-2.2-.444a4.26,4.26,0,0,1-1.67-1.771,5.832,5.832,0,0,1-.615-2.654V-6.056a7.387,7.387,0,0,1,.848-3.555,6.149,6.149,0,0,1,2.421-2.474,6.923,6.923,0,0,1,3.489-.9ZM.053-6.346a1.7,1.7,0,0,0-.984.271,1.725,1.725,0,0,0-.589.665v.884q0,2.416,1.679,2.416a1.363,1.363,0,0,0,1.129-.6A2.454,2.454,0,0,0,1.74-4.228a2.409,2.409,0,0,0-.461-1.527A1.478,1.478,0,0,0,.053-6.346Z" transform="translate(764 6800)" fill="#fff" stroke="rgba(0,0,0,0)" stroke-width="1"/>
  </g>
</svg>
