<svg xmlns="http://www.w3.org/2000/svg" width="40.95" height="25.305" viewBox="0 0 40.95 25.305">
  <path id="Trazado_586297" data-name="Trazado 586297" d="M8.47-18.27a12.947,12.947,0,0,0-1.155,5.915A12.947,12.947,0,0,0,8.47-6.44,3.806,3.806,0,0,0,12.075-4.2a3.806,3.806,0,0,0,3.6-2.24,12.947,12.947,0,0,0,1.155-5.915A12.947,12.947,0,0,0,15.68-18.27a3.806,3.806,0,0,0-3.6-2.24A3.806,3.806,0,0,0,8.47-18.27ZM12.075.28Q7,.28,4.48-3.168T1.96-12.373q0-5.758,2.52-9.205t7.6-3.448q5.075,0,7.6,3.448t2.52,9.205q0,5.758-2.52,9.205T12.075.28Zm14.7-20.09v-4.655h14.98v3.78l-5.005,5.7a7.129,7.129,0,0,1,4.55,2.468,7.025,7.025,0,0,1,1.61,4.568A7.456,7.456,0,0,1,40.3-1.908,10.02,10.02,0,0,1,33.635.28,14.469,14.469,0,0,1,25.41-2.59l2.24-4.34a11.153,11.153,0,0,0,6.2,2.45,4.38,4.38,0,0,0,2.713-.805,2.738,2.738,0,0,0,1.067-2.328A2.834,2.834,0,0,0,36.4-10.028a5.671,5.671,0,0,0-3.4-.892,11.693,11.693,0,0,0-3.255.665V-14.28l4.69-5.53Z" transform="translate(-1.96 25.025)" fill="#161730"/>
</svg>
