<svg xmlns="http://www.w3.org/2000/svg" xmlns:xlink="http://www.w3.org/1999/xlink" width="55.441" height="47.206" viewBox="0 0 55.441 47.206">
  <defs>
    <clipPath id="clip-path">
      <rect id="Rect치ngulo_37335" data-name="Rect치ngulo 37335" width="55.441" height="47.206" fill="none"/>
    </clipPath>
  </defs>
  <g id="Grupo_157022" data-name="Grupo 157022" transform="translate(0 0.001)">
    <g id="Grupo_157013" data-name="Grupo 157013" transform="translate(0 0)" clip-path="url(#clip-path)">
      <path id="Trazado_121408" data-name="Trazado 121408" d="M40.454.9c-.366-.1-.49-.493-.808-.628A5.3,5.3,0,0,0,37.365.033c-2.621,0-5.242,0-7.838,0-.284.286-.878.27-.772.865-.205,1.026.561,1.123,1.223,1.165,1.58.1,3.165.024,4.748.043a4.509,4.509,0,0,1,1.862.227,7.952,7.952,0,0,1,.045,4.6,1.464,1.464,0,0,1-1.215.319q-4.709.018-9.415,0a1.58,1.58,0,0,1-1.222-.3,1.939,1.939,0,0,1-.255-1.542,16.642,16.642,0,0,1,.116-3.033c.742-.662,2.337.18,2.38-1.483-.062-.025-.167-.04-.177-.078A3.532,3.532,0,0,1,26.788.34c-.755-.535-1.659-.273-2.51-.3a5.379,5.379,0,0,0-2.507.228c-.33.121-.444.535-.815.625-.893.53-.884,1.555-1.3,2.348-.675,1.684-1.29,3.391-1.944,5.083-.082.25-.168.5-.256.746a7.393,7.393,0,0,1-1.537,2.536,4.062,4.062,0,0,0,.062,3.134,2.722,2.722,0,0,1,.756,2.377c.746,8.452,1.5,16.9,2.22,25.355a6.237,6.237,0,0,1,.184,1.582,2.42,2.42,0,0,0,1.161,2.258,4.228,4.228,0,0,0,2.668.878q7.731-.042,15.461,0a4.23,4.23,0,0,0,2.669-.878,2.474,2.474,0,0,0,1.166-2.352,6.12,6.12,0,0,1,.174-1.684c.744-8.382,1.47-16.764,2.229-25.143a2.682,2.682,0,0,1,.745-2.382,4.069,4.069,0,0,0,.077-3.138C45,10.822,44.21,10.209,44,9.232c-.094-.3-.208-.594-.3-.9-.675-1.687-1.258-3.409-1.946-5.091-.419-.79-.405-1.82-1.3-2.348" transform="translate(-2.99 0)"/>
      <path id="Trazado_121409" data-name="Trazado 121409" d="M50.6,20.811c.138.573-.2,1.085-.214,1.635a4.974,4.974,0,0,1-.04,1.6,3.9,3.9,0,0,0-.158,1.757c.03.544-.3.992-.249,1.53a4.036,4.036,0,0,1-.02,1.605,17.9,17.9,0,0,0-.207,2.181c-.21.907-.064,1.833-.232,2.712-.148.771-.052,1.546-.208,2.283-.178.839-.044,1.7-.225,2.5-.192.845-.037,1.693-.208,2.5-.177.84-.031,1.7-.228,2.494a15.505,15.505,0,0,0-.178,2.723.977.977,0,0,0-.023.857,1.641,1.641,0,0,0,1.184.36q4.536.033,9.072,0a1.968,1.968,0,0,0,.941-.2,2.743,2.743,0,0,0,.577-2.016c.432-5.3.967-10.6,1.373-15.9a4.2,4.2,0,0,1,.958-2.784,6.459,6.459,0,0,0-.011-.962,1.274,1.274,0,0,1,.227-.768,2.255,2.255,0,0,1-.6-2.068,2.743,2.743,0,0,0-.253-2.091,2.432,2.432,0,0,0-1.555-.31q-4.093-.015-8.186,0a2.1,2.1,0,0,0-1.533.359" transform="translate(-9.239 -3.908)" fill="#fdf38a"/>
      <path id="Trazado_121410" data-name="Trazado 121410" d="M14.608,20.316V18.9c-.3-.222-.485-.6-.867-.745a1.638,1.638,0,0,0-1.9.023,3.174,3.174,0,0,1-1.953.5c-1.767-.006-3.535-.01-5.3,0a2.264,2.264,0,0,0-1.465.3,1.907,1.907,0,0,0-.236,1.538c.532,5.877,1.036,11.757,1.567,17.634a3.446,3.446,0,0,1-.456,1.631v1.73a3.223,3.223,0,0,1,.98,2.525,31.006,31.006,0,0,0,.264,3.115c.137,1.525.7,2.012,2.232,2.038q2.81.05,5.621,0a5.561,5.561,0,0,1,2.818.541h1.951a3.965,3.965,0,0,1-.886-2.65c.015-.331.231-.759-.2-1.027a13.174,13.174,0,0,1-5.247.212c-.943-.072-1.442-.789-1.526-1.947-.193-2.692-.456-5.376-.692-8.064-.337-3.833-.654-7.668-1.017-11.5a10.808,10.808,0,0,1-.061-1.293A2.632,2.632,0,0,1,10.9,20.671c.827-.059,1.658-.011,2.488-.026a1.713,1.713,0,0,0,1.221-.329" transform="translate(-0.541 -3.413)" fill="#def5fc"/>
      <path id="Trazado_121411" data-name="Trazado 121411" d="M3.45,36.371c.457.1.582-.34.866-.537,0-.426.148-.941-.037-1.266a2.209,2.209,0,0,1-.172-1.119,5.006,5.006,0,0,0-.031-1.284,18.98,18.98,0,0,1-.221-2.285C3.641,29,3.8,28.117,3.635,27.274c-.162-.8-.053-1.619-.217-2.39-.171-.806-.043-1.623-.218-2.39-.191-.843-.051-1.69-.211-2.5-.173-.874-.05-1.766-.232-2.6a13.687,13.687,0,0,1-.184-1.761h8.12c.227-.3.716-.234.774-.671.145-.9-.126-1.275-1.1-1.381a29.813,29.813,0,0,0-3.031-.045c-1.3-.008-2.6.006-3.9-.006a1.569,1.569,0,0,1-1.233-.31c.209-.663.755-.489,1.17-.495,2.166-.032,4.333.026,6.5-.035.848-.023,1.708-.137,1.814-1.267-.175-.9-.857-1.079-1.622-1.094-1.766-.034-3.533,0-5.3-.018a2.477,2.477,0,0,1-1.3-.171c.814-2.482,1.815-4.908,2.8-7.351.133,1.339.091,2.66.113,3.98C6.412,8.6,7.2,9.42,9.019,9.428a20.394,20.394,0,0,0,3.776-.1.924.924,0,0,0,.624-.9C13.3,7.6,12.716,7.35,11.986,7.3c-.708-.05-1.417-.011-2.126-.027a1.48,1.48,0,0,1-1.1-.279,10.883,10.883,0,0,1,.023-4.67,2.866,2.866,0,0,1,1.567-.209c1.479-.023,2.959.059,4.434-.044.663-.046,1.432-.138,1.229-1.166.1-.457-.341-.582-.538-.865-2.808,0-5.619.021-8.429-.02C6.571.008,6.2.325,5.726.25L4.581,1.414a6.656,6.656,0,0,1-.619,1.665c-.708,1.9-1.335,3.833-2.188,5.681-.205.446-.237.972-.49,1.416-.209.367-.268.82-.8.969-.2.055-.313.421-.481.67v2.592c.126.234.478.368.484.727.545-.046.244.482.45.657.168.143.125.315.133.487a6.764,6.764,0,0,0,.216,2.5c-.142,1.314.353,2.594.212,3.9-.061.57.3,1.053.246,1.64a2.21,2.21,0,0,0,.188,1.639c.035.047.011.142,0,.213-.145,1.35.331,2.667.213,4.013-.041.465.323.831.237,1.318A2.6,2.6,0,0,0,2.39,32.79a12.564,12.564,0,0,1,.222,2.849.457.457,0,0,1,.206.429l.632.3" transform="translate(0 -0.002)"/>
      <path id="Trazado_121412" data-name="Trazado 121412" d="M61.939,17.126c0,.5.018,1.008-.006,1.51-.016.336.141.707-.2,1-.1.084.069.668.231,1.086.294.049.495.377.843.3a1.533,1.533,0,0,0,.653-1.441c.031-1.161.3-2.3.247-3.479a.98.98,0,0,1,.424-.924c.3-.17.3-.6.621-.744V11.889a1.9,1.9,0,0,0-.819-.934c-.411-.2-.535-.768-.679-1.205-.478-1.458-1.1-2.86-1.634-4.3-.323-.875-.717-1.731-.954-2.628-.13-.493-.561-.871-.478-1.4-.25-.249-.479-.479-.709-.708A2.327,2.327,0,0,0,57.81.041q-4.275,0-8.548,0c-.2.282-.635.408-.538.865-.205,1.023.56,1.121,1.221,1.166,1.54.105,3.087.022,4.631.045a2.215,2.215,0,0,1,1.592.371c-.032,1.441.3,2.989-.2,4.523-.95.528-1.98.174-2.967.269-.8.077-1.529.185-1.676,1.166a.931.931,0,0,0,.679.91,27.728,27.728,0,0,0,4.352.079A2.277,2.277,0,0,0,58.3,7.466c.077-1.6-.008-3.2.048-4.783.125-.044.177-.018.215.058a1.034,1.034,0,0,1,.078.2c.836,2.19,1.674,4.376,2.454,6.584a.773.773,0,0,1,.01.671,9.983,9.983,0,0,1-2.522.107c-1.329.03-2.659-.025-3.987.026-.821.032-1.5.28-1.545,1.275.205.955.949,1.082,1.737,1.094,2.156.033,4.313,0,6.469.019.439,0,.933-.1,1.289.36-.281.593-.8.441-1.227.446-2.156.025-4.313-.01-6.47.021-.819.012-1.615.112-1.8,1.144.121,1.052.922,1.2,1.738,1.233,1.767.067,3.535.014,5.3.028a3.645,3.645,0,0,1,1.42.151,1.268,1.268,0,0,1,.424,1.022" transform="translate(-9.309 -0.007)"/>
      <path id="Trazado_121413" data-name="Trazado 121413" d="M62.75,28.118a1.975,1.975,0,0,0-1.052.459,23.307,23.307,0,0,0-.252,3.114c.058.487-.315.9-.228,1.424a2.91,2.91,0,0,1-.011,1.392,16.279,16.279,0,0,0-.213,2.182c-.209.909-.062,1.835-.231,2.716-.146.772-.053,1.549-.209,2.287-.176.84-.04,1.7-.226,2.5a10.409,10.409,0,0,0-.162,2.511c0,.37-.348.6-.249.994a4.108,4.108,0,0,1,.015.968c-.412.387-.427.983-.746,1.426a2.208,2.208,0,0,1-1.63.4c-2.16.019-4.32-.04-6.478.032-.734.025-1.6.04-1.546,1.174-.019.223.341.291.227.552.112.212.5-.057.469.313,2.684,0,5.315,0,7.945,0a3.124,3.124,0,0,0,2.485-1.051c.167-.188.355-.357.363-.366a5.484,5.484,0,0,0,.455-2.218c.18-.84.036-1.7.226-2.5.2-.848.03-1.7.205-2.5.181-.84.042-1.7.228-2.5s.033-1.623.2-2.4c.193-.875.035-1.774.232-2.605.177-.742.035-1.479.2-2.182.21-.908.041-1.843.234-2.714a19.768,19.768,0,0,0,.186-2.814c-.106-.247-.406-.322-.442-.6" transform="translate(-9.47 -5.375)" fill="#010100"/>
      <path id="Trazado_121414" data-name="Trazado 121414" d="M16.076,55.323c.018-.223-.341-.291-.228-.552-.143-.158-.429-.07-.526-.314-2.663,0-5.33-.008-8,.007a1.777,1.777,0,0,1-1.4-.514c.112-.392-.229-.761-.242-1.205-.013-.467-.019-.936,0-1.4.021-.492-.319-.906-.236-1.424a3.915,3.915,0,0,0,0-1.4C5.33,48,5.252,47.415,4.648,47.1H4.161c-.032.239-.258.324-.451.583.07,2.235.355,4.538.607,6.709A4.048,4.048,0,0,0,8.2,56.208c2.373-.075,4.749-.019,7.12-.019.125-.139.239-.281.44-.214l.315-.652" transform="translate(-0.709 -9.005)" fill="#020202"/>
      <path id="Trazado_121415" data-name="Trazado 121415" d="M49.074,56.345c-.017-.223.34-.292.229-.552.116-.2.495.044.472-.313,2.722,0,5.393-.009,8.064.009a1.816,1.816,0,0,0,1.4-.526c-.091-.526.344-1.037.231-1.646H48.278c-.144-.3-.033-.59-.07-.865a.165.165,0,0,0-.213.169A9.331,9.331,0,0,0,48,53.7a3.772,3.772,0,0,1-.872,2.65Z" transform="translate(-9.009 -10.027)" fill="#fdef56"/>
      <path id="Trazado_121416" data-name="Trazado 121416" d="M29.042,1.109c.018.223-.341.291-.228.552-.11.215-.507-.064-.468.311H26.335c-.214.245-.1.542-.1.81-.014,1.4-.009,2.808,0,4.212,0,.156-.085.384.214.387a19.775,19.775,0,0,0,1.123-2.893A1.58,1.58,0,0,1,29.03,3.414c2.987-.032,5.974-.052,8.961.013a.813.813,0,0,1,.5.194c.345.582.123,1.316.185,2.013.053.594-.139,1.234.336,1.747.214.017.216-.132.216-.279,0-1.259-.008-2.518,0-3.777,0-.456-.385-.82-.181-1.326H31.331c-.215-.309-.653-.434-.556-.891Z" transform="translate(-5.01 -0.212)" fill="#96d529"/>
      <path id="Trazado_121417" data-name="Trazado 121417" d="M17.958,1.109c.1.457-.341.582-.56.9h-7.24V7.318c0,.146,0,.3.217.279a1.362,1.362,0,0,0,.32-1.1,5.607,5.607,0,0,1,.527-1.969,1.625,1.625,0,0,1,1.656-1.136c1.982.024,3.966-.1,5.946.1.061-.025.171-.043.176-.076a7.762,7.762,0,0,1,.907-2.3Z" transform="translate(-1.942 -0.212)" fill="#98e4fa"/>
      <path id="Trazado_121418" data-name="Trazado 121418" d="M55.853,7.6c.214.017.216-.133.216-.279,0-1.76,0-3.519,0-5.314H48.83c-.218-.313-.656-.438-.56-.9H46.32a7.766,7.766,0,0,1,.907,2.3c0,.033.115.051.176.076,2.616-.151,5.228-.093,7.812-.049a5.173,5.173,0,0,1,.292,2.417c.051.594-.13,1.233.346,1.741" transform="translate(-8.856 -0.212)" fill="#f3d802"/>
      <path id="Trazado_121419" data-name="Trazado 121419" d="M42.25,46.767c-.055-1.271.374-2.515.217-3.793.344-.7.087-1.466.24-2.17.2-.943.044-1.91.237-2.817.157-.741.032-1.478.195-2.179.209-.907.063-1.833.231-2.712.148-.772.052-1.547.208-2.284.178-.839.044-1.7.225-2.5.191-.845.039-1.693.209-2.5.176-.84.036-1.7.227-2.5a14.308,14.308,0,0,0,.178-2.507,1.82,1.82,0,0,0-1.326-.345c-4.829-.006-9.657-.032-14.485.011a3.3,3.3,0,0,0-3.566,3.6c.166,3.12.434,6.239.829,9.343a1.589,1.589,0,0,0,.243.706c.348.382.849-.045,1.251.253.328.328.1.712.021,1.085-.133.654.124,1.1.782,1.156a18.691,18.691,0,0,0,3.8-.023c.56-.359.341-.965.92-1.254a4.618,4.618,0,0,1,1.855,1.873c-.492.932-.95,1.783-1.949,2.024-.472-.369-.32-.8-.513-1.11a1,1,0,0,0-.775-.292c-1.605-.093-3.246.174-4.8-.463-.095-.039-.2.057-.289.125a2.793,2.793,0,0,0-.105,1.385c.147,1.969.29,3.94.5,5.9.212,1.939,1.122,2.736,3.058,2.749,3.6.023,7.2.014,10.8,0,.64,0,1.335.058,1.577-.774" transform="translate(-4.786 -3.91)" fill="#baeb6c"/>
      <path id="Trazado_121420" data-name="Trazado 121420" d="M41.143,46.556c-.3-.024-.16.254-.273.379a1.486,1.486,0,0,1-.715.05c-3.849,0-7.7-.019-11.546.02a2.471,2.471,0,0,1-2.114-.905c-.068-.083-.152-.154-.227-.23-.188-.992-.217-2-.337-3-.106-.874-.027-1.762-.2-2.6a11.872,11.872,0,0,1-.174-2.5c0-.2-.171-.275-.19-.436,0-.023.043-.061.074-.073a.293.293,0,0,1,.107,0,6.921,6.921,0,0,1-.217-3.244c-.061-.025-.178-.054-.177-.076.057-.952-.4-1.864-.247-2.814.092-.582-.256-1.077-.231-1.641a4.868,4.868,0,0,0-.031-1.716,4.485,4.485,0,0,1-.157-1.866c.036-.484-.273-.852-.249-1.317a5.275,5.275,0,0,1,.4-2.528l1.171-1.17a7.666,7.666,0,0,1,3.111-.276c4.8-.013,9.6-.006,14.4-.006-.039-.419.4-.758.154-1.25H19.24c.112.365-.145.752.184,1.1.058.061.049.2.053.3a6.33,6.33,0,0,0,.218,2.4c-.143,1.315.351,2.595.217,3.909-.058.564.291,1.057.238,1.642a2.277,2.277,0,0,0,.191,1.641c.034.048.011.142,0,.213a24.633,24.633,0,0,0,.266,4.015,14.33,14.33,0,0,0,.21,2.6,10.862,10.862,0,0,1,.167,2.3,10.627,10.627,0,0,1,.246,1.642,2.007,2.007,0,0,0,.191,1.533c.035.046.011.142,0,.213a39.579,39.579,0,0,0,.247,4.017,4.857,4.857,0,0,0,.432,1.979,2.029,2.029,0,0,0,1.274.3q8.011-.013,16.023-.006a1.611,1.611,0,0,0,1.2-.264,2.325,2.325,0,0,0,.355-1.12,5.887,5.887,0,0,0,.188-1.211" transform="translate(-3.678 -3.699)" fill="#a1e52e"/>
      <path id="Trazado_121421" data-name="Trazado 121421" d="M15.8,20.895c-1.155,0-2.312.038-3.464-.01a3.1,3.1,0,0,0-3.023,1.7,1.587,1.587,0,0,1-.23.363A11.632,11.632,0,0,0,9.1,25.08c.177.946.051,1.912.233,2.825.154.776.024,1.557.2,2.29.214.878.052,1.767.222,2.613.16.807.048,1.625.218,2.395.177.809.035,1.631.217,2.4.2.846.044,1.7.21,2.507.174.841.038,1.7.229,2.5a14.538,14.538,0,0,1,.177,2.514,2.79,2.79,0,0,0,.491,1.409,1.9,1.9,0,0,0,1.507.744c1.692.023,3.383.008,5.055.008.163-.223.068-.443.1-.649a12.109,12.109,0,0,1,.018-1.723c.081-.555-.3-.994-.245-1.531a3.313,3.313,0,0,0-.023-1.495,3.747,3.747,0,0,1-.162-1.757c.031-.544-.3-.992-.248-1.53a4.081,4.081,0,0,0-.019-1.605,18.6,18.6,0,0,1-.209-2.181c-.209-.907-.062-1.832-.231-2.712-.147-.771-.053-1.546-.209-2.283-.176-.84-.044-1.7-.224-2.5-.188-.844-.042-1.691-.209-2.5-.171-.84-.087-1.682-.224-2.5a9.13,9.13,0,0,1-.18-1.426" transform="translate(-1.728 -3.992)" fill="#f1fafe"/>
      <path id="Trazado_121422" data-name="Trazado 121422" d="M39.059,7.842V3.632a.5.5,0,0,0-.071-.078.176.176,0,0,0-.091-.037q-5.244,0-10.487,0a1.573,1.573,0,0,0-1.09,1.33A11.219,11.219,0,0,1,26.8,6.133a3.494,3.494,0,0,0-.307,1.708v.324c.144.144,9.273.2,12.492.076.142-.111.045-.268.074-.4" transform="translate(-5.06 -0.672)" fill="#a1e52e"/>
      <path id="Trazado_121423" data-name="Trazado 121423" d="M24.781,9.531a2.767,2.767,0,0,1-.938-.849,1.62,1.62,0,0,1-.37-1.141c.022-1.583.013-3.167,0-4.749,0-.2.1-.43-.1-.62-.328.008-.446.218-.546.506Q22.069,4.845,21.2,6.972A18.55,18.55,0,0,0,20.256,9.6c-.112.467-.577.8-.456,1.328a.423.423,0,0,0,.067.076.162.162,0,0,0,.09.04q11.569,0,23.15,0c.3-.545-.222-.87-.345-1.3-1.314-.64-2.688-.349-4.046-.239a5,5,0,0,1-.724.133q-6.026,0-12.052-.006a2.2,2.2,0,0,1-1.16-.105" transform="translate(-3.782 -0.415)" fill="#a1e42e"/>
      <rect id="Rect치ngulo_37334" data-name="Rect치ngulo 37334" width="25.921" height="1.447" transform="translate(14.737 12.394)" fill="#baeb6c"/>
      <path id="Trazado_121424" data-name="Trazado 121424" d="M56.109,8.057v-4.5c-1.386-.079-2.778-.026-4.168-.036s-2.8,0-4.166,0c-.184.143-.087.3-.116.433a17.646,17.646,0,0,0,1,2.8,13.4,13.4,0,0,0,.7,1.856c.087.155.258.319.25.535a1.34,1.34,0,0,0,1.733,0c-.106-.459.353-.568.512-.865,1.3,0,2.587,0,3.871,0,.156,0,.381.08.383-.214" transform="translate(-9.112 -0.67)" fill="#fde803"/>
      <path id="Trazado_121425" data-name="Trazado 121425" d="M18.877,3.946V3.625c-.1-.148-.249-.111-.387-.111-1.91,0-3.821.016-5.73-.012a2.965,2.965,0,0,0-1.2.282c-.621.687-.639,1.571-1.131,2.249V8.056c0,.294.227.213.383.214,1.285,0,2.57,0,3.847,0,.2.287.636.411.536.865a1.34,1.34,0,0,0,1.733,0,30.987,30.987,0,0,0,1.289-3.322,7.6,7.6,0,0,0,.661-1.869" transform="translate(-1.994 -0.669)" fill="#c7eefd"/>
      <path id="Trazado_121426" data-name="Trazado 121426" d="M13.438,9.536H8.575c-.241-.189-.4-.494-.755-.526.043-.353-.32-.438-.486-.789V2.206c-.393-.061-.51.16-.616.442-.35.934-.774,1.844-1.06,2.8-.192.643-.509,1.228-.7,1.875-.327,1.111-.852,2.162-1.253,3.254-.053.146-.222.243-.187.453h8.065c.173.265.493.362.553.674a1.126,1.126,0,0,0,1.733.217c.29-.128.4-.453.687-.6a.74.74,0,0,0,.415-.675c.011-.388.458-.659.414-1.1-.65-.294-1.3.077-1.95,0" transform="translate(-0.672 -0.419)" fill="#ddf4fb"/>
      <path id="Trazado_121427" data-name="Trazado 121427" d="M13.6,14.162a6.592,6.592,0,0,0-.963.011,1.278,1.278,0,0,1-.77-.226v.532c-.152.325-.553.293-.755.546H2.174a10.543,10.543,0,0,0-.067,1.485H11.3l.574.573v.541a1.278,1.278,0,0,1,.77-.227,6.593,6.593,0,0,0,.963.011,5.651,5.651,0,0,1,0-3.244" transform="translate(-0.403 -2.666)" fill="#c7eefd"/>
      <path id="Trazado_121428" data-name="Trazado 121428" d="M53.946,17.381c.123-.433.123-.433.539-.862h9.156a14.073,14.073,0,0,0,.078-1.485H54.508c-.22-.315-.658-.44-.561-.9a1.321,1.321,0,0,0-1.733,0,5.651,5.651,0,0,1,0,3.244,1.321,1.321,0,0,0,1.733,0" transform="translate(-9.982 -2.64)" fill="#fdf38a"/>
      <path id="Trazado_121429" data-name="Trazado 121429" d="M51.855,13.61h1.733c-.1-.456.339-.581.549-.882H62.4c-.579-.363-.372-.967-.793-1.281-1.322-.627-2.7-.332-4.061-.235-.237.017-.463.205-.705.018h-4.55c-.657.016-1.351-.309-1.95.217.112.379.457.657.442,1.1-.008.231.224.387.387.461.3.139.4.477.688.6" transform="translate(-9.624 -2.114)" fill="#fbee55"/>
      <path id="Trazado_121430" data-name="Trazado 121430" d="M53.742,18.224H52.008c-.389.141-.546.544-.866.723v1.44c3.555,0,7.109,0,10.664.011.2,0,.527-.214.6.206a.166.166,0,0,0,.213-.171c.011-.426,0-.853,0-1.314H54.537c-.3-.318-.9-.3-.8-.895" transform="translate(-9.778 -3.484)" fill="#fdef56"/>
      <path id="Trazado_121431" data-name="Trazado 121431" d="M42.284,9.965H47.05a12.459,12.459,0,0,0-.91-2.615c-.4-1.074-.821-2.151-1.248-3.219-.084-.211-.335-.375-.226-.654a.653.653,0,0,0-.866,0c0,1.468.006,2.936,0,4.4a2.152,2.152,0,0,1-1.514,1.868c-.073.048-.1.1-.073.144s.049.072.073.072" transform="translate(-8.068 -0.633)" fill="#baea6b"/>
      <path id="Trazado_121432" data-name="Trazado 121432" d="M39.179,11.487v-.216H25.964c.037.36.32.208.493.209,2.012.011,4.025.007,6.038.007Z" transform="translate(-4.964 -2.154)" fill="#a4de45"/>
      <path id="Trazado_121433" data-name="Trazado 121433" d="M50.285,11.333h1.682c.147,0,.283-.015.268-.216a.534.534,0,0,1-.434-.649H50.068c.028.131-.072.294.073.393.181.124.144.3.144.472" transform="translate(-9.571 -2.001)" fill="#faf088"/>
      <path id="Trazado_121434" data-name="Trazado 121434" d="M15.783,11.118c0,.035-.007.1,0,.1a2.569,2.569,0,0,0,1.949-.1c.031-.23.323-.374.217-.649H16.217a.533.533,0,0,1-.434.649" transform="translate(-3.017 -2.001)" fill="#eef7fb"/>
      <path id="Trazado_121435" data-name="Trazado 121435" d="M44.177,3.242h.866c.015-.217-.274-.29-.226-.548.068-.357-.24-.435-.508-.611-.245.409-.077.8-.133,1.159" transform="translate(-8.445 -0.398)" fill="#97d52f"/>
      <path id="Trazado_121436" data-name="Trazado 121436" d="M58.374,9.76c0,.292.226.213.382.214,1.462,0,2.923,0,4.385,0a14.484,14.484,0,0,0-.872-2.522c-.484-1.329-1.006-2.645-1.512-3.966a.487.487,0,0,0-.707.07c-.183,1.457.123,2.977-.159,4.472.047.475-.406.764-.451,1.2-.445-.007-.569.638-1.066.526" transform="translate(-11.16 -0.643)" fill="#fcf28a"/>
      <path id="Trazado_121437" data-name="Trazado 121437" d="M60.249,7.787c.3,0,.213-.23.214-.386.006-1.36,0-2.721,0-4.06.225-.162.445-.068.649-.1A1.435,1.435,0,0,0,60.466,2.1a1.527,1.527,0,0,0-.17.131.156.156,0,0,0-.045.087q0,2.737,0,5.473" transform="translate(-11.519 -0.4)" fill="#e8dc53"/>
      <path id="Trazado_121438" data-name="Trazado 121438" d="M26.665,37.374c-.434.8-.434.8-.434,2.458.171.3.552.427.65.786a3.1,3.1,0,0,0,2,.657c1.184-.03,2.37-.008,3.612-.008a1.826,1.826,0,0,0-.186,1.2c.293.466.762.271,1.123.309.82-.531,1.208-1.413,1.89-2.047v-.61c-.429-.663-1.184-1.013-1.54-1.754a1.026,1.026,0,0,0-.983-.325c-.139.023-.245.336-.483.495,0,.3-.143.634.18.875-.015.025-.028.073-.042.073-1.468,0-2.936,0-4.425,0l-.281-.27c-.125-.63.648-1.018.358-1.809l-.557-.468a.94.94,0,0,0-.886.434" transform="translate(-5.015 -7.062)" fill="#010101"/>
      <path id="Trazado_121439" data-name="Trazado 121439" d="M31.969,28.139c-1.17.984-1.732,2.42-2.645,3.7a1.254,1.254,0,0,0-1.179-.723l-.45.641c-.3.366.209.749.087,1.2s.49.748.127,1.273l.954.569a10.421,10.421,0,0,0,2.757-.467c.063-.311.363-.527.264-.979l-.711-.556h-.588c.857-.963,1.233-2.161,2.046-3.082.171-.224.438-.036.648-.14a2.243,2.243,0,0,1,.654.837c.116.315.571.216.675.459.329.092.382-.327.649-.192.112-.2.222-.408.346-.637a4.407,4.407,0,0,0-1.4-1.8,2.48,2.48,0,0,0-2.236-.1" transform="translate(-5.277 -5.339)" fill="#010100"/>
      <path id="Trazado_121440" data-name="Trazado 121440" d="M36.811,35.529h.73c.193-.088.011-.376.327-.442.52.2.611.792.892,1.231s.552.852.839,1.295v.623c-.272.442-.833.257-1.179.542l-.341.62c-.066.229.328.29.218.548.378.235.807.548,1.217.289.492-.311,1.232-.355,1.385-1.1.836-.991.322-1.91-.185-2.8-.477-.836-1.017-1.636-1.563-2.506h.891c.513-.256.416-.639.424-1.005l-.568-.516c-.556.043-1.091-.37-1.7-.234-.448-.468-.885-.122-1.359.053l-.745,2.849.717.554" transform="translate(-6.901 -6.087)" fill="#010100"/>
    </g>
  </g>
</svg>
