<svg xmlns="http://www.w3.org/2000/svg" width="41.3" height="25.305" viewBox="0 0 41.3 25.305">
  <path id="Trazado_586298" data-name="Trazado 586298" d="M8.47-18.27a12.947,12.947,0,0,0-1.155,5.915A12.947,12.947,0,0,0,8.47-6.44,3.806,3.806,0,0,0,12.075-4.2a3.806,3.806,0,0,0,3.6-2.24,12.947,12.947,0,0,0,1.155-5.915A12.947,12.947,0,0,0,15.68-18.27a3.806,3.806,0,0,0-3.6-2.24A3.806,3.806,0,0,0,8.47-18.27ZM12.075.28Q7,.28,4.48-3.168T1.96-12.373q0-5.758,2.52-9.205t7.6-3.448q5.075,0,7.6,3.448t2.52,9.205q0,5.758-2.52,9.205T12.075.28Zm23.17-10.85v-4.27H40.5v4.27H43.26v4.725H40.5V0h-5.25V-5.845H25.41V-10.01l8.715-14.455h5.95l-8.3,13.9Z" transform="translate(-1.96 25.025)" fill="#12263f"/>
</svg>
