<svg xmlns="http://www.w3.org/2000/svg" xmlns:xlink="http://www.w3.org/1999/xlink" width="54.544" height="53.073" viewBox="0 0 54.544 53.073">
  <defs>
    <clipPath id="clip-path">
      <rect id="Rectángulo_37336" data-name="Rectángulo 37336" width="54.544" height="53.073" fill="none"/>
    </clipPath>
  </defs>
  <g id="Grupo_157023" data-name="Grupo 157023" transform="translate(0 0)">
    <g id="Grupo_157015" data-name="Grupo 157015" transform="translate(0 0)" clip-path="url(#clip-path)">
      <path id="Trazado_121441" data-name="Trazado 121441" d="M18.79,37.217v1l-.556.554h-.681L17,38.186a2.945,2.945,0,0,0-.223-1.529l-1.133-1.13a2.892,2.892,0,0,0-2.527-.09l-1.25,1.231c.018.524-.42.958-.164,1.54l-.764.544h-.577l-.482-.7a3.387,3.387,0,0,0-.275-1.3l-1.34-1.336a2.737,2.737,0,0,0-2.531.226l-.958.955A8.525,8.525,0,0,0,4.5,39.876a2.834,2.834,0,0,0,.926,2.178c.136.126.264.261.436.434a2.74,2.74,0,0,0,.16,3.313c-.242.46-.787.564-1.2.734A7.7,7.7,0,0,0,2.4,48.176a7.27,7.27,0,0,0-2.154,4A13.658,13.658,0,0,0,.008,53.64a5.411,5.411,0,0,0,2.633,4.816,5.522,5.522,0,0,0,2.672.832q18.26,0,36.52.008a12.471,12.471,0,0,0,1.474-.21A2.165,2.165,0,0,0,44.6,58.4c.058-.056.215-.008.327-.008a3.243,3.243,0,0,0,1.362-1.422,4.842,4.842,0,0,0-.686-5.319,8.134,8.134,0,0,1-2.167-2.467,3.468,3.468,0,0,0-3.268-1.773,3.6,3.6,0,0,1-1.192-.037,22.906,22.906,0,0,1-2.183-2.1c-.988-.956-1.945-1.942-2.924-2.906a1.987,1.987,0,0,0-1.447-.738A2.824,2.824,0,0,1,30.291,40.6a2.15,2.15,0,0,0-3.334-.025c-.273.252-.532.519-.791.783-1.324,1.351-1.378,2.4-.006,3.713.937.9.827,1.966.81,3.153a25.078,25.078,0,0,0-3.808-2.393,5.1,5.1,0,0,0,.168-3.068.743.743,0,0,1,.222-.612c1.144-1.413.995-3.07.808-4.689a2.8,2.8,0,0,0-2.084-2.381,2.738,2.738,0,0,0-2.783.676,2.851,2.851,0,0,0-.7,1.459" transform="translate(0 -6.223)"/>
      <path id="Trazado_121442" data-name="Trazado 121442" d="M52.184,41.645h.783a.528.528,0,0,0,.076-.079.2.2,0,0,0,.033-.1c0-4.376,0-8.752,0-13.166h2.088l.591-.59c0-1.411,0-2.822,0-4.3l-.453-.356a.928.928,0,0,1,.033-.268,3.433,3.433,0,0,0,0-3.33,4.369,4.369,0,0,0-.819-.993,3.045,3.045,0,0,1-.8-1.348,3.609,3.609,0,0,0-3-2.217,2.6,2.6,0,0,0-1.477.207c-.136.081-.36.012-.491.012a4.532,4.532,0,0,0-3.692-2.056V6.57l-.584-.6H40.233l-.555.554V9.512c-.568.065-1.143.012-1.756.035V6.567l-.591-.59H33.081l-.581.6v6.548a5.529,5.529,0,0,0-3.233.612L24.641,9.117H22.732l-1.8-1.8H19.246L16.927,9.674v1.577l1.728,1.724v1.65l3.02,3.014A3.946,3.946,0,0,0,19.358,19.8a3.543,3.543,0,0,0,.18,3.051c-.239.143-.5.038-.751.074l-.556.555v4.241l.586.546h1.959c.3.229.03.565.189.851.254.125.554.007.84.047a.733.733,0,0,0,1.018-.035,2.063,2.063,0,0,1,1.546-.487q6.363,0,12.725,0a1.826,1.826,0,0,1,1.188.276c.391,2.66-.141,5.455.275,8.028a1.237,1.237,0,0,0,1.116.551,1.339,1.339,0,0,0,1.078-.447c.5-2.6-.065-5.437.33-8.354,3.26-.089,6.429-.1,9.5,0a2.581,2.581,0,0,1,.331,1.666c.01,3.191,0,6.383.009,9.574a2.585,2.585,0,0,0,.326,1.694.7.7,0,0,0,.934.012" transform="translate(-3.015 -1.064)"/>
      <path id="Trazado_121443" data-name="Trazado 121443" d="M57.026,46.484h-.784a.525.525,0,0,1-.075-.079.193.193,0,0,1-.033-.1c0-4.374,0-8.749,0-13.162H45.451c-.087,1.424-.028,2.894-.039,4.361s0,2.96,0,4.445c-.308.15-.607.033-.893.073a3.216,3.216,0,0,0,0,3.122c.667.93,1.6,1.6,2.334,2.47a3.219,3.219,0,0,1,3.051.228,3.456,3.456,0,0,1,1.733,2.5l1.594,1.049a3.085,3.085,0,0,0,1.21-1.382c-.076-.571.206-.867.721-1.085.611-.258,1.325-.212,1.867-.654Z" transform="translate(-7.856 -5.903)" fill="#eebe33"/>
      <path id="Trazado_121444" data-name="Trazado 121444" d="M40.732,45.145V42.025h-.89c-.007-1.467,0-2.937,0-4.405s0-2.959,0-4.475H23.829c-.223.19.026.521-.126.806-.257.126-.556.008-.842.048v2.9c.37-.041.163-.334.2-.442L24.4,35.124a2.916,2.916,0,0,1,2.4.013c.263.263.515.537.791.785a2.118,2.118,0,0,1,.63,1.52c.036.517-.016,1.04.012,1.558a3.424,3.424,0,0,1-1.387,3.145,2.771,2.771,0,0,1-.153,3.345c.292.445.871.47,1.287.763a8.6,8.6,0,0,1,1.4.876c.355.38,1.027.4,1.144,1.059.024.135.409.205.7.34.155-.287.259-.638.581-.809l-.436-.435v-1.66l-1.8-1.8V42.149l2.392-2.354h1.51l1.761,1.757H37.02c.955.953,1.918,1.924,2.894,2.881.257.252.456.577.818.712" transform="translate(-4.072 -5.903)" fill="#eedc9a"/>
      <path id="Trazado_121445" data-name="Trazado 121445" d="M59.146,51.538a5.39,5.39,0,0,0-3.111.987c-.125.409.422.459.431.8-.038.607.321.769.837.718a5.351,5.351,0,0,0,.854-.247,3.124,3.124,0,0,1,3.492,1.07,3.026,3.026,0,0,1,.373,3.533,3.127,3.127,0,0,1-3.23,1.725c-.63-.057-1.287-.252-1.6.567a1.183,1.183,0,0,0-.06.66c-.046.4.161.566.524.676a5.345,5.345,0,0,0,3.04-.007,6.614,6.614,0,0,0,3.36-2.807c-.016-.679.513-1.222.456-1.923a8.779,8.779,0,0,0-.215-1.908A6.816,6.816,0,0,0,61.51,52c-.8-.1-1.515-.621-2.364-.464" transform="translate(-9.976 -9.174)"/>
      <path id="Trazado_121446" data-name="Trazado 121446" d="M4.864,28c.654.78.639,2,1.639,2.386.371-.371.653-.652,1.088-1.087a1.39,1.39,0,0,0-.38-.709c-.572-.655-.5-1.506-.784-2.244A4.99,4.99,0,0,1,7.69,23.42,9.419,9.419,0,0,0,9.267,20.95c.092-.148.049-.281.064-.42.034-.35-.083-.714.211-1.035.091-.1.05-.367,0-.541-.06-.231-.271-.407-.221-.691a4.194,4.194,0,0,0,.007-.7c-.643-.733-.6-2-1.638-2.411L6.605,16.238a1.385,1.385,0,0,0,.381.71c.571.654.5,1.5.782,2.244a4.95,4.95,0,0,1-1.262,2.924A4.744,4.744,0,0,0,4.989,24.6c-.194.8-.705,1.667-.144,2.569.132.211.02.574.02.827" transform="translate(-0.817 -2.699)" fill="#010101"/>
      <path id="Trazado_121447" data-name="Trazado 121447" d="M12.113,19.446l1.145,1.144a1.826,1.826,0,0,0,.681-.825c.181-.441.427-.861.635-1.295a1.328,1.328,0,0,0,.207-.586c0-.352-.08-.713.2-1.033a.563.563,0,0,0,0-.535c-.307-.432-.178-.9-.21-1.343-.155-.29-.325-.554-.442-.84A5.175,5.175,0,0,0,13.092,12.3a3.619,3.619,0,0,1-1-1.918c-.344-1.6-.017-2.032.648-3.334.112-.22.426-.45.168-.92l-1-.775c-.173-.05-.415.238-.577.5a6.326,6.326,0,0,0-1.07,2.573c-.058.483-.321,1.029-.144,1.454a6.109,6.109,0,0,1,.2,1.22,5.429,5.429,0,0,1,.621,1.109,3.11,3.11,0,0,0,.884,1.308,4.939,4.939,0,0,1,1.2,2.291A3.1,3.1,0,0,1,13,17.422a2.64,2.64,0,0,1-.6,1.428,1.8,1.8,0,0,0-.28.6" transform="translate(-1.792 -0.953)" fill="#010101"/>
      <path id="Trazado_121448" data-name="Trazado 121448" d="M30.106,10.821h1.714c.531-3.117-1.281-5.466-4.375-5.355-1.3-.416-1.951-1.424-2.816-2.2h-.451c-.244.254-.5.52-.772.8a.709.709,0,0,0,.224.659c.472.417.9.881,1.346,1.328a4.115,4.115,0,0,0,2.949,1.217c.149,0,.3,0,.446,0a3.549,3.549,0,0,1,1.734,1.756Z" transform="translate(-4.168 -0.582)" fill="#010101"/>
      <path id="Trazado_121449" data-name="Trazado 121449" d="M57.691,12.165v2.012H59.4V12.619c.335-.465.386-1.086,1.049-1.1h.968A3.843,3.843,0,0,0,63.877,9.1V7.086H62.164V8.644c-.335.465-.386,1.086-1.049,1.1h-.968a3.843,3.843,0,0,0-2.456,2.425" transform="translate(-10.275 -1.262)" fill="#010101"/>
      <path id="Trazado_121450" data-name="Trazado 121450" d="M54.73,12.379l.838-.779c.1-.717-.481-1.335-.014-2.31a5.647,5.647,0,0,0,1.1-1.744,7.935,7.935,0,0,0,.033-1.983c-.457-.339-.274-1.258-1.021-1.232l-1.009,1c-.057.5.477,1.124.171,1.9A6.892,6.892,0,0,0,53.6,9.169a7.934,7.934,0,0,0-.033,1.983c.457.339.274,1.258,1.167,1.226" transform="translate(-9.53 -0.771)" fill="#020202"/>
      <path id="Trazado_121451" data-name="Trazado 121451" d="M4.764,11.83l-.919.861v.463l1.433,1.43h.48c.232-.37.856-.524.754-1.23-.57-.466-.995-1.175-1.747-1.523" transform="translate(-0.685 -2.107)" fill="#050505"/>
      <path id="Trazado_121452" data-name="Trazado 121452" d="M52.94,1.105h-.466c-.706.668-.706.668-.8,1.167l1.5,1.493c.495-.089.495-.089,1.229-.856-.182-.829-1.025-1.162-1.461-1.8" transform="translate(-9.203 -0.197)" fill="#050505"/>
      <path id="Trazado_121453" data-name="Trazado 121453" d="M22.821,1.89V1.456L21.4.041c-.657-.212-.82.452-1.278.717.05.983,1.049,1.243,1.431,1.922h.491l.779-.79" transform="translate(-3.583 0)" fill="#050505"/>
      <path id="Trazado_121454" data-name="Trazado 121454" d="M14.765,4.979c.542-.715,1.324-1.109,1.642-1.97-.486-.3-.64-.917-1.23-.842L13.614,3.727a5.986,5.986,0,0,0,1.151,1.252" transform="translate(-2.425 -0.385)" fill="#040404"/>
      <path id="Trazado_121455" data-name="Trazado 121455" d="M64.853,4.474V2.765H63.108c-.057.527-.007,1.1-.029,1.709Z" transform="translate(-11.234 -0.493)"/>
      <path id="Trazado_121456" data-name="Trazado 121456" d="M56.894,63.188c.335-.019.19-.277.224-.445a2.259,2.259,0,0,0-1.341-.892c-.525.318-.721.911-1.117,1.337Z" transform="translate(-9.735 -11.016)" fill="#e8b932"/>
      <path id="Trazado_121457" data-name="Trazado 121457" d="M48.652,56.006c-.2-.671-.856-.7-1.357-.871a3.07,3.07,0,0,0-1.756.27l-1,1.027c-.479-.319-1.081-.432-1.409-.952.653-1.268,1.258-1.659,3.5-2.25a2.3,2.3,0,0,0-1.09-.788c-1.2-.007-1.2-.007-2.174.861-.411.2-.57-.325-.9-.2A2.049,2.049,0,0,0,41,51.571c-1.279-.046-1.439.034-2.16,1.191-.013.971-.013.971.215,1.468-.255.207-.141.635-.485.828-.542.085-1.161-.063-1.64.3a1.759,1.759,0,0,0-.793,1.5H34.352a3.257,3.257,0,0,1,1.239-2.629c-.561-.561-1.122-1.12-1.828-1.825-.027,0-.125.236-.3.371v.681l-.6.542h-.658a1.85,1.85,0,0,0-1.83-.659A1.948,1.948,0,0,0,29,54.793a1.736,1.736,0,0,0,.321,1.388,2.529,2.529,0,0,1-.835.733c-.795.368-.778.406-1.274,1.2.009.491-.13,1.008.215,1.456a2.636,2.636,0,0,0,1.493.362q7.919,0,15.838,0a4.112,4.112,0,0,0,3.607-1.854,1.788,1.788,0,0,0,.283-2.072" transform="translate(-4.844 -9.183)" fill="#ad7c4d"/>
      <path id="Trazado_121458" data-name="Trazado 121458" d="M22.518,58.945c.084-.532-.012-1.058.118-1.614a5.3,5.3,0,0,1,1.671-2.3,3.607,3.607,0,0,1,1.969-3.559,23.836,23.836,0,0,0-4.158-2.085,9.981,9.981,0,0,1,1.294,2.227,4.34,4.34,0,0,1-1.7.628,8.8,8.8,0,0,0-2.305-2.954,8.357,8.357,0,0,0-3.193,6.275h-1.64a8.3,8.3,0,0,1,1.457-5.2.584.584,0,0,0-.666-.015,8,8,0,0,0-3.018,2.134,5.7,5.7,0,0,0-1.244,2.5,5.924,5.924,0,0,0-.2,1.581,2.92,2.92,0,0,0,1.341,2.608,3.17,3.17,0,0,0,1.6.365c2.472.022,4.945.033,7.417-.011.464-.008,1.086.145,1.258-.577" transform="translate(-1.941 -8.779)" fill="#2f4054"/>
      <path id="Trazado_121459" data-name="Trazado 121459" d="M55.874,60.391a3.353,3.353,0,0,0,1.341.892c.1-.216.208-.432.335-.7a3.725,3.725,0,0,0,3.244-.208,3.4,3.4,0,0,0,1.447-1.556,3.493,3.493,0,0,0-1.153-4.452,3.44,3.44,0,0,0-4.218-.007c-.158-.242-.487-.34-.548-.662A2.52,2.52,0,0,0,55.2,55.041c.1.216.153.51.324.634.59.429.569,1.135.727,1.7a1.936,1.936,0,0,1-.148,1.779c.139.453-.265.8-.233,1.236" transform="translate(-9.832 -9.556)" fill="#2f4054"/>
      <path id="Trazado_121460" data-name="Trazado 121460" d="M8.229,59.194a5.627,5.627,0,0,1-.641-3.613,8.908,8.908,0,0,1,1.633-4,13.3,13.3,0,0,1,2.459-2.141H9.651a8.346,8.346,0,0,0-3.03,6.149H4.915c-.219-1.622.533-3.063,1.1-4.566a1.04,1.04,0,0,0-1.174.321,9.561,9.561,0,0,0-1.894,2.1,3.943,3.943,0,0,0-.469,1.138,5.723,5.723,0,0,0-.261,2.444,2.767,2.767,0,0,0,1.324,2.167,6.679,6.679,0,0,0,4.691,0" transform="translate(-0.384 -8.805)" fill="#2f4054"/>
      <path id="Trazado_121461" data-name="Trazado 121461" d="M48.7,56.969a3.283,3.283,0,0,1-1.615,2.921,3.678,3.678,0,0,1-2.082.652q-8.762-.016-17.524-.006c.148.51.662.607,1.035.892q8.528,0,17.1,0a4.931,4.931,0,0,0,2.708-.405c.247-.246.64-.638.842-.841a2.783,2.783,0,0,0,.2-2.552,1.187,1.187,0,0,0-.665-.658" transform="translate(-4.894 -10.146)" fill="#966342"/>
      <path id="Trazado_121462" data-name="Trazado 121462" d="M23.5,38.174a2.5,2.5,0,0,1-1.571,2.569c-1.156.536-2.061.564-3.533-1.144-.063-.524-.41-1-.224-1.588l-.682-.551h-.62l-.5.659v2.53a1.962,1.962,0,0,0,1.467,1.235h6.184a1.981,1.981,0,0,0,1.246-1.466V37.969l-.6-.381.1-.123H24l-.505.709" transform="translate(-2.915 -6.672)" fill="#2f4053"/>
      <path id="Trazado_121463" data-name="Trazado 121463" d="M38.374,49.148l-1.13-1.134,1.867-1.759c-.1-.474-.418-.512-.479-.663l-3.091,3.085,2.976,2.97a6.078,6.078,0,0,1,1.015-1.885,5.876,5.876,0,0,1,2.14-1.135l-1.323-1.31c-.757.5-1.279,1.282-1.975,1.832" transform="translate(-6.33 -8.12)" fill="#89cae4"/>
      <path id="Trazado_121464" data-name="Trazado 121464" d="M17.981,45.034l-.546.57v.676l.6.526h6.028l.491-.688v-.559l-.663-.524Z" transform="translate(-3.105 -8.021)" fill="#ad7c4d"/>
      <path id="Trazado_121465" data-name="Trazado 121465" d="M13.444,41.9c-.1-.26-.288-.394-.227-.635.058-.224-.2-.283-.279-.459-.69.487-1.354.062-2.083-.048L9.7,39.529c-.031-.459-.515-.936-.239-1.467l-.585-.619H8.194L7.638,38c0,.739-.047,1.483.012,2.218a1.592,1.592,0,0,0,1.675,1.668c1.359.063,2.724.016,4.119.016" transform="translate(-1.357 -6.669)" fill="#2f3f53"/>
      <path id="Trazado_121466" data-name="Trazado 121466" d="M9.254,46.789h5.034a1.905,1.905,0,0,1-.021-1.723H9.289l-.555.52v.683l.52.519" transform="translate(-1.555 -8.026)" fill="#ad7c4c"/>
      <path id="Trazado_121467" data-name="Trazado 121467" d="M22.809,61.037c-.076.432-.416.211-.619.212-3.034.016-6.067.011-9.1.011h-.555a2.711,2.711,0,0,0,1.789.888c2.959.009,5.919,0,9.008,0a.855.855,0,0,1-.3-.828c0-.152,0-.3-.223-.287" transform="translate(-2.232 -10.87)" fill="#262d42"/>
      <path id="Trazado_121468" data-name="Trazado 121468" d="M34.35,46.166l1.414-1.411-1.332-1.3a12.111,12.111,0,0,0-1.271,1.2c.075.4.408.54.6.788s.409.506.584.723" transform="translate(-5.906 -7.739)" fill="#359abe"/>
      <path id="Trazado_121469" data-name="Trazado 121469" d="M8.529,61.308H3.838a2,2,0,0,0,1.779.857,35.754,35.754,0,0,0,3.63.035l-.718-.892" transform="translate(-0.684 -10.919)" fill="#252c42"/>
      <path id="Trazado_121470" data-name="Trazado 121470" d="M51.258,23.723V22.239a2.006,2.006,0,0,0,1.754-1.313,2.15,2.15,0,0,0-.6-1.867,2.309,2.309,0,0,0-1.764-.425c-.308.148-.261.511-.34.832h-1.7a2.749,2.749,0,0,0-1.392-2.3,2.457,2.457,0,0,0-2.531-.122l-.741.713c-.248.623.364,1.077.119,1.681H42.37c.08-.383-.312-.7-.274-1.1L40.8,17.053a2.948,2.948,0,0,0-2.215-.033c-.453.172-.63.577-1.08.864a4.728,4.728,0,0,1,1.931,2.124,12.735,12.735,0,0,1-1.645.7,1.882,1.882,0,0,0-2.235-1.2,1.949,1.949,0,0,0-1.222,1.2,2,2,0,0,0,.378,1.794,2.894,2.894,0,0,1-1.347,1c-1.373-1.321-1.314-4.027,1.175-5.557a2.238,2.238,0,0,0-1.816-1.126,3,3,0,0,0-2.644,1.422,4.047,4.047,0,0,1,.633,2.085H28.977a1.9,1.9,0,0,0-1.446-1.709h-.939a1.9,1.9,0,0,0-1.184,1.243c.468.621,1.311,1.044,1.524,2.01l-1.645.582A2.119,2.119,0,0,0,24.15,21.3a1.915,1.915,0,0,0-2.366,1.281A2,2,0,0,0,22,23.946a3,3,0,0,0,1.714.38q12.878,0,25.756-.011c.643,0,1.374.141,1.793-.592" transform="translate(-3.876 -2.984)" fill="#ad7c4d"/>
      <path id="Trazado_121471" data-name="Trazado 121471" d="M38.127,14.3l.792.805a6.973,6.973,0,0,1,2.088-1.365,5.038,5.038,0,0,1,2.432-.171,7.124,7.124,0,0,1,2.241,1.082l1.31-.816V8.194H45.264V11.1l-.578.6H40.433l-.554-.554V8.188c-.565-.113-1.143,0-1.752-.067Z" transform="translate(-6.79 -1.447)" fill="#8acce7"/>
      <path id="Trazado_121472" data-name="Trazado 121472" d="M39.421,28.779H20.736V30.44c.944.159,14.891.219,18.685.071Z" transform="translate(-3.693 -5.126)" fill="#eedc9a"/>
      <path id="Trazado_121473" data-name="Trazado 121473" d="M51.309,24.891a1.427,1.427,0,0,1-1.023.224q-5.637,0-11.273,0H22.047a1.8,1.8,0,0,0,1.8.9q14.906-.018,29.809-.008c1.248-.791,1.553-1.612.914-2.694-.359.358-.691.717-1.053,1.045a3.125,3.125,0,0,1-1.917.756c-.15.012-.306,0-.288-.221" transform="translate(-3.926 -4.152)" fill="#966342"/>
      <path id="Trazado_121474" data-name="Trazado 121474" d="M45.692,28.8v1.714H59.068c.06-.531.01-1.105.031-1.714Z" transform="translate(-8.138 -5.13)" fill="#eebe33"/>
      <path id="Trazado_121475" data-name="Trazado 121475" d="M23.99,17.6c.543-.411,1.008-1.174,1.975-1.47a4.992,4.992,0,0,1,2.494.048l-2.416-2.411c-.535.482-1.15,1.153-1.815,1.787l-1.017-1.225,1.606-1.6c.048-.569-.176-.684-.333-.752l-3.067,3.061L23.99,17.6" transform="translate(-3.815 -2.134)" fill="#89cae5"/>
      <path id="Trazado_121476" data-name="Trazado 121476" d="M20.383,9.977l-1.191,1.188,1.3,1.3a14.35,14.35,0,0,0,1.281-1.221L20.383,9.977" transform="translate(-3.418 -1.777)" fill="#359abe"/>
      <path id="Trazado_121477" data-name="Trazado 121477" d="M59.935,56.969h-.654l-.518.645v.612l.634.521h.578l.552-.551v-.681l-.592-.547" transform="translate(-10.465 -10.146)" fill="#020203"/>
    </g>
  </g>
</svg>
