<svg xmlns="http://www.w3.org/2000/svg" xmlns:xlink="http://www.w3.org/1999/xlink" width="295" height="292" viewBox="0 0 295 292">
  <defs>
    <clipPath id="clip-path">
      <rect id="Rect치ngulo_37359" data-name="Rect치ngulo 37359" width="124.736" height="124.587" fill="none"/>
    </clipPath>
  </defs>
  <g id="Grupo_849913" data-name="Grupo 849913" transform="translate(-285 -12420)">
    <rect id="Rect치ngulo_37358" data-name="Rect치ngulo 37358" width="295" height="292" rx="10" transform="translate(285 12420)" fill="#4acfd9"/>
    <g id="Grupo_754502" data-name="Grupo 754502" transform="translate(370.264 12503.277)">
      <g id="Grupo_754501" data-name="Grupo 754501" transform="translate(0 0)" clip-path="url(#clip-path)">
        <path id="Trazado_245440" data-name="Trazado 245440" d="M83.163,69.33a14.318,14.318,0,0,0,4.942-1.324,3.4,3.4,0,0,1,.9-.135c.922-2.061,2.646-3.054,4.668-3.89,6.375-2.639,11.761-6.786,16.758-11.46,1.774-1.659,3.454-3.418,5.165-5.146a10.749,10.749,0,0,0,1.934-2.482,4.8,4.8,0,0,0-7.2-6.175,71.933,71.933,0,0,0-6.093,5.925,50.415,50.415,0,0,1-10.271,8.095C88.183,56.165,81.8,57.144,75.3,57.386c-6.88.255-13.776.107-20.664.034-1.583-.017-3.3-.105-3.639-2.149.825-1.539,2.145-1.28,3.315-1.286,5.35-.034,10.7-.021,16.047-.011a13.644,13.644,0,0,0,4.784-.709,5.785,5.785,0,0,0,3.7-5.933,5.387,5.387,0,0,0-5.195-4.889c-5.184-.173-10.372-.076-15.56-.044A7.577,7.577,0,0,1,52.92,40.67C45.7,34.6,37.568,34.452,29.078,37.149a29.144,29.144,0,0,0-12.041,7.529C12.551,49.24,7.978,53.719,3.48,58.272c-.758.766-1.858,1.41-1.6,2.791a1,1,0,0,1,.9.695c.684,1.659,1.993,2.879,2.961,4.332,1.867,2.8,4.073,5.363,5.9,8.2a43.432,43.432,0,0,0,3.5,4.593A9.618,9.618,0,0,1,16.479,81c1.158.261,1.789-.585,2.473-1.231,1.646-1.558,3.273-3.142,4.816-4.8a18.274,18.274,0,0,1,13.687-5.845c10.042-.133,20.086-.046,30.13-.032a4.907,4.907,0,0,1,2.816.554c.831.48.827,1.574,1.568,2.115.655.051.373-.556.589-.833a1.839,1.839,0,0,1,1.366-.118c1.52.278,2.9-.461,4.372-.507.793-.526.951-1.7,1.64-1.861,1.539-.391,2.191.806,3.229.888" transform="translate(2.033 39.192)" fill="#fed3bd"/>
        <path id="Trazado_245441" data-name="Trazado 245441" d="M3.909,100.254c.114-.61.657-.884,1.04-1.267,5.321-5.338,10.6-10.717,16.013-15.965a23.6,23.6,0,0,1,8.295-5.192,21.493,21.493,0,0,1,4.713-1.545c.206-.027.425-.366.577-.326,1.233.33,2.244-.619,3.454-.533,1.452.105,2.917.025,4.378.025A19.293,19.293,0,0,1,54.09,80.08,7.434,7.434,0,0,0,59.5,82.318c5.834-.173,11.675-.057,17.514-.057a6.569,6.569,0,0,1,3.321,4.178,6.241,6.241,0,0,1-.9,3.448,3.678,3.678,0,0,1-2.164,1.9,14.308,14.308,0,0,1-3.62.716c-6.729-.063-13.46-.029-20.414-.029-.227.328-.547.791-1.084,1.57v1.7l1.419.888c1.7.964,3.7.688,5.668.695,5.921.017,11.839.032,17.758-.006,2.37-.015,4.708-.482,7.093-.562a21.841,21.841,0,0,0,6.194-1.416,37.433,37.433,0,0,0,5.5-2.551,41.971,41.971,0,0,0,6.121-4.058c3.429-2.707,6.249-6.007,9.385-8.994,2.414-2.3,2.37-2.347,5.666-2.347.594.232.85,1.113,1.654,1.048a4.768,4.768,0,0,1-.347,6.483c-2.465,2.576-4.9,5.205-7.59,7.533a51.074,51.074,0,0,1-8.282,6.386c-2.492,1.387-4.776,3.151-7.636,3.894a18.444,18.444,0,0,0-3.728,1.968v2.355c.139.7.88.9,1.124,1.408a6.829,6.829,0,0,0,4.285-.939,91.039,91.039,0,0,0,11.26-6.3c.842-.554,1.6-1.24,2.37-1.858a128.131,128.131,0,0,0,12.031-11.488,8.74,8.74,0,0,0,2.456-7.931,8.541,8.541,0,0,0-4.923-6.455c-.549-.248-1.061-.585-1.743-.966-1.549.192-3.271-.1-5.041.24s-2.755,1.938-4.4,2.332c-4.106-4.1-8.129-8.1-12.119-12.119a27.128,27.128,0,0,0-11.709-6.979,31.132,31.132,0,0,0-5.693-1.1V47.421c.526-.53.81,0,1.084.248A23.788,23.788,0,0,0,94.2,44.243a21.026,21.026,0,0,0,5.639-5.136,23.009,23.009,0,0,0,3.359-6.129,30.553,30.553,0,0,0,1.5-7.173,26.912,26.912,0,0,0-1.162-7.24,8.9,8.9,0,0,0-5.35-1.4,18.308,18.308,0,0,0-5.439.267A42.98,42.98,0,0,0,87.505,18.9a15.014,15.014,0,0,0-4.494,2.623c-1.347,1.221-3.149,1.991-4.144,3.782,0-2.568-.034-5.138.011-7.705.04-2.357-.871-4.506-1.619-6.632A14.417,14.417,0,0,0,74.1,6.189a25.542,25.542,0,0,0-5.173-4.035A12.282,12.282,0,0,0,64.481.622C63.5.447,62.621-.155,61.524.037a14.165,14.165,0,0,1-2.913.027c-1.1-.038-2.046.932-3.212.4-.558.65-1.078,1.257-1.772,2.071a18.256,18.256,0,0,0,3.711,16.583c4.224,5.123,9.817,7.234,16.409,6.674.352,2.069.461,23.091.156,29.151C68.7,55.3,64.13,57.42,59.811,60.2a18.048,18.048,0,0,0-3.073,2.572c-2.9,2.945-5.843,5.853-8.768,8.775-.173-.158-.339-.442-.524-.455-2.284-.175-4.536-.775-6.853-.516a11.213,11.213,0,0,1-1.7.006c-2.513-.1-4.862.735-7.272,1.235A32.784,32.784,0,0,0,23.5,75.136a21.727,21.727,0,0,0-5.428,3.927Q9.274,87.8.518,96.588c-.17.17-.358.326-.438.4-.3,1.318.3,2.218,1.031,3.267Z" transform="translate(0 0)"/>
        <path id="Trazado_245442" data-name="Trazado 245442" d="M64.765,54.52V52.353c-.339-.732-1.24-.657-1.7-1.235-11.244,0-22.5-.114-33.756.072a14.524,14.524,0,0,0-9.023,2.787c-1.654.356-2.6,1.673-3.723,2.745-2.448,2.326-4.639,4.919-7.287,7.04-.069.535-.579.728-.916,1.181v1.551c.511.511,1.027,1.025,1.587,1.587a3.423,3.423,0,0,0,3.275-1.2c2.45-2.469,4.885-4.955,7.39-7.369A13.387,13.387,0,0,1,27.1,56.438c3.161-.758,6.346-.419,9.518-.44,8.979-.055,17.96-.019,26.937-.019.354-.539,1.073-.756,1.206-1.459" transform="translate(9.236 56.434)" fill="#010101"/>
        <path id="Trazado_245443" data-name="Trazado 245443" d="M43.033,52.582a3.649,3.649,0,0,0-2.675-1.947c-.728.726-1.341,1.339-2.193,2.187v.732a3.14,3.14,0,0,0,1.181,1.909h2.5a3.341,3.341,0,0,0,1.183-2.881" transform="translate(42.163 55.94)" fill="#070706"/>
        <path id="Trazado_245444" data-name="Trazado 245444" d="M56.442,60.028c1.991.37,3.58-.589,5.216-1.145A31.613,31.613,0,0,0,71.28,53.31c2.191-1.764,4.012-3.843,6.02-5.607,0-.833-.6-1.076-.979-1.454-3.538-3.563-7.152-7.055-10.631-10.675a24.469,24.469,0,0,0-8.8-5.784,17.286,17.286,0,0,0-5.535-1.3c-1.456-.067-2.923.074-4.374-.034a15.536,15.536,0,0,0-6.089,1.177A23.194,23.194,0,0,0,31.452,35.6c-2.025,2.1-4.119,4.13-6.234,6.241,1.844,1.362,3.681,2.717,5.615,4.144H47.48c4.7,0,7.929,2.519,9.408,6.979.815,2.454.305,4.66-.446,7.064" transform="translate(27.86 31.413)" fill="#c58965"/>
        <path id="Trazado_245445" data-name="Trazado 245445" d="M37.549,30.149l1.143,1.2a20.005,20.005,0,0,0,11.157-2.492,17.15,17.15,0,0,0,6.165-6.342,19.645,19.645,0,0,0,2.372-11.38c-.179-.181-.351-.351-.524-.524-3.728-.354-5.378-.227-7.674.511a16.671,16.671,0,0,0-5.832,2.94,18.011,18.011,0,0,0-5.674,7.609,19.062,19.062,0,0,0-1.132,8.476" transform="translate(41.377 11.516)" fill="#d7eb83"/>
        <path id="Trazado_245446" data-name="Trazado 245446" d="M43.572,18.345c.4-4.721-.722-8.846-4.1-12.035a13.524,13.524,0,0,0-11.25-3.883c-.154.154-.326.326-.572.575A13.149,13.149,0,0,0,30.7,13.451c2.806,3.511,6.691,5.529,12.875,4.894" transform="translate(30.381 2.569)" fill="#d7eb83"/>
      </g>
    </g>
  </g>
</svg>
