<svg xmlns="http://www.w3.org/2000/svg" xmlns:xlink="http://www.w3.org/1999/xlink" width="86.995" height="85.915" viewBox="0 0 86.995 85.915">
  <defs>
    <clipPath id="clip-path">
      <rect id="Rect치ngulo_37385" data-name="Rect치ngulo 37385" width="86.995" height="85.914" fill="none"/>
    </clipPath>
  </defs>
  <g id="Grupo_754526" data-name="Grupo 754526" transform="translate(0 0)">
    <g id="Grupo_754525" data-name="Grupo 754525" transform="translate(0 0)" clip-path="url(#clip-path)">
      <path id="Trazado_245636" data-name="Trazado 245636" d="M51.014,30.18c-.035-.15.065-.313-.085-.454-.261-.251-.507-.52-.743-.766H46.7V25.792c.264-.246.637-.613,1.032-.956a15.893,15.893,0,0,0,3.781-5.362,17.083,17.083,0,0,0,.959-2.886,27.1,27.1,0,0,0,.482-7.1c-.416-1.122-.078-2.4-.692-3.481a20.23,20.23,0,0,0-1.229-4.594,9.028,9.028,0,0,1-.389-.926C49.47-.2,49.116-.2,48.231.755a7.7,7.7,0,0,1-2.318,1.752,8.452,8.452,0,0,1-3.4,1.137c-.409.007-.673.384-1.117.278a1.11,1.11,0,0,0-1,.206c-.15.118-.471.02-.713.02-1.415,0-2.835.062-4.245-.02a23.486,23.486,0,0,0-3.3-.223,4.058,4.058,0,0,0-2.326-.218c-.579.037-1.029-.346-1.6-.283a3.719,3.719,0,0,1-1.683-.02,8.352,8.352,0,0,0-2.826-.2,11.7,11.7,0,0,0-2.9.02,14.327,14.327,0,0,0-6.09,2.6A26.952,26.952,0,0,0,11.844,8.76c-.2.2-.238.55-.4.8-.249.387-.341.9-1.062,1.159-.065,0-.386,0-.7,0a7.578,7.578,0,0,0-4.25,1.18,7.85,7.85,0,0,0-3.2,3.553c-.414.156-.1.615-.339.828-.266.238-.052.55-.155.79A5,5,0,0,0,1.5,19.16a5.409,5.409,0,0,0,.213,1.855c.2.57-.156,1.265.271,1.834a21.064,21.064,0,0,0,1.225,4.965A18.937,18.937,0,0,0,4.4,30.845c.291.52.308,1.172.723,1.651-.076.168-.261.111-.4.156A7.4,7.4,0,0,0,1.68,34.7,6.843,6.843,0,0,0,.3,37.056a5.036,5.036,0,0,0,.055,3.535,6.377,6.377,0,0,0,1.714,2.693,7.948,7.948,0,0,0,2.153,1.255,7.807,7.807,0,0,1,.86.471h.908a10.026,10.026,0,0,1,.357,1.051,17.992,17.992,0,0,0,1.964,5.262,16.5,16.5,0,0,0,1.922,2.87c.474.514.918,1.072,1.4,1.593a18.743,18.743,0,0,0,6.108,4.3,3.553,3.553,0,0,1,1.244.883,28.226,28.226,0,0,1-.09,3.215c-.017.1-.161.175-.281.294-2.632,0-5.3.01-7.96,0a7.829,7.829,0,0,0-2.9.627,9.2,9.2,0,0,0-3.423,2.271,12.687,12.687,0,0,0-2.323,4.017c.106.758-.294,1.436-.286,2.2.043,3.811.02,7.621.02,11.452l.886.846q24.263,0,48.608.017a2.338,2.338,0,0,0,1.96-.88V80.875c-.419-.223-.55-.9-1.21-.823-.737-.329-1.107.11-1.422.675-.281.662.148,1.45-.371,2.07a1.424,1.424,0,0,1-.366.07c-1.44.025-2.875,0-4.313.007-.86-.19-1.854.456-2.6-.429-.125-4.906-.043-9.808-.043-14.709,0-2.875-.121-5.751.086-8.617a.709.709,0,0,1,.7-.369c1.992-.015,3.985-.025,5.979,0a.6.6,0,0,1,.51.259c.11,4.684.008,9.362.047,14.041a20.593,20.593,0,0,0,.063,2.66c.55,1.558.82,1.749,1.973,1.418.514.108.653-.384.968-.6V51.895a11.286,11.286,0,0,1,1.663-.078v32.7a2.146,2.146,0,0,1,.559,1.046,6.361,6.361,0,0,0,2.893.329q4.068.01,8.132,0c.3,0,.648.138.894-.176,1.021.042.961-.808,1.144-1.428a3.2,3.2,0,0,0,.012-.848V51.91a2.669,2.669,0,0,1,1.061-.075c2.589-.007,5.179-.04,7.766.017a11.105,11.105,0,0,0,2.56-.308,7.225,7.225,0,0,0,2.213-1.077,9.568,9.568,0,0,0,3.337-3.816c.279-.53.535-1.074.778-1.623A6.8,6.8,0,0,0,86.65,43.4a14.268,14.268,0,0,0,.269-4.268,15.258,15.258,0,0,0-.751-3.455,14.708,14.708,0,0,0-1.659-2.961,8.329,8.329,0,0,0-4.554-3.335,6.455,6.455,0,0,0-1.89-.421q-11.644,0-23.291,0a.538.538,0,0,1-.512.263c-.055.339-.427.562-.336.954-.19,1.084.135,1.443,1.506,1.551A8.8,8.8,0,0,0,54.075,33.6a14.3,14.3,0,0,0-1.052,2.314,15.367,15.367,0,0,0-.609,2.344c-.176,3.056-.048,6.052,1.53,8.812.318.555.72,1.061.993,1.648-.326.2-.648.081-.963.073a.686.686,0,0,1-.308-.136,1.781,1.781,0,0,1-.168-.826,3.381,3.381,0,0,0-3.319-3.107q-3.639-.1-7.279,0a3.164,3.164,0,0,0-3,1.909,1.16,1.16,0,0,1-.6.74,8.282,8.282,0,0,1-2.851-6.1,2.43,2.43,0,0,1-.04-1.584,2.851,2.851,0,0,0,.091-.539,8.428,8.428,0,0,1,3.486-6.389,3.769,3.769,0,0,1,2.615-.785c2.407-.038,4.815.091,7.217-.07.758-.324,1.525-.647,1.194-1.727" transform="translate(0.001 -0.001)"/>
      <path id="Trazado_245637" data-name="Trazado 245637" d="M38.292,26.181a16.229,16.229,0,0,1,1.438-4.1A8.522,8.522,0,0,1,41.5,19.7a2.418,2.418,0,0,1-1.992-.943v-.6H36.593c.032.723-.5,1.072-.971,1.46a48.082,48.082,0,0,1-7.768,0,3.6,3.6,0,0,0-3.013,1.436,2.334,2.334,0,0,1-.6.59c-1.144.6-1.47,1.8-1.924,2.826a5.284,5.284,0,0,0-.529,2.688c.333.494-.324,1.2.347,1.624a3.076,3.076,0,0,0,1.428.175q6.295.007,12.589,0a2.186,2.186,0,0,0,1.732-.4c.308-.638.085-1.343.195-2.013a.889.889,0,0,1,.214-.361" transform="translate(14.42 12.027)" fill="#eea133"/>
      <path id="Trazado_245638" data-name="Trazado 245638" d="M34.066,53.776h-.722c-.682-.2-.587-.883-.978-1.217-.269-.362-.116-.776-.116-1.162-.013-4.843-.007-9.686-.012-14.528a3.357,3.357,0,0,0-.153-1.453,11.645,11.645,0,0,0-4.418.095,2.5,2.5,0,0,0-.253,1.528q-.01,10.432,0,20.866a2.616,2.616,0,0,0,.211,1.418c1.392.592,2.841.191,4.263.249.765-.357.351-1.079.5-1.626a1.135,1.135,0,0,1,.221-.52c.219-.552.715-.643,1.214-.73,0-.725.035-1.451-.015-2.173-.023-.319.214-.485.258-.747" transform="translate(18.161 23.356)" fill="#515f75"/>
      <path id="Trazado_245639" data-name="Trazado 245639" d="M22.952,4.875c.018-.231-.14-.243-.306-.243A5.971,5.971,0,0,1,20.868,4.6,10.63,10.63,0,0,0,18.1,4.388c-.06,0-.118,0-.178,0a9.223,9.223,0,0,1-2.15-.111A2.621,2.621,0,0,0,14.105,5.4a15.773,15.773,0,0,0-3.869,8.843,14.086,14.086,0,0,0,1.3,8.122A4,4,0,0,0,13,24.094a11.93,11.93,0,0,0,2.762.941,14.545,14.545,0,0,1,1.392.446c.431.208.885-.023,1.355.268.4.244,1.032.135,1.573.256a31.274,31.274,0,0,0,7.038.251,17.827,17.827,0,0,0,4.451-.944,4.1,4.1,0,0,0,2.19-.565,20.324,20.324,0,0,0,2.454-1.112,16.192,16.192,0,0,0,4.28-3.4A12.283,12.283,0,0,0,42.1,17.873a11.67,11.67,0,0,0,1.174-3.142,11.822,11.822,0,0,0,.326-2.437c-.017-.487-.241-1.042.216-1.486a.373.373,0,0,0,0-.351c-.446-.66-.2-1.393-.223-2.09a28.27,28.27,0,0,0-.48-3.2c-.148-1.026-.564-1.957-.775-2.956-.868.5-1.651,1.019-2.5,1.407a15.913,15.913,0,0,1-4.321,1.307,23.992,23.992,0,0,0-2.8.241,6.855,6.855,0,0,1-2.815.156c-1.225-.175-2.464-.042-3.654-.249a21.1,21.1,0,0,0-2.574-.195c-.432.318-1-.067-1.415.219.128-.279.519.037.687-.219" transform="translate(6.702 1.462)" fill="#515f75"/>
      <path id="Trazado_245640" data-name="Trazado 245640" d="M32.963,18.669a12.542,12.542,0,0,0-2.249.407,11,11,0,0,1-2.78.334c-.185-.018-.51-.175-.554.231a1.851,1.851,0,0,0,1.162.1,5.009,5.009,0,0,1-1.89-.1h-3.4c-.56.294-1.174.008-1.456.086a2.628,2.628,0,0,0,1.214-.086.185.185,0,0,0-.19-.238c-.4-.013-.8,0-1.205-.007a2.817,2.817,0,0,1-1.357-.221c-.357-.186-.823.111-1.244-.216-.313-.243-.868.153-1.205-.273-.988.108-1.832-.446-2.765-.617a14.947,14.947,0,0,1-2.529-.866c-.763-.289-1.513-.615-2.289-.934a1.9,1.9,0,0,0-.58,1.41c.008.163-.148.334-.229.5C9.169,22.508,9.4,26.839,9.3,31.167a28.549,28.549,0,0,0,1.646,10.125,19.911,19.911,0,0,0,2.381,4.762,5.219,5.219,0,0,0,1.915,1.809c.379.387.931.248,1.393.446a19.015,19.015,0,0,0,5.332.269,25.964,25.964,0,0,0,4.078-.976A8.552,8.552,0,0,0,28.4,46.521c.569-.467,1.368-.655,1.94-1.121a3.825,3.825,0,0,1,1.137-.78c.022-.186.042-.377.068-.617.823-.344,1.285-1.205,2.133-1.5V40.7a2.2,2.2,0,0,0-1.614-.926c-.146-.1.027-.338-.253-.422h-.394c-.78-.6-1.154-1.535-1.849-2.2-1.292-.111-2.615.254-3.884-.244-.028-.068-.055-.2-.086-.2A5.768,5.768,0,0,1,22.546,35.3a4.425,4.425,0,0,1-.988-1.515,17.576,17.576,0,0,1-1.067-2.908H17.835l-.647-.652a1.908,1.908,0,0,1,.487-1.626c.7-.471,1.766-.08,2.818-.228a17.005,17.005,0,0,1,.657-2.1,6.688,6.688,0,0,1,2.735-3.2,3.193,3.193,0,0,1,1.847-.522c.171.017.431.1.434-.236-.03-.027-.076-.08-.09-.073-.113.057-.143-.01-.076-.018a30.753,30.753,0,0,0,3.565-.151,12.1,12.1,0,0,1,1.305-1.691C31.35,20.006,32,19.9,32.4,19.4c.446.126.208-.442.5-.492.2-.033.512.166.554-.238a.335.335,0,0,0-.485,0" transform="translate(6.158 10.78)" fill="#f8c1ae"/>
      <path id="Trazado_245641" data-name="Trazado 245641" d="M18.041,23.329a23.416,23.416,0,0,1-1.491-2.54c-.437-.9-.5-1.9-.928-2.778-.063-.131,0-.321-.01-.482a4.772,4.772,0,0,0-.2-1.742,1.178,1.178,0,0,1,.121-1.25c.165-.18.076-.387.076-.575a13.164,13.164,0,0,1,1.1-4.772,14.452,14.452,0,0,1,3.613-5.314.694.694,0,0,1,.628-.251,4.342,4.342,0,0,0,2.185,0c.018-.239-.146-.243-.313-.243-.725,0-1.453-.05-2.173.013a17.769,17.769,0,0,0-2.14.369,8.917,8.917,0,0,0-3.272,1.4,9.348,9.348,0,0,0-2.318,2.013,13.452,13.452,0,0,0-1.41,2.2,11.117,11.117,0,0,1-1.24,2.027.9.9,0,0,1-.971,0c.018-.238-.145-.243-.309-.243-.683,0-1.367-.03-2.048.007a4.045,4.045,0,0,0-2.268.9A5.752,5.752,0,0,0,2.6,15.06a2.152,2.152,0,0,0-.09.562c-.008,1.006,0,2.012,0,3.018,0,.166,0,.329.241.311a.842.842,0,0,0,.1-.707,1.345,1.345,0,0,1-.1.949,9.631,9.631,0,0,0,.609,3.387,27.909,27.909,0,0,0,1.107,3.535,21.613,21.613,0,0,0,1.719,3.754,3.071,3.071,0,0,0,2.09-.55,7.792,7.792,0,0,0,2.5-2.557,13.6,13.6,0,0,0,1.654-3.676,3.156,3.156,0,0,1,.873-1.451,2.8,2.8,0,0,1,1.656.392,13.284,13.284,0,0,0,3.084,1.3" transform="translate(1.66 2.227)" fill="#3b485b"/>
      <path id="Trazado_245642" data-name="Trazado 245642" d="M18.005,47.1c-.386-.69-1.059-1.129-1.481-1.812a21.282,21.282,0,0,1-1.955-3.571c-.361-.946-.722-1.892-1.013-2.86-.261-.87-.429-1.767-.65-2.65-.171-.687-.163-1.4-.284-2.08a12.243,12.243,0,0,1-.2-2.1c0-.728,0-1.458,0-2.188V27.655q0-4.559,0-9.119a1.555,1.555,0,0,0-.244-1.116,4.293,4.293,0,0,0-.963,1.709.3.3,0,0,1-.2.243,2.216,2.216,0,0,0-.756.919A2.577,2.577,0,0,1,9.1,21.369c-.474.216-.848.6-1.31.863a4.854,4.854,0,0,1-2.22.788.188.188,0,0,0-.191.239,4.925,4.925,0,0,0-.241,2.135c-.007,1.884.008,3.767,0,5.651a12.121,12.121,0,0,0,.74,4.541,18.553,18.553,0,0,0,2.442,4.793c.234.336.652.55.725,1.024A8.636,8.636,0,0,1,11.5,43.869c.367.206.889.206,1,.756,1.044.419,1.845,1.265,2.979,1.583a13.117,13.117,0,0,1,1.831.82c.243.113.467.028.695.073" transform="translate(3.395 11.542)" fill="#e99d8e"/>
      <path id="Trazado_245643" data-name="Trazado 245643" d="M52.279,20a3.894,3.894,0,0,0-2.55-.973c-.565,0-1.131,0-1.636,0A11.5,11.5,0,0,0,46,20.253c-.284.261-.6.487-.876.743a2.561,2.561,0,0,0-.816,1.1c-.106.436-.765.574-.525,1.124a4.226,4.226,0,0,0-.728,2.243c-.411.3-.223.735-.234,1.112a19.651,19.651,0,0,0,0,2.424,8.425,8.425,0,0,0,1.327,4.18c.155.219.4.474.362.813a2.116,2.116,0,0,1,1.006.776,4.248,4.248,0,0,0,1.925,1.445c.2.093.471.085.587.333h2.642a1.751,1.751,0,0,1,1.029-.485.576.576,0,0,0,.575-.487,11.836,11.836,0,0,1-2.831-7.538,11.026,11.026,0,0,1,2.323-7.214A5.546,5.546,0,0,0,52.279,20" transform="translate(28.348 12.608)" fill="#79bae7"/>
      <path id="Trazado_245644" data-name="Trazado 245644" d="M39.138,19.03a4.814,4.814,0,0,0-2.67,1.122c.065.529-.6.258-.708.658a3.073,3.073,0,0,1-.494.765c-.1.153-.274.12-.374.146a8.817,8.817,0,0,0-1.579,4.607q.017,1.581,0,3.162a5.77,5.77,0,0,0,.524,2.333,4.81,4.81,0,0,0,.969,1.877c.612.542.9,1.455,1.814,1.658.288.673.968.695,1.518.961a5.322,5.322,0,0,0,2.572.2A2.953,2.953,0,0,0,42.172,36c.191-.123.6-.033.607-.431-3.8-3.729-3.912-11.668,0-15.57a3.992,3.992,0,0,0-2.427-.973,1.315,1.315,0,0,1-1.214,0" transform="translate(22.07 12.609)" fill="#79bae7"/>
      <path id="Trazado_245645" data-name="Trazado 245645" d="M9.452,56.21a34.881,34.881,0,0,0,2.6-2.459,5.047,5.047,0,0,0-1.5-.416,6.69,6.69,0,0,0-1.34-.323A1.829,1.829,0,0,1,8,52.178c0-1.169.007-2.343,0-3.518s.361-2.339.264-3.546c-.093-1.167-.018-2.348-.022-3.523a.659.659,0,0,1,.18-.539c.148-.145.06-.371.032-.663a5.406,5.406,0,0,0-2.328.732,7.4,7.4,0,0,0-1.905,1.516A18.542,18.542,0,0,0,3,44.8a4.774,4.774,0,0,0-.342,2.409,46.774,46.774,0,0,1,.121,5.525c.038,1.079-.035,2.16.047,3.352,2.248.263,4.444.057,6.629.125" transform="translate(1.754 26.761)" fill="#515f74"/>
      <path id="Trazado_245646" data-name="Trazado 245646" d="M49.763,19.615H49.4c-.1.61-.648.933-.964,1.4a11.728,11.728,0,0,0-1.623,4.3c-.2.951-.093,1.88-.218,2.806-.075.545.326.983.241,1.47a3.013,3.013,0,0,0,.321,1.573,5.042,5.042,0,0,0,.53,1.355c.279.384.352.921.642,1.293.333.426.688.836.993,1.287.113.168.3.053.446.085a5.381,5.381,0,0,0,2.12-2.038,9.3,9.3,0,0,0,1.525-5.056c-.022-.605-.007-1.21,0-1.817a7.189,7.189,0,0,0-.692-2.861,15.982,15.982,0,0,0-1.254-2.386,1.282,1.282,0,0,0-.871-.707c-.007-.524-.416-.442-.738-.507-.04-.007-.058-.13-.086-.2" transform="translate(30.864 12.996)" fill="#addaf3"/>
      <path id="Trazado_245647" data-name="Trazado 245647" d="M38.286,22.981h-.243c-.3.865.035,1.779-.2,2.647.033.155.012.324.033.351-.126-.324-.534-.316-.924-.316-4.886,0-9.771-.025-14.656.013a1.136,1.136,0,0,0-.352.083l-.161.141a8.3,8.3,0,0,0,.4,2.748,21.19,21.19,0,0,0,1.317,2.738c.71.382.964,1.279,1.864,1.666-.058-1,.577-1.658.838-2.426l1.641-.835c2.534,0,5.2.017,7.862-.01a3.167,3.167,0,0,1,2.08.843,4.594,4.594,0,0,1,.748.756,5.866,5.866,0,0,1,.249,2.354.188.188,0,0,0,.239.193c.246-.442.048-.923.121-1.328.073.406-.125.886.121,1.328h2.176c-.14-.346-.318-.512-.62-.509-.211-.321-.176-.81-.65-.954-.067-.022-.173-.093-.17-.133a1.992,1.992,0,0,0-.439-1.156,7.734,7.734,0,0,1-.532-1.111c-.143-.387-.115-.881-.351-1.179-.3-.377.088-.888-.369-1.205-.113-.08-.017-.461-.017-.7Z" transform="translate(14.427 15.227)" fill="#dc8b22"/>
      <path id="Trazado_245648" data-name="Trazado 245648" d="M40.269,19.615a.643.643,0,0,0-.539.163,9.792,9.792,0,0,0-2.138,3.832,8.806,8.806,0,0,0-.484,3.427c.028.564-.02,1.131.01,1.693a10.715,10.715,0,0,0,1.684,5.1,5.25,5.25,0,0,0,1.014,1.275c.151.131.3.048.452.08.338-.3.687-.587,1.011-.9.288-.276.273-.853.811-.838a9.7,9.7,0,0,0,1.576-4.1q-.045-1.945,0-3.892a8.1,8.1,0,0,0-1.084-3.162,8.336,8.336,0,0,1-.431-.863,7.068,7.068,0,0,1-1.884-1.814" transform="translate(24.58 12.996)" fill="#addaf3"/>
      <path id="Trazado_245649" data-name="Trazado 245649" d="M24.567,56.488l-2.559-2.564v-1.39A2.522,2.522,0,0,1,24,51.46a11.193,11.193,0,0,1,2.457-.542c.113,0,.233-.2.364-.323V40.274H24.5a15.051,15.051,0,0,0-1.032,3.147c-.334,1.031-.625,2.093-.883,3.152-.331,1.357-.78,2.678-1.119,4.033-.228.906-.49,1.814-.781,2.705-.219.678-.367,1.375-.615,2.048a3.69,3.69,0,0,1-.431,1.127Z" transform="translate(13.014 26.685)" fill="#515e74"/>
      <path id="Trazado_245650" data-name="Trazado 245650" d="M14.511,55.809a2.84,2.84,0,0,0-.224-1c-.364-1.584-.818-3.156-1.29-4.7a25.492,25.492,0,0,0-1.395-4.4c.145-.848-.379-1.556-.547-2.338a22.586,22.586,0,0,0-.647-2.269,6.317,6.317,0,0,1-.349-.85h-2c-.173.2-.372.311-.349.618.193,2.444-.278,4.87-.236,7.31.013.806,0,1.613,0,2.407.446.507,1.087.429,1.616.559.773.188,1.533.442,2.331.562a1.42,1.42,0,0,1,1.136.778v1.222c-.575.737-1.4,1.274-1.927,2.092a3.878,3.878,0,0,0,3.884,0" transform="translate(4.948 26.675)" fill="#515f74"/>
      <path id="Trazado_245651" data-name="Trazado 245651" d="M27.728,28.688h-.243a1.625,1.625,0,0,0-.246.4,54.032,54.032,0,0,0-.091,6.785.9.9,0,0,0,.469.918c1.165-.146,2.336-.03,3.5-.075.432-.017.9.108,1.272-.231.146-2.371.03-4.743.063-7.114a.525.525,0,0,0-.238-.515c-1.491-.163-3,.14-4.489-.163" transform="translate(17.947 19.008)" fill="#f8c1ae"/>
      <path id="Trazado_245652" data-name="Trazado 245652" d="M20.172,41.417c.171.171.258.258.334.336h5.945V34.261c-.943.658-1.85,1.305-2.773,1.932a3.91,3.91,0,0,1-1.174.663c-.462.11-.652.622-1.235.6-.374-.015-.823.4-1.1.838Z" transform="translate(13.366 22.701)" fill="#fcfcfc"/>
      <path id="Trazado_245653" data-name="Trazado 245653" d="M20.127,21.671A1.893,1.893,0,0,0,18.574,22.7a3.255,3.255,0,0,0-.875,2.379q0,.973,0,1.945a3.227,3.227,0,0,0,1.275,2.6c.168.15.146.349.206.452l1.117.564h2.328a17.583,17.583,0,0,1-.763-2.509,2.275,2.275,0,0,1-.035-.835c0-.648.013-1.3,0-1.944A7.867,7.867,0,0,1,22.3,22.4a1.515,1.515,0,0,0,.007-.484c-.685-.464-1.458-.146-2.185-.243" transform="translate(11.712 14.347)" fill="#dc8b22"/>
      <path id="Trazado_245654" data-name="Trazado 245654" d="M28.74,36.716c-.4-.042-.234-.357-.234-.552-.012-2.411-.008-4.822-.008-7.232-.868-.328-1.8.1-2.67-.244-.4.043-.234.361-.234.554-.012,2.539-.008,5.076-.008,7.718h1.061c2.133,0,4.265,0,6.4-.007.193,0,.51.17.552-.236a.612.612,0,0,0-.419-.116,33.766,33.766,0,0,0-4.436.116" transform="translate(16.934 19.007)" fill="#f2ae9c"/>
      <path id="Trazado_245655" data-name="Trazado 245655" d="M14.783,41.508c.045.51.715.042.7.372-.023.477.377.306.537.482.241.266.6.048.9.121s.492-.175.742-.236c.341-.085.321-.633.86-.542.264.045.633-.318.981-.462.3-.126.474-.476.84-.584a5.686,5.686,0,0,0,.991-.5c.017-.008,0-.076,0-.116a5.014,5.014,0,0,0,.113-1.724.607.607,0,0,0-.592-.713c-2.02.226-4.052.364-6.083.5a3.863,3.863,0,0,0,.008,3.4" transform="translate(9.531 24.92)" fill="#f7c1ae"/>
      <path id="Trazado_245656" data-name="Trazado 245656" d="M10.841,40.642c-.13.416.173.738.256,1.107.344,1.541.968,3.008,1.222,4.579a6.63,6.63,0,0,0,.326.67,20.182,20.182,0,0,1,4-4.013v-.572c-1.169-.323-1.993-1.362-3.387-1.594-.03-.013.042-.2-.023-.338-.125-.158-.3-.052-.449-.081-.647.08-1.338-.195-1.942.243" transform="translate(7.162 26.759)" fill="#f0f0f0"/>
      <path id="Trazado_245657" data-name="Trazado 245657" d="M21.126,40.4H20.77c-.178.09-.09.288-.18.417-1.275.181-2.115,1.265-3.324,1.589v.579A19.02,19.02,0,0,1,21.241,47a16.631,16.631,0,0,0,.843-2.652c.326-1,.514-2.038.913-3.013a3,3,0,0,0,.071-.7c-.6-.447-1.3-.156-1.942-.243" transform="translate(11.441 26.758)" fill="#f0f0f0"/>
      <path id="Trazado_245658" data-name="Trazado 245658" d="M15.716,41.911V38.749a18.184,18.184,0,0,1,2.07.013c1.112.131,2.158-.367,3.26-.264.259.025.424-.359.738-.236a.743.743,0,0,0,.243-1.215c-.559-.18-1.018.259-1.555.248-.505-.012-1.014.018-1.52.043-.03,0-.055.126-.081.195a1.672,1.672,0,0,0,1.044.1c-.259-.05-.78.148-1.287-.1-.728,0-1.456,0-2.235.04-.422.155-.821.022-1.214.13-.15,0,.083-.268.017-.12a2.311,2.311,0,0,0,1.2-.01c.023-.108,0-.233-.032-.234-.545-.025-1.092-.033-1.638-.05-.49-.015-.916-.411-1.436-.241-.273,1.16-.642,2.328.243,3.4v.4c.65.091,1.052.657,1.644.909a1.326,1.326,0,0,0,.54.146" transform="translate(8.597 24.517)" fill="#e99d8e"/>
      <path id="Trazado_245659" data-name="Trazado 245659" d="M25.574,35.33V59.659a11.149,11.149,0,0,0,2.843.085.587.587,0,0,0,.271-.357c.09-7.773.02-15.545.035-23.316a1.237,1.237,0,0,0-.146-.7,6.93,6.93,0,0,0-3-.037" transform="translate(16.945 23.312)" fill="#3c495c"/>
      <path id="Trazado_245660" data-name="Trazado 245660" d="M18.656,46.288a1.127,1.127,0,0,0-.913,1.177c-.426.062-.642.416-.926.677.015.921,1.194,1.107,1.225,2a1.068,1.068,0,0,1,.7.442v.492l.667.585c.374-1.742,1.059-3.42,1.368-5.2-.761-.168-.986-.986-1.7-1.064-.118.244-.246.514-.426.891" transform="translate(11.143 30.079)" fill="#efefef"/>
      <path id="Trazado_245661" data-name="Trazado 245661" d="M16.817,42.605c-.464.652-1.021.909-1.252,1.51-.2.534-.846.645-1.282,1.071a24.062,24.062,0,0,1,2.09,2.728c.5.125.56-.414.933-.5.326-.07.422-.514.594-.778a2.044,2.044,0,0,1,.613-.569c.3-.211.316-.59.485-.9a12.68,12.68,0,0,1-2.181-2.564" transform="translate(9.464 28.229)" fill="#f54765"/>
      <path id="Trazado_245662" data-name="Trazado 245662" d="M3.238,21.58c-.057.457-.452.133-.643.281-.186.421-.3.891-.808,1.079-.038.015,0,.224,0,.342.126.888-.236,1.821.243,2.677v.607c.281.115.625.211.715.517.19.643.7.722,1.227.821a.71.71,0,0,0,.446-.53,35.929,35.929,0,0,0-.171-5.779.861.861,0,0,0-1-.015" transform="translate(1.171 14.195)" fill="#e89d8e"/>
      <path id="Trazado_245663" data-name="Trazado 245663" d="M12.587,47.558c-.123.562.406,1.021.249,1.588.517.77.449,1.736.843,2.54.422-.191.313-.815.786-.964a1.669,1.669,0,0,1,.224-.042c.314-.386.206-1.1.918-1.175.228-.436.554-.846.309-1.392-.68-.15-.6-1.039-1.21-1.294-.638-.263-.341-1.315-1.174-1.45-.477.141-.461.652-.7.971-.342.354-.209.8-.243,1.217" transform="translate(8.328 30.061)" fill="#efefef"/>
      <path id="Trazado_245664" data-name="Trazado 245664" d="M37.8,35.419H34.771c-.185,1.072-.251,20.043-.083,24.327H37.56c.017-.073.033-.146.048-.219-.052-.055-.1-.108-.156-.163-.575-.351-1.287-.11-2.072-.427-.136-7.535-.106-15.068-.113-22.438.74-.6,1.39-.379,1.965-.529a1.249,1.249,0,0,0,.414-.161.385.385,0,0,0,.156-.389" transform="translate(22.92 23.468)" fill="#3a475a"/>
      <path id="Trazado_245665" data-name="Trazado 245665" d="M36.538,59.749h4.973c.188-1.074.258-19.84.088-24.244-.123-.161-.3-.053-.449-.083a.716.716,0,0,0-.12.434c.048,7.289.008,14.576.018,21.865a1.407,1.407,0,0,1-.427,1.308c-1.224.414-2.64-.156-3.955.326-.057.055-.111.11-.166.165.013.076.025.153.038.229" transform="translate(24.185 23.465)" fill="#515f75"/>
      <path id="Trazado_245666" data-name="Trazado 245666" d="M36.76,59.649v-.243a2.025,2.025,0,0,0,.339-1.5q.01-10.427,0-20.857a2.752,2.752,0,0,0-.176-1.308c-.053-.06-.108-.118-.163-.178h-.243a1.528,1.528,0,0,0-.248.407.992.992,0,0,0-.055.236q-.1,11.277,0,22.555a1.228,1.228,0,0,0,.052.236,1.513,1.513,0,0,0,.251.407v.243Z" transform="translate(23.963 23.565)" fill="#445266"/>
      <path id="Trazado_245667" data-name="Trazado 245667" d="M27.726,35.57h4.381v17.5c.362-.078.176-.319.231-.466q0-7.988,0-15.973c0-.412-.12-.853.2-1.219a.271.271,0,0,0-.083-.078.319.319,0,0,0-.12,0,34.413,34.413,0,0,0-4.7-.1c-.058.071-.223.035-.171.223s.173.09.261.125" transform="translate(18.192 23.317)" fill="#516076"/>
      <path id="Trazado_245668" data-name="Trazado 245668" d="M9.449,53.492c-.042-.406-.359-.234-.552-.236-1.969-.012-3.935-.007-6-.007V52.179c0-2.378,0-4.757-.008-7.134,0-.195.17-.512-.234-.554v9.126c.273.234.607.11.908.111,1.819.015,3.636.01,5.455,0,.175,0,.431.095.434-.239" transform="translate(1.757 29.479)" fill="#515f75"/>
      <path id="Trazado_245669" data-name="Trazado 245669" d="M40.7,30.636h4.015c-.813-.828-1.22-1.88-2.027-2.767A7.629,7.629,0,0,1,40.7,30.636" transform="translate(26.968 18.465)" fill="#da8a21"/>
      <path id="Trazado_245670" data-name="Trazado 245670" d="M14.555,51.019h4a9.461,9.461,0,0,0-1.937-2.461,25.147,25.147,0,0,1-2.058,2.461" transform="translate(9.644 32.174)" fill="#f14664"/>
      <path id="Trazado_245671" data-name="Trazado 245671" d="M40.861,19.264a10.535,10.535,0,0,1,1.782,2.692,6.2,6.2,0,0,1,2.027-2.833,8.98,8.98,0,0,0-1.922-.086c-.592-.015-1.185,0-1.779,0-.037.076-.071.155-.108.231" transform="translate(27.074 12.606)" fill="#de8d22"/>
      <path id="Trazado_245672" data-name="Trazado 245672" d="M42.641,35.538c.239.018.243-.148.243-.313V31.2h-8.2a3.5,3.5,0,0,0-.053,1.114c-.015.364,0,.728,0,1.092v1.821c0,.165,0,.331.243.313.166-.116.359-.2.441-.409a11.477,11.477,0,0,0,.1-3.111c.665-.647,1.476-.13,2.2-.279.131,0,.259,0,.391,0,1.355.007,2.708-.032,4,.027.668,1.3-.141,2.66.632,3.767" transform="translate(22.936 20.672)" fill="#f5b09e"/>
      <path id="Trazado_245673" data-name="Trazado 245673" d="M2.652,21.819H3.5c.246.224.113.52.116.78.013,1.521,0,3.044.01,4.565a1.425,1.425,0,0,1-.246.979c.1.456.412.2.69.2v-7.28a3.183,3.183,0,0,0-1.418.755" transform="translate(1.757 13.956)" fill="#ea9e8f"/>
      <path id="Trazado_245674" data-name="Trazado 245674" d="M5.238,28.718c.4-.043.233-.361.234-.555.013-1.9.008-3.794.008-5.691V21.3c.2-.269.5,0,.688-.208-.028-.053-.053-.155-.085-.156-.2-.015-.4-.007-.6-.007H5.123c-.168.1-.128.273-.128.426v5.294a6.885,6.885,0,0,1-.012,1.081c-.062.384.369.609.254.984" transform="translate(3.298 13.869)" fill="#efa192"/>
      <path id="Trazado_245675" data-name="Trazado 245675" d="M41.4,35.458V31.321H36.546a.257.257,0,0,0,.076.361c1.264.555,2.653-.038,3.97.417a4.213,4.213,0,0,1,.067,2.517c-1.305.584-2.753-.1-4.038.48-.045.053-.09.106-.133.16.02.068.038.135.058.2Z" transform="translate(24.177 20.753)" fill="#fec8b4"/>
      <path id="Trazado_245676" data-name="Trazado 245676" d="M27.915,17.96v-1.4c-.727-.085-1.2.426-1.766.673a11.687,11.687,0,0,0-1.576.732Z" transform="translate(16.282 10.962)" fill="#e7b4a2"/>
      <path id="Trazado_245677" data-name="Trazado 245677" d="M13.539,49.612c-.244-.013-.336.271-.622.258-.878-.04-1.762-.04-2.64,0-.286.013-.377-.271-.622-.258-.351.067-.457.426-.722.6a23.152,23.152,0,0,0,4.835.022c.175-.3-.266-.371-.229-.62" transform="translate(5.92 32.872)" fill="#526076"/>
      <path id="Trazado_245678" data-name="Trazado 245678" d="M30.379,36.718h.243q0-3.92,0-7.841a.378.378,0,0,0-.037-.108c-.125-.155-.3-.048-.447-.08-.078.055-.106.108-.078.163s.052.081.078.081c.4.04.234.357.234.55.013,2.331.01,4.66.01,6.991-.086.053-.115.108-.086.161s.058.081.086.081" transform="translate(19.908 19.005)" fill="#fdc7b5"/>
      <path id="Trazado_245679" data-name="Trazado 245679" d="M25.43,19.033a.185.185,0,0,0,.188.239c2.592,0,5.184,0,7.822,0a1.3,1.3,0,0,0-.126-.239c-.018-.02-.076,0-.116,0Z" transform="translate(16.846 12.606)" fill="#f3a534"/>
      <path id="Trazado_245680" data-name="Trazado 245680" d="M28.732,35.369h4.855a.186.186,0,0,0-.191-.239q-3.813-.007-7.628,0a.186.186,0,0,0-.191.239h2.913c.081.118.161.118.243,0" transform="translate(16.943 23.274)" fill="#3b485b"/>
      <path id="Trazado_245681" data-name="Trazado 245681" d="M19.449,28.691c-.228.028-.469-.067-.75.116a1.124,1.124,0,0,0,.858.116c.333-.028.507.289.855.271.87-.05,1.744-.017,2.617-.017.165,0,.323-.013.3-.244,0-.326-.249-.239-.426-.239-1.152-.007-2.306,0-3.458,0" transform="translate(12.39 19.005)" fill="#fac3b0"/>
      <path id="Trazado_245682" data-name="Trazado 245682" d="M13.6,40.435c-.043-.261-.274-.429-.259-.747.047-.884.017-1.772.017-2.66H13c-.042.065-.118.126-.118.191-.007,1.044,0,2.088,0,3.107.253.181.5.076.728.108" transform="translate(8.529 24.534)" fill="#eea192"/>
      <path id="Trazado_245683" data-name="Trazado 245683" d="M37.684,35.458v-.243a4.043,4.043,0,0,0,0-3.649v-.244h-.243a1.976,1.976,0,0,0-.223.338c-.306.961.08,2-.291,2.946-.574.466-1.393.071-1.914.61a.205.205,0,0,0-.243.243Z" transform="translate(23.039 20.753)" fill="#fbb5a2"/>
      <path id="Trazado_245684" data-name="Trazado 245684" d="M41.146,23.129a.184.184,0,0,0-.238.191q-.012,1.756,0,3.51a.184.184,0,0,0,.238.191c-.027-.7.286-1.347.279-2.067a16.914,16.914,0,0,1-.279-1.826" transform="translate(27.101 15.321)" fill="#b1dff8"/>
      <path id="Trazado_245685" data-name="Trazado 245685" d="M33.414,26.584a.184.184,0,0,0,.238-.191q.012-1.389,0-2.78a.184.184,0,0,0-.238-.191c.015.244-.279.334-.258.62a12.763,12.763,0,0,1,0,1.92c-.022.288.273.377.258.622" transform="translate(21.968 15.515)" fill="#7cbfed"/>
      <path id="Trazado_245686" data-name="Trazado 245686" d="M27.362,50.2h4.855a.225.225,0,0,0-.125-.342c-1.443-.058-2.888.023-4.331-.043a.615.615,0,0,0-.4.143c-.08.053-.106.108-.08.161s.053.081.08.081" transform="translate(18.07 33.009)" fill="#3c495c"/>
      <path id="Trazado_245687" data-name="Trazado 245687" d="M2.125,25.219V22.845c0-.165-.017-.319-.244-.3-.03.258-.293.4-.259.723a14.9,14.9,0,0,1,.017,1.611c.2.108.246.356.487.342" transform="translate(1.072 14.935)" fill="#eda091"/>
      <path id="Trazado_245688" data-name="Trazado 245688" d="M19.152,21.761c-.017.226.135.243.3.243h1.885c.3-.015.254-.208.191-.485-.72,0-1.456,0-2.193,0a.185.185,0,0,0-.183.238" transform="translate(12.687 14.257)" fill="#e28f23"/>
      <path id="Trazado_245689" data-name="Trazado 245689" d="M18.517,37.028c-.007.421.076.858-.243,1.217h.411a3.027,3.027,0,0,1,.071,1.124c.017.354,0,.71,0,1.066.238.018.243-.148.243-.313V37.158c-.161-.206-.336-.1-.485-.13" transform="translate(12.108 24.534)" fill="#eea192"/>
      <path id="Trazado_245690" data-name="Trazado 245690" d="M41.135,35.662v-.243H36.523v.243a6.7,6.7,0,0,0,4.612,0" transform="translate(24.2 23.468)" fill="#3b485b"/>
      <path id="Trazado_245691" data-name="Trazado 245691" d="M23.305,19.762H18.74c.362.319.775.206,1.167.243.993,0,1.983,0,2.974,0,.175,0,.422.083.424-.241" transform="translate(12.417 13.094)" fill="#fbc4b1"/>
      <path id="Trazado_245692" data-name="Trazado 245692" d="M31.841,28.931v-.243H27.472c0,.326.249.239.424.239,1.315.007,2.63,0,3.945,0" transform="translate(18.203 19.008)" fill="#fecab6"/>
      <path id="Trazado_245693" data-name="Trazado 245693" d="M19.59,40.491c-.017.224.133.243.3.243h1.644l.331-.13-.467-.188c.032-.057.063-.113.095-.168-.574,0-1.149-.007-1.722,0a.185.185,0,0,0-.178.238" transform="translate(12.977 26.667)" fill="#fafafa"/>
      <path id="Trazado_245694" data-name="Trazado 245694" d="M10.828,40.735h1.644c.165,0,.314-.02.3-.243a.186.186,0,0,0-.19-.239c-.557-.01-1.114,0-1.624,0-.2.165-.1.338-.128.487" transform="translate(7.174 26.666)" fill="#fafafa"/>
      <path id="Trazado_245695" data-name="Trazado 245695" d="M17.788,25.661a.185.185,0,0,0,.238-.19q.017-.783,0-1.568a.244.244,0,0,0-.475,0q-.017.786,0,1.568a.185.185,0,0,0,.238.19" transform="translate(11.623 15.709)" fill="#e28f23"/>
      <path id="Trazado_245696" data-name="Trazado 245696" d="M28.487,50.148V49.9H25.575c-.018.229.138.243.3.243h2.61" transform="translate(16.945 33.066)" fill="#3b485b"/>
      <path id="Trazado_245697" data-name="Trazado 245697" d="M25.72,28.688c-.017.228.136.243.3.243h2.368v-.243Z" transform="translate(17.041 19.008)" fill="#feb6a3"/>
      <path id="Trazado_245698" data-name="Trazado 245698" d="M30.691,48.588c-.17-.007-.251.075-.244.243a4.342,4.342,0,0,0,0,2.19c.228.018.244-.136.244-.3V48.588" transform="translate(20.081 32.193)" fill="#3c495c"/>
      <path id="Trazado_245699" data-name="Trazado 245699" d="M12.682,47.171c.214.015.243-.125.243-.291v-.926h-.381c-.2.321-.075.685-.1,1.029a.181.181,0,0,0,.236.188" transform="translate(8.234 30.448)" fill="#f7f7f7"/>
      <path id="Trazado_245700" data-name="Trazado 245700" d="M19.734,18.3c.028.068.055.195.083.2a21.77,21.77,0,0,0,2.326-.065,5.553,5.553,0,0,0-1.681-.131Z" transform="translate(13.076 12.124)" fill="#fcc5b2"/>
      <path id="Trazado_245701" data-name="Trazado 245701" d="M30.529,50.924v-2.19c-.223-.017-.244.131-.244.3v1.4c-.09.055-.118.108-.09.163s.06.081.09.081v.243Z" transform="translate(20 32.29)" fill="#546379"/>
      <path id="Trazado_245702" data-name="Trazado 245702" d="M24.348,48.546c-.249-.452-.617-.168-.934-.246a.563.563,0,0,0,.449.733c.477.153.266-.382.485-.487" transform="translate(15.501 31.991)" fill="#4b586d"/>
      <path id="Trazado_245703" data-name="Trazado 245703" d="M18.352,18.3H16.324a2.69,2.69,0,0,0,2.271,0Z" transform="translate(10.816 12.124)" fill="#fdc5b2"/>
      <path id="Trazado_245704" data-name="Trazado 245704" d="M16.376,37.321c.027.068.045.188.083.195a3.5,3.5,0,0,0,.575.047,5.549,5.549,0,0,0,1.27-.09,5.079,5.079,0,0,0-1.686-.151Z" transform="translate(10.851 24.728)" fill="#efa292"/>
      <path id="Trazado_245705" data-name="Trazado 245705" d="M22.072,25.026V23.861c0-.166-.023-.311-.243-.294v.487c-.223.352-.085.738-.1,1.111a.27.27,0,0,0,.294.183l.125-.145c-.025-.06-.05-.118-.075-.176" transform="translate(14.379 15.614)" fill="#f2a434"/>
      <path id="Trazado_245706" data-name="Trazado 245706" d="M23.53,17.922h1.121a.351.351,0,0,0-.068-.525c-.269.313-.793.1-1.052.525" transform="translate(15.591 11.527)" fill="#d5a897"/>
      <path id="Trazado_245707" data-name="Trazado 245707" d="M18.273,3.812h-1.1c.923.333,1.3.318,1.824,0Z" transform="translate(11.381 2.525)" fill="#536178"/>
      <path id="Trazado_245708" data-name="Trazado 245708" d="M2.652,13.571c.067-.027.193-.052.193-.081.013-.452.008-.908.008-1.641a3.527,3.527,0,0,0-.2,1.48Z" transform="translate(1.757 7.851)" fill="#3d4a5d"/>
      <path id="Trazado_245709" data-name="Trazado 245709" d="M21.881,25.076V23.859a1.161,1.161,0,0,0,0,1.46c.085-.053.113-.108.085-.161s-.057-.081-.085-.081" transform="translate(14.327 15.808)" fill="#dc8b22"/>
      <path id="Trazado_245710" data-name="Trazado 245710" d="M32.388,30.162c0-.442,0-.886,0-1.328,0-.03-.05-.06-.145-.166a5.452,5.452,0,0,0-.095,1.495Z" transform="translate(21.295 18.994)" fill="#e18e23"/>
      <path id="Trazado_245711" data-name="Trazado 245711" d="M6.679,8.2c-.12-.013-.2.023-.214.243.339,0,.677.012,1.011,0A.186.186,0,0,0,7.65,8.2Z" transform="translate(4.284 5.433)" fill="#3c4a5d"/>
      <path id="Trazado_245712" data-name="Trazado 245712" d="M24.161,48.443a.188.188,0,0,0-.238.185c-.02.163-.02.319-.248.3.05.231.195.369.485.477Z" transform="translate(15.688 32.094)" fill="#374150"/>
      <path id="Trazado_245713" data-name="Trazado 245713" d="M36.815,19.03a.834.834,0,0,0,1.214,0Z" transform="translate(24.393 12.609)" fill="#7cbeec"/>
      <path id="Trazado_245714" data-name="Trazado 245714" d="M21.924,25.552v.243a.952.952,0,0,0,.58.118q7.429,0,14.862,0a.917.917,0,0,0,.579-.12V23.119c-.028-.07-.057-.138-.143-.347a22.641,22.641,0,0,0-.123,2.78Z" transform="translate(14.527 15.088)" fill="#efa234"/>
      <path id="Trazado_245715" data-name="Trazado 245715" d="M27.326,59.6h.243c.067-.095.229-.095.243-.243V35.516c-.168.007-.249-.075-.243-.244h-.243Z" transform="translate(18.106 23.37)" fill="#526076"/>
      <path id="Trazado_245716" data-name="Trazado 245716" d="M27.715,49.758a.205.205,0,0,0-.243.243h4.612v-.243Z" transform="translate(18.203 32.969)" fill="#536177"/>
      <path id="Trazado_245717" data-name="Trazado 245717" d="M15.787,3.52H13.6c.028.068.055.2.085.2q1.008.017,2.015,0c.03,0,.057-.13.085-.2" transform="translate(9.013 2.332)" fill="#536278"/>
      <path id="Trazado_245718" data-name="Trazado 245718" d="M26.513,31.065c-.376-.7-1.022-.745-1.335-1.2-.148.088-.115.218-.123.352a15.119,15.119,0,0,0-1.431.9,4.579,4.579,0,0,1-2.517.934A4.706,4.706,0,0,1,17.8,31.28c-.605-.5-1.313-.747-1.91-1.189a2.125,2.125,0,0,0-1.259.914v.9c.208.347.672.514.761,1,.023.13.229.276.437.362a13.709,13.709,0,0,1,1.706.851c.569.336,1.287.168,1.817.592a11.923,11.923,0,0,0,2.6-.146,10.384,10.384,0,0,0,1.826-.577c.525-.283,1.079-.514,1.7-.806-.063-.5.515-.557.785-.888a1.772,1.772,0,0,0,.246-1.235" transform="translate(9.694 19.788)" fill="#010101"/>
      <path id="Trazado_245719" data-name="Trazado 245719" d="M16.85,23.3H14.507c.359.279.77.18,1.159.2s.786,0,1.179,0l0-.2" transform="translate(9.612 15.437)" fill="#fec8b5"/>
      <path id="Trazado_245720" data-name="Trazado 245720" d="M14.507,25.365H16.85a4.189,4.189,0,0,0-2.343,0" transform="translate(9.612 16.693)" fill="#fec5b2"/>
      <path id="Trazado_245721" data-name="Trazado 245721" d="M17.715,33.122h1.614a2.026,2.026,0,0,0-1.614,0" transform="translate(11.738 21.833)" fill="#fcc4b1"/>
      <path id="Trazado_245722" data-name="Trazado 245722" d="M38.04,24.591H21.778v.243H37.79v1.425a3.383,3.383,0,0,0,.249-1.668" transform="translate(14.43 16.293)" fill="#e18f23"/>
      <path id="Trazado_245723" data-name="Trazado 245723" d="M33.468,26.811H25.692a34.03,34.03,0,0,0,7.776,0" transform="translate(17.023 17.764)" fill="#df8d22"/>
      <path id="Trazado_245724" data-name="Trazado 245724" d="M32.084,33.616v-.243c-1.4,0-2.791,0-4.185,0-.178,0-.427-.088-.427.239Z" transform="translate(18.203 22.107)" fill="#fdc5b2"/>
      <path id="Trazado_245725" data-name="Trazado 245725" d="M15.7,37.338H14.036a1.63,1.63,0,0,0,1.659,0" transform="translate(9.3 24.739)" fill="#f0a293"/>
      <rect id="Rect치ngulo_37384" data-name="Rect치ngulo 37384" width="2.344" height="23.795" transform="translate(42.803 58.909)" fill="#3b485b"/>
      <path id="Trazado_245726" data-name="Trazado 245726" d="M37.464,59.407v-.243a1.519,1.519,0,0,1-.121-.944q-.007-10.734,0-21.467a1.519,1.519,0,0,1,.121-.944v-.243H34.917c-.185,1.072-.251,19.569-.083,23.842Z" transform="translate(23.016 23.565)" fill="#3b485b"/>
      <path id="Trazado_245727" data-name="Trazado 245727" d="M41.135,35.565H36.523V59.407h4.735c.226-.19.115-.451.115-.675q.01-11.123-.012-22.244c0-.294.294-.732-.226-.923" transform="translate(24.2 23.565)" fill="#526076"/>
      <path id="Trazado_245728" data-name="Trazado 245728" d="M36.5,35.713a.187.187,0,0,0-.238.193c-.015.243,0,.485,0,.728q0,10.756.017,21.512c0,.293-.294.73.226.921Z" transform="translate(23.98 23.659)" fill="#3a475a"/>
      <path id="Trazado_245729" data-name="Trazado 245729" d="M34.917,35.175h2.427V31.526a5.164,5.164,0,0,0-2.427,0Z" transform="translate(23.136 20.792)" fill="#f3ae9d"/>
      <path id="Trazado_245730" data-name="Trazado 245730" d="M35.013,31.565H37.44v-.243H34.772a1.4,1.4,0,0,0,.125.239c.017.02.076,0,.116,0" transform="translate(23.04 20.753)" fill="#f8b19f"/>
      <path id="Trazado_245731" data-name="Trazado 245731" d="M36.523,31.468v3.649h4.565a11.336,11.336,0,0,0,.043-1.764c.013-.6,0-1.2,0-1.885Z" transform="translate(24.2 20.85)" fill="#f7c0ae"/>
      <path id="Trazado_245732" data-name="Trazado 245732" d="M41.042,59.007V35.737H36.808c-.176,1.029-.243,19.1-.076,23.27Z" transform="translate(24.274 23.679)" fill="#515f75"/>
    </g>
  </g>
</svg>
