<svg xmlns="http://www.w3.org/2000/svg" xmlns:xlink="http://www.w3.org/1999/xlink" width="295" height="292" viewBox="0 0 295 292">
  <defs>
    <clipPath id="clip-path">
      <rect id="Rect치ngulo_37361" data-name="Rect치ngulo 37361" width="83.409" height="130.98" fill="none"/>
    </clipPath>
  </defs>
  <g id="Grupo_849914" data-name="Grupo 849914" transform="translate(-915 -12420)">
    <rect id="Rect치ngulo_37356" data-name="Rect치ngulo 37356" width="295" height="292" rx="10" transform="translate(915 12420)" fill="#ffb840"/>
    <g id="Grupo_754507" data-name="Grupo 754507" transform="translate(1021 12501)">
      <g id="Grupo_754506" data-name="Grupo 754506" clip-path="url(#clip-path)">
        <path id="Trazado_245455" data-name="Trazado 245455" d="M24,64.258c-7.261.794-13.685,3.335-18.394,9.329A27.145,27.145,0,0,0,0,90.179c1.021,1.891.493,4.1,1.346,6.087a48.231,48.231,0,0,0,2.574,5.581,20.691,20.691,0,0,0,4.009,4.972,26.964,26.964,0,0,0,5.315,3.8,23.27,23.27,0,0,0,5.748,2.149,22.827,22.827,0,0,0,6.351.727c2.1-.111,4.119-.641,6.194-.951a1.117,1.117,0,0,1,.108,1.189c-1.181,2.048-1.285,4.413-1.907,6.613-.228.8-.83,1.587-.638,2.579a12.91,12.91,0,0,1,.031,2.549,16.4,16.4,0,0,0,2.912,9.008,17.928,17.928,0,0,0,10.245,7.788,14.467,14.467,0,0,0,8.625.375,8.159,8.159,0,0,1,1.822-.019,8.175,8.175,0,0,1,1.844-1c2.394-.523,4.1-2.166,5.921-3.582a16.4,16.4,0,0,0,2.878-3.646c1.275-1.764,1.552-3.957,2.518-5.861.24-.474.035-1.174.035-1.771,0-1.533-.355-3.183.1-4.568a14.719,14.719,0,0,0,.4-4.166c.072-1.53.006-3.066.02-4.6.009-.977.692-1.8.545-2.86a5.711,5.711,0,0,1,.379-2.626,21.527,21.527,0,0,0,.521-3.857A59.962,59.962,0,0,1,70.667,93.21a87.89,87.89,0,0,0,2.76-8.548c.37-1.636,1-3.333.682-5.1,1.024-3.034.3-6.164.5-9.244a7.035,7.035,0,0,0-.463-3.126c-.38-.959.44-2.193-.551-3.094.409-1.959-1.168-3.545-1.022-5.454-1.294-2.531-2.095-5.317-3.887-7.588-1.266-1.6-2.218-3.478-3.8-4.8a43.01,43.01,0,0,0-5.066-3.8A18.226,18.226,0,0,0,54.472,40c-1.792-.4-3.593-.86-5.391-1.247-3.771-.812-7.543-.418-11.3-.36a14.819,14.819,0,0,0-6.108,1.209c-2.2,1.035-4.41,2.074-6.009,3.981-2.248,2.683-4.151,5.554-4.194,9.243-.01.83-.76,1.448-.531,2.346a48.791,48.791,0,0,0,1.912,6.876c.321.771,1.307,1.109,1.146,2.2" transform="translate(0 -12.151)"/>
        <path id="Trazado_245456" data-name="Trazado 245456" d="M59.065,18.41a7.793,7.793,0,0,0,4.48,4.725c2.143.879,4.162.252,6.34-.16.3,1-.046,2.09.671,2.865A14.581,14.581,0,0,0,72.7,28c.686.481,1.67.524,2.394.97.97.6,1.989-.009,3.008.36-.712,1.194-.258,2.5-.389,3.533.93,1.956,1.773,3.744,4.283,4.558.511,0,1.526.018,2.541,0a5.073,5.073,0,0,0,4.892-4.389c.1-.661.916-1.039.555-1.833a20.083,20.083,0,0,0-1.192-2.82,6.708,6.708,0,0,0-2.168-2.127,2.647,2.647,0,0,0-1.795-.611,11.876,11.876,0,0,1-2.02.024c1.048-3.2.886-6.123-1.492-8.3-2.035-1.868-4.6-2.715-7.48-1.314-.422-.83-.085-1.695-.217-2.306C70.6,6.989,64.249,7.272,61.036,10.352a10.033,10.033,0,0,0-7.423-6.974c-3.977-.97-6.853,1.148-9.416,3.875-1.706-3.8-4.806-5.887-8.557-7A11.711,11.711,0,0,0,30.69.3a10.614,10.614,0,0,0-5.87,3.015A10.408,10.408,0,0,0,21.4,9.023a19.371,19.371,0,0,0-.418,3.637,11.821,11.821,0,0,0,4.954,9.375c1.713,1.3,3.693,2.4,6.017,2.05.55-.082.787.729,1.224.32.536-.5,1.122-.213,1.681-.273a11.242,11.242,0,0,1,1.352-.012,13.959,13.959,0,0,0,7.937-6.926c.769,2.317,2.614,2.974,4.243,3.836a8.275,8.275,0,0,0,5.875.4,7.843,7.843,0,0,0,4.8-3.021" transform="translate(-6.665 0)"/>
        <path id="Trazado_245457" data-name="Trazado 245457" d="M39.247,66.084c9.4,1.011,17.316,8.639,20.2,17.78.959,6.757,1.049,11.4-2.085,17.357a24.437,24.437,0,0,1-11.606,11.113c-1,1.514-1.029,3.59-1.54,5.481-.433,1.6-.958,3.216-1.327,4.851a13.5,13.5,0,0,0-.267,3.172c.009.95-.512,2.044.437,2.868a11.494,11.494,0,0,0,2.579,6.342,15.355,15.355,0,0,0,9.473,6.286,32.569,32.569,0,0,0,3.631.459c2.1.227,3.99-.648,5.95-1.092a10.105,10.105,0,0,0,2.444-1.477c3.931-2.295,5.87-5.983,7.126-10.153a1.5,1.5,0,0,0,0-.509c-.267-4.205.837-8.349.532-12.563-.156-2.152.845-4.244.491-6.429.753-.941.209-2.157.582-3.081a22.9,22.9,0,0,0,.477-2.872c.933-3.278,1.585-6.631,2.709-9.858.648-1.86,1.476-3.648,2.069-5.537.282-.9.033-1.981.807-2.724.026-2.458,1.048-4.773,1.027-7.241-.022-2.555.173-5.126-.056-7.659a46.144,46.144,0,0,0-1.281-7.116A33.942,33.942,0,0,0,76.7,52.511a22.227,22.227,0,0,0-9.9-7.967,42.657,42.657,0,0,0-6.836-2.011c-3.59-.838-7.193-.426-10.778-.39A24.725,24.725,0,0,0,44.227,43,10.976,10.976,0,0,0,39.8,45.24,12.443,12.443,0,0,0,34.927,53.9c-.094.952-1.04,1.908-.4,2.789.659.9.063,1.857.419,2.65a20.08,20.08,0,0,0,2.79,5.229c.446.512.957.968,1.509,1.52" transform="translate(-10.898 -13.345)" fill="#86d047"/>
        <path id="Trazado_245458" data-name="Trazado 245458" d="M47.686,101.861c.525-4.547-1.493-8.849-4.222-12.617A20.644,20.644,0,0,0,32.27,81.285a20.4,20.4,0,0,0-8.758-.946,25.772,25.772,0,0,0-6.153,1.751,22.476,22.476,0,0,0-7.022,4.615,23.706,23.706,0,0,0-5.564,9.442A5.849,5.849,0,0,0,4.262,99.5c.232.914-.663,1.466-.548,2.349.414,3.186.676,6.417,2.093,9.354a21.057,21.057,0,0,0,5.416,7.446,18.7,18.7,0,0,0,5.907,3.6c5.936,1.964,5.923,2.308,10.144,1.93,4.86-.435,9.4-2,12.994-5.562a21.542,21.542,0,0,0,4.933-6.381c2.172-4.813,2.486-5.438,2.486-10.376" transform="translate(-1.177 -25.468)" fill="#8f4cf4"/>
        <path id="Trazado_245459" data-name="Trazado 245459" d="M34.178,23.183c.8-.929,1.992-.132,2.463-.285,3.38-1.46,5.693-3.471,6.7-6.415a9.823,9.823,0,0,0-.051-5.937c-1.352-4.364-5.217-7.113-10.33-6.659-3.776.335-7.281,3.536-8.245,7.573a8.167,8.167,0,0,0,.585,5.575,11.648,11.648,0,0,0,3.666,4.38c1.64,1.178,3.522,1.005,5.211,1.768" transform="translate(-7.775 -1.219)" fill="#86d047"/>
        <path id="Trazado_245460" data-name="Trazado 245460" d="M65.2,21.618c3.5-1.064,4.328-3.822,5.006-6.69-.774-1.292-.6-2.907-1.78-4.146a9.773,9.773,0,0,0-4.143-2.4c-1.51-.52-3.057.278-4.383,1A6.872,6.872,0,0,0,56.916,12.9c0,.764.058,1.786-.011,2.8a5.884,5.884,0,0,0,6,5.93c.762-.053,1.531-.008,2.3-.008" transform="translate(-18.073 -2.611)" fill="#b1e16c"/>
        <path id="Trazado_245461" data-name="Trazado 245461" d="M80.146,19.4V22.51a8,8,0,0,0,2.327,3.033c1.389-.052,2.772,1.286,4.155,0,1.893.066,2.282-1.6,3.187-2.784V19.171a7.846,7.846,0,0,0-2.191-2.766c-.94.2-1.625-.568-2.551-.639-.989-.076-1.625.921-2.588.575A7.8,7.8,0,0,0,80.146,19.4" transform="translate(-25.459 -5.007)" fill="#86d046"/>
        <path id="Trazado_245462" data-name="Trazado 245462" d="M103.541,33.593c.007-.527.654-.862,1.076-1.35,0-1.544.457-3.311-.892-4.422-1.218-1-2.668-1.92-4.653-1.306a6.588,6.588,0,0,0-2.24,1.7,4.657,4.657,0,0,0-.318,4.4,6.293,6.293,0,0,0,2.737,2.322c1.512.422,2.814-.235,4.29-1.348" transform="translate(-30.527 -8.359)" fill="#b0df6c"/>
        <path id="Trazado_245463" data-name="Trazado 245463" d="M110.433,41.344a3.838,3.838,0,0,0-2.69,2.879c-.22,1.221.47,2.624,1.885,3.76h2.994a7,7,0,0,0,2.341-3.045c-.525-1.356-.933-2.788-2.423-3.593Z" transform="translate(-34.212 -13.133)" fill="#85ce46"/>
        <path id="Trazado_245464" data-name="Trazado 245464" d="M40.4,100.69a7.012,7.012,0,0,0-2.268-3.044H32.921c-.521.521-1.064,1.063-1.6,1.606a24,24,0,0,0,.055,11.558,5.1,5.1,0,0,0,2.337,1.564c2.463.074,5.365.622,6.69-3.075Z" transform="translate(-9.732 -31.018)" fill="#030301"/>
        <path id="Trazado_245465" data-name="Trazado 245465" d="M16.749,100.91l.744-.744h3.06a1.529,1.529,0,0,1,.768,1.8,3.551,3.551,0,0,0,1.836.206c.215-.347.715-.474.753-.944-.433-1.725-.507-1.845-2.224-3.563H16.412l-1.54,1.54c-1.163,3.013-.656,6.138-.621,9.2a3.813,3.813,0,0,0,3.154,3.951c4.8.181,4.8.181,6.5-3.482,0-.085.037-.2-.005-.25-.4-.437-.812-.862-1.219-1.288-.362.157-.549.677-1.079.465-.54.525.092,1.606-1.174,1.989H17.454a4.633,4.633,0,0,1-.719-3.006c.048-1.958.014-3.918.014-5.877" transform="translate(-4.482 -31.025)" fill="#030301"/>
        <path id="Trazado_245466" data-name="Trazado 245466" d="M53.443,124.926c.826-1.228.828-1.23-.062-2.44H50.806c-.49-.424-.19-.882-.3-1.3.734-.553,1.618-.061,2.385-.331l1.142-1.143V115.49l-.7-.7H48.768c-.974,1.183-.974,1.183-.112,2.506h2.525a.72.72,0,0,1,.36.774c-.444.592-1.084.17-1.527.276l-2,2.115V124.3l.623.623Z" transform="translate(-15.254 -36.465)" fill="#030201"/>
        <path id="Trazado_245467" data-name="Trazado 245467" d="M34.9,101.427a21.549,21.549,0,0,0-.013,9.58h3.4a1.766,1.766,0,0,0,.753-1.554c-.045-2.464-.018-4.929-.018-7.35l-.677-.677Z" transform="translate(-10.912 -32.219)" fill="#8f4cf4"/>
      </g>
    </g>
  </g>
</svg>
