<svg xmlns="http://www.w3.org/2000/svg" xmlns:xlink="http://www.w3.org/1999/xlink" width="295" height="292" viewBox="0 0 295 292">
  <defs>
    <clipPath id="clip-path">
      <rect id="Rect치ngulo_37360" data-name="Rect치ngulo 37360" width="125" height="120.071" fill="none"/>
    </clipPath>
  </defs>
  <g id="Grupo_849915" data-name="Grupo 849915" transform="translate(1912 -714)">
    <rect id="Rect치ngulo_37354" data-name="Rect치ngulo 37354" width="295" height="292" rx="10" transform="translate(-1912 714)" fill="#9fbe37"/>
    <g id="Grupo_754504" data-name="Grupo 754504" transform="translate(-1827 808.576)">
      <g id="Grupo_754503" data-name="Grupo 754503" transform="translate(0 0)" clip-path="url(#clip-path)">
        <path id="Trazado_245447" data-name="Trazado 245447" d="M125,62.038a90.56,90.56,0,0,0-33.015,5.045c-.769-5.685-3.088-10.657-5.5-15.665a59.639,59.639,0,0,0,19.427-4.662c.189-2.913-.885-5.507-1.727-8.117a60.894,60.894,0,0,0-3.236-8.162c-1.6-3.257-3.371-6.422-5.273-9.514-.529-.862-1.278-1.543-1.861-2.383a45,45,0,0,0-7.047-7.559C83,7.619,78.481,5.339,73.978,3.068c-2.709-.443-5.15-1.966-7.967-1.97C64.649.187,63,1.025,61.643.449,60.055-.226,58.474.26,56.9.146a17.249,17.249,0,0,0-4.624.028C48.96.85,45.485.642,42.3,2c-1.975-.1-3.715.877-5.588,1.257A34.613,34.613,0,0,0,31.593,5c-1.76.657-3.5,1.377-5.361,2.114a61.407,61.407,0,0,0,5.277,10.575,4.432,4.432,0,0,1,.221.4,57.532,57.532,0,0,0,5.451,8.229,45.4,45.4,0,0,0,5.2,6.126,4.655,4.655,0,0,1,1.117,2.08c-2.336,5.066-4.506,10.268-7.112,15.315A63.551,63.551,0,0,0,15.7,31.753c-1.5.572-1.981,2.069-2.812,3.13A68.713,68.713,0,0,0,6.128,45.953a44.846,44.846,0,0,0-2.415,5.818,58.561,58.561,0,0,0-1.822,5.838c-.6,2.55-1.012,5.118-1.51,7.673-.6,3.06-.125,6.063-.38,9.078.666,1.42.138,3.042.58,4.4.449,1.382.61,2.812,1.072,4.177s.9,2.716,1.328,4.084a27.444,27.444,0,0,0,1.9,3.84,46.353,46.353,0,0,0,6.57,9.729,47.863,47.863,0,0,0,4.2,4.568,88.872,88.872,0,0,0,11.63,9.009c1.919,1.216,3.9,2.34,5.915,3.39.561.294.851.943,1.715,1.128,4.233-6.8,6.517-14.34,8.693-22.044a22.333,22.333,0,0,0,6.577,3.354c2.344.673,4.624,1.826,7.363,1.461-.041.952.447,1.876-.387,2.694-.1,2.013-1.031,3.893-.99,5.915.019.967-.642,1.73-.55,2.724a4.256,4.256,0,0,1-.385,2.757c-.35.6-.067,1.566-.067,2.406,2.106.4,4.119.87,6.177,1.2,1.414.228,2.86.086,4.194.432,3.425.885,6.882.142,10.3.471,1.235.118,2.288-.486,3.461-.524a19.331,19.331,0,0,0,3.236-.376c1.577-.318,3.137-.673,4.712-1.021a43.641,43.641,0,0,0,11.424-4.254,33.921,33.921,0,0,0,7.8-5.335c.842-.819,1.921-1.349,2.733-2.237a52.924,52.924,0,0,0,8.975-13.1,44.973,44.973,0,0,0,3.18-7.933c.6-2.351,1.562-4.622,1.762-7.114a10.1,10.1,0,0,1,.464-2.946c.421-1.021.172-2.05.46-2.98.584-1.878.11-3.837.535-5.638A29.773,29.773,0,0,0,125,62.038" transform="translate(0 0.001)"/>
        <path id="Trazado_245448" data-name="Trazado 245448" d="M42.3,4.346a9.155,9.155,0,0,0-2.125,3.721c-.458,1.111-.986,2.189-1.478,3.285q-2.868,6.368-5.8,12.7c-1.386,2.989-2.765,6-4.065,9.03-2.608,6.076-5.556,11.991-8.4,17.958-.773,1.622-1.36,3.335-2.091,4.978-.737,1.661-.922,3.5-1.71,5.137a.419.419,0,0,0-.015.236c.329,1.53-.645,2.965-.447,4.42a42.723,42.723,0,0,0,1.345,7.7A26.214,26.214,0,0,0,31.576,89.63a17.263,17.263,0,0,0,7.943,2c.879-.039,1.558.623,2.484.52A46.508,46.508,0,0,0,50.43,90.7a26.613,26.613,0,0,0,7.325-3.491A41.214,41.214,0,0,0,61.437,83.7c3.1-2.746,4.811-6.338,6.162-10.12A17.187,17.187,0,0,0,68.409,70a19.732,19.732,0,0,0,.43-4.433,35.49,35.49,0,0,0-2.83-11.25c-1.343-3.025-2.971-5.913-4.192-8.979-1.394-3.5-3.378-6.716-4.849-10.171-1.768-4.153-4.072-8.055-5.831-12.2-1.472-3.468-3.352-6.723-4.877-10.158-1.248-2.815-2.606-5.58-3.96-8.463" transform="translate(18.538 4.993)" fill="#94d5df"/>
        <path id="Trazado_245449" data-name="Trazado 245449" d="M30.4,90.556a83.923,83.923,0,0,0,6.149-18.51c-2.232-2.9-4.652-5.52-6.166-8.777a36.821,36.821,0,0,1-2.226-6.635,27.344,27.344,0,0,1-.954-8.126,40.062,40.062,0,0,1,1.147-6.594,31.974,31.974,0,0,1,2.555-6.981,1.939,1.939,0,0,0-.269-2.164A53.562,53.562,0,0,0,22.3,23.093a40.212,40.212,0,0,0-6.13-4.65c-.41.559-.176,1.225-.183,1.839-.03,3.249.131,6.506-.054,9.742-.191,3.38.681,6.673.526,10.032-.037.793.593,1.384.539,2.239a3.572,3.572,0,0,0,.256,2.559c.462.666-.028,1.6.206,2.344,1.306,4.091,1.631,8.487,3.788,12.316.26.464-.159,1.169.572,1.508-.767.361-.288,1.139-.565,1.584a4.281,4.281,0,0,1-2,1.147c-2.153-.161-2.63-1.932-3.251-3.423-.634-1.525-.907-3.2-1.525-4.729-.627-1.556-.481-3.324-1.435-4.766.324-1.375-.739-2.6-.468-3.936.187-.935-.709-1.534-.55-2.488a2.6,2.6,0,0,0-.436-2.482c-.082-.082-.009-.314-.011-.477-.069-3.509-.7-6.985-.518-10.517.144-2.821.03-5.653.03-8.867a5.261,5.261,0,0,0-1.023,1.44c-1.031,2.179-2.424,4.2-3.32,6.424a53.386,53.386,0,0,0-2.5,7.251c-.417,1.717-1.158,3.371-.973,5.2-.881,1.225-.041,2.763-.567,3.9-.6,1.289-.284,2.5-.389,3.734a4.209,4.209,0,0,0,.157,2.348c.511.816.228,1.56.292,2.323.067.778.365,1.538.428,2.239a21.911,21.911,0,0,0,1.551,5.962,39.823,39.823,0,0,0,2.265,4.918A46.284,46.284,0,0,0,10.1,72.864a27.206,27.206,0,0,0,2.662,3.524q2.34,2.314,4.66,4.65A60.422,60.422,0,0,0,27.217,88.6c1.016.668,2.073,1.274,3.184,1.953" transform="translate(2.575 21.184)" fill="#9dd22b"/>
        <path id="Trazado_245450" data-name="Trazado 245450" d="M87.038,31.2c-1.618-.316-2.881.642-4.359.473a5.888,5.888,0,0,0-3.953.4c-.3.183-.8.032-1.2.026a24.392,24.392,0,0,0-4.77.829c-1.659.3-3.281.739-4.922,1.066-1.429.284-2.8.75-4.209,1.076a25.267,25.267,0,0,0-3.777,1.51,39.439,39.439,0,0,1-2.559,10.627,31.075,31.075,0,0,1-8.478,11.572,29.956,29.956,0,0,1-8.607,5.1c-1.846.711-3.809.945-5.606,1.779-.6.279-1.446-.013-2.157.1-.587.095-1.055.7-1.848.421-1.156,2.933-1.5,6.042-2.254,8.96a1.182,1.182,0,0,0,1.491.2c2.421-1.564,5.234-2.3,7.728-3.73,3.021-1.73,6.065-3.429,9.1-5.133,2.817-1.581,5.322-3.58,8-5.326a21.655,21.655,0,0,0,3.833-3.176c1.9-2,3.9-3.917,5.859-5.876h2.473L68,53.392v1.687a23.113,23.113,0,0,1-5.331,5.941,94.349,94.349,0,0,1-13.291,9.649c-3.861,2.254-7.713,4.506-11.684,6.555-1.064.55-2.219.915-3.835,1.568a26.138,26.138,0,0,1,4.018.567,10.838,10.838,0,0,0,3.642-.026c1.891-.473,3.842-.1,5.649-.509,2.6-.589,5.24-.87,7.825-1.657a61.84,61.84,0,0,0,9.011-3.6,29.721,29.721,0,0,0,4.448-2.754,37.132,37.132,0,0,0,4.009-3.358,42.6,42.6,0,0,0,8.76-12.468,52.557,52.557,0,0,0,3.9-11.546A55.993,55.993,0,0,0,86.66,34.8c.067-1.117.41-2.275.378-3.592" transform="translate(32.545 35.767)" fill="#9dd22b"/>
        <path id="Trazado_245451" data-name="Trazado 245451" d="M63.316,33.942a50.044,50.044,0,0,0-5.687-11.847,58.513,58.513,0,0,0-5.805-7.357A43.131,43.131,0,0,0,43.9,7.983a46.017,46.017,0,0,0-6.667-3.277c-1.96-.877-4.074-1.122-6.044-1.884a.808.808,0,0,0-1,.32c2.361,4.342,4.031,9.093,6.723,13.751,1.218.563,2.8,1.257,4.34,2.018a47.067,47.067,0,0,1,4.5,2.636c1.541.988,3.139,1.917,4.656,2.959,1.446.99,2.858,2.056,4.319,3.034,1.476.988,2.877,2.127,4.316,3.171s2.572,2.477,4.278,3.231" transform="translate(34.672 3.169)" fill="#9dd22b"/>
        <path id="Trazado_245452" data-name="Trazado 245452" d="M15.419,7.506a59.221,59.221,0,0,0,5.333,9.512,76.195,76.195,0,0,0,7.159,9.2c.892.071.694-.5.834-.8C30.352,21.949,31.989,18.5,33.536,15c1.672-3.766,3.292-7.557,5.185-11.218a1.675,1.675,0,0,0,.028-1.465c-1.18.234-2.46-.432-3.623.492-.2.157-.64.067-.956.015-1.925-.324-3.726.728-5.638.494-1.532.941-3.494.41-4.991,1.461-2.568.064-4.789,1.39-7.217,1.975-.335.079-.593.481-.9.748" transform="translate(17.71 2.649)" fill="#9dd22b"/>
        <path id="Trazado_245453" data-name="Trazado 245453" d="M34.852,12.682c3.311,6.56,5.939,12.922,9.409,19.178a23.557,23.557,0,0,0,2.591-.021c.909-.09,1.807.26,2.765-.4.752-.514,1.919.159,2.961-.477.681-.417,1.779-.294,2.688-.468s1.706-.78,2.967-.632c-2.262-2.568-4.961-4.3-7.352-6.345a83.955,83.955,0,0,0-7.81-5.769c-2.531-1.708-5.2-3.216-8.218-5.068" transform="translate(40.03 14.567)" fill="#9dd22b"/>
        <path id="Trazado_245454" data-name="Trazado 245454" d="M44.426,31.233c-.415-.376-.834-.754-1.317-1.19a3.391,3.391,0,0,0-3.049.853c-.251.617-1.162,1.586-.088,2.742.367,5.4-.432,10.423-4.57,14.413-.425.41-1.012.393-1.382.834s-.795.81-1.27,1.283v2.095c.475.471.993.988,1.571,1.568H35.8a16.935,16.935,0,0,0,4.2-3.6,17.214,17.214,0,0,0,4.484-8.874c.556-2.731.159-5.408.41-8.1.064-.735-.872-1.195-.466-2.028" transform="translate(37.617 34.45)"/>
      </g>
    </g>
  </g>
</svg>
