<svg id="Grupo_754520" data-name="Grupo 754520" xmlns="http://www.w3.org/2000/svg" xmlns:xlink="http://www.w3.org/1999/xlink" width="86.995" height="87" viewBox="0 0 86.995 87">
  <defs>
    <clipPath id="clip-path">
      <rect id="Rectángulo_37379" data-name="Rectángulo 37379" width="86.995" height="87" fill="none"/>
    </clipPath>
  </defs>
  <g id="Grupo_754520-2" data-name="Grupo 754520" clip-path="url(#clip-path)">
    <path id="Trazado_245491" data-name="Trazado 245491" d="M3.062,31.532V34.25A8.338,8.338,0,0,1,4.2,39.272q-.039,28.88-.015,57.761c0,4.178.221,4.4,4.425,4.4q36.6,0,73.2,0c4.2,0,4.381-.19,4.381-4.43q0-31.09-.007-62.178c0-1.115.181-2.276-.481-3.275a3.367,3.367,0,0,0-2.444-.585q-38.892-.019-77.783,0a3.065,3.065,0,0,0-2.408.57" transform="translate(-1.674 -16.917)" fill="#d8dce2"/>
    <path id="Trazado_245492" data-name="Trazado 245492" d="M1.388,14.615H83.752c.267,1.465.375,63.138.121,68.866l-.406.406H3.551l-.464-.464q0-31.67.018-63.354a3.235,3.235,0,0,0-1.081-2.621c-.211-.189-.427-.068-.635-.114-.341.357-.965.233-1.231.738-.26.4-.119.856-.119,1.289Q.024,50.705.013,82.051c0,2.258.788,3.867,2.967,4.67.1.035.162.155.277.269H6.1q38.045,0,76.089.01a4.341,4.341,0,0,0,4.537-2.925,2.4,2.4,0,0,0,.268-.908c0-.283,0-.566,0-.849q0-38.821.006-77.642A4.229,4.229,0,0,0,84.1.3a2.179,2.179,0,0,0-.9-.3c-.339.014-.679,0-1.019,0H3.378c-.416.227-.832.452-1.247.68A3.813,3.813,0,0,0,.05,4.094c-.068,3.112-.021,6.227.02,9.3a1.756,1.756,0,0,0,1.318,1.223" transform="translate(0 0)" fill="#373737"/>
    <path id="Trazado_245493" data-name="Trazado 245493" d="M72.872,91.031,71.545,89.7a9.118,9.118,0,0,0-4.375-.538q-13.155-.012-26.311,0a8.529,8.529,0,0,0-3.984.514l-1.363,1.493v4.968l-.563.5c-3.751,0-7.593,0-11.434,0a3.918,3.918,0,0,0-3.972,3.94c0,6.45,0,12.9,0,19.309.217.361.51.59.717.933a3.847,3.847,0,0,0,2.449,1.7c1.536.426,3.073.121,4.929.373l-.951.545V124.7l.9.806a2.307,2.307,0,0,0,2.107-.791q.948-.973,1.92-1.922a2.5,2.5,0,0,0,.83-2.205l-3.518-3.519H27.473l-.8.989v.8l.749.834h-4.37a2.835,2.835,0,0,1-.807-2.334c.024-5.6.012-11.206.012-16.789l1.217-1.209H35l.507.507c0,1.331.056,2.689-.016,4.04a2.391,2.391,0,0,0,1.54,2.548,1.6,1.6,0,0,1,.683.378q15.884,0,31.752.008a4.377,4.377,0,0,0,2.023-.457,2.292,2.292,0,0,0,1.392-2.3c-.018-4.356-.007-8.711-.007-13.049" transform="translate(-10.681 -48.723)" fill="#373737"/>
    <path id="Trazado_245494" data-name="Trazado 245494" d="M56.963,38.227c-.18.409-.65.441-.955.562a1.91,1.91,0,0,0-1.254,2.031c0,4.411,0,8.824,0,13.207l1.5,1.5H90.44L92.1,53.86c.21-1.652-.3-3.568.319-5.438,3.817,0,7.488.03,11.156-.032.571-.01.847.5,1.306.384a2.884,2.884,0,0,1,.49,2.089c0,5.208-.015,10.417.011,15.626a4.294,4.294,0,0,1-.422,1.878,3.1,3.1,0,0,1-2.185.442c-.788,0-1.576,0-2.624,0l.731-.793a2.288,2.288,0,0,0-.347-1.813L99.5,65.71c-1.7.956-2.816,2.62-4.3,3.889v.958L99.246,74.6c.556.064,1.049-.385,1.594-.667.354-.936-.146-1.591-.608-2.409,1.412,0,2.754.018,4.1,0a3.825,3.825,0,0,0,3.753-3.816c.01-6.341,0-12.682,0-18.835a4.3,4.3,0,0,0-2.9-3.171H92.627l-.507-.508c0-1.33-.057-2.688.016-4.04A2.392,2.392,0,0,0,90.6,38.605a1.642,1.642,0,0,1-.684-.378Z" transform="translate(-29.927 -20.894)" fill="#373737"/>
    <path id="Trazado_245495" data-name="Trazado 245495" d="M56.866,140.894a4.674,4.674,0,0,0-2.014,1.51v13.832a2.864,2.864,0,0,0,2.137,1.958H90.271c.75-.417,1.623-.788,1.888-1.811V142.447a4.717,4.717,0,0,0-2.023-1.553Z" transform="translate(-29.981 -77.01)" fill="#373737"/>
    <path id="Trazado_245496" data-name="Trazado 245496" d="M25.464,47.967l-.809.81A2.787,2.787,0,0,0,25.337,51h-8.63c-.58.413-.632.944-.925,1.323-.108.378.51.474.339.877a2.9,2.9,0,0,0,1.955.559c2.365-.031,4.732-.012,7.136-.012.029.442-.429.482-.558.769V55.99c.236.5.885.4,1.231.871,1.884-.848,2.937-2.657,4.482-3.892v-.983l-3.832-3.833c-.293-.3-.693-.137-1.071-.185" transform="translate(-8.619 -26.217)" fill="#373737"/>
    <path id="Trazado_245497" data-name="Trazado 245497" d="M7.365,6.748l-.471.472V15.2H87.569a.245.245,0,0,0,.07-.066.274.274,0,0,0,.058-.144c0-2.6,0-5.191,0-7.757-.28-.176-.372-.5-.719-.485-.452.017-.905,0-1.358,0Z" transform="translate(-3.768 -3.686)" fill="#516f7c"/>
    <path id="Trazado_245498" data-name="Trazado 245498" d="M60.875,107.364H92.689V96c-1.424-.244-26.214-.336-31.814-.106Z" transform="translate(-33.273 -52.341)" fill="#f9b96b"/>
    <path id="Trazado_245499" data-name="Trazado 245499" d="M60.878,56.4H92.69V45.039c-1.428-.252-25.8-.347-31.812-.112Z" transform="translate(-33.275 -24.482)" fill="#4cb698"/>
    <path id="Trazado_245500" data-name="Trazado 245500" d="M92.647,158.445V147.008H60.866c.024-.021-.024.01-.056.053a.266.266,0,0,0-.06.143c0,3.728,0,7.456,0,11.241Z" transform="translate(-33.203 -80.348)" fill="#eb5e69"/>
    <path id="Trazado_245501" data-name="Trazado 245501" d="M160.587,12.735c-3.794,0-7.53,0-11.265,0-.648,0-1.334-.164-1.965.6-.042.2-.516.509-.453,1.085.2.735.944.932,1.585,1.355h11.852l1.154-1.272v-.948l-.909-.823" transform="translate(-80.292 -6.955)" fill="#373838"/>
    <path id="Trazado_245502" data-name="Trazado 245502" d="M17.21,14.641c.305-.659-.347-.908-.261-1.365-1.089-.528-1.089-.528-3.275-.528l-.726,1.029a2.548,2.548,0,0,0,.3,1.555c.191.294.774-.087.73.446,1.4.163,2.57-.04,3.232-1.137" transform="translate(-7.068 -6.968)" fill="#383939"/>
    <path id="Trazado_245503" data-name="Trazado 245503" d="M31.978,12.733c-.993.054-2.054-.211-3.01.439l-.437.944a2.176,2.176,0,0,0,1.559,1.63,2.718,2.718,0,0,0,2.788-.741V13.5l-.9-.767" transform="translate(-15.594 -6.954)" fill="#383839"/>
    <path id="Trazado_245504" data-name="Trazado 245504" d="M47.787,15.846c.8-.343,1.491-.6,1.55-1.488a2.45,2.45,0,0,0-1.025-1.523H45.841l-.727,1.079v1.137a2.923,2.923,0,0,0,2.673.8" transform="translate(-24.658 -7.015)" fill="#373839"/>
    <path id="Trazado_245505" data-name="Trazado 245505" d="M68.3,105.432h9.864c.186-.255.5-.384.543-.795.032-.278.467-.481.329-.749-.074-.645-.634-.751-.789-1.142H67.965c-.766.514-.427,1.233-.479,1.787l.818.9" transform="translate(-36.87 -56.159)" fill="#373737"/>
    <path id="Trazado_245506" data-name="Trazado 245506" d="M68.493,54.009h9.466c.364-.6,1.336-.836,1.156-1.887l-1.278-1.171c-2.609,0-5.325.022-8.039-.013a2.79,2.79,0,0,0-2.154.78v1.522l.849.769" transform="translate(-36.973 -27.841)" fill="#373938"/>
    <path id="Trazado_245507" data-name="Trazado 245507" d="M78.227,153.6c-3.006,0-6.052.031-9.1-.026-.605-.012-.985.4-1.554.409v1.865l.415.415H78.31c.4-.261.516-.816.783-1.285-.288-.439-.372-1.005-.865-1.378" transform="translate(-36.936 -83.941)" fill="#373737"/>
  </g>
</svg>
