<svg xmlns="http://www.w3.org/2000/svg" xmlns:xlink="http://www.w3.org/1999/xlink" width="78.498" height="78.361" viewBox="0 0 78.498 78.361">
  <defs>
    <clipPath id="clip-path">
      <rect id="Rectángulo_37382" data-name="Rectángulo 37382" width="78.498" height="78.361" fill="none"/>
    </clipPath>
  </defs>
  <g id="Grupo_754522" data-name="Grupo 754522" transform="translate(0 0)">
    <g id="Grupo_754521" data-name="Grupo 754521" transform="translate(0 0)" clip-path="url(#clip-path)">
      <path id="Trazado_245508" data-name="Trazado 245508" d="M41.473,41.508l.843.842H66.059c.24-.252.494-.516.779-.816,0-2.584.012-5.214,0-7.844a5.632,5.632,0,0,0-2.283-3.974c-1.938-1.246-1.938-1.246-4.517-1.279-.474-.475-1.237-.458-1.726-1.1.516-.516,1.064-1.032,1.577-1.582a6.743,6.743,0,0,0,1.887-4.587c.02-.9-.017-1.791.007-2.685.093-3.264-1.806-5.326-4.248-7.063-1.012-.007-1.829-.752-2.893-.685a10.218,10.218,0,0,0-2.858.378A9.944,9.944,0,0,0,47.252,15c-.039,1.054-.835,1.925-.679,3.046a11.671,11.671,0,0,1,.012,2.208,7.349,7.349,0,0,0,2.586,6.2c.315.281.6.593.893.887-.247.526-.912.4-1.237,1.047a6.124,6.124,0,0,0-6.438-3.712c-.507-.475-1.3-.491-1.774-1.089.71-.983,1.817-1.617,2.393-2.744a10.811,10.811,0,0,0,1.051-3.2c0-1.054,0-2.107,0-3.159a7.183,7.183,0,0,0-1.233-3.921A13.52,13.52,0,0,0,39.777,7.6c-.97.031-1.745-.725-2.744-.644a12.071,12.071,0,0,0-2.723.307c-2.171.675-3.521,2.271-4.8,3.979.012,1.064-.808,1.937-.653,3.059a9.891,9.891,0,0,1,0,2.364,7.363,7.363,0,0,0,.672,3.523,5.878,5.878,0,0,0,1.077,1.6c.539.625,1.16,1.181,1.772,1.791a4.991,4.991,0,0,1-2.933,1.109,5.042,5.042,0,0,0-4.5,2.441,3.421,3.421,0,0,0-.664,1.064,3.327,3.327,0,0,1-1.406-.832A18.455,18.455,0,0,0,25.321,24.6a10.7,10.7,0,0,0,1.021-3.053c.006-.948-.076-1.9.02-2.841a11.927,11.927,0,0,0-.641-3.534c-.084-.442-.461-.669-.68-.973a7.532,7.532,0,0,0-7.5-3.39,5.882,5.882,0,0,0-3.311,1.5,9.139,9.139,0,0,0-1.945,2.184,8.684,8.684,0,0,0-1.124,3.488A23.972,23.972,0,0,1,11.14,20.5a8.281,8.281,0,0,0,.682,3.52,5.145,5.145,0,0,0,1.1,1.592c.518.595,1.109,1.125,1.676,1.692-.334.7-1.218.582-1.676,1.121a12.3,12.3,0,0,0-2.858.31A5.876,5.876,0,0,0,6.1,33.978c-.022,2.527-.006,5.055-.006,7.588l.794.782H30.629l.811-.861V37.332H41.473Z" transform="translate(2.764 3.154)"/>
      <path id="Trazado_245509" data-name="Trazado 245509" d="M44.359,45.272,34.632,35.56H20.322a10.585,10.585,0,0,1-.125-1.8l-.938-.7H.746l-.718.717V62.567l.734.787H11.851l.791-.784V60.91h6.78c.218-.327.423-.634.627-.941.063.042.125.086.186.129V58.3c2.94,0,5.826-.055,8.709.035a8.775,8.775,0,0,1,2.361.753c1.615.554,3.225,1.122,4.843,1.666a1.741,1.741,0,0,0,1.175-.068c1.75-.615,3.552-1.093,5.275-1.772,2.819-1.112,5.724-1.957,8.584-2.941,1.24-.427,2.463-.919,3.686-1.4,1.265-.5,2.6-.842,3.889-1.294,1.242-.435,2.495-.853,3.747-1.253,1.349-.43,2.674-.948,4.029-1.365s2.682-.888,4.016-1.358c2.208-.775,4.414-1.554,6.608-2.368a1.742,1.742,0,0,1,.52-.006l.746-.836a8.568,8.568,0,0,0-.638-4.686A7.043,7.043,0,0,0,74,38.4c-.721,0-1.621.045-2.512-.013a8.336,8.336,0,0,0-2.5.471,22.546,22.546,0,0,1-2.672.768c-.961.1-1.785.564-2.729.725-1.285.221-2.533.743-3.818,1.051-1.435.345-2.857.75-4.276,1.144-1.605.446-3.223.849-4.824,1.314-1.415.409-2.837.788-4.257,1.172a3.324,3.324,0,0,1-2.054.238" transform="translate(0.013 15.007)"/>
      <path id="Trazado_245510" data-name="Trazado 245510" d="M46.16,10.726c.691-.145,1.169-.875,1.713-1.371L46.119,7.616,44.383,9.349c-.007.384.7.1.861.52.121.317.119.737.916.856" transform="translate(20.145 3.457)" fill="#0c0d0d"/>
      <path id="Trazado_245511" data-name="Trazado 245511" d="M54.627,30.128c-.833,0-1.5-.59-2.416-.254a7.512,7.512,0,0,1-.529,2.531,5.46,5.46,0,0,1,2.563.241,5.135,5.135,0,0,0,.382-2.518" transform="translate(23.458 13.512)" fill="#090909"/>
      <path id="Trazado_245512" data-name="Trazado 245512" d="M51.37,32.938c.311,1.026-.436,1.7-.206,2.537a11.434,11.434,0,0,1,2.066.74c.753-.507.265-1.506.878-2.123-.66-1.029-1.724-.676-2.738-1.154" transform="translate(23.203 14.95)" fill="#090909"/>
      <path id="Trazado_245513" data-name="Trazado 245513" d="M52.007,23.285V25.2l.513.427h1.958v-2.4l-.353-.353c-.036,0-.093-.026-.108-.01-.567.637-1.409-.036-2.011.422" transform="translate(23.606 10.375)" fill="#080808"/>
      <path id="Trazado_245514" data-name="Trazado 245514" d="M2.831,15.9c-.723.651-.673,1.531-1.134,2.313.81.326,1.473.984,2.56.757-.049-.689.416-1.234.72-1.973L2.831,15.9" transform="translate(0.77 7.219)" fill="#090a0a"/>
      <path id="Trazado_245515" data-name="Trazado 245515" d="M49.507,16.181c1.09.125,1.564-.8,2.345-1.04q-.508-1.032-1.019-2.066c-.756.06-.756.06-2.041,1.025-.183.446.095.771.27,1.122.153.3.288.616.445.958" transform="translate(22.119 5.934)" fill="#080808"/>
      <path id="Trazado_245516" data-name="Trazado 245516" d="M0,26.339v2.374a3.168,3.168,0,0,0,1.271.1c.365.026.733.006,1.221.006.086-.8.016-1.614.047-2.476Z" transform="translate(0 11.955)" fill="#050606"/>
      <path id="Trazado_245517" data-name="Trazado 245517" d="M40.24,3.275a5.038,5.038,0,0,0-1.09,2.351c.619.385,1.348.506,1.739,1.095.75-.454.955-1.263,1.372-2.031-.368-.817-1.346-.891-2.021-1.415" transform="translate(17.77 1.486)" fill="#080808"/>
      <path id="Trazado_245518" data-name="Trazado 245518" d="M21.584.728l-2.371.615c.217.826.433,1.647.673,2.562.766-.561,1.723-.291,2.427-.989-.528-.609-.179-1.577-.728-2.188" transform="translate(8.721 0.33)" fill="#090909"/>
      <path id="Trazado_245519" data-name="Trazado 245519" d="M22.985,2.722h2.533c-.076-.849.209-1.707-.573-2.477H23.112c-.163.157-.311.3-.534.516.545.5.359,1.185.407,1.961" transform="translate(10.248 0.111)" fill="#090909"/>
      <path id="Trazado_245520" data-name="Trazado 245520" d="M51.789,22.424a5.706,5.706,0,0,0,2.495-.849c-.609-.51-.089-1.464-.829-1.964-.739-.244-1.329.342-2.017.352-.318.9.2,1.65.35,2.461" transform="translate(23.302 8.874)" fill="#080808"/>
      <path id="Trazado_245521" data-name="Trazado 245521" d="M5.438,16.135c.435-.835.771-1.482,1.108-2.129-.682-.423-1.435-.587-1.835-1.207-1.031.329-.792,1.41-1.564,1.9a4.952,4.952,0,0,0,2.291,1.439" transform="translate(1.428 5.81)" fill="#070707"/>
      <path id="Trazado_245522" data-name="Trazado 245522" d="M48.59,10c-.65.459-.964,1.186-1.726,1.358-.458,1.109,1.093,1.227.929,2.171a3.964,3.964,0,0,0,2.163-1.5c.032-.5-.474-.628-.688-.96s-.419-.66-.679-1.07" transform="translate(21.233 4.537)" fill="#070707"/>
      <path id="Trazado_245523" data-name="Trazado 245523" d="M6.45,10c-.6.449-.724,1.333-1.447,1.692.477.744,1.322.942,1.958,1.62.5-.659,1.246-.99,1.393-2.009A3.522,3.522,0,0,0,6.45,10" transform="translate(2.271 4.539)" fill="#090909"/>
      <path id="Trazado_245524" data-name="Trazado 245524" d="M.251,22.88V25.3H2.74c-.113-.833.3-1.708-.347-2.418Z" transform="translate(0.114 10.385)" fill="#080808"/>
      <path id="Trazado_245525" data-name="Trazado 245525" d="M43.774,8.81a6.062,6.062,0,0,1,1.461-1.86c-.406-.98-1.416-1.112-2.009-1.809l-1.24,1.935c.221.9,1.249.955,1.788,1.733" transform="translate(19.057 2.334)" fill="#070707"/>
      <path id="Trazado_245526" data-name="Trazado 245526" d="M11.733,4.8c-.343,1.233-1.887,1.044-1.714,2.37L11.473,8.5a4.462,4.462,0,0,0,1.762-1.447,11.251,11.251,0,0,1-1.5-2.256" transform="translate(4.542 2.177)" fill="#070707"/>
      <path id="Trazado_245527" data-name="Trazado 245527" d="M14.824,3.207c-.7.489-1.49.592-1.985,1.2.068.842.9,1.277,1.041,2.172a10.88,10.88,0,0,0,2.2-1.252,8.688,8.688,0,0,0-1.253-2.12" transform="translate(5.828 1.455)" fill="#080808"/>
      <path id="Trazado_245528" data-name="Trazado 245528" d="M18.388,1.6c-.881.614-1.82.545-2.5,1.311.707.5.358,1.567,1.17,2.078.648-.209,1.181-.739,1.967-.694.174-.993-.791-1.595-.634-2.7" transform="translate(7.21 0.728)" fill="#090909"/>
      <path id="Trazado_245529" data-name="Trazado 245529" d="M38.182,4.9c.686-.513.42-1.535,1.153-2.083L36.806,1.754c-.094.82-.749,1.479-.678,2.406.676.116,1.138.779,2.053.741" transform="translate(16.396 0.796)" fill="#09090a"/>
      <path id="Trazado_245530" data-name="Trazado 245530" d="M51.058,19.337l2.143-.8a5.356,5.356,0,0,0-.821-2.488L50.066,17.2c.516.577.557,1.407.992,2.14" transform="translate(22.725 7.284)" fill="#070707"/>
      <path id="Trazado_245531" data-name="Trazado 245531" d="M35.7,1.241c-.875-.026-1.6-.648-2.454-.247-.145.608.2,1.333-.462,1.822.733.868,1.727.582,2.723,1.074-.294-1.028.406-1.708.193-2.649" transform="translate(14.881 0.39)" fill="#0a0a0a"/>
      <path id="Trazado_245532" data-name="Trazado 245532" d="M3.958,20.106A4.8,4.8,0,0,0,1.4,19.353a7.636,7.636,0,0,0-.433,1.025c-.089.327.118.736-.292.986.48.987,1.678.055,2.139,1.226a10.562,10.562,0,0,0,.66-1.346c.108-.369-.164-.845.483-1.137" transform="translate(0.307 8.781)" fill="#090909"/>
      <path id="Trazado_245533" data-name="Trazado 245533" d="M32.081,2.71c.028-.619.041-1.178.089-1.735.009-.108.154-.2.238-.3a3.5,3.5,0,0,0-2.35-.443l-.442.441V2.71Z" transform="translate(13.443 0.101)" fill="#070808"/>
      <path id="Trazado_245534" data-name="Trazado 245534" d="M.7,32.417c.669.113,1.2-.574,1.967-.24V29.667c-.8-.473-1.492.535-2.291.173A2.856,2.856,0,0,0,.7,32.417" transform="translate(0.103 13.407)" fill="#070707"/>
      <path id="Trazado_245535" data-name="Trazado 245535" d="M10.623,9.575c.015-1.188-1.013-1.468-1.479-2.239-.765.374-1.16,1.06-1.828,1.6.616.717,1.086,1.495,2.1,1.753.355-.518.425-1.242,1.211-1.112" transform="translate(3.321 3.33)" fill="#060606"/>
      <path id="Trazado_245536" data-name="Trazado 245536" d="M52.262,28.591a3.214,3.214,0,0,0,2.429.371V26.574H52.262Z" transform="translate(23.722 12.062)" fill="#050505"/>
      <path id="Trazado_245537" data-name="Trazado 245537" d="M26.217.052c-.374.913.3,1.57.214,2.412H28.6V.06a12.646,12.646,0,0,0-2.38-.007" transform="translate(11.848 0)" fill="#090909"/>
      <path id="Trazado_245538" data-name="Trazado 245538" d="M33.632,14.751a9.557,9.557,0,0,0-.113-2.192,4.9,4.9,0,0,0-3.742-3.7,4.633,4.633,0,0,0-4.382.971A5.013,5.013,0,0,0,23.5,14.251c.047.733.01,1.471.006,2.207a5.087,5.087,0,0,0,4.907,4.911,5.193,5.193,0,0,0,5.182-3.981,9.991,9.991,0,0,0,.038-2.637" transform="translate(10.661 3.933)" fill="#eebd9b"/>
      <path id="Trazado_245539" data-name="Trazado 245539" d="M45.815,17.56a8.988,8.988,0,0,0-.3-2.966,5.118,5.118,0,0,0-4.3-3.273,4.844,4.844,0,0,0-4.971,2.765,4.135,4.135,0,0,0-.566,2.134c.041.944.015,1.892.009,2.837A5.088,5.088,0,0,0,40.6,23.963a5.2,5.2,0,0,0,5.179-3.985,9.014,9.014,0,0,0,.033-2.418" transform="translate(16.194 5.13)" fill="#eebd9b"/>
      <path id="Trazado_245540" data-name="Trazado 245540" d="M11.318,17.774v2.207c.539.2.225.736.416,1.09,1.031,1.926,3.524,3.655,6.074,2.568,1.386.022,2.1-1.051,2.806-1.926a4.19,4.19,0,0,0,.837-2.954c-.052-.784-.02-1.576-.007-2.364a4.149,4.149,0,0,0-1-3.047c-.718-.76-1.348-1.724-2.6-1.714-2.342-1.057-5.065.5-5.964,2.434a4.371,4.371,0,0,0-.571,2.131c.032.523.006,1.051.006,1.576" transform="translate(5.133 5.125)" fill="#eebd9b"/>
      <path id="Trazado_245541" data-name="Trazado 245541" d="M32.205,31.06v1.118a.927.927,0,0,0,.109.095.284.284,0,0,0,.137.049H52.378V25.785a3.945,3.945,0,0,0-2.773-2.307,23.248,23.248,0,0,1-11.862,6.543,38.728,38.728,0,0,1-4.061.6,2.2,2.2,0,0,0-1.477.438" transform="translate(14.618 10.656)" fill="#4472af"/>
      <path id="Trazado_245542" data-name="Trazado 245542" d="M37.412,20.87H35.68c-3.232,3.364-7.719,3.454-11.112.01H22.38a6.046,6.046,0,0,0-2.341,2.336v5.235h2.819A21.842,21.842,0,0,0,34.718,24.34a11.708,11.708,0,0,0,2.242-1.973c.362-.414.885-.824.452-1.5" transform="translate(9.096 9.473)" fill="#688dbf"/>
      <path id="Trazado_245543" data-name="Trazado 245543" d="M23.03,26.337V24.1c-1.844,1.323-3.716,2.239-5.914,1.9a7.481,7.481,0,0,1-4.676-2.507,5.3,5.3,0,0,1-.9-.007c-1.569-.26-2.511.727-3.34,1.772a1.925,1.925,0,0,0-.39,1.256c.087,1.516.031,3.04.031,4.562a2.014,2.014,0,0,0,1.627.426A26.033,26.033,0,0,0,21.9,27.418a5.586,5.586,0,0,0,1.133-1.08" transform="translate(3.545 10.641)" fill="#688dbf"/>
      <path id="Trazado_245544" data-name="Trazado 245544" d="M36.532,20.87c-.042.193.083.4-.106.586a15.676,15.676,0,0,1-3.217,2.86,26.193,26.193,0,0,1-6.332,2.925,19.187,19.187,0,0,0-2.255.615,6.572,6.572,0,0,1-2.238.281c-.215,0-.429.007-.406.315h17.37v-5.2C38.717,22.18,38,21.088,36.532,20.87" transform="translate(9.975 9.473)" fill="#4472af"/>
      <path id="Trazado_245545" data-name="Trazado 245545" d="M23.02,25.435c-.749-.061-1.109.612-1.665.912a28.793,28.793,0,0,1-6.825,2.924c-1.172.246-2.36.4-3.507.663a26.938,26.938,0,0,1-3.19.241V31.29a.824.824,0,0,0,.11.1.277.277,0,0,0,.135.048c6.62,0,13.239,0,19.93,0V28.943H23.863l-.843-.84Z" transform="translate(3.556 11.543)" fill="#4472af"/>
      <path id="Trazado_245546" data-name="Trazado 245546" d="M32.207,31.06c1.608.221,3.161-.4,4.76-.315A40.722,40.722,0,0,0,43.7,28.337a21.028,21.028,0,0,0,5.58-4.043.922.922,0,0,0,.324-.816H47.873a7.365,7.365,0,0,1-10.532.632v4.875l-1.169.808h-3.86c-.212.441-.048.864-.1,1.266" transform="translate(14.615 10.656)" fill="#688dbf"/>
      <path id="Trazado_245547" data-name="Trazado 245547" d="M38.63,21.74c-.551.551-.946.949-1.422,1.425a4.285,4.285,0,0,0,3,1.1A8.584,8.584,0,0,0,43.249,23.2l-1.5-1.458Z" transform="translate(16.889 9.868)" fill="#eaba98"/>
      <path id="Trazado_245548" data-name="Trazado 245548" d="M24.995,20.422a4.031,4.031,0,0,0,5.74.047c.044-.385-.315-.5-.5-.733-.166-.2-.368-.374-.58-.586H26.274l-1.279,1.272" transform="translate(11.345 8.692)" fill="#e9b998"/>
      <path id="Trazado_245549" data-name="Trazado 245549" d="M13.909,21.775c-.317.316-.688.686-1.1,1.1C13.234,24,14.371,24,15.242,24.207a3.471,3.471,0,0,0,3.233-1.144l-1.293-1.288Z" transform="translate(5.812 9.883)" fill="#eaba99"/>
      <path id="Trazado_245550" data-name="Trazado 245550" d="M38.913,46.272c.158,2.626-1.213,4.077-3.511,5.081-.413,0-1.042-.031-1.668.007a3.5,3.5,0,0,1-2.7-1.1c-2.155-2.086-4.257-4.228-6.358-6.326-.161-.971.74-1.191,1.061-1.714.579-.174.853.144,1.156.446q2.451,2.467,4.917,4.919A3.782,3.782,0,0,0,33.7,48.83c.912.048,2.169.119,2.674-1.688V45.995a4.919,4.919,0,0,0-1.336-1.828c-2.541-2.524-5.073-5.06-7.643-7.627H13.968V54.1c.3.25.733.089,1.127.093,2,.019,4.007.026,6.01,0a9,9,0,0,1,3.548.6c1.72.689,3.536,1.137,5.307,1.7a.873.873,0,0,1,.282.212L69.35,43.263c.625-.871-.215-1.477-.071-2.191-.292-.286-.6-.574-.893-.875a2.888,2.888,0,0,0-2.019-.874,13.187,13.187,0,0,0-4.292.744c-1.372.368-2.728.8-4.1,1.172s-2.768.7-4.149,1.058c-1.476.382-2.947.789-4.41,1.205-1.511.429-3.043.776-4.548,1.224-1.554.464-3.1.939-4.695,1.269-.378.079-.688.435-1.262.276" transform="translate(6.34 16.585)" fill="#eebd9b"/>
      <rect id="Rectángulo_37380" data-name="Rectángulo 37380" width="7.482" height="25.215" transform="translate(2.586 50.593)" fill="#4472af"/>
      <rect id="Rectángulo_37381" data-name="Rectángulo 37381" width="4.951" height="22.685" transform="translate(12.71 50.594)" fill="#698dbf"/>
    </g>
  </g>
</svg>
