<svg id="Grupo_845829" data-name="Grupo 845829" xmlns="http://www.w3.org/2000/svg" xmlns:xlink="http://www.w3.org/1999/xlink" width="94.065" height="58.091" viewBox="0 0 94.065 58.091">
  <defs>
    <clipPath id="clip-path">
      <rect id="Rectángulo_37587" data-name="Rectángulo 37587" width="94.065" height="58.091" fill="none"/>
    </clipPath>
  </defs>
  <g id="Grupo_845828" data-name="Grupo 845828" transform="translate(0 0)" clip-path="url(#clip-path)">
    <path id="Trazado_583708" data-name="Trazado 583708" d="M54.378,8.085c.163-.776-.578-.989-.863-1.4-2.868-.321-5.648-1.116-8.2-.775a9.872,9.872,0,0,0-4.585,3.2c-.993.372-1.748-.561-2.659-.29-.389-.57-.99-.273-1.5-.374-3.048-.616-6.132-.239-9.2-.382a8.925,8.925,0,0,1-2.336-.54c-.855-.284-1.674-.678-2.543-1.038V4.671A7.756,7.756,0,0,0,19.024,2.5,38.7,38.7,0,0,1,14.634.718,5.564,5.564,0,0,0,11.772.01a5.216,5.216,0,0,0-2.144,1.7c.078.987-.885,1.634-.827,2.6C7.177,7.618,5.95,11.091,4.594,14.5S1.89,21.324.553,24.744c-.774,1.978-.952,2.588.917,4.367.088.085.174.174.252.252,1.048-.075,1.813.667,2.736.954,1.559.484,3.028,1.231,4.615,1.7a3.314,3.314,0,0,0,2.5.015,3.268,3.268,0,0,1,1.03-.111c2.089,1.6,4.391,2.8,6.513,4.253-.9,1.223-.664,2.663-.69,3.784a6.783,6.783,0,0,0,2.1,3.085c.942.755,2.153.7,3.291,1.1a5.511,5.511,0,0,0,3.528,4.327h2.011A5.564,5.564,0,0,0,33.1,53.228h1.721c.865,3.252,2.8,5.165,5.848,4.824,2.241-.534,3.236-1.926,4.472-3.087a18.479,18.479,0,0,0,3.732,2.311c1.263-.061,2.764.219,4.355-.521,1.921-1.884,2.348-2.528,2.7-4.156a5.242,5.242,0,0,0,4.788-.518,4.985,4.985,0,0,0,2.508-4.223c1.491-.347,3.122-.235,4.366-1.408a6.757,6.757,0,0,0,2.3-3.826c1.264-.078,2.707.119,3.978-.628a6.735,6.735,0,0,0,2.537-3.136c.68-1.4.146-2.74-.08-4.064.917-.611,1.758-1.2,2.627-1.744.821-.514,1.67-.981,2.53-1.483.408.283.967.321,1.279.687,1.515.395,2.842-.288,4.1-.774,1.788-.691,3.544-1.468,5.349-2.135a3.292,3.292,0,0,0,1.707-1.956,3.016,3.016,0,0,0-.309-2.362c-1.049-2.8-2.194-5.571-3.317-8.346-.064-.156-.25-.263-.45-.463-.382-.189-.876.008-1.345-.06-1.523.467-1.187,1.587-.839,2.608.648,1.9,1.511,3.716,2.15,5.618a3.546,3.546,0,0,1,.391,1.767c-.568.93-1.657.927-2.486,1.382a15.252,15.252,0,0,1-3.763,1.292C80.766,21.384,78,13.8,74.989,6.341c1.206-1.142,2.574-1.352,3.775-1.9.85-.262,1.607-.894,2.68-.622,1.03,1.245,1.341,2.892,2,4.367.547,1.216.936,2.5,1.534,3.693.495.982,1.15,1.793,2.413.975.052-.4.437-.548.663-.855a2.461,2.461,0,0,0-.265-1.628c-.834-2.279-1.906-4.462-2.619-6.788-.2-.639-.806-1.138-.714-1.9-.08-.09-.159-.179-.242-.266C82.911.046,82.257-.512,79.576.637c-1.653.71-3.33,1.381-5.04,1.969a5.635,5.635,0,0,0-2.919,2.066v1.79c-1.394.5-2.722.977-4.048,1.457-1.9.686-2.183.517-4.575.239-1.336-.154-2.656-.71-4.062-.4-.242.371-.784.534-.884,1.064-.708,1.371.328,1.834,1.257,2.06,3.361.816,6.742,1.147,10.1-.094a4.68,4.68,0,0,1,2.566-.666c.673.317.808.948,1.064,1.491,2.209,5.616,4.544,11.184,6.626,16.946a29.127,29.127,0,0,1-4.746,3.2,3.063,3.063,0,0,1-2.156-.945c-2.816-2.152-5.715-4.189-8.55-6.315a3.921,3.921,0,0,0-3.045-.921,14.93,14.93,0,0,1-12.326-3.928,12.074,12.074,0,0,0-1.553-1.278,3.442,3.442,0,0,0-4.553.157c-1.724,1.258-3.3,2.735-5.312,3.559-1.423.584-2.861,1.1-4.427.555-.607-.266-1.278-.443-1.556-1.148-.018-.747.552-1.063,1.046-1.389,4.232-2.8,7.863-6.32,11.6-9.705a4.445,4.445,0,0,1,4.149-1.268,22.686,22.686,0,0,0,4.326.644c1,.008,2.162-.106,1.814-1.687" transform="translate(0 0)"/>
    <path id="Trazado_583709" data-name="Trazado 583709" d="M52.16,7.5a1.2,1.2,0,0,1-.234.823c-.325.435-1,.082-1.061.6-.507.143-.554-.345-.908-.334a5.555,5.555,0,0,1-2.239-.3A14.972,14.972,0,0,0,45.5,7.926a3.657,3.657,0,0,0-3.523,1.111c-1.692,1.789-3.6,3.363-5.435,4.991a38.672,38.672,0,0,1-6.926,5.241,6.582,6.582,0,0,0-1.306,1.313v.685l2.2,1.282c3.6-1.556,6.256-4.4,9.193-6.848a30.547,30.547,0,0,0,2.6-2.579,6.624,6.624,0,0,1,6.315-2.038c4.7.756,9.414,1.424,14.1,2.257a12.593,12.593,0,0,0,7.631-1.3,1.4,1.4,0,0,0,.882-.867c.166-1.01-.632-1.682-.865-2.543-.823-.154-1.438.358-2.125.592-1.007.344-1.985.771-2.988,1.128a2.728,2.728,0,0,1-.873.085A26.629,26.629,0,0,1,60.57,10.4a17.2,17.2,0,0,1-3.716-.661,1.886,1.886,0,0,1-.9-.463c-.266-.318-.059-.7-.124-1.041-.515.175-.795-.43-1.294-.378-.476.051-.973-.053-1.44.03-.438.077-.567-.41-.935-.386" transform="translate(2.218 0.587)" fill="#fecdbd"/>
    <path id="Trazado_583710" data-name="Trazado 583710" d="M81.725,12.648H80.312c-1.646-3.178-2.585-6.741-4.218-9.981A11.241,11.241,0,0,0,72.92,3.838c-.853.557-.5,1.307-.239,1.961,2.761,6.914,5.434,13.863,8.226,20.765.208.517.329,1.243,1.185,1.133a11.581,11.581,0,0,0,3.3-1.274c.2-1.014-.594-1.717-.835-2.6a31.937,31.937,0,0,0-2.126-5.319,1.931,1.931,0,0,1,.4-2.556,6.962,6.962,0,0,0-.994-2.629c-.16-.235-.063-.454-.107-.675" transform="translate(5.67 0.209)" fill="#b06d3d"/>
    <path id="Trazado_583711" data-name="Trazado 583711" d="M51.472,52.938c.459-.419.223-1.126.651-1.615-.1-.311-.394-.621-.271-1.088-1.021-1.3-2.72-1.915-3.626-3.375-.343-.606.493-1.011.311-1.63.532-.449.41-1.294,1.113-1.744.792-.423,1.416.125,2.064.582,1.646,1.161,3.164,2.489,4.793,3.671.569.413,1.085,1.034,1.936.795,1.455-1.069,1.573-2.484.056-3.746-1.168-.97-2.408-1.864-3.568-2.853-.069-.06-.233-.009-.344-.009-.415-.716-.845-1.416-.179-2.2.414-.523.456-1.256.988-1.743.942-.592,1.7-.116,2.438.474,1.653,1.321,3.394,2.528,5.04,3.858.623.5,1.182,1.264,2.173,1.08.862-.4.448-1.487,1.091-2.009-.439-.27-.367-.705-.363-1.1-1.554-1.737-3.568-2.878-5.5-4.384v-1.68c.573-.738.507-1.944,1.694-2.269.856-.148,1.454.427,2.061.909,2,1.584,4.056,3.086,6.057,4.664.561.442,1.082,1.028,1.928.733.387.036.419-.41.733-.481,0-.521-.026-1.007.005-1.489a2.547,2.547,0,0,0-1.146-2.267c-2.518-1.85-5.091-3.628-7.619-5.465a11.908,11.908,0,0,1-1.5-1.195,4.174,4.174,0,0,0-3.55-1.229c-.973.061-1.953.014-2.93.012a27.933,27.933,0,0,1-4.491-1.1,37.891,37.891,0,0,1-5.358-2.971A8.1,8.1,0,0,1,44.6,20.536c-.237-.259-.492-.322-1.079-.175a18.831,18.831,0,0,1-3.635,2.861,11.664,11.664,0,0,1-8.063,2.147,6.143,6.143,0,0,1-3.381-1.539c-.491-.458-.952-.947-1.433-1.428-.192-.123-.133-.329-.109-.493.071-.5-.594-.776-.376-1.316a13.078,13.078,0,0,1,.759-1.881,3.462,3.462,0,0,1,1.225-1.308c2.238-1.152,4.048-2.89,6.076-4.324a19.018,19.018,0,0,0,2.225-2.172,6.236,6.236,0,0,0-3.45-.541c-1.453.179-2.807-.46-4.246-.394a20.165,20.165,0,0,1-4.2-.045,6.99,6.99,0,0,1-2.77-.806,2.191,2.191,0,0,0-1.582-.6c-1.113,1.4-1.35,3.191-2.051,4.775-.727,1.641-1.355,3.347-1.988,5.039-.927,2.486-2.134,4.865-2.834,7.438.336,1.031,1.323,1.377,2.077,1.966,1.248.975,2.573,1.842,3.854,2.771.625.454,1.289,1.011,2.139.4.687-.13.92-.841,1.54-1.145a5.139,5.139,0,0,1,4.269-.169,5.448,5.448,0,0,1,2.926,2.926,3.8,3.8,0,0,1,.115,1.252c2.549.093,4.5,1.072,5.455,3.791v1a5.473,5.473,0,0,1,3.864,1.156,4.535,4.535,0,0,1,1.79,3.777c1.242-.346,2.083.168,2.959.3,1.771,1.4,2.957,3.087,2.763,5.461a.794.794,0,0,0,.124,1.127c1.179,1.03,2.185,2.352,3.911,2.544" transform="translate(1.072 0.666)" fill="#f0aea1"/>
    <path id="Trazado_583712" data-name="Trazado 583712" d="M71.076,10.956c-.813.4-1.693.61-2.494,1.071a7.289,7.289,0,0,1-2.45.671,5.73,5.73,0,0,1-3.539-.161,1.032,1.032,0,0,0-.5-.109c-1.891.031-3.688-.618-5.556-.809a12.744,12.744,0,0,1-2.589-.348c-.823-.266-1.742-.04-2.4-.378-.852-.439-1.708-.025-2.431-.342a6.6,6.6,0,0,0-2.432-.333A5.589,5.589,0,0,0,42.3,12.037c-.872.856-1.706,1.754-2.6,2.588a59.617,59.617,0,0,1-8.952,7.149c-.177.111-.44.252-.4.562.71-.06,1.392.774,2.008.311.638-.48,1.279-.15,1.846-.4,2.956-1.048,5.148-3.251,7.583-4.994a4.029,4.029,0,0,1,3.8,1.461,15.62,15.62,0,0,0,3.783,2.847,14.757,14.757,0,0,0,4.659,1.583c1.313.262,2.6.153,3.884.323.821.109,1.407-.765,2.242-.407q5.959,4.4,11.954,8.825l5.852-3.736c-.368-1.406-1.03-2.643-1.43-4a31.1,31.1,0,0,0-1.475-3.777c-.945-2.116-1.718-4.3-2.63-6.42-.377-.881-.663-1.8-.985-2.706-.065-.183-.137-.331-.369-.289" transform="translate(2.377 0.8)" fill="#feddce"/>
    <path id="Trazado_583713" data-name="Trazado 583713" d="M82.368,27.613c-.923-.769-.972-1.981-1.423-2.974-.675-1.486-1.23-3.034-1.852-4.552-.814-1.987-1.446-4.049-2.245-6.043-.483-1.206-1.008-2.393-1.468-3.612C74.6,8.372,73.72,6.351,72.868,4.284c.052-.178.391-.233.329-.531a17.916,17.916,0,0,0-4.346,1.874c.731,1.756,1.475,3.436,2.133,5.15q.878,2.289,1.823,4.547c.823,1.976,1.471,4.022,2.23,6.025.519,1.368,1.109,2.71,1.65,4.071A17.636,17.636,0,0,1,78,28.905c.035.2.326.348.442.465a22.165,22.165,0,0,1,3.642-1.39c.189-.046.331-.136.289-.367" transform="translate(5.393 0.294)" fill="#ad5e2e"/>
    <path id="Trazado_583714" data-name="Trazado 583714" d="M6.221,27.954A22.326,22.326,0,0,1,9.77,29.359c.748-.576.828-1.635,1.157-2.462.581-1.46,1.17-2.93,1.7-4.414.763-2.118,1.753-4.145,2.428-6.307a34.249,34.249,0,0,1,1.487-3.764c.854-1.906,1.557-3.866,2.341-5.794.17-.418.615-.721.525-1.344-1.286-.1-2.325-1.057-3.654-1.181-.976-.028-1.13.8-1.385,1.428-2.783,6.816-5.369,13.711-8.14,20.533a1.763,1.763,0,0,0-.013,1.9" transform="translate(0.465 0.321)" fill="#daecfe"/>
    <path id="Trazado_583715" data-name="Trazado 583715" d="M6.468,28.065c-.181-1.119.559-1.984.942-2.894,1.159-2.743,2.162-5.55,3.368-8.278.743-1.683,1.208-3.515,1.954-5.209s1.3-3.47,2.109-5.153A11.087,11.087,0,0,1,16.006,4.2c0-.061.018-.169,0-.177-1.213-.466-2.431-.923-3.54-1.34a1.1,1.1,0,0,0-.856.751c-.451,1.583-1.2,3.047-1.787,4.576-.769,2-1.482,4.029-2.259,6.03-.551,1.42-1.228,2.793-1.742,4.226-.724,2.022-1.725,3.938-2.282,6.02-.191.715-.879,1.249-.724,2.09,1.085.818,2.5.963,3.653,1.684" transform="translate(0.219 0.21)" fill="#b4dbfe"/>
    <path id="Trazado_583716" data-name="Trazado 583716" d="M68.631,36.6c-1.3-.463-2.14-1.575-3.224-2.348a62.645,62.645,0,0,1-5.4-4.215c-.169-.15-.54-.166-.722-.412H58.18l-1.289,1.283v1.653a2.854,2.854,0,0,1,2.024-.36c1.276,1.031,2.492,2.14,3.836,3.064,1.259.865,2.353,2.022,4.07,2.394.362-.553,1.542.015,1.811-1.059" transform="translate(4.456 2.321)" fill="#e79b8b"/>
    <path id="Trazado_583717" data-name="Trazado 583717" d="M21.842,29.657c-.917.369-1.516-.423-2.011-.815-1.95-1.548-4.021-2.91-6.06-4.324-.381.873-.762,1.746-1.179,2.7,2.176,2,4.978,3.076,7.216,4.96a8.374,8.374,0,0,0,2.034-2.521" transform="translate(0.986 1.921)" fill="#e79b8b"/>
    <path id="Trazado_583718" data-name="Trazado 583718" d="M62.087,41.309l-8.044-6.2H52.272c-.118.188-.343.543-.567.9l-.257-.148v1.776a2.089,2.089,0,0,1,1.638-.349c1.577,1.58,3.733,2.608,5.41,4.265.149.147.424.156.612.274.148.093.251.229.462.221.543-.017,1.089-.005,1.627-.005.1-.515.883-.137.89-.734" transform="translate(4.03 2.75)" fill="#e79b8b"/>
    <path id="Trazado_583719" data-name="Trazado 583719" d="M55.91,46.05c-1.9-1.236-3.559-2.8-5.426-4.059-.892-.6-1.471-1.708-2.964-1.789a3.034,3.034,0,0,0-1.515.9v1.64H47.6c1.718,1.406,3.625,2.528,5.229,4.039a1.185,1.185,0,0,1,1.194.464c.446-.7,1.624-.13,1.888-1.2" transform="translate(3.604 3.149)" fill="#e79b8b"/>
    <path id="Trazado_583720" data-name="Trazado 583720" d="M22.627,38.355c.3,0,.615.071.8-.256.9-1.541,2.348-2.62,3.363-4.071a2.307,2.307,0,0,0-.185-3.26c-.214-.219-.456-.074-.68-.123a10.009,10.009,0,0,0-4.37,5.59c-.206.755-.786,2.187,1.069,2.119" transform="translate(1.669 2.4)" fill="#fcdbcc"/>
    <path id="Trazado_583721" data-name="Trazado 583721" d="M27.72,42.78A10.7,10.7,0,0,0,30.736,39.6c.13-.257.421-.43.63-.649,1.064-1.114,1.119-1.266,1.1-2.983-.393-.256-.553-.8-1.08-.894-2.137.587-5,4.378-4.845,6.48.05.662-.033,1.609,1.176,1.229" transform="translate(2.079 2.747)" fill="#fddccd"/>
    <path id="Trazado_583722" data-name="Trazado 583722" d="M37.558,51.644c.182,0,.452.079.533-.012.912-1.022,2.1-1.785,2.787-3.026a7.883,7.883,0,0,1,1.088-1.194c1.005-1.139,1-2.084-.006-3.478a.952.952,0,0,0-1.306.215c-1.278,1.439-2.807,2.7-3.573,4.529-.443,1.06-.566,2.12.477,2.965" transform="translate(2.879 3.428)" fill="#fddccd"/>
    <path id="Trazado_583723" data-name="Trazado 583723" d="M32.455,47.206c.181,0,.451.079.532-.012.914-1.016,2.1-1.775,2.781-3.017a3.179,3.179,0,0,1,.7-.8,3.083,3.083,0,0,0,1.092-2.995c-.385-.25-.545-.79-1.073-.889-1.98.545-4.891,4.285-4.832,6.225.019.618.095,1.224.8,1.484" transform="translate(2.48 3.094)" fill="#fddccd"/>
    <path id="Trazado_583724" data-name="Trazado 583724" d="M22.775,38.386h-.639v-2.23c.322-1.477,1.5-2.325,2.364-3.418a15.418,15.418,0,0,0,1.578-2.061c-.361-.824-1.071-.151-1.539-.381-1.9,1.389-3.017,3.458-4.7,4.98a1.25,1.25,0,0,1-.416,1.2,4.038,4.038,0,0,1,.508,1.431,2.783,2.783,0,0,0,2.557.84.285.285,0,0,0,.291-.362" transform="translate(1.521 2.37)" fill="#fbcbbb"/>
    <path id="Trazado_583725" data-name="Trazado 583725" d="M37.686,51.687c.187-.474-.3-.724-.373-1.117a3.345,3.345,0,0,1,.946-2.854c1.032-1.143,1.976-2.362,3.019-3.493a.925.925,0,0,1,.81-.245c-.2-.752-1.164-.056-1.36-.777l-1.963.975c.173-.157.119-.124.086-.075a36.633,36.633,0,0,1-3.729,4.486c-.009,2.481-.009,2.481,1.988,3.447.22-.074.277-.405.575-.346" transform="translate(2.751 3.384)" fill="#fbcbbb"/>
    <path id="Trazado_583726" data-name="Trazado 583726" d="M27.867,42.807H27.25a4.714,4.714,0,0,1,1.374-4.626,7.229,7.229,0,0,0,1.606-1.9A2.432,2.432,0,0,1,31.536,35.1a.281.281,0,0,0-.289-.36c-.548-.019-1.1-.006-1.729-.006a20.966,20.966,0,0,0-2.366,2.423,24.635,24.635,0,0,1-2.215,2.533c-.094.342.23.783-.279.953a3.667,3.667,0,0,0,1.63,2.523c.424-.2,1.114.381,1.579-.357" transform="translate(1.932 2.72)" fill="#fcccbc"/>
    <path id="Trazado_583727" data-name="Trazado 583727" d="M32.582,47.233c-.57-.727-.319-1.58-.366-2.379a22.133,22.133,0,0,1,4.4-5.33.281.281,0,0,0-.285-.36c-.543-.019-1.088-.006-1.632-.006-1.854,1.348-2.972,3.391-4.665,4.93v2.18a3.358,3.358,0,0,0,1.73,1.3c.211.094.755.269.816-.339" transform="translate(2.353 3.067)" fill="#fcccbc"/>
    <path id="Trazado_583728" data-name="Trazado 583728" d="M49.129,49.977c-1.129-.748-2.108-1.7-3.277-2.4-.409-.246-.919-.606-.758-1.272-.541.4-.437,1.091-.739,1.594-.293.486-1,.769-.683,1.524l2.45,1.6H47.89c.317-.414,1.14-.307,1.239-1.048" transform="translate(3.415 3.627)" fill="#e39889"/>
  </g>
</svg>
