<svg id="Grupo_845831" data-name="Grupo 845831" xmlns="http://www.w3.org/2000/svg" xmlns:xlink="http://www.w3.org/1999/xlink" width="59.155" height="85.153" viewBox="0 0 59.155 85.153">
  <defs>
    <clipPath id="clip-path">
      <rect id="Rectángulo_37588" data-name="Rectángulo 37588" width="59.155" height="85.153" fill="none"/>
    </clipPath>
  </defs>
  <g id="Grupo_845830" data-name="Grupo 845830" transform="translate(0 0)" clip-path="url(#clip-path)">
    <path id="Trazado_583729" data-name="Trazado 583729" d="M12.2,29.4l-1.276,2.127c.812.8,1.855.585,2.813.564,7.029-.15,11.714,3.37,14.822,9.39.289.56.451,1.2,1.07,1.527H30.9a8.327,8.327,0,0,1,3.712-.7c4.108.035,8.218.014,12.326.011a15.184,15.184,0,0,0,2.544-.12c4.289-.725,6.149-4.121,4.188-8.016-2.388-4.745-5.214-9.256-7.869-13.856-2.832-4.909-5.649-9.827-8.5-14.726C34.344.506,29.9.442,26.819,5.509,26.192,6.539,25.7,7.653,25.01,8.636a6.29,6.29,0,0,0-.717,6.345c2.366,6.587-2.644,13.407-10.048,14.092-.686.062-1.432-.2-2.045.326" transform="translate(2.725 0.435)" fill="#feb540"/>
    <path id="Trazado_583730" data-name="Trazado 583730" d="M32.353,37.067a9.188,9.188,0,0,0-1.82-4.129,15.779,15.779,0,0,0-7.388-6.161,11.8,11.8,0,0,0-5.034-1.209c-1.481.1-2.974.02-4.462.02a16.989,16.989,0,0,0-9.731,5.725A17.172,17.172,0,0,0,.426,38.368a19.258,19.258,0,0,0-.376,4.3c-.012,2.125-.121,4.259.026,6.375a5.561,5.561,0,0,0,4.908,5.48c.346.5.15,1.078.152,1.616.019,5.385.039,10.77,0,16.155a6.36,6.36,0,0,0,7.574,6.378,5.971,5.971,0,0,0,3.8-2.485c.69-.131.375.663.7.777a2.552,2.552,0,0,1,.876.464A6.052,6.052,0,0,0,27,75.886a6.51,6.51,0,0,0,1.1-3.593q-.009-8.812,0-17.616a6.259,6.259,0,0,0,3.672-1.982A6.643,6.643,0,0,0,33.23,48.4c-.1-2.618-.026-5.241-.027-7.863a22.039,22.039,0,0,0-.85-3.475" transform="translate(0 6.374)"/>
    <path id="Trazado_583731" data-name="Trazado 583731" d="M13.933,29.834c.822-.069,1.613.9,2.331.359.818-.611,1.631-.16,2.371-.434a12.116,12.116,0,0,0,6.742-5,11.943,11.943,0,0,0,1.758-7.56,12.3,12.3,0,0,0-1.593-4.532C26.063,10.924,27.329,9.6,28,7.929c.415-1.033,1.188-1.888,1.712-2.9.795-1.532,2.439-2.012,4.032-2.413.8-.2,1.352.648,2.044.5,2.113,1.431,2.86,3.773,4.167,5.726,1.624,2.425,2.974,5.014,4.411,7.537,1.234,2.168,2.48,4.349,3.73,6.508,1.853,3.2,3.522,6.518,5.626,9.582a29.876,29.876,0,0,1,1.869,3.776c0,.269-.03.832.006,1.391a3.815,3.815,0,0,1-2.659,3.927,6.689,6.689,0,0,1-2.725.628c-5.659-.062-11.317-.03-16.932-.03-.41.369-.812.685-.643,1.276v.637a4.245,4.245,0,0,0,2.5.652c4.955-.03,9.911-.01,14.867-.019.693,0,1.539.167,2.039-.161.539-.354,1.316.056,1.676-.668.056-.112.534-.016.825-.016,1.306-1.4,2.922-2.546,3.6-4.823,0-.484-.046-1.336.011-2.182a5.327,5.327,0,0,0-.9-3.236c-1.909-2.949-3.272-6.221-5.411-9.026-.4-1.642-1.506-2.931-2.313-4.344A77,77,0,0,0,45.564,13.6a37.3,37.3,0,0,1-1.879-3.462Q41.8,6.771,39.86,3.435a6.13,6.13,0,0,0-3.8-2.859,5.784,5.784,0,0,0-2.78-.522c-.973.209-1.832.712-2.82.915-.826.171-1.183,1.266-2.077,1.519-.53,1.3-1.626,2.255-2.134,3.577-.452,1.173-1.407,2.07-1.845,3.272-.184.5-.732.592-1.287.5a10.354,10.354,0,0,0-5.266-2.615,7.637,7.637,0,0,0-3.438-.291A14.792,14.792,0,0,0,9.591,8.589,9.674,9.674,0,0,0,7.2,10.473a12.834,12.834,0,0,0-2.932,5.546c-.291,1.614-.6,3.463.31,5.111.444,3.783,3.081,5.822,5.539,7.653,1.319.174,2.35,1.4,3.813,1.051" transform="translate(0.992 0)"/>
    <path id="Trazado_583732" data-name="Trazado 583732" d="M26.974,24.458c.5.792,1.181.57,1.787.61.84-.728.687-1.715.688-2.659,0-1.984-.045-3.969.022-5.951a5.3,5.3,0,0,0-.55-2.34A2.889,2.889,0,0,0,27.5,14.05l-.525.526Z" transform="translate(6.729 3.491)"/>
    <path id="Trazado_583733" data-name="Trazado 583733" d="M28.762,24.257H27.15c-.23.315-.066.763-.577.953.581.56.45,1.79,1.989,1.468L29.6,25.2c.009-.1,0-.656-.835-.943" transform="translate(6.628 6.051)"/>
    <path id="Trazado_583734" data-name="Trazado 583734" d="M4.4,51.435a.946.946,0,0,0,.155-.135.329.329,0,0,0,.079-.177c0-4.383,0-8.766,0-12.941.5-1.042,1.274-.717,1.908-.783.324.325.18.87.642,1.065,0,10.764.029,21.53-.029,32.3-.01,1.787.3,3.282,1.934,4.383,1.016.207,2.084.96,3.317.122.95-.645,2.055-1.072,2.411-2.325V54.694c1.113-.937,1.232-.946,2.528-.137V72.332a4.643,4.643,0,0,0,2.46,2.946c1.176.777,2.194.086,3.473-.1a7.437,7.437,0,0,1,.573-.655,3.727,3.727,0,0,0,1.206-2.911c-.037-9.777-.021-19.553-.021-29.328v-3.82c.272-.236.525-.475.455-.881.372-.37,1.151-.221,2.1.435v13.7c1.628-1.032,2.594-2.029,2.563-3.765-.045-2.479.03-4.96-.025-7.438A17.7,17.7,0,0,0,27.3,32.965a14.733,14.733,0,0,0-4.406-3.78,8.738,8.738,0,0,0-4.864-1.563c-.85.014-1.7.031-2.55,0A12,12,0,0,0,7.345,30.6,12.441,12.441,0,0,0,2.51,38.779C1.866,39.4,2.1,40.2,2.09,40.94q-.024,3.507,0,7.013C2.1,49.656,2.6,50.4,4.4,51.435" transform="translate(0.513 6.887)" fill="#5085fe"/>
    <path id="Trazado_583735" data-name="Trazado 583735" d="M24,16.729c.274-2.688-.938-4.754-2.678-6.553a8.063,8.063,0,0,0-6.11-2.59,8.989,8.989,0,0,0-9.081,9.5,8.6,8.6,0,0,0,3.022,6.393,8.426,8.426,0,0,0,6.024,2.237A8.554,8.554,0,0,0,21.611,22.9c1.522-1.779,2.68-3.725,2.394-6.174" transform="translate(1.53 1.891)" fill="#5085fe"/>
  </g>
</svg>
