<svg id="Grupo_845833" data-name="Grupo 845833" xmlns="http://www.w3.org/2000/svg" xmlns:xlink="http://www.w3.org/1999/xlink" width="84.427" height="84.191" viewBox="0 0 84.427 84.191">
  <defs>
    <clipPath id="clip-path">
      <rect id="Rectángulo_37589" data-name="Rectángulo 37589" width="84.427" height="84.191" transform="translate(0 0)" fill="none"/>
    </clipPath>
  </defs>
  <g id="Grupo_845832" data-name="Grupo 845832" clip-path="url(#clip-path)">
    <path id="Trazado_583736" data-name="Trazado 583736" d="M69.881,55.678a10.329,10.329,0,0,0-4.247,5.991,12.447,12.447,0,0,0-.291,2.928c-.022.84,0,1.681,0,2.542-.612-.166-.3-.6-.319-.888-.025-.355-.326-.519-.391-.872-.344-1.87-.966-3.675-1.411-5.525-.37-1.534-.855-3.041-1.277-4.563-.24-.865-.51-1.727-.663-2.608-.093-.54-.631-.62-.775-1.087H58.592V43.525h3.137l.866-1.037V.774L61.461,0H.831L.248.881.118.753a1.485,1.485,0,0,0-.065.311q0,19.953,0,39.906a5.168,5.168,0,0,0,.081,1.666c.212.6-.238,1.054-.109,1.624A7.894,7.894,0,0,1,.05,45.953c0,.566-.016,1.132,0,1.7A10.076,10.076,0,0,0,4.011,55.32c.133.11.452-.009.46.323.041.441-.369.284-.553.425A13.207,13.207,0,0,0,.426,60.9c.123.89-.408,1.66-.4,2.561C.072,70.086.05,76.708.05,83.371l.935.82h82.58c.217-.25.475-.546.816-.94V63.031c0-.161-.6-2.422-.679-2.6a10.441,10.441,0,0,0-2.629-3.851c-.359-.309-.82-.473-1.109-.769-.021-.367.207-.366.376-.491a9.946,9.946,0,0,0,3.738-5.679,20.56,20.56,0,0,0,.235-6.15,7.934,7.934,0,0,0-1.235-3.538A9.856,9.856,0,0,0,79.6,36.51a5.647,5.647,0,0,0-2.02-.817c-.805-.108-1.536-.616-2.4-.41-.732.174-1.568-.275-2.237.352-2.96.207-4.768,2.117-6.314,4.349a5.931,5.931,0,0,0-.918,2.155,9.089,9.089,0,0,0-.387,3.081,9.938,9.938,0,0,1,.011,1.866,10.012,10.012,0,0,0,1.222,4.933,9.847,9.847,0,0,0,3.325,3.659"/>
    <path id="Trazado_583737" data-name="Trazado 583737" d="M65.679,79.789v-.924c-2.515-.377-5.11.344-7.739-.534l-1.713-1.814c-.687-3.074-.687-3.074,1.694-5.452,1.794-.772,3.6-.275,5.348-.505-.706-3.093-1.638-6.056-2.406-9.062a35.023,35.023,0,0,0-1.492-5.143c-.272-.64.068-1.45-.866-2H25.687a4.439,4.439,0,0,0-.742,2.373c-.181,1.007-.7,1.89-.8,2.926a24.4,24.4,0,0,1-.835,2.862c-.327,1.443-.757,2.853-1.147,4.277a23.729,23.729,0,0,1-1.124,3.7c1.8.417,3.63-.336,5.3.476l1.92,1.968c-.1.581.386,1.124.394,1.8s-.52,1.2-.431,1.875l-1.754,1.752c-2.347.741-4.707.271-7.035.4A1.524,1.524,0,0,0,19,80.018a2.447,2.447,0,0,0,2.167.662q21.207.035,42.413-.008c.777,0,1.74.207,2.1-.883" fill="#dbdcde"/>
    <path id="Trazado_583738" data-name="Trazado 583738" d="M4.47,36.653c4.5-2.429,9.8-1.656,12.922,2.718,2.711,1.022,5.49.524,8.251.346a.609.609,0,0,0,.59-.685c-.08-.428-.459-.617-.726-.886-3.314-3.325-6.6-6.678-9.98-9.941a5.539,5.539,0,0,1-1.878-4.493c.015-.279,0-.559,0-.832.418-.144.362-.563.481-.836a5.477,5.477,0,0,1,3.337-2.912,4.934,4.934,0,0,1,4.2.634,8.276,8.276,0,0,1,2.058,1.626c1.332,1.506,2.994,2.664,4.455,4.041.875.824,1.794,1.634,2.7,2.442a6.617,6.617,0,0,0,4.95,1.992c.613-.041,1.23-.006,2.028-.006a4.923,4.923,0,0,0-1.132-2.292c-.565-.5-1.308-.9-1.38-1.772-1.109-.064-2.18.195-3.16-.346l-1.777-1.806c-.411-1.236-.83-2.481-.172-3.822l1.094-.88c0-1.678.068-3.209-.021-4.73a9.4,9.4,0,0,1,.716-3.956,4.386,4.386,0,0,1,.9-1.483,10.778,10.778,0,0,1,2.473-2.2,10.181,10.181,0,0,1,3.593-1.169c1.585,0,3.17-.019,4.755,0,1.485.024,2.994-.214,4.52.435.6.712,1.375,1.4,2.019,2.251a12.87,12.87,0,0,0,1.725,1.479,3.335,3.335,0,0,1,1.076,2.609c.028,2.2.009,4.41.009,6.771l.882.815a4.361,4.361,0,0,1-.022,3.944l-1.778,1.716c-.553-.243-.921.465-1.513.371a9.435,9.435,0,0,0-1.5-.017,3.415,3.415,0,0,1-1.341,1.678,3.808,3.808,0,0,0-1.2,2.555c.93.679,2.071.491,3.072.846s2.056.5,3.041.863c1.234.456,1.944,1.2,3.446,2.7A7.8,7.8,0,0,1,58.2,38.352c1.086-.369.871-1.329.888-2.112.06-2.715.023-5.431.024-8.147q0-10.609-.006-21.218a4.73,4.73,0,0,0-.461-2.8,3.253,3.253,0,0,0-2.414-.59q-24.9-.023-49.793,0a3.618,3.618,0,0,0-2.275.468,2.5,2.5,0,0,0-.581,1.907q-.054,14.427.012,28.856c0,.71-.222,1.663.879,1.936" fill="#fbfbfb"/>
    <path id="Trazado_583739" data-name="Trazado 583739" d="M34.054,51.6H50.313c.131-2,.044-4.012.06-6.019.016-2.029,0-4.059,0-6.148h2.617c-.025-.027.02.011.049.058a.3.3,0,0,1,.052.147c0,3.95,0,7.9,0,11.906h2.612c.257-.348.1-.812.1-1.24.017-3.336.027-6.673,0-10.009A6,6,0,0,0,54.068,36.1a5.893,5.893,0,0,0-2.6-1.92c-.712-.195-1.418-.414-2.138-.575-1.2-.267-2.4-.489-3.6-.751-.139-.031-.249-.2-.38-.305-.46.313-1.061.33-1.435.97.242,1.052.492,2.236.788,3.409.4,1.585.837,3.16,1.245,4.742.066.256,0,.508.169.783a1.744,1.744,0,0,1-.171,1.983c-1.047,1.5-1.831,3.186-3.221,4.443H41.68c-1.409-1.468-2.215-3.4-3.622-5.058.843-3.411,1.707-6.9,2.544-10.29a2.689,2.689,0,0,0-2.338-.961c-.79.047-1.585-.01-2.377.013A9.527,9.527,0,0,1,28.911,29.7a41.681,41.681,0,0,0-4.729-4.117,5.857,5.857,0,0,1-.836-.861,39.032,39.032,0,0,0-2.894,3.1c-.526.947.338,1.323.8,1.793,3.57,3.608,7.14,7.216,10.78,10.753a4.763,4.763,0,0,1,1.587,3.9c-.085,1.8-.028,3.606-.015,5.41a2.547,2.547,0,0,0,.447,1.921" fill="#79b756"/>
    <path id="Trazado_583740" data-name="Trazado 583740" d="M4.47,36.653a.261.261,0,0,1-.334-.268c-.021-.339-.006-.679-.006-1.019V4.1h54.3c.261.2.1.569.1.88q.015,16.041-.016,32.082c0,.409.413,1.02-.316,1.287.09.748.55,1.436.311,2.19.454.389.891.061,1.35.242V2.757H2.808v35.16c.351.121.407-.254.6-.381a4.4,4.4,0,0,0,.487-.471c.174-.162.617.053.579-.412" fill="#c1c2c4"/>
    <path id="Trazado_583741" data-name="Trazado 583741" d="M14.68,55.828c.137.369.721.385,1.069.693A10.768,10.768,0,0,1,18.566,60.8a6.353,6.353,0,0,1,.537,2.495,33.766,33.766,0,0,0,.1,3.876c.365-1.448.841-2.848,1.243-4.269.415-1.471.747-2.966,1.139-4.444.419-1.578.927-3.13,1.287-4.728.166-.738.244-1.652,1.356-2.134H29.92V43.561c.015.015-.021-.032-.067-.062a.3.3,0,0,0-.148-.05c-3.5,0-7,0-10.613,0,0,1.334,0,2.619,0,3.9a10.248,10.248,0,0,1-3.831,7.907c-.18.162-.616-.054-.582.571" fill="#f7f9fa"/>
    <path id="Trazado_583742" data-name="Trazado 583742" d="M37.455,16.275c.565,0,1.131-.024,1.694,0a4.319,4.319,0,0,0,4.089-2.462,3.829,3.829,0,0,1,1.237-1.59h.837l4.956,4.951c.209-1.945.049-3.66.125-5.493l-1.071-.844h-.828c-.192-.27-.449-.631-.841-1.18V8.97l-.847-.847c-2.536,0-5.079-.057-7.618.024a3.719,3.719,0,0,0-3.433,1.675,4.422,4.422,0,0,0,1.7,6.453" fill="#e19f2c"/>
    <path id="Trazado_583743" data-name="Trazado 583743" d="M47.656,18.343,45.2,15.89A4.541,4.541,0,0,1,43,17.966a8.8,8.8,0,0,1-2.794,1.008c-1.112.077-2.234.017-3.43.017a27.523,27.523,0,0,0,.032,3.435,5,5,0,0,0,1.175,2.727,5.335,5.335,0,0,0,4.773,1.975,5.115,5.115,0,0,0,3.021-1.3,5.422,5.422,0,0,0,1.887-4.477c-.04-1.07-.007-2.142-.007-3.006" fill="#fde1d5"/>
    <path id="Trazado_583744" data-name="Trazado 583744" d="M12.291,78.77c-.039-.1-.073-.273-.119-.277-3.263-.248-5.366-2.192-7.018-4.786a15.606,15.606,0,0,1-1.023-3.789c0-1.573.048-3.148-.025-4.718-.029-.634.42-1.11.364-1.714-.4-1.1.724-2.359-.34-3.4-.688.092-.588.858-1.009,1.178.215.8-.38,1.439-.374,2.228.042,5.818.022,11.637.025,17.455a4.6,4.6,0,0,0,.057.5H15.215a2.72,2.72,0,0,0,.476-1.663c-.982-.842-2.343-.425-3.4-1.019" fill="#307bbc"/>
    <path id="Trazado_583745" data-name="Trazado 583745" d="M68.739,80.128c-.127.545.389.86.466,1.323H81.6a4.6,4.6,0,0,0,.057-.5q0-8.727.007-17.455a9.807,9.807,0,0,0-.691-2.767.836.836,0,0,0-.673-.638c-1.065,1.037.061,2.293-.34,3.4.061.365.374.6.362,1.044-.052,1.859-.01,3.72-.028,5.58a6.726,6.726,0,0,1-.695,2.585A9.723,9.723,0,0,1,77.091,76.4a9.288,9.288,0,0,1-4.244,2.037,3.061,3.061,0,0,0-.708.33c-1.06.635-2.6.071-3.4,1.359" fill="#e19f2c"/>
    <path id="Trazado_583746" data-name="Trazado 583746" d="M15.992,42.029c-.994-1.139-1.471-2.172-2.6-2.822a6.925,6.925,0,0,0-6.129-.764,5.782,5.782,0,0,0-3.611,3.008,6.838,6.838,0,0,0-.88,2.861q.029,1.188,0,2.376a5.658,5.658,0,0,0,.684,3.453c-.146.75.457,1.03.873,1.439l2.532-3.263v-5.38l.9-.908Z" fill="#595a5c"/>
    <path id="Trazado_583747" data-name="Trazado 583747" d="M76.73,42.087l.846.849v5.2c.666,1.42,1.874,2.2,2.47,3.507,1.214-.972,1.377-2.334,1.581-3.606a20.451,20.451,0,0,0,.034-3.22,9.085,9.085,0,0,0-1.279-3.887,5.73,5.73,0,0,0-3.215-2.478c-2.739-1.191-5.907.178-7.4,1.757-.444.471-.529,1.173-1.146,1.594a13.984,13.984,0,0,0,4.03.274c1.358.033,2.718.007,4.078.007" fill="#595a5c"/>
    <path id="Trazado_583748" data-name="Trazado 583748" d="M65.679,79.789a.262.262,0,0,1-.269.334c-.339.021-.679.006-1.019.006H19.254c-.5-.556.464-.863.179-1.359h-.561c-.231.844-.464,1.7-.695,2.55,1.206.236,44.3.327,48.187.079-.411-.337-.35-.76-.346-1.173,0-.23,0-.463-.339-.437" fill="#c1c2c4"/>
    <path id="Trazado_583749" data-name="Trazado 583749" d="M16.4,44.805H9.645a13.081,13.081,0,0,0-.07,2.3c-.019.735,0,1.471,0,2.206a46.852,46.852,0,0,1-3.245,4.046,6.047,6.047,0,0,0,4.686.765,8.263,8.263,0,0,0,2.594-1.149,6.254,6.254,0,0,0,2.469-3.616c.468-1.55.136-3.038.325-4.554" fill="#fde1d5"/>
    <path id="Trazado_583750" data-name="Trazado 583750" d="M77.987,53.327l-3.133-3.975V44.884H68.028c.2,1.469-.11,2.911.31,4.422a6.526,6.526,0,0,0,2.3,3.619,6.785,6.785,0,0,0,4.51,1.394,6.336,6.336,0,0,0,2.843-.992" fill="#a45e21"/>
    <path id="Trazado_583751" data-name="Trazado 583751" d="M12.507,70.63H7.314a1.674,1.674,0,0,0,.211,1.676,6.576,6.576,0,0,0,3.166,3.075,7.452,7.452,0,0,0,2.771.668c3.839.008,7.679,0,11.61,0l.793-.981V74.13l-1.053-.793c.2.044.095,0-.008,0-2.711,0-5.423-.058-8.131.015a4.547,4.547,0,0,1-4.166-2.723" fill="#fde1d5"/>
    <path id="Trazado_583752" data-name="Trazado 583752" d="M77.239,71.731v-.937c-.038-.041-.076-.116-.115-.117q-2.6-.008-5.208-.005c-.325,1.013-1.332,1.453-1.78,2.132a9.39,9.39,0,0,1-4.368.528c-2.089.012-4.179,0-6.431,0-.153.226-.373.55-.754,1.114v.8l1.076.8c3.475,0,7.2-.045,10.928.031.96.02,1.8-.5,2.74-.37a9.471,9.471,0,0,0,2.89-2.3c.344-.534.66-1.086,1.022-1.685" fill="#a45e21"/>
    <path id="Trazado_583753" data-name="Trazado 583753" d="M79.961,63.486c.317.024.339-.19.339-.421V60.09c0-.17.073-.409-.011-.5a8.211,8.211,0,0,0-3.626-2.29,7.179,7.179,0,0,0-4.3.143,5.557,5.557,0,0,0-2.943,2.195,7.577,7.577,0,0,0-1.376,4.512c.041,2.131.01,4.263.01,6.4.767.238.868-.488,1.273-.687a1.22,1.22,0,0,0,.083-.311c.006-1.354.074-2.713-.009-4.062a5.484,5.484,0,0,1,6.159-5.73c1.867.22,4.046,1.75,4.4,3.727" fill="#fac433"/>
    <path id="Trazado_583754" data-name="Trazado 583754" d="M4.13,60.089v2.975c0,.231.022.446.34.421a4.417,4.417,0,0,1,2.478-3.046,4.943,4.943,0,0,1,4.933-.2,5.172,5.172,0,0,1,3.125,4.746c.03,1.579.005,3.16.005,4.749.333.343.6.777,1.061.944.143-.122.289-.19.29-.258.012-2.37.143-4.75-.031-7.107a6.191,6.191,0,0,0-2.773-4.964,6.915,6.915,0,0,0-9.417,1.247c-.084.1-.011.329-.011.5" fill="#76acd9"/>
    <path id="Trazado_583755" data-name="Trazado 583755" d="M34.054,51.6v-9.68q-6.419-6.411-12.881-12.875c-.337-.337-.874-.584-.721-1.22a.876.876,0,0,0-.614.483L32.705,41.158V51.492c.461.221.916.046,1.349.106" fill="#6eaa50"/>
    <path id="Trazado_583756" data-name="Trazado 583756" d="M77.555,67.852V64.374a3.016,3.016,0,0,0-1.835-1.83,2.832,2.832,0,0,0-3.544,1.9v3.412Z" fill="#e09f2c"/>
    <path id="Trazado_583757" data-name="Trazado 583757" d="M8.687,62.505c-.168.406-.671.251-.947.571a2.831,2.831,0,0,0-.9,2c.032.895.007,1.791.007,2.755h5.4V64.4a2.92,2.92,0,0,0-3.559-1.892" fill="#307bbc"/>
    <path id="Trazado_583758" data-name="Trazado 583758" d="M21.063,22.857a3.09,3.09,0,0,0-1.622-1.108c-1.686-.053-2.02.131-3.035,1.794-.039,1.749-.039,1.749,1.151,2.815l3.506-3.5" fill="#faded2"/>
    <path id="Trazado_583759" data-name="Trazado 583759" d="M26.233,39.031c-.057.562-.5.327-.769.329-2.69.018-5.381.011-8.072.011.261.392.329.9.793,1.289h9.66c.125-.316-.25-.375-.38-.554a3.232,3.232,0,0,0-.591-.595c-.207-.167-.3-.492-.641-.48" fill="#c0c1c3"/>
    <path id="Trazado_583760" data-name="Trazado 583760" d="M37.455,16.275c-.027-.389-.382-.531-.6-.761a4.949,4.949,0,0,1-1.1-5.356,1.047,1.047,0,0,0,.005-.336c-1.317.7-1.546,2-1.674,3.263-.124,1.227-.026,2.476-.026,3.9a3.813,3.813,0,0,0,.857-.713h2.543" fill="#d38e2a"/>
    <path id="Trazado_583761" data-name="Trazado 583761" d="M40.818,43.275c.656.292.646,1.172,1.317,1.555.9-.181.748-1.287,1.55-1.569a5.009,5.009,0,0,1-.732-2.332c-.133-.737-.778-1.359-.275-2.205h-.685a38.156,38.156,0,0,1-1.175,4.551" fill="#d3d4d5"/>
    <path id="Trazado_583762" data-name="Trazado 583762" d="M68.739,80.128c.677-.479,1.547-.311,2.259-.677.4-.2.931-.169,1.141-.682H68.548c-.453.576.486.861.191,1.359" fill="#f8c132"/>
    <path id="Trazado_583763" data-name="Trazado 583763" d="M32.694,21.145v1.049c.365.278.536.9,1.291.877V20.407c-.7-.221-.8.507-1.291.738" fill="#d6a9a2"/>
    <path id="Trazado_583764" data-name="Trazado 583764" d="M50.355,23.114c.8-.092.964-.59,1.352-.849v-1.1l-1.132-1.042a12.261,12.261,0,0,0-.22,2.989" fill="#d6a9a2"/>
    <path id="Trazado_583765" data-name="Trazado 583765" d="M12.291,78.77a4.4,4.4,0,0,0,3.4,1.019c-.108-.371.673-.39.091-1.019Z" fill="#73a9d7"/>
    <path id="Trazado_583766" data-name="Trazado 583766" d="M44.085,29.89H40.6c.813,1.032,1.588,1.586,3.482,0" fill="#f1d6cb"/>
    <path id="Trazado_583767" data-name="Trazado 583767" d="M20.355,10.523C18.5,9.368,16.608,8.4,14.87,7.183a2.056,2.056,0,0,0-.839-.411,9.427,9.427,0,0,0-1.037-.007c-2.794,3.706-5.656,7.5-8.5,11.282.439.881,1.417,1.006,2.054,1.8,2.451-3.263,4.837-6.44,7.232-9.631a1.2,1.2,0,0,1,1.038.218c1.368.9,2.808,1.692,4.205,2.55a2.576,2.576,0,0,0,1.973.542L28.12,6.408,26.3,4.587l-5.942,5.936" fill="#010000"/>
  </g>
</svg>
