<svg id="Grupo_845835" data-name="Grupo 845835" xmlns="http://www.w3.org/2000/svg" xmlns:xlink="http://www.w3.org/1999/xlink" width="84.465" height="76.007" viewBox="0 0 84.465 76.007">
  <defs>
    <clipPath id="clip-path">
      <rect id="Rectángulo_37590" data-name="Rectángulo 37590" width="84.465" height="76.007" transform="translate(0 0)" fill="none"/>
    </clipPath>
  </defs>
  <g id="Grupo_845834" data-name="Grupo 845834" clip-path="url(#clip-path)">
    <path id="Trazado_583768" data-name="Trazado 583768" d="M83.781,1.329A.97.97,0,0,0,84.462.7c.044-.366-.326-.438-.434-.7H.469C.308.252-.019.345,0,.693c.017.282,0,.566,0,.849q0,22.587,0,45.175c0,.109.017.218.027.337.237.126.3.487.653.471,1.107-.182,1.987-1.249,3.253-.82,20.92.085,41.836.025,62.752.033,4.25,0,8.5.094,12.748-.057a6.885,6.885,0,0,1,3.035.429c.155,3.4.128,6.9.018,10.3-1.1.632-2.084.383-3.023.476a8.255,8.255,0,0,0-1.53-.067q-36.333,0-72.664,0a9.932,9.932,0,0,0-1.7.065c-.993,0-2.028-.222-2.891.512a.978.978,0,0,0-.683.63c-.041.359.307.446.483.722h33.2c.166,1.418-.409,2.666-.649,3.962-.235,1.263-.474,2.525-.678,3.792a18.171,18.171,0,0,0-.684,3.979l-.625.582c-1.933,0-4.016-.006-6.1.016-.122,0-.241.224-.4.379v3.127l.426.424h34.5l.414-.413V72.445l-.465-.464H53.3l-.368-.368c-.776-3.936-1.541-7.813-2.339-11.86h1.653q15.229,0,30.459-.009c.582,0,1.268.259,1.722-.491V12.666c-.231-.122-.3-.484-.647-.467-.946-.018-1.05.7-1.166,1.369a12.674,12.674,0,0,0-.079,2.2q0,12.777-.009,25.553a4.377,4.377,0,0,1-.38,2.625,6.977,6.977,0,0,1-2.508.353,17.935,17.935,0,0,0-2.211-.065q-36.182,0-72.361-.008a5.076,5.076,0,0,1-3.119-.538c0-13.674,0-27.51,0-41.19A4.448,4.448,0,0,1,5,1.916Q41.182,1.9,77.363,1.9a15.68,15.68,0,0,0,2.21-.063c1.416-.059,2.9.412,4.208-.513"/>
    <path id="Trazado_583769" data-name="Trazado 583769" d="M79.694,44.807h3.25a.877.877,0,0,0,.1-.117.3.3,0,0,0,.053-.147q0-15.933,0-31.86c.265-.14.333-.5.681-.485V9.481a10.1,10.1,0,0,1,0-4.076V1.329H79.694a3.041,3.041,0,0,0-.573,2.241q-.02,19.5,0,38.995a3.043,3.043,0,0,0,.573,2.242" fill="#dfe3fe"/>
    <path id="Trazado_583770" data-name="Trazado 583770" d="M3.411,46.166H1.5c-.266.428-.022,1.228-.814,1.359v2.717a10.136,10.136,0,0,1,0,4.076v4.076H3.411a2.423,2.423,0,0,0,.554-1.726q.053-4.387,0-8.776a2.425,2.425,0,0,0-.554-1.726" fill="#fefefe"/>
    <path id="Trazado_583771" data-name="Trazado 583771" d="M83.781,5.405c-.342-.017-.411.336-.661.471V9.011c.25.134.319.487.661.47.342.017.411-.336.661-.47V5.876c-.25-.135-.319-.488-.661-.471" fill="#1e245d"/>
    <path id="Trazado_583772" data-name="Trazado 583772" d="M79.694,44.807V1.329H1.549C1.28,2.773,1.176,39.08,1.43,44.807Z" fill="#fefefe"/>
    <path id="Trazado_583773" data-name="Trazado 583773" d="M3.411,46.166V58.394H79.694a2.423,2.423,0,0,0,.554-1.726q.054-4.387,0-8.776a2.42,2.42,0,0,0-.554-1.726Z" fill="#f98740"/>
    <path id="Trazado_583774" data-name="Trazado 583774" d="M45.639,59.753H37.125a2.918,2.918,0,0,0-.642,1.527c-.6,2.964-1.211,5.925-1.787,8.894a2.625,2.625,0,0,0,.045,1.807H48.023a1.89,1.89,0,0,0,.322-1.755c-.594-3.039-1.184-6.079-1.822-9.109a1.781,1.781,0,0,0-.884-1.364" fill="#f98740"/>
    <path id="Trazado_583775" data-name="Trazado 583775" d="M27.931,74.7H58.419c.289-.389.144-.824.111-1.359h-30.6a.984.984,0,0,0,0,1.359" fill="#f96e34"/>
    <path id="Trazado_583776" data-name="Trazado 583776" d="M45.639,59.753c.062.365.319.632.373,1.041a23.94,23.94,0,0,0,.945,4.513c.189.561-.254,1.247.353,1.717-.025,1.69.835,3.254.713,4.957h3.313c.374-1.139-.176-2.234-.394-3.288-.155-.755-.3-1.566-.456-2.32a6,6,0,0,1-.42-2.552c-.664-.621-.075-1.583-.645-2.287-.219-.269-.036-.864-.036-1.271l-.511-.51Z" fill="#f96e34"/>
    <path id="Trazado_583777" data-name="Trazado 583777" d="M79.694,46.166V58.394h3.249a.879.879,0,0,0,.1-.117.3.3,0,0,0,.053-.147c0-3.949,0-7.9,0-11.964Z" fill="#f96e34"/>
    <path id="Trazado_583778" data-name="Trazado 583778" d="M34.742,71.981c.061-.365.318-.632.372-1.041a23.94,23.94,0,0,1,.945-4.513c.19-.561-.253-1.247.353-1.717-.024-1.69.835-3.254.713-4.957H35.586l-.427.446c-.562,3.934-1.634,7.745-2.208,11.782Z" fill="#fdfdfc"/>
    <path id="Trazado_583779" data-name="Trazado 583779" d="M27.931,74.7V73.34H26.044c-.284.39-.14.823-.11,1.359Z" fill="#fefefe"/>
    <path id="Trazado_583780" data-name="Trazado 583780" d="M36.274,23.062H23.209V10.038L22.64,9.47a14.631,14.631,0,0,0-6.917,1.711,13.518,13.518,0,0,0-6.271,6.728,14.382,14.382,0,0,0-.989,3.169A13.484,13.484,0,0,0,8.185,24a14.607,14.607,0,0,0,2.574,7.934,13.447,13.447,0,0,0,5.825,4.769,14.721,14.721,0,0,0,3.331,1.029,14.152,14.152,0,0,0,2.763.274,14.6,14.6,0,0,0,7.969-2.531,13.558,13.558,0,0,0,4.889-5.933,10.628,10.628,0,0,0,.95-3.185,19.122,19.122,0,0,0,.318-2.411c0-.419-.263-.586-.53-.887" fill="#1c225c"/>
    <path id="Trazado_583781" data-name="Trazado 583781" d="M25.024,8.134l-.455.454V21.244l.436.435H37.667l.438-.438a10.154,10.154,0,0,0-.551-4.044,11.026,11.026,0,0,0-2.3-4.3,12.873,12.873,0,0,0-5.32-3.942,11.463,11.463,0,0,0-4.906-.824" fill="#1d225c"/>
    <path id="Trazado_583782" data-name="Trazado 583782" d="M55.8,8.572l-.482-.48c-1.571.243-3.271-.349-4.877.344v15.5a1.167,1.167,0,0,0,1.034.5c1.3-.034,2.6-.012,3.874-.012.149-.15.269-.27.451-.45Z" fill="#1c225c"/>
    <path id="Trazado_583783" data-name="Trazado 583783" d="M64.019,23.927V12.7l-.5-.495h-4.45l-.493.541c0,3.485.008,7.046-.011,10.606a1.123,1.123,0,0,0,.486,1.027c1.481,0,3,.008,4.513-.016.122,0,.241-.224.451-.434" fill="#1c225c"/>
    <path id="Trazado_583784" data-name="Trazado 583784" d="M73.512,13.582h2.294l.565-.631a39.609,39.609,0,0,0-3.319-4.87,14.356,14.356,0,0,0-3.594,4.912l.475.526h2.195v13.09c.224.2.43.372.606.524.4.086.517-.227.778-.435Z" fill="#1c225c"/>
    <path id="Trazado_583785" data-name="Trazado 583785" d="M50.834,32.639l-.42.481c-.05.448.3.535.459.788H75.814l.459-.48c.095-.39-.2-.528-.431-.789Z" fill="#1c225c"/>
    <path id="Trazado_583786" data-name="Trazado 583786" d="M75.861,37.954l.42-.482c.05-.447-.3-.534-.459-.787H50.881c-.18.187-.333.349-.462.484-.1.39.2.522.431.785Z" fill="#1c225c"/>
    <path id="Trazado_583787" data-name="Trazado 583787" d="M63.6,27.085l.417-.478c.055-.453-.315-.526-.424-.791H42.707l-.462.484c-.1.39.205.522.432.785Z" fill="#1c225c"/>
    <path id="Trazado_583788" data-name="Trazado 583788" d="M47.673,23.927V16.774l-.5-.5h-4.45c-.133.149-.283.317-.455.508-.183,6.079-.148,6.742.416,7.59,1.5,0,3.018.008,4.534-.016.122,0,.241-.224.451-.434" fill="#1c225c"/>
    <path id="Trazado_583789" data-name="Trazado 583789" d="M42.713,36.655l-.472.541c-.051.447.3.534.459.788h4.508l.467-.489c.089-.46-.267-.664-.519-.814-.209-.125-.552-.026-.836-.026Z" fill="#1d235d"/>
    <path id="Trazado_583790" data-name="Trazado 583790" d="M42.661,32.639l-.419.481c-.051.447.3.534.458.788h4.509l.462-.484c.1-.389-.2-.522-.432-.785Z" fill="#1d235d"/>
    <path id="Trazado_583791" data-name="Trazado 583791" d="M17.714,11.859a5.387,5.387,0,0,0-2.81,1.395,12.58,12.58,0,0,0-4.913,6.9c-.477,1.91-.965,3.963-.11,5.962a10.433,10.433,0,0,0,3.351,6.594,11.66,11.66,0,0,0,5.412,3.365,12.7,12.7,0,0,0,4.178.585A12.771,12.771,0,0,0,32.3,25.849a1.587,1.587,0,0,0-.282-1.422H22.284c-.144-.268-.5-.337-.483-.679-.693-.7-1.749-.363-2.527-.883a5.036,5.036,0,0,1-.323-2.622c-.036-2.3.069-4.607-.062-6.9-.038-.661.126-1.714-1.175-1.479" fill="#33cbfe"/>
    <path id="Trazado_583792" data-name="Trazado 583792" d="M17.714,11.859h.514a.82.82,0,0,1,.114.121.3.3,0,0,1,.051.147c0,3.835,0,7.67,0,11.621H21.8V10.84c-.4,0-.8-.121-1.039.021-.951.56-2.225.1-3.048,1" fill="#2badfd"/>
    <path id="Trazado_583793" data-name="Trazado 583793" d="M32.017,24.427a9.709,9.709,0,0,1-.5,3.007,12.9,12.9,0,0,1-1.777,3.816,13.007,13.007,0,0,1-5.864,4.925c-.339.153-.984-.232-1.057.48a12.712,12.712,0,0,0,6.218-1.716,14.129,14.129,0,0,0,4.674-4.732,12.15,12.15,0,0,0,1.639-5.78Z" fill="#2badfc"/>
    <path id="Trazado_583794" data-name="Trazado 583794" d="M25.887,9.821q0,5.151,0,10.3c0,.045.05.091.129.227h7.36a1.077,1.077,0,0,0,.327-.929A12.315,12.315,0,0,0,27.5,10.2a2.134,2.134,0,0,0-1.611-.38" fill="#fccb32"/>
    <path id="Trazado_583795" data-name="Trazado 583795" d="M25.887,9.821A13.321,13.321,0,0,1,29.732,12.4a12.44,12.44,0,0,1,3.153,5.286,5.858,5.858,0,0,1,.494,2.663H36.7c.328-.993-.27-1.851-.472-2.756a8.942,8.942,0,0,0-2.155-3.864,11.175,11.175,0,0,0-5.418-3.694A14.048,14.048,0,0,0,26.664,9.5c-.249-.045-.716-.25-.777.319" fill="#fdb512"/>
    <path id="Trazado_583796" data-name="Trazado 583796" d="M53.131,9.481H51.777c-.017,2.233-.006,4.471-.008,6.709s0,4.507,0,6.766c.47.229.927.051,1.362.112a2.615,2.615,0,0,0,.561-1.9q.037-4.9,0-9.8a2.615,2.615,0,0,0-.561-1.9" fill="#33cbfe"/>
    <path id="Trazado_583797" data-name="Trazado 583797" d="M53.131,9.481V23.068h1.354c.017-2.233.006-4.471.008-6.709s0-4.507,0-6.766c-.47-.229-.927-.051-1.362-.112" fill="#2badfd"/>
    <path id="Trazado_583798" data-name="Trazado 583798" d="M61.3,13.557H60.1a.782.782,0,0,0-.108.119.3.3,0,0,0-.052.147q0,4.563,0,9.133c.471.229.927.051,1.362.112a2.071,2.071,0,0,0,.529-1.387q.106-3.369,0-6.737a2.071,2.071,0,0,0-.529-1.387" fill="#33cbfe"/>
    <path id="Trazado_583799" data-name="Trazado 583799" d="M61.3,13.557v9.511h1.2a.833.833,0,0,0,.108-.119.3.3,0,0,0,.052-.147q0-4.563,0-9.133c-.471-.229-.927-.051-1.362-.112" fill="#2badfd"/>
    <path id="Trazado_583800" data-name="Trazado 583800" d="M71.465,12.146H74.2A14.424,14.424,0,0,0,72.909,10l-1.444,2.149" fill="#f0c234"/>
    <path id="Trazado_583801" data-name="Trazado 583801" d="M44.958,17.633H43.647a22.853,22.853,0,0,0-.048,2.633c-.016.895,0,1.791,0,2.691.472.226.928.051,1.362.111a6.15,6.15,0,0,0,0-5.435" fill="#33cbfe"/>
    <path id="Trazado_583802" data-name="Trazado 583802" d="M44.958,17.633v5.435h1.311a22.853,22.853,0,0,0,.048-2.633c.016-.895,0-1.791,0-2.691-.472-.227-.928-.051-1.362-.111" fill="#2badfd"/>
  </g>
</svg>
