<svg xmlns="http://www.w3.org/2000/svg" xmlns:xlink="http://www.w3.org/1999/xlink" width="110.781" height="111" viewBox="0 0 110.781 111">
  <defs>
    <clipPath id="clip-path">
      <rect id="Rectángulo_37595" data-name="Rectángulo 37595" width="110.781" height="111" fill="none"/>
    </clipPath>
  </defs>
  <g id="Grupo_845839" data-name="Grupo 845839" transform="translate(0 0)">
    <g id="Grupo_845838" data-name="Grupo 845838" transform="translate(0 0)" clip-path="url(#clip-path)">
      <path id="Trazado_583899" data-name="Trazado 583899" d="M17.959,14.764c-3.933,0-7.753.016-11.573-.01a3.274,3.274,0,0,0-2.647.829c-.529.4.047,1.218-.653,1.5,1.322,3.136,4.266,4.843,6.4,7.485A42.655,42.655,0,0,0,5.253,31.89a55.214,55.214,0,0,0-3.076,8.254C1.586,42.1,1.286,44.116.829,46.095.524,47.424.71,48.778.4,50.033c-.748,3.048-.154,6.11-.4,9.149-.069.867.548,1.539.48,2.426a4.661,4.661,0,0,0,.323,2.452,10.473,10.473,0,0,1,.428,2.83A48.316,48.316,0,0,0,2.9,72.935a51.009,51.009,0,0,0,4.183,9.748,38.725,38.725,0,0,0,3.195,4.957,31.3,31.3,0,0,0,4.447,5.322c0,3.967-.007,7.936,0,11.9.005,1.78.309,2.163,2.051,2.763.123.041.207.2.273.261,3.146-1.318,4.838-4.3,7.449-6.4a48.786,48.786,0,0,0,7.92,4.466,65.343,65.343,0,0,0,9.449,3.3c2.614.577,5.234,1.007,7.886,1.384a42.719,42.719,0,0,0,8.482.256,59.267,59.267,0,0,0,8.354-1.113c2.54-.511,4.933-1.365,7.385-2.079a39.358,39.358,0,0,0,7.678-3.381,51.2,51.2,0,0,0,8.14-5.458,32.452,32.452,0,0,0,2.979-2.633h12.492c1.685-.373,2.319-1.177,2.082-3.05-1-2.486-4.036-4.133-6.051-6.754a50.873,50.873,0,0,0,4.47-7.965,53.062,53.062,0,0,0,3.245-9.487c.752-.733.086-1.85.613-2.552.6-.8.021-1.726.6-2.6.432-.651-.13-1.885.126-2.747.665-2.246.346-4.515.356-6.768.007-1.239.3-2.486-.292-3.767-.506-1.106.2-2.474-.5-3.7-.389-.677.154-1.581-.4-2.447a7.55,7.55,0,0,1-.444-2.384,46.222,46.222,0,0,0-1.977-6.348,63.622,63.622,0,0,0-3-6.55,46.69,46.69,0,0,0-3.687-5.831,28.1,28.1,0,0,0-4.314-5.208V5.235c-.422-.556-.434-1.266-.862-1.491-.539-.446-1.2.029-1.477-.587-.1-.085-.169.054-.311.1a8.252,8.252,0,0,0-3.16,2.307c-1.3,1.355-2.644,2.663-3.995,4.015A35.409,35.409,0,0,0,78.075,4.89a44.063,44.063,0,0,0-9.29-3.174A40.519,40.519,0,0,1,64.821.854C63.5.441,62.143.728,60.892.415c-2.968-.74-5.954-.152-8.914-.408-.949-.081-1.69.539-2.635.5a4.122,4.122,0,0,0-2.459.309,8.02,8.02,0,0,1-2.813.434,37,37,0,0,0-7.2,1.992,43.271,43.271,0,0,0-9.074,4.183,54.433,54.433,0,0,0-6.757,4.629C20,12.9,19,13.769,17.959,14.764" transform="translate(0 0)"/>
      <path id="Trazado_583900" data-name="Trazado 583900" d="M65.992,72.928V55.966a3.849,3.849,0,0,1,2.623-1.557c2.778,1.686,4.691,4.323,7.153,6.514.389-1.253,1.08-2.352,1.574-3.57.486-1.194.363-2.573,1.2-3.62-.219-1.422.76-2.721.432-4.152-.218-.943.612-1.666.468-2.644a17.372,17.372,0,0,0-.418-3.516c-.358-1.014.282-2.257-.482-3.269a22.78,22.78,0,0,0-2.39-7.893,28.184,28.184,0,0,0-2.97-5.042c-.219-.3-.149-.682-.472-.957-5,0-10.039,0-15.079,0-2.2,0-2.644-.351-3.331-2.625,1.659-2.8,4.37-4.71,6.479-7.169a27.762,27.762,0,0,0-5.033-2.037c-1.19-.254-2.419-.477-3.554-.824-1.208-.37-2.457.019-3.5-.413a6.081,6.081,0,0,0-3.3-.316c-1.9.273-3.818.368-5.712.774A31.881,31.881,0,0,0,33.7,15.413a25.554,25.554,0,0,0-6.83,3.886c-.142.123-.432-.078-.62.278V36.254a4.386,4.386,0,0,1-2.4,1.768,11.84,11.84,0,0,1-3.874-3.053c-1.166-1.17-2.32-2.352-3.463-3.511a22.325,22.325,0,0,0-2.725,7.132,11,11,0,0,0-.577,3.684c.154,1.543-.639,3.01-.425,4.587.551,4.047.919,8.128,2.607,11.922a31.663,31.663,0,0,0,3.886,6.839c.076.1.067.259.117.465H36.312A4.007,4.007,0,0,1,37.917,68.7c-1.605,2.83-4.34,4.741-6.457,7.167a20.965,20.965,0,0,0,7.193,2.747,16.473,16.473,0,0,0,4.126.587c1.287-.028,2.593.359,3.926.42,1.028.047,1.835-.62,2.853-.51a12.034,12.034,0,0,0,2.858-.313c.959-.13,1.864-.486,2.825-.606a13.683,13.683,0,0,0,2.666-.829c1.059-.375,1.925-1.258,3.141-1.285,1.1-1.165,2.742-1.531,3.884-2.619a3.213,3.213,0,0,1,1.061-.529" transform="translate(9.279 9.306)" fill="#f7f9fa"/>
      <path id="Trazado_583901" data-name="Trazado 583901" d="M14.222,12.881h8.484a3.141,3.141,0,0,1,2.447,3.559c-.085,1.709-.019,3.423-.019,5.344,1.187-.522,1.987-1.261,2.98-1.652a48.652,48.652,0,0,1,8.11-2.882,57.228,57.228,0,0,1,5.911-.911,14.8,14.8,0,0,1,3.713-.314,84.462,84.462,0,0,1,9.475,1.595,47.025,47.025,0,0,1,7.984,3.193c1.07.52,2.345,1.209,2.5,2.953-.881,2.263-3.2,3.507-4.694,5.42,1.579.344,11.319.442,20.162.19V9.274L78.1,12.456c-.859.09-1.4-.059-1.692.482-2.433-1.071-4.456-2.808-6.752-4.081A25.266,25.266,0,0,0,65.3,6.836c-1.508-.5-2.82-1.565-4.489-1.679-.644-.779-1.679-.337-2.485-.812a7.772,7.772,0,0,0-2.371-.549c-1.821-.354-3.672-.543-5.472-.89a35.321,35.321,0,0,0-9.125-.249c-2.334.156-4.8.156-7.034,1.2a14.407,14.407,0,0,0-5.5,1.349A45.016,45.016,0,0,0,19.9,9.231c-1.847,1.178-3.661,2.409-5.678,3.651" transform="translate(10.351 1.807)" fill="#99cc68"/>
      <path id="Trazado_583902" data-name="Trazado 583902" d="M26.5,51.858c.992-2.357,3.288-3.613,4.841-5.631H11.058V66.292c.216-.136-.159.128.126.168.047.005.111-.043.15-.083,1.113-1.127,2.224-2.255,3.272-3.317.492-.117,1.009.233,1.211-.37a12.982,12.982,0,0,1,3.514,1.9,38.422,38.422,0,0,0,6.83,3.844,50.518,50.518,0,0,0,7.91,2.822c1.46.314,2.918.648,4.38.947,1.254.256,2.592.026,3.7.441,1.358.51,2.647.252,3.958.335,1.292.083,2.6-.085,3.886.045,1.436.147,2.72-.553,4.148-.51a15,15,0,0,0,3.775-.719,10.843,10.843,0,0,0,2.789-.586,12.654,12.654,0,0,1,2.509-.727c1.654-.541,3.252-1.237,4.852-1.878a38.2,38.2,0,0,0,4.62-2.448c1.819-1.04,3.421-2.417,5.318-3.307a.549.549,0,0,0-.085-.15.3.3,0,0,0-.173-.1c-2.809-.005-5.619,0-8.368,0-1.816-.562-2.248-1.864-2.168-3.559s.017-3.411.017-5.37a21.7,21.7,0,0,1-2.5,1.539c-1.524.665-3.171,1.14-4.62,1.873-1.55.781-3.309.682-4.753,1.591-1.351-.237-2.559.724-3.919.461-1.419-.273-2.7.657-4.145.448-3.381-.487-6.78-.676-10.123-1.638a37.352,37.352,0,0,1-7.794-3.134c-1.187-.653-2.455-1.159-2.872-2.951" transform="translate(8.048 33.645)" fill="#ea5463"/>
      <path id="Trazado_583903" data-name="Trazado 583903" d="M62.619,14.249v8.509a3.134,3.134,0,0,1-3.558,2.457c-1.7-.086-3.414-.019-5.082-.019-.252.911.544,1.049.771,1.52,1.1,2.286,1.809,4.741,3.036,6.97-.093,1.612.67,3.06.94,4.61.245,1.4.048,2.856.437,4.14a8.455,8.455,0,0,1,.3,3.95c-.544,3.013-.721,6.068-1.567,9.068a54.3,54.3,0,0,1-3.184,8,5.4,5.4,0,0,1-1.291,1.837,6.913,6.913,0,0,1-1.439.738c-2.505-.936-3.689-3.331-5.641-4.748C46,62.868,45.9,72.919,46.162,81.454h20.07l-3.2-3.207c-.074-.843.067-1.387-.46-1.667,1.047-2.452,2.773-4.482,4.078-6.766a43.946,43.946,0,0,0,2.815-6.192c.693-1.818,1.242-3.68,1.8-5.541.339-1.111.411-2.255.733-3.362.38-1.311.3-2.8.574-4.117a32.963,32.963,0,0,0,.247-9.144c-.166-2.338-.13-4.817-1.194-7.048A14.372,14.372,0,0,0,70.277,28.9a45.645,45.645,0,0,0-4.015-8.955c-1.175-1.849-2.409-3.66-3.642-5.7" transform="translate(33.491 10.371)" fill="#fccc56"/>
      <path id="Trazado_583904" data-name="Trazado 583904" d="M23.563,26.623c.563-.188.755.66,1.317.473q2.141,2.143,4.28,4.288c.313-1.773.4-14.507.145-20.286H9.155l3.321,3.328c.27.536-.29,1.32.382,1.558-.819,2.414-2.616,4.238-3.777,6.455a33.933,33.933,0,0,0-2.2,4.506c-.548,1.574-1.235,3.1-1.831,4.655-.318.831-.121,1.738-.7,2.536a3.155,3.155,0,0,0-.482,2.383c-.874.746-.147,1.875-.684,2.756-.5.812.041,1.852-.2,2.726-.824,2.953-.5,5.971-.32,8.917.147,2.419.2,4.948,1.206,7.264a13.9,13.9,0,0,0,1.356,5.5,48.916,48.916,0,0,0,4.019,8.957,55.315,55.315,0,0,1,3.544,5.707,25.361,25.361,0,0,0,.156-4.525c.033-1.512.009-3.025.009-4.112.613-2.111,1.92-2.431,3.514-2.367,1.7.069,3.409.016,5.384.016-.622-.988-1.133-1.695-1.536-2.46-1-1.89-1.591-3.957-2.453-5.913A27.426,27.426,0,0,1,16.83,54.65c-.384-1.512-.211-3.1-.518-4.567a9.6,9.6,0,0,1-.3-3.3,71.924,71.924,0,0,1,1.55-9.513,41.947,41.947,0,0,1,3.188-8c.612-1.177,1.23-2.457,2.813-2.647" transform="translate(1.777 8.078)" fill="#4fbfe7"/>
      <path id="Trazado_583905" data-name="Trazado 583905" d="M38.264,58.054V55.73c2.55-.9,4.885-2.079,6.275-4.57a7.915,7.915,0,0,0-.119-8.356c-1.773-2.785-3.875-3.641-6.408-4.276a17.9,17.9,0,0,0-3.723-.373,6.857,6.857,0,0,1-3.371-3.4V32.993a8.115,8.115,0,0,1,2.288-2.982c3.82-1.384,6.388.045,8.719,2.486H43.28l1.462-1.635V29.292a10.635,10.635,0,0,0-6.415-3.808V23.071c-.446-1.116-.933-2-2.208-2.212a4.015,4.015,0,0,0-2.158,1.527v2.5c-.6.879-1.539.745-2.255,1.114a9.525,9.525,0,0,0-5.047,6.44,7.345,7.345,0,0,0,2,6.7,9.831,9.831,0,0,0,4.767,3.119,8.7,8.7,0,0,0,2.058.213,9.743,9.743,0,0,1,4.225,1.294c.824.444.6,1.633,1.593,1.806,0,.612-.009,1.109,0,1.607a3.676,3.676,0,0,1-2.352,3.558c-3.088,1.56-4.456.84-6.925-.871-.347-.24-.638-.836-.933-.822-.524.024-.636-.629-1.118-.489-.634-.209-.926.589-1.514.513a3.578,3.578,0,0,0-.527,2.778,12.3,12.3,0,0,0,5.98,3.8c.157.917-.164,2.072.453,3.082.409.674,1.263.539,1.581,1.178.907-.511,1.838-.717,2.319-1.856" transform="translate(19.27 15.182)"/>
    </g>
  </g>
</svg>
