<svg xmlns="http://www.w3.org/2000/svg" xmlns:xlink="http://www.w3.org/1999/xlink" width="63.876" height="64.003" viewBox="0 0 63.876 64.003">
  <defs>
    <clipPath id="clip-path">
      <rect id="Rectángulo_38945" data-name="Rectángulo 38945" width="63.876" height="64.003" fill="none"/>
    </clipPath>
  </defs>
  <g id="Grupo_849621" data-name="Grupo 849621" transform="translate(0 0)">
    <g id="Grupo_849620" data-name="Grupo 849620" transform="translate(0 0)" clip-path="url(#clip-path)">
      <path id="Trazado_585964" data-name="Trazado 585964" d="M10.355,8.513c-2.267,0-4.47.009-6.673-.006a1.888,1.888,0,0,0-1.526.478c-.3.231.027.7-.377.865.762,1.808,2.46,2.793,3.689,4.316a24.6,24.6,0,0,0-2.44,4.222,31.836,31.836,0,0,0-1.773,4.759c-.341,1.128-.514,2.29-.777,3.431-.176.766-.069,1.547-.246,2.27C-.2,30.606.143,32.372,0,34.124c-.04.5.316.888.277,1.4a2.688,2.688,0,0,0,.186,1.414,6.039,6.039,0,0,1,.247,1.632,27.859,27.859,0,0,0,.957,3.486,29.412,29.412,0,0,0,2.412,5.621,22.329,22.329,0,0,0,1.842,2.858A18.046,18.046,0,0,0,8.489,53.6c0,2.287,0,4.576,0,6.864,0,1.026.178,1.247,1.183,1.593.071.024.12.114.157.15,1.814-.76,2.79-2.477,4.295-3.688A28.129,28.129,0,0,0,18.693,61.1,37.676,37.676,0,0,0,24.141,63c1.507.333,3.018.581,4.547.8a24.632,24.632,0,0,0,4.891.147,34.174,34.174,0,0,0,4.817-.642c1.465-.295,2.844-.787,4.258-1.2a22.694,22.694,0,0,0,4.427-1.95,29.521,29.521,0,0,0,4.693-3.147,18.713,18.713,0,0,0,1.718-1.518h7.2c.971-.215,1.337-.678,1.2-1.758-.579-1.434-2.327-2.383-3.489-3.894a29.334,29.334,0,0,0,2.577-4.593,30.6,30.6,0,0,0,1.871-5.47c.433-.422.05-1.067.354-1.471.346-.462.012-1,.346-1.5.249-.376-.075-1.087.073-1.584a13.562,13.562,0,0,0,.205-3.9,4.717,4.717,0,0,0-.168-2.172c-.292-.638.117-1.427-.288-2.131-.224-.391.089-.912-.229-1.411a4.353,4.353,0,0,1-.256-1.375,26.651,26.651,0,0,0-1.14-3.66,36.682,36.682,0,0,0-1.733-3.777,26.921,26.921,0,0,0-2.126-3.362,16.2,16.2,0,0,0-2.488-3V3.019c-.243-.321-.25-.73-.5-.86-.311-.257-.69.017-.852-.339-.059-.049-.1.031-.179.06a4.758,4.758,0,0,0-1.822,1.33c-.748.781-1.524,1.535-2.3,2.315a20.417,20.417,0,0,0-4.733-2.706A25.407,25.407,0,0,0,39.661.989a23.364,23.364,0,0,1-2.285-.5C36.617.254,35.832.419,35.11.239,33.4-.187,31.677.151,29.971,0c-.547-.047-.974.311-1.519.287a2.377,2.377,0,0,0-1.418.178,4.624,4.624,0,0,1-1.622.25,21.332,21.332,0,0,0-4.154,1.149A24.95,24.95,0,0,0,16.025,4.28a31.386,31.386,0,0,0-3.9,2.669c-.595.491-1.176.99-1.773,1.564" transform="translate(0 0)"/>
      <path id="Trazado_585965" data-name="Trazado 585965" d="M43.449,47.464v-9.78a2.219,2.219,0,0,1,1.512-.9c1.6.972,2.7,2.493,4.125,3.756.224-.722.623-1.356.908-2.058S50.2,37,50.683,36.4c-.127-.82.438-1.569.249-2.394-.126-.544.353-.96.27-1.524a10.016,10.016,0,0,0-.241-2.027c-.206-.585.162-1.3-.278-1.885A13.135,13.135,0,0,0,49.3,24.015a16.251,16.251,0,0,0-1.713-2.907c-.127-.174-.086-.394-.272-.552-2.883,0-5.788,0-8.694,0-1.271,0-1.524-.2-1.921-1.513.956-1.613,2.52-2.716,3.736-4.133a16.008,16.008,0,0,0-2.9-1.175c-.686-.146-1.395-.275-2.049-.475-.7-.213-1.417.011-2.015-.238a3.507,3.507,0,0,0-1.9-.182c-1.1.157-2.2.212-3.294.446a18.383,18.383,0,0,0-3.45,1.016,14.734,14.734,0,0,0-3.938,2.241c-.082.071-.249-.045-.358.16v9.616a2.529,2.529,0,0,1-1.383,1.019,6.827,6.827,0,0,1-2.234-1.76c-.672-.674-1.338-1.356-2-2.024a12.873,12.873,0,0,0-1.571,4.113,6.342,6.342,0,0,0-.333,2.124c.089.89-.369,1.735-.245,2.645a24.706,24.706,0,0,0,1.5,6.874,18.257,18.257,0,0,0,2.241,3.943c.044.056.039.149.068.268h9.753a2.311,2.311,0,0,1,.926,1.506c-.926,1.632-2.5,2.734-3.723,4.132a12.088,12.088,0,0,0,4.147,1.584,9.5,9.5,0,0,0,2.379.339c.742-.016,1.5.207,2.264.242.593.027,1.058-.358,1.645-.294a6.939,6.939,0,0,0,1.648-.18c.553-.075,1.075-.28,1.629-.35a7.89,7.89,0,0,0,1.537-.478c.611-.216,1.11-.725,1.811-.741.636-.671,1.581-.883,2.24-1.51a1.853,1.853,0,0,1,.612-.3" transform="translate(-0.048 -0.048)" fill="#f7f9fa"/>
      <path id="Trazado_585966" data-name="Trazado 585966" d="M14.222,8.479h4.892a1.811,1.811,0,0,1,1.411,2.052c-.049.985-.011,1.974-.011,3.081.684-.3,1.146-.727,1.719-.952A28.053,28.053,0,0,1,26.908,11a33,33,0,0,1,3.408-.525,8.532,8.532,0,0,1,2.141-.181,48.7,48.7,0,0,1,5.464.92,27.115,27.115,0,0,1,4.6,1.841,2.087,2.087,0,0,1,1.442,1.7c-.508,1.305-1.847,2.022-2.707,3.125a109.094,109.094,0,0,0,11.625.11V6.4L51.054,8.233c-.5.052-.81-.034-.975.278-1.4-.618-2.569-1.619-3.893-2.353a14.568,14.568,0,0,0-2.509-1.166,10.71,10.71,0,0,0-2.588-.968c-.372-.449-.968-.194-1.433-.468a4.481,4.481,0,0,0-1.367-.317c-1.05-.2-2.117-.313-3.155-.513a20.366,20.366,0,0,0-5.261-.143,11.036,11.036,0,0,0-4.056.692,8.307,8.307,0,0,0-3.169.778A25.956,25.956,0,0,0,17.5,6.373c-1.065.679-2.111,1.389-3.274,2.105" transform="translate(-0.053 -0.009)" fill="#99cc68"/>
      <path id="Trazado_585967" data-name="Trazado 585967" d="M19.965,49.474c.572-1.359,1.9-2.083,2.792-3.247h-11.7V57.8c.125-.079-.092.074.073.1.027,0,.064-.025.087-.048L13.1,55.933c.284-.068.582.134.7-.213a7.486,7.486,0,0,1,2.026,1.1,22.155,22.155,0,0,0,3.938,2.217,29.128,29.128,0,0,0,4.561,1.627c.842.181,1.683.374,2.526.546a15.169,15.169,0,0,1,2.131.254,7.243,7.243,0,0,0,2.282.193c.745.048,1.5-.049,2.241.026.828.085,1.568-.319,2.392-.294a8.649,8.649,0,0,0,2.177-.414,6.252,6.252,0,0,0,1.608-.338,7.3,7.3,0,0,1,1.447-.419c.953-.312,1.875-.713,2.8-1.083a22.028,22.028,0,0,0,2.664-1.412c1.049-.6,1.973-1.394,3.066-1.907a.316.316,0,0,0-.049-.087.173.173,0,0,0-.1-.057c-1.62,0-3.24,0-4.825,0a1.751,1.751,0,0,1-1.25-2.052c.045-.981.01-1.967.01-3.1a12.509,12.509,0,0,1-1.44.888c-.879.384-1.828.658-2.664,1.08-.894.45-1.908.394-2.741.918-.779-.136-1.475.417-2.26.266-.818-.157-1.556.379-2.39.258a42.594,42.594,0,0,1-5.837-.944,21.537,21.537,0,0,1-4.494-1.807c-.684-.377-1.416-.668-1.656-1.7" transform="translate(-0.041 -0.173)" fill="#ea5463"/>
      <path id="Trazado_585968" data-name="Trazado 585968" d="M55.589,14.249v4.907a1.807,1.807,0,0,1-2.051,1.417c-.982-.05-1.969-.011-2.93-.011-.145.525.314.6.444.877.633,1.318,1.043,2.734,1.75,4.019a11.6,11.6,0,0,0,.542,2.658A21.556,21.556,0,0,0,53.6,30.5a4.876,4.876,0,0,1,.17,2.277c-.314,1.737-.415,3.5-.9,5.228a31.309,31.309,0,0,1-1.836,4.615,3.111,3.111,0,0,1-.744,1.059,3.986,3.986,0,0,1-.83.425c-1.445-.54-2.127-1.921-3.253-2.738A111.9,111.9,0,0,0,46.1,53H57.672l-1.845-1.849c-.043-.486.039-.8-.265-.961a39.1,39.1,0,0,1,2.351-3.9,25.339,25.339,0,0,0,1.623-3.571c.4-1.048.716-2.122,1.039-3.2.2-.641.237-1.3.422-1.939.219-.756.172-1.613.331-2.374a19.006,19.006,0,0,0,.142-5.272,10.965,10.965,0,0,0-.688-4.064A8.287,8.287,0,0,0,60,22.7a26.318,26.318,0,0,0-2.315-5.164c-.677-1.066-1.389-2.11-2.1-3.286" transform="translate(-0.172 -0.053)" fill="#fccc56"/>
      <path id="Trazado_585969" data-name="Trazado 585969" d="M14.62,20.05c.325-.109.435.381.759.273L17.847,22.8c.18-1.022.233-8.365.084-11.7H6.312l1.915,1.919c.155.309-.167.761.22.9-.472,1.392-1.508,2.444-2.178,3.722A19.566,19.566,0,0,0,5,20.237c-.316.908-.712,1.787-1.056,2.684-.183.479-.07,1-.406,1.463a1.819,1.819,0,0,0-.278,1.374c-.5.43-.085,1.081-.395,1.589-.286.468.024,1.068-.117,1.572a15.392,15.392,0,0,0-.184,5.142,12.105,12.105,0,0,0,.7,4.188,8.015,8.015,0,0,0,.782,3.173,28.205,28.205,0,0,0,2.317,5.165A31.894,31.894,0,0,1,8.4,49.877a14.623,14.623,0,0,0,.09-2.609c.019-.872,0-1.744,0-2.371a1.716,1.716,0,0,1,2.026-1.365c.981.04,1.966.009,3.1.009-.359-.57-.654-.977-.886-1.419-.575-1.09-.918-2.281-1.415-3.409a15.814,15.814,0,0,1-.592-2.5c-.221-.872-.122-1.787-.3-2.633a5.538,5.538,0,0,1-.172-1.9,41.472,41.472,0,0,1,.894-5.485A24.187,24.187,0,0,1,13,21.577c.353-.678.709-1.417,1.622-1.526" transform="translate(-0.009 -0.041)" fill="#4fbfe7"/>
      <path id="Trazado_585970" data-name="Trazado 585970" d="M33.273,42.306v-1.34a6.092,6.092,0,0,0,3.618-2.635,4.564,4.564,0,0,0-.069-4.818,5.387,5.387,0,0,0-3.7-2.466,10.32,10.32,0,0,0-2.147-.215,3.954,3.954,0,0,1-1.944-1.963V27.856a4.679,4.679,0,0,1,1.319-1.72c2.2-.8,3.683.026,5.027,1.434h.782l.843-.942v-.906a6.132,6.132,0,0,0-3.7-2.2V22.134c-.257-.644-.538-1.153-1.273-1.275a2.315,2.315,0,0,0-1.244.881v1.442c-.345.507-.888.429-1.3.643a5.492,5.492,0,0,0-2.91,3.713A4.235,4.235,0,0,0,27.733,31.4a5.668,5.668,0,0,0,2.749,1.8,5.016,5.016,0,0,0,1.187.123,5.618,5.618,0,0,1,2.436.746c.475.256.348.941.919,1.041,0,.353,0,.64,0,.927a2.12,2.12,0,0,1-1.356,2.051c-1.78.9-2.569.484-3.993-.5-.2-.138-.368-.482-.538-.474-.3.014-.367-.363-.645-.282-.366-.121-.534.34-.873.3a2.063,2.063,0,0,0-.3,1.6,7.094,7.094,0,0,0,3.448,2.192c.091.529-.095,1.195.261,1.777.236.389.728.311.912.679.523-.295,1.06-.413,1.337-1.07" transform="translate(-0.099 -0.078)"/>
    </g>
  </g>
</svg>
