<svg xmlns="http://www.w3.org/2000/svg" xmlns:xlink="http://www.w3.org/1999/xlink" width="76.411" height="76.622" viewBox="0 0 76.411 76.622">
  <defs>
    <clipPath id="clip-path">
      <rect id="Rectángulo_38944" data-name="Rectángulo 38944" width="76.411" height="76.622" fill="none"/>
    </clipPath>
  </defs>
  <g id="Grupo_849619" data-name="Grupo 849619" transform="translate(0 0)">
    <g id="Grupo_849618" data-name="Grupo 849618" transform="translate(0 0)" clip-path="url(#clip-path)">
      <path id="Trazado_585952" data-name="Trazado 585952" d="M4.987,34.592c-1.625-.91-3.4-1.453-4.774-2.6C0,31.012.574,30.288.786,29.485a32.407,32.407,0,0,1,1.054-3.152c.4-1.04.687-2.119.975-3.182.176-.645.587-1.166.719-1.853a18.81,18.81,0,0,1,5.507.53,30.965,30.965,0,0,1,4.344-6.084c-.667-1.784-1.858-3.234-2.256-5.137,3.038-2.191,6.028-4.349,9.013-6.505,1.773.881,2.741,2.51,4.226,3.7a40.613,40.613,0,0,1,7.247-2.472c-.219-.8.386-1.523.289-2.338-.1-.8.7-1.448.263-2.169.321-.336.56-.589.788-.826h10.5l.774.776c-.266.769.378,1.463.263,2.237-.117.8.7,1.435.182,2.258,2.555.846,5.094,1.279,7.336,2.569,1.448-1.166,2.453-2.753,4.161-3.7,3.115,1.9,5.98,4.234,8.915,6.324a1.859,1.859,0,0,1-.2,1.47c-.642,1.174-1.2,2.4-1.806,3.635.127.662.677,1.075,1.115,1.584a23.6,23.6,0,0,1,3.182,4.632c1.52-.231,3.043-.462,4.614-.7.14.273.533.129.96.222,1.2,3.446,2.247,7,3.465,10.5a4.985,4.985,0,0,1-.784.672c-1.356.7-2.726,1.366-4.145,2.074a22.413,22.413,0,0,1,0,7.5c.773.4,1.592.809,2.4,1.236a5.7,5.7,0,0,1,2.351,1.477,5.272,5.272,0,0,1-.635,2.592c-.727,2.1-1.436,4.2-2.032,6.336-.167.6-.612,1.045-.692,1.651a18.107,18.107,0,0,1-5.473-.547,36.568,36.568,0,0,1-4.376,6.14c.709,1.741,1.831,3.164,2.242,5.012-1.48,1.154-2.975,2.211-4.463,3.291s-3.033,2.114-4.542,3.268c-1.754-.831-2.739-2.513-4.209-3.677a24.755,24.755,0,0,1-6.9,2.209l-.264.264c-.256,1.522-.508,3.02-.788,4.687-.129.1-.4.323-.761.622H32.92c-.152-.2-.365-.472-.654-.844-.221-1.333-.47-2.834-.732-4.421a4.918,4.918,0,0,0-2.132-.669,30.229,30.229,0,0,1-5.03-1.844c-1.415,1.089-2.43,2.736-4.129,3.684-3.15-1.985-6.03-4.3-8.946-6.375a2.152,2.152,0,0,1,.247-1.513c.629-1.182,1.219-2.386,1.853-3.639-1.5-2.042-3.314-3.878-4.4-6.237-.441.059-.754.41-1.242.341-1.015-.139-1.972.431-3,.334-.4.533-.722-.543-1.137.147C2.181,51.978,1.321,48.373,0,44.9c1.478-1.453,3.373-1.86,4.95-2.873a.788.788,0,0,0-.318-.888c.2-2.177-.3-4.4.355-6.552" transform="translate(0 0)" fill="#252525"/>
      <path id="Trazado_585953" data-name="Trazado 585953" d="M4.079,52.04c-.809-2.413-1.572-4.689-2.351-7.013.1-.547.714-.53,1.087-.773a21.643,21.643,0,0,1,2.12-1.008A2.968,2.968,0,0,0,6.1,42.4c.433-1.241-.273-2.284-.2-3.413a25.727,25.727,0,0,0,0-3.291c-.07-1.127.63-2.172.2-3.435-1.142-1.169-3-1.423-4.391-2.538.774-2.313,1.548-4.625,2.351-7.018,1.731-.028,3.318.744,5.008.547a4.777,4.777,0,0,0,.853-1.115,21.165,21.165,0,0,1,4-5.527,3.312,3.312,0,0,0,.855-1.145,1.308,1.308,0,0,0,.027-1.109c-.64-1.284-1.306-2.555-2-3.906,1.764-.918,3.171-2.445,4.98-3.406a2.3,2.3,0,0,0,.635-.629c.229-.3.532-.186.816-.211q1.638,1.643,3.279,3.283a3.97,3.97,0,0,0,2.12-.64,42.051,42.051,0,0,1,5.107-1.778c.918-.3,2.045-.033,2.739-.946.256-1.54.513-3.082.776-4.667h7.7c-.222.816.356,1.532.294,2.351-.059.781.537,1.463.278,2.227a2.871,2.871,0,0,0,1.831.8,22.609,22.609,0,0,1,3.609,1.02c1.385.406,2.656,1.062,3.983,1.6a1.715,1.715,0,0,0,.512.057L54.78,6.187c.284.025.59-.04.741.08,1.839,1.51,3.818,2.831,5.736,4.216-.579,1.2-1.087,2.428-1.756,3.565a1.687,1.687,0,0,0,.226,2.074,13.053,13.053,0,0,0,.941.96,20.531,20.531,0,0,1,3.4,4.878,2.933,2.933,0,0,0,1.057,1.3c1.565.147,3.167-.463,4.9-.644.814,2.416,1.6,4.736,2.391,7.1-1.341,1.085-3.169,1.383-4.5,2.635-.1,1.632.35,3.251.339,4.911s-.349,3.3-.373,5.012c1.268,1.294,3.161,1.579,4.555,2.711-.928,2.339-1.48,4.786-2.443,6.968-.724.259-1.1-.371-1.684-.268a2.383,2.383,0,0,1-1.542-.229,3.992,3.992,0,0,0-1.63-.045,2.738,2.738,0,0,0-.978,1.192,20.9,20.9,0,0,1-3.8,5.311,4.444,4.444,0,0,0-.627.64,1.718,1.718,0,0,0-.232,2.074c.664,1.105,1.149,2.318,1.746,3.554l-5.906,4.3h-.4l-3.289-3.288a3.9,3.9,0,0,0-1.711.477c-.689.253-1.348.589-2.043.849a13.6,13.6,0,0,0-1.958.7,10.678,10.678,0,0,1-2.139.6c-.707.216-1.532.048-2.217.8.2.722-.383,1.436-.319,2.258.059.783-.537,1.465-.242,2.331H33.253c-.258-1.554-.515-3.1-.774-4.661a2.455,2.455,0,0,0-1.642-.682,17.088,17.088,0,0,1-3.62-1c-1.346-.478-2.667-1.03-3.983-1.589a2.7,2.7,0,0,0-.7-.077l-3.294,3.294c-.226-.065-.5.122-.7-.11A19.22,19.22,0,0,0,15.68,66.2a12.23,12.23,0,0,0-2.863-1.931c.609-1.221,1.142-2.425,1.8-3.557a1.763,1.763,0,0,0-.271-2.2,12.472,12.472,0,0,0-.946-.958,23.346,23.346,0,0,1-3.3-4.768,3.223,3.223,0,0,0-1.089-1.37c-1.6-.127-3.156.487-4.926.627" transform="translate(1.148 0.978)" fill="#b2b2b2"/>
      <path id="Trazado_585954" data-name="Trazado 585954" d="M30.387,63.28c-.157-.209-.306-.406-.4-.533a35.925,35.925,0,0,1-6.416-1.773,25.941,25.941,0,0,1-6.324-3.49,22.859,22.859,0,0,1-4.836-4.651c-.844-1.147-1.694-2.293-2.488-3.478A19.776,19.776,0,0,1,8.05,45.641a19.96,19.96,0,0,1-.992-2.732c-.259-1.087-.475-2.191-.808-3.259a29.275,29.275,0,0,1-.331-3.164,7.3,7.3,0,0,1-.226-2.724,59.968,59.968,0,0,1,1.1-6.712,30.583,30.583,0,0,1,2.49-6.311,29.49,29.49,0,0,1,2.99-4.468,27.666,27.666,0,0,1,2.814-3c1.619-1.45,5-4.15,8.341-5.14,1.559-1.008,3.4-1.224,5.127-1.7a5.939,5.939,0,0,1,2.54-.39c1.283.212,2.5-.5,3.766-.288A63.229,63.229,0,0,1,41.742,6.83a34.434,34.434,0,0,1,6.585,2.548,24.05,24.05,0,0,1,4.1,2.789,29.848,29.848,0,0,1,2.709,2.465,27.722,27.722,0,0,1,5.487,8.2,18.853,18.853,0,0,1,1.647,5.306c.634.535.147,1.353.538,2.032a4.02,4.02,0,0,1,.05,2.06c-.047.644.344,1.164.346,1.823.005,1.518-.564,2.988-.334,4.515-.681,2.263-1.082,4.585-1.98,6.814A30.379,30.379,0,0,1,57.379,51.7a23.5,23.5,0,0,1-4.652,4.831,31.787,31.787,0,0,1-6.057,3.856,28.261,28.261,0,0,1-5.778,1.967,14.493,14.493,0,0,1-4.548.55c-.574-.054-.943.462-1.528.341-.48-.1-1.054.122-1.48-.054a6.9,6.9,0,0,0-1.985-.284c-.361-.04-.508.241-.963.375" transform="translate(3.788 3.84)" fill="#9f9f9f"/>
      <path id="Trazado_585955" data-name="Trazado 585955" d="M33.494,7.256a10.815,10.815,0,0,1,4.388.3,24.3,24.3,0,0,1,5.6,1.632,30.539,30.539,0,0,1,6.721,4.04A20.952,20.952,0,0,1,52.786,15.6,28.338,28.338,0,0,1,56.244,20.3a28.629,28.629,0,0,1,2.52,5.7c.177.53-.047,1.179.463,1.6-.107.93.518,1.779.3,2.721.523,1.426.234,2.908.293,4.366a5.171,5.171,0,0,1-.256,1.983,15.934,15.934,0,0,0-.261,1.973,19.7,19.7,0,0,0-.4,1.953,6.615,6.615,0,0,1-.574,1.7A19.915,19.915,0,0,1,56.4,46.44c-.582.836-1.042,1.769-1.664,2.6a20.726,20.726,0,0,1-4.356,4.629c-.846.609-1.637,1.3-2.52,1.883a22.34,22.34,0,0,1-7.854,3.463c-1.11.271-2.247.375-3.338.63a15.143,15.143,0,0,1-4.527.209,28.112,28.112,0,0,1-8.629-1.9,33.274,33.274,0,0,1-5.829-3.261,17.441,17.441,0,0,1-3.9-3.582A26.94,26.94,0,0,1,9.8,45.129a21.008,21.008,0,0,1-2.087-6.47c-.634-.62-.115-1.475-.473-2.2a6.12,6.12,0,0,1-.12-2.488,12.41,12.41,0,0,1,.013-2.391,36.151,36.151,0,0,1,1.936-8.023,30.928,30.928,0,0,1,3.284-5.813,18.144,18.144,0,0,1,3.458-3.811A27.32,27.32,0,0,1,22.4,9.6a17.494,17.494,0,0,1,5.985-1.811c.721-.664,1.659-.152,2.5-.47a7.693,7.693,0,0,1,2.612-.064" transform="translate(4.737 4.782)" fill="#252525"/>
      <path id="Trazado_585956" data-name="Trazado 585956" d="M36.026,56.344c.207-1.393-.242-2.59.326-3.669,2.338-.037,6.079-1.747,7.709-3.032a12.618,12.618,0,0,0,3.744-4.737,17.063,17.063,0,0,0,1.212-4.3c.232-1.373.137-2.722.256-4.075a18.349,18.349,0,0,0-.3-2.722A25.468,25.468,0,0,0,48.42,31.2a22.081,22.081,0,0,0-2.473-6.771,31.086,31.086,0,0,0-3.375-5.05,40.743,40.743,0,0,0-3.851-4.074A45.7,45.7,0,0,0,33.5,11.3a1.645,1.645,0,0,0-1.988-.007q-1.691,1.174-3.355,2.385a27.691,27.691,0,0,0-3.891,3.605,32.22,32.22,0,0,0-4.4,5.8,27.04,27.04,0,0,0-2.689,5.779,10.284,10.284,0,0,0-.856,3.388c-.527.7-.037,1.592-.358,2.242a6.046,6.046,0,0,0-.226,2.45,9.443,9.443,0,0,0,.007,2.39,19.219,19.219,0,0,0,1.764,6.3,13.468,13.468,0,0,0,7.946,6.383c.485.152.941.408,1.433.51a13.113,13.113,0,0,0,1.7.13c.671,1.055.11,2.276.344,3.37-.59.535-1.028-.077-1.5-.156A19.541,19.541,0,0,1,21.551,53.8a26.126,26.126,0,0,1-4.923-3.344,25.957,25.957,0,0,1-2.873-3.018,19.864,19.864,0,0,1-3.716-6.527c-.184-.575-.452-1.129-.589-1.7-.273-1.145-.438-2.331-.682-3.475a20.323,20.323,0,0,1-.219-4.08,3.3,3.3,0,0,1,.239-1.993c.3-.488-.224-1.268.338-1.8a7.1,7.1,0,0,1,.605-2.893,27.312,27.312,0,0,1,2.242-4.766,23.006,23.006,0,0,1,10.91-9.634,30.234,30.234,0,0,1,4.36-1.418,26.734,26.734,0,0,1,7.547-.532,13.223,13.223,0,0,1,3.483.61,11.36,11.36,0,0,1,2.135.6c1.179.657,2.487,1,3.639,1.726a30.333,30.333,0,0,1,3.731,2.562,19.186,19.186,0,0,1,1.875,1.6,24.776,24.776,0,0,1,4.829,7.279,20.042,20.042,0,0,1,1.411,4.669c.144,1.062.468,2.12.538,3.2.072,1.142-.033,2.3.037,3.44.035.565-.328.988-.333,1.523-.005.467.214,1-.288,1.373.179,1.094-.411,2.027-.679,3.017A14.85,14.85,0,0,1,54.044,42.9a18.276,18.276,0,0,1-3.619,5.381c-.4.373-.612.878-1.12,1.182a8.416,8.416,0,0,0-1.289,1.241,19.818,19.818,0,0,1-3.333,2.435,18.778,18.778,0,0,1-5.216,2.229c-1.08.279-2.149.607-3.441.975" transform="translate(5.72 5.771)" fill="#f7f9fa"/>
      <path id="Trazado_585957" data-name="Trazado 585957" d="M17.36,18.563l7.515,4.744v9.948c-3.472-2.137-6.936-4.269-10.455-6.433a28.053,28.053,0,0,1,2.94-8.259" transform="translate(9.694 12.479)" fill="#5bb134"/>
      <path id="Trazado_585958" data-name="Trazado 585958" d="M25.025,33.24V23.29c2.47-1.562,4.958-3.132,7.443-4.7,1.441,2.176,1.923,3.91,3,8.226L25.025,33.24" transform="translate(16.823 12.494)" fill="#86cb46"/>
      <path id="Trazado_585959" data-name="Trazado 585959" d="M14.26,25.085l10.751,6.6v7.634c-.251.2-.269-.184-.416-.184-1.951,0-3.557-.995-5.227-1.8-.082-.04-.2-.038-.254-.1a36.227,36.227,0,0,1-2.791-3.012,8.692,8.692,0,0,1-1.463-3.582c-.565-.44-.082-1.142-.395-1.624-.391-.6-.144-1.241-.194-1.86-.047-.582-.01-1.169-.01-2.067" transform="translate(9.571 16.863)" fill="#86cb46"/>
      <path id="Trazado_585960" data-name="Trazado 585960" d="M35.773,25.109a32.265,32.265,0,0,1-.219,4.1,26.738,26.738,0,0,1-1.005,3.63,6.78,6.78,0,0,1-1.274,2,21.451,21.451,0,0,1-2.1,2.114,8.736,8.736,0,0,1-2.809,1.492,5.521,5.521,0,0,1-2.868.669c-.1-.015-.222.167-.339.261a.38.38,0,0,1-.092-.064A.209.209,0,0,1,25,39.194c0-2.483,0-4.967,0-7.52,3.535-2.114,7.008-4.36,10.776-6.565" transform="translate(16.804 16.879)" fill="#5bb134"/>
      <path id="Trazado_585961" data-name="Trazado 585961" d="M23.06,15.4h.552a28.041,28.041,0,0,0,.329,3.692,51.554,51.554,0,0,1,.3,6.01c.6,1.574.273,3.209.283,4.813.04,6.831.017,13.662.017,20.495v1.487H22.145V50.422c0-7.779.022-15.559-.032-23.338-.005-.943.42-1.781.346-2.719a8.609,8.609,0,0,1,.033-2.828c.289-1.074.042-2.157.293-3.169A16.3,16.3,0,0,0,23.06,15.4" transform="translate(14.865 10.35)" fill="#549a2c"/>
      <path id="Trazado_585962" data-name="Trazado 585962" d="M23.957,12.36a29.375,29.375,0,0,1,8.059,8.256c-2.1,1.423-4.249,2.758-6.4,4.1-.46-.694-.047-1.386-.418-2.064a4.144,4.144,0,0,1-.055-2.2c.072-.7-.5-1.259-.326-1.972.164-.681-.241-1.311-.266-1.965-.03-.726-.278-1.423-.281-2.115s-.462-1.266-.308-2.04" transform="translate(16.083 8.309)" fill="#5bb134"/>
      <path id="Trazado_585963" data-name="Trazado 585963" d="M16.931,20.61a32.716,32.716,0,0,1,7.975-8.239c.36.43-.192.791-.147,1.14.134,1-.507,1.883-.329,2.866.105.594-.366,1.062-.326,1.671a2.239,2.239,0,0,1-.241,1.691c-.191.254-.008.774-.038,1.169-.047.63.207,1.313-.14,1.878-.363.594.089,1.268-.344,1.9-2.181-1.259-4.3-2.624-6.408-4.075" transform="translate(11.382 8.316)" fill="#86cb46"/>
    </g>
  </g>
</svg>
