<svg xmlns="http://www.w3.org/2000/svg" xmlns:xlink="http://www.w3.org/1999/xlink" width="100" height="100" viewBox="0 0 100 100"><defs><filter id="a" x="0" y="0" width="100" height="100" filterUnits="userSpaceOnUse"><feOffset dy="5" input="SourceAlpha"/><feGaussianBlur stdDeviation="2.5" result="b"/><feFlood flood-opacity="0.161"/><feComposite operator="in" in2="b"/><feComposite in="SourceGraphic"/></filter><clipPath id="c"><rect width="50" height="37.175" fill="none"/></clipPath></defs><g transform="translate(-330.5 -1520.5)"><g transform="matrix(1, 0, 0, 1, 330.5, 1520.5)" filter="url(#a)"><circle cx="42.5" cy="42.5" r="42.5" transform="translate(7.5 2.5)" fill="#4acfd9"/></g><g transform="translate(356 1547)"><g transform="translate(0 0)" clip-path="url(#c)"><path d="M14.455,20.064H31.349l.278-.277V16.1c-.25-.314-.854-.367-.915-.873-.055-.448-.052-.9-.077-1.386H28a2.994,2.994,0,0,1-1.247-.881c0-.645-.044-1.292.01-1.931a5.838,5.838,0,0,0-.642-2.7c-.45-1.112-.909-2.222-1.31-3.351-.277-.78-.606-1.543-.857-2.336A3.279,3.279,0,0,1,23.9.976c.1-.483.549-.753,1.095-.966h3.4l.7.634c.045.16-.071.325.146.5a2.3,2.3,0,0,1,.293-.9A2.914,2.914,0,0,1,30.485,0c3.8.015,7.61.009,11.167.009,1.1.245,1.225.993,1.49,1.624a.911.911,0,0,1-.074.6C42.483,3.849,41.951,5.478,41.4,7.1c-.274.812-.524,1.634-.856,2.425a1.52,1.52,0,0,0-.116.6c-.009.888,0,1.778,0,2.667-.224.1-.169.364-.336.515a1.685,1.685,0,0,1-1.247.508c-.745-.026-1.492-.007-2.281-.007v1.505c-.255.253-.425.518-.8.568v4.183H36.6c3.123,0,6.246-.006,9.37,0a6.558,6.558,0,0,1,2.619.244,3.9,3.9,0,0,1,1.4,1.981c0,3.919.027,8.148-.018,12.375a2.462,2.462,0,0,1-1.881,2.345,4.01,4.01,0,0,1-1.1.161q-22.008,0-44.016,0a2.763,2.763,0,0,1-2.66-1.456A2.791,2.791,0,0,1,0,34.37c.011-4.107.006-8.215.006-12.052A3.625,3.625,0,0,1,1.375,20.34a5.33,5.33,0,0,1,2.379-.275c2.372,0,4.743,0,7.15,0V10.749l-2.657,2.5h-.6l-.619-.626a1.362,1.362,0,0,1,.542-.893q1.311-1.226,2.611-2.458l-.5-.986H5.213c-.379-.2-.347-.482-.3-.855.13-.092.333-.237.616-.439H9.668c.418-.2.194-.679.455-.868-1.06-1-2.112-1.993-3.08-2.9V2.587l.468-.55a1.438,1.438,0,0,1,1.131.5c.869.824,1.742,1.642,2.569,2.422.286.086.347-.231.57-.164.24.071.343-.116.5-.253V.459L12.9.083c.245-.2.424.142.742.116V4.451c.24.44.734.272,1.023.545C15.945,4.074,16.8,2.681,18.189,2c.429.064.524.331.744.469v.575L15.785,6.011c.171.325.33.63.518.989,1.185,0,2.415.01,3.643-.006a2.15,2.15,0,0,1,1.113.253v.8l-.25.236H16.543c-.206.124-.256.354-.386.48-.169.164-.026.469-.34.493l3.109,2.93v.788c-.256.432-.658.228-.922.284L15.184,10.6c-.055.221.006.051-.094.129a.12.12,0,0,0-.048.072c0,2.512,0,5.023,0,7.514-.171.178-.316.352-.586.278-.887.309-1.006-.275-1.036-.848-.056-1.1-.016-2.193-.02-3.29,0-.792.01-1.585-.006-2.376-.006-.353.057-.752-.4-.929-.189.02-.179.156-.2.275.072,2.349.016,4.694.033,7.04a4.477,4.477,0,0,0,.068,1c.327.65,1.159.138,1.565.6" transform="translate(0 0)"/><path d="M10.257,9.845V9.351c.289,0,.62.348.861-.048.3.155.317.406.316.688-.009,2.168,0,4.337,0,6.505v.429l.291.279h.49a1.326,1.326,0,0,0,0,1.472H10.5c-.133,0-.256-.011-.243-.184a1.31,1.31,0,0,0,.473-1.234q.016-2.927,0-5.853a2.745,2.745,0,0,0-.475-1.561" transform="translate(2.245 1.387)" fill="#d76d43"/><path d="M9.679,30.162c.073-.49-.4-.529-.741-.735-1.4,0-2.856,0-4.316,0a2.033,2.033,0,0,0-.639.088c-.7.225-.686.784-.731,1.273-.063.692-.016,1.393-.016,2.109h-1.2L1.3,32.169V19.379c.1-.088.234-.186.168-.368.294-.046.475-.325.789-.256a1.843,1.843,0,0,1,.953-.085q17.931-.009,35.863,0a3.732,3.732,0,0,1,1.034.057,1.335,1.335,0,0,1-.243,1.169,30.879,30.879,0,0,1-6.657,8.653,5.823,5.823,0,0,1-1.468.881H11.726c-.178.241-.573.347-.485.735a1.261,1.261,0,0,1-1.561,0" transform="translate(0.285 2.781)" fill="#e3e9f6"/><path d="M31.572,29.436c.133-.373.559-.445.8-.686a31.652,31.652,0,0,0,2.45-2.428c.529-.654,1.092-1.291,1.635-1.94a21.194,21.194,0,0,0,1.7-2.372c.644-1.027,1.2-2.1,1.8-3.167a.341.341,0,0,0-.06-.049.177.177,0,0,0-.084-.028H2.089c-.023-.117.052-.178.155-.182.291-.009.585,0,.878,0H46.812l.947.452a1.592,1.592,0,0,1,.217,1.058c0,4.045,0,8.091,0,12.109-.246.219-.479.425-.8.715H46.055V30.471a1.444,1.444,0,0,0-1.6-1.043c-4.293.02-8.586.009-12.879.009" transform="translate(0.456 2.771)" fill="#d6ddec"/><path d="M33.77,8.835c-.41,0-.819-.016-1.226,0a.9.9,0,0,0-.922.731,1.707,1.707,0,0,1-1.953,0c-.111-.368-.111-.368-.485-.733H23.463l-2.88-7.47a5.16,5.16,0,0,1,1.32-.074c.419-.011.839,0,1.235,0A23.033,23.033,0,0,1,24.47,4.763c.171.233.492.226.7.4.218-.177.542-.163.78-.486-.091-1.048.389-2.149.177-3.292.815-.122,5.552-.153,7.462-.049-.371,1.766-1.318,3.4-1.4,5.108.223.424.529.371.881.363a1.564,1.564,0,0,0,.718-1.212,3.333,3.333,0,0,1,.277-.807c.375-1.141.747-2.285,1.143-3.5h.908a.944.944,0,0,1,.134,1.037c-.659,2.01-1.427,3.986-2.079,6a1.255,1.255,0,0,1-.4.509" transform="translate(4.506 0.189)" fill="#e3e9f6"/><path d="M44,29.824V31.2c-.89.142-36.062.2-39.832.063V29.824a1.505,1.505,0,0,1,1.1-.276q18.819-.005,37.637,0a1.5,1.5,0,0,1,1.1.276" transform="translate(0.913 4.407)" fill="#6f7386"/><path d="M44,29.955H4.17v-.519c1.465-.078,2.935,0,4.4-.043.173-.233.566-.339.477-.726h1.563c-.1.4.329.483.464.747H43.924c.139.179.052.367.078.541" transform="translate(0.913 4.276)" fill="#515262"/><path d="M29.118,8.494H31.07c-.017.19.308.247.207.462a2.1,2.1,0,0,0,1.455.267c.143.156.291.317.477.518v.9l-.568.422H23.106V9.229c1.559,0,3.109,0,4.659,0,.371,0,.772.117,1.08-.2q.135-.267.273-.534" transform="translate(5.058 1.267)" fill="#fed664"/><path d="M10.221,5.361a1.925,1.925,0,0,1,1.6-.009c.641.144.687.752,1,1.156A1.8,1.8,0,0,1,11.572,8.6,1.873,1.873,0,0,1,9.237,7.363a1.071,1.071,0,0,1-.088-.6,2.312,2.312,0,0,1,1.073-1.405" transform="translate(1.999 0.772)" fill="#6f7386"/><path d="M31.4,8.832c.408-1.7,1.107-3.307,1.657-4.962.189-.568.4-1.13.622-1.688a3.205,3.205,0,0,0,.065-.894h.878c.388.421-.186.771-.1,1.17-.792,1.782-1.195,3.687-1.933,5.487-.1.253-.338.506-.183.887Z" transform="translate(6.874 0.192)" fill="#d5dceb"/><path d="M10.257,9.775c.343.126.508.445.765.622V18.37c-.257.115-.517.021-.765.053Z" transform="translate(2.245 1.458)" fill="#fd9464"/><path d="M27.1,13.952h1.109v3.972c-.328.17-.711-.023-1.109.106Z" transform="translate(5.933 2.081)" fill="#f1875a"/><path d="M18.427,23.065a2.809,2.809,0,0,1,2.127-1.933,2.744,2.744,0,0,1,2.157.648,2.64,2.64,0,0,1,.753,2.582,2.77,2.77,0,0,0-.389.621c-.4.792-1.241.857-1.948,1.115-.378.139-.759-.161-1.138-.263-.8-.216-1.174-.853-1.563-1.519Z" transform="translate(4.034 3.149)" fill="#010101"/><path d="M19.524,23.417a2.158,2.158,0,0,1,.726-.994H21.2a2.067,2.067,0,0,1,.723,1,1.216,1.216,0,0,1-2.4-.008" transform="translate(4.274 3.344)" fill="#fa9263"/></g></g></g></svg>