<svg xmlns="http://www.w3.org/2000/svg" xmlns:xlink="http://www.w3.org/1999/xlink" width="400" height="314.427" viewBox="0 0 400 314.427"><defs><clipPath id="a"><rect width="80.746" height="80.956" fill="none"/></clipPath></defs><g transform="translate(-180 -1817.572)"><g transform="translate(0 -1986.871)"><rect width="400" height="314.427" rx="21" transform="translate(180 3804.443)" fill="#4acfd9" opacity="0.25"/></g><text transform="translate(301 2081.363)" fill="#12263f" font-size="20" font-family="Roboto-Black, Roboto" font-weight="800"><tspan x="0" y="0">Creación de valor</tspan></text><g transform="translate(-105)"><circle cx="77.233" cy="77.233" r="77.233" transform="translate(408 1897)" fill="#4acfd9"/><g transform="translate(445 1934)"><g transform="translate(0 0)" clip-path="url(#a)"><path d="M67.175,38.559,70.3,37.6a4.355,4.355,0,0,0,2.124-5.2c-1.418-2.638-2.857-5.31-4.24-7.88-1.907-.57-3.667-1.18-5.47-1.606-1.769-.418-3.482-1.016-5.247-1.449a17.1,17.1,0,0,1-3.489-1.069c-.5-.247-1.217.2-1.568-.666,1.061-1.373,2.208-2.794,3.283-4.268,1.058-1.45,2.208-2.832,3.149-4.372a2.644,2.644,0,0,0-.194-3.027c-.551-.923-1.028-1.891-1.571-2.819-.746-1.27-1.553-2.5-2.271-3.79A2.873,2.873,0,0,0,52.121,0C46.708.059,41.3.025,35.883.025A5.563,5.563,0,0,0,33.4,2.55c-.674,1.309-1.565,2.506-2.314,3.78-.493.84-.92,1.721-1.339,2.6-.253.534-.046,1.125-.116,1.666,2.093,3.1,4.41,6,6.659,9.021-.267.81-1.123.706-1.712.906-1.252.424-2.6.57-3.836,1.028a21.755,21.755,0,0,1-2.794.838c-.915.206-1.8.537-2.7.758a37.507,37.507,0,0,0-4.066,1.2,1.843,1.843,0,0,0-1.017,1.033c-1.056,2.092-2.336,4.066-3.278,6.22a11.459,11.459,0,0,0-.78,1.883,3.889,3.889,0,0,0,.505,2.3A3.492,3.492,0,0,0,18,37.316c.656.47,1.54.407,2.146,1.044V49.5c-1.459.575-2.689,1.588-4.124,2.217a7,7,0,0,1-3.007.756c-2.732-.059-5.467.031-8.2-.043a5.81,5.81,0,0,0-3.354,1.028A3.511,3.511,0,0,0,0,56.438c-.007,4,0,7.995,0,11.882a10.456,10.456,0,0,0,1.343,2.1,3.354,3.354,0,0,0,2.438.982c3.048.018,6.1.056,9.143-.013a13.066,13.066,0,0,1,4.483,1c2.587.875,5.229,1.569,7.792,2.5,2.023.734,4.135,1.195,6.138,1.938s4.049,1.4,6.066,2.089c1.929.661,3.9,1.246,5.862,1.844a4.827,4.827,0,0,0,2.738-.007,9.293,9.293,0,0,0,4.247-2.321c2-1.585,4.021-3.149,6.122-4.613,1.613-1.125,3.052-2.5,4.651-3.647,1.906-1.371,3.745-2.829,5.661-4.188,1.145-.812,2.214-1.773,3.344-2.626,1.916-1.445,3.867-2.852,5.761-4.317a35.834,35.834,0,0,0,3.682-2.954,4.017,4.017,0,0,0,.743-4.941A4.648,4.648,0,0,0,79.2,49.58c-1.279-1.125-2.751-.885-4.159-.912-2.2,1.066-4.121,2.521-6.241,3.808V41.6c-.241-.228-.464-.388-.349-.7-.479-.073-.766-.565-1.276-.443-1.389-.311-1.584.691-1.663,1.634-.142,1.675-.044,3.362-.053,5.044-.009,1.577,0,3.155,0,4.731-.009,2.274-.382,2.778-2.67,3.639-.477-.139-.524-.615-.715-.967a5.276,5.276,0,0,0-3.934-2.842c-3.26-.555-6.522-1.094-9.792-1.591a3.209,3.209,0,0,1-2.112-.859c-.113-3.454,0-7.124-.065-10.937.719,1.054,1.337,2.023,1.991,2.967a4.606,4.606,0,0,0,5.47,2.055c4.184-1.214,8.3-2.644,12.471-3.908a1.747,1.747,0,0,0,1.076-.862" transform="translate(0 0)"/><path d="M52.614,26.754a9.17,9.17,0,0,1-2.77.9c-1.456.415-2.851,1.011-4.329,1.37a10.6,10.6,0,0,0-2.112.583,15.8,15.8,0,0,1-2.068.713c-.693.222-1.356.534-2.046.76a3.066,3.066,0,0,1-.909.087c-.32,0-.633-.018-.709.28-.42.135-.514-.291-.762-.267a2.958,2.958,0,0,1-2.657-1.543c-1.058-1.423-1.969-2.957-2.924-4.419a126.425,126.425,0,0,0-.11,13.111c1.258.269,2.544.36,3.8.7a12.966,12.966,0,0,0,2.228.289c1.607.148,3.149.722,4.773.689.512-.01.891.461,1.447.332a1.97,1.97,0,0,1,1.289.291,4.867,4.867,0,0,1,2.911,4.055,26.631,26.631,0,0,0,3.65-2.2V29.463c.454-.316.636-.954,1.3-.813Z" transform="translate(14.561 11.805)" fill="#b9895a"/><path d="M58.689,40.711c-.528-1.588-1.666-1.79-2.911-1.979a10.713,10.713,0,0,1-2.916-.556,2.567,2.567,0,0,0-1.24-.032c-.437.046-.674-.446-1.133-.333-1.036.253-2.005-.264-3.014-.367-1.383-.141-2.755-.459-4.15-.633a8.673,8.673,0,0,1-1.91-.3c-.655-.244-1.337-.1-1.919-.316-.653-.239-1.356-.081-1.914-.319-.713-.305-1.443-.088-2.082-.31s-1.4-.044-1.9-.326c-.85-.474-1.775-.066-2.631-.531-.608-.33-1.521.161-2.2-.367-1.289.112-2.5-.479-3.812-.341a5.907,5.907,0,0,0-2.5.828c-.462.285-.934.534-1.408.793-2.1,1.147-4.166,2.356-6.509,3.453-3.782.664-7.8.142-11.879.364-.181.2-.424.477-.694.78V52.286l1.13.691c3.039,0,6.186.069,9.329-.031a10.537,10.537,0,0,1,4.13.721c1.825.706,3.71,1.192,5.556,1.8,2.036.666,4.059,1.39,6.12,1.994a10.2,10.2,0,0,1,2.515.782,12.853,12.853,0,0,0,2.644.828c.834.266,1.652.581,2.482.856,1.944.639,3.9,1.235,5.831,1.908a12.069,12.069,0,0,0,3.652.313L76.976,38.1V36.386c-.364-.351-.743-.713-1.142-1.1h-.9c-2.391,1.583-4.818,3.106-7.23,4.649-2.283,1.459-4.535,2.982-6.869,4.347-2.374,1.39-4.657,2.926-7.011,4.342A40.087,40.087,0,0,0,48.974,51.8,11.565,11.565,0,0,1,46.4,52.985c-.1.015-.222-.15-.333-.159-1.514-.12-2.49-1.171-3.582-2.024-1.866-1.455-3.719-2.927-5.621-4.332a2.5,2.5,0,0,0-1.546-.458c-1.939.046-3.88.016-5.8.016l-.741-.741V44.215l.941-.518c-.065-.065-.128-.131-.191-.2q12.924,0,25.849-.01A3.453,3.453,0,0,0,57,43.234c1.273-.6,1.635-.876,1.687-2.139.009-.207,0-.414,0-.385" transform="translate(0.917 15.904)" fill="#e9bda2"/><path d="M31.77,31.261l4.411-6.616a1.187,1.187,0,0,0-.8-.459,25.153,25.153,0,0,1-2.535-.7c-2.112-.595-4.228-1.194-6.318-1.851-1.245-.392-2.526-.675-3.757-1.171a44.8,44.8,0,0,0-4.649-1.312c-.6-.17-1.194-.407-1.9-.652-1.032,2.5-3.039,4.6-3.378,7.306a2.961,2.961,0,0,0,2.08,1.144c1.888.364,3.608,1.208,5.448,1.685,2.453.634,4.8,1.616,7.264,2.217a11.544,11.544,0,0,1,1.936.637,1.763,1.763,0,0,0,2.2-.23" transform="translate(6.009 8.659)" fill="#d29e71"/><path d="M31.79,24.652c1.61,2.408,3.209,4.8,4.7,7.027a5.148,5.148,0,0,0,3.256-.587c2.562-.954,5.229-1.563,7.788-2.5,1.875-.689,3.824-1.129,5.7-1.831a4.622,4.622,0,0,0,2.024-1.321,53.184,53.184,0,0,0-3.644-6.869c-1.318.4-2.588.879-3.9,1.158-.733.156-1.389.473-2.1.662-1.462.39-2.926.775-4.362,1.263-1.613.548-3.263.994-4.89,1.493a23.683,23.683,0,0,1-3.834,1.022c-.305.04-.445.22-.744.484" transform="translate(14.879 8.691)" fill="#d29e71"/><path d="M35.818,37.643V25.5c-.285-.132-.421-.141-.614.176-.844,1.392-1.706,2.775-2.642,4.1a3.724,3.724,0,0,1-2.283,1.3,6.115,6.115,0,0,1-2.913-.3c-2.151-.64-4.344-1.161-6.445-1.932-1.558-.571-3.2-.865-4.717-1.537-.12-.053-.3.016-.49.031v8.437a6.154,6.154,0,0,0,2.4-.4,2.38,2.38,0,0,1,1.718.032.834.834,0,0,0,.427.1c1.839-.092,3.567.752,5.407.637,1.439.592,3.055.335,4.489.947,1.041-.23,2,.314,3.017.327.851.012,1.65.552,2.648.226" transform="translate(7.355 11.892)" fill="#b9895a"/><path d="M53.831,18.892c-.32-.32-.443-.521-.621-.606-.361-.172-.819.16-1.169-.228-.277-.307-.872.1-1.075-.436-1.324.034-2.457-.671-3.7-.963-1.519-.358-3.009-.843-4.523-1.232a.828.828,0,0,1-.595-.386c-1.2,1.66-2.355,3.231-3.485,4.817a4.46,4.46,0,0,1-2.675,1.518,2.125,2.125,0,0,1-1.635-.542,6.784,6.784,0,0,1-1.339-1.327c-.92-1.183-1.787-2.409-2.684-3.611a4.4,4.4,0,0,0-.442-.449,4.505,4.505,0,0,0-1.908.248c-1.224.342-2.471.672-3.67,1.05a12.667,12.667,0,0,0-3.6,1.186c-.644-.213-1.141.37-1.756.326-.321-.023-.361.351-.879.495,2.742.536,5.082,1.518,7.559,2.086,1.3.3,2.594.815,3.9,1.205,1.775.531,3.586.962,5.314,1.616a4.047,4.047,0,0,0,2.686-.178c2.453-.652,4.856-1.469,7.314-2.121,1.447-.383,2.879-.9,4.332-1.307.75-.211,1.5-.432,2.242-.669a5.179,5.179,0,0,1,2.4-.492" transform="translate(8.463 7.039)" fill="#a4744a"/><path d="M32.616,20.2V7.752l-.4-.4H22.537c1.509,2.391,3.346,4.419,4.947,6.618,1.574,2.162,3.212,4.275,4.792,6.433l.341-.206" transform="translate(10.548 3.443)" fill="#5fdadb"/><path d="M41.264,7.349h-10c-.145,1.48-.166,11.277-.028,13.206L41.264,7.349" transform="translate(14.578 3.439)" fill="#53c4c5"/><path d="M40.166,42.2H28.491c1.584,1.7,3.575,2.607,5.147,4.213A58.837,58.837,0,0,0,40.166,42.2" transform="translate(13.335 19.752)" fill="#b78859"/><path d="M32.135,7.329h8.476c-1.1-1.876-2.09-3.566-3.118-5.317a2.185,2.185,0,0,0-.951-.035L32.135,7.329" transform="translate(15.04 0.908)" fill="#76e9f9"/><path d="M26.462,1.984a.924.924,0,0,0-1.119.48c-.873,1.527-1.728,3.065-2.662,4.73a24.812,24.812,0,0,0,4.091.126c1.3.029,2.594.007,3.857.007a1.181,1.181,0,0,0,.066-.263c-.015-.1-.015-.222-.075-.28-1.528-1.511-2.641-3.388-4.159-4.8" transform="translate(10.616 0.911)" fill="#77e9f9"/><path d="M35.064,1.981H27.62a31.711,31.711,0,0,1,3.742,4.4,28.875,28.875,0,0,0,3.7-4.4" transform="translate(12.927 0.927)" fill="#5fdadb"/></g></g></g></g></svg>