<svg xmlns="http://www.w3.org/2000/svg" xmlns:xlink="http://www.w3.org/1999/xlink" width="100" height="100" viewBox="0 0 100 100">
  <defs>
    <filter id="Elipse_4712" x="0" y="0" width="100" height="100" filterUnits="userSpaceOnUse">
      <feOffset dy="5" input="SourceAlpha"/>
      <feGaussianBlur stdDeviation="2.5" result="blur"/>
      <feFlood flood-opacity="0.161"/>
      <feComposite operator="in" in2="blur"/>
      <feComposite in="SourceGraphic"/>
    </filter>
    <clipPath id="clip-path">
      <rect id="Rectángulo_36760" data-name="Rectángulo 36760" width="50" height="50" fill="none"/>
    </clipPath>
  </defs>
  <g id="Grupo_849908" data-name="Grupo 849908" transform="translate(-172.5 -1288.5)">
    <g id="Grupo_849907" data-name="Grupo 849907">
      <g transform="matrix(1, 0, 0, 1, 172.5, 1288.5)" filter="url(#Elipse_4712)">
        <circle id="Elipse_4712-2" data-name="Elipse 4712" cx="42.5" cy="42.5" r="42.5" transform="translate(7.5 2.5)" fill="#4acfd9"/>
      </g>
    </g>
    <g id="Grupo_80292" data-name="Grupo 80292" transform="translate(198 1309)">
      <g id="Grupo_80293" data-name="Grupo 80293">
        <g id="Grupo_80291" data-name="Grupo 80291" clip-path="url(#clip-path)">
          <path id="Trazado_113573" data-name="Trazado 113573" d="M32.682,49.767c-.715.382-1.148.244-1.413-.592s-.7-1.648-1.04-2.474a2.492,2.492,0,0,0-2.676-1.689c-2.349.156-4.7.289-7.046.479A4.179,4.179,0,0,1,16.4,43.61a4.816,4.816,0,0,0-2.256-1.857,17.935,17.935,0,0,1-3.952-2.821q-4.46-3.473-8.883-6.993a3.345,3.345,0,0,1,1.2-5.881,3.3,3.3,0,0,1,2.773.479c1.243.8,2.491,1.6,3.91,2.513,0-1.08-.014-2.022.006-2.961.009-.413-.285-.428-.542-.477C2.839,24.515.9,17.8,3.873,13.389A5.076,5.076,0,0,0,4.515,8.17,6.022,6.022,0,0,1,6.628,1.14a5.813,5.813,0,0,1,6.877.07,6.2,6.2,0,0,1,1.9,7.367,4.157,4.157,0,0,0,.77,4.646,9.171,9.171,0,0,1,1.818-2.869,1.885,1.885,0,0,0,.2-2.442A5.179,5.179,0,0,1,22.323.052,5.1,5.1,0,0,1,26.971,7.5a2.611,2.611,0,0,0,.45,3.4,6.862,6.862,0,0,1,1.26,7.266,6.273,6.273,0,0,1-4.634,4.057c-.428.106-.863.162-.715.751.141.558-.434,1.321.538,1.65,1.7.575,3.382,1.2,5.062,1.824a3.7,3.7,0,0,0,1.227.125c2.211.084,4.45-.267,6.631.2,4.07.872,7.037,3.132,8.373,7.18,1.533,4.643,2.982,9.313,4.5,13.961.206.631.071.942-.546,1.088-.7.618-1.041.171-1.292-.445-.455-1.116-.7-2.3-1.1-3.436-.355-1.006-.5-1.072-1.507-.641-2.342,1.005-4.681,2.019-7.034,3-.632.263-1.107.554-.809,1.371a.609.609,0,0,1-.514.91c-.415-.026-.83.569-1.244,0a8.049,8.049,0,0,1-1.175-2.37c-.265-.515-.407-1.023-1.182-.7-.745.309-.645.76-.358,1.311a4.131,4.131,0,0,1,.321.865c.126.484-.014.8-.538.9" transform="translate(0 -0.014)"/>
          <path id="Trazado_113574" data-name="Trazado 113574" d="M51.274,67.251c.608-.279.4-.712.185-1.111-.3-.564-.238-.89.424-1.164q4.151-1.715,8.259-3.532c.67-.3.9-.1,1.085.527.388,1.317.855,2.61,1.227,3.932.178.632.467.848,1.078.592.182.443.382.812-.437.8-3.94-.042-7.881-.036-11.821-.046" transform="translate(-14.415 -17.498)" fill="#0053a4"/>
          <path id="Trazado_113575" data-name="Trazado 113575" d="M55.105,7.011a4.144,4.144,0,1,1-4.149,4.15,4.151,4.151,0,0,1,4.149-4.15" transform="translate(-14.326 -2.001)" fill="#010100"/>
          <path id="Trazado_113576" data-name="Trazado 113576" d="M48.064,32.855c-1.556,0-3.112.005-4.668,0-1.711-.006-2.833-.982-2.847-2.461a2.523,2.523,0,0,1,2.8-2.513,7.749,7.749,0,0,0,1.243-.012c.9-.154.992.317.964,1.038-.018.478-.114.683-.631.642-.549-.044-1.106,0-1.658-.011-.6-.008-1.053.222-1.029.872.022.585.454.792,1.011.79,1.9-.006,3.8,0,5.706,0,1.313,0,2.628.019,3.941-.009.6-.013,1.014-.042.994.815-.017.765-.261.89-.947.869-1.623-.051-3.249-.016-4.875-.016" transform="translate(-11.4 -7.945)"/>
          <path id="Trazado_113577" data-name="Trazado 113577" d="M45.317,68.208c.862-.591.139-1.181-.064-1.7-.48-1.231-.511-1.182.676-1.7.645-.279,1.019-.206,1.229.5a27.313,27.313,0,0,1,1.091,2.892H45.317" transform="translate(-12.635 -18.455)" fill="#0f3062"/>
          <path id="Trazado_113578" data-name="Trazado 113578" d="M50.5,5.442c-.372.278-.722.553-1.085.807s-.479-.124-.653-.287c-.481-.447-.9-.974-1.413-1.371-.685-.526-.465-.873.053-1.351.385-.357.608-.432.983-.005.5.57,1.07,1.079,1.607,1.618.119.119.222.255.51.589" transform="translate(-13.192 -0.84)" fill="#040303"/>
          <path id="Trazado_113579" data-name="Trazado 113579" d="M65.58,20.539c-.362.257-.725.511-1.084.77s-.485-.105-.659-.267c-.456-.423-.888-.872-1.328-1.312-.687-.687-.594-1.228.253-1.7a.323.323,0,0,1,.446.046q1,.983,1.981,1.977a1.715,1.715,0,0,1,.175.249l.216.233" transform="translate(-17.446 -5.128)" fill="#040303"/>
          <path id="Trazado_113580" data-name="Trazado 113580" d="M50.42,18.884c-.247.289-.369.452-.51.6-.437.443-.881.88-1.323,1.318-.68.675-1.23.571-1.7-.263-.188-.334.06-.44.2-.59.527-.548,1.065-1.088,1.62-1.608.175-.164.313-.547.652-.317.367.248.69.56,1.059.865" transform="translate(-13.163 -5.122)" fill="#030303"/>
          <path id="Trazado_113581" data-name="Trazado 113581" d="M65.362,3.891c-.147.182-.262.349-.4.492-.435.444-.88.879-1.321,1.317-.709.7-1.177.618-1.7-.23-.206-.333.032-.439.177-.59.528-.546,1.065-1.085,1.617-1.606.178-.168.329-.563.645-.341a8.341,8.341,0,0,1,.985.959" transform="translate(-17.391 -0.818)" fill="#020202"/>
          <path id="Trazado_113582" data-name="Trazado 113582" d="M55.568,1.638a4.419,4.419,0,0,0-.006-.724c-.121-.731.17-.9.891-.913.786-.019.822.337.785.918a8.408,8.408,0,0,0,.005,1.551c.091.732-.171.923-.9.909-.643-.012-.878-.172-.785-.81a6.486,6.486,0,0,0,.008-.931" transform="translate(-15.613 0)"/>
          <path id="Trazado_113583" data-name="Trazado 113583" d="M45.605,13.3a4.472,4.472,0,0,0-.726.006c-.739.123-.889-.183-.911-.893-.024-.8.349-.811.924-.777a8.7,8.7,0,0,0,1.556-.006c.742-.092.917.183.908.9-.008.652-.186.867-.817.777a6.781,6.781,0,0,0-.934-.007" transform="translate(-12.361 -3.313)"/>
          <path id="Trazado_113584" data-name="Trazado 113584" d="M66.569,13.3a6.307,6.307,0,0,0-.83.006c-.669.088-.945-.066-.956-.852-.011-.847.378-.864.991-.819.447.033.9.006,1.349.006,1.068,0,1.191.176,1.034,1.262-.046.316-.155.409-.446.4-.38-.013-.761,0-1.142,0" transform="translate(-18.213 -3.317)"/>
          <path id="Trazado_113585" data-name="Trazado 113585" d="M57.233,22.646a6.408,6.408,0,0,0,0,.725c.07.607-.047.9-.8.9s-.959-.224-.881-.93a7.4,7.4,0,0,0,0-1.654c-.078-.671.2-.764.806-.792.758-.035.984.22.876.924a5.572,5.572,0,0,0-.006.827" transform="translate(-15.615 -5.962)"/>
          <path id="Trazado_113586" data-name="Trazado 113586" d="M62.3,34.167c-.582.07-1.068.107-.963-.732.065-.519-.086-1.042.767-.929.52.069,1.053-.084.929.765-.074.5.127,1.128-.733.9" transform="translate(-17.24 -9.273)"/>
          <path id="Trazado_113587" data-name="Trazado 113587" d="M21.861,35.672c.162.039.433.09.694.169a7.592,7.592,0,0,1,.977.342A25.389,25.389,0,0,0,35.7,38.46a8.921,8.921,0,0,1,8.573,6.187c.185.552.223.888-.428,1.2-3.08,1.483-6.129,3.028-9.186,4.559-.385.193-.694.333-1.114-.019A4.24,4.24,0,0,0,30,49.632c-3.32.489-6.639.975-9.954,1.494a7.323,7.323,0,0,1-5.851-1.5c-3.66-2.842-7.291-5.72-10.929-8.591-.993-.784-1.216-1.787-.612-2.595s1.533-.883,2.586-.207c2.7,1.736,5.4,3.489,8.1,5.224a8.282,8.282,0,0,0,7.924.745c1.116-.442,2.192-1.416,3.314-1.285a9.055,9.055,0,0,1,3.2,1.623c.638.386.9.254,1.234-.378.3-.579.188-.778-.354-1.062-2.54-1.328-5.054-2.705-7.578-4.062a1.754,1.754,0,0,1,.771-3.364" transform="translate(-0.654 -10.181)" fill="#f8c9c9"/>
          <path id="Trazado_113588" data-name="Trazado 113588" d="M26.2,39.577c-2.075,1.079-4.043,1.857-6.293,1.247-1.75-.474-3.078-1.676-4.587-2.565a.464.464,0,0,1-.2-.33C15.1,36.616,15.1,35.3,15.1,33.992c0-.288.222-.322.419-.361a7.611,7.611,0,0,0,6.058-5.572,7.639,7.639,0,0,0,3.982,2.268c.658.128.276.747.336,1.14.082.534-.354.364-.628.385a3.395,3.395,0,0,0-1.455,6.43c.743.425,1.5.817,2.387,1.295" transform="translate(-4.246 -8.008)" fill="#9fbe37"/>
          <path id="Trazado_113589" data-name="Trazado 113589" d="M59.448,56.724c.034.124-.279.208-.52.312-2.978,1.279-5.961,2.547-8.938,3.832-.328.141-.51.094-.643-.231-.471-1.146-.935-2.3-1.431-3.43-.2-.461.055-.612.39-.779Q52.8,54.19,57.294,51.95c.214-.106.51-.374.658.089.475,1.473.942,2.949,1.5,4.686" transform="translate(-13.451 -14.777)" fill="#033a88"/>
          <path id="Trazado_113590" data-name="Trazado 113590" d="M11.246,15.992c-.815-.842-1.618-1.677-2.429-2.505a.542.542,0,0,1-.126-.648,5.927,5.927,0,0,0-.268-4.318A4.505,4.505,0,0,1,10.23,2.914,4.161,4.161,0,0,1,16.344,5.6a.884.884,0,0,1-.233.925c-.917.931-1.816,1.881-2.722,2.823l-.262-.1c0-.835-.014-1.671,0-2.506.014-.617.063-1.113-.868-1.1-.884.013-.805.487-.8,1.057q.013,4.24,0,8.481a.88.88,0,0,1-.213.8" transform="translate(-2.274 -0.673)" fill="#028b4a"/>
          <path id="Trazado_113591" data-name="Trazado 113591" d="M30.618,11.03c0-1.119-.041-2.084.014-3.045.042-.73-.4-.634-.858-.647-.488-.014-.844-.022-.834.673.039,2.615.016,5.232.016,8.177-1.078-1.1-1.952-2.006-2.842-2.895a.393.393,0,0,1-.041-.617c.221-.266.436-.536.652-.806a3.19,3.19,0,0,0,.289-3.94,4.024,4.024,0,0,1-.543-2.482,3.326,3.326,0,0,1,6.634.007,8.314,8.314,0,0,1-2.487,5.575" transform="translate(-7.293 -0.677)" fill="#88c362"/>
          <path id="Trazado_113592" data-name="Trazado 113592" d="M10.829,26.519c0,.794-.051,1.592.015,2.381.061.746-.252.787-.84.628a5.918,5.918,0,0,1-4.154-5.171A6.773,6.773,0,0,1,6.7,20.271c.275-.452.483-.472.848-.1.961.994,1.945,1.966,2.935,2.931a1.16,1.16,0,0,1,.354.925c-.014.829,0,1.657,0,2.486" transform="translate(-1.639 -5.683)" fill="#028b4a"/>
          <path id="Trazado_113593" data-name="Trazado 113593" d="M32.418,21.023a11.388,11.388,0,0,0-.021-2.061c-.285-1.526.561-2.439,1.589-3.3.229-.194.379-.342.672-.051,2.795,2.765,2.322,6.448.257,8.276a4.987,4.987,0,0,1-1.387.885c-1.072.447-1.109.424-1.111-.75q0-1.5,0-2.993" transform="translate(-9.093 -4.407)" fill="#88c362"/>
          <path id="Trazado_113594" data-name="Trazado 113594" d="M24.964,59.236c3.939-.588,7.818-1.191,11.705-1.739a3.225,3.225,0,0,1,3.74,3.121.507.507,0,0,1,0,.281,2.17,2.17,0,0,1-2.41.227,4.082,4.082,0,0,0-3.429-1.389q-3.626.24-7.253.484a2.393,2.393,0,0,1-2.352-.985" transform="translate(-7.018 -16.399)" fill="#f8b6b6"/>
          <path id="Trazado_113595" data-name="Trazado 113595" d="M15.1,22.423c0-2.638,0-4.939,0-7.241a8.131,8.131,0,0,1,2.15-2.535c.309-.091.381.1.345.327a6.472,6.472,0,0,0,1.4,4.831.549.549,0,0,1-.113.805c-1.2,1.185-2.374,2.389-3.782,3.813" transform="translate(-4.245 -3.603)" fill="#028b4a"/>
          <path id="Trazado_113596" data-name="Trazado 113596" d="M19.743,22.893c1.269,2.927-1.221,7.246-4.155,7.552-.477.05-.485-.137-.513-.5a3.827,3.827,0,0,1,1.363-3.729,36.023,36.023,0,0,0,3.3-3.327" transform="translate(-4.23 -6.534)" fill="#028b49"/>
          <path id="Trazado_113597" data-name="Trazado 113597" d="M28.508,26.139a4.937,4.937,0,0,1-3.844-6.654c1.227,1.235,2.422,2.425,3.6,3.629.478.489.181,1.12.236,1.684.043.441.009.889.009,1.34" transform="translate(-6.846 -5.561)" fill="#88c361"/>
          <path id="Trazado_113598" data-name="Trazado 113598" d="M58.252,11.777a2.49,2.49,0,1,1-2.558-2.441,2.506,2.506,0,0,1,2.558,2.441" transform="translate(-14.977 -2.664)" fill="#f9b442"/>
        </g>
      </g>
    </g>
  </g>
</svg>
