<svg xmlns="http://www.w3.org/2000/svg" xmlns:xlink="http://www.w3.org/1999/xlink" width="295" height="200" viewBox="0 0 295 200"><defs><clipPath id="a"><rect width="141.06" height="141.759" fill="none"/></clipPath></defs><g transform="translate(-180 -1494)"><rect width="295" height="200" rx="20" transform="translate(180 1494)" fill="#ffb840"/><g transform="translate(257 1523)"><g clip-path="url(#a)"><path d="M97.786,141.143a12.549,12.549,0,0,1-4.562,1.143c-10.916-.052-21.833-.024-32.75-.028-2.444,0-6.365-1.712-8.425-3.132a14.258,14.258,0,0,1-5.008-6.217,15.447,15.447,0,0,1-1.492-6.3c.021-4.149.1-8.3-.04-12.447a28.815,28.815,0,0,1,.637-5.024,3.564,3.564,0,0,1,.92-1.809c.549-.586.74-1.333,1.333-2.148-4.925-2.044-9.243-4.837-11.72-9.725a18.834,18.834,0,0,1-2.108-11.626c-2.362-.755-4.751-1.016-6.634-2.972a12.482,12.482,0,0,1-3.007-6.384c-.693-.673-1.781-.7-2.706-1.108-4.536-2-6.471-4.81-8.16-9.222a4.354,4.354,0,0,1-.144-1.595c-.036-1.567.075-3.141-.033-4.7-.18-2.618-.744-5.075-2.917-6.828-1.359-1.1-2.5-2.458-3.752-3.689a19.938,19.938,0,0,1-4.385-6.489C1.726,38.221.376,35.614.617,32.642c.066-.808-.715-1.214-.606-1.989.089-.633-.047-1.3.028-1.932.446-3.793,1.014-7.543,2.746-11.037A25.553,25.553,0,0,1,8.544,9.558,28.557,28.557,0,0,1,21.535,2.73c3.565-.774,7.085-.193,10.611-.479,3.043,1.136,6.453,1.372,9.028,3.656,2.084.486,3.362,2.212,4.943,3.4a19.618,19.618,0,0,1,4.19,5.13,26.126,26.126,0,0,1,2.575,5.3,18.35,18.35,0,0,1,1.56,6.548c-.013,1.73,0,3.461,0,5.289,5.8,0,11.434.112,17.059-.043,3.185-.088,6.038,1,8.931,1.941a35.127,35.127,0,0,1,4.893,2.452h28.5v-8.3c6.324,3.215,12.453,6.347,18.6,9.445a6.046,6.046,0,0,1,3.652,4.542c.051.314.352.588.529.868.1.447-.446.671-.441.919.051,2.856-2.042,4.069-4.1,5.118-5.719,2.913-11.513,5.682-17.272,8.518a5.856,5.856,0,0,0-.787.607,17.905,17.905,0,0,1-.143-3.763c-.038-1.281-.008-2.562-.008-3.767l-.723-.72H96.016c1.685,5.234,2.466,10.414,1.019,15.838h21.149a20.993,20.993,0,0,0,.1-3.645c.032-1.276.007-2.555.007-3.73.774-.733,1.041.078,1.467.286,5.388,2.621,10.766,5.26,16.158,7.87a11.831,11.831,0,0,1,4.524,3.517c.007.067-.058.392.074.576,1.107,1.541.271,3.031-.167,4.472a4.9,4.9,0,0,1-3.143,2.946,10.135,10.135,0,0,0-2.932,1.573c-.883.806-2.187.586-2.992,1.66-.473.631-1.72.646-2.566,1.047-1.79.848-3.525,1.792-5.241,2.793a18.728,18.728,0,0,1-5.138,2.2c-.107-2.412,0-4.925-.064-7.529H96.218c-1.378,2.966-4.424,3.623-7.39,4.44.288,3.422-.612,6.533-1.622,9.636-1.091,3.352-3.491,5.721-5.944,8.057-2.381,2.268-5.454,3.269-8.8,4.354,5.614,3.345,8.259,8.154,9.337,14.141a20.494,20.494,0,0,1,3.5,2.432,6.418,6.418,0,0,1,5.528-2.763c.506-.64.235-1.4.238-2.1.027-5.809.047-11.619-.011-17.427a6.32,6.32,0,0,1,.731-3.029c1.6-3.122,3.362-6.17,4.8-9.364A7.249,7.249,0,0,1,100.53,83.6a10.046,10.046,0,0,0,1.293-.008c3.05-.311,4.869,1.367,6.126,3.832,1.823,3.577,3.562,7.2,5.35,10.791a3.236,3.236,0,0,0,.547.62c0,10.312.021,20.639-.011,30.966-.013,4.092-1.406,7.681-4.722,10.193-2.636,2-6.039,3.067-9.4,1.8a7.447,7.447,0,0,1-1.928-.654" transform="translate(0 -0.585)"/><path d="M92.287,12.735V8.579a1.3,1.3,0,0,1,.2-.185.484.484,0,0,1,.241-.083c8.864,0,17.729,0,26.69,0V0c3.267,1.6,6.356,3.118,9.442,4.638,3.225,1.589,6.429,3.221,9.678,4.759a5.378,5.378,0,0,1,3.134,3.3c.121.4.414.568.586.949v2.676a2.949,2.949,0,0,0-.584.877,5.451,5.451,0,0,1-3.136,3.3c-6.3,3.054-12.576,6.17-19.021,9.343V21.6H92.287V17.162a3.937,3.937,0,0,1,2.859-.82q13.042-.037,26.084.007a4.455,4.455,0,0,1,2.361.443c1.489,1.216.752,2.872,1.7,4.294,3.639-1.893,7.442-3.437,11.274-5.979-3.574-2.925-7.351-4.376-11.013-5.91-1.154,1.121-.607,2.588-1.493,3.5a3.649,3.649,0,0,1-2.829.851c-8.695.049-17.389.035-26.084.01a3.937,3.937,0,0,1-2.859-.82" transform="translate(-23.968 0)"/><path d="M92.287,15.461H123.9V10.729a1.675,1.675,0,0,1,1.811.083c3.251,1.709,6.563,3.305,9.873,4.9a5.35,5.35,0,0,1,2.308,1.921,4.318,4.318,0,0,1-2.066,1.8c-3.653,1.868-7.279,3.789-11.039,5.442-.23.1-.4.348-.789.708v-5.7H92.287Z" transform="translate(-23.968 -2.727)" fill="#fee9a6"/><path d="M38.04,57.981H33.717c.4-2.165-.523-4.335.612-6.4a1.575,1.575,0,0,0,.013-.82c-.435-4.368.871-8.65.523-13.1h4.749c2.515-1.065,4.288-2.771,5.357-6.231.62-4.511-3.037-7.406-6.88-7.636a6.42,6.42,0,0,0-5.541,2.581,7.585,7.585,0,0,0-1.512,5.906l-.855.853H27.363c-.461-.738-.2-1.575-.225-2.366-.113-3.221-3.054-6.66-6.205-7.014a7.019,7.019,0,0,0-5.125,1.623,6.917,6.917,0,0,0-2.556,3.07V32.51A8.275,8.275,0,0,0,15.2,35.388a6.234,6.234,0,0,0,5.211,2.174c.554-.015,1.111.026,1.663-.01.583-.037.685.553,1.242.757-.575,5,.822,9.927.486,14.932-.105,1.575,1.119,3.047.358,4.737h-4.1c-1.053-4.556-2.933-8.519-7.129-11.158-1.275-.8-2.143-2.356-2.992-3.695a47.076,47.076,0,0,1-3.3-7.477c-.163-.394,0-.91-.064-1.358-.12-.857.419-1.853-.532-2.553-.089-.065.01-.355-.018-.536-.179-1.183.839-2.128.593-3.371a5.036,5.036,0,0,1,.483-3.1c.456-1,.58-2.134,1.135-3.126a25.834,25.834,0,0,1,1.338-2.755c2.866-3.912,6.167-7.359,10.83-9.16a16.779,16.779,0,0,1,6.328-1.462c1.109.019,2.219-.012,3.328.006A21.418,21.418,0,0,1,41.8,12.026a22.75,22.75,0,0,1,8.936,12.31,10.64,10.64,0,0,1,.831,4.365c-.215,2.317.2,4.631-.5,6.977a28.723,28.723,0,0,1-3.211,7.532c-1.582,2.379-3.77,4.172-5.705,6.21-.735.774-1.344,1.665-2.02,2.458-1.5,1.757-1.5,3.85-2.092,6.1" transform="translate(-1.559 -2.136)" fill="#fee9a6"/><path d="M53.845,85.919c6.4,0,12.774.141,19.138-.05a18.346,18.346,0,0,0,11.611-4,1.671,1.671,0,0,1,1.335-.361,24.019,24.019,0,0,0,12.124,4.488v2.373c0,4.7-.124,9.4.05,14.086a34.423,34.423,0,0,1-.733,7.209c-.271,1.56-.492,3.485-2,4.668-1.744,4.337-5.717,5.773-9.588,7.376a4.517,4.517,0,0,1-1.863.172c-5.728.022-11.456-.057-17.182.042a12.159,12.159,0,0,1-7.492-2.611A15.115,15.115,0,0,1,53.73,112.8a13.352,13.352,0,0,1-1.21-4.752c.013-6.078.054-12.156-.029-18.232-.021-1.534.987-2.557,1.353-3.9" transform="translate(-13.632 -21.165)" fill="#efcfb3"/><path d="M107.255,76.694l-.809.945c-.8.389-.934-.625-1.566-.506a9.368,9.368,0,0,1-1.553.016V72.711c-4.933.13-9.559-.247-13.374-3.5a17.993,17.993,0,0,0,3.918-7.306,19.517,19.517,0,0,1-4.058-1.538,57.075,57.075,0,0,1-2.98,5.4,13.118,13.118,0,0,1-4.673,4.16,19.109,19.109,0,0,1-10.209,2.814c-4.9-.105-9.8-.02-14.7-.034a2.709,2.709,0,0,1-1.644-.19v-5.5a21.393,21.393,0,0,0,1.381-2.688A5.792,5.792,0,0,1,59.2,61.683a24.313,24.313,0,0,0,8.027-11.04,25.358,25.358,0,0,1,.942-2.374c.067-.158.252-.265.437-.449,6.04,0,12.147-.244,18.223.087a20.827,20.827,0,0,1,11.007,4.139A23.354,23.354,0,0,1,107.283,67.2c.282,1.874.341,3.723.489,5.588.115,1.466-1.286,2.65-.516,3.909" transform="translate(-14.442 -12.397)" fill="#b17946"/><path d="M72.462,142.756a11.51,11.51,0,0,0,2.177-.021c2.541-.492,5.022,1.76,5.99,4.055a7.821,7.821,0,0,1,.8,3.555c-.147,2.294-.041,4.6-.041,6.9-1.154,2.319-3.065,4.193-4.143,6.736,1.392.7,2.219,1.969,3.9,2.076l3.75-5.571H97.825l1.3,1.5v11l-1.64,1.308c-6.173,0-12.727.135-19.271-.054a10.56,10.56,0,0,1-8.436-4.782,12.119,12.119,0,0,1-2.289-7.341c.088-3.683.2-7.38-.026-11.051-.237-3.888,1.405-6.486,5-8.315" transform="translate(-17.515 -37.052)" fill="#b3dc7e"/><path d="M121.842,52.03H150V46.788l13.188,6.555v1.985L150.054,61.92c-.3-1.729.02-3.536-.195-5.4H125.3a15.25,15.25,0,0,0-3.462-4.493" transform="translate(-31.643 -12.151)" fill="#fee9a6"/><path d="M131.487,96.13c.487-1.8-.6-2.9-1.07-4.117a2.5,2.5,0,0,1,.269-.3.434.434,0,0,1,.234-.1c8.494,0,16.989,0,25.678,0V86.374l13.338,6.612a1.21,1.21,0,0,0,.045.734c.533.349.448.424.284.619a7.445,7.445,0,0,1-2.621,1.716c-3.615,1.774-7.2,3.607-10.9,5.474a8.109,8.109,0,0,1-.133-2.583c-.032-.908-.007-1.817-.007-2.815Z" transform="translate(-33.87 -22.432)" fill="#fde9a6"/><path d="M116.868,169.694c1.181-1.11,2.188-2.547,3.949-3,.814-.268,1.187.755,1.94.654.889,1.048.723,2.322.732,3.774a15.156,15.156,0,0,1,3.539.061c1.042.259,2.3.243,3.065,1.265a8.162,8.162,0,0,1-.861,4.928,13.118,13.118,0,0,1-1.575,1.458,6.824,6.824,0,0,1-4.275,1.713c-2.3-.073-4.6-.018-7.154-.018,1.04-3.616.411-7.214.64-10.833" transform="translate(-30.185 -43.28)" fill="#eeceb3"/><path d="M24.786,81.551H43.147c-.6,2.525-1.159,5.023-3.208,6.635a9.286,9.286,0,0,1-7.387,2.17,8.929,8.929,0,0,1-7.765-8.805" transform="translate(-6.437 -21.179)" fill="#a9b1bc"/><path d="M141.1,158.686V136.878l.691-.688h3.53l.688.718v21.778Z" transform="translate(-36.644 -35.37)" fill="#f4d06c"/><path d="M129.132,136.15h4.256v22.529h-2.406c-.258-1.027-1.236-1.606-1.85-2.348Z" transform="translate(-33.537 -35.359)" fill="#fe816d"/><path d="M92.039,156.761c-.286-3.667.466-7.281-.951-10.99,5.634,1.939,8.436,5.748,9.784,10.99Z" transform="translate(-23.656 -37.858)" fill="#b3db7e"/><path d="M141.686,126.855H130.893c1.939-3,2.6-6.419,4.964-8.709a1.693,1.693,0,0,1,2.028,1.2c1.159,2.53,2.5,4.976,3.8,7.508" transform="translate(-33.994 -30.678)" fill="#a8b0bb"/><path d="M138.153,182.209c2.214-3.144,2.316-6.217,2.105-9.408h4.274c2.024,1.391-.357,3.085.2,4.62-1.14,2.609-3.078,4.193-6.575,4.787" transform="translate(-35.879 -44.878)" fill="#a5adb8"/><path d="M36.953,67.758a81.712,81.712,0,0,1-1.241-10.882c-.176-2.6-.361-5.2-.423-7.8-.009-.351,0-.7,0-1.126h2.8c-.195,1.632.257,3.252-.509,4.939-.382.842-.057,2-.069,3.013a32.351,32.351,0,0,1-.472,5.873,31.863,31.863,0,0,0-.081,5.985" transform="translate(-9.164 -12.453)" fill="#f6e1a1"/><path d="M121.928,102.278h-1.614c-.43-.391-.469-5.6-.049-8.931a6.528,6.528,0,0,1,4.189,3.867c.467,2.166-.9,3.669-2.526,5.064" transform="translate(-31.157 -24.243)" fill="#ecccb1"/><path d="M44.661,103.174c-1.318.475-2.273-.219-3.4-.792-.492-.957-1.035-2.014-1.6-3.124,1.558-.988,3.346-1.2,5-1.96Z" transform="translate(-10.299 -25.269)" fill="#ddc0a6"/><path d="M21.883,38.824V36.691c.443-1.412,1.845-.54,2.342-1.432,2.367.76,2.818,2.53,2.507,4.867-1.678.041-3.358.31-4.849-1.3" transform="translate(-5.683 -9.157)" fill="#eecb6a"/><path d="M46.94,35.672c.18-.042.9.239,1.279-.48.915.637,2.088.948,2.551,2.112.21.765-.537,1.263-.64,2.042-1.17,1.081-2.7.726-4.4.813.193-1.491-.444-2.922,1.208-4.487" transform="translate(-11.877 -9.14)" fill="#f2ce6b"/><path d="M90.176,112.267A10.811,10.811,0,0,1,87.22,122.1c-2.381,2.43-5.352,3.332-8.855,3.439-5.432.165-11.7-5.987-10.728-13.276Z" transform="translate(-17.54 -29.157)"/><path d="M55.65,99.167c.193-4.662,2.531-7.21,7.582-8.714a7.738,7.738,0,0,1,4.951.672,9.815,9.815,0,0,1,4,3.533c.958,1.271,1.153,2.936,1.574,4.537H69.07c-.281-1.047-.324-2.363-1.347-2.957a7.777,7.777,0,0,0-3.009-1.395c-1.849-.187-3.553,1.337-4.83,4.323Z" transform="translate(-14.453 -23.442)" fill="#010101"/><path d="M103.98,96.735v2.49H99.636c.136-1.976-1.105-2.934-2.752-3.86-1.954-1.1-3.3.064-4.868.817-.072,1.054-1.812,1.486-1.185,3.009H86.4c-.434-1.518.265-2.915,1.005-4.27a8.4,8.4,0,0,1,4.568-3.875c4.259-1.535,8.839-.648,12.01,5.688" transform="translate(-22.403 -23.476)" fill="#010101"/><path d="M74.141,118.209H86.757c-.627,1.663-.627,1.663-2.609,3.6a10.106,10.106,0,0,1-5.221.72c-3.327-1.939-3.327-1.939-4.786-4.32" transform="translate(-19.255 -30.7)" fill="#fc816d"/></g></g></g></svg>