<svg xmlns="http://www.w3.org/2000/svg" xmlns:xlink="http://www.w3.org/1999/xlink" width="100" height="100" viewBox="0 0 100 100"><defs><filter id="a" x="0" y="0" width="100" height="100" filterUnits="userSpaceOnUse"><feOffset dy="5" input="SourceAlpha"/><feGaussianBlur stdDeviation="2.5" result="b"/><feFlood flood-opacity="0.161"/><feComposite operator="in" in2="b"/><feComposite in="SourceGraphic"/></filter><clipPath id="c"><rect width="50" height="52.986" fill="none"/></clipPath></defs><g transform="translate(-1117.5 -1288.5)"><g transform="matrix(1, 0, 0, 1, 1117.5, 1288.5)" filter="url(#a)"><circle cx="42.5" cy="42.5" r="42.5" transform="translate(7.5 2.5)" fill="#4acfd9"/></g><g transform="translate(1142 1306.999)"><g transform="translate(0 0.001)" clip-path="url(#c)"><path d="M5.138,2.509v-.8a10.53,10.53,0,0,1,9.805-.89A10.767,10.767,0,0,1,20.3,5.477a10.931,10.931,0,0,1,1.426,6.959c1.2-.516,2.246-1.125,3.406-1.51A15.836,15.836,0,0,1,28.69,10a13,13,0,0,1,3.832-.175c1.221.252,2.47.317,3.688.653a17.222,17.222,0,0,1,3.448,1.363,1.927,1.927,0,0,1,2.366-.444.628.628,0,0,0,.5,0,1.978,1.978,0,0,1,2.584.728c.045.051.1.1.143.146.081.511.388.984.273,1.429-.346.625-.521,1.244-1.162,1.594.374.382.655.669.937.955a21.438,21.438,0,0,1,2.158,3.012,15.139,15.139,0,0,1,1.6,3.561,9.637,9.637,0,0,1,.556,2.152c.089.768.308,1.535.359,2.313.054.823.028,1.652.006,2.478a2.73,2.73,0,0,1-.1,1.3c-.207.388.062.86-.118,1.186-.213.386-.019.877-.379,1.186.043.843-.482,1.532-.6,2.327-.069.458-.439.708-.616,1.085a1.156,1.156,0,0,1-.873.048c-.708-.444-.5-1.064-.286-1.644a19.775,19.775,0,0,0,.987-3.775,2.775,2.775,0,0,0-.026-1.5,24.9,24.9,0,0,0-4.406.017,1.779,1.779,0,0,0-.99.676,18.024,18.024,0,0,1-2.01,1.875,1.505,1.505,0,0,0-.624,1.333,18.2,18.2,0,0,1-.273,2.66c-.09.725-.377,1.34-1.265,1.3a1.24,1.24,0,0,1-.809-1.56c.121-.815.1-1.641.247-2.452.068-.374.177-.848-.092-1.092-1.3-1.18-2.174-3.058-4.376-2.84a10.261,10.261,0,0,1-2.316-.03c-.925-.121-1.2-.566-1.029-1.569.369-.46.892-.416,1.395-.448a6.23,6.23,0,0,0,2.108-.187c.265-2.411,1.509-3.941,4.159-4.041a17.512,17.512,0,0,0-.662-4.971,30.293,30.293,0,0,0-11.22-.023,26.454,26.454,0,0,0-.906,9.01c.6.366,1.294.157,1.952.21.564.045,1.169-.049,1.562.525.159,1.1-.093,1.444-1.151,1.54a10.731,10.731,0,0,0-2.361.17A6.721,6.721,0,0,0,24.8,32.82c.1.852.143,1.707.244,2.559a1.354,1.354,0,0,1-.812,1.594c-.931.067-1.209-.551-1.318-1.326-.186-1.317-.224-2.646-.3-3.973a3.82,3.82,0,0,0-.3-1.49A.752.752,0,0,0,21.7,29.9c-2.16-.011-4.32.012-6.48.048a.686.686,0,0,0-.5.231c-.463,2.123,1.263,4.042.905,6.093a1.059,1.059,0,0,1-1.153.157c-.658-.261-.58-.96-.794-1.464-.413-.973-.51-2.05-.829-3.059a.365.365,0,0,1,0-.1c.013-1.319-.329-2.616-.214-3.944.04-.463.354-.874.214-1.36-.15-.519.22-.954.227-1.463a6.467,6.467,0,0,1,.342-1.291,3.7,3.7,0,0,1,.425-1.27c.062-.094.009-.266.009-.428a.735.735,0,0,0-.735-.079,8.971,8.971,0,0,1-3.767.146,8.9,8.9,0,0,1-5.215-2.338c-.291-.274-.661-.41-.94-.709-.253-.272-.37-.614-.619-.89a8.884,8.884,0,0,1-1.9-3.221A12.5,12.5,0,0,1,.087,9.638,11.481,11.481,0,0,1,1.2,6.184,11.667,11.667,0,0,1,2.989,3.543H3.92c.812.622.329,1.242-.074,1.766A9.826,9.826,0,0,0,2,9.392a9.276,9.276,0,0,0,7.009,10.8,7.219,7.219,0,0,0,3.208.12,9.154,9.154,0,0,0,7.831-9.323,9.048,9.048,0,0,0-8.831-9.051,8.444,8.444,0,0,0-4.382.938c-.621.324-1.293.535-1.694-.366" transform="translate(0 0)"/><path d="M5.394,60.632V53.316c-.043-.236-.446,0-.406-.335a1.542,1.542,0,0,1,1.235-.323c1.114-.017,2.229-.041,3.341,0a17.478,17.478,0,0,0,7.353-1.034,7.4,7.4,0,0,1,4.889-.176,17.981,17.981,0,0,0,5.609.584c.607-.014,1.215-.02,1.823.01a2.189,2.189,0,1,1-.046,4.356c-.674.03-1.35.01-2.025.011-1.823,0-3.645,0-5.468,0a2.915,2.915,0,0,0-1.569.3,2.549,2.549,0,0,1-2.114.424A6.791,6.791,0,0,0,22.6,58.677c1.955.009,3.912-.07,5.863.02a4.879,4.879,0,0,0,5.357-3.585c.367-.578,1.008-.609,1.566-.774a2.522,2.522,0,0,0,1.538-1.024,4.927,4.927,0,0,1,1.826-.929c.192.186.27.483.605.606a4.908,4.908,0,0,0,1.905-.393c1.463-.4,2.895-.912,4.382-1.21.724-.145,1.442-.14,1.662.831-.163.6-.683.831-1.148,1.09q-7.15,3.982-14.283,7.993A8.3,8.3,0,0,1,27.8,62.378c-4.184.017-8.368.006-12.553.008a9.045,9.045,0,0,1-2-.276,21.662,21.662,0,0,0-6.406-.768,1.275,1.275,0,0,1-1.441-.709" transform="translate(-1.271 -12.418)" fill="#fedece"/><path d="M47.054,51.727c-.615-.687-.7-.692-1.456-.489-.82.22-1.641.44-2.458.669-.848.238-1.688.514-2.545.722a4.811,4.811,0,0,1-1.765.329l-.3-.3v-.725c-.045-.639.513-.632.868-.845,1.7-.525,3.416-1,5.124-1.5a4.989,4.989,0,0,1,2.091-.182,1.343,1.343,0,0,1,1.25.875,3.1,3.1,0,0,1,.528,3.96,3.93,3.93,0,0,1-1.778,1.389c-1.177.665-2.387,1.286-3.549,1.97-1.609.947-3.323,1.709-4.841,2.815a15.705,15.705,0,0,0-2.835,1.5c-1.031.541-2.039,1.155-3.044,1.76A8.4,8.4,0,0,1,29.253,64.8a12.419,12.419,0,0,1-1.849.158c-4.223.01-8.446-.008-12.67.019a10,10,0,0,1-1.917-.3c-.806-.15-1.61-.344-2.409-.543-1.782-.444-3.6-.075-5.5-.245l-.467-.572a.9.9,0,0,1,.408-.839,11.872,11.872,0,0,1,5.812-.12,35.083,35.083,0,0,0,7.754.652c3.009-.028,6.019-.051,9.027.012a8.064,8.064,0,0,0,4.256-1.13c4.693-2.669,9.4-5.319,14.133-7.909a2.125,2.125,0,0,0,1.221-2.259" transform="translate(-1.132 -11.991)"/><path d="M36.9,52.911c.064.554-.493.666-.666,1a12.111,12.111,0,0,0-2.378.651,13.784,13.784,0,0,0-2.007,1.857,3.57,3.57,0,0,1-2.655,1.119c-2.771.07-5.543.061-8.314.005-1.15-.023-1.453-.466-1.227-1.533.224-.03.3-.248.493-.39h9.632A2.482,2.482,0,0,0,31.22,54.11a1.887,1.887,0,0,0-.622-1.742,1.72,1.72,0,0,0-1.223-.5c-1.487.02-2.976-.03-4.463.02a6.826,6.826,0,0,1-2.567-.438,11.909,11.909,0,0,0-4.1-.4c-.58.369-1.3.181-1.911.548a7.956,7.956,0,0,1-1.777.607,4.888,4.888,0,0,1-1.5.306c-2.738-.028-5.476-.013-8.214-.013-.355-.149-.262-.536-.431-.709.063-.392.356-.493.507-.722.092-.005.19-.017.287-.017,2.355,0,4.71-.012,7.065.008a6.268,6.268,0,0,0,1.773-.353,8.67,8.67,0,0,1,2.449-.7c.116,0,.152-.229.32-.2.966-.809,2.131-.662,3.253-.678.466-.007.925.157,1.393.192a13.393,13.393,0,0,0,4.21.606c1.047-.01,2.095,0,3.142,0a3.879,3.879,0,0,1,3.905,2.4.757.757,0,0,0,.323.369,10.122,10.122,0,0,0,2.37-.533c.665-.107,1.309-.161,1.493.743" transform="translate(-1.124 -11.934)"/><path d="M47.193,52.485c.412.122.039.656.41.766-.024.3-.39.458-.182.737A3.891,3.891,0,0,1,46,55.061c-1.742.882-3.429,1.874-5.133,2.828-1.294.725-2.594,1.445-3.877,2.193-1.389.809-2.836,1.516-4.214,2.343a12.626,12.626,0,0,1-3.15,1.494,2.873,2.873,0,0,1-.746.143c-4.9.006-9.8.026-14.7-.017a12.3,12.3,0,0,1-2.445-.45,8.29,8.29,0,0,0-1.78-.357c-1.656,0-3.311,0-4.967,0-.022-.281.237-.154.406-.3V60.964c.224.03.3.247.525.414.94,0,1.946.014,2.952-.005a5.547,5.547,0,0,1,2.279.376c.378.156.852-.061,1.215.25.878-.008,1.683.436,2.566.418s1.756,0,2.633,0c3.51,0,7.022.051,10.53-.023a7.838,7.838,0,0,0,4.123-1.311c1-.642,2.079-1.183,3.121-1.771,1.072-.6,2.157-1.183,3.223-1.8,1.005-.581,2.022-1.158,3.046-1.712a27.955,27.955,0,0,0,2.8-1.589c.431-.3.988-.413,1.431-.7.47-.305,1.048-.482,1.352-1.021" transform="translate(-1.271 -12.75)" fill="#fecdbe"/><path d="M59.7,47.8a3.1,3.1,0,0,0-2.9-.476c-1.345.307-2.637.793-3.978,1.1a6.924,6.924,0,0,1-1.642.407c-.589-.635-.232-1.15.2-1.655.291.1.446-.266.718-.207a3.037,3.037,0,0,0,.291-1.541c-.11-.523.289-.941.224-1.468a13.154,13.154,0,0,1-.016-1.644,19.238,19.238,0,0,0,3.516-3.163h5.52a1.5,1.5,0,0,0-.3,1.29c.086.466-.286.818-.215,1.261a2.873,2.873,0,0,1-.235,1.146c-.241.985-.635,1.931-1,3l.661.364-.132.137h.709c-.134.441-.512.078-.771.263-.332.291-.405.787-.649,1.184" transform="translate(-12.963 -9.512)" fill="#f1fafe"/><path d="M5.639,2.986c.252.039.33.311.531.394a1.088,1.088,0,0,0,1.007-.226,6.559,6.559,0,0,1,3.714-1c.2.009.4.011.52-.2.119.043.152.229.316.2.076.421-.281.519-.518.66A10.593,10.593,0,0,0,6.7,8.221a2.56,2.56,0,0,0-.335,1.36c-.116.873-.212,1.748-.341,2.618a1.639,1.639,0,0,1-.124.28C4.841,14.4,5.133,15.347,7.08,16.3c.813.825,1.338,1.895,2.2,2.682a8.2,8.2,0,0,0,3.463,2c.016.205-.124.207-.262.207a13.181,13.181,0,0,1-1.823-.013,9.689,9.689,0,0,1-4.729-1.838,10.507,10.507,0,0,1-1.194-1.039,9.073,9.073,0,0,1-2.215-3.712,4.767,4.767,0,0,1-.328-1.516c.019-.535-.265-1.009-.221-1.569a12.176,12.176,0,0,1,.949-3.944A5.833,5.833,0,0,1,4.175,5.6,1.143,1.143,0,0,0,4.421,4.02c.388-.366.928-.547,1.218-1.034" transform="translate(-0.501 -0.477)" fill="#a1e52e"/><path d="M25.24,47.158c-.534.129-1.01-.182-1.522-.2a3.008,3.008,0,0,0-1.1.022,2.066,2.066,0,0,1-1.028.171c-.381-.06-.662.251-1.022.217.146-.419-.349-.506-.412-.829-.078-.405-.423-.41-.737-.453-.03,0-.046-.108-.069-.165h.715l.281-.3a4.526,4.526,0,0,0-.467-2.137,18.423,18.423,0,0,1-.56-2.34,8.552,8.552,0,0,1-.142-2.045h.869c2.387,0,4.775,0,7.162.007.162,0,.426-.144.462.2-.425.385-.951.276-1.449.309a6.135,6.135,0,0,0-2.165.183,5.9,5.9,0,0,0,.2,2.808,22.194,22.194,0,0,0,.916,3.485c.121.344.333.7.066,1.074" transform="translate(-4.884 -9.491)" fill="#def5fc"/><path d="M7.767,8.209A19.057,19.057,0,0,1,9.1,5.692,10.556,10.556,0,0,1,11.824,3.03a7.167,7.167,0,0,0,1.218-.819C14.9,2,16.436,2.934,18.027,3.672c.48.721,1.475.915,1.78,1.815a4.423,4.423,0,0,1,1.261,1.747,6.32,6.32,0,0,1,.886,2.819c.009.35.2.622.218.948A9.9,9.9,0,0,1,20.7,16.782,9.039,9.039,0,0,1,15.3,20.848a5.045,5.045,0,0,1-1.241.183,3.284,3.284,0,0,1-2.31-.765,10.513,10.513,0,0,1-3.371-3.785,7.648,7.648,0,0,1,4.227,0c.211.317-.15.765.334,1.146a4.735,4.735,0,0,0,1.972-1.844A3.641,3.641,0,0,0,13.1,13.788c-.571.228-.414.725-.766,1.175a12.291,12.291,0,0,1-4.143.02c-.493-.073-.627-.576-.563-1.071.039-.3.218-.584.147-.907-.075-.346-.454-.4-.614-.659A18.6,18.6,0,0,1,7.4,9.519c0-.024.107-.046.163-.07.592.528.338,1.477,1.048,2.075a4.281,4.281,0,0,0,2.557-.669c-.034-.645-.589-.678-.829-1.136a7.708,7.708,0,0,1,1.8-3.059c.41-.474.908-.3,1.338.1.306.282.5.78,1.121.6.3-.852-.276-1.32-.829-1.728a1.877,1.877,0,0,0-2.342.2,5.637,5.637,0,0,0-.89,1.244,9.26,9.26,0,0,1-1.42,2.031c-.476-.3-.918-.591-1.35-.9" transform="translate(-1.818 -0.53)" fill="#baeb6c"/><path d="M46.677,46.66c-.236.5-.11,1.092-.366,1.59,0,.008.042.042.066.064,0-.138.159.122.1,0,.014.192-.113.214-.25.206a.5.5,0,0,0-.562.415c-.381.048-.11.385-.206.512l-1.416.522c-.274.022-.139-.258-.247-.345s-.257-.072-.332-.156A.42.42,0,0,0,43,49.356c-1.016.3-2.028.627-3.039.946-.03.009-.049.047-.166.167a2.062,2.062,0,0,0-.244-1.168,3.522,3.522,0,0,0-2.943-2.017c-1.242-.015-2.485,0-3.729,0a1.378,1.378,0,0,1-.405-1.448c.542-.469.859-1,.443-1.723a.388.388,0,0,1-.036-.191c.013-1.759-.412-3.5-.144-5.306h3.472l.323-.329v-.93a1.421,1.421,0,0,1,1.826,0v.725l.507.513h4.46a23.7,23.7,0,0,0,3.128,2.9c.114,1.169-.335,2.216-.183,3.3-.31.416-.184.9-.2,1.36.219.146.31.452.6.509" transform="translate(-8.263 -8.993)" fill="#def5fc"/><path d="M38.445,34.069H36.619a1.507,1.507,0,0,0-.727-.219c-1.011.031-2.023.012-3.128.012V30.589a3.211,3.211,0,0,0,.186-1.875c-.014-.45.259-.807.24-1.258-.016-.378-.209-.827.183-1.152-.147-.716.326-1.364.194-2.048l.314-.32c.96.065,1.886-.375,2.853-.207a7.357,7.357,0,0,1,2.753-.2c.673-.036,1.354.041,2.024-.022.544-.051,1,.276,1.539.243A2.485,2.485,0,0,1,44.5,23.9c.313.169.785.031,1.214.031,0,.663.37,1.236.238,1.886.451.561.092,1.273.366,1.912.232.542-.085,1.262.281,1.928a13.5,13.5,0,0,1-1.849.067,3.6,3.6,0,0,0-2.42,4.135c-1.052,0-2.055,0-3.057,0a1.162,1.162,0,0,0-.828.21" transform="translate(-8.35 -5.708)" fill="#f1fafe"/><path d="M52.919,30.274c.237-1.186-.291-2.156-.145-3.174a1.193,1.193,0,0,1-.189-1.047c.059-.369-.256-.61-.217-.949.019-.161-.065-.344.095-.475,1.393.384,2.793.737,4.152,1.235a41.021,41.021,0,0,1,3.765,1.812c.254.732.489,1.39.711,2.052a5.356,5.356,0,0,1,.408,2c.532.621-.116,1.476.393,2.111a.709.709,0,0,1-.566.312c-1.209-.023-2.418-.01-3.7-.01A3.7,3.7,0,0,0,56.421,30.7a3.414,3.414,0,0,0-3.5-.43" transform="translate(-13.345 -5.983)" fill="#def5fc"/><path d="M45.82,20.164c-.722-.047-1.389.257-2.018-.132-.148-.092-.4-.014-.6-.014-2.055,0-4.112.009-6.168-.006-.658,0-1.268.361-1.94.217a2.733,2.733,0,0,0-.478,0,18.54,18.54,0,0,1,1.511-4.692c.522-.3,1.171-.165,1.737-.361a6.654,6.654,0,0,1,1.873-.109c.6-.039,1.217.033,1.82-.02a13.975,13.975,0,0,1,1.735.252,1.273,1.273,0,0,1,1.323,1.119,13.19,13.19,0,0,0,.61,1.7,9.21,9.21,0,0,0,.594,2.052" transform="translate(-8.822 -3.653)" fill="#def5fc"/><path d="M27.672,34.192c0,.283-.215.2-.361.2-2.692,0-5.384,0-8.156,0a14.349,14.349,0,0,1,.16-1.963c.192-1.119.522-2.186.778-3.28a2.648,2.648,0,0,1,1.57-1.8,13.461,13.461,0,0,1,3.457-1.442c.122-.028.153-.233.321-.2.316.491.025.929-.14,1.359a23.255,23.255,0,0,0-1.312,5.266A2.123,2.123,0,0,0,24.1,33.7c.59.331,1.275.129,1.929.182.559.045,1.154-.118,1.644.308" transform="translate(-4.881 -6.246)" fill="#c7eefd"/><path d="M29.2,33.916H25.17a6.346,6.346,0,0,1,.145-2.255,6.406,6.406,0,0,0,.2-1.354,20.167,20.167,0,0,1,1.1-3.78,4.162,4.162,0,0,0,.354-1.09l3.076-.865c-.124.513.155.986-.233,1.394-.017.017-.007.067,0,.1.146.812-.31,1.566-.211,2.379.077.629-.281,1.214-.21,1.865a5.45,5.45,0,0,1-.016,1.838,7.8,7.8,0,0,0-.172,1.769" transform="translate(-6.407 -5.969)" fill="#def5fc"/><path d="M30.607,46.4c.056.022.158.041.159.067a4.88,4.88,0,0,0,.247,1.38c-.435,0-.87-.007-1.3,0a3.566,3.566,0,0,1-1.776-.324,5.229,5.229,0,0,0-1.182-.3c-.235-.687-.523-1.362-.692-2.065a13.705,13.705,0,0,1-.724-3.492c.009-.4-.306-.715-.221-1.149a6.337,6.337,0,0,0,.014-1.154h4.058a3.873,3.873,0,0,0,.082,1.407,3.563,3.563,0,0,1,.113,1.393,6.664,6.664,0,0,0,.034,1.433,5.453,5.453,0,0,1,.164,1.881c-.01.27.323.358.232.634.281.048.469.36.794.283" transform="translate(-6.397 -9.565)" fill="#f1fafe"/><path d="M51.275,34.691a1.747,1.747,0,0,0,1.077-.681A1.844,1.844,0,0,1,54.281,34a2.077,2.077,0,0,1,.557.774c0,.273-.011.547,0,.819a1.355,1.355,0,0,1-.415,1.064A22.709,22.709,0,0,1,51.713,39.2c-.119.086-.314.07-.406.231a14.424,14.424,0,0,1-3.58-3.425c.118-.444-.118-.926.19-1.433a1.562,1.562,0,0,1,2.3-.548,2.527,2.527,0,0,0,1.06.662" transform="translate(-12.163 -8.19)" fill="#f27b7b"/><path d="M51.426,20.924c-.277-1.522-.913-2.929-1.317-4.555a4.613,4.613,0,0,0,.8.447,1.448,1.448,0,0,1,1.12,1.278,2.874,2.874,0,0,0,1.308,1.59c.228.172.465.354.677.549a1.246,1.246,0,0,0,1.805.243c.083-.045.127-.166.352-.107a21.231,21.231,0,0,1,2.252,2.757c-1.283-.52-2.382-.933-3.491-1.314-1.134-.388-2.326-.6-3.5-.888" transform="translate(-12.771 -3.977)" fill="#eff8fc"/><path d="M28.41,21.451c-.13.394-.621.078-.781.413a3.462,3.462,0,0,0-1.542.455c-.183-.315.127-.363.224-.461a1.95,1.95,0,0,0,.346-.581,1.594,1.594,0,0,1,.288-.491,2.928,2.928,0,0,0,.445-.743c.261-.433.2-1.039.621-1.375.4-.316.841-.584,1.265-.86A20.08,20.08,0,0,1,31.445,16.7a.871.871,0,0,1,.327-.005c.065.225.258.465-.115.62a45.413,45.413,0,0,1-3.247,4.137" transform="translate(-6.634 -4.052)" fill="#ddf3fa"/><path d="M29.224,21.655a16.227,16.227,0,0,1,3.247-4.137c.075.444-.187.808-.283,1.21-.073.3-.317.6-.3.881.025.482-.386.856-.225,1.289a.79.79,0,0,1-.648.459,7.561,7.561,0,0,1-1.788.3" transform="translate(-7.448 -4.256)" fill="#eef7fb"/><path d="M56.527,17.285c.143-.3.522-.323.739-.542l.514.257v.568L56.17,19.209c-.327-.151-.548-.506-.838-.775-.273-.254-.533-.525-.78-.771v-.647c.127-.17.408-.061.486-.276.476.148.756.758,1.49.544" transform="translate(-13.903 -4.067)" fill="#ef7a7a"/><path d="M24.008,57.755v.726l.516.515c2.908,0,5.834.007,8.759,0a3.7,3.7,0,0,0,3.51-2.08,2.956,2.956,0,0,1,.179-.287c.253-.2.528-.02.709-.128s.317-.226.531-.19a2.93,2.93,0,0,1-.613,1.7,4.341,4.341,0,0,1-2.136,1.838,4.131,4.131,0,0,1-1.562.394c-2.6-.005-5.2.061-7.792-.024A6.857,6.857,0,0,1,21.5,58.21h1.972c.443-.085.211-.5.54-.454" transform="translate(-5.478 -13.677)" fill="#fecdbe"/><path d="M6.89,15.607H7.6c.092.1.186.194.293.306v.822c-.086.192-.36.268-.4.561-.068.3.24.488.287.771H12.1c.249-.345-.364-.515-.181-.883l.659-.538h.536c.63.827,1.646,1.354,1.926,2.38l-2.293,2.337a1.616,1.616,0,0,1-.756-.464v-.791l.411-.231-.071-.134H8.107a2.218,2.218,0,0,1-2.028-2.09c0-.305,0-.611,0-.911.366-.316.273-.958.812-1.136" transform="translate(-1.549 -3.792)" fill="#010101"/><path d="M7.842,9.117h.71c.186.266.58.376.492.989.693-1.183,1.238-2.213,1.876-3.178a2.23,2.23,0,0,1,3.811.138c.108.179.256.3.395.487v.865c-.391.282-.391.282-1.114.276-.358-.382-.5-.955-1.139-1.229h-.265a16.679,16.679,0,0,0-2.123,3.212c.136.162.323.05.471.1s.219.268.422.2l.321.6c.062.219-.309.277-.188.565-.893.462-1.928.341-2.81.734a1.263,1.263,0,0,1-.721-1.009,6.792,6.792,0,0,1-.343-1.5l-.213-.4.416-.839" transform="translate(-1.893 -1.439)" fill="#010100"/><path d="M17.578,13.89c-.307-.222-.668-.229-.89-.621a2.312,2.312,0,0,1,.069-.8c.321-.732.194-1.621.835-2.338a2.39,2.39,0,0,1,1.007.024c.669.325,1.469.141,2.117.627v.939L20.436,12h-.923l2.01,3.336a2.474,2.474,0,0,1-1.111,2.813c-.417.04-.873.43-1.382.229-.314-.132-.247-.493-.463-.656-.1-.362.531-.851,1.3-1.009l.284-.62a30.8,30.8,0,0,0-1.937-3.146c-.092.49-.417.672-.638.942" transform="translate(-4.252 -2.449)" fill="#010100"/></g></g></g></svg>