<svg xmlns="http://www.w3.org/2000/svg" xmlns:xlink="http://www.w3.org/1999/xlink" width="103" height="103" viewBox="0 0 103 103"><defs><filter id="a" x="0" y="0" width="103" height="103" filterUnits="userSpaceOnUse"><feOffset dy="3" input="SourceAlpha"/><feGaussianBlur stdDeviation="3" result="b"/><feFlood flood-opacity="0.161"/><feComposite operator="in" in2="b"/><feComposite in="SourceGraphic"/></filter><clipPath id="c"><rect width="50" height="50" fill="none"/></clipPath></defs><g transform="translate(-293 -3461)"><g transform="matrix(1, 0, 0, 1, 293, 3461)" filter="url(#a)"><rect width="85" height="85" rx="20" transform="translate(9 6)" fill="#fff"/></g><g transform="translate(319.773 3484.775)"><g transform="translate(0.227 0.226)" clip-path="url(#c)"><path d="M6.317,6.633a4.785,4.785,0,0,1-1.2,1.187,5.7,5.7,0,0,1-1.075,2.4A19.585,19.585,0,0,0,.906,19.392a1.235,1.235,0,0,0,.176.873,1.536,1.536,0,0,0,1.2.291q8.767.01,17.54.009a2.475,2.475,0,0,0,1.856-.782q6.193-6.161,12.4-12.31a1.585,1.585,0,0,0,.654-1.133A6.333,6.333,0,0,0,32.8,4.592,19.648,19.648,0,0,0,21.029.907,19.9,19.9,0,0,0,8.184,5.553a5.151,5.151,0,0,1-1.866,1.08" transform="translate(-0.031 -0.035)" fill="#dc636e"/><path d="M6.634,6.946A.964.964,0,0,0,7.962,6.71a17.774,17.774,0,0,1,2.709-2.1A25.819,25.819,0,0,1,13.365,3.19a17.653,17.653,0,0,1,3.588-1.184,12,12,0,0,1,3.518-.4c.183.009.378.063.553-.114a.567.567,0,0,1,.642-.059c.328.3.689.172,1.029.168a13.688,13.688,0,0,1,2.831.363,17.984,17.984,0,0,1,2.529.644,17.7,17.7,0,0,1,3.5,1.647,20.76,20.76,0,0,1,1.957,1.289c.163.129.354.261.519.4.3.262.539.608.882.708L20.883,20.566H1.413a28.363,28.363,0,0,1,.757-4.554,19.7,19.7,0,0,1,3.458-6.8,1.461,1.461,0,0,0-.191-1.078h-.9c-.161.533-.675.813-.932,1.3-.432.814-1.016,1.542-1.394,2.393A14.944,14.944,0,0,0,.829,15.506c-.069.439-.349.842-.387,1.321A6.34,6.34,0,0,1,.218,18.12a10.729,10.729,0,0,0-.154,2.794,15.064,15.064,0,0,0,.014,2.861A21.416,21.416,0,0,0,1.528,29.3c.261.585.513,1.174.8,1.746a20.951,20.951,0,0,0,2.364,3.584,21.761,21.761,0,0,0,2.861,2.95,21.414,21.414,0,0,0,5.285,3.3c.586.262,1.205.453,1.81.677A9.725,9.725,0,0,0,16.5,42.1c.561.085,1.145.178,1.694.28a27.428,27.428,0,0,0,5.3.135,8.676,8.676,0,0,0,3.164-.574c.362.394.71.809,1.066,1.213a9.008,9.008,0,0,0,2.239,1.758,10.655,10.655,0,0,0,2.881,1.222,11.164,11.164,0,0,0,1.735.361c.5.039,1,.015,1.494.007a10.178,10.178,0,0,0,4.975-1.359c1.606,1.594,3.234,3.218,4.876,4.828a4.289,4.289,0,0,0,.665.526c.429.277.83.059,1.283.2A21.323,21.323,0,0,0,50.7,47.854V46.763a2.611,2.611,0,0,0-.848-1.2q-2.282-2.266-4.563-4.527a21.632,21.632,0,0,0,1.195-3.11.25.25,0,0,0,.027-.087c-.1-.874.383-1.717.191-2.584a20.966,20.966,0,0,0-.574-2.923c-.089-.237-.179-.393-.413-.465a1.049,1.049,0,0,0-.863-.038c-.539.486-.383,1.08-.252,1.657a8.825,8.825,0,0,1-1.818,7.986,9.156,9.156,0,0,1-13.22.961c-.214-.19-.717-.371-.317-.833a25.709,25.709,0,0,0,5.1-2.824,22.015,22.015,0,0,0,7.19-8.991c.1-.227.114-.51.394-.669.493.145.707.609,1.035.947.4.413.829.617,1.36.221a1.49,1.49,0,0,0,.188-1.1c-.4-.422-.771-.877-1.162-1.287-.362-.378-.83-.694-1.2-1.064a2.448,2.448,0,0,0,.349-1.24,7.8,7.8,0,0,0,.229-2.092,8.107,8.107,0,0,0,.165-3.377,23.259,23.259,0,0,0-2.029-7.953,19.047,19.047,0,0,0-1.913-3.179,25.76,25.76,0,0,0-3.13-3.451,23.858,23.858,0,0,0-3.5-2.582A28.385,28.385,0,0,0,26.894.655a6.809,6.809,0,0,0-1.205-.2,4.463,4.463,0,0,0-1.8-.238c-1.081-.4-2.208-.091-3.306-.2a12.638,12.638,0,0,0-2.406.252A5.385,5.385,0,0,0,15.919.8a15.879,15.879,0,0,0-5.045,2A13.265,13.265,0,0,0,7.632,5.065c-.363.366-.9.521-1.2,1.041a1.08,1.08,0,0,0,.2.839" transform="translate(-0.348 -0.348)"/><path d="M21.737,34.055c-.32-.074-.505.226-.784.272a8.786,8.786,0,0,0,2.63,2.217A6.744,6.744,0,0,0,26.914,37.6c.312-.007.5.27.815.221.29-.047.6.019.893-.015a12.761,12.761,0,0,0,3.26-.767,8.993,8.993,0,0,0,3.048-1.97,9.269,9.269,0,0,0,2.588-4.754,12.167,12.167,0,0,0,.126-3.377,10.966,10.966,0,0,1-.337-2.1l.248-.248c.21-.1.477,0,.731-.032.014-.182-.11-.206-.244-.2a.488.488,0,0,1-.553-.39,4.738,4.738,0,0,0-.6-1h-.928a8.881,8.881,0,0,0-1.6-1.822c-.056.479-.5.756-.466,1.228A9.825,9.825,0,0,1,22.817,34.081a8.226,8.226,0,0,1-1.08-.026" transform="translate(7.079 6.958)" fill="#b2d7fa"/><path d="M19.171,35.764c.1-.459-.291-.829-.214-1.3.069-.417-.015-.856.02-1.282a10.513,10.513,0,0,1,1.521-5.01,11.61,11.61,0,0,1,1.865-2.385,11.207,11.207,0,0,1,5.147-2.707,7.51,7.51,0,0,1,1.417-.167c.665-.009,1.336.057,1.99-.019.637-.074,1.191.308,1.812.214a1.523,1.523,0,0,0,.5-.932,21.717,21.717,0,0,0,.345-10.714,8.265,8.265,0,0,0-.848-2.2c.011-.585-.427-.974-.73-1.368a4.825,4.825,0,0,0-1.028-1.263c-.275-.182-.23-.605-.584-.732a.663.663,0,0,0-.088,0,.17.17,0,0,0-.088.027Q23.317,12.76,16.379,19.645V36.358a2.54,2.54,0,0,0,2.792-.593" transform="translate(5.458 1.688)" fill="#168ffa"/><path d="M19.34,16.926a2.009,2.009,0,0,0-1.108.433c-3.218,1.784-6.577,3.292-9.827,5.01C6.615,23.315,4.8,24.2,2.967,25.143A8.887,8.887,0,0,0,4.01,26.869a2.683,2.683,0,0,0,.592.839c.683.545.978,1.446,1.778,1.877C10.024,32.328,17.337,34.16,19.5,32.87a1.528,1.528,0,0,0,.135-.957q.006-7.057-.011-14.114c0-.288.274-.736-.283-.874" transform="translate(0.703 5.496)" fill="#f8c201"/><path d="M1.043,16.36a19.96,19.96,0,0,0,1.91,7.652C5.3,22.838,7.673,21.7,10,20.471q3.714-1.953,7.5-3.752a2.288,2.288,0,0,0,.406-.359Z" transform="translate(0.021 5.302)" fill="#faedd8"/><path d="M30.9,19.775c-.462.1-.833-.285-1.31-.213a9.551,9.551,0,0,1-1.388.015c-.826,0-1.587.382-2.408.417a17.166,17.166,0,0,0-2.652,1.477,9.7,9.7,0,0,0-2.693,3.218,7.984,7.984,0,0,0-.929,3.369c.012.428-.385.907-.154,1.279.242.393.1.752.169,1.118.389.328.764.1,1.115-.055a20.061,20.061,0,0,0,6.883-4.916,17.164,17.164,0,0,0,3.194-4.616c.149-.343.469-.675.173-1.094" transform="translate(6.49 6.404)" fill="#b2d7fa"/><path d="M30.835,19.718a9.173,9.173,0,0,1-1.2,2.457,22.609,22.609,0,0,1-2,2.635A13.24,13.24,0,0,1,26.065,26.5a30.354,30.354,0,0,1-3.8,2.739c-.722.425-1.518.663-2.223,1.1-.192.117-.382.028-.57.063a11.2,11.2,0,0,0,.99,2.927,1.824,1.824,0,0,0,.8-.042,28.341,28.341,0,0,0,4.081-1.9c.585-.691,1.521-.951,2.089-1.667.261-.331.68-.455.981-.757a22.386,22.386,0,0,0,4.43-6.273,7.364,7.364,0,0,1,.84-1.82,9.705,9.705,0,0,0-2.848-1.152" transform="translate(6.553 6.461)" fill="#88c5fb"/><path d="M21.532,33.741c.023.056.043.16.07.161.8.065,1.582.235,2.393.26a16.2,16.2,0,0,0,3.119-.44c.439-.073.828-.42,1.266-.525a4.1,4.1,0,0,0,1.212-.669,10.592,10.592,0,0,0,3.069-3.061A7.387,7.387,0,0,0,33.7,27.136a6.49,6.49,0,0,0,.4-2.208.57.57,0,0,1,.13-.544.489.489,0,0,0,.053-.455,4.665,4.665,0,0,1-.207-1.776c-.112-.145-.257-.057-.381-.082-.133.273-.264.548-.4.821a23.973,23.973,0,0,1-2.456,3.919,24.992,24.992,0,0,1-3.27,3.359,15.343,15.343,0,0,1-3.144,2.183,7.2,7.2,0,0,1-1.463.764c-.527.135-.94.453-1.432.623" transform="translate(7.284 7.273)" fill="#d7e9fa"/><path d="M18.447,16.976a.153.153,0,0,1,.2.156c.008.4,0,.791,0,1.187V32.7c-.173.153-.27.312-.519.3a12.821,12.821,0,0,1-1.986-.036c-.742-.151-1.5-.043-2.209-.194a24.84,24.84,0,0,1-5.407-1.594c-.479-.223-.909-.526-1.382-.745a3.953,3.953,0,0,1-1.365-.8c-.046-.05-.192-.007-.291-.007A13.668,13.668,0,0,0,8.093,31.82a21.34,21.34,0,0,0,3.474,1.933,13.663,13.663,0,0,0,3.151,1.029c.866.192,1.738.311,2.614.436.71.1,1.407.114,2.112.152a1.918,1.918,0,0,0,0-2.175c-.245.016-.27-.422-.619-.147V16.822c-.2-.057-.362-.1-.378.153" transform="translate(1.597 5.446)" fill="#d3a706"/><path d="M28.451,8.4a2.154,2.154,0,0,0,.184.807c.26.987.459,1.987.641,2.995a34.791,34.791,0,0,1,.153,5.335,12.154,12.154,0,0,1-.279,1.746c-.123,1.014-.618,1.94-.7,2.962.023.057.045.16.07.161a8.679,8.679,0,0,1,2.257.761c.693-2.323.406-4.76.467-7.173a6.56,6.56,0,0,0-.234-1.2,26.37,26.37,0,0,0-.7-2.672,25.992,25.992,0,0,0-1.493-3.441.412.412,0,0,0-.37-.284" transform="translate(9.735 2.552)" fill="#0570f8"/><path d="M32.646,32.078a11.975,11.975,0,0,0-1.406,1.281c1.422,1.34,2.7,2.8,4.2,4.06,1.006-.272,1.517-1.123.974-1.871a17.583,17.583,0,0,0-3.478-3.479c-.074-.058-.192-.024-.286.009" transform="translate(10.725 10.715)" fill="#9b6a6a"/><path d="M15.791,29.286v2.175a24.2,24.2,0,0,0,4.323-.432l.238-.235A8,8,0,0,1,19.38,28.1c-.276.253-.649.161-.968.264a4.472,4.472,0,0,1-1.823.33c-.176.317-.36.623-.8.593" transform="translate(5.249 9.355)" fill="#0570f7"/><path d="M32.278,32.264c1.262,1.033,2.332,2.261,3.5,3.392a2.214,2.214,0,0,1,.328.651,2.307,2.307,0,0,1-1.038,1.3c.437.519.437.519.886.593l1.856-1.867L32.94,31.5c-.183.249-.527.416-.662.763" transform="translate(11.093 10.53)" fill="#775252"/></g></g></g></svg>