<svg xmlns="http://www.w3.org/2000/svg" xmlns:xlink="http://www.w3.org/1999/xlink" width="103" height="103" viewBox="0 0 103 103"><defs><filter id="a" x="0" y="0" width="103" height="103" filterUnits="userSpaceOnUse"><feOffset dy="3" input="SourceAlpha"/><feGaussianBlur stdDeviation="3" result="b"/><feFlood flood-opacity="0.161"/><feComposite operator="in" in2="b"/><feComposite in="SourceGraphic"/></filter><clipPath id="c"><rect width="50" height="50" fill="none"/></clipPath></defs><g transform="translate(-381 -3573)"><g transform="translate(88 -23)"><g transform="matrix(1, 0, 0, 1, 293, 3596)" filter="url(#a)"><rect width="85" height="85" rx="20" transform="translate(9 6)" fill="#fff"/></g><g transform="translate(320 3620)"><g transform="translate(0 0)" clip-path="url(#c)"><path d="M5.661,36.8c.077-.272-.108-.417-.286-.577H.892A2.711,2.711,0,0,0,0,37.386V55.453c.133.1.141.283.221.387a1.717,1.717,0,0,0,1.465.692c4.2-.021,8.394-.011,12.58-.011L15.286,56c.225-.485.64-.936.518-1.559.572-.214,1.042.086,1.5.195.833.2,1.666.378,2.508.537.952.179,1.915.257,2.861.411,1.8.294,3.6.043,5.39.166.93.064,1.818-.351,2.75-.2.364-.263.819-.09,1.178-.222.405-.148.816-.078,1.193-.186.82-.235,1.649-.419,2.478-.614a40.121,40.121,0,0,0,4.029-1.347c1.129-.4,2.175-1.026,3.27-1.529.252-.116.366-.351.576-.493v-.686c-.491-.849-1.141-.521-1.756-.212a35.894,35.894,0,0,1-7.47,2.762,33.421,33.421,0,0,1-17.121-.212,1.853,1.853,0,0,1-.923-.424c-.3-.529-.1-1.161-.17-1.764.067-3.5-.059-7,.066-10.346a1.423,1.423,0,0,1,.89-.531c3.618-.767,7.221-1.614,10.844-2.36a1.472,1.472,0,0,1,.671-.049,1.139,1.139,0,0,1,.761.945c-.106.682-.682.964-1.172,1.327a32.185,32.185,0,0,0-4.775,3.656,3.609,3.609,0,0,0,1.888,5.545,18.531,18.531,0,0,0,14.907-1.18c1.757-.915,3.392-2.044,5.1-3.053a2.151,2.151,0,0,1,2.3-.152c.776.74.79,1.423-.017,2.106-.789.668-1.657,1.237-2.479,1.863-.679.516-.692.853-.171,1.495a.754.754,0,0,0,.924.023,19.722,19.722,0,0,0,1.654-1.166,15.84,15.84,0,0,0,1.494-1.1,2.794,2.794,0,0,0,.28-4.059,3.35,3.35,0,0,0-2.662-1.133,4.256,4.256,0,0,0-2.35.716c-1.341.824-2.69,1.646-4.046,2.449A18.42,18.42,0,0,1,36.152,47.4a11.015,11.015,0,0,1-1.23.326c-.616.113-1.271.108-1.858.246a8.822,8.822,0,0,1-2.172.138,17.045,17.045,0,0,1-3.057-.379A9.491,9.491,0,0,1,25.5,47.01a1.893,1.893,0,0,1-.2-3.343C26.87,42.6,28.379,41.443,30,40.44a2.219,2.219,0,0,0,1.044-2.087c-.019-.29,0-.583,0-.8a4.384,4.384,0,0,0-.968-1.436A1.472,1.472,0,0,0,29,35.635c-.318.027-.563-.468-.947-.072-.241.249-.7-.12-.975.218-.78,0-1.49.389-2.258.426-.378.019-.69.343-1.089.2-.4.361-.945.267-1.4.356a23.013,23.013,0,0,1-3.067.621c-.356.387-.943.01-1.3.391-.453-.1-.826.331-1.285.2-.192-.056-.267.146-.408.188a1.335,1.335,0,0,1-.374.007,2.94,2.94,0,0,0-.757-1.567,1.488,1.488,0,0,0-1.013-.388c-2.209.007-4.417,0-6.605,0-.188.17-.373.314-.3.586-.317.683.1.9.652,1.038a52.653,52.653,0,0,1,6.033.209c.046,5.484.015,10.919.019,16.53-4.056.108-7.954.065-11.751.037A3.405,3.405,0,0,1,1.854,53c.073-4.488.009-8.975.035-13.463a2.754,2.754,0,0,1,.2-1.472,13.388,13.388,0,0,1,2.669-.19c.592-.091,1.237-.181.9-1.072" transform="translate(0 -6.534)"/><path d="M46.743,12.076c.285-.324.172-.715.2-1.032-.519-.641-.86-1.394-1.829-1.7-5.026,0-10.225,0-15.425,0a2.174,2.174,0,0,0-1.764.918c-.788.934-1.449,1.96-2.229,2.9a14.81,14.81,0,0,0-1.968,2.787v1.289a2.941,2.941,0,0,0,.848,1.073c.825.829,1.622,1.691,2.488,2.476,2.2,2,4.254,4.152,6.414,6.193.741.7,1.495,1.394,2.252,2.081a5.6,5.6,0,0,0,.961.572,2.837,2.837,0,0,0,2.165-.779,1.292,1.292,0,0,0,.139-.137c2.78-2.9,5.812-5.533,8.628-8.393.711-.723,1.49-1.4,2.251-2.079a2.655,2.655,0,0,0,.74-1.448,1.752,1.752,0,0,0-.3-1.214c-.577-.883-1.246-1.706-1.861-2.528h-.929c-.583.33-.417.8-.214,1.255A6.469,6.469,0,0,0,48.16,15.5c-.966.029-1.863-.008-2.759.011a9.06,9.06,0,0,1-2.255-.144,20.423,20.423,0,0,1-1.216-4.222c1.283-.276,2.522-.426,3.545.693.323.353.756.642,1.267.236" transform="translate(-4.381 -1.724)"/><path d="M8.162,37.9c-.541-.081-.576-.128-.585-.781H6.015v.489l-.309.307H1.915v15.41a1.759,1.759,0,0,0,1.29.324c2.566.008,5.132.02,7.7,0,1.737-.016,2.428-.672,2.449-2.43.048-4,.021-7.992.011-11.987a1.625,1.625,0,0,0-.32-1.157c-1.591-.227-3.249.1-4.88-.17" transform="translate(-0.354 -6.849)" fill="#7fb3fa"/><path d="M48.481,51.879a1.143,1.143,0,0,1-.182-.9,44.7,44.7,0,0,0,3.67-2.884V46.877c-.223-.172-.167-.609-.56-.661a34.824,34.824,0,0,1-9.542,5.425A35.749,35.749,0,0,1,31.5,53.774a35.034,35.034,0,0,1-11.179-1.193.914.914,0,0,0-.925.079v2.054a18.373,18.373,0,0,0,3.062.823,21.668,21.668,0,0,0,2.947.486,18.154,18.154,0,0,1,2.452.188,12.305,12.305,0,0,0,2.171.157c1.117.042,2.211-.334,3.335-.192.568-.374,1.23-.1,1.839-.269.592-.16,1.216-.226,1.816-.347.8-.162,1.6-.387,2.387-.6a16.687,16.687,0,0,0,2.311-.767,31.665,31.665,0,0,0,4.574-2.139l.827.408a2.86,2.86,0,0,0,.677-.405c.215-.225.449-.169.69-.18" transform="translate(-3.581 -8.528)" fill="#fecabd"/><path d="M50.762,12.384h-.68l-1.35-1.367c-.972,0-1.935,0-2.9,0-.14,0-.342-.071-.344.192,1.116,1.247,2.035,2.647,3.06,3.965a5.7,5.7,0,0,0,.845.917h3.459a7.2,7.2,0,0,1-1.219-1.4.98.98,0,0,1-.093-1.332c-.289-.3-.347-.79-.781-.976" transform="translate(-8.4 -2.032)" fill="#60a1f7"/><path d="M30.254,2.408h-.735c-.068.249-.339.42-.3.793.473,1.063,1.65,1.634,2.158,2.706h.688c.114-.138.258-.31.45-.541V4.824c-.816-.683-1.332-1.712-2.261-2.416" transform="translate(-5.395 -0.444)" fill="#030303"/><path d="M50.253,3.486c-.053-.368.126-.751-.28-1.045H49.1c-.556.952-1.565,1.618-2.184,2.7l.381.689a1.268,1.268,0,0,0,.673.083c.9-.674,1.4-1.676,2.284-2.429" transform="translate(-8.663 -0.45)" fill="#030303"/><path d="M39.266,3.812l.483.481c.309-.008.663.13.868-.349V.33c-.188-.4-.5-.323-.894-.323l-.457.78V3.812" transform="translate(-7.251 0)" fill="#010101"/><path d="M19.394,51.006a2.2,2.2,0,0,1,.8.18,13.567,13.567,0,0,0,2.677.6c.407.335.946.049,1.351.263.442.233.9-.01,1.308.14a7.488,7.488,0,0,0,2.653.164c.392,0,.7.245,1.088.223a27.9,27.9,0,0,1,3.914-.2,1.872,1.872,0,0,1,1.282-.183c.43.047.756-.363,1.187-.208,1.019-.317,2.094-.381,3.113-.717.974-.321,2.016-.47,2.954-.867a40.745,40.745,0,0,0,4.421-2.031c.762-.435,1.542-.842,2.279-1.315.878-.564,1.729-1.174,2.571-1.792.215-.158.506-.33.419-.7a2.558,2.558,0,0,0-1.822-.391c-1.554.893-3.08,1.891-4.645,2.822a18.379,18.379,0,0,1-3.482,1.7,17.321,17.321,0,0,0-1.967.656c-.393.189-.878-.018-1.245.286-.55-.13-1.031.243-1.576.2-.517-.038-1.038-.008-1.558-.008s-1.041.029-1.558-.009c-.4-.029-.79.12-1.2-.16-.3-.2-.823.154-1.168-.221a4.044,4.044,0,0,1-1.971-.428A2.854,2.854,0,0,1,27,47.276a5.243,5.243,0,0,0-.36-.7,4.175,4.175,0,0,1,.56-2.994.589.589,0,0,0,.167-.347c-.062-1.641,1.012-2.5,2.221-3.278.792-.51,1.566-1.049,2.316-1.62.268-.2.662-.342.567-.809a.82.82,0,0,0-1.093-.122c-.409.23-.913-.084-1.237.317-.453-.1-.845.172-1.278.228a28.12,28.12,0,0,0-2.837.652c-.711.168-1.421.339-2.137.483a13.853,13.853,0,0,0-2.406.541c-.37.146-.779.025-1.182.2a4.63,4.63,0,0,1-.909.29Z" transform="translate(-3.581 -6.875)" fill="#fedccd"/><path d="M8.162,38.074c0,.268.209.192.349.192,1.17,0,2.34,0,3.509,0h1.022v.985q0,6.142-.007,12.283a1.982,1.982,0,0,1-.1.832c-.385.917-.611,1.129-1.562,1.129q-4.727,0-9.455,0V55.35c.846.152,7.4.2,12.648.085V38.322c-.141-.245-.384-.254-.656-.253-1.914.009-3.83,0-5.745,0" transform="translate(-0.354 -7.024)" fill="#60a1f7"/><path d="M34.238,37.6c-.037.21-.2.288-.361.395q-2.052,1.387-4.092,2.791c-.338.569-.915,1.022-.824,1.8a9.319,9.319,0,0,1,.007,1.067,47.075,47.075,0,0,1,5.155-3.712,2.794,2.794,0,0,0,.917-1.315,1.7,1.7,0,0,0-.8-1.025" transform="translate(-5.346 -6.937)" fill="#fdcabd"/><path d="M40.048,26.59a2.45,2.45,0,0,0,.735-1.29,14.431,14.431,0,0,1,.635-1.394c.2-.436.353-.893.55-1.332a15.6,15.6,0,0,0,1.019-2.5,4.3,4.3,0,0,1,.459-.858H35.041c.466,1.426,1.174,2.77,1.75,4.168a23.434,23.434,0,0,0,1.153,2.538,17.883,17.883,0,0,0,.738,1.644c.87.254.992-.537,1.367-.976" transform="translate(-6.471 -3.546)" fill="#7fb3fa"/><path d="M34.893,16.082h8.432a11.571,11.571,0,0,0-.652-2.5c-.247-.837-.5-1.673-.759-2.534h-5.4c-.676,1.567-.962,3.308-1.617,5.035" transform="translate(-6.443 -2.038)" fill="#7fb3fa"/><path d="M25.959,19.2A15.525,15.525,0,0,0,27.4,20.433a4.833,4.833,0,0,1,1.046,1.013c2.078,2.222,4.424,4.167,6.544,6.346.088.09.162.214.375.128.157-.14.121-.325,0-.539a26.256,26.256,0,0,1-1.3-2.875c-.528-1.245-1.146-2.45-1.607-3.726a14.085,14.085,0,0,0-.8-1.577Z" transform="translate(-4.794 -3.543)" fill="#7fb3fa"/><path d="M26.089,16.1h5.649c.575-1.629,1.02-3.333,1.559-5.076H30.4a1.316,1.316,0,0,0-1.1.616c-.918,1.319-1.886,2.6-2.887,3.857a4.1,4.1,0,0,0-.325.6" transform="translate(-4.818 -2.033)" fill="#7fb3fa"/><path d="M44.751,23.26c-.265-.021-.17.215-.231.334-.75,1.478-1.287,3.052-1.983,4.6.413-.311.826-.62,1.237-.931a1.221,1.221,0,0,0,.139-.137c2.391-2.534,5.038-4.8,7.48-7.285.193-.2.389-.39.679-.679H49.045a18.811,18.811,0,0,0-4.294,4.1" transform="translate(-7.855 -3.535)" fill="#60a1f8"/><path d="M49.4,16.139a.586.586,0,0,0-.127-.434,18.2,18.2,0,0,1-1.492-1.9c-.41-.646-.955-1.185-1.337-1.856-.175-.309-.431-.744-.948-.7.361,1.642,1.026,3.2,1.421,4.881Z" transform="translate(-8.4 -2.076)" fill="#7fb2f9"/><path d="M45.25,23.26a6.981,6.981,0,0,0,1.4-1.319c.806-.879,1.843-1.5,2.616-2.409.1-.117.285-.175.278-.372h-2.7a2.2,2.2,0,0,1-.307.969c-.439.974-.859,1.958-1.28,2.94a.518.518,0,0,0,0,.192" transform="translate(-8.354 -3.535)" fill="#7fb2f9"/><path d="M40.873,28.258a4.126,4.126,0,0,0-.946.86.528.528,0,0,1-.421.117l.461,1.182a6.9,6.9,0,0,0,.905-2.159" transform="translate(-7.295 -5.214)" fill="#5c98e8"/><path d="M11.229,53.14l.307.307c.354-.033.769.164,1.062-.28V50.811c-.285-.473-.718-.2-1.054-.3-.528.86-.187,1.779-.314,2.632" transform="translate(-2.074 -9.32)" fill="#010202"/></g></g></g></g></svg>