<svg xmlns="http://www.w3.org/2000/svg" xmlns:xlink="http://www.w3.org/1999/xlink" width="118.507" height="118.833" viewBox="0 0 118.507 118.833"><defs><clipPath id="a"><rect width="118.507" height="118.834" fill="none"/></clipPath></defs><g transform="translate(0 0)" clip-path="url(#a)"><path d="M7.734,53.649c-2.521-1.411-5.267-2.254-7.4-4.03-.335-1.522.56-2.645.89-3.89A50.26,50.26,0,0,1,2.853,40.84c.615-1.613,1.066-3.286,1.512-4.935.272-1,.91-1.808,1.115-2.874,2.842-.319,5.6.283,8.54.822a48.024,48.024,0,0,1,6.738-9.435c-1.035-2.767-2.881-5.016-3.5-7.967,4.712-3.4,9.35-6.746,13.979-10.089,2.749,1.367,4.251,3.893,6.554,5.742,3.41-1.805,7.285-2.632,11.24-3.833-.34-1.247.6-2.363.449-3.626-.148-1.24,1.079-2.246.407-3.364C50.386.76,50.757.368,51.11,0H67.392l1.2,1.2c-.412,1.193.586,2.269.407,3.47-.182,1.234,1.089,2.225.283,3.5,3.963,1.312,7.9,1.984,11.378,3.984,2.246-1.808,3.8-4.269,6.453-5.739,4.832,2.946,9.274,6.567,13.826,9.809a2.884,2.884,0,0,1-.314,2.28c-1,1.821-1.86,3.716-2.8,5.638.2,1.027,1.05,1.668,1.73,2.456a36.6,36.6,0,0,1,4.935,7.184c2.357-.358,4.72-.716,7.155-1.081.218.423.827.2,1.489.345,1.854,5.345,3.486,10.851,5.374,16.292a7.731,7.731,0,0,1-1.216,1.043c-2.1,1.081-4.227,2.119-6.429,3.216a34.76,34.76,0,0,1,0,11.634c1.2.615,2.469,1.255,3.727,1.917,1.279.677,2.765,1.024,3.646,2.29.239,1.483-.547,2.757-.986,4.02-1.128,3.255-2.228,6.512-3.151,9.827-.259.931-.949,1.621-1.074,2.56A28.082,28.082,0,0,1,104.536,85a56.714,56.714,0,0,1-6.787,9.523c1.1,2.7,2.84,4.907,3.478,7.773-2.3,1.79-4.614,3.429-6.922,5.1s-4.7,3.278-7.044,5.068c-2.721-1.289-4.248-3.9-6.528-5.7a38.392,38.392,0,0,1-10.706,3.426l-.41.41c-.4,2.36-.788,4.684-1.222,7.27-.2.161-.615.5-1.18.965H51.055c-.236-.309-.565-.731-1.014-1.31-.342-2.067-.729-4.4-1.136-6.857-.851-.739-2.153-.76-3.307-1.037a46.884,46.884,0,0,1-7.8-2.861c-2.194,1.688-3.768,4.243-6.4,5.713-4.886-3.078-9.352-6.673-13.875-9.886a3.338,3.338,0,0,1,.384-2.347c.975-1.834,1.891-3.7,2.874-5.643-2.326-3.167-5.14-6.014-6.821-9.674-.685.091-1.17.635-1.927.529-1.574-.215-3.058.669-4.648.519-.617.827-1.12-.843-1.764.228C3.382,80.613,2.049,75.022,0,69.643c2.293-2.254,5.231-2.884,7.677-4.456a1.222,1.222,0,0,0-.493-1.377c.309-3.377-.462-6.831.55-10.161" transform="translate(0 0)" fill="#252525"/><path d="M5.386,79.908C4.13,76.166,2.948,72.636,1.739,69.031c.15-.848,1.107-.822,1.686-1.2a33.565,33.565,0,0,1,3.289-1.564,4.6,4.6,0,0,0,1.8-1.31c.672-1.924-.423-3.543-.314-5.293a39.9,39.9,0,0,0,0-5.1c-.109-1.748.978-3.369.316-5.327-1.771-1.813-4.65-2.207-6.81-3.937,1.2-3.587,2.4-7.174,3.646-10.885,2.684-.044,5.145,1.154,7.767.848a7.409,7.409,0,0,0,1.323-1.73,32.825,32.825,0,0,1,6.209-8.571,5.136,5.136,0,0,0,1.325-1.777,2.029,2.029,0,0,0,.041-1.719c-.993-1.992-2.026-3.963-3.1-6.058,2.736-1.424,4.917-3.792,7.723-5.283a3.559,3.559,0,0,0,.986-.975c.355-.459.825-.288,1.266-.327q2.54,2.548,5.086,5.091a6.158,6.158,0,0,0,3.289-.993,65.217,65.217,0,0,1,7.921-2.757c1.424-.464,3.172-.052,4.248-1.468.4-2.389.8-4.78,1.2-7.238H62.575c-.345,1.266.552,2.376.456,3.646-.091,1.211.833,2.269.431,3.455A4.452,4.452,0,0,0,66.3,9.8a35.064,35.064,0,0,1,5.6,1.582c2.147.63,4.118,1.647,6.178,2.474a2.66,2.66,0,0,0,.794.088l5.148-5.148c.441.039.916-.062,1.149.124,2.853,2.342,5.921,4.391,8.9,6.538-.9,1.854-1.686,3.766-2.723,5.529a2.617,2.617,0,0,0,.35,3.216,20.243,20.243,0,0,0,1.46,1.489,31.842,31.842,0,0,1,5.267,7.565,4.549,4.549,0,0,0,1.639,2.02c2.427.228,4.912-.718,7.607-1,1.263,3.748,2.474,7.345,3.709,11.009-2.08,1.683-4.915,2.145-6.982,4.087-.161,2.531.542,5.042.526,7.617-.016,2.593-.542,5.122-.578,7.773,1.966,2.007,4.9,2.448,7.065,4.2-1.439,3.628-2.3,7.423-3.789,10.807-1.123.4-1.7-.576-2.612-.415a3.7,3.7,0,0,1-2.391-.355c-.677-.342-1.668-.07-2.529-.07a4.246,4.246,0,0,0-1.517,1.849,32.407,32.407,0,0,1-5.9,8.237,6.892,6.892,0,0,0-.973.993c-.661.991-1.133,1.927-.36,3.216,1.03,1.714,1.782,3.595,2.708,5.511l-9.16,6.663h-.622l-5.1-5.1a6.056,6.056,0,0,0-2.653.739c-1.069.392-2.09.913-3.169,1.317a21.1,21.1,0,0,0-3.037,1.084,16.558,16.558,0,0,1-3.317.931c-1.1.335-2.376.075-3.439,1.235.306,1.12-.594,2.228-.5,3.5.091,1.214-.833,2.272-.376,3.615H50.632c-.4-2.409-.8-4.8-1.2-7.228a3.807,3.807,0,0,0-2.547-1.058,26.5,26.5,0,0,1-5.615-1.556c-2.088-.742-4.137-1.6-6.178-2.464A4.188,4.188,0,0,0,34,100.3l-5.109,5.109c-.35-.1-.778.189-1.081-.171-1.219-1.458-2.993-2.191-4.432-3.379a18.968,18.968,0,0,0-4.44-3c.944-1.893,1.771-3.761,2.788-5.516a2.734,2.734,0,0,0-.42-3.41,19.34,19.34,0,0,0-1.468-1.486,36.207,36.207,0,0,1-5.122-7.394,5,5,0,0,0-1.688-2.124c-2.474-.2-4.894.755-7.64.973" transform="translate(2.722 2.318)" fill="#b2b2b2"/><path d="M44.024,94.994c-.244-.324-.475-.63-.62-.827a55.717,55.717,0,0,1-9.951-2.749,40.232,40.232,0,0,1-9.809-5.413,35.452,35.452,0,0,1-7.5-7.212c-1.31-1.779-2.627-3.556-3.859-5.394a30.671,30.671,0,0,1-2.9-5.76A30.956,30.956,0,0,1,7.842,63.4c-.4-1.686-.737-3.4-1.253-5.055-.511-1.629-.187-3.32-.514-4.907a11.325,11.325,0,0,1-.35-4.225c.622-3.457.685-6.969,1.709-10.41A47.432,47.432,0,0,1,11.3,29.016a45.737,45.737,0,0,1,4.637-6.93A42.907,42.907,0,0,1,20.3,17.439C22.809,15.19,28.056,11,33.235,9.466c2.417-1.564,5.27-1.9,7.952-2.643a9.211,9.211,0,0,1,3.94-.6c1.989.329,3.882-.77,5.841-.446,3.548.578,7.132.7,10.667,1.673A53.4,53.4,0,0,1,71.847,11.4a37.3,37.3,0,0,1,6.362,4.326,46.292,46.292,0,0,1,4.2,3.823,43,43,0,0,1,8.509,12.721A29.239,29.239,0,0,1,93.474,40.5c.983.83.228,2.1.835,3.151.469.812.156,2.116.078,3.2-.073,1,.534,1.805.537,2.827.008,2.355-.874,4.635-.519,7-1.056,3.509-1.678,7.111-3.071,10.568a47.117,47.117,0,0,1-5.449,9.79,36.448,36.448,0,0,1-7.215,7.493A49.3,49.3,0,0,1,69.276,90.5a43.83,43.83,0,0,1-8.96,3.05,22.476,22.476,0,0,1-7.054.853c-.89-.083-1.463.716-2.37.529-.744-.156-1.634.189-2.3-.083a10.7,10.7,0,0,0-3.078-.441c-.56-.062-.788.373-1.494.581" transform="translate(8.979 9.103)" fill="#9f9f9f"/><path d="M48.064,7.334c2.35-.568,4.611.1,6.805.462a37.694,37.694,0,0,1,8.68,2.531,47.363,47.363,0,0,1,10.423,6.266,32.5,32.5,0,0,1,4.012,3.685,43.95,43.95,0,0,1,5.363,7.28,44.4,44.4,0,0,1,3.908,8.833c.275.822-.073,1.828.718,2.482-.166,1.442.8,2.759.464,4.22.812,2.212.363,4.51.454,6.772a8.02,8.02,0,0,1-.4,3.076,24.712,24.712,0,0,0-.4,3.06,30.545,30.545,0,0,0-.628,3.029,10.259,10.259,0,0,1-.89,2.635,30.885,30.885,0,0,1-2.98,6.44c-.9,1.3-1.616,2.744-2.581,4.025a32.145,32.145,0,0,1-6.756,7.179c-1.312.944-2.539,2.018-3.908,2.92A34.648,34.648,0,0,1,58.168,87.6c-1.722.42-3.486.581-5.177.978a23.485,23.485,0,0,1-7.021.324,43.6,43.6,0,0,1-13.382-2.954,51.6,51.6,0,0,1-9.041-5.057A27.049,27.049,0,0,1,17.5,75.335a41.782,41.782,0,0,1-6.183-9.264C9.851,62.788,8.461,59.689,8.08,56.037c-.983-.962-.179-2.287-.734-3.416-.573-1.164-.137-2.565-.187-3.859a19.246,19.246,0,0,1,.021-3.709,56.066,56.066,0,0,1,3-12.444A47.967,47.967,0,0,1,15.277,23.6a28.139,28.139,0,0,1,5.363-5.911A42.37,42.37,0,0,1,30.856,10.97c2.988-1.25,5.949-2.671,9.282-2.809,1.118-1.03,2.573-.236,3.875-.729,1.206-.459,2.721-.1,4.051-.1" transform="translate(11.229 11.336)" fill="#252525"/><path d="M51.185,82.654c.322-2.16-.376-4.017.506-5.69,3.626-.057,9.427-2.71,11.956-4.7a19.569,19.569,0,0,0,5.807-7.347,26.464,26.464,0,0,0,1.88-6.67c.36-2.129.213-4.222.4-6.32.127-1.458-.384-2.814-.464-4.222a39.5,39.5,0,0,0-.858-4.041,34.246,34.246,0,0,0-3.836-10.5,48.213,48.213,0,0,0-5.234-7.832,63.189,63.189,0,0,0-5.973-6.318,70.876,70.876,0,0,0-8.1-6.211,2.552,2.552,0,0,0-3.084-.01q-2.622,1.821-5.2,3.7a42.947,42.947,0,0,0-6.035,5.592,49.97,49.97,0,0,0-6.831,8.989,41.936,41.936,0,0,0-4.17,8.963c-.524,1.727-1.4,3.374-1.328,5.254-.817,1.079-.057,2.469-.555,3.478-.641,1.3-.239,2.544-.35,3.8a14.645,14.645,0,0,0,.01,3.706c.563,3.346,1.048,6.709,2.736,9.772a20.888,20.888,0,0,0,12.324,9.9c.752.236,1.46.633,2.223.791a20.339,20.339,0,0,0,2.638.2c1.04,1.636.171,3.53.534,5.226-.916.83-1.595-.119-2.329-.241a30.306,30.306,0,0,1-9.108-3.2A40.519,40.519,0,0,1,21.1,73.528a40.256,40.256,0,0,1-4.456-4.681,30.807,30.807,0,0,1-5.763-10.122c-.285-.892-.7-1.751-.913-2.635-.423-1.777-.679-3.615-1.058-5.389a31.519,31.519,0,0,1-.34-6.328c-.016-1.011-.27-2.041.371-3.091.462-.757-.348-1.966.524-2.791A11.013,11.013,0,0,1,10.405,34a42.358,42.358,0,0,1,3.478-7.391A35.68,35.68,0,0,1,30.8,11.671a46.891,46.891,0,0,1,6.761-2.2,41.462,41.462,0,0,1,11.7-.825,20.508,20.508,0,0,1,5.4.947,17.619,17.619,0,0,1,3.312.934c1.828,1.019,3.857,1.546,5.643,2.676a47.045,47.045,0,0,1,5.786,3.973,29.755,29.755,0,0,1,2.907,2.485,38.425,38.425,0,0,1,7.49,11.289A31.082,31.082,0,0,1,82,38.191c.223,1.647.726,3.289.835,4.964.112,1.771-.052,3.563.057,5.335.054.877-.508,1.533-.516,2.363-.008.724.332,1.556-.446,2.129.278,1.7-.638,3.143-1.053,4.679a23.032,23.032,0,0,1-1.745,4.144,28.343,28.343,0,0,1-5.612,8.346c-.615.578-.949,1.362-1.738,1.834a13.053,13.053,0,0,0-2,1.924,30.735,30.735,0,0,1-5.169,3.776,29.122,29.122,0,0,1-8.089,3.457c-1.675.433-3.333.941-5.337,1.512" transform="translate(13.559 13.681)" fill="#f7f9fa"/><path d="M18.979,18.563c3.833,2.42,7.684,4.852,11.655,7.358V41.349c-5.384-3.314-10.758-6.621-16.214-9.977a43.507,43.507,0,0,1,4.559-12.809" transform="translate(22.978 29.58)" fill="#5bb134"/><path d="M25.025,41.313V25.881c3.831-2.422,7.69-4.858,11.544-7.3,2.236,3.374,2.983,6.064,4.655,12.757l-16.2,9.969" transform="translate(39.877 29.616)" fill="#86cb46"/><path d="M14.272,25.085,30.945,35.314V47.153c-.389.316-.418-.285-.646-.285-3.027,0-5.516-1.543-8.107-2.8-.127-.062-.314-.06-.394-.153-1.372-1.618-3.107-2.861-4.329-4.671A13.481,13.481,0,0,1,15.2,33.693c-.877-.682-.127-1.771-.612-2.518-.607-.931-.223-1.924-.3-2.884-.073-.9-.016-1.813-.016-3.206" transform="translate(22.688 39.972)" fill="#86cb46"/><path d="M41.709,25.109c-.158,2.368.073,4.31-.34,6.364a41.467,41.467,0,0,1-1.559,5.63,10.515,10.515,0,0,1-1.976,3.1,33.269,33.269,0,0,1-3.263,3.278A13.549,13.549,0,0,1,30.215,45.8c-1.377.524-2.822,1.3-4.448,1.037-.148-.023-.345.259-.526.4a.589.589,0,0,1-.143-.1.325.325,0,0,1-.1-.189C25,43.1,25,39.251,25,35.291c5.483-3.278,10.869-6.761,16.712-10.182" transform="translate(39.832 40.011)" fill="#5bb134"/><path d="M23.581,15.4h.856c-.2,1.937.462,3.794.511,5.726.08,3.112.747,6.193.464,9.321.926,2.44.423,4.977.438,7.464.062,10.594.026,21.189.026,31.786V72H22.162V69.718c0-12.065.034-24.13-.049-36.195-.008-1.463.651-2.762.537-4.217A13.352,13.352,0,0,1,22.7,24.92c.449-1.665.065-3.346.454-4.915a25.283,25.283,0,0,0,.425-4.609" transform="translate(35.237 24.535)" fill="#549a2c"/><path d="M23.974,12.36a45.558,45.558,0,0,1,12.5,12.8c-3.255,2.207-6.59,4.277-9.933,6.357-.713-1.076-.073-2.15-.648-3.2-.488-.892-.2-2.267-.086-3.41.112-1.089-.773-1.953-.506-3.058.254-1.056-.373-2.033-.412-3.047-.047-1.126-.431-2.207-.436-3.281s-.716-1.963-.477-3.164" transform="translate(38.124 19.695)" fill="#5bb134"/><path d="M16.931,25.149A50.74,50.74,0,0,1,29.3,12.371c.558.667-.3,1.227-.228,1.769.207,1.551-.786,2.92-.511,4.445.163.921-.568,1.647-.506,2.591a3.472,3.472,0,0,1-.373,2.622c-.3.394-.013,1.2-.06,1.813-.073.978.322,2.036-.218,2.912-.563.921.137,1.966-.534,2.946-3.382-1.953-6.663-4.069-9.938-6.32" transform="translate(26.979 19.713)" fill="#86cb46"/></g></svg>