<svg xmlns="http://www.w3.org/2000/svg" xmlns:xlink="http://www.w3.org/1999/xlink" width="115.181" height="115.053" viewBox="0 0 115.181 115.053"><defs><clipPath id="a"><rect width="115.181" height="115.053" fill="none"/></clipPath></defs><g transform="translate(5694 9057)"><g transform="translate(-5694 -9057)"><g transform="translate(0 0)" clip-path="url(#a)"><path d="M53.558,72.944c-1.014-.22-1.362.864-2.174,1.142a2.659,2.659,0,0,0-1.422,1.554c-3.707.132-5.863,2.881-8.342,5.034-.622.54-.45,1.541-.455,2.358-.01,2.386.02,4.774-.015,7.158-.012.877.13,1.814-.622,2.516a2.626,2.626,0,0,0-1.829-.452c-3.583.012-7.168,0-10.75,0a2.525,2.525,0,0,1-.617-1.866c.115-5.9-.417-11.809.432-17.69a4.741,4.741,0,0,1,.944-2.468,66.115,66.115,0,0,1,15.334-14,20.336,20.336,0,0,1,6.985-2.955c1.027-.2,2.069-.462,3,.307.522,1.054-.39,1.474-.939,2.011-3.268,3.188-6.978,5.868-10.383,8.9-.712.635-1.586,1.2-1.167,2.3a1.282,1.282,0,0,0,1.9-.072c4.884-3.945,9.738-7.927,14.283-12.267a1.161,1.161,0,0,0,.22-.34c.282-1.317-1.007-2.141-.395-3.26a3.255,3.255,0,0,1,1.721-.977c4.132-1.349,5.963-3.677,6.163-8.014.135-2.905.065-5.821.032-8.729a55.708,55.708,0,0,1,1.054-12.012c.55-2.648,1.062-5.466,3.642-7.145,1.476.51,1.052,1.806,1.109,2.841.265,4.859-.455,9.691-.492,14.555-.05,6.436.467,12.841.55,19.267a8.15,8.15,0,0,1-2.159,5.906c-3.657,4.072-7.885,7.537-11.864,11.262-1.594,1.489-3.285,2.848-3.747,5.136" transform="translate(40.862 20.941)" fill="#fee5c6"/><path d="M44.556,92.259c-3.583,0-7.165,0-10.75,0a2.606,2.606,0,0,0-1.829.455c-.749-.7-.627-1.644-.64-2.526-.035-2.321-.1-4.647.015-6.963a4.4,4.4,0,0,0-2.119-4.137C21.185,73.437,14,66.757,6.79,60.114c-.22-.2-.415-.435-.65-.622C1.808,56.019.834,51.68,1.373,46.161c.615-6.273,1.247-12.641.445-19.024-.435-3.47-.175-7.018-.542-10.523-.1-.937-.332-2.178,1.052-2.638,1.709.739,2.131,2.423,2.726,3.907C6.7,21.968,6.775,26.33,7,30.634c.175,3.345.015,6.705.042,10.061.045,5.366,1.556,7.495,6.563,9.3a2.94,2.94,0,0,1,1.314.8c.7,1.109-.577,1.939-.35,3.415A153.23,153.23,0,0,0,30.441,67.611c1.072-1.861.132-2.426-.572-3.055-3.4-3.035-7.1-5.711-10.373-8.894-.555-.537-1.454-.937-1.069-2,.884-.867,1.934-.6,2.953-.41a19.863,19.863,0,0,1,6.793,2.8A64.616,64.616,0,0,1,43.822,70.285c1.439,1.761,1.109,4.012,1.252,6.023.332,4.682.12,9.391.1,14.088a2.61,2.61,0,0,1-.622,1.864" transform="translate(1.794 20.94)" fill="#fee5c6"/><path d="M62.339,53.475c.457.7.914,1.412,1.359,2.1-.325.982-.675,1.869-1.8,2.191-.315.09-.537.5-.8.767-2,2.024-4.255,3.745-6.4,5.591-1.327,1.139-2.726,2.2-4.007,3.405A36.288,36.288,0,0,0,47.757,70.1H46.567c-.42-.422-.867-.867-1.359-1.357.3-.909.46-1.746,1.554-2.3A16.713,16.713,0,0,0,49.9,63.778c1.314-1.159,2.683-2.286,4.042-3.36,1.686-1.337,3.05-3.013,4.807-4.247-1.539-2.4-4.807-3.21-7.8-1.914a34.416,34.416,0,0,0-7.785,5.229c-4.4,3.57-8.554,7.44-12.891,11.092a4.7,4.7,0,0,0-1.544,2.883c-.615,3.188-.322,6.4-.33,9.6a64.981,64.981,0,0,0,.237,9.836,1.676,1.676,0,0,1-.43,1.451c-.332.532-.442,1.2-1.042,1.7-.38.272-.914.025-1.437.1l-1.184-1.242c.525-4.082-.64-8.242-.39-12.459.21-3.528.592-7.04.5-10.59a3.954,3.954,0,0,1,2.079-3.535c.227-.135.535-.18.725-.407,1.519-1.826,3.65-2.988,5.2-4.774.732-.844,1.784-1.229,2.546-2.031a15.146,15.146,0,0,1,2.293-1.984c1.357-.957,2.478-2.246,3.8-3.3a46.135,46.135,0,0,1,7.365-5.014,10.475,10.475,0,0,1,6.57-1.3c-.26-1.649.312-3.17-.5-4.637-.157-.285-.022-.734-.022-1.109,0-2.169.122-4.347-.035-6.506-.142-1.934.427-3.76.512-5.651a15.507,15.507,0,0,1,1.369-5.034,9.552,9.552,0,0,1,4.34-5.131c1.259-.665,2.433-1.506,4.1-1.144,1.119-2.661,2.626-5.081,5.269-6.308a15.424,15.424,0,0,1,7.632-1.374l1.069,1.307a18.041,18.041,0,0,1-.047,3.957c-.779,3.6-.277,7.218-.377,10.823-.1,3.737-.022,7.482-.022,11.222,0,3.665-.127,7.337.057,10.995.082,1.651.435,3.3.407,4.979a3.18,3.18,0,0,1-.937,2.311c-3.65,3.652-7.235,7.375-10.995,10.907-1.1,1.039-2.351,1.964-3.415,3.068-1.019,1.054-2.461,1.609-3.265,2.848H58.3A2.553,2.553,0,0,1,57.872,73c3-3.193,6.408-5.946,9.551-8.984,1.679-1.624,3.42-3.223,5.146-4.817,1.024-.944,1.479-2.371,2.8-3.148,0-3.05.315-6.143-.09-9.139a78.051,78.051,0,0,1-.345-8.8c-.067-2.99.1-5.988-.057-8.969-.107-2,.552-3.895.5-5.871-.05-2.019,0-4.037-.025-6.056-.007-.36.317-.947-.435-1.027-5.4,1.916-6.558,6.356-7.005,11.385a114.835,114.835,0,0,0-.352,16.341c.2,3.618-1.319,5.968-3.982,7.96-.547.407-1.5.542-1.239,1.6" transform="translate(36.123 18.847)"/><path d="M4.122,16.195c-.127.052-.37.11-.367.157.08,1.659-.542,3.358.312,4.977a1.772,1.772,0,0,1,.05.872c-.325,5.042.662,10.038.49,15.08-.062,1.826-.687,3.565-.522,5.429A17.6,17.6,0,0,1,4.04,48.3c-.622,2.586-.087,5.131-.432,7.635A197.477,197.477,0,0,0,33.772,82.417V94.8c-.125.65-.789.849-1.092,1.314-.749.36-1.184-.482-1.844-.432a1.461,1.461,0,0,1-.2-.362c-.837-3.65-.282-7.357-.487-11.1-1.506-1.689-3.53-2.841-5.369-4.21-.917-.682-1.8-1.449-2.653-2.163a32.221,32.221,0,0,1-4.16-3.58c-.809-.957-2-1.432-2.861-2.351a7.964,7.964,0,0,0-2.791-2.441c-.447-.17-.752-.707-1.124-1.077q-4.6-4.606-9.211-9.2a7.01,7.01,0,0,1-1.9-2.593,11.805,11.805,0,0,1,.037-2.9c.64-2.626.017-5.324.485-7.892.592-3.253.255-6.473.355-9.706A71.775,71.775,0,0,0,.9,26.468C.627,23.9.812,21.316.442,18.8a45.515,45.515,0,0,1-.367-5.114L1.436,12.6a15.006,15.006,0,0,1,7.555,1.534c2.476,1.249,3.912,3.49,4.987,6.068a6.975,6.975,0,0,1,5.094,1.8,10.747,10.747,0,0,1,3.92,5.983c.442,1.721.687,3.478.989,5.224.542,3.1.142,6.181.375,9.256.09,1.189-.635,2.206-.495,3.41a28.616,28.616,0,0,1,.027,3.338c1.044.7,2.4-.4,3.353.65,2.593.152,4.489,1.829,6.605,3.023.552.312,1.054.72,1.721,1.182v2.1c-.857,1.549-2.029,1.2-3.185.467a27.662,27.662,0,0,0-4.869-2.681A5.8,5.8,0,0,0,20.3,56.172c.887.814,1.734,1.681,2.676,2.431,1.461,1.162,2.891,2.371,4.322,3.558a46.991,46.991,0,0,1,3.83,3.263A9.691,9.691,0,0,0,32.25,66.5c1.082.792,1.162.874,1.556,2.411L32.163,70.1h-.832c-1.644-1.561-3.473-2.871-5.159-4.332-1.319-1.147-2.671-2.283-4.017-3.388-1.964-1.611-3.57-3.632-5.774-4.957-.6-.357-.462-1.2-1.037-1.464.08-1.127.954-1.669,1.357-2.481.265-1.054-.692-1.189-1.239-1.6-2.663-1.991-4.18-4.342-3.982-7.96a114.837,114.837,0,0,0-.352-16.341c-.447-5.029-1.609-9.468-7.005-11.385" transform="translate(0 18.846)"/><path d="M66.705,13.031h2.116c-.1.834.67,1.179,1.054,1.759a35.34,35.34,0,0,1,4.335,9.648,6.865,6.865,0,0,1,.577,3.58c-.215.909.617,1.584.482,2.511a9.044,9.044,0,0,0,0,2.686c.262,1.644-.572,3.135-.5,4.757a13.322,13.322,0,0,1-.957,4.312,43.956,43.956,0,0,1-2.831,6.223,22.391,22.391,0,0,1-2.806,4.24,47.192,47.192,0,0,1-3.378,3.745,36.727,36.727,0,0,1-5.666,4.182,28.821,28.821,0,0,1-7.8,3.383c-1.122.355-2.388.45-3.54.712a25.85,25.85,0,0,1-6.116.337,11.986,11.986,0,0,1-4.11-.327c-1.217-.425-2.586-.56-3.885-.894a20.3,20.3,0,0,1-3.41-1.009,34.716,34.716,0,0,1-7.435-4.21,31.6,31.6,0,0,1-4.187-4,42.964,42.964,0,0,1-3.478-4.4,34.905,34.905,0,0,1-4.222-9.708c-1.234-4.2-.652-8.437-.842-12.659.645-1.856.737-3.862,1.429-5.694a54.93,54.93,0,0,1,2.356-5.079A27.741,27.741,0,0,1,18.461,10.7,35.291,35.291,0,0,1,26.356,4.25a28.292,28.292,0,0,1,6.875-2.886C34.795.925,36.409.685,38,.378A31.133,31.133,0,0,1,43.217.005a30.333,30.333,0,0,1,10.4,1.974,37.586,37.586,0,0,1,8.472,4.454A13.494,13.494,0,0,1,64.01,8.315V9.439c-.987,1.649-1.741,1.836-3.605.677C57.929,8.58,55.628,6.751,52.8,5.844c-.5-.16-1-.322-1.5-.472C40.494,2.421,30.633,4.31,22.6,12.17c-7.79,7.615-10.508,17.1-7.655,27.8,3.093,11.6,12.272,19.369,24.238,21.035a27.636,27.636,0,0,0,12.147-1.227c11.207-3.238,19.579-14.443,19.751-26.055a29.044,29.044,0,0,0-4.534-16.783c-.784-1.207-2.1-2.708.162-3.91" transform="translate(15.136 -0.001)"/><path d="M8.43,32.081c-.075,0-.182.03-.217-.005a3.351,3.351,0,0,1-.292-.442,5.4,5.4,0,0,1,1.429-1.571,7.625,7.625,0,0,1,2.029-1.047,2.938,2.938,0,0,1,1.916-.282c.742.3,1.451.022,2.116.285a40.963,40.963,0,0,1,6.633,3.9c.572-.287,1.117-.565,1.661-.839A5.519,5.519,0,0,1,25.6,33.8c.51.565,1.544.477,1.694,1.429,2.1,4.047,5.953,6.388,9.254,9.194a8.982,8.982,0,0,1,3.49,7.1q.142,7.712-.005,15.424a4.445,4.445,0,0,1-1.057,3.318H34.487c0-4.552-.1-9.1.04-13.651.072-2.436-.907-4.767-.45-7.05a104.269,104.269,0,0,0-7.932-8.517,72.793,72.793,0,0,0-8.454-6.62c-1.012-.692-2.271-1.007-3.345-1.624-1.117-.642-2.4-.65-3.578-1.089a1.86,1.86,0,0,0-2.338.37" transform="translate(11.866 42.937)" fill="#fed4af"/><path d="M26.035,70.1c-.889-5.963-.222-11.964-.477-17.943-.07-1.624.812-3.113.415-4.819,2.211-1.644,4.027-3.76,6.336-5.3a1.89,1.89,0,0,0,.317-.315,86.5,86.5,0,0,1,8.064-7.063,32.294,32.294,0,0,1,7.685-5.169,6.487,6.487,0,0,1,2.838-.722c.819.027,1.639.007,2.291.007,1.4.717,2.731,1.292,3.533,2.583-.012.285-.01.6-.452.56-.732-.959-1.761-.535-2.546-.325-4.717,1.259-6.95,2.836-10.34,5.3a63.133,63.133,0,0,0-9.221,8.452c-1.174,1.282-2.306,2.623-3.36,3.727-1.009,7.108-.445,14.073-.59,21.023Z" transform="translate(38.286 43.099)" fill="#fed4af"/><path d="M26.65,1.982c1.546-.06,2.843.809,4.107,1.422a61.138,61.138,0,0,1,6.253,3.96h1.544c.457-.09-.055-.979.675-.889,0,.147-.062.342.01.432a28.175,28.175,0,0,0,2.686,3.16c-.077.567-.692.727-.944,1.3.877,1.659,1.919,3.3,2.9,4.984a16.777,16.777,0,0,1,2.051,5.176,24.887,24.887,0,0,1,.949,5.664c-.067,2.014.182,4.052-.067,6.036a28.1,28.1,0,0,1-1.706,6.885,54.038,54.038,0,0,1-2.691,5.381c-.442.837-1.484,1.212-1.566,2.256-2.408,2.111-4.295,4.752-7.183,6.406a41.729,41.729,0,0,1-5.561,2.811,5.942,5.942,0,0,1-1.456.265c-.075-1.162.937-1.427,1.634-1.894,8.114-5.416,13.068-12.8,13.973-22.629,1.124-12.219-3.755-21.6-13.676-28.565-.792-.557-2.051-.764-1.931-2.161" transform="translate(39.917 2.965)" fill="#fed266"/><path d="M27.355,66.624c.882-5.9.207-11.839.487-17.75.08-1.711-.867-3.26-.4-4.952-2.188-1.829-4.125-3.815-6.4-5.4a.853.853,0,0,1-.157-.157c-1.5-1.844-3.65-2.975-5.2-4.777v-2a2.316,2.316,0,0,1,3.26.4c1.519,1.619,3.5,2.706,4.912,4.419.754.919,1.909,1.3,2.706,2.188a8.937,8.937,0,0,0,2.458,2.136,3.643,3.643,0,0,1,1.9,3.42c-.212,4.447.617,8.836.542,13.278-.027,1.691-.575,3.288-.515,4.972.06,1.641.015,3.283.015,4.852-.41.43-.767.807-1.1,1.164H28.467c-.4-.582-1.312-.842-1.112-1.791" transform="translate(23.487 46.575)" fill="#010101"/><path d="M32.579,56.26V43.824c2.778-1.769,5.1-4.082,7.725-5.519.979-.042,1.062.867,1.709.887v1.5c-1.586,2.086-4.08,3.045-5.779,4.952-.307,3.775.422,7.61-.622,11.367-.56.142-1.007.742-1.876.56a3.316,3.316,0,0,1-1.157-1.314" transform="translate(48.812 57.389)" fill="#020202"/><path d="M40.019,51.316c-.46.022-.55-.457-1.012-.7a34.2,34.2,0,0,0,5.5-4.9c0-4.809.062-9.666-.037-14.517a35.886,35.886,0,0,1,.495-4.08,26.6,26.6,0,0,1,.33-4.107c.325-1.354.55-2.741.987-4.1a6.352,6.352,0,0,1,4.469-4.459,4.381,4.381,0,0,1,1.844-.42c-1.561,1.931-2.136,4.337-3.145,6.533.207,1.252-.412,2.416-.42,3.622-.02,2.933-.68,5.813-.515,8.771.165,2.975.037,5.968.035,8.954a9.454,9.454,0,0,1-1.362,4.807c-1.247,2.024-2.9,3.543-5.439,3.685a1.992,1.992,0,0,0-1.734.909" transform="translate(58.443 21.006)" fill="#fed4af"/><path d="M1.65,14.026c2.9.352,5.436,1.7,6.313,4.882a37.232,37.232,0,0,1,.967,3.885c.215,1.3.2,2.588.38,3.865.9,6.351.137,12.736.495,19.114a33.569,33.569,0,0,0,5.436,4.834c-.462.247-.552.725-1.012.7a1.9,1.9,0,0,0-1.736-.9C9.567,50.4,6.539,46.973,6.079,44.42a23.245,23.245,0,0,1-.385-4.08c-.007-2.538-.127-5.084.03-7.612.19-3.03-.527-5.983-.552-8.994a26.417,26.417,0,0,0-.417-2.945,19,19,0,0,0-.847-2.546c-.275-.957-1.019-1.7-1.252-2.611-.182-.712-.932-.924-1.007-1.606" transform="translate(2.472 21.015)" fill="#fed4af"/><path d="M42.7,39.841c-1.372,1.369-2.8,2.791-4.22,4.21a16.084,16.084,0,0,1-.69-5.306c.065-3.955-.06-7.91.05-11.862a15.1,15.1,0,0,1,1.754-6.648,8.847,8.847,0,0,1,2.856-3.013c.25-.177.687-.095,1.257-.157-.215,1.451.07,2.746-.43,4.137-.38,1.057-.075,2.361-.075,3.553,0,1.941.312,3.945-.072,5.806-.637,3.088-.142,6.161-.43,9.281" transform="translate(56.612 25.566)" fill="#fde5c6"/><path d="M6,17.13a3.02,3.02,0,0,1,2.883,1.357,10.041,10.041,0,0,1,2.468,5.654c.11,1.219.685,2.336.522,3.62a30.583,30.583,0,0,0-.032,3.8v3.133c0,1.566-.087,3.14.022,4.7s-.889,2.928-.492,4.24L6.9,39.16a28.76,28.76,0,0,1,.025-3.448c.245-2.366-.53-4.637-.485-6.978.045-2.386-.042-4.777.04-7.16.025-.769-.7-1.239-.512-2.061A11.64,11.64,0,0,0,6,17.13" transform="translate(8.9 25.603)" fill="#fde5c6"/><path d="M49.577,2.8c.085.482.442.7.839.9a27.244,27.244,0,0,1,8.769,7.515,46.623,46.623,0,0,1,3.9,6.023,26.018,26.018,0,0,1,2.144,6.506c.14.625.585,1.142.532,1.819a4.8,4.8,0,0,0,.03,2,6.618,6.618,0,0,1,.377,3.415c-.42,2.736-.5,5.526-1.317,8.2a30.043,30.043,0,0,1-3.235,7.395,33.065,33.065,0,0,1-7.785,8.467c-1.387,1.064-3.105,1.641-4.255,3.01.05.285-.122.4-.357.447A46.046,46.046,0,0,1,43.536,59.5a17.762,17.762,0,0,1-4.082.3c-3.455-.552-6.935-.892-10.208-2.448a45.974,45.974,0,0,1-6.658-4c-3.835-2.683-6.311-6.438-8.437-10.42a24.852,24.852,0,0,1-1.894-5.726,25.547,25.547,0,0,1-.829-8.617,31.9,31.9,0,0,1,2.141-8.981,25.113,25.113,0,0,1,3.265-6.038c1.394-1.8,2.573-3.795,4.674-5.064,1.124-.68,2.1-1.771,3.23-2.546A27.783,27.783,0,0,1,32.462,2.4a17,17,0,0,1,5.454-.957c1.869.062,3.745.062,5.614,0a9.4,9.4,0,0,1,4.372.842c.55.255,1.374-.437,1.676.52" transform="translate(16.989 2.146)" fill="#fef08c"/><path d="M15.585,31.458c-.487-1.486-.412-3.14-1.347-4.492a5.216,5.216,0,0,0,1.706-3.695A20.842,20.842,0,0,1,35.751,4.8a7.386,7.386,0,0,1,3.707.61c8.344,4.3,12.676,11.215,12.6,20.526a20.978,20.978,0,0,1-8.522,16.988c-1.119.869-2.3,1.649-3.483,2.433-2.763,1.172-5.571.734-8.312.04-6.061-1.539-10.805-4.867-13.588-10.62a11.533,11.533,0,0,0-2.568-3.32" transform="translate(21.332 7.175)" fill="#fed266"/><path d="M40.259,7.409c-.64.22-.989-.507-1.611-.467A16.5,16.5,0,0,0,35.742,7c-1.954.507-3.935.857-5.878,1.486-3.665,1.192-6.171,3.767-8.512,6.476a15.161,15.161,0,0,0-3.528,7.707c-.112.777-.622,1.432-.5,2.283a17.34,17.34,0,0,1,.025,2.443l-1.124,1.124H15.1c-.647-.127-.832-.809-1.442-1.1.49-4.085,1.074-8.084,3.215-11.724a24.006,24.006,0,0,1,6.146-7.1,45.016,45.016,0,0,1,6.373-3.613c.784-.425,1.624-.292,2.436-.632a9.562,9.562,0,0,1,4.494-.537,18.133,18.133,0,0,0,2.019.007,19.336,19.336,0,0,1,11.17,3.323A23.24,23.24,0,0,1,58.272,17.1a20.688,20.688,0,0,1,2.208,9.184,21.914,21.914,0,0,0,.02,3.138c.117,1.054-.537,1.9-.545,2.955a7.875,7.875,0,0,1-.932,3.175,28.5,28.5,0,0,1-5.059,7.775,25.209,25.209,0,0,1-8.881,5.631,13.125,13.125,0,0,1-5.369,1.137,3.715,3.715,0,0,0-2.468.342c-.769-.682-1.7-.3-2.546-.34a20.052,20.052,0,0,1-9.3-3.018,21.684,21.684,0,0,1-4.749-3.75A21.145,21.145,0,0,1,15.993,36.5a3.328,3.328,0,0,0-.417-.595V34.148c.175-.412.8-.565.872-1.137h1a3.739,3.739,0,0,1,1.691,2.261,16.432,16.432,0,0,0,4.012,5.921,20.055,20.055,0,0,0,8.264,4.852,24.616,24.616,0,0,0,8.362.877,3.352,3.352,0,0,0,.934-.435c2.748-1.147,5.566-2.131,8-3.952a19.271,19.271,0,0,0-2.283-32.483,50.108,50.108,0,0,0-6.163-2.643" transform="translate(20.466 5.622)"/><path d="M25.3,33.881a7.388,7.388,0,0,1-4.952-6.341,4.516,4.516,0,0,1,1.1-1.836h1.427c.335.337.652.655,1.022,1.024v1.629c.287.665,1.077.917,1.027,1.646a4.534,4.534,0,0,0,3.028.595c1.769-.485,2.4-1.771,2.768-3.418a5.161,5.161,0,0,0-3.138-3.323H25.246c-1.891-.9-3.4-1.884-4.14-3.9-.9-2.453-1.047-2.836.147-5.371.779-1.656.779-1.656,4.06-3.965-.242-1.1.32-2.144.53-3.268.64-.03,1.029-.849,2.161-.312.085.1.46.54.907,1.067v2.531c2.081.934,3.02,1.551,4.922,4.939,0,.749,0,1.566,0,2.386a1.638,1.638,0,0,1-.115.4l-.515.515H31.331a1.9,1.9,0,0,1-.68-1.357c-.222-1.4-.585-2.738-2.183-3.34a8.608,8.608,0,0,0-1.909-.207,6.92,6.92,0,0,0-2.591,2v2.688a6.256,6.256,0,0,0,2.653,2.054h2.169a7.8,7.8,0,0,1,5.044,5.106c.35,3.523-.65,6.673-4.9,8.044v2.693c-.46.487-.817.867-1.152,1.219H26.36a5.464,5.464,0,0,1-1.059-3.9" transform="translate(30.488 10.281)"/><path d="M24.314,5.248c1.576-.32,2.818.889,4.312.944,3.183,1.729,6.313,3.42,8.484,6.573a22.343,22.343,0,0,1,3.083,5.908,7.465,7.465,0,0,1,.712,3.27c-.125.867.637,1.456.487,2.283-.127.707-.115,1.437-.182,2.149a21.127,21.127,0,0,1-3.533,9.753,19.22,19.22,0,0,1-8.289,6.925,9.6,9.6,0,0,1-4.624,1.272c2.149-1.741,4.647-3.09,6.386-5.3a25.3,25.3,0,0,0,3.585-5.891,26.91,26.91,0,0,0,1.6-5.8,14.47,14.47,0,0,0-.185-5.656c-.4-1.784-.979-3.483-1.464-5.224a16.141,16.141,0,0,0-2.276-4.2,19.655,19.655,0,0,0-8.087-6.793c-.032-.017-.005-.142-.005-.217" transform="translate(36.412 7.783)" fill="#feae5e"/></g></g></g></svg>