<svg xmlns="http://www.w3.org/2000/svg" xmlns:xlink="http://www.w3.org/1999/xlink" width="103" height="103" viewBox="0 0 103 103"><defs><filter id="a" x="0" y="0" width="103" height="103" filterUnits="userSpaceOnUse"><feOffset dy="3" input="SourceAlpha"/><feGaussianBlur stdDeviation="3" result="b"/><feFlood flood-opacity="0.161"/><feComposite operator="in" in2="b"/><feComposite in="SourceGraphic"/></filter><clipPath id="c"><rect width="50" height="50" fill="none"/></clipPath></defs><g transform="translate(-381 -3800)"><g transform="matrix(1, 0, 0, 1, 381, 3800)" filter="url(#a)"><rect width="85" height="85" rx="20" transform="translate(9 6)" fill="#fff"/></g><g transform="translate(407 3823)" clip-path="url(#c)"><path d="M29.026,49.154A4.051,4.051,0,0,0,31.589,50q6.749-.042,13.5,0a3.417,3.417,0,0,0,2.322-.881,3.047,3.047,0,0,0,1.016-2.057,13.25,13.25,0,0,0,.16-1.767c-.171-.19-.326-.386-.614-.3a.8.8,0,0,0-1.057-.023c-.375.459-.305,1.046-.425,1.579a1.6,1.6,0,0,1-1.663,1.421c-4.4.041-8.809.049-13.214-.005A1.515,1.515,0,0,1,29.889,46.5c-.417-2.882-.753-5.777-1.1-8.671a1.45,1.45,0,0,1,.123-.749c6.176-.095,12.352-.093,18.528-.091a7.883,7.883,0,0,1-.1,2.851,7,7,0,0,0-.1,2.581.682.682,0,0,0,.94.065h.789c.3-1.895.568-3.8.713-5.786a6.247,6.247,0,0,0,1.524-1.3,2.619,2.619,0,0,0,.044-2.35l-1.2-1.2c-1.471-.422-3.091-.063-4.731-.223.062-.558-.535-.935-.47-1.532-.893-1.638-1.337-3.47-2.2-5.126a11.658,11.658,0,0,1-.708-1.786A1.834,1.834,0,0,0,40.62,21.87c-.09-.025-.159-.12-.249-.191a2.691,2.691,0,0,0-1.819.327c-.274.2-.6.061-.927-.112a2.066,2.066,0,0,0-1.936-.037v-.941c0-3.329-.008-6.659.006-9.987a7.944,7.944,0,0,0-.4-2.123,5.863,5.863,0,0,0-2.059-2.757c-.351.04-.388-.5-.79-.41a8.353,8.353,0,0,0-1.982-3,8.97,8.97,0,0,0-3.757-2.2A8.445,8.445,0,0,0,24.071,0c-.727.028-1.456.005-2.184.005a9.2,9.2,0,0,0-3.192.832,5.261,5.261,0,0,0-1.927,1.126c.072.219.367.283.39.542.093.292.115.634.514.719.588.089,1.039-.286,1.542-.5a9.569,9.569,0,0,1,8.152.112A7.076,7.076,0,0,1,31.145,10.1a24.958,24.958,0,0,1-1.4-2.33c-.928-1.55-1.529-1.731-2.84-.525C23.691,10.195,19.686,11.079,15.6,11.8c-.069.012-.137-.01-.339-.107a9.9,9.9,0,0,1,.577-5.474c.222-.471.495-.916.7-1.391s.149-.883-.422-1.07l-.67-.459A6.011,6.011,0,0,0,14.375,4.72a16.84,16.84,0,0,0-1.164,3.166,1.972,1.972,0,0,0-.01.621v3.538c-.223.206-.5.468-.78.717a3.292,3.292,0,0,0-.013,4.48,3.244,3.244,0,0,0,2.805,1.1A8.43,8.43,0,0,0,19.009,23v3.179l-.591.5H13.911c-.081.153-.3.195-.293.407.258.308-.038.674.129,1.051.43.737,1.3.325,2.062.682,1.593,2.7,3.881,4.473,7.274,4.295a1.271,1.271,0,0,0,.388-.954,1.462,1.462,0,0,0-.309-1c-1.619-.362-3.439-.626-4.607-2.465a3.452,3.452,0,0,0,2.433-4.038c.014-.393.273-.434.571-.372a7.969,7.969,0,0,0,3.25.006c.282-.057.562-.053.594.347,0,1.173-.025,2.343.986,3.222a15.212,15.212,0,0,0,1.358.82c-.214.683-1.2,1.186-.555,2.08a1.331,1.331,0,0,0,.874.669c.926-.126,1.4-.925,1.853-1.675a2.3,2.3,0,0,1,1.532-1.308,1.15,1.15,0,0,0,.347-.9,1.345,1.345,0,0,0-.29-.936c-1.1-.545-2.426.107-3.556-.423-.859-1.884-.329-3.244,1.778-4.4a7.214,7.214,0,0,0,3.825,2.567,17.431,17.431,0,0,1-1.429,3.394c-.561,1.146-.923,2.385-1.584,3.5a15.28,15.28,0,0,1-2.944.148,2.73,2.73,0,0,0-2.744,1.654A2.425,2.425,0,0,0,25.4,36a3.536,3.536,0,0,1,1.177,2.539c.269,2.552.614,5.094.943,7.638.149,1.148.172,2.412,1.511,2.979" transform="translate(-1.51 0)"/><path d="M31.073,31.6v.793l-1.176.063a7.067,7.067,0,0,1-2.066,2.883.557.557,0,0,1-.707-.353c-.047-.124-.014-.278-.216-.262a16.408,16.408,0,0,1-4.164,1.457v.729c-2.2.532-6.01-1.3-7.185-4.526-.622,0-1.272.008-1.921-.01-.076,0-.148-.137-.264-.254,0-.228.008-.5,0-.771a.161.161,0,0,0-.2-.166v.578c-.435-.037-.779.347-1.25.256a8.212,8.212,0,0,0-.358,3.853,3.09,3.09,0,0,1-1.219,3.1A2.726,2.726,0,0,0,9.1,41.444a1.943,1.943,0,0,1-.5,1.441,2.079,2.079,0,0,0-.425,2.03c.47,2.2.955,4.4,1.418,6.6.122.578.136,1.164.249,1.739H11.5a24.3,24.3,0,0,1,1.2-4.4c.333-1.166.663-2.337,1.071-3.482a3.37,3.37,0,0,0,.135-1.539,6.676,6.676,0,0,1,.529-3.46c.191-.437.361-.913.853-1.1a.585.585,0,0,1,.569.4,1.355,1.355,0,0,1-.246.781,5.677,5.677,0,0,0,.3,5.847,4.4,4.4,0,0,1,.717,2.546c-.039,1.074-.015,2.151-.006,3.227a1.56,1.56,0,0,0,.289,1.179H28.574c-.162-.4-.561-.587-.812-.941a24.067,24.067,0,0,1-.482-2.9,8.327,8.327,0,0,0-.192-1.673c-.16-.569-.061-1.15-.208-1.679-.158-.568-.058-1.152-.21-1.678-.165-.57-.036-1.165-.21-1.676a10.845,10.845,0,0,1-.208-1.918,6.4,6.4,0,0,1-1.608-1.356c.064-.415-.249-.732-.262-1.151s.346-.742.219-1.15l1.385-1.367h4.38c.484-1.251.967-2.47,1.533-3.654.041-.084.005-.2.005-.308-.156-.558-.49-.4-.833-.208" transform="translate(-1.058 -4.101)" fill="#7db357"/><path d="M8.778,51.8c-.042-.338.373-.1.391-.2-.681-3.173-1.334-6.225-2.01-9.379.149-.135.373-.346.6-.548a1.965,1.965,0,0,0,.592-1.417c.037-.483.008-.971.008-1.484a11.85,11.85,0,0,1,1.432-1.251c.511-.3.7-.939,1.071-1.471-.094-.613.169-1.3-.2-1.944a.677.677,0,0,1,0-.511,10.322,10.322,0,0,0,.2-3.039c0-2.116.009-4.233,0-6.348a6.7,6.7,0,0,0-.267-2.773c-.193-.193-.451-.426-.681-.686a1.854,1.854,0,0,0-1.417-.592c-2.046-.03-4.094,0-6.139-.026-.356,0-.587.38-.92.234L.293,21.524a5.3,5.3,0,0,0-.258,2.321c0,2.741-.008,5.482.005,8.223a2.518,2.518,0,0,0,.178,1.384,1.048,1.048,0,0,1,0,.908,2.029,2.029,0,0,0-.178,1.178c-.016.971-.005,1.943-.005,2.915a8.187,8.187,0,0,1-.018,1.454c-.092.508.284.9.225,1.382l.621.6V51.8h1.67c.387-.433.289-.969.314-1.479A7.585,7.585,0,0,1,3.011,48.1a10.362,10.362,0,0,1,3.117-.092,7.061,7.061,0,0,1,.8,2.517A2.137,2.137,0,0,0,7.529,51.8c-.014.184.153.267.239.2a1.475,1.475,0,0,1,1.01-.2" transform="translate(0 -2.648)"/><path d="M50.719,48.051h-.758a.825.825,0,0,1,.045-.841.346.346,0,0,0,.086-.277c-.128-.889.337-1.733.2-2.618-.055-.361.319-.576.231-.958a5.2,5.2,0,0,1-.016-1.086H30.924c.09.6-.15,1.243.223,1.839-.155.856.309,1.667.2,2.512-.06.46.308.8.236,1.27a1.313,1.313,0,0,0,.186,1.164c.034.038.013.135,0,.2-.133.889.338,1.727.216,2.619-.05.363.4.652.152,1.043.159.149.292.26.409.386a1.81,1.81,0,0,0,1.427.584c4.714-.017,9.428-.01,14-.01a2.765,2.765,0,0,0,1.236-.892,5.8,5.8,0,0,0,.191-2.44H50.51a14.421,14.421,0,0,1,.209-2.5" transform="translate(-4.048 -5.56)" fill="#d65246"/><path d="M16.617,4.005c.033.264.324.336.442.615A8.822,8.822,0,0,0,15.7,7.335a5.712,5.712,0,0,0-.337,1.74c.035,1.137.01,2.275.01,3.445,1.429-.226,2.8-.53,4.146-.845A19.524,19.524,0,0,0,23.182,10.5c.735-.333,1.458-.675,2.155-1.076.055-.031.15-.018.18-.06.262-.371.691-.526,1.021-.807C27.027,8.14,27.51,7.72,28,7.3a1.149,1.149,0,0,1,1.389-.187c.815,1.357,1.549,2.736,2.463,4.018a8.317,8.317,0,0,0-.5-4.808A7.958,7.958,0,0,0,28.96,3.382a7.088,7.088,0,0,0-2.7-1.253,14.293,14.293,0,0,0-4.282-.173,6.524,6.524,0,0,0-2.563.815c-.4.2-.788.435-1.112.616-.437-.072-.313-.556-.647-.631-.216.526-.826.723-1.041,1.25" transform="translate(-2.01 -0.247)" fill="#7a432a"/><path d="M17.369,54.375V48.44c-1.869-2.45-2.417-4.98-.448-7.688-.235-.5-.874-.531-1.168-1.064a5.135,5.135,0,0,0-1.477,2.54,5.974,5.974,0,0,0-.059,3.445,21.746,21.746,0,0,0-.813,2.586,19.067,19.067,0,0,1-.648,2.023c-.194.609-.342,1.238-.571,1.842a5.382,5.382,0,0,0-.493,1.777c0,.05-.092.1-.14.147.038.228.45-.01.4.326.354.06.771-.2,1.076.448.86-2.258,1.341-4.414,2.12-6.557l.554.712v5.4Z" transform="translate(-1.512 -5.22)"/><path d="M7.91,55.974c-.3-1.361-.6-2.721-.906-4.127H2.913v4.127Z" transform="translate(-0.381 -6.82)" fill="#87c15e"/><path d="M28.872,10.093a24.769,24.769,0,0,1-3.405,2.341A13.112,13.112,0,0,1,21.7,13.887c-.381.314-.242.881-.587,1.212-1.073.62-1.511.539-2.015-.4-.589-.191-1.128.359-1.817.118a25.825,25.825,0,0,0,.034,3.363,5.717,5.717,0,0,0,1.016,2.583,6.04,6.04,0,0,0,1.139,1.4,9.521,9.521,0,0,0,1.464.987,6.362,6.362,0,0,0,2.007.658,6.28,6.28,0,0,0,2.072-.013,9.5,9.5,0,0,0,2.5-.991A6.047,6.047,0,0,0,29.9,20.2a5.534,5.534,0,0,0,.72-2.718c-.047-1.281-.03-2.565,0-3.847a1.685,1.685,0,0,0-.307-1.019c-.486-.694-.875-1.443-1.307-2.167a2.007,2.007,0,0,1-.13-.36" transform="translate(-2.257 -1.327)" fill="#fdc8a2"/><path d="M24.136,35.779a6.15,6.15,0,0,0,3.467-.813,1.562,1.562,0,0,0,.7-.644c-.038-.223-.295-.374-.18-.721.307-.5.975-.813,1.318-1.573-.567.126-.955-.194-1.454-.217l-1.128-1.2a5.845,5.845,0,0,1-.222-2.328.482.482,0,0,0-.372-.141,9.978,9.978,0,0,1-4.253,0,.482.482,0,0,0-.372.141c0,.346-.008.692,0,1.038a2.249,2.249,0,0,1-.8,1.953,6.812,6.812,0,0,0-.516.511c-.486.039-.889.39-1.608.156a5.965,5.965,0,0,0,5.36,3.02c.133.274.024.553.062.819" transform="translate(-2.449 -3.701)" fill="#fdc8a2"/><path d="M51.591,40.043l.513-.527v-.631l-.541-.5H29.284l-.337.576-.135-.109v.7l.572.489Z" transform="translate(-3.771 -5.049)" fill="#df6257"/><path d="M33.911,30.7H34.5c.142,0,.257.028.244.208a.515.515,0,0,0,.413-.393,12.218,12.218,0,0,1,.83-2.05,9.091,9.091,0,0,0,.373-1.014c-.1-.1-.17-.28-.421-.3a4.1,4.1,0,0,1-2.511-1.212,5.528,5.528,0,0,1-1.333-1.612,8.257,8.257,0,0,1-2.33,1.864v3.2l.71.472h3.365c.144.293.033.572.071.839" transform="translate(-3.896 -3.199)" fill="#f7f9fa"/><path d="M40.593,27.427c-.282-.228-.414-.611-.926-.55a1.4,1.4,0,0,0-.681.842c-.566,1.708-1.406,3.3-1.994,5.008-.277.805-.645,1.6-.977,2.426h1.6a22.019,22.019,0,0,0,1.055-2.486,20.662,20.662,0,0,0,1.019-2.592,11.8,11.8,0,0,0,.9-2.647" transform="translate(-4.714 -3.534)" fill="#4b5884"/><path d="M46.071,35.157H47.72a25.444,25.444,0,0,1-.985-2.413c-.268-.829-.641-1.616-.926-2.434-.3-.865-.75-1.7-1.062-2.577a1.9,1.9,0,0,0-.674-.872c-.456-.117-.641.281-.914.52-.09.7.384,1.229.594,1.836.4,1.152.839,2.289,1.282,3.424.326.837.682,1.661,1.036,2.516" transform="translate(-5.648 -3.53)" fill="#4b5884"/><path d="M36.943,18.8a3.189,3.189,0,0,1-2.664,1.19c-.051.8-.673,1.463-.341,2.545a3.844,3.844,0,0,0,3,2.288V18.8Z" transform="translate(-4.429 -2.473)" fill="#6d3c26"/><path d="M39.964,35.672H43.8c-.508-1.653-1.336-3.138-1.816-4.888a5.161,5.161,0,0,0-.685,1.635,13.541,13.541,0,0,0-.652,1.6,16.147,16.147,0,0,1-.681,1.647" transform="translate(-5.231 -4.049)" fill="#f6f8f9"/><path d="M34.56,14.383c-.012.182-.024.281-.024.379q0,1.442,0,2.881c.831.071,1.027-.055,1.663-1.057a2.106,2.106,0,0,0-.349-1.609,1.914,1.914,0,0,0-1.289-.593" transform="translate(-4.52 -1.892)" fill="#f9bc90"/><path d="M22.078,28.184a12.054,12.054,0,0,0,2.6.441,14.583,14.583,0,0,0,2.4-.441v-.8a8.233,8.233,0,0,1-5,0Z" transform="translate(-2.89 -3.602)" fill="#fbbe91"/><path d="M13.494,17.7c.574.9.684.975,1.63,1.09V16.113c-.463.279-.933.134-1.36.183l-.27.27Z" transform="translate(-1.766 -2.119)" fill="#f9bc90"/><path d="M36.48,9.6V12.37l.778.778A5.112,5.112,0,0,0,36.48,9.6" transform="translate(-4.775 -1.263)" fill="#6b3a25"/><path d="M5.263,22.09H2.437l-.455.631V32.988a31.626,31.626,0,0,1,3.281-.1Z" transform="translate(-0.259 -2.905)" fill="#d65246"/><path d="M1.955,42.61l.545.5H6.455c.111-.156.252-.353.48-.673V36.953l-.574-.489H2.482l-.527.512Z" transform="translate(-0.256 -4.796)" fill="#fdc8a2"/><path d="M8.705,33.719H9.844c.109-.138.256-.327.47-.6V22.562l-.561-.342.1-.125H8.705Z" transform="translate(-1.139 -2.906)" fill="#d65246"/><path d="M2.949,49.37H6.667A28.487,28.487,0,0,1,5.993,46.1H2.949Z" transform="translate(-0.386 -6.064)" fill="#fdbf92"/><path d="M10.441,37.694v-.443c-.194-.113-.2.137-.321.139s-.272,0-.451,0v1.253l.772-.95" transform="translate(-1.266 -4.896)" fill="#f5ba8e"/><path d="M33.618,53.2h1.595V49.908c-.49-.055-1.026-.007-1.595-.028Z" transform="translate(-4.4 -6.561)"/><path d="M37.429,49.926v3.261h1.623a14.564,14.564,0,0,0,.024-1.58c.01-.549,0-1.1,0-1.681Z" transform="translate(-4.899 -6.567)"/><path d="M42.878,49.906H41.283V53.2c.49.055,1.026.007,1.595.028Z" transform="translate(-5.403 -6.564)"/><path d="M46.711,49.906H45.116V53.2c.49.056,1.026.007,1.595.028Z" transform="translate(-5.905 -6.564)"/><path d="M50.545,44.151h-1.6v3.291c.49.056,1.026.007,1.6.028Z" transform="translate(-6.407 -5.807)"/><path d="M45.076,44.221v3.211c.524.061,1.059.01,1.629.032V44.192c-.235-.149-.549-.057-.842-.056-.261,0-.546-.1-.787.085" transform="translate(-5.9 -5.802)"/><path d="M42.88,44.152h-1.6v3.29c.5.054,1.031.008,1.6.028Z" transform="translate(-5.403 -5.807)"/><rect width="1.6" height="3.26" transform="translate(32.546 38.345)"/><path d="M35.213,44.151H33.618v3.291c.49.056,1.026.007,1.595.028Z" transform="translate(-4.4 -5.807)"/><path d="M48.947,53.2h1.6v-3.29c-.495-.054-1.031-.008-1.6-.028Z" transform="translate(-6.407 -6.561)"/><path d="M27,19.224h-1.51c-.063.347-.356.538-.593.793h-.629c-.209-.21-.529-.37-.568-.785H22.146c-.36.374.306.687.125,1.093l1.223,1.152c.511.119,1.1.434,1.664.115.242-.137.529.021.734-.259.279-.382.762-.655.928-1.067.113-.281.449-.625.183-1.042" transform="translate(-2.884 -2.528)" fill="#010101"/><path d="M30.326,14.686a1.248,1.248,0,1,0-1.248,1.249,1.294,1.294,0,0,0,1.248-1.249" transform="translate(-3.643 -1.768)" fill="#030202"/></g></g></svg>