<svg xmlns="http://www.w3.org/2000/svg" xmlns:xlink="http://www.w3.org/1999/xlink" width="295" height="256" viewBox="0 0 295 256"><defs><clipPath id="a"><rect width="188.431" height="191.577" fill="none"/></clipPath></defs><g transform="translate(-1125 -3322)"><rect width="295" height="256" rx="20" transform="translate(1125 3322)" fill="#ffb840"/><g transform="translate(1178.284 3354.711)"><g clip-path="url(#a)"><path d="M36.665,50.893c-.724-.792-.573-2.06-1.5-2.61.134-2.508,2.162-3.823,3.392-5.414,2.148-2.778,4.181-5.771,7.02-7.969a105.908,105.908,0,0,1,11.247-8,54.949,54.949,0,0,1,12.407-5.29c1.793-.526,3.625-.867,5.388-1.42a24.634,24.634,0,0,1,7.556-.683c.763,0,.979-.661,1.533-1.025V5.6L85.994,4c1.038-.735,1.676.769,2.731.556a12.286,12.286,0,0,1,1,2.348,13.82,13.82,0,0,1,.037,2.608q0,18.312.015,36.622c0,1.075-.276,2.2.246,3.218,3.911-8.725,7.437-17.6,11.766-26.332,5.914,1.068,10.643,4.462,16.157,6.244a9.138,9.138,0,0,1,1.163-3.326c-2.313-1.659-3.047-4.539-5.4-5.885V17.364c2.072-3.665,4.963-6.159,7.715-8.97a4.022,4.022,0,0,1,3.276.581c.941.634,2.132.878,3.023,1.711.861.805,2.2.986,2.9,2.3,1.514-1.009,3.264-1.41,4.784-2.813-.706-2.786,1.079-5.453.705-8.234l.929-.928C141.351.377,145.661-.364,150.1.2a4.654,4.654,0,0,1,1.7,4.074c-.2,1.505,1.432,2.623.733,4.078.781,2.107,2.989,1.869,4.407,2.953,3.086-.739,4.26-4.171,7.156-5.237h2.222c3.238,2.844,7.058,5.141,9.355,9.347l-4.927,8.342c.965.923.907,2.771,2.452,3.98,2.632-.636,5.246.877,8.237.745l1.717,2.08V42.506c-2.534,2.187-5.814,1.747-8.7,2.584-1.306,1.123-1.375,2.96-2.7,4.36,2.13,1.9,3.2,4.594,5.489,6.233v2.732c-2.044,3.577-5.02,6-7.79,8.889-3.963.513-6.2-3.23-9.982-4.167-.854.9-2.686.827-3.744,2.169.656,1.676,1.284,3.356,2.018,5.008,1.094,2.462.726,2.469-.214,5.216-1.192,3.485-3.529,6.489-4.183,10.346h32.875c1.307.719,1.593,1.815,2.205,3.181v48.982c-4.86,4.353-8.5,10.052-14.165,14.617H151.1c1.6.993,3.622.1,5.21,1.938,1.612,2.992.3,6.621.852,9.9-.791,1.553-2.11,2.168-3.867,3.039-1.328.134-3.35-.432-4.972.933-.31.619-.621,1.238-.958,1.909.671,2.11,2.316,3.7,3.623,6.146v2.747c-2.66,2.215-4.617,5.331-8.085,7.03-2.149-1.258-4.476-2.429-6.3-4.5-.721,1.336-2.772-.176-3.3,2.354.484,1.379-1.123,3.169-.887,5.519-.574.382-1.3.864-2.553,1.7h-9.225c-.318-.442-.821-1.143-1.6-2.229.484-1.624-1.8-3.4-.857-5.211-.675-1.962-2.486-.968-3.359-2.264-1.1,1.659-3.315,1.843-4.253,3.705h-4.072l-6.166-6.164V176.07c1.191-1.755,2.083-3.725,3.759-5.323a9.262,9.262,0,0,0-1.96-3.195c-2.749.014-5.8.011-7.865-2.675v-9.672l1.876-1.922c2.111.582,3.853-1.671,5.648-.668,1.506-.6,1.236-2.051,2.121-2.636l-4.5-7c1.5-3.615,4.764-5.437,6.941-8.257h3.209a37.619,37.619,0,0,0,5.54,3.712c.729.218,1.076-1.187,2.04-.9.541-1.3,1.616-2.461.77-4.132L89.758,121.134v3.376q0,30.83.018,61.659c0,1.858-.083,3.612-1.386,4.785-.939.888-1.87.187-2.676.623l-2-2.382V178.734c-1.347,0-2.57-.007-3.793,0a15.844,15.844,0,0,1-12.335-5.385,14.766,14.766,0,0,1-3.986-9.918c-.061-4.484-.014-8.969-.014-13.538a5.086,5.086,0,0,0-1.385-1.037c-3.557-1.1-4.416-4.022-5.429-7.146-1.061-3.273-.317-6.539-.757-9.926-2.4-1.31-4.457-3.306-6.965-4.644a2.449,2.449,0,0,1-.544-.492c-4.315-4.483-9.035-8.565-12.471-13.882A60.2,60.2,0,0,1,29.18,98.4,98.194,98.194,0,0,1,26.8,87.776c-.976-4.8-.519-9.546-.5-14.293a32.353,32.353,0,0,1,1.736-8.966c.293-.975.17-1.893.431-2.818.8-.521,1.132-1.628,2.215-1.835,3.6-.307,4.826.847,4.265,4.343-.592,3.681-1.524,7.289-1.733,11.051-1.2,21.688,7.273,38.437,25.568,50.113,3.056,1.95,4.467,4.257,4.478,7.908.029,9.944.137,9.979,10,9.922,2.836-.016,5.713.41,9.392-.661,0-38.534,0-77.237,0-115.529-2.057-1.224-3.417-.739-4.734-.519A52.477,52.477,0,0,0,44.628,46.158a30.247,30.247,0,0,1-3.318,4.031c-1.371,1.208-2.85,2.108-4.645.7" fill="#060606"/><path d="M36.665,50.893H39.26c1.992-1.792,3.247-4.159,4.936-6.156a52.171,52.171,0,0,1,7.849-7.9c1.811-1.386,3.883-2.652,5.74-4,3.86-2.8,8.263-4.2,12.581-5.773,2.487-.9,5.122-1.89,7.938-1.606.955.1,1.542-1.1,2.69-.776a10.445,10.445,0,0,0,2.664.043V144.265H65.543c-2.9-.886-3.609-3.153-3.483-6.067.133-3.092.03-6.194.03-9.382a82.944,82.944,0,0,1-7.446-4.7c-3.583-2.806-7.135-5.576-10.012-9.31a94.957,94.957,0,0,1-6.712-9.971c-2.291-3.9-3.037-8.445-4.994-12.5.485-2.343-1.056-4.424-.813-6.793.152-1.487.589-3.174-.657-4.561-.185-.207.041-.739-.037-1.1-.358-1.625,1.155-2.858.818-4.56a8.428,8.428,0,0,1,.027-4.436c1.121-2.869.868-6.026,2.4-8.909l-2.95-2.119H30.683c.137-1.24,1.121-.546,1.728-.756,1.915-2.469,2.066-5.871,4.254-8.215" fill="#fcf385"/><path d="M1.007,81.484c.1-.4-1.165-.775-.991-1.708a5.785,5.785,0,0,0,.007-.9l2.3-1.76H17.683L19.6,79.385c.333.846-.917,1.571-.982,2.631-1.42,1.148-3.1,1.043-4.78,1.03-2.85-.022-5.7.013-8.55-.014-1.419-.014-2.929.4-4.283-1.548" fill="#0c0c0c"/><path d="M36.455,127.205h2.917c.527,1.356,1.452,2.554.906,4.182l-10.7,10.7H27.27l-1.787-1.953v-1.958l10.972-10.97" fill="#090909"/><path d="M27.736,17.22,39.73,29.211c.353.982-.9,1.688-.962,2.872H35.424L24.735,21.4V19.174c.877-.851,1.485-2.251,3-1.954" fill="#070707"/><path d="M134.626,86.778A9.766,9.766,0,0,1,132,90.549c-1.363,1.273-2.661,2.618-3.968,3.95-2.132,2.175-4.5,4.143-6.192,7.461v26.947c-10.815-4.548-21.248-9.282-31.852-13.832-.534-.858-.206-1.87-.208-2.819q-.039-22.956-.026-45.913a11.182,11.182,0,0,1,1.39-5.411c2.269-4.377,4.073-9.012,5.979-13.564,2.039-4.873,4.508-9.576,6.174-14.619.323-.976.667-2.34,2.06-2.814,5.288,2.411,10.548,5.039,15.989,7.218,4.383,1.756,8.659,3.741,12.962,5.658,2.091.932,4.575,1.187,6.049,2.965-2.107,6.745-6.526,12.541-7.456,19.745,2.422,1.385,4.489,2.926,7.118,3.32.391.059.678.269.592.742a2.045,2.045,0,0,1,1.036,2.79c-2.107,4.913-3.378,10.238-7.018,14.4" fill="#efeffe"/><path d="M173.511,130.139c-1.981-.272-2.175,1.5-3.087,3.135v13.234h-20.7c.491-1.618,1.837-3,1.329-4.616l-7.269-7.267c-3.282-.382-5.094,2.488-7.685,3.737-1.07.348-1.663-.88-2.683-.8-.568-2.611-1.138-5.226-1.686-7.744a7.819,7.819,0,0,0-3.758-1.335V104.873h42.449v13.6c.572.518,1.069.91.83,1.607l2.257,1.085a8.257,8.257,0,0,1,0,8.971" fill="#95e0fe"/><path d="M129.162,34.473c-1.77-1.378-3.819-1.586-5.572-2.463a3.529,3.529,0,0,1,.621-3.687c.908-1.256.606-2.542.694-3.841a31.269,31.269,0,0,1-4.808-6.6l3.348-2.975c1.447-.567,2.152,1.516,3.593,1.989a25.166,25.166,0,0,1,2.354,1.51,3.223,3.223,0,0,0,2.773.151c2.231-.93,4.107-2.6,6.646-2.955.716-.1,1.309-1.071,1.953-1.638-.768-2.767.57-5.145.711-7.794h4.893c.589,2.192,1.223,4.546,1.909,7.093.573.437.958,1.631,2,1.711,3.052.235,5.458,2.989,8.709,2.127,2.637-.732,3.593-3.915,6.605-4.359l3.05,3.672a35.189,35.189,0,0,0-4.262,7.208,58.161,58.161,0,0,1,4.022,8.37c2.721,1.32,5.794.945,8.821,2-.407,1.52,1.462,2.81.582,4.67-3.1,1.134-7.01.567-9.518,3.654.365,3.213-2.733,5.542-2.192,8.857a33.936,33.936,0,0,1,4.744,6.494c-1.176,1.05-2.1,1.871-3.378,3.013-2.071-.629-4.067-2.251-6.8-3.853-2.43-.3-4.5,1.945-7.037,2.948-1.125-1.862-1.187-4.211-2.669-5.792a3.143,3.143,0,0,1,1.639-1.623c4.447-1.931,6.769-5.8,8.765-9.912a4.357,4.357,0,0,0,.185-1.787c.018-2.366.008-4.733.008-6.854C158.1,25.213,152.1,20.6,142.864,21.819c-7.169.949-11.225,5.933-13.7,12.654" fill="#7873e2"/><path d="M136.869,175.744c-1.917.109-3.387,1.436-5.18,1.957-.742.216-1.771-.2-2.327.695a4.106,4.106,0,0,0-1.429,3.851c.213,1.237-.866,1.93-.939,3.009a5.328,5.328,0,0,1-2.533.167c-.087-1.064-1.293-1.685-1.072-2.919a4.407,4.407,0,0,0-.7-3.066,2.646,2.646,0,0,0-1.82-1.5,18.026,18.026,0,0,1-5.789-2.293c-2.546.594-4.3,2.408-6.347,3.745l-2.529-2.528a25.591,25.591,0,0,0,3.024-3.679c.992-1.282.787-2.3.2-3.612-.8-1.784-1.37-3.67-2.184-5.911-1.373-1.759-3.783-1.352-5.8-1.369-1.561-.949-1.244-2.223-1.151-3.434,1.168-.547,2.259-1.24,3.675-1.08s2.393-.827,3.418-1.439a27.672,27.672,0,0,1,2.669-6.913c-.634-2.389-2.32-4.092-3.741-6.3.845-.668,1.317-2.023,3.317-1.712.992.9,2,2.332,3.7,2.813,3.492.538,6.116-1.751,8.935-2.612a13.491,13.491,0,0,0,1.085-6.834h3.484c.019.024.286.2.291.378.045,1.675,1.359,3.151.653,4.9a7.3,7.3,0,0,0,4.466,2.85,12.157,12.157,0,0,1,3.125,1.435,7.826,7.826,0,0,1,3.833,3.832c3.92,8.167,4.184,16.362.294,24.609a4.971,4.971,0,0,1-2.631,2.959" fill="#7873e2"/><path d="M83.666,172.7H76.041c-.824-.724-1.95-1.093-2.887-1.872a9.5,9.5,0,0,1-3.646-8.617c.267-3.828.06-7.69.06-11.711h14.1Z" fill="#cecefe"/><path d="M177.9,92.132a6.97,6.97,0,0,1-.851,1.9c-1.43,1.553-2.964,3.01-4.543,4.589H132.458c1.336-2.773,3.6-4.586,5.4-6.487Z" fill="#fa6cc1"/><path d="M173.511,130.139v-8.971c.83-.648,2.035-.654,2.847-1.813V103.332a26.21,26.21,0,0,1,5.842-6.783c.514.623.271,1.267.271,1.853.018,11.683-.026,23.367.05,35.05a6.534,6.534,0,0,1-2.1,5.116c-1.17,1.113-2.291,2.279-3.76,3.747-.335-3.636-.047-6.995-.183-10.334-.956-.667-1.388-2.176-2.967-1.842" fill="#fcf385"/><path d="M134.771,36.459c.992-2.59,1.482-5.667,4-7.129,2.147-1.246,4.514-2.55,7.223-2.355,4.539.327,9.587,4.446,10.252,8.727a11.516,11.516,0,0,1-1.512,7.568c-1.336,2.387-3.453,3.383-5.653,4.578-.248-1.565-1.6-2.68-1.829-4.419-.146-1.121-1.2-1.837-2.48-2.318-3.226-1.211-6.336-2.732-9.485-4.147-.212-.1-.357-.342-.52-.505" fill="#f6f8f9"/><path d="M134.626,86.778c-.121-.78.418-1.289.691-1.928,1.609-3.759,3.5-7.4,4.744-11.319a13.112,13.112,0,0,1,1.362-2.4l-.815-1.547c.789-.131,1.3.393,1.946.7,3.084,1.449,6.251,2.722,9.335,4.035-.515,2.32-1.992,3.879-2.434,6.02-.4,1.945-1.873,3.669-2.985,5.695h-5.46a21.381,21.381,0,0,1-3.341-.037c-1.187-.189-1.882,1.139-3.043.785" fill="#e7e7fd"/><path d="M136.869,175.744c.975-2.452,2.462-4.642,3.295-7.21.429-1.321-.165-2.772.675-3.785.962-1.16.466-2.368.469-3.526,0-1.27.381-2.543-.6-3.853-.7-.923.512-2.676-.843-3.716-.016-3.816-2.454-6.465-4.487-9.31h2.618c1.018-1.415,2.945-1.617,3.77-3.061,1.455.272,1.767,1.506,2.829,2.028l-3.142,4.547v2.862c1.769,2.115,1.346,5.428,4.138,7.028,1.8-.4,3.393,1.306,5.425.723V162.3a16.088,16.088,0,0,0-5.662.667c-.791.261-1.652.752-1.671,1.2-.084,2.026-1.492,3.4-2.149,5.118a9.476,9.476,0,0,0-.213,2.819c1.086,1.522,2.111,2.96,2.987,4.189.282,1.818-1.134,2.258-1.833,3.188a19.971,19.971,0,0,0-5.6-3.735" fill="#6a63e6"/><path d="M150.221,67.86c-3.39-2.689-7.563-3.352-11.062-5.333,2.151-3.175,2.754-7.154,5.435-10.754,1.589,5.841,4.354,10.693,5.627,16.087" fill="#cbcbfa"/><path d="M125.665,172.753c-6.707.813-13.259-6.194-12.837-12.687a13.825,13.825,0,0,1,3.836-9.219c2.343-2.37,5.49-3.364,8.94-3.558,6.325-.355,13.074,6.578,12.813,12.76-.285,6.776-5.257,13.222-12.752,12.7" fill="#060607"/><path d="M132.423,162.166a10.17,10.17,0,0,1-3.255,4.4c-3.538.779-3.538.779-6.986.1l-3.239-3.238c.441-1.2-.711-2.066-.822-3.271-.12-1.291,1.36-2.1.794-3.4a11,11,0,0,1,4.615-3.48c7.032-.568,9.461,1.862,8.893,8.891" fill="#f6f8f9"/></g></g></g></svg>