<svg xmlns="http://www.w3.org/2000/svg" xmlns:xlink="http://www.w3.org/1999/xlink" width="190" height="120.333" viewBox="0 0 190 120.333"><defs><clipPath id="a"><rect width="100.366" height="100.311" fill="none"/></clipPath></defs><g transform="translate(-180 -4946.667)"><rect width="190" height="88" rx="20" transform="translate(180 4979)" fill="#9fbe37"/><g transform="translate(225.634 4946.667)"><g transform="translate(0 0)" clip-path="url(#a)"><path d="M72.327,38.1c0,.535-.416.384-.7.386-1.81.011-3.623.006-5.5.006v5.2c.019.1.791-.348.714.286-.441.6-1.286.644-1.778,1.309a5.291,5.291,0,0,0-.35,2.608c-.015,3.591.023,7.182-.015,10.773-.068,6.525-4.474,10.943-10.986,10.988-6.007.041-12.016,0-18.023.011-3.367,0-3.457.085-3.951,3.348a2.227,2.227,0,0,1-.655,1.512,3.288,3.288,0,0,1-2.6-1.672,8.255,8.255,0,0,0-7.885-3.239,79.206,79.206,0,0,1-8.421.034A10.465,10.465,0,0,1,1.6,59.057q-.118-14.886,0-29.772A10.435,10.435,0,0,1,12.179,18.706c5.747-.081,11.493-.011,17.238-.026a5.793,5.793,0,0,0,2.806-.352c.665-.49.7-1.337,1.307-1.778.51-.034.318.422.533.785.972,0,2.032.009,3.092-.009a.3.3,0,0,0,.294-.384c1.017.049.925.96,1.149,1.563,3.828,10.231,10.988,16.566,21.763,18.718,3.107.621,6.246.2,9.367.341.889.038,1.849-.2,2.6.537" transform="translate(1.741 18.739)" fill="#c6e9fe"/><path d="M53.692,56.84c-2.734,0-5.467-.019-8.2,0a26.575,26.575,0,0,1-12.973-3.557,26.3,26.3,0,0,1-8.448-7.393,29.936,29.936,0,0,1-3.388-5.442,13.024,13.024,0,0,1-1.548-4.634c0-.053-.209-.092-.32-.139a4.191,4.191,0,0,0-.365-2c-.288-.606.262-1.388-.307-2.036-.168-.192-.1-.608-.109-.921-.011-.981.049-1.964-.015-2.938a20.755,20.755,0,0,1,.853-6.32,30.538,30.538,0,0,1,5.4-10.692,22.714,22.714,0,0,1,2.817-3.12,32.561,32.561,0,0,1,9.372-5.736c1.478-.589,3.09-.689,4.478-1.48C42.166.661,43.284,0,44.493.012,47.5.046,50.5-.06,53.5.057a27.1,27.1,0,0,1,5.282.925,29.157,29.157,0,0,1,6.531,2.674c1.3.676,2.442,1.663,3.689,2.454a15.191,15.191,0,0,1,2.6,2.224A29.94,29.94,0,0,1,78.035,18.6a35.912,35.912,0,0,1,1.582,5.819,19.668,19.668,0,0,1,.279,5.919A27.223,27.223,0,0,1,77.915,39.1a29.035,29.035,0,0,1-6.932,10.058c-.522.49-1.017,1.013-1.616,1.612,0,3.42-.021,6.934.017,10.446a4.731,4.731,0,0,1-.49,2.166c-1.947.81-2.207.763-3.744-.77-2.213-2.2-4.416-4.412-6.6-6.6a19.98,19.98,0,0,1-4.853.829" transform="translate(20.376 0.001)"/><path d="M35.272,17.175v1.763c-.322.322-.646.644-.983.979H13.562A11.31,11.31,0,0,0,7.911,21.9a8.445,8.445,0,0,0-2.629,2.857,7.751,7.751,0,0,0-1.35,4.115c-.021,10.632-.055,21.266.036,31.9a8.334,8.334,0,0,0,1.774,4.74A18.072,18.072,0,0,0,8.555,68.2c.482.444,1.284.484,1.813.776a7.466,7.466,0,0,0,3.828.7c4.307,0,8.613,0,12.794,0,1.9,1.9,3.736,3.736,5.7,5.7a5.38,5.38,0,0,0,.217-2.237c.038-.71.009-1.424.009-2.1.456-.454.872-.87,1.373-1.371h4.184q9,0,18.008,0a12.3,12.3,0,0,0,5.284-1.915,8.139,8.139,0,0,0,2.651-2.838,8.358,8.358,0,0,0,1.42-4.486q0-7.437,0-14.854c.335-.337.657-.661.979-.983h1.763c.567.109.742.689,1.175.97,0,4.96-.009,9.92,0,14.882a12.936,12.936,0,0,1-2.233,6.907,12.537,12.537,0,0,1-7.444,5.551,12.193,12.193,0,0,1-3.435.693C50.576,73.589,44.5,73.6,38.43,73.6h-1.5c-.367,2.776.369,5.506-.448,8.037-1.542,1.032-2.674.514-3.749-.574-2.431-2.463-4.887-4.9-7.453-7.463H23.486c-3.2,0-6.4-.015-9.6,0A13.539,13.539,0,0,1,3.069,68.563,13.317,13.317,0,0,1,.339,62.844a16.015,16.015,0,0,1-.333-3.572Q0,44.188.006,29.106a13.046,13.046,0,0,1,2.243-6.9,12.64,12.64,0,0,1,7.457-5.533A10.822,10.822,0,0,1,12.756,16q10.773.01,21.543,0c.284.433.864.608.972,1.175" transform="translate(0 18.114)"/><path d="M49.046,28.493c.324.324.646.646.974.977v1.977c-.311.3-.64.614-1,.955H6.312L4.966,30.967V29.853c.452-.437.921-.887,1.414-1.36H49.046" transform="translate(5.623 32.265)"/><path d="M41.276,33.667c.386.394.844.857,1.305,1.326V36.1c-.476.495-.928.964-1.365,1.42H6.329q-.668-.684-1.365-1.388c0-.38,0-.772,0-1.162l1.305-1.307Z" transform="translate(5.621 38.124)"/><path d="M36.123,23.348c.439.456.891.923,1.365,1.414v1.1c-.467.48-.921.945-1.367,1.4H6.328c-.439-.456-.891-.925-1.365-1.414V24.743c.471-.469.934-.928,1.405-1.395Z" transform="translate(5.62 26.439)"/><path d="M24.444,34.61c.318-.313.64-.631.977-.966h1.608c.245.288.537.627.915,1.064v1.938l-1.169.859H25.412l-.968-.968Z" transform="translate(27.68 38.098)" fill="#050607"/><path d="M63.284,47.14V55.2c-2.209-1.778-3.751-4.152-6.231-5.636-.527.891-1.621.151-2.184.913-1.348-.173-2.582.51-3.953.433-2.474-.141-4.96-.051-7.442-.038a22.873,22.873,0,0,1-8.455-1.813,24.905,24.905,0,0,1-9.359-6.708,27.166,27.166,0,0,1-4.949-9.293c-.226-1.013-.343-2.122-.559-3.126a17.744,17.744,0,0,1-.284-4.361,23.319,23.319,0,0,1,4.162-12.758,24.31,24.31,0,0,1,2.783-3.54,26.211,26.211,0,0,1,8.421-5.649,25.558,25.558,0,0,1,5.5-1.429A39.146,39.146,0,0,1,46.074,1.9a37.594,37.594,0,0,1,5.48.03,24.543,24.543,0,0,1,5.755,1.207,22.974,22.974,0,0,1,5.8,3.019,22.934,22.934,0,0,1,3.956,3.2,28.124,28.124,0,0,1,5.1,7.868,26.66,26.66,0,0,1,1.446,5.493,23.394,23.394,0,0,1,.284,4.941,24.836,24.836,0,0,1-1.934,8.4,25.31,25.31,0,0,1-6.427,8.888c-.766.7-1.968.955-2.254,2.2" transform="translate(22.477 2.055)" fill="#febb53"/><path d="M41.717,14.5c-.595-.394-.307-1.032-.38-1.6-.949-.829-1.661-1.947-3.037-2.506-3.48-.633-5.655,2.017-5.615,5.31-.277.277-.552.554-.885.885H30.123l-1.22-1.22a9.475,9.475,0,0,1,2.041-6.12C32.181,7.82,34,7.264,35.657,6.47a8.842,8.842,0,0,1,8.962,4.653c.672,1.252.667,1.966.661,4.7,0,1.879-.987,3.25-2.045,4.649-1.083,1.433-2.8,1.763-4.226,2.482v5.273c-.328.273-.678.565-1.137.949h-1.4a4.152,4.152,0,0,1-1.395-1.926c0-1.164.053-2.535-.019-3.9a7.355,7.355,0,0,1,.565-2.324c.345-1.326,1.61-1.623,2.655-1.985,1.744-.608,2.99-1.523,3.054-3.506.011-.382.45-.463.386-1.03" transform="translate(32.722 7.275)"/><path d="M31.836,21.039c.557-.269.113-.868.441-1.222.384-.529,1.068-.533,1.508-.917a3.547,3.547,0,0,1,1.866,1.047V21.96c-.288.247-.631.544-1.062.917H33.152a3.331,3.331,0,0,1-1.316-1.838" transform="translate(36.05 21.402)" fill="#060402"/></g></g></g></svg>