<svg xmlns="http://www.w3.org/2000/svg" xmlns:xlink="http://www.w3.org/1999/xlink" width="1258" height="473" viewBox="0 0 1258 473"><defs><filter id="a" x="0" y="0" width="1258" height="473" filterUnits="userSpaceOnUse"><feOffset dy="3" input="SourceAlpha"/><feGaussianBlur stdDeviation="3" result="b"/><feFlood flood-opacity="0.161"/><feComposite operator="in" in2="b"/><feComposite in="SourceGraphic"/></filter><filter id="c" x="243.367" y="138.355" width="166.021" height="166.021" filterUnits="userSpaceOnUse"><feOffset dy="6" input="SourceAlpha"/><feGaussianBlur stdDeviation="3" result="d"/><feFlood flood-opacity="0.161"/><feComposite operator="in" in2="d"/><feComposite in="SourceGraphic"/></filter><filter id="e" x="443.968" y="141.515" width="166.021" height="166.021" filterUnits="userSpaceOnUse"><feOffset dy="6" input="SourceAlpha"/><feGaussianBlur stdDeviation="3" result="f"/><feFlood flood-opacity="0.161"/><feComposite operator="in" in2="f"/><feComposite in="SourceGraphic"/></filter><filter id="g" x="644.654" y="141.515" width="166.021" height="166.021" filterUnits="userSpaceOnUse"><feOffset dy="6" input="SourceAlpha"/><feGaussianBlur stdDeviation="3" result="h"/><feFlood flood-opacity="0.161"/><feComposite operator="in" in2="h"/><feComposite in="SourceGraphic"/></filter><filter id="i" x="845.17" y="141.515" width="166.021" height="166.021" filterUnits="userSpaceOnUse"><feOffset dy="6" input="SourceAlpha"/><feGaussianBlur stdDeviation="3" result="j"/><feFlood flood-opacity="0.161"/><feComposite operator="in" in2="j"/><feComposite in="SourceGraphic"/></filter><filter id="k" x="1045.857" y="141.515" width="166.021" height="166.021" filterUnits="userSpaceOnUse"><feOffset dy="6" input="SourceAlpha"/><feGaussianBlur stdDeviation="3" result="l"/><feFlood flood-opacity="0.161"/><feComposite operator="in" in2="l"/><feComposite in="SourceGraphic"/></filter><filter id="m" x="42.766" y="138.355" width="166.021" height="166.021" filterUnits="userSpaceOnUse"><feOffset dy="6" input="SourceAlpha"/><feGaussianBlur stdDeviation="3" result="n"/><feFlood flood-opacity="0.161"/><feComposite operator="in" in2="n"/><feComposite in="SourceGraphic"/></filter></defs><g transform="translate(-171 -6169)"><g transform="matrix(1, 0, 0, 1, 171, 6169)" filter="url(#a)"><path d="M20,0H1220a20,20,0,0,1,20,20V435a20,20,0,0,1-20,20H20A20,20,0,0,1,0,435V20A20,20,0,0,1,20,0Z" transform="translate(9 6)" fill="#fff"/></g><path d="M-24.315-4.026h-2.338V0h-1.319V-9.953h3.295a3.9,3.9,0,0,1,2.587.766,2.755,2.755,0,0,1,.906,2.229,2.68,2.68,0,0,1-.5,1.62,3,3,0,0,1-1.4,1.032l2.338,4.225V0h-1.408ZM-26.653-5.1h2.017a2.275,2.275,0,0,0,1.555-.507A1.714,1.714,0,0,0-22.5-6.962a1.8,1.8,0,0,0-.55-1.418,2.33,2.33,0,0,0-1.589-.5h-2.01ZM-16.475.137a3.232,3.232,0,0,1-2.447-.988,3.666,3.666,0,0,1-.943-2.642v-.232a4.438,4.438,0,0,1,.42-1.965,3.28,3.28,0,0,1,1.176-1.354,2.956,2.956,0,0,1,1.637-.489,2.77,2.77,0,0,1,2.242.95,4.114,4.114,0,0,1,.8,2.721v.526H-18.6a2.629,2.629,0,0,0,.639,1.767A2.009,2.009,0,0,0-16.406-.9a2.2,2.2,0,0,0,1.135-.273,2.851,2.851,0,0,0,.813-.725l.772.6A3.106,3.106,0,0,1-16.475.137Zm-.157-6.631a1.687,1.687,0,0,0-1.285.557,2.708,2.708,0,0,0-.643,1.562h3.705v-.1a2.409,2.409,0,0,0-.52-1.494A1.588,1.588,0,0,0-16.632-6.494ZM-9.16-.9a1.822,1.822,0,0,0,1.183-.41,1.443,1.443,0,0,0,.561-1.025h1.2a2.293,2.293,0,0,1-.437,1.21,2.881,2.881,0,0,1-1.077.916A3.107,3.107,0,0,1-9.16.137a3.047,3.047,0,0,1-2.4-1.008,4.016,4.016,0,0,1-.892-2.758v-.212a4.453,4.453,0,0,1,.4-1.921A3.02,3.02,0,0,1-10.92-7.068a3.233,3.233,0,0,1,1.753-.465A2.966,2.966,0,0,1-7.1-6.788a2.663,2.663,0,0,1,.878,1.935h-1.2A1.743,1.743,0,0,0-7.96-6.033a1.691,1.691,0,0,0-1.207-.461,1.77,1.77,0,0,0-1.494.694,3.259,3.259,0,0,0-.53,2.006v.239a3.194,3.194,0,0,0,.526,1.969A1.779,1.779,0,0,0-9.16-.9Zm8.928.164A2.686,2.686,0,0,1-2.4.137,2.3,2.3,0,0,1-4.2-.55a2.974,2.974,0,0,1-.625-2.034V-7.4h1.265v4.778q0,1.682,1.367,1.682A1.893,1.893,0,0,0-.267-2.017V-7.4H1V0h-1.2Zm6.727-5.53a3.79,3.79,0,0,0-.622-.048A1.667,1.667,0,0,0,4.184-5.25V0H2.919V-7.4h1.23l.021.854a1.969,1.969,0,0,1,1.764-.991,1.292,1.292,0,0,1,.561.1Zm5.469,4.3a.931.931,0,0,0-.386-.8,3.718,3.718,0,0,0-1.347-.489,6.367,6.367,0,0,1-1.524-.492,2.169,2.169,0,0,1-.834-.684,1.635,1.635,0,0,1-.27-.943A1.919,1.919,0,0,1,8.371-6.9a3,3,0,0,1,1.965-.629,3.091,3.091,0,0,1,2.041.649,2.063,2.063,0,0,1,.783,1.661H11.888a1.142,1.142,0,0,0-.441-.9,1.652,1.652,0,0,0-1.111-.376,1.729,1.729,0,0,0-1.08.3.947.947,0,0,0-.39.786.767.767,0,0,0,.362.69,4.458,4.458,0,0,0,1.309.444,6.821,6.821,0,0,1,1.535.506,2.239,2.239,0,0,1,.872.708,1.74,1.74,0,0,1,.284,1.008,1.893,1.893,0,0,1-.793,1.589,3.326,3.326,0,0,1-2.058.6A3.725,3.725,0,0,1,8.8-.178a2.557,2.557,0,0,1-1.07-.878,2.117,2.117,0,0,1-.386-1.22H8.613a1.309,1.309,0,0,0,.509,1.008A1.976,1.976,0,0,0,10.377-.9a2.039,2.039,0,0,0,1.152-.291A.893.893,0,0,0,11.963-1.962Zm2.577-1.8a4.369,4.369,0,0,1,.427-1.955,3.187,3.187,0,0,1,1.189-1.34,3.238,3.238,0,0,1,1.74-.472A3.119,3.119,0,0,1,20.34-6.487a4.024,4.024,0,0,1,.933,2.782v.089a4.407,4.407,0,0,1-.414,1.938A3.14,3.14,0,0,1,19.677-.342,3.275,3.275,0,0,1,17.91.137,3.111,3.111,0,0,1,15.473-.909a4,4,0,0,1-.933-2.769Zm1.271.15a3.164,3.164,0,0,0,.571,1.976A1.827,1.827,0,0,0,17.91-.9a1.816,1.816,0,0,0,1.531-.755,3.46,3.46,0,0,0,.567-2.116,3.159,3.159,0,0,0-.578-1.972A1.836,1.836,0,0,0,17.9-6.494a1.816,1.816,0,0,0-1.511.745A3.434,3.434,0,0,0,15.812-3.616ZM27.166-1.962a.931.931,0,0,0-.386-.8,3.718,3.718,0,0,0-1.347-.489,6.367,6.367,0,0,1-1.524-.492,2.169,2.169,0,0,1-.834-.684,1.635,1.635,0,0,1-.27-.943A1.919,1.919,0,0,1,23.574-6.9a3,3,0,0,1,1.965-.629,3.091,3.091,0,0,1,2.041.649,2.063,2.063,0,0,1,.783,1.661H27.091a1.142,1.142,0,0,0-.441-.9,1.652,1.652,0,0,0-1.111-.376,1.729,1.729,0,0,0-1.08.3.947.947,0,0,0-.39.786.767.767,0,0,0,.362.69,4.458,4.458,0,0,0,1.309.444,6.821,6.821,0,0,1,1.535.506,2.239,2.239,0,0,1,.872.708,1.74,1.74,0,0,1,.284,1.008,1.893,1.893,0,0,1-.793,1.589,3.326,3.326,0,0,1-2.058.6,3.725,3.725,0,0,1-1.572-.314,2.557,2.557,0,0,1-1.07-.878,2.117,2.117,0,0,1-.386-1.22h1.265a1.309,1.309,0,0,0,.509,1.008A1.976,1.976,0,0,0,25.58-.9a2.039,2.039,0,0,0,1.152-.291A.893.893,0,0,0,27.166-1.962Zm-68.25,23.994h-6.262V21h6.262Zm6.316,0h-6.262V21h6.262Zm6.316,0h-6.262V21h6.262Zm6.316,0H-28.4V21h6.262Zm6.316,0H-22.08V21h6.262Zm6.316,0h-6.262V21H-9.5Zm6.316,0H-9.447V21h6.262Zm6.316,0H-3.131V21H3.131Zm6.316,0H3.186V21H9.447Zm6.316,0H9.5V21h6.262Zm6.316,0H15.818V21H22.08Zm6.316,0H22.135V21H28.4Zm6.316,0H28.451V21h6.262Zm6.316,0H34.768V21h6.262Zm6.316,0H41.084V21h6.262Zm-88.43,21h-6.262V42h6.262Zm6.316,0h-6.262V42h6.262Zm6.316,0h-6.262V42h6.262Zm6.316,0H-28.4V42h6.262Zm6.316,0H-22.08V42h6.262Zm6.316,0h-6.262V42H-9.5Zm6.316,0H-9.447V42h6.262Zm6.316,0H-3.131V42H3.131Zm6.316,0H3.186V42H9.447Zm6.316,0H9.5V42h6.262Zm6.316,0H15.818V42H22.08Zm6.316,0H22.135V42H28.4Zm6.316,0H28.451V42h6.262Zm6.316,0H34.768V42h6.262Zm6.316,0H41.084V42h6.262Zm-88.43,21h-6.262V63h6.262Zm6.316,0h-6.262V63h6.262Zm6.316,0h-6.262V63h6.262Zm6.316,0H-28.4V63h6.262Zm6.316,0H-22.08V63h6.262Zm6.316,0h-6.262V63H-9.5Zm6.316,0H-9.447V63h6.262Zm6.316,0H-3.131V63H3.131Zm6.316,0H3.186V63H9.447Zm6.316,0H9.5V63h6.262Zm6.316,0H15.818V63H22.08Zm6.316,0H22.135V63H28.4Zm6.316,0H28.451V63h6.262Zm6.316,0H34.768V63h6.262Zm6.316,0H41.084V63h6.262Z" transform="translate(299.254 6212.5)" fill="#12263f" stroke="rgba(0,0,0,0)" stroke-width="1"/><path d="M-24.315-4.026h-2.338V0h-1.319V-9.953h3.295a3.9,3.9,0,0,1,2.587.766,2.755,2.755,0,0,1,.906,2.229,2.68,2.68,0,0,1-.5,1.62,3,3,0,0,1-1.4,1.032l2.338,4.225V0h-1.408ZM-26.653-5.1h2.017a2.275,2.275,0,0,0,1.555-.507A1.714,1.714,0,0,0-22.5-6.962a1.8,1.8,0,0,0-.55-1.418,2.33,2.33,0,0,0-1.589-.5h-2.01ZM-16.475.137a3.232,3.232,0,0,1-2.447-.988,3.666,3.666,0,0,1-.943-2.642v-.232a4.438,4.438,0,0,1,.42-1.965,3.28,3.28,0,0,1,1.176-1.354,2.956,2.956,0,0,1,1.637-.489,2.77,2.77,0,0,1,2.242.95,4.114,4.114,0,0,1,.8,2.721v.526H-18.6a2.629,2.629,0,0,0,.639,1.767A2.009,2.009,0,0,0-16.406-.9a2.2,2.2,0,0,0,1.135-.273,2.851,2.851,0,0,0,.813-.725l.772.6A3.106,3.106,0,0,1-16.475.137Zm-.157-6.631a1.687,1.687,0,0,0-1.285.557,2.708,2.708,0,0,0-.643,1.562h3.705v-.1a2.409,2.409,0,0,0-.52-1.494A1.588,1.588,0,0,0-16.632-6.494ZM-9.16-.9a1.822,1.822,0,0,0,1.183-.41,1.443,1.443,0,0,0,.561-1.025h1.2a2.293,2.293,0,0,1-.437,1.21,2.881,2.881,0,0,1-1.077.916A3.107,3.107,0,0,1-9.16.137a3.047,3.047,0,0,1-2.4-1.008,4.016,4.016,0,0,1-.892-2.758v-.212a4.453,4.453,0,0,1,.4-1.921A3.02,3.02,0,0,1-10.92-7.068a3.233,3.233,0,0,1,1.753-.465A2.966,2.966,0,0,1-7.1-6.788a2.663,2.663,0,0,1,.878,1.935h-1.2A1.743,1.743,0,0,0-7.96-6.033a1.691,1.691,0,0,0-1.207-.461,1.77,1.77,0,0,0-1.494.694,3.259,3.259,0,0,0-.53,2.006v.239a3.194,3.194,0,0,0,.526,1.969A1.779,1.779,0,0,0-9.16-.9Zm8.928.164A2.686,2.686,0,0,1-2.4.137,2.3,2.3,0,0,1-4.2-.55a2.974,2.974,0,0,1-.625-2.034V-7.4h1.265v4.778q0,1.682,1.367,1.682A1.893,1.893,0,0,0-.267-2.017V-7.4H1V0h-1.2Zm6.727-5.53a3.79,3.79,0,0,0-.622-.048A1.667,1.667,0,0,0,4.184-5.25V0H2.919V-7.4h1.23l.021.854a1.969,1.969,0,0,1,1.764-.991,1.292,1.292,0,0,1,.561.1Zm5.469,4.3a.931.931,0,0,0-.386-.8,3.718,3.718,0,0,0-1.347-.489,6.367,6.367,0,0,1-1.524-.492,2.169,2.169,0,0,1-.834-.684,1.635,1.635,0,0,1-.27-.943A1.919,1.919,0,0,1,8.371-6.9a3,3,0,0,1,1.965-.629,3.091,3.091,0,0,1,2.041.649,2.063,2.063,0,0,1,.783,1.661H11.888a1.142,1.142,0,0,0-.441-.9,1.652,1.652,0,0,0-1.111-.376,1.729,1.729,0,0,0-1.08.3.947.947,0,0,0-.39.786.767.767,0,0,0,.362.69,4.458,4.458,0,0,0,1.309.444,6.821,6.821,0,0,1,1.535.506,2.239,2.239,0,0,1,.872.708,1.74,1.74,0,0,1,.284,1.008,1.893,1.893,0,0,1-.793,1.589,3.326,3.326,0,0,1-2.058.6A3.725,3.725,0,0,1,8.8-.178a2.557,2.557,0,0,1-1.07-.878,2.117,2.117,0,0,1-.386-1.22H8.613a1.309,1.309,0,0,0,.509,1.008A1.976,1.976,0,0,0,10.377-.9a2.039,2.039,0,0,0,1.152-.291A.893.893,0,0,0,11.963-1.962Zm2.577-1.8a4.369,4.369,0,0,1,.427-1.955,3.187,3.187,0,0,1,1.189-1.34,3.238,3.238,0,0,1,1.74-.472A3.119,3.119,0,0,1,20.34-6.487a4.024,4.024,0,0,1,.933,2.782v.089a4.407,4.407,0,0,1-.414,1.938A3.14,3.14,0,0,1,19.677-.342,3.275,3.275,0,0,1,17.91.137,3.111,3.111,0,0,1,15.473-.909a4,4,0,0,1-.933-2.769Zm1.271.15a3.164,3.164,0,0,0,.571,1.976A1.827,1.827,0,0,0,17.91-.9a1.816,1.816,0,0,0,1.531-.755,3.46,3.46,0,0,0,.567-2.116,3.159,3.159,0,0,0-.578-1.972A1.836,1.836,0,0,0,17.9-6.494a1.816,1.816,0,0,0-1.511.745A3.434,3.434,0,0,0,15.812-3.616ZM27.166-1.962a.931.931,0,0,0-.386-.8,3.718,3.718,0,0,0-1.347-.489,6.367,6.367,0,0,1-1.524-.492,2.169,2.169,0,0,1-.834-.684,1.635,1.635,0,0,1-.27-.943A1.919,1.919,0,0,1,23.574-6.9a3,3,0,0,1,1.965-.629,3.091,3.091,0,0,1,2.041.649,2.063,2.063,0,0,1,.783,1.661H27.091a1.142,1.142,0,0,0-.441-.9,1.652,1.652,0,0,0-1.111-.376,1.729,1.729,0,0,0-1.08.3.947.947,0,0,0-.39.786.767.767,0,0,0,.362.69,4.458,4.458,0,0,0,1.309.444,6.821,6.821,0,0,1,1.535.506,2.239,2.239,0,0,1,.872.708,1.74,1.74,0,0,1,.284,1.008,1.893,1.893,0,0,1-.793,1.589,3.326,3.326,0,0,1-2.058.6,3.725,3.725,0,0,1-1.572-.314,2.557,2.557,0,0,1-1.07-.878,2.117,2.117,0,0,1-.386-1.22h1.265a1.309,1.309,0,0,0,.509,1.008A1.976,1.976,0,0,0,25.58-.9a2.039,2.039,0,0,0,1.152-.291A.893.893,0,0,0,27.166-1.962Zm-68.25,23.994h-6.262V21h6.262Zm6.316,0h-6.262V21h6.262Zm6.316,0h-6.262V21h6.262Zm6.316,0H-28.4V21h6.262Zm6.316,0H-22.08V21h6.262Zm6.316,0h-6.262V21H-9.5Zm6.316,0H-9.447V21h6.262Zm6.316,0H-3.131V21H3.131Zm6.316,0H3.186V21H9.447Zm6.316,0H9.5V21h6.262Zm6.316,0H15.818V21H22.08Zm6.316,0H22.135V21H28.4Zm6.316,0H28.451V21h6.262Zm6.316,0H34.768V21h6.262Zm6.316,0H41.084V21h6.262Zm-88.43,21h-6.262V42h6.262Zm6.316,0h-6.262V42h6.262Zm6.316,0h-6.262V42h6.262Zm6.316,0H-28.4V42h6.262Zm6.316,0H-22.08V42h6.262Zm6.316,0h-6.262V42H-9.5Zm6.316,0H-9.447V42h6.262Zm6.316,0H-3.131V42H3.131Zm6.316,0H3.186V42H9.447Zm6.316,0H9.5V42h6.262Zm6.316,0H15.818V42H22.08Zm6.316,0H22.135V42H28.4Zm6.316,0H28.451V42h6.262Zm6.316,0H34.768V42h6.262Zm6.316,0H41.084V42h6.262Zm-88.43,21h-6.262V63h6.262Zm6.316,0h-6.262V63h6.262Zm6.316,0h-6.262V63h6.262Zm6.316,0H-28.4V63h6.262Zm6.316,0H-22.08V63h6.262Zm6.316,0h-6.262V63H-9.5Zm6.316,0H-9.447V63h6.262Zm6.316,0H-3.131V63H3.131Zm6.316,0H3.186V63H9.447Zm6.316,0H9.5V63h6.262Zm6.316,0H15.818V63H22.08Zm6.316,0H22.135V63H28.4Zm6.316,0H28.451V63h6.262Zm6.316,0H34.768V63h6.262Zm6.316,0H41.084V63h6.262Z" transform="translate(500.811 6212.5)" fill="#12263f" stroke="rgba(0,0,0,0)" stroke-width="1"/><path d="M-24.315-4.026h-2.338V0h-1.319V-9.953h3.295a3.9,3.9,0,0,1,2.587.766,2.755,2.755,0,0,1,.906,2.229,2.68,2.68,0,0,1-.5,1.62,3,3,0,0,1-1.4,1.032l2.338,4.225V0h-1.408ZM-26.653-5.1h2.017a2.275,2.275,0,0,0,1.555-.507A1.714,1.714,0,0,0-22.5-6.962a1.8,1.8,0,0,0-.55-1.418,2.33,2.33,0,0,0-1.589-.5h-2.01ZM-16.475.137a3.232,3.232,0,0,1-2.447-.988,3.666,3.666,0,0,1-.943-2.642v-.232a4.438,4.438,0,0,1,.42-1.965,3.28,3.28,0,0,1,1.176-1.354,2.956,2.956,0,0,1,1.637-.489,2.77,2.77,0,0,1,2.242.95,4.114,4.114,0,0,1,.8,2.721v.526H-18.6a2.629,2.629,0,0,0,.639,1.767A2.009,2.009,0,0,0-16.406-.9a2.2,2.2,0,0,0,1.135-.273,2.851,2.851,0,0,0,.813-.725l.772.6A3.106,3.106,0,0,1-16.475.137Zm-.157-6.631a1.687,1.687,0,0,0-1.285.557,2.708,2.708,0,0,0-.643,1.562h3.705v-.1a2.409,2.409,0,0,0-.52-1.494A1.588,1.588,0,0,0-16.632-6.494ZM-9.16-.9a1.822,1.822,0,0,0,1.183-.41,1.443,1.443,0,0,0,.561-1.025h1.2a2.293,2.293,0,0,1-.437,1.21,2.881,2.881,0,0,1-1.077.916A3.107,3.107,0,0,1-9.16.137a3.047,3.047,0,0,1-2.4-1.008,4.016,4.016,0,0,1-.892-2.758v-.212a4.453,4.453,0,0,1,.4-1.921A3.02,3.02,0,0,1-10.92-7.068a3.233,3.233,0,0,1,1.753-.465A2.966,2.966,0,0,1-7.1-6.788a2.663,2.663,0,0,1,.878,1.935h-1.2A1.743,1.743,0,0,0-7.96-6.033a1.691,1.691,0,0,0-1.207-.461,1.77,1.77,0,0,0-1.494.694,3.259,3.259,0,0,0-.53,2.006v.239a3.194,3.194,0,0,0,.526,1.969A1.779,1.779,0,0,0-9.16-.9Zm8.928.164A2.686,2.686,0,0,1-2.4.137,2.3,2.3,0,0,1-4.2-.55a2.974,2.974,0,0,1-.625-2.034V-7.4h1.265v4.778q0,1.682,1.367,1.682A1.893,1.893,0,0,0-.267-2.017V-7.4H1V0h-1.2Zm6.727-5.53a3.79,3.79,0,0,0-.622-.048A1.667,1.667,0,0,0,4.184-5.25V0H2.919V-7.4h1.23l.021.854a1.969,1.969,0,0,1,1.764-.991,1.292,1.292,0,0,1,.561.1Zm5.469,4.3a.931.931,0,0,0-.386-.8,3.718,3.718,0,0,0-1.347-.489,6.367,6.367,0,0,1-1.524-.492,2.169,2.169,0,0,1-.834-.684,1.635,1.635,0,0,1-.27-.943A1.919,1.919,0,0,1,8.371-6.9a3,3,0,0,1,1.965-.629,3.091,3.091,0,0,1,2.041.649,2.063,2.063,0,0,1,.783,1.661H11.888a1.142,1.142,0,0,0-.441-.9,1.652,1.652,0,0,0-1.111-.376,1.729,1.729,0,0,0-1.08.3.947.947,0,0,0-.39.786.767.767,0,0,0,.362.69,4.458,4.458,0,0,0,1.309.444,6.821,6.821,0,0,1,1.535.506,2.239,2.239,0,0,1,.872.708,1.74,1.74,0,0,1,.284,1.008,1.893,1.893,0,0,1-.793,1.589,3.326,3.326,0,0,1-2.058.6A3.725,3.725,0,0,1,8.8-.178a2.557,2.557,0,0,1-1.07-.878,2.117,2.117,0,0,1-.386-1.22H8.613a1.309,1.309,0,0,0,.509,1.008A1.976,1.976,0,0,0,10.377-.9a2.039,2.039,0,0,0,1.152-.291A.893.893,0,0,0,11.963-1.962Zm2.577-1.8a4.369,4.369,0,0,1,.427-1.955,3.187,3.187,0,0,1,1.189-1.34,3.238,3.238,0,0,1,1.74-.472A3.119,3.119,0,0,1,20.34-6.487a4.024,4.024,0,0,1,.933,2.782v.089a4.407,4.407,0,0,1-.414,1.938A3.14,3.14,0,0,1,19.677-.342,3.275,3.275,0,0,1,17.91.137,3.111,3.111,0,0,1,15.473-.909a4,4,0,0,1-.933-2.769Zm1.271.15a3.164,3.164,0,0,0,.571,1.976A1.827,1.827,0,0,0,17.91-.9a1.816,1.816,0,0,0,1.531-.755,3.46,3.46,0,0,0,.567-2.116,3.159,3.159,0,0,0-.578-1.972A1.836,1.836,0,0,0,17.9-6.494a1.816,1.816,0,0,0-1.511.745A3.434,3.434,0,0,0,15.812-3.616ZM27.166-1.962a.931.931,0,0,0-.386-.8,3.718,3.718,0,0,0-1.347-.489,6.367,6.367,0,0,1-1.524-.492,2.169,2.169,0,0,1-.834-.684,1.635,1.635,0,0,1-.27-.943A1.919,1.919,0,0,1,23.574-6.9a3,3,0,0,1,1.965-.629,3.091,3.091,0,0,1,2.041.649,2.063,2.063,0,0,1,.783,1.661H27.091a1.142,1.142,0,0,0-.441-.9,1.652,1.652,0,0,0-1.111-.376,1.729,1.729,0,0,0-1.08.3.947.947,0,0,0-.39.786.767.767,0,0,0,.362.69,4.458,4.458,0,0,0,1.309.444,6.821,6.821,0,0,1,1.535.506,2.239,2.239,0,0,1,.872.708,1.74,1.74,0,0,1,.284,1.008,1.893,1.893,0,0,1-.793,1.589,3.326,3.326,0,0,1-2.058.6,3.725,3.725,0,0,1-1.572-.314,2.557,2.557,0,0,1-1.07-.878,2.117,2.117,0,0,1-.386-1.22h1.265a1.309,1.309,0,0,0,.509,1.008A1.976,1.976,0,0,0,25.58-.9a2.039,2.039,0,0,0,1.152-.291A.893.893,0,0,0,27.166-1.962Zm-68.25,23.994h-6.262V21h6.262Zm6.316,0h-6.262V21h6.262Zm6.316,0h-6.262V21h6.262Zm6.316,0H-28.4V21h6.262Zm6.316,0H-22.08V21h6.262Zm6.316,0h-6.262V21H-9.5Zm6.316,0H-9.447V21h6.262Zm6.316,0H-3.131V21H3.131Zm6.316,0H3.186V21H9.447Zm6.316,0H9.5V21h6.262Zm6.316,0H15.818V21H22.08Zm6.316,0H22.135V21H28.4Zm6.316,0H28.451V21h6.262Zm6.316,0H34.768V21h6.262Zm6.316,0H41.084V21h6.262Zm-88.43,21h-6.262V42h6.262Zm6.316,0h-6.262V42h6.262Zm6.316,0h-6.262V42h6.262Zm6.316,0H-28.4V42h6.262Zm6.316,0H-22.08V42h6.262Zm6.316,0h-6.262V42H-9.5Zm6.316,0H-9.447V42h6.262Zm6.316,0H-3.131V42H3.131Zm6.316,0H3.186V42H9.447Zm6.316,0H9.5V42h6.262Zm6.316,0H15.818V42H22.08Zm6.316,0H22.135V42H28.4Zm6.316,0H28.451V42h6.262Zm6.316,0H34.768V42h6.262Zm6.316,0H41.084V42h6.262Zm-88.43,21h-6.262V63h6.262Zm6.316,0h-6.262V63h6.262Zm6.316,0h-6.262V63h6.262Zm6.316,0H-28.4V63h6.262Zm6.316,0H-22.08V63h6.262Zm6.316,0h-6.262V63H-9.5Zm6.316,0H-9.447V63h6.262Zm6.316,0H-3.131V63H3.131Zm6.316,0H3.186V63H9.447Zm6.316,0H9.5V63h6.262Zm6.316,0H15.818V63H22.08Zm6.316,0H22.135V63H28.4Zm6.316,0H28.451V63h6.262Zm6.316,0H34.768V63h6.262Zm6.316,0H41.084V63h6.262Z" transform="translate(702.367 6212.5)" fill="#12263f" stroke="rgba(0,0,0,0)" stroke-width="1"/><path d="M-24.315-4.026h-2.338V0h-1.319V-9.953h3.295a3.9,3.9,0,0,1,2.587.766,2.755,2.755,0,0,1,.906,2.229,2.68,2.68,0,0,1-.5,1.62,3,3,0,0,1-1.4,1.032l2.338,4.225V0h-1.408ZM-26.653-5.1h2.017a2.275,2.275,0,0,0,1.555-.507A1.714,1.714,0,0,0-22.5-6.962a1.8,1.8,0,0,0-.55-1.418,2.33,2.33,0,0,0-1.589-.5h-2.01ZM-16.475.137a3.232,3.232,0,0,1-2.447-.988,3.666,3.666,0,0,1-.943-2.642v-.232a4.438,4.438,0,0,1,.42-1.965,3.28,3.28,0,0,1,1.176-1.354,2.956,2.956,0,0,1,1.637-.489,2.77,2.77,0,0,1,2.242.95,4.114,4.114,0,0,1,.8,2.721v.526H-18.6a2.629,2.629,0,0,0,.639,1.767A2.009,2.009,0,0,0-16.406-.9a2.2,2.2,0,0,0,1.135-.273,2.851,2.851,0,0,0,.813-.725l.772.6A3.106,3.106,0,0,1-16.475.137Zm-.157-6.631a1.687,1.687,0,0,0-1.285.557,2.708,2.708,0,0,0-.643,1.562h3.705v-.1a2.409,2.409,0,0,0-.52-1.494A1.588,1.588,0,0,0-16.632-6.494ZM-9.16-.9a1.822,1.822,0,0,0,1.183-.41,1.443,1.443,0,0,0,.561-1.025h1.2a2.293,2.293,0,0,1-.437,1.21,2.881,2.881,0,0,1-1.077.916A3.107,3.107,0,0,1-9.16.137a3.047,3.047,0,0,1-2.4-1.008,4.016,4.016,0,0,1-.892-2.758v-.212a4.453,4.453,0,0,1,.4-1.921A3.02,3.02,0,0,1-10.92-7.068a3.233,3.233,0,0,1,1.753-.465A2.966,2.966,0,0,1-7.1-6.788a2.663,2.663,0,0,1,.878,1.935h-1.2A1.743,1.743,0,0,0-7.96-6.033a1.691,1.691,0,0,0-1.207-.461,1.77,1.77,0,0,0-1.494.694,3.259,3.259,0,0,0-.53,2.006v.239a3.194,3.194,0,0,0,.526,1.969A1.779,1.779,0,0,0-9.16-.9Zm8.928.164A2.686,2.686,0,0,1-2.4.137,2.3,2.3,0,0,1-4.2-.55a2.974,2.974,0,0,1-.625-2.034V-7.4h1.265v4.778q0,1.682,1.367,1.682A1.893,1.893,0,0,0-.267-2.017V-7.4H1V0h-1.2Zm6.727-5.53a3.79,3.79,0,0,0-.622-.048A1.667,1.667,0,0,0,4.184-5.25V0H2.919V-7.4h1.23l.021.854a1.969,1.969,0,0,1,1.764-.991,1.292,1.292,0,0,1,.561.1Zm5.469,4.3a.931.931,0,0,0-.386-.8,3.718,3.718,0,0,0-1.347-.489,6.367,6.367,0,0,1-1.524-.492,2.169,2.169,0,0,1-.834-.684,1.635,1.635,0,0,1-.27-.943A1.919,1.919,0,0,1,8.371-6.9a3,3,0,0,1,1.965-.629,3.091,3.091,0,0,1,2.041.649,2.063,2.063,0,0,1,.783,1.661H11.888a1.142,1.142,0,0,0-.441-.9,1.652,1.652,0,0,0-1.111-.376,1.729,1.729,0,0,0-1.08.3.947.947,0,0,0-.39.786.767.767,0,0,0,.362.69,4.458,4.458,0,0,0,1.309.444,6.821,6.821,0,0,1,1.535.506,2.239,2.239,0,0,1,.872.708,1.74,1.74,0,0,1,.284,1.008,1.893,1.893,0,0,1-.793,1.589,3.326,3.326,0,0,1-2.058.6A3.725,3.725,0,0,1,8.8-.178a2.557,2.557,0,0,1-1.07-.878,2.117,2.117,0,0,1-.386-1.22H8.613a1.309,1.309,0,0,0,.509,1.008A1.976,1.976,0,0,0,10.377-.9a2.039,2.039,0,0,0,1.152-.291A.893.893,0,0,0,11.963-1.962Zm2.577-1.8a4.369,4.369,0,0,1,.427-1.955,3.187,3.187,0,0,1,1.189-1.34,3.238,3.238,0,0,1,1.74-.472A3.119,3.119,0,0,1,20.34-6.487a4.024,4.024,0,0,1,.933,2.782v.089a4.407,4.407,0,0,1-.414,1.938A3.14,3.14,0,0,1,19.677-.342,3.275,3.275,0,0,1,17.91.137,3.111,3.111,0,0,1,15.473-.909a4,4,0,0,1-.933-2.769Zm1.271.15a3.164,3.164,0,0,0,.571,1.976A1.827,1.827,0,0,0,17.91-.9a1.816,1.816,0,0,0,1.531-.755,3.46,3.46,0,0,0,.567-2.116,3.159,3.159,0,0,0-.578-1.972A1.836,1.836,0,0,0,17.9-6.494a1.816,1.816,0,0,0-1.511.745A3.434,3.434,0,0,0,15.812-3.616ZM27.166-1.962a.931.931,0,0,0-.386-.8,3.718,3.718,0,0,0-1.347-.489,6.367,6.367,0,0,1-1.524-.492,2.169,2.169,0,0,1-.834-.684,1.635,1.635,0,0,1-.27-.943A1.919,1.919,0,0,1,23.574-6.9a3,3,0,0,1,1.965-.629,3.091,3.091,0,0,1,2.041.649,2.063,2.063,0,0,1,.783,1.661H27.091a1.142,1.142,0,0,0-.441-.9,1.652,1.652,0,0,0-1.111-.376,1.729,1.729,0,0,0-1.08.3.947.947,0,0,0-.39.786.767.767,0,0,0,.362.69,4.458,4.458,0,0,0,1.309.444,6.821,6.821,0,0,1,1.535.506,2.239,2.239,0,0,1,.872.708,1.74,1.74,0,0,1,.284,1.008,1.893,1.893,0,0,1-.793,1.589,3.326,3.326,0,0,1-2.058.6,3.725,3.725,0,0,1-1.572-.314,2.557,2.557,0,0,1-1.07-.878,2.117,2.117,0,0,1-.386-1.22h1.265a1.309,1.309,0,0,0,.509,1.008A1.976,1.976,0,0,0,25.58-.9a2.039,2.039,0,0,0,1.152-.291A.893.893,0,0,0,27.166-1.962Zm-68.25,23.994h-6.262V21h6.262Zm6.316,0h-6.262V21h6.262Zm6.316,0h-6.262V21h6.262Zm6.316,0H-28.4V21h6.262Zm6.316,0H-22.08V21h6.262Zm6.316,0h-6.262V21H-9.5Zm6.316,0H-9.447V21h6.262Zm6.316,0H-3.131V21H3.131Zm6.316,0H3.186V21H9.447Zm6.316,0H9.5V21h6.262Zm6.316,0H15.818V21H22.08Zm6.316,0H22.135V21H28.4Zm6.316,0H28.451V21h6.262Zm6.316,0H34.768V21h6.262Zm6.316,0H41.084V21h6.262Zm-88.43,21h-6.262V42h6.262Zm6.316,0h-6.262V42h6.262Zm6.316,0h-6.262V42h6.262Zm6.316,0H-28.4V42h6.262Zm6.316,0H-22.08V42h6.262Zm6.316,0h-6.262V42H-9.5Zm6.316,0H-9.447V42h6.262Zm6.316,0H-3.131V42H3.131Zm6.316,0H3.186V42H9.447Zm6.316,0H9.5V42h6.262Zm6.316,0H15.818V42H22.08Zm6.316,0H22.135V42H28.4Zm6.316,0H28.451V42h6.262Zm6.316,0H34.768V42h6.262Zm6.316,0H41.084V42h6.262Zm-88.43,21h-6.262V63h6.262Zm6.316,0h-6.262V63h6.262Zm6.316,0h-6.262V63h6.262Zm6.316,0H-28.4V63h6.262Zm6.316,0H-22.08V63h6.262Zm6.316,0h-6.262V63H-9.5Zm6.316,0H-9.447V63h6.262Zm6.316,0H-3.131V63H3.131Zm6.316,0H3.186V63H9.447Zm6.316,0H9.5V63h6.262Zm6.316,0H15.818V63H22.08Zm6.316,0H22.135V63H28.4Zm6.316,0H28.451V63h6.262Zm6.316,0H34.768V63h6.262Zm6.316,0H41.084V63h6.262Z" transform="translate(902.968 6212.5)" fill="#12263f" stroke="rgba(0,0,0,0)" stroke-width="1"/><path d="M-24.315-4.026h-2.338V0h-1.319V-9.953h3.295a3.9,3.9,0,0,1,2.587.766,2.755,2.755,0,0,1,.906,2.229,2.68,2.68,0,0,1-.5,1.62,3,3,0,0,1-1.4,1.032l2.338,4.225V0h-1.408ZM-26.653-5.1h2.017a2.275,2.275,0,0,0,1.555-.507A1.714,1.714,0,0,0-22.5-6.962a1.8,1.8,0,0,0-.55-1.418,2.33,2.33,0,0,0-1.589-.5h-2.01ZM-16.475.137a3.232,3.232,0,0,1-2.447-.988,3.666,3.666,0,0,1-.943-2.642v-.232a4.438,4.438,0,0,1,.42-1.965,3.28,3.28,0,0,1,1.176-1.354,2.956,2.956,0,0,1,1.637-.489,2.77,2.77,0,0,1,2.242.95,4.114,4.114,0,0,1,.8,2.721v.526H-18.6a2.629,2.629,0,0,0,.639,1.767A2.009,2.009,0,0,0-16.406-.9a2.2,2.2,0,0,0,1.135-.273,2.851,2.851,0,0,0,.813-.725l.772.6A3.106,3.106,0,0,1-16.475.137Zm-.157-6.631a1.687,1.687,0,0,0-1.285.557,2.708,2.708,0,0,0-.643,1.562h3.705v-.1a2.409,2.409,0,0,0-.52-1.494A1.588,1.588,0,0,0-16.632-6.494ZM-9.16-.9a1.822,1.822,0,0,0,1.183-.41,1.443,1.443,0,0,0,.561-1.025h1.2a2.293,2.293,0,0,1-.437,1.21,2.881,2.881,0,0,1-1.077.916A3.107,3.107,0,0,1-9.16.137a3.047,3.047,0,0,1-2.4-1.008,4.016,4.016,0,0,1-.892-2.758v-.212a4.453,4.453,0,0,1,.4-1.921A3.02,3.02,0,0,1-10.92-7.068a3.233,3.233,0,0,1,1.753-.465A2.966,2.966,0,0,1-7.1-6.788a2.663,2.663,0,0,1,.878,1.935h-1.2A1.743,1.743,0,0,0-7.96-6.033a1.691,1.691,0,0,0-1.207-.461,1.77,1.77,0,0,0-1.494.694,3.259,3.259,0,0,0-.53,2.006v.239a3.194,3.194,0,0,0,.526,1.969A1.779,1.779,0,0,0-9.16-.9Zm8.928.164A2.686,2.686,0,0,1-2.4.137,2.3,2.3,0,0,1-4.2-.55a2.974,2.974,0,0,1-.625-2.034V-7.4h1.265v4.778q0,1.682,1.367,1.682A1.893,1.893,0,0,0-.267-2.017V-7.4H1V0h-1.2Zm6.727-5.53a3.79,3.79,0,0,0-.622-.048A1.667,1.667,0,0,0,4.184-5.25V0H2.919V-7.4h1.23l.021.854a1.969,1.969,0,0,1,1.764-.991,1.292,1.292,0,0,1,.561.1Zm5.469,4.3a.931.931,0,0,0-.386-.8,3.718,3.718,0,0,0-1.347-.489,6.367,6.367,0,0,1-1.524-.492,2.169,2.169,0,0,1-.834-.684,1.635,1.635,0,0,1-.27-.943A1.919,1.919,0,0,1,8.371-6.9a3,3,0,0,1,1.965-.629,3.091,3.091,0,0,1,2.041.649,2.063,2.063,0,0,1,.783,1.661H11.888a1.142,1.142,0,0,0-.441-.9,1.652,1.652,0,0,0-1.111-.376,1.729,1.729,0,0,0-1.08.3.947.947,0,0,0-.39.786.767.767,0,0,0,.362.69,4.458,4.458,0,0,0,1.309.444,6.821,6.821,0,0,1,1.535.506,2.239,2.239,0,0,1,.872.708,1.74,1.74,0,0,1,.284,1.008,1.893,1.893,0,0,1-.793,1.589,3.326,3.326,0,0,1-2.058.6A3.725,3.725,0,0,1,8.8-.178a2.557,2.557,0,0,1-1.07-.878,2.117,2.117,0,0,1-.386-1.22H8.613a1.309,1.309,0,0,0,.509,1.008A1.976,1.976,0,0,0,10.377-.9a2.039,2.039,0,0,0,1.152-.291A.893.893,0,0,0,11.963-1.962Zm2.577-1.8a4.369,4.369,0,0,1,.427-1.955,3.187,3.187,0,0,1,1.189-1.34,3.238,3.238,0,0,1,1.74-.472A3.119,3.119,0,0,1,20.34-6.487a4.024,4.024,0,0,1,.933,2.782v.089a4.407,4.407,0,0,1-.414,1.938A3.14,3.14,0,0,1,19.677-.342,3.275,3.275,0,0,1,17.91.137,3.111,3.111,0,0,1,15.473-.909a4,4,0,0,1-.933-2.769Zm1.271.15a3.164,3.164,0,0,0,.571,1.976A1.827,1.827,0,0,0,17.91-.9a1.816,1.816,0,0,0,1.531-.755,3.46,3.46,0,0,0,.567-2.116,3.159,3.159,0,0,0-.578-1.972A1.836,1.836,0,0,0,17.9-6.494a1.816,1.816,0,0,0-1.511.745A3.434,3.434,0,0,0,15.812-3.616ZM27.166-1.962a.931.931,0,0,0-.386-.8,3.718,3.718,0,0,0-1.347-.489,6.367,6.367,0,0,1-1.524-.492,2.169,2.169,0,0,1-.834-.684,1.635,1.635,0,0,1-.27-.943A1.919,1.919,0,0,1,23.574-6.9a3,3,0,0,1,1.965-.629,3.091,3.091,0,0,1,2.041.649,2.063,2.063,0,0,1,.783,1.661H27.091a1.142,1.142,0,0,0-.441-.9,1.652,1.652,0,0,0-1.111-.376,1.729,1.729,0,0,0-1.08.3.947.947,0,0,0-.39.786.767.767,0,0,0,.362.69,4.458,4.458,0,0,0,1.309.444,6.821,6.821,0,0,1,1.535.506,2.239,2.239,0,0,1,.872.708,1.74,1.74,0,0,1,.284,1.008,1.893,1.893,0,0,1-.793,1.589,3.326,3.326,0,0,1-2.058.6,3.725,3.725,0,0,1-1.572-.314,2.557,2.557,0,0,1-1.07-.878,2.117,2.117,0,0,1-.386-1.22h1.265a1.309,1.309,0,0,0,.509,1.008A1.976,1.976,0,0,0,25.58-.9a2.039,2.039,0,0,0,1.152-.291A.893.893,0,0,0,27.166-1.962Zm-68.25,23.994h-6.262V21h6.262Zm6.316,0h-6.262V21h6.262Zm6.316,0h-6.262V21h6.262Zm6.316,0H-28.4V21h6.262Zm6.316,0H-22.08V21h6.262Zm6.316,0h-6.262V21H-9.5Zm6.316,0H-9.447V21h6.262Zm6.316,0H-3.131V21H3.131Zm6.316,0H3.186V21H9.447Zm6.316,0H9.5V21h6.262Zm6.316,0H15.818V21H22.08Zm6.316,0H22.135V21H28.4Zm6.316,0H28.451V21h6.262Zm6.316,0H34.768V21h6.262Zm6.316,0H41.084V21h6.262Zm-88.43,21h-6.262V42h6.262Zm6.316,0h-6.262V42h6.262Zm6.316,0h-6.262V42h6.262Zm6.316,0H-28.4V42h6.262Zm6.316,0H-22.08V42h6.262Zm6.316,0h-6.262V42H-9.5Zm6.316,0H-9.447V42h6.262Zm6.316,0H-3.131V42H3.131Zm6.316,0H3.186V42H9.447Zm6.316,0H9.5V42h6.262Zm6.316,0H15.818V42H22.08Zm6.316,0H22.135V42H28.4Zm6.316,0H28.451V42h6.262Zm6.316,0H34.768V42h6.262Zm6.316,0H41.084V42h6.262Zm-88.43,21h-6.262V63h6.262Zm6.316,0h-6.262V63h6.262Zm6.316,0h-6.262V63h6.262Zm6.316,0H-28.4V63h6.262Zm6.316,0H-22.08V63h6.262Zm6.316,0h-6.262V63H-9.5Zm6.316,0H-9.447V63h6.262Zm6.316,0H-3.131V63H3.131Zm6.316,0H3.186V63H9.447Zm6.316,0H9.5V63h6.262Zm6.316,0H15.818V63H22.08Zm6.316,0H22.135V63H28.4Zm6.316,0H28.451V63h6.262Zm6.316,0H34.768V63h6.262Zm6.316,0H41.084V63h6.262Z" transform="translate(1105.479 6212.5)" fill="#12263f" stroke="rgba(0,0,0,0)" stroke-width="1"/><path d="M-24.315-4.026h-2.338V0h-1.319V-9.953h3.295a3.9,3.9,0,0,1,2.587.766,2.755,2.755,0,0,1,.906,2.229,2.68,2.68,0,0,1-.5,1.62,3,3,0,0,1-1.4,1.032l2.338,4.225V0h-1.408ZM-26.653-5.1h2.017a2.275,2.275,0,0,0,1.555-.507A1.714,1.714,0,0,0-22.5-6.962a1.8,1.8,0,0,0-.55-1.418,2.33,2.33,0,0,0-1.589-.5h-2.01ZM-16.475.137a3.232,3.232,0,0,1-2.447-.988,3.666,3.666,0,0,1-.943-2.642v-.232a4.438,4.438,0,0,1,.42-1.965,3.28,3.28,0,0,1,1.176-1.354,2.956,2.956,0,0,1,1.637-.489,2.77,2.77,0,0,1,2.242.95,4.114,4.114,0,0,1,.8,2.721v.526H-18.6a2.629,2.629,0,0,0,.639,1.767A2.009,2.009,0,0,0-16.406-.9a2.2,2.2,0,0,0,1.135-.273,2.851,2.851,0,0,0,.813-.725l.772.6A3.106,3.106,0,0,1-16.475.137Zm-.157-6.631a1.687,1.687,0,0,0-1.285.557,2.708,2.708,0,0,0-.643,1.562h3.705v-.1a2.409,2.409,0,0,0-.52-1.494A1.588,1.588,0,0,0-16.632-6.494ZM-9.16-.9a1.822,1.822,0,0,0,1.183-.41,1.443,1.443,0,0,0,.561-1.025h1.2a2.293,2.293,0,0,1-.437,1.21,2.881,2.881,0,0,1-1.077.916A3.107,3.107,0,0,1-9.16.137a3.047,3.047,0,0,1-2.4-1.008,4.016,4.016,0,0,1-.892-2.758v-.212a4.453,4.453,0,0,1,.4-1.921A3.02,3.02,0,0,1-10.92-7.068a3.233,3.233,0,0,1,1.753-.465A2.966,2.966,0,0,1-7.1-6.788a2.663,2.663,0,0,1,.878,1.935h-1.2A1.743,1.743,0,0,0-7.96-6.033a1.691,1.691,0,0,0-1.207-.461,1.77,1.77,0,0,0-1.494.694,3.259,3.259,0,0,0-.53,2.006v.239a3.194,3.194,0,0,0,.526,1.969A1.779,1.779,0,0,0-9.16-.9Zm8.928.164A2.686,2.686,0,0,1-2.4.137,2.3,2.3,0,0,1-4.2-.55a2.974,2.974,0,0,1-.625-2.034V-7.4h1.265v4.778q0,1.682,1.367,1.682A1.893,1.893,0,0,0-.267-2.017V-7.4H1V0h-1.2Zm6.727-5.53a3.79,3.79,0,0,0-.622-.048A1.667,1.667,0,0,0,4.184-5.25V0H2.919V-7.4h1.23l.021.854a1.969,1.969,0,0,1,1.764-.991,1.292,1.292,0,0,1,.561.1Zm5.469,4.3a.931.931,0,0,0-.386-.8,3.718,3.718,0,0,0-1.347-.489,6.367,6.367,0,0,1-1.524-.492,2.169,2.169,0,0,1-.834-.684,1.635,1.635,0,0,1-.27-.943A1.919,1.919,0,0,1,8.371-6.9a3,3,0,0,1,1.965-.629,3.091,3.091,0,0,1,2.041.649,2.063,2.063,0,0,1,.783,1.661H11.888a1.142,1.142,0,0,0-.441-.9,1.652,1.652,0,0,0-1.111-.376,1.729,1.729,0,0,0-1.08.3.947.947,0,0,0-.39.786.767.767,0,0,0,.362.69,4.458,4.458,0,0,0,1.309.444,6.821,6.821,0,0,1,1.535.506,2.239,2.239,0,0,1,.872.708,1.74,1.74,0,0,1,.284,1.008,1.893,1.893,0,0,1-.793,1.589,3.326,3.326,0,0,1-2.058.6A3.725,3.725,0,0,1,8.8-.178a2.557,2.557,0,0,1-1.07-.878,2.117,2.117,0,0,1-.386-1.22H8.613a1.309,1.309,0,0,0,.509,1.008A1.976,1.976,0,0,0,10.377-.9a2.039,2.039,0,0,0,1.152-.291A.893.893,0,0,0,11.963-1.962Zm2.577-1.8a4.369,4.369,0,0,1,.427-1.955,3.187,3.187,0,0,1,1.189-1.34,3.238,3.238,0,0,1,1.74-.472A3.119,3.119,0,0,1,20.34-6.487a4.024,4.024,0,0,1,.933,2.782v.089a4.407,4.407,0,0,1-.414,1.938A3.14,3.14,0,0,1,19.677-.342,3.275,3.275,0,0,1,17.91.137,3.111,3.111,0,0,1,15.473-.909a4,4,0,0,1-.933-2.769Zm1.271.15a3.164,3.164,0,0,0,.571,1.976A1.827,1.827,0,0,0,17.91-.9a1.816,1.816,0,0,0,1.531-.755,3.46,3.46,0,0,0,.567-2.116,3.159,3.159,0,0,0-.578-1.972A1.836,1.836,0,0,0,17.9-6.494a1.816,1.816,0,0,0-1.511.745A3.434,3.434,0,0,0,15.812-3.616ZM27.166-1.962a.931.931,0,0,0-.386-.8,3.718,3.718,0,0,0-1.347-.489,6.367,6.367,0,0,1-1.524-.492,2.169,2.169,0,0,1-.834-.684,1.635,1.635,0,0,1-.27-.943A1.919,1.919,0,0,1,23.574-6.9a3,3,0,0,1,1.965-.629,3.091,3.091,0,0,1,2.041.649,2.063,2.063,0,0,1,.783,1.661H27.091a1.142,1.142,0,0,0-.441-.9,1.652,1.652,0,0,0-1.111-.376,1.729,1.729,0,0,0-1.08.3.947.947,0,0,0-.39.786.767.767,0,0,0,.362.69,4.458,4.458,0,0,0,1.309.444,6.821,6.821,0,0,1,1.535.506,2.239,2.239,0,0,1,.872.708,1.74,1.74,0,0,1,.284,1.008,1.893,1.893,0,0,1-.793,1.589,3.326,3.326,0,0,1-2.058.6,3.725,3.725,0,0,1-1.572-.314,2.557,2.557,0,0,1-1.07-.878,2.117,2.117,0,0,1-.386-1.22h1.265a1.309,1.309,0,0,0,.509,1.008A1.976,1.976,0,0,0,25.58-.9a2.039,2.039,0,0,0,1.152-.291A.893.893,0,0,0,27.166-1.962Zm-68.25,23.994h-6.262V21h6.262Zm6.316,0h-6.262V21h6.262Zm6.316,0h-6.262V21h6.262Zm6.316,0H-28.4V21h6.262Zm6.316,0H-22.08V21h6.262Zm6.316,0h-6.262V21H-9.5Zm6.316,0H-9.447V21h6.262Zm6.316,0H-3.131V21H3.131Zm6.316,0H3.186V21H9.447Zm6.316,0H9.5V21h6.262Zm6.316,0H15.818V21H22.08Zm6.316,0H22.135V21H28.4Zm6.316,0H28.451V21h6.262Zm6.316,0H34.768V21h6.262Zm6.316,0H41.084V21h6.262Zm-88.43,21h-6.262V42h6.262Zm6.316,0h-6.262V42h6.262Zm6.316,0h-6.262V42h6.262Zm6.316,0H-28.4V42h6.262Zm6.316,0H-22.08V42h6.262Zm6.316,0h-6.262V42H-9.5Zm6.316,0H-9.447V42h6.262Zm6.316,0H-3.131V42H3.131Zm6.316,0H3.186V42H9.447Zm6.316,0H9.5V42h6.262Zm6.316,0H15.818V42H22.08Zm6.316,0H22.135V42H28.4Zm6.316,0H28.451V42h6.262Zm6.316,0H34.768V42h6.262Zm6.316,0H41.084V42h6.262Zm-88.43,21h-6.262V63h6.262Zm6.316,0h-6.262V63h6.262Zm6.316,0h-6.262V63h6.262Zm6.316,0H-28.4V63h6.262Zm6.316,0H-22.08V63h6.262Zm6.316,0h-6.262V63H-9.5Zm6.316,0H-9.447V63h6.262Zm6.316,0H-3.131V63H3.131Zm6.316,0H3.186V63H9.447Zm6.316,0H9.5V63h6.262Zm6.316,0H15.818V63H22.08Zm6.316,0H22.135V63H28.4Zm6.316,0H28.451V63h6.262Zm6.316,0H34.768V63h6.262Zm6.316,0H41.084V63h6.262Z" transform="translate(1306.166 6212.5)" fill="#12263f" stroke="rgba(0,0,0,0)" stroke-width="1"/><path d="M-23.929-4.026h-2.338V0h-1.319V-9.953h3.295a3.9,3.9,0,0,1,2.587.766A2.755,2.755,0,0,1-20.8-6.959a2.68,2.68,0,0,1-.5,1.62,3,3,0,0,1-1.4,1.032l2.338,4.225V0h-1.408ZM-26.267-5.1h2.017A2.275,2.275,0,0,0-22.7-5.606a1.714,1.714,0,0,0,.578-1.356,1.8,1.8,0,0,0-.55-1.418,2.33,2.33,0,0,0-1.589-.5h-2.01ZM-16.088.137a3.232,3.232,0,0,1-2.447-.988,3.666,3.666,0,0,1-.943-2.642v-.232a4.438,4.438,0,0,1,.42-1.965,3.28,3.28,0,0,1,1.176-1.354,2.956,2.956,0,0,1,1.637-.489A2.77,2.77,0,0,1-14-6.583a4.114,4.114,0,0,1,.8,2.721v.526h-5.011a2.629,2.629,0,0,0,.639,1.767A2.009,2.009,0,0,0-16.02-.9a2.2,2.2,0,0,0,1.135-.273,2.851,2.851,0,0,0,.813-.725l.772.6A3.106,3.106,0,0,1-16.088.137Zm-.157-6.631a1.687,1.687,0,0,0-1.285.557,2.708,2.708,0,0,0-.643,1.562h3.705v-.1a2.409,2.409,0,0,0-.52-1.494A1.588,1.588,0,0,0-16.246-6.494Zm8.812,4.532a.931.931,0,0,0-.386-.8,3.718,3.718,0,0,0-1.347-.489,6.367,6.367,0,0,1-1.524-.492,2.169,2.169,0,0,1-.834-.684,1.635,1.635,0,0,1-.27-.943A1.919,1.919,0,0,1-11.026-6.9a3,3,0,0,1,1.965-.629,3.091,3.091,0,0,1,2.041.649,2.063,2.063,0,0,1,.783,1.661H-7.509a1.142,1.142,0,0,0-.441-.9,1.652,1.652,0,0,0-1.111-.376,1.729,1.729,0,0,0-1.08.3.947.947,0,0,0-.39.786.767.767,0,0,0,.362.69,4.458,4.458,0,0,0,1.309.444,6.821,6.821,0,0,1,1.535.506,2.239,2.239,0,0,1,.872.708,1.74,1.74,0,0,1,.284,1.008A1.893,1.893,0,0,1-6.962-.461a3.326,3.326,0,0,1-2.058.6,3.725,3.725,0,0,1-1.572-.314,2.557,2.557,0,0,1-1.07-.878,2.117,2.117,0,0,1-.386-1.22h1.265a1.309,1.309,0,0,0,.509,1.008A1.976,1.976,0,0,0-9.02-.9a2.039,2.039,0,0,0,1.152-.291A.893.893,0,0,0-7.434-1.962ZM-3.148,0H-4.413V-7.4h1.265ZM-4.515-9.358a.755.755,0,0,1,.188-.52.706.706,0,0,1,.557-.212.717.717,0,0,1,.561.212.747.747,0,0,1,.191.52.722.722,0,0,1-.191.513.73.73,0,0,1-.561.205.718.718,0,0,1-.557-.205A.73.73,0,0,1-4.515-9.358Zm3.083,5.6A4.333,4.333,0,0,1-.625-6.5,2.551,2.551,0,0,1,1.487-7.533a2.565,2.565,0,0,1,2.058.889V-10.5H4.809V0H3.647L3.585-.793a2.575,2.575,0,0,1-2.112.93A2.526,2.526,0,0,1-.622-.916a4.382,4.382,0,0,1-.81-2.748Zm1.265.144a3.281,3.281,0,0,0,.52,1.969,1.68,1.68,0,0,0,1.436.711,1.845,1.845,0,0,0,1.757-1.08v-3.4A1.859,1.859,0,0,0,1.8-6.46a1.687,1.687,0,0,0-1.449.718A3.612,3.612,0,0,0-.167-3.616Zm11.5,2.885A2.686,2.686,0,0,1,9.17.137a2.3,2.3,0,0,1-1.8-.687,2.974,2.974,0,0,1-.625-2.034V-7.4H8.008v4.778q0,1.682,1.367,1.682A1.893,1.893,0,0,0,11.3-2.017V-7.4h1.265V0h-1.2Zm2.816-3.035a4.369,4.369,0,0,1,.427-1.955,3.187,3.187,0,0,1,1.189-1.34,3.238,3.238,0,0,1,1.74-.472,3.119,3.119,0,0,1,2.444,1.046,4.024,4.024,0,0,1,.933,2.782v.089a4.407,4.407,0,0,1-.414,1.938A3.14,3.14,0,0,1,19.291-.342a3.275,3.275,0,0,1-1.767.479A3.111,3.111,0,0,1,15.087-.909a4,4,0,0,1-.933-2.769Zm1.271.15A3.164,3.164,0,0,0,16-1.641,1.827,1.827,0,0,0,17.524-.9a1.816,1.816,0,0,0,1.531-.755,3.46,3.46,0,0,0,.567-2.116,3.159,3.159,0,0,0-.578-1.972,1.836,1.836,0,0,0-1.535-.755A1.816,1.816,0,0,0,16-5.749,3.434,3.434,0,0,0,15.425-3.616ZM26.78-1.962a.931.931,0,0,0-.386-.8,3.718,3.718,0,0,0-1.347-.489,6.367,6.367,0,0,1-1.524-.492,2.169,2.169,0,0,1-.834-.684,1.635,1.635,0,0,1-.27-.943A1.919,1.919,0,0,1,23.188-6.9a3,3,0,0,1,1.965-.629,3.091,3.091,0,0,1,2.041.649,2.063,2.063,0,0,1,.783,1.661H26.7a1.142,1.142,0,0,0-.441-.9,1.652,1.652,0,0,0-1.111-.376,1.729,1.729,0,0,0-1.08.3.947.947,0,0,0-.39.786.767.767,0,0,0,.362.69,4.458,4.458,0,0,0,1.309.444,6.821,6.821,0,0,1,1.535.506,2.239,2.239,0,0,1,.872.708,1.74,1.74,0,0,1,.284,1.008,1.893,1.893,0,0,1-.793,1.589,3.326,3.326,0,0,1-2.058.6,3.725,3.725,0,0,1-1.572-.314,2.557,2.557,0,0,1-1.07-.878,2.117,2.117,0,0,1-.386-1.22H23.43a1.309,1.309,0,0,0,.509,1.008A1.976,1.976,0,0,0,25.194-.9a2.039,2.039,0,0,0,1.152-.291A.893.893,0,0,0,26.78-1.962ZM-41.084,22.032h-6.262V21h6.262Zm6.316,0h-6.262V21h6.262Zm6.316,0h-6.262V21h6.262Zm6.316,0H-28.4V21h6.262Zm6.316,0H-22.08V21h6.262Zm6.316,0h-6.262V21H-9.5Zm6.316,0H-9.447V21h6.262Zm6.316,0H-3.131V21H3.131Zm6.316,0H3.186V21H9.447Zm6.316,0H9.5V21h6.262Zm6.316,0H15.818V21H22.08Zm6.316,0H22.135V21H28.4Zm6.316,0H28.451V21h6.262Zm6.316,0H34.768V21h6.262Zm6.316,0H41.084V21h6.262Zm-88.43,21h-6.262V42h6.262Zm6.316,0h-6.262V42h6.262Zm6.316,0h-6.262V42h6.262Zm6.316,0H-28.4V42h6.262Zm6.316,0H-22.08V42h6.262Zm6.316,0h-6.262V42H-9.5Zm6.316,0H-9.447V42h6.262Zm6.316,0H-3.131V42H3.131Zm6.316,0H3.186V42H9.447Zm6.316,0H9.5V42h6.262Zm6.316,0H15.818V42H22.08Zm6.316,0H22.135V42H28.4Zm6.316,0H28.451V42h6.262Zm6.316,0H34.768V42h6.262Zm6.316,0H41.084V42h6.262Zm-88.43,21h-6.262V63h6.262Zm6.316,0h-6.262V63h6.262Zm6.316,0h-6.262V63h6.262Zm6.316,0H-28.4V63h6.262Zm6.316,0H-22.08V63h6.262Zm6.316,0h-6.262V63H-9.5Zm6.316,0H-9.447V63h6.262Zm6.316,0H-3.131V63H3.131Zm6.316,0H3.186V63H9.447Zm6.316,0H9.5V63h6.262Zm6.316,0H15.818V63H22.08Zm6.316,0H22.135V63H28.4Zm6.316,0H28.451V63h6.262Zm6.316,0H34.768V63h6.262Zm6.316,0H41.084V63h6.262Z" transform="translate(301.165 6497.163)" fill="#12263f" stroke="rgba(0,0,0,0)" stroke-width="1"/><path d="M-23.929-4.026h-2.338V0h-1.319V-9.953h3.295a3.9,3.9,0,0,1,2.587.766A2.755,2.755,0,0,1-20.8-6.959a2.68,2.68,0,0,1-.5,1.62,3,3,0,0,1-1.4,1.032l2.338,4.225V0h-1.408ZM-26.267-5.1h2.017A2.275,2.275,0,0,0-22.7-5.606a1.714,1.714,0,0,0,.578-1.356,1.8,1.8,0,0,0-.55-1.418,2.33,2.33,0,0,0-1.589-.5h-2.01ZM-16.088.137a3.232,3.232,0,0,1-2.447-.988,3.666,3.666,0,0,1-.943-2.642v-.232a4.438,4.438,0,0,1,.42-1.965,3.28,3.28,0,0,1,1.176-1.354,2.956,2.956,0,0,1,1.637-.489A2.77,2.77,0,0,1-14-6.583a4.114,4.114,0,0,1,.8,2.721v.526h-5.011a2.629,2.629,0,0,0,.639,1.767A2.009,2.009,0,0,0-16.02-.9a2.2,2.2,0,0,0,1.135-.273,2.851,2.851,0,0,0,.813-.725l.772.6A3.106,3.106,0,0,1-16.088.137Zm-.157-6.631a1.687,1.687,0,0,0-1.285.557,2.708,2.708,0,0,0-.643,1.562h3.705v-.1a2.409,2.409,0,0,0-.52-1.494A1.588,1.588,0,0,0-16.246-6.494Zm8.812,4.532a.931.931,0,0,0-.386-.8,3.718,3.718,0,0,0-1.347-.489,6.367,6.367,0,0,1-1.524-.492,2.169,2.169,0,0,1-.834-.684,1.635,1.635,0,0,1-.27-.943A1.919,1.919,0,0,1-11.026-6.9a3,3,0,0,1,1.965-.629,3.091,3.091,0,0,1,2.041.649,2.063,2.063,0,0,1,.783,1.661H-7.509a1.142,1.142,0,0,0-.441-.9,1.652,1.652,0,0,0-1.111-.376,1.729,1.729,0,0,0-1.08.3.947.947,0,0,0-.39.786.767.767,0,0,0,.362.69,4.458,4.458,0,0,0,1.309.444,6.821,6.821,0,0,1,1.535.506,2.239,2.239,0,0,1,.872.708,1.74,1.74,0,0,1,.284,1.008A1.893,1.893,0,0,1-6.962-.461a3.326,3.326,0,0,1-2.058.6,3.725,3.725,0,0,1-1.572-.314,2.557,2.557,0,0,1-1.07-.878,2.117,2.117,0,0,1-.386-1.22h1.265a1.309,1.309,0,0,0,.509,1.008A1.976,1.976,0,0,0-9.02-.9a2.039,2.039,0,0,0,1.152-.291A.893.893,0,0,0-7.434-1.962ZM-3.148,0H-4.413V-7.4h1.265ZM-4.515-9.358a.755.755,0,0,1,.188-.52.706.706,0,0,1,.557-.212.717.717,0,0,1,.561.212.747.747,0,0,1,.191.52.722.722,0,0,1-.191.513.73.73,0,0,1-.561.205.718.718,0,0,1-.557-.205A.73.73,0,0,1-4.515-9.358Zm3.083,5.6A4.333,4.333,0,0,1-.625-6.5,2.551,2.551,0,0,1,1.487-7.533a2.565,2.565,0,0,1,2.058.889V-10.5H4.809V0H3.647L3.585-.793a2.575,2.575,0,0,1-2.112.93A2.526,2.526,0,0,1-.622-.916a4.382,4.382,0,0,1-.81-2.748Zm1.265.144a3.281,3.281,0,0,0,.52,1.969,1.68,1.68,0,0,0,1.436.711,1.845,1.845,0,0,0,1.757-1.08v-3.4A1.859,1.859,0,0,0,1.8-6.46a1.687,1.687,0,0,0-1.449.718A3.612,3.612,0,0,0-.167-3.616Zm11.5,2.885A2.686,2.686,0,0,1,9.17.137a2.3,2.3,0,0,1-1.8-.687,2.974,2.974,0,0,1-.625-2.034V-7.4H8.008v4.778q0,1.682,1.367,1.682A1.893,1.893,0,0,0,11.3-2.017V-7.4h1.265V0h-1.2Zm2.816-3.035a4.369,4.369,0,0,1,.427-1.955,3.187,3.187,0,0,1,1.189-1.34,3.238,3.238,0,0,1,1.74-.472,3.119,3.119,0,0,1,2.444,1.046,4.024,4.024,0,0,1,.933,2.782v.089a4.407,4.407,0,0,1-.414,1.938A3.14,3.14,0,0,1,19.291-.342a3.275,3.275,0,0,1-1.767.479A3.111,3.111,0,0,1,15.087-.909a4,4,0,0,1-.933-2.769Zm1.271.15A3.164,3.164,0,0,0,16-1.641,1.827,1.827,0,0,0,17.524-.9a1.816,1.816,0,0,0,1.531-.755,3.46,3.46,0,0,0,.567-2.116,3.159,3.159,0,0,0-.578-1.972,1.836,1.836,0,0,0-1.535-.755A1.816,1.816,0,0,0,16-5.749,3.434,3.434,0,0,0,15.425-3.616ZM26.78-1.962a.931.931,0,0,0-.386-.8,3.718,3.718,0,0,0-1.347-.489,6.367,6.367,0,0,1-1.524-.492,2.169,2.169,0,0,1-.834-.684,1.635,1.635,0,0,1-.27-.943A1.919,1.919,0,0,1,23.188-6.9a3,3,0,0,1,1.965-.629,3.091,3.091,0,0,1,2.041.649,2.063,2.063,0,0,1,.783,1.661H26.7a1.142,1.142,0,0,0-.441-.9,1.652,1.652,0,0,0-1.111-.376,1.729,1.729,0,0,0-1.08.3.947.947,0,0,0-.39.786.767.767,0,0,0,.362.69,4.458,4.458,0,0,0,1.309.444,6.821,6.821,0,0,1,1.535.506,2.239,2.239,0,0,1,.872.708,1.74,1.74,0,0,1,.284,1.008,1.893,1.893,0,0,1-.793,1.589,3.326,3.326,0,0,1-2.058.6,3.725,3.725,0,0,1-1.572-.314,2.557,2.557,0,0,1-1.07-.878,2.117,2.117,0,0,1-.386-1.22H23.43a1.309,1.309,0,0,0,.509,1.008A1.976,1.976,0,0,0,25.194-.9a2.039,2.039,0,0,0,1.152-.291A.893.893,0,0,0,26.78-1.962ZM-41.084,22.032h-6.262V21h6.262Zm6.316,0h-6.262V21h6.262Zm6.316,0h-6.262V21h6.262Zm6.316,0H-28.4V21h6.262Zm6.316,0H-22.08V21h6.262Zm6.316,0h-6.262V21H-9.5Zm6.316,0H-9.447V21h6.262Zm6.316,0H-3.131V21H3.131Zm6.316,0H3.186V21H9.447Zm6.316,0H9.5V21h6.262Zm6.316,0H15.818V21H22.08Zm6.316,0H22.135V21H28.4Zm6.316,0H28.451V21h6.262Zm6.316,0H34.768V21h6.262Zm6.316,0H41.084V21h6.262Zm-88.43,21h-6.262V42h6.262Zm6.316,0h-6.262V42h6.262Zm6.316,0h-6.262V42h6.262Zm6.316,0H-28.4V42h6.262Zm6.316,0H-22.08V42h6.262Zm6.316,0h-6.262V42H-9.5Zm6.316,0H-9.447V42h6.262Zm6.316,0H-3.131V42H3.131Zm6.316,0H3.186V42H9.447Zm6.316,0H9.5V42h6.262Zm6.316,0H15.818V42H22.08Zm6.316,0H22.135V42H28.4Zm6.316,0H28.451V42h6.262Zm6.316,0H34.768V42h6.262Zm6.316,0H41.084V42h6.262Zm-88.43,21h-6.262V63h6.262Zm6.316,0h-6.262V63h6.262Zm6.316,0h-6.262V63h6.262Zm6.316,0H-28.4V63h6.262Zm6.316,0H-22.08V63h6.262Zm6.316,0h-6.262V63H-9.5Zm6.316,0H-9.447V63h6.262Zm6.316,0H-3.131V63H3.131Zm6.316,0H3.186V63H9.447Zm6.316,0H9.5V63h6.262Zm6.316,0H15.818V63H22.08Zm6.316,0H22.135V63H28.4Zm6.316,0H28.451V63h6.262Zm6.316,0H34.768V63h6.262Zm6.316,0H41.084V63h6.262Z" transform="translate(502.721 6497.163)" fill="#12263f" stroke="rgba(0,0,0,0)" stroke-width="1"/><path d="M-23.929-4.026h-2.338V0h-1.319V-9.953h3.295a3.9,3.9,0,0,1,2.587.766A2.755,2.755,0,0,1-20.8-6.959a2.68,2.68,0,0,1-.5,1.62,3,3,0,0,1-1.4,1.032l2.338,4.225V0h-1.408ZM-26.267-5.1h2.017A2.275,2.275,0,0,0-22.7-5.606a1.714,1.714,0,0,0,.578-1.356,1.8,1.8,0,0,0-.55-1.418,2.33,2.33,0,0,0-1.589-.5h-2.01ZM-16.088.137a3.232,3.232,0,0,1-2.447-.988,3.666,3.666,0,0,1-.943-2.642v-.232a4.438,4.438,0,0,1,.42-1.965,3.28,3.28,0,0,1,1.176-1.354,2.956,2.956,0,0,1,1.637-.489A2.77,2.77,0,0,1-14-6.583a4.114,4.114,0,0,1,.8,2.721v.526h-5.011a2.629,2.629,0,0,0,.639,1.767A2.009,2.009,0,0,0-16.02-.9a2.2,2.2,0,0,0,1.135-.273,2.851,2.851,0,0,0,.813-.725l.772.6A3.106,3.106,0,0,1-16.088.137Zm-.157-6.631a1.687,1.687,0,0,0-1.285.557,2.708,2.708,0,0,0-.643,1.562h3.705v-.1a2.409,2.409,0,0,0-.52-1.494A1.588,1.588,0,0,0-16.246-6.494Zm8.812,4.532a.931.931,0,0,0-.386-.8,3.718,3.718,0,0,0-1.347-.489,6.367,6.367,0,0,1-1.524-.492,2.169,2.169,0,0,1-.834-.684,1.635,1.635,0,0,1-.27-.943A1.919,1.919,0,0,1-11.026-6.9a3,3,0,0,1,1.965-.629,3.091,3.091,0,0,1,2.041.649,2.063,2.063,0,0,1,.783,1.661H-7.509a1.142,1.142,0,0,0-.441-.9,1.652,1.652,0,0,0-1.111-.376,1.729,1.729,0,0,0-1.08.3.947.947,0,0,0-.39.786.767.767,0,0,0,.362.69,4.458,4.458,0,0,0,1.309.444,6.821,6.821,0,0,1,1.535.506,2.239,2.239,0,0,1,.872.708,1.74,1.74,0,0,1,.284,1.008A1.893,1.893,0,0,1-6.962-.461a3.326,3.326,0,0,1-2.058.6,3.725,3.725,0,0,1-1.572-.314,2.557,2.557,0,0,1-1.07-.878,2.117,2.117,0,0,1-.386-1.22h1.265a1.309,1.309,0,0,0,.509,1.008A1.976,1.976,0,0,0-9.02-.9a2.039,2.039,0,0,0,1.152-.291A.893.893,0,0,0-7.434-1.962ZM-3.148,0H-4.413V-7.4h1.265ZM-4.515-9.358a.755.755,0,0,1,.188-.52.706.706,0,0,1,.557-.212.717.717,0,0,1,.561.212.747.747,0,0,1,.191.52.722.722,0,0,1-.191.513.73.73,0,0,1-.561.205.718.718,0,0,1-.557-.205A.73.73,0,0,1-4.515-9.358Zm3.083,5.6A4.333,4.333,0,0,1-.625-6.5,2.551,2.551,0,0,1,1.487-7.533a2.565,2.565,0,0,1,2.058.889V-10.5H4.809V0H3.647L3.585-.793a2.575,2.575,0,0,1-2.112.93A2.526,2.526,0,0,1-.622-.916a4.382,4.382,0,0,1-.81-2.748Zm1.265.144a3.281,3.281,0,0,0,.52,1.969,1.68,1.68,0,0,0,1.436.711,1.845,1.845,0,0,0,1.757-1.08v-3.4A1.859,1.859,0,0,0,1.8-6.46a1.687,1.687,0,0,0-1.449.718A3.612,3.612,0,0,0-.167-3.616Zm11.5,2.885A2.686,2.686,0,0,1,9.17.137a2.3,2.3,0,0,1-1.8-.687,2.974,2.974,0,0,1-.625-2.034V-7.4H8.008v4.778q0,1.682,1.367,1.682A1.893,1.893,0,0,0,11.3-2.017V-7.4h1.265V0h-1.2Zm2.816-3.035a4.369,4.369,0,0,1,.427-1.955,3.187,3.187,0,0,1,1.189-1.34,3.238,3.238,0,0,1,1.74-.472,3.119,3.119,0,0,1,2.444,1.046,4.024,4.024,0,0,1,.933,2.782v.089a4.407,4.407,0,0,1-.414,1.938A3.14,3.14,0,0,1,19.291-.342a3.275,3.275,0,0,1-1.767.479A3.111,3.111,0,0,1,15.087-.909a4,4,0,0,1-.933-2.769Zm1.271.15A3.164,3.164,0,0,0,16-1.641,1.827,1.827,0,0,0,17.524-.9a1.816,1.816,0,0,0,1.531-.755,3.46,3.46,0,0,0,.567-2.116,3.159,3.159,0,0,0-.578-1.972,1.836,1.836,0,0,0-1.535-.755A1.816,1.816,0,0,0,16-5.749,3.434,3.434,0,0,0,15.425-3.616ZM26.78-1.962a.931.931,0,0,0-.386-.8,3.718,3.718,0,0,0-1.347-.489,6.367,6.367,0,0,1-1.524-.492,2.169,2.169,0,0,1-.834-.684,1.635,1.635,0,0,1-.27-.943A1.919,1.919,0,0,1,23.188-6.9a3,3,0,0,1,1.965-.629,3.091,3.091,0,0,1,2.041.649,2.063,2.063,0,0,1,.783,1.661H26.7a1.142,1.142,0,0,0-.441-.9,1.652,1.652,0,0,0-1.111-.376,1.729,1.729,0,0,0-1.08.3.947.947,0,0,0-.39.786.767.767,0,0,0,.362.69,4.458,4.458,0,0,0,1.309.444,6.821,6.821,0,0,1,1.535.506,2.239,2.239,0,0,1,.872.708,1.74,1.74,0,0,1,.284,1.008,1.893,1.893,0,0,1-.793,1.589,3.326,3.326,0,0,1-2.058.6,3.725,3.725,0,0,1-1.572-.314,2.557,2.557,0,0,1-1.07-.878,2.117,2.117,0,0,1-.386-1.22H23.43a1.309,1.309,0,0,0,.509,1.008A1.976,1.976,0,0,0,25.194-.9a2.039,2.039,0,0,0,1.152-.291A.893.893,0,0,0,26.78-1.962ZM-41.084,22.032h-6.262V21h6.262Zm6.316,0h-6.262V21h6.262Zm6.316,0h-6.262V21h6.262Zm6.316,0H-28.4V21h6.262Zm6.316,0H-22.08V21h6.262Zm6.316,0h-6.262V21H-9.5Zm6.316,0H-9.447V21h6.262Zm6.316,0H-3.131V21H3.131Zm6.316,0H3.186V21H9.447Zm6.316,0H9.5V21h6.262Zm6.316,0H15.818V21H22.08Zm6.316,0H22.135V21H28.4Zm6.316,0H28.451V21h6.262Zm6.316,0H34.768V21h6.262Zm6.316,0H41.084V21h6.262Zm-88.43,21h-6.262V42h6.262Zm6.316,0h-6.262V42h6.262Zm6.316,0h-6.262V42h6.262Zm6.316,0H-28.4V42h6.262Zm6.316,0H-22.08V42h6.262Zm6.316,0h-6.262V42H-9.5Zm6.316,0H-9.447V42h6.262Zm6.316,0H-3.131V42H3.131Zm6.316,0H3.186V42H9.447Zm6.316,0H9.5V42h6.262Zm6.316,0H15.818V42H22.08Zm6.316,0H22.135V42H28.4Zm6.316,0H28.451V42h6.262Zm6.316,0H34.768V42h6.262Zm6.316,0H41.084V42h6.262Zm-88.43,21h-6.262V63h6.262Zm6.316,0h-6.262V63h6.262Zm6.316,0h-6.262V63h6.262Zm6.316,0H-28.4V63h6.262Zm6.316,0H-22.08V63h6.262Zm6.316,0h-6.262V63H-9.5Zm6.316,0H-9.447V63h6.262Zm6.316,0H-3.131V63H3.131Zm6.316,0H3.186V63H9.447Zm6.316,0H9.5V63h6.262Zm6.316,0H15.818V63H22.08Zm6.316,0H22.135V63H28.4Zm6.316,0H28.451V63h6.262Zm6.316,0H34.768V63h6.262Zm6.316,0H41.084V63h6.262Z" transform="translate(704.277 6497.163)" fill="#12263f" stroke="rgba(0,0,0,0)" stroke-width="1"/><path d="M-23.929-4.026h-2.338V0h-1.319V-9.953h3.295a3.9,3.9,0,0,1,2.587.766A2.755,2.755,0,0,1-20.8-6.959a2.68,2.68,0,0,1-.5,1.62,3,3,0,0,1-1.4,1.032l2.338,4.225V0h-1.408ZM-26.267-5.1h2.017A2.275,2.275,0,0,0-22.7-5.606a1.714,1.714,0,0,0,.578-1.356,1.8,1.8,0,0,0-.55-1.418,2.33,2.33,0,0,0-1.589-.5h-2.01ZM-16.088.137a3.232,3.232,0,0,1-2.447-.988,3.666,3.666,0,0,1-.943-2.642v-.232a4.438,4.438,0,0,1,.42-1.965,3.28,3.28,0,0,1,1.176-1.354,2.956,2.956,0,0,1,1.637-.489A2.77,2.77,0,0,1-14-6.583a4.114,4.114,0,0,1,.8,2.721v.526h-5.011a2.629,2.629,0,0,0,.639,1.767A2.009,2.009,0,0,0-16.02-.9a2.2,2.2,0,0,0,1.135-.273,2.851,2.851,0,0,0,.813-.725l.772.6A3.106,3.106,0,0,1-16.088.137Zm-.157-6.631a1.687,1.687,0,0,0-1.285.557,2.708,2.708,0,0,0-.643,1.562h3.705v-.1a2.409,2.409,0,0,0-.52-1.494A1.588,1.588,0,0,0-16.246-6.494Zm8.812,4.532a.931.931,0,0,0-.386-.8,3.718,3.718,0,0,0-1.347-.489,6.367,6.367,0,0,1-1.524-.492,2.169,2.169,0,0,1-.834-.684,1.635,1.635,0,0,1-.27-.943A1.919,1.919,0,0,1-11.026-6.9a3,3,0,0,1,1.965-.629,3.091,3.091,0,0,1,2.041.649,2.063,2.063,0,0,1,.783,1.661H-7.509a1.142,1.142,0,0,0-.441-.9,1.652,1.652,0,0,0-1.111-.376,1.729,1.729,0,0,0-1.08.3.947.947,0,0,0-.39.786.767.767,0,0,0,.362.69,4.458,4.458,0,0,0,1.309.444,6.821,6.821,0,0,1,1.535.506,2.239,2.239,0,0,1,.872.708,1.74,1.74,0,0,1,.284,1.008A1.893,1.893,0,0,1-6.962-.461a3.326,3.326,0,0,1-2.058.6,3.725,3.725,0,0,1-1.572-.314,2.557,2.557,0,0,1-1.07-.878,2.117,2.117,0,0,1-.386-1.22h1.265a1.309,1.309,0,0,0,.509,1.008A1.976,1.976,0,0,0-9.02-.9a2.039,2.039,0,0,0,1.152-.291A.893.893,0,0,0-7.434-1.962ZM-3.148,0H-4.413V-7.4h1.265ZM-4.515-9.358a.755.755,0,0,1,.188-.52.706.706,0,0,1,.557-.212.717.717,0,0,1,.561.212.747.747,0,0,1,.191.52.722.722,0,0,1-.191.513.73.73,0,0,1-.561.205.718.718,0,0,1-.557-.205A.73.73,0,0,1-4.515-9.358Zm3.083,5.6A4.333,4.333,0,0,1-.625-6.5,2.551,2.551,0,0,1,1.487-7.533a2.565,2.565,0,0,1,2.058.889V-10.5H4.809V0H3.647L3.585-.793a2.575,2.575,0,0,1-2.112.93A2.526,2.526,0,0,1-.622-.916a4.382,4.382,0,0,1-.81-2.748Zm1.265.144a3.281,3.281,0,0,0,.52,1.969,1.68,1.68,0,0,0,1.436.711,1.845,1.845,0,0,0,1.757-1.08v-3.4A1.859,1.859,0,0,0,1.8-6.46a1.687,1.687,0,0,0-1.449.718A3.612,3.612,0,0,0-.167-3.616Zm11.5,2.885A2.686,2.686,0,0,1,9.17.137a2.3,2.3,0,0,1-1.8-.687,2.974,2.974,0,0,1-.625-2.034V-7.4H8.008v4.778q0,1.682,1.367,1.682A1.893,1.893,0,0,0,11.3-2.017V-7.4h1.265V0h-1.2Zm2.816-3.035a4.369,4.369,0,0,1,.427-1.955,3.187,3.187,0,0,1,1.189-1.34,3.238,3.238,0,0,1,1.74-.472,3.119,3.119,0,0,1,2.444,1.046,4.024,4.024,0,0,1,.933,2.782v.089a4.407,4.407,0,0,1-.414,1.938A3.14,3.14,0,0,1,19.291-.342a3.275,3.275,0,0,1-1.767.479A3.111,3.111,0,0,1,15.087-.909a4,4,0,0,1-.933-2.769Zm1.271.15A3.164,3.164,0,0,0,16-1.641,1.827,1.827,0,0,0,17.524-.9a1.816,1.816,0,0,0,1.531-.755,3.46,3.46,0,0,0,.567-2.116,3.159,3.159,0,0,0-.578-1.972,1.836,1.836,0,0,0-1.535-.755A1.816,1.816,0,0,0,16-5.749,3.434,3.434,0,0,0,15.425-3.616ZM26.78-1.962a.931.931,0,0,0-.386-.8,3.718,3.718,0,0,0-1.347-.489,6.367,6.367,0,0,1-1.524-.492,2.169,2.169,0,0,1-.834-.684,1.635,1.635,0,0,1-.27-.943A1.919,1.919,0,0,1,23.188-6.9a3,3,0,0,1,1.965-.629,3.091,3.091,0,0,1,2.041.649,2.063,2.063,0,0,1,.783,1.661H26.7a1.142,1.142,0,0,0-.441-.9,1.652,1.652,0,0,0-1.111-.376,1.729,1.729,0,0,0-1.08.3.947.947,0,0,0-.39.786.767.767,0,0,0,.362.69,4.458,4.458,0,0,0,1.309.444,6.821,6.821,0,0,1,1.535.506,2.239,2.239,0,0,1,.872.708,1.74,1.74,0,0,1,.284,1.008,1.893,1.893,0,0,1-.793,1.589,3.326,3.326,0,0,1-2.058.6,3.725,3.725,0,0,1-1.572-.314,2.557,2.557,0,0,1-1.07-.878,2.117,2.117,0,0,1-.386-1.22H23.43a1.309,1.309,0,0,0,.509,1.008A1.976,1.976,0,0,0,25.194-.9a2.039,2.039,0,0,0,1.152-.291A.893.893,0,0,0,26.78-1.962ZM-41.084,22.032h-6.262V21h6.262Zm6.316,0h-6.262V21h6.262Zm6.316,0h-6.262V21h6.262Zm6.316,0H-28.4V21h6.262Zm6.316,0H-22.08V21h6.262Zm6.316,0h-6.262V21H-9.5Zm6.316,0H-9.447V21h6.262Zm6.316,0H-3.131V21H3.131Zm6.316,0H3.186V21H9.447Zm6.316,0H9.5V21h6.262Zm6.316,0H15.818V21H22.08Zm6.316,0H22.135V21H28.4Zm6.316,0H28.451V21h6.262Zm6.316,0H34.768V21h6.262Zm6.316,0H41.084V21h6.262Zm-88.43,21h-6.262V42h6.262Zm6.316,0h-6.262V42h6.262Zm6.316,0h-6.262V42h6.262Zm6.316,0H-28.4V42h6.262Zm6.316,0H-22.08V42h6.262Zm6.316,0h-6.262V42H-9.5Zm6.316,0H-9.447V42h6.262Zm6.316,0H-3.131V42H3.131Zm6.316,0H3.186V42H9.447Zm6.316,0H9.5V42h6.262Zm6.316,0H15.818V42H22.08Zm6.316,0H22.135V42H28.4Zm6.316,0H28.451V42h6.262Zm6.316,0H34.768V42h6.262Zm6.316,0H41.084V42h6.262Zm-88.43,21h-6.262V63h6.262Zm6.316,0h-6.262V63h6.262Zm6.316,0h-6.262V63h6.262Zm6.316,0H-28.4V63h6.262Zm6.316,0H-22.08V63h6.262Zm6.316,0h-6.262V63H-9.5Zm6.316,0H-9.447V63h6.262Zm6.316,0H-3.131V63H3.131Zm6.316,0H3.186V63H9.447Zm6.316,0H9.5V63h6.262Zm6.316,0H15.818V63H22.08Zm6.316,0H22.135V63H28.4Zm6.316,0H28.451V63h6.262Zm6.316,0H34.768V63h6.262Zm6.316,0H41.084V63h6.262Z" transform="translate(904.878 6497.163)" fill="#12263f" stroke="rgba(0,0,0,0)" stroke-width="1"/><path d="M-23.929-4.026h-2.338V0h-1.319V-9.953h3.295a3.9,3.9,0,0,1,2.587.766A2.755,2.755,0,0,1-20.8-6.959a2.68,2.68,0,0,1-.5,1.62,3,3,0,0,1-1.4,1.032l2.338,4.225V0h-1.408ZM-26.267-5.1h2.017A2.275,2.275,0,0,0-22.7-5.606a1.714,1.714,0,0,0,.578-1.356,1.8,1.8,0,0,0-.55-1.418,2.33,2.33,0,0,0-1.589-.5h-2.01ZM-16.088.137a3.232,3.232,0,0,1-2.447-.988,3.666,3.666,0,0,1-.943-2.642v-.232a4.438,4.438,0,0,1,.42-1.965,3.28,3.28,0,0,1,1.176-1.354,2.956,2.956,0,0,1,1.637-.489A2.77,2.77,0,0,1-14-6.583a4.114,4.114,0,0,1,.8,2.721v.526h-5.011a2.629,2.629,0,0,0,.639,1.767A2.009,2.009,0,0,0-16.02-.9a2.2,2.2,0,0,0,1.135-.273,2.851,2.851,0,0,0,.813-.725l.772.6A3.106,3.106,0,0,1-16.088.137Zm-.157-6.631a1.687,1.687,0,0,0-1.285.557,2.708,2.708,0,0,0-.643,1.562h3.705v-.1a2.409,2.409,0,0,0-.52-1.494A1.588,1.588,0,0,0-16.246-6.494Zm8.812,4.532a.931.931,0,0,0-.386-.8,3.718,3.718,0,0,0-1.347-.489,6.367,6.367,0,0,1-1.524-.492,2.169,2.169,0,0,1-.834-.684,1.635,1.635,0,0,1-.27-.943A1.919,1.919,0,0,1-11.026-6.9a3,3,0,0,1,1.965-.629,3.091,3.091,0,0,1,2.041.649,2.063,2.063,0,0,1,.783,1.661H-7.509a1.142,1.142,0,0,0-.441-.9,1.652,1.652,0,0,0-1.111-.376,1.729,1.729,0,0,0-1.08.3.947.947,0,0,0-.39.786.767.767,0,0,0,.362.69,4.458,4.458,0,0,0,1.309.444,6.821,6.821,0,0,1,1.535.506,2.239,2.239,0,0,1,.872.708,1.74,1.74,0,0,1,.284,1.008A1.893,1.893,0,0,1-6.962-.461a3.326,3.326,0,0,1-2.058.6,3.725,3.725,0,0,1-1.572-.314,2.557,2.557,0,0,1-1.07-.878,2.117,2.117,0,0,1-.386-1.22h1.265a1.309,1.309,0,0,0,.509,1.008A1.976,1.976,0,0,0-9.02-.9a2.039,2.039,0,0,0,1.152-.291A.893.893,0,0,0-7.434-1.962ZM-3.148,0H-4.413V-7.4h1.265ZM-4.515-9.358a.755.755,0,0,1,.188-.52.706.706,0,0,1,.557-.212.717.717,0,0,1,.561.212.747.747,0,0,1,.191.52.722.722,0,0,1-.191.513.73.73,0,0,1-.561.205.718.718,0,0,1-.557-.205A.73.73,0,0,1-4.515-9.358Zm3.083,5.6A4.333,4.333,0,0,1-.625-6.5,2.551,2.551,0,0,1,1.487-7.533a2.565,2.565,0,0,1,2.058.889V-10.5H4.809V0H3.647L3.585-.793a2.575,2.575,0,0,1-2.112.93A2.526,2.526,0,0,1-.622-.916a4.382,4.382,0,0,1-.81-2.748Zm1.265.144a3.281,3.281,0,0,0,.52,1.969,1.68,1.68,0,0,0,1.436.711,1.845,1.845,0,0,0,1.757-1.08v-3.4A1.859,1.859,0,0,0,1.8-6.46a1.687,1.687,0,0,0-1.449.718A3.612,3.612,0,0,0-.167-3.616Zm11.5,2.885A2.686,2.686,0,0,1,9.17.137a2.3,2.3,0,0,1-1.8-.687,2.974,2.974,0,0,1-.625-2.034V-7.4H8.008v4.778q0,1.682,1.367,1.682A1.893,1.893,0,0,0,11.3-2.017V-7.4h1.265V0h-1.2Zm2.816-3.035a4.369,4.369,0,0,1,.427-1.955,3.187,3.187,0,0,1,1.189-1.34,3.238,3.238,0,0,1,1.74-.472,3.119,3.119,0,0,1,2.444,1.046,4.024,4.024,0,0,1,.933,2.782v.089a4.407,4.407,0,0,1-.414,1.938A3.14,3.14,0,0,1,19.291-.342a3.275,3.275,0,0,1-1.767.479A3.111,3.111,0,0,1,15.087-.909a4,4,0,0,1-.933-2.769Zm1.271.15A3.164,3.164,0,0,0,16-1.641,1.827,1.827,0,0,0,17.524-.9a1.816,1.816,0,0,0,1.531-.755,3.46,3.46,0,0,0,.567-2.116,3.159,3.159,0,0,0-.578-1.972,1.836,1.836,0,0,0-1.535-.755A1.816,1.816,0,0,0,16-5.749,3.434,3.434,0,0,0,15.425-3.616ZM26.78-1.962a.931.931,0,0,0-.386-.8,3.718,3.718,0,0,0-1.347-.489,6.367,6.367,0,0,1-1.524-.492,2.169,2.169,0,0,1-.834-.684,1.635,1.635,0,0,1-.27-.943A1.919,1.919,0,0,1,23.188-6.9a3,3,0,0,1,1.965-.629,3.091,3.091,0,0,1,2.041.649,2.063,2.063,0,0,1,.783,1.661H26.7a1.142,1.142,0,0,0-.441-.9,1.652,1.652,0,0,0-1.111-.376,1.729,1.729,0,0,0-1.08.3.947.947,0,0,0-.39.786.767.767,0,0,0,.362.69,4.458,4.458,0,0,0,1.309.444,6.821,6.821,0,0,1,1.535.506,2.239,2.239,0,0,1,.872.708,1.74,1.74,0,0,1,.284,1.008,1.893,1.893,0,0,1-.793,1.589,3.326,3.326,0,0,1-2.058.6,3.725,3.725,0,0,1-1.572-.314,2.557,2.557,0,0,1-1.07-.878,2.117,2.117,0,0,1-.386-1.22H23.43a1.309,1.309,0,0,0,.509,1.008A1.976,1.976,0,0,0,25.194-.9a2.039,2.039,0,0,0,1.152-.291A.893.893,0,0,0,26.78-1.962ZM-41.084,22.032h-6.262V21h6.262Zm6.316,0h-6.262V21h6.262Zm6.316,0h-6.262V21h6.262Zm6.316,0H-28.4V21h6.262Zm6.316,0H-22.08V21h6.262Zm6.316,0h-6.262V21H-9.5Zm6.316,0H-9.447V21h6.262Zm6.316,0H-3.131V21H3.131Zm6.316,0H3.186V21H9.447Zm6.316,0H9.5V21h6.262Zm6.316,0H15.818V21H22.08Zm6.316,0H22.135V21H28.4Zm6.316,0H28.451V21h6.262Zm6.316,0H34.768V21h6.262Zm6.316,0H41.084V21h6.262Zm-88.43,21h-6.262V42h6.262Zm6.316,0h-6.262V42h6.262Zm6.316,0h-6.262V42h6.262Zm6.316,0H-28.4V42h6.262Zm6.316,0H-22.08V42h6.262Zm6.316,0h-6.262V42H-9.5Zm6.316,0H-9.447V42h6.262Zm6.316,0H-3.131V42H3.131Zm6.316,0H3.186V42H9.447Zm6.316,0H9.5V42h6.262Zm6.316,0H15.818V42H22.08Zm6.316,0H22.135V42H28.4Zm6.316,0H28.451V42h6.262Zm6.316,0H34.768V42h6.262Zm6.316,0H41.084V42h6.262Zm-88.43,21h-6.262V63h6.262Zm6.316,0h-6.262V63h6.262Zm6.316,0h-6.262V63h6.262Zm6.316,0H-28.4V63h6.262Zm6.316,0H-22.08V63h6.262Zm6.316,0h-6.262V63H-9.5Zm6.316,0H-9.447V63h6.262Zm6.316,0H-3.131V63H3.131Zm6.316,0H3.186V63H9.447Zm6.316,0H9.5V63h6.262Zm6.316,0H15.818V63H22.08Zm6.316,0H22.135V63H28.4Zm6.316,0H28.451V63h6.262Zm6.316,0H34.768V63h6.262Zm6.316,0H41.084V63h6.262Z" transform="translate(1107.39 6497.163)" fill="#12263f" stroke="rgba(0,0,0,0)" stroke-width="1"/><path d="M-23.929-4.026h-2.338V0h-1.319V-9.953h3.295a3.9,3.9,0,0,1,2.587.766A2.755,2.755,0,0,1-20.8-6.959a2.68,2.68,0,0,1-.5,1.62,3,3,0,0,1-1.4,1.032l2.338,4.225V0h-1.408ZM-26.267-5.1h2.017A2.275,2.275,0,0,0-22.7-5.606a1.714,1.714,0,0,0,.578-1.356,1.8,1.8,0,0,0-.55-1.418,2.33,2.33,0,0,0-1.589-.5h-2.01ZM-16.088.137a3.232,3.232,0,0,1-2.447-.988,3.666,3.666,0,0,1-.943-2.642v-.232a4.438,4.438,0,0,1,.42-1.965,3.28,3.28,0,0,1,1.176-1.354,2.956,2.956,0,0,1,1.637-.489A2.77,2.77,0,0,1-14-6.583a4.114,4.114,0,0,1,.8,2.721v.526h-5.011a2.629,2.629,0,0,0,.639,1.767A2.009,2.009,0,0,0-16.02-.9a2.2,2.2,0,0,0,1.135-.273,2.851,2.851,0,0,0,.813-.725l.772.6A3.106,3.106,0,0,1-16.088.137Zm-.157-6.631a1.687,1.687,0,0,0-1.285.557,2.708,2.708,0,0,0-.643,1.562h3.705v-.1a2.409,2.409,0,0,0-.52-1.494A1.588,1.588,0,0,0-16.246-6.494Zm8.812,4.532a.931.931,0,0,0-.386-.8,3.718,3.718,0,0,0-1.347-.489,6.367,6.367,0,0,1-1.524-.492,2.169,2.169,0,0,1-.834-.684,1.635,1.635,0,0,1-.27-.943A1.919,1.919,0,0,1-11.026-6.9a3,3,0,0,1,1.965-.629,3.091,3.091,0,0,1,2.041.649,2.063,2.063,0,0,1,.783,1.661H-7.509a1.142,1.142,0,0,0-.441-.9,1.652,1.652,0,0,0-1.111-.376,1.729,1.729,0,0,0-1.08.3.947.947,0,0,0-.39.786.767.767,0,0,0,.362.69,4.458,4.458,0,0,0,1.309.444,6.821,6.821,0,0,1,1.535.506,2.239,2.239,0,0,1,.872.708,1.74,1.74,0,0,1,.284,1.008A1.893,1.893,0,0,1-6.962-.461a3.326,3.326,0,0,1-2.058.6,3.725,3.725,0,0,1-1.572-.314,2.557,2.557,0,0,1-1.07-.878,2.117,2.117,0,0,1-.386-1.22h1.265a1.309,1.309,0,0,0,.509,1.008A1.976,1.976,0,0,0-9.02-.9a2.039,2.039,0,0,0,1.152-.291A.893.893,0,0,0-7.434-1.962ZM-3.148,0H-4.413V-7.4h1.265ZM-4.515-9.358a.755.755,0,0,1,.188-.52.706.706,0,0,1,.557-.212.717.717,0,0,1,.561.212.747.747,0,0,1,.191.52.722.722,0,0,1-.191.513.73.73,0,0,1-.561.205.718.718,0,0,1-.557-.205A.73.73,0,0,1-4.515-9.358Zm3.083,5.6A4.333,4.333,0,0,1-.625-6.5,2.551,2.551,0,0,1,1.487-7.533a2.565,2.565,0,0,1,2.058.889V-10.5H4.809V0H3.647L3.585-.793a2.575,2.575,0,0,1-2.112.93A2.526,2.526,0,0,1-.622-.916a4.382,4.382,0,0,1-.81-2.748Zm1.265.144a3.281,3.281,0,0,0,.52,1.969,1.68,1.68,0,0,0,1.436.711,1.845,1.845,0,0,0,1.757-1.08v-3.4A1.859,1.859,0,0,0,1.8-6.46a1.687,1.687,0,0,0-1.449.718A3.612,3.612,0,0,0-.167-3.616Zm11.5,2.885A2.686,2.686,0,0,1,9.17.137a2.3,2.3,0,0,1-1.8-.687,2.974,2.974,0,0,1-.625-2.034V-7.4H8.008v4.778q0,1.682,1.367,1.682A1.893,1.893,0,0,0,11.3-2.017V-7.4h1.265V0h-1.2Zm2.816-3.035a4.369,4.369,0,0,1,.427-1.955,3.187,3.187,0,0,1,1.189-1.34,3.238,3.238,0,0,1,1.74-.472,3.119,3.119,0,0,1,2.444,1.046,4.024,4.024,0,0,1,.933,2.782v.089a4.407,4.407,0,0,1-.414,1.938A3.14,3.14,0,0,1,19.291-.342a3.275,3.275,0,0,1-1.767.479A3.111,3.111,0,0,1,15.087-.909a4,4,0,0,1-.933-2.769Zm1.271.15A3.164,3.164,0,0,0,16-1.641,1.827,1.827,0,0,0,17.524-.9a1.816,1.816,0,0,0,1.531-.755,3.46,3.46,0,0,0,.567-2.116,3.159,3.159,0,0,0-.578-1.972,1.836,1.836,0,0,0-1.535-.755A1.816,1.816,0,0,0,16-5.749,3.434,3.434,0,0,0,15.425-3.616ZM26.78-1.962a.931.931,0,0,0-.386-.8,3.718,3.718,0,0,0-1.347-.489,6.367,6.367,0,0,1-1.524-.492,2.169,2.169,0,0,1-.834-.684,1.635,1.635,0,0,1-.27-.943A1.919,1.919,0,0,1,23.188-6.9a3,3,0,0,1,1.965-.629,3.091,3.091,0,0,1,2.041.649,2.063,2.063,0,0,1,.783,1.661H26.7a1.142,1.142,0,0,0-.441-.9,1.652,1.652,0,0,0-1.111-.376,1.729,1.729,0,0,0-1.08.3.947.947,0,0,0-.39.786.767.767,0,0,0,.362.69,4.458,4.458,0,0,0,1.309.444,6.821,6.821,0,0,1,1.535.506,2.239,2.239,0,0,1,.872.708,1.74,1.74,0,0,1,.284,1.008,1.893,1.893,0,0,1-.793,1.589,3.326,3.326,0,0,1-2.058.6,3.725,3.725,0,0,1-1.572-.314,2.557,2.557,0,0,1-1.07-.878,2.117,2.117,0,0,1-.386-1.22H23.43a1.309,1.309,0,0,0,.509,1.008A1.976,1.976,0,0,0,25.194-.9a2.039,2.039,0,0,0,1.152-.291A.893.893,0,0,0,26.78-1.962ZM-41.084,22.032h-6.262V21h6.262Zm6.316,0h-6.262V21h6.262Zm6.316,0h-6.262V21h6.262Zm6.316,0H-28.4V21h6.262Zm6.316,0H-22.08V21h6.262Zm6.316,0h-6.262V21H-9.5Zm6.316,0H-9.447V21h6.262Zm6.316,0H-3.131V21H3.131Zm6.316,0H3.186V21H9.447Zm6.316,0H9.5V21h6.262Zm6.316,0H15.818V21H22.08Zm6.316,0H22.135V21H28.4Zm6.316,0H28.451V21h6.262Zm6.316,0H34.768V21h6.262Zm6.316,0H41.084V21h6.262Zm-88.43,21h-6.262V42h6.262Zm6.316,0h-6.262V42h6.262Zm6.316,0h-6.262V42h6.262Zm6.316,0H-28.4V42h6.262Zm6.316,0H-22.08V42h6.262Zm6.316,0h-6.262V42H-9.5Zm6.316,0H-9.447V42h6.262Zm6.316,0H-3.131V42H3.131Zm6.316,0H3.186V42H9.447Zm6.316,0H9.5V42h6.262Zm6.316,0H15.818V42H22.08Zm6.316,0H22.135V42H28.4Zm6.316,0H28.451V42h6.262Zm6.316,0H34.768V42h6.262Zm6.316,0H41.084V42h6.262Zm-88.43,21h-6.262V63h6.262Zm6.316,0h-6.262V63h6.262Zm6.316,0h-6.262V63h6.262Zm6.316,0H-28.4V63h6.262Zm6.316,0H-22.08V63h6.262Zm6.316,0h-6.262V63H-9.5Zm6.316,0H-9.447V63h6.262Zm6.316,0H-3.131V63H3.131Zm6.316,0H3.186V63H9.447Zm6.316,0H9.5V63h6.262Zm6.316,0H15.818V63H22.08Zm6.316,0H22.135V63H28.4Zm6.316,0H28.451V63h6.262Zm6.316,0H34.768V63h6.262Zm6.316,0H41.084V63h6.262Z" transform="translate(1308.076 6497.163)" fill="#12263f" stroke="rgba(0,0,0,0)" stroke-width="1"/><path d="M81.661,178.586H26.137A26.167,26.167,0,0,1,0,152.449V41.4A26.167,26.167,0,0,1,26.137,15.264H81.661v2.162H26.137A24,24,0,0,0,2.162,41.4V152.449a24,24,0,0,0,23.975,23.975H81.661Z" transform="translate(415.601 6287.44)" fill="#4acfd9"/><path d="M81.661,178.586H26.137A26.167,26.167,0,0,1,0,152.449V41.4A26.167,26.167,0,0,1,26.137,15.264H81.661v2.162H26.137A24,24,0,0,0,2.162,41.4V152.449a24,24,0,0,0,23.975,23.975H81.661Z" transform="translate(616.202 6290.6)" fill="#ffb840"/><path d="M81.661,178.586H26.137A26.167,26.167,0,0,1,0,152.449V41.4A26.167,26.167,0,0,1,26.137,15.264H81.661v2.162H26.137A24,24,0,0,0,2.162,41.4V152.449a24,24,0,0,0,23.975,23.975H81.661Z" transform="translate(816.889 6290.6)" fill="#161730"/><path d="M81.661,178.586H26.137A26.167,26.167,0,0,1,0,152.449V41.4A26.167,26.167,0,0,1,26.137,15.264H81.661v2.162H26.137A24,24,0,0,0,2.162,41.4V152.449a24,24,0,0,0,23.975,23.975H81.661Z" transform="translate(1017.404 6290.6)" fill="#4acfd9"/><path d="M81.661,178.586H26.137A26.167,26.167,0,0,1,0,152.449V41.4A26.167,26.167,0,0,1,26.137,15.264H81.661v2.162H26.137A24,24,0,0,0,2.162,41.4V152.449a24,24,0,0,0,23.975,23.975H81.661Z" transform="translate(1218.09 6290.6)" fill="#ffb840"/><path d="M794.55,370.512,776.8,360.267v20.491Z" transform="translate(-200.404 6013.854)" fill="#4acfd9"/><path d="M794.55,370.512,776.8,360.267v20.491Z" transform="translate(0.197 6017.013)" fill="#ffb840"/><path d="M794.55,370.512,776.8,360.267v20.491Z" transform="translate(200.883 6017.013)" fill="#161730"/><path d="M794.55,370.512,776.8,360.267v20.491Z" transform="translate(401.399 6017.013)" fill="#4acfd9"/><path d="M449.762,0H394.3V169.642h55.467a29.387,29.387,0,0,0,29.354-29.354V29.354A29.387,29.387,0,0,0,449.762,0" transform="translate(102.926 6299.544)" fill="#4acfd9"/><path d="M449.762,0H394.3V169.642h55.467a29.387,29.387,0,0,0,29.354-29.354V29.354A29.387,29.387,0,0,0,449.762,0" transform="translate(303.527 6302.704)" fill="#ffb840"/><path d="M449.762,0H394.3V169.642h55.467a29.387,29.387,0,0,0,29.354-29.354V29.354A29.387,29.387,0,0,0,449.762,0" transform="translate(504.213 6302.704)" fill="#161730"/><path d="M449.762,0H394.3V169.642h55.467a29.387,29.387,0,0,0,29.354-29.354V29.354A29.387,29.387,0,0,0,449.762,0" transform="translate(704.729 6302.704)" fill="#4acfd9"/><path d="M449.762,0H394.3V169.642h55.467a29.387,29.387,0,0,0,29.354-29.354V29.354A29.387,29.387,0,0,0,449.762,0" transform="translate(905.415 6302.704)" fill="#ffb840"/><g transform="matrix(1, 0, 0, 1, 171, 6169)" filter="url(#c)"><path d="M184.779,75.237V177.232a23.013,23.013,0,0,1-23.013,23.013H59.771a23.013,23.013,0,0,1-23.013-23.013V75.237A23.013,23.013,0,0,1,59.771,52.224H161.766a23.013,23.013,0,0,1,23.013,23.013" transform="translate(215.61 89.13)" fill="#f7f7f7"/></g><g transform="matrix(1, 0, 0, 1, 171, 6169)" filter="url(#e)"><path d="M184.779,75.237V177.232a23.013,23.013,0,0,1-23.013,23.013H59.771a23.013,23.013,0,0,1-23.013-23.013V75.237A23.013,23.013,0,0,1,59.771,52.224H161.766a23.013,23.013,0,0,1,23.013,23.013" transform="translate(416.21 92.29)" fill="#f7f7f7"/></g><g transform="matrix(1, 0, 0, 1, 171, 6169)" filter="url(#g)"><path d="M184.779,75.237V177.232a23.013,23.013,0,0,1-23.013,23.013H59.771a23.013,23.013,0,0,1-23.013-23.013V75.237A23.013,23.013,0,0,1,59.771,52.224H161.766a23.013,23.013,0,0,1,23.013,23.013" transform="translate(616.9 92.29)" fill="#f7f7f7"/></g><g transform="matrix(1, 0, 0, 1, 171, 6169)" filter="url(#i)"><path d="M184.779,75.237V177.232a23.013,23.013,0,0,1-23.013,23.013H59.771a23.013,23.013,0,0,1-23.013-23.013V75.237A23.013,23.013,0,0,1,59.771,52.224H161.766a23.013,23.013,0,0,1,23.013,23.013" transform="translate(817.41 92.29)" fill="#f7f7f7"/></g><g transform="matrix(1, 0, 0, 1, 171, 6169)" filter="url(#k)"><path d="M184.779,75.237V177.232a23.013,23.013,0,0,1-23.013,23.013H59.771a23.013,23.013,0,0,1-23.013-23.013V75.237A23.013,23.013,0,0,1,59.771,52.224H161.766a23.013,23.013,0,0,1,23.013,23.013" transform="translate(1018.1 92.29)" fill="#f7f7f7"/></g><g transform="translate(215 6299.544)"><path d="M81.661,178.586H26.137A26.167,26.167,0,0,1,0,152.449V41.4A26.167,26.167,0,0,1,26.137,15.264H81.661v2.162H26.137A24,24,0,0,0,2.162,41.4V152.449a24,24,0,0,0,23.975,23.975H81.661Z" transform="translate(0 -12.105)" fill="#161730"/><path d="M794.55,370.512,776.8,360.267v20.491Z" transform="translate(-616.005 -285.691)" fill="#161730"/><path d="M449.762,0H394.3V169.642h55.467a29.387,29.387,0,0,0,29.354-29.354V29.354A29.387,29.387,0,0,0,449.762,0" transform="translate(-312.675 0)" fill="#161730"/><g transform="matrix(1, 0, 0, 1, -44, -130.54)" filter="url(#m)"><path d="M184.779,75.237V177.232a23.013,23.013,0,0,1-23.013,23.013H59.771a23.013,23.013,0,0,1-23.013-23.013V75.237A23.013,23.013,0,0,1,59.771,52.224H161.766a23.013,23.013,0,0,1,23.013,23.013" transform="translate(15.01 89.13)" fill="#f7f7f7"/></g><text transform="translate(76.831 43.923)" fill="#12263f" stroke="rgba(0,0,0,0)" stroke-width="1" font-size="12" font-family="Roboto-Regular, Roboto"><tspan x="-37.67" y="0">Materia Prima</tspan></text></g><path d="M-35.443-7.611h-2.742V0H-39.3V-7.611h-2.736v-.92h6.6Zm3.721,2.244a3.248,3.248,0,0,0-.533-.041A1.428,1.428,0,0,0-33.7-4.5V0h-1.084V-6.34h1.055l.018.732a1.688,1.688,0,0,1,1.512-.85,1.107,1.107,0,0,1,.48.082ZM-27.047,0A2.277,2.277,0,0,1-27.2-.668,2.419,2.419,0,0,1-29,.117a2.238,2.238,0,0,1-1.538-.53,1.716,1.716,0,0,1-.6-1.345A1.792,1.792,0,0,1-30.39-3.3a3.55,3.55,0,0,1,2.118-.548h1.055v-.5a1.217,1.217,0,0,0-.34-.905,1.366,1.366,0,0,0-1-.337,1.581,1.581,0,0,0-.973.293.863.863,0,0,0-.393.709h-1.09a1.5,1.5,0,0,1,.337-.917,2.3,2.3,0,0,1,.914-.7,3.075,3.075,0,0,1,1.269-.258,2.506,2.506,0,0,1,1.717.548A1.976,1.976,0,0,1-26.133-4.4v2.918A3.567,3.567,0,0,0-25.91-.094V0Zm-1.8-.826a1.905,1.905,0,0,0,.967-.264,1.6,1.6,0,0,0,.662-.686v-1.3h-.85q-1.992,0-1.992,1.166a.987.987,0,0,0,.34.8A1.306,1.306,0,0,0-28.846-.826Zm5.438-5.514.035.8a2.31,2.31,0,0,1,1.9-.914q2.01,0,2.027,2.268V0h-1.084V-4.2a1.459,1.459,0,0,0-.313-1.014,1.256,1.256,0,0,0-.958-.328,1.564,1.564,0,0,0-.926.281,1.91,1.91,0,0,0-.621.738V0h-1.084V-6.34Zm9.287,4.658a.8.8,0,0,0-.331-.683,3.187,3.187,0,0,0-1.154-.419,5.457,5.457,0,0,1-1.307-.422,1.859,1.859,0,0,1-.715-.586,1.4,1.4,0,0,1-.231-.809A1.645,1.645,0,0,1-17.2-5.918a2.574,2.574,0,0,1,1.685-.539,2.649,2.649,0,0,1,1.749.557A1.768,1.768,0,0,1-13.1-4.477h-1.09a.979.979,0,0,0-.378-.768,1.416,1.416,0,0,0-.952-.322,1.482,1.482,0,0,0-.926.258.812.812,0,0,0-.334.674.658.658,0,0,0,.311.592,3.821,3.821,0,0,0,1.122.381,5.847,5.847,0,0,1,1.315.434,1.919,1.919,0,0,1,.747.606,1.491,1.491,0,0,1,.243.864A1.623,1.623,0,0,1-13.717-.4,2.851,2.851,0,0,1-15.48.117a3.193,3.193,0,0,1-1.348-.27,2.192,2.192,0,0,1-.917-.753,1.815,1.815,0,0,1-.331-1.046h1.084a1.122,1.122,0,0,0,.437.864,1.693,1.693,0,0,0,1.075.319,1.748,1.748,0,0,0,.987-.249A.765.765,0,0,0-14.121-1.682ZM-11.092,0V-5.5h-1V-6.34h1v-.65a2.159,2.159,0,0,1,.545-1.576,2.058,2.058,0,0,1,1.541-.557,2.862,2.862,0,0,1,.744.1l-.059.874A3.113,3.113,0,0,0-8.906-8.2a1.058,1.058,0,0,0-.814.309,1.252,1.252,0,0,0-.287.885v.67h1.354V-5.5h-1.354V0Zm3.346-3.229A3.745,3.745,0,0,1-7.38-4.9,2.732,2.732,0,0,1-6.36-6.053a2.775,2.775,0,0,1,1.491-.4,2.674,2.674,0,0,1,2.095.9,3.449,3.449,0,0,1,.8,2.385V-3.1a3.777,3.777,0,0,1-.354,1.661A2.692,2.692,0,0,1-3.343-.293a2.807,2.807,0,0,1-1.515.41,2.667,2.667,0,0,1-2.089-.9,3.432,3.432,0,0,1-.8-2.373Zm1.09.129a2.712,2.712,0,0,0,.489,1.693,1.566,1.566,0,0,0,1.31.639,1.556,1.556,0,0,0,1.313-.647,2.966,2.966,0,0,0,.486-1.813,2.708,2.708,0,0,0-.5-1.69,1.574,1.574,0,0,0-1.315-.647,1.557,1.557,0,0,0-1.295.639A2.944,2.944,0,0,0-6.656-3.1ZM2.449-5.367a3.248,3.248,0,0,0-.533-.041A1.428,1.428,0,0,0,.469-4.5V0H-.615V-6.34H.439l.018.732a1.688,1.688,0,0,1,1.512-.85,1.107,1.107,0,0,1,.48.082ZM4.465-6.34l.029.7a2.341,2.341,0,0,1,1.881-.82,1.813,1.813,0,0,1,1.811,1.02,2.4,2.4,0,0,1,.823-.738,2.431,2.431,0,0,1,1.2-.281q2.086,0,2.121,2.209V0H11.244V-4.184A1.456,1.456,0,0,0,10.934-5.2a1.368,1.368,0,0,0-1.043-.337,1.437,1.437,0,0,0-1,.36,1.462,1.462,0,0,0-.463.97V0H7.336V-4.154A1.209,1.209,0,0,0,5.982-5.537a1.45,1.45,0,0,0-1.459.908V0H3.439V-6.34ZM17.877,0a2.277,2.277,0,0,1-.152-.668,2.419,2.419,0,0,1-1.8.785,2.238,2.238,0,0,1-1.538-.53,1.716,1.716,0,0,1-.6-1.345A1.792,1.792,0,0,1,14.534-3.3a3.55,3.55,0,0,1,2.118-.548h1.055v-.5a1.217,1.217,0,0,0-.34-.905,1.366,1.366,0,0,0-1-.337,1.581,1.581,0,0,0-.973.293A.863.863,0,0,0,15-4.582H13.91a1.5,1.5,0,0,1,.337-.917,2.3,2.3,0,0,1,.914-.7,3.075,3.075,0,0,1,1.269-.258,2.506,2.506,0,0,1,1.717.548A1.976,1.976,0,0,1,18.791-4.4v2.918a3.567,3.567,0,0,0,.223,1.389V0Zm-1.8-.826a1.905,1.905,0,0,0,.967-.264,1.6,1.6,0,0,0,.662-.686v-1.3h-.85q-1.992,0-1.992,1.166a.987.987,0,0,0,.34.8A1.306,1.306,0,0,0,16.078-.826Zm6.955.059a1.561,1.561,0,0,0,1.014-.352A1.237,1.237,0,0,0,24.527-2h1.025a1.966,1.966,0,0,1-.375,1.037,2.47,2.47,0,0,1-.923.785,2.663,2.663,0,0,1-1.222.293,2.612,2.612,0,0,1-2.06-.864,3.442,3.442,0,0,1-.765-2.364v-.182a3.817,3.817,0,0,1,.34-1.646,2.588,2.588,0,0,1,.976-1.119,2.771,2.771,0,0,1,1.5-.4,2.543,2.543,0,0,1,1.772.639,2.283,2.283,0,0,1,.753,1.658H24.527a1.494,1.494,0,0,0-.466-1.011,1.449,1.449,0,0,0-1.034-.4,1.517,1.517,0,0,0-1.28.595,2.793,2.793,0,0,0-.454,1.72v.205a2.737,2.737,0,0,0,.451,1.688A1.524,1.524,0,0,0,23.033-.768ZM27.949,0H26.865V-6.34h1.084ZM26.777-8.021a.647.647,0,0,1,.161-.445.6.6,0,0,1,.478-.182.614.614,0,0,1,.48.182.64.64,0,0,1,.164.445.619.619,0,0,1-.164.439.626.626,0,0,1-.48.176.616.616,0,0,1-.478-.176A.626.626,0,0,1,26.777-8.021ZM29.4-3.229A3.745,3.745,0,0,1,29.763-4.9a2.732,2.732,0,0,1,1.02-1.148,2.775,2.775,0,0,1,1.491-.4,2.674,2.674,0,0,1,2.095.9,3.449,3.449,0,0,1,.8,2.385V-3.1a3.777,3.777,0,0,1-.354,1.661A2.692,2.692,0,0,1,33.8-.293a2.807,2.807,0,0,1-1.515.41,2.667,2.667,0,0,1-2.089-.9,3.432,3.432,0,0,1-.8-2.373Zm1.09.129a2.712,2.712,0,0,0,.489,1.693,1.566,1.566,0,0,0,1.31.639A1.556,1.556,0,0,0,33.6-1.415a2.966,2.966,0,0,0,.486-1.813,2.708,2.708,0,0,0-.5-1.69,1.574,1.574,0,0,0-1.315-.647,1.557,1.557,0,0,0-1.295.639A2.944,2.944,0,0,0,30.486-3.1ZM32.766-9h1.313l-1.57,1.723-.873,0Zm4.787,2.66.035.8a2.31,2.31,0,0,1,1.9-.914q2.01,0,2.027,2.268V0H40.43V-4.2a1.459,1.459,0,0,0-.313-1.014,1.256,1.256,0,0,0-.958-.328,1.564,1.564,0,0,0-.926.281,1.91,1.91,0,0,0-.621.738V0H36.527V-6.34Z" transform="translate(491.656 6343.468)" fill="#12263f" stroke="rgba(0,0,0,0)" stroke-width="1"/><path d="M-30.943,0V-8.531h2.408a3.877,3.877,0,0,1,1.969.492,3.329,3.329,0,0,1,1.321,1.4,4.558,4.558,0,0,1,.472,2.086v.545a4.574,4.574,0,0,1-.466,2.115A3.277,3.277,0,0,1-26.569-.5a4.124,4.124,0,0,1-2.013.5Zm1.125-7.611V-.92h1.184a2.575,2.575,0,0,0,2.024-.809,3.344,3.344,0,0,0,.724-2.3v-.5a3.4,3.4,0,0,0-.683-2.261,2.429,2.429,0,0,0-1.937-.818ZM-22.066,0H-23.15V-6.34h1.084Zm-1.172-8.021a.647.647,0,0,1,.161-.445.6.6,0,0,1,.478-.182.614.614,0,0,1,.48.182.64.64,0,0,1,.164.445.619.619,0,0,1-.164.439.626.626,0,0,1-.48.176.616.616,0,0,1-.478-.176A.626.626,0,0,1-23.238-8.021Zm6.6,6.34a.8.8,0,0,0-.331-.683,3.187,3.187,0,0,0-1.154-.419,5.457,5.457,0,0,1-1.307-.422,1.859,1.859,0,0,1-.715-.586,1.4,1.4,0,0,1-.231-.809,1.645,1.645,0,0,1,.659-1.318,2.574,2.574,0,0,1,1.685-.539,2.649,2.649,0,0,1,1.749.557,1.768,1.768,0,0,1,.671,1.424h-1.09a.979.979,0,0,0-.378-.768,1.416,1.416,0,0,0-.952-.322,1.482,1.482,0,0,0-.926.258.812.812,0,0,0-.334.674.658.658,0,0,0,.311.592,3.821,3.821,0,0,0,1.122.381,5.847,5.847,0,0,1,1.315.434,1.919,1.919,0,0,1,.747.606,1.491,1.491,0,0,1,.243.864A1.623,1.623,0,0,1-16.236-.4,2.851,2.851,0,0,1-18,.117a3.193,3.193,0,0,1-1.348-.27,2.192,2.192,0,0,1-.917-.753A1.815,1.815,0,0,1-20.6-1.951h1.084a1.122,1.122,0,0,0,.437.864A1.693,1.693,0,0,0-18-.768a1.748,1.748,0,0,0,.987-.249A.765.765,0,0,0-16.641-1.682Zm3.967-6.193V-6.34h1.184V-5.5h-1.184v3.937a.88.88,0,0,0,.158.572.666.666,0,0,0,.539.191,2.624,2.624,0,0,0,.516-.07V0a3.161,3.161,0,0,1-.832.116,1.35,1.35,0,0,1-1.1-.439,1.888,1.888,0,0,1-.369-1.248V-5.5h-1.154V-6.34h1.154V-7.875ZM-7.16-5.367a3.248,3.248,0,0,0-.533-.041A1.428,1.428,0,0,0-9.141-4.5V0h-1.084V-6.34H-9.17l.018.732a1.688,1.688,0,0,1,1.512-.85,1.107,1.107,0,0,1,.48.082ZM-4.986,0H-6.07V-6.34h1.084ZM-6.158-8.021A.647.647,0,0,1-6-8.467a.6.6,0,0,1,.478-.182.614.614,0,0,1,.48.182.64.64,0,0,1,.164.445.619.619,0,0,1-.164.439.626.626,0,0,1-.48.176A.616.616,0,0,1-6-7.582.626.626,0,0,1-6.158-8.021ZM2.115-3.1A3.77,3.77,0,0,1,1.447-.765,2.134,2.134,0,0,1-.346.117,2.21,2.21,0,0,1-2.2-.732L-2.256,0h-1V-9h1.084v3.357A2.2,2.2,0,0,1-.357-6.457a2.147,2.147,0,0,1,1.813.873,3.883,3.883,0,0,1,.659,2.391ZM1.031-3.223A2.929,2.929,0,0,0,.6-4.934a1.416,1.416,0,0,0-1.23-.6,1.591,1.591,0,0,0-1.541,1V-1.8A1.636,1.636,0,0,0-.615-.8,1.408,1.408,0,0,0,.6-1.406,3.115,3.115,0,0,0,1.031-3.223Zm6.363,2.6A2.3,2.3,0,0,1,5.537.117,1.971,1.971,0,0,1,3.993-.472a2.549,2.549,0,0,1-.536-1.743V-6.34H4.541v4.1Q4.541-.8,5.713-.8a1.623,1.623,0,0,0,1.652-.926V-6.34H8.449V0H7.418Zm5.244-.141a1.561,1.561,0,0,0,1.014-.352A1.237,1.237,0,0,0,14.133-2h1.025a1.966,1.966,0,0,1-.375,1.037,2.47,2.47,0,0,1-.923.785,2.663,2.663,0,0,1-1.222.293,2.612,2.612,0,0,1-2.06-.864,3.442,3.442,0,0,1-.765-2.364v-.182a3.817,3.817,0,0,1,.34-1.646,2.588,2.588,0,0,1,.976-1.119,2.771,2.771,0,0,1,1.5-.4,2.543,2.543,0,0,1,1.772.639,2.283,2.283,0,0,1,.753,1.658H14.133a1.494,1.494,0,0,0-.466-1.011,1.449,1.449,0,0,0-1.034-.4,1.517,1.517,0,0,0-1.28.595,2.793,2.793,0,0,0-.454,1.72v.205a2.737,2.737,0,0,0,.451,1.688A1.524,1.524,0,0,0,12.639-.768ZM17.555,0H16.471V-6.34h1.084ZM16.383-8.021a.647.647,0,0,1,.161-.445.6.6,0,0,1,.478-.182.614.614,0,0,1,.48.182.64.64,0,0,1,.164.445.619.619,0,0,1-.164.439.626.626,0,0,1-.48.176.616.616,0,0,1-.478-.176A.626.626,0,0,1,16.383-8.021ZM19-3.229A3.745,3.745,0,0,1,19.368-4.9a2.732,2.732,0,0,1,1.02-1.148,2.775,2.775,0,0,1,1.491-.4,2.674,2.674,0,0,1,2.095.9,3.449,3.449,0,0,1,.8,2.385V-3.1a3.777,3.777,0,0,1-.354,1.661A2.692,2.692,0,0,1,23.405-.293a2.807,2.807,0,0,1-1.515.41,2.667,2.667,0,0,1-2.089-.9A3.432,3.432,0,0,1,19-3.152Zm1.09.129a2.712,2.712,0,0,0,.489,1.693,1.566,1.566,0,0,0,1.31.639A1.556,1.556,0,0,0,23.2-1.415a2.966,2.966,0,0,0,.486-1.813,2.708,2.708,0,0,0-.5-1.69,1.574,1.574,0,0,0-1.315-.647,1.557,1.557,0,0,0-1.295.639A2.944,2.944,0,0,0,20.092-3.1ZM22.371-9h1.313l-1.57,1.723-.873,0Zm4.787,2.66.035.8a2.31,2.31,0,0,1,1.9-.914q2.01,0,2.027,2.268V0H30.035V-4.2a1.459,1.459,0,0,0-.313-1.014,1.256,1.256,0,0,0-.958-.328,1.564,1.564,0,0,0-.926.281,1.91,1.91,0,0,0-.621.738V0H26.133V-6.34Z" transform="translate(692.765 6346.627)" fill="#12263f" stroke="rgba(0,0,0,0)" stroke-width="1"/><path d="M-7.934-2.707a3.139,3.139,0,0,1-1,2.089,3.274,3.274,0,0,1-2.235.735A3.006,3.006,0,0,1-13.591-.967a4.361,4.361,0,0,1-.911-2.9v-.82a4.861,4.861,0,0,1,.425-2.092,3.173,3.173,0,0,1,1.2-1.386,3.353,3.353,0,0,1,1.8-.483,3.083,3.083,0,0,1,2.18.759,3.176,3.176,0,0,1,.955,2.1H-9.064A2.451,2.451,0,0,0-9.7-7.27a1.924,1.924,0,0,0-1.368-.458,2.013,2.013,0,0,0-1.69.8,3.661,3.661,0,0,0-.612,2.269v.827a3.764,3.764,0,0,0,.58,2.211A1.874,1.874,0,0,0-11.168-.8a2.165,2.165,0,0,0,1.438-.425,2.357,2.357,0,0,0,.665-1.479ZM-2.654,0a2.277,2.277,0,0,1-.152-.668,2.419,2.419,0,0,1-1.8.785,2.238,2.238,0,0,1-1.538-.53,1.716,1.716,0,0,1-.6-1.345A1.792,1.792,0,0,1-6-3.3a3.55,3.55,0,0,1,2.118-.548h1.055v-.5a1.217,1.217,0,0,0-.34-.905,1.366,1.366,0,0,0-1-.337,1.581,1.581,0,0,0-.973.293.863.863,0,0,0-.393.709h-1.09A1.5,1.5,0,0,1-6.284-5.5a2.3,2.3,0,0,1,.914-.7A3.075,3.075,0,0,1-4.1-6.457a2.506,2.506,0,0,1,1.717.548A1.976,1.976,0,0,1-1.74-4.4v2.918A3.567,3.567,0,0,0-1.518-.094V0Zm-1.8-.826a1.905,1.905,0,0,0,.967-.264,1.6,1.6,0,0,0,.662-.686v-1.3h-.85q-1.992,0-1.992,1.166a.987.987,0,0,0,.34.8A1.306,1.306,0,0,0-4.453-.826ZM.984-6.34l.035.8a2.31,2.31,0,0,1,1.9-.914q2.01,0,2.027,2.268V0H3.861V-4.2a1.459,1.459,0,0,0-.313-1.014,1.256,1.256,0,0,0-.958-.328,1.564,1.564,0,0,0-.926.281,1.91,1.91,0,0,0-.621.738V0H-.041V-6.34ZM10.494,0a2.277,2.277,0,0,1-.152-.668,2.419,2.419,0,0,1-1.8.785A2.238,2.238,0,0,1,7-.413a1.716,1.716,0,0,1-.6-1.345A1.792,1.792,0,0,1,7.151-3.3,3.55,3.55,0,0,1,9.27-3.844h1.055v-.5a1.217,1.217,0,0,0-.34-.905,1.366,1.366,0,0,0-1-.337,1.581,1.581,0,0,0-.973.293.863.863,0,0,0-.393.709H6.527A1.5,1.5,0,0,1,6.864-5.5a2.3,2.3,0,0,1,.914-.7,3.075,3.075,0,0,1,1.269-.258,2.506,2.506,0,0,1,1.717.548A1.976,1.976,0,0,1,11.408-4.4v2.918a3.567,3.567,0,0,0,.223,1.389V0ZM8.7-.826a1.905,1.905,0,0,0,.967-.264,1.6,1.6,0,0,0,.662-.686v-1.3h-.85q-1.992,0-1.992,1.166a.987.987,0,0,0,.34.8A1.306,1.306,0,0,0,8.7-.826ZM14.285,0H13.2V-9h1.084Z" transform="translate(894.601 6346.627)" fill="#12263f" stroke="rgba(0,0,0,0)" stroke-width="1"/><path d="M-18.454-2.707a3.139,3.139,0,0,1-1,2.089,3.274,3.274,0,0,1-2.235.735A3.006,3.006,0,0,1-24.111-.967a4.361,4.361,0,0,1-.911-2.9v-.82A4.861,4.861,0,0,1-24.6-6.779a3.173,3.173,0,0,1,1.2-1.386,3.353,3.353,0,0,1,1.8-.483,3.083,3.083,0,0,1,2.18.759,3.176,3.176,0,0,1,.955,2.1h-1.131a2.451,2.451,0,0,0-.636-1.481,1.924,1.924,0,0,0-1.368-.458,2.013,2.013,0,0,0-1.69.8,3.661,3.661,0,0,0-.612,2.269v.827a3.764,3.764,0,0,0,.58,2.211A1.874,1.874,0,0,0-21.688-.8a2.165,2.165,0,0,0,1.438-.425,2.357,2.357,0,0,0,.665-1.479Zm1.078-.521A3.745,3.745,0,0,1-17.01-4.9a2.732,2.732,0,0,1,1.02-1.148,2.775,2.775,0,0,1,1.491-.4,2.674,2.674,0,0,1,2.095.9,3.449,3.449,0,0,1,.8,2.385V-3.1a3.777,3.777,0,0,1-.354,1.661A2.692,2.692,0,0,1-12.973-.293a2.807,2.807,0,0,1-1.515.41,2.667,2.667,0,0,1-2.089-.9,3.432,3.432,0,0,1-.8-2.373Zm1.09.129A2.712,2.712,0,0,0-15.8-1.406a1.566,1.566,0,0,0,1.31.639,1.556,1.556,0,0,0,1.313-.647,2.966,2.966,0,0,0,.486-1.813,2.708,2.708,0,0,0-.5-1.69A1.574,1.574,0,0,0-14.5-5.566a1.557,1.557,0,0,0-1.295.639A2.944,2.944,0,0,0-16.286-3.1ZM-9.22-6.34l.035.8a2.31,2.31,0,0,1,1.9-.914q2.01,0,2.027,2.268V0H-6.343V-4.2a1.459,1.459,0,0,0-.313-1.014,1.256,1.256,0,0,0-.958-.328,1.564,1.564,0,0,0-.926.281,1.91,1.91,0,0,0-.621.738V0h-1.084V-6.34ZM.067-1.682a.8.8,0,0,0-.331-.683,3.187,3.187,0,0,0-1.154-.419,5.457,5.457,0,0,1-1.307-.422,1.859,1.859,0,0,1-.715-.586A1.4,1.4,0,0,1-3.671-4.6a1.645,1.645,0,0,1,.659-1.318,2.574,2.574,0,0,1,1.685-.539A2.649,2.649,0,0,1,.422-5.9a1.768,1.768,0,0,1,.671,1.424H0a.979.979,0,0,0-.378-.768,1.416,1.416,0,0,0-.952-.322,1.482,1.482,0,0,0-.926.258.812.812,0,0,0-.334.674.658.658,0,0,0,.311.592,3.821,3.821,0,0,0,1.122.381,5.847,5.847,0,0,1,1.315.434,1.919,1.919,0,0,1,.747.606,1.491,1.491,0,0,1,.243.864A1.623,1.623,0,0,1,.472-.4,2.851,2.851,0,0,1-1.292.117,3.193,3.193,0,0,1-2.64-.152a2.192,2.192,0,0,1-.917-.753,1.815,1.815,0,0,1-.331-1.046H-2.8a1.122,1.122,0,0,0,.437.864,1.693,1.693,0,0,0,1.075.319A1.748,1.748,0,0,0-.3-1.017.765.765,0,0,0,.067-1.682ZM6.478-.627A2.3,2.3,0,0,1,4.62.117,1.971,1.971,0,0,1,3.076-.472,2.549,2.549,0,0,1,2.54-2.215V-6.34H3.624v4.1Q3.624-.8,4.8-.8a1.623,1.623,0,0,0,1.652-.926V-6.34H7.532V0H6.5ZM10.2-6.34l.029.7a2.341,2.341,0,0,1,1.881-.82,1.813,1.813,0,0,1,1.811,1.02,2.4,2.4,0,0,1,.823-.738,2.431,2.431,0,0,1,1.2-.281q2.086,0,2.121,2.209V0H16.978V-4.184A1.456,1.456,0,0,0,16.667-5.2a1.368,1.368,0,0,0-1.043-.337,1.437,1.437,0,0,0-1,.36,1.462,1.462,0,0,0-.463.97V0h-1.09V-4.154a1.209,1.209,0,0,0-1.354-1.383,1.45,1.45,0,0,0-1.459.908V0H9.173V-6.34Zm9.211,3.111A3.745,3.745,0,0,1,19.775-4.9a2.732,2.732,0,0,1,1.02-1.148,2.775,2.775,0,0,1,1.491-.4,2.674,2.674,0,0,1,2.095.9,3.449,3.449,0,0,1,.8,2.385V-3.1a3.777,3.777,0,0,1-.354,1.661A2.692,2.692,0,0,1,23.813-.293,2.807,2.807,0,0,1,22.3.117a2.667,2.667,0,0,1-2.089-.9,3.432,3.432,0,0,1-.8-2.373ZM20.5-3.1a2.712,2.712,0,0,0,.489,1.693,1.566,1.566,0,0,0,1.31.639,1.556,1.556,0,0,0,1.313-.647A2.966,2.966,0,0,0,24.1-3.229a2.708,2.708,0,0,0-.5-1.69,1.574,1.574,0,0,0-1.315-.647,1.557,1.557,0,0,0-1.295.639A2.944,2.944,0,0,0,20.5-3.1Z" transform="translate(1094.653 6346.627)" fill="#12263f" stroke="rgba(0,0,0,0)" stroke-width="1"/><path d="M-22.931-3.768h-3.58V0h-1.125V-8.531h5.285v.92h-4.16v2.924h3.58ZM-20,0h-1.084V-6.34H-20Zm-1.172-8.021a.647.647,0,0,1,.161-.445.6.6,0,0,1,.478-.182.614.614,0,0,1,.48.182.64.64,0,0,1,.164.445.619.619,0,0,1-.164.439.626.626,0,0,1-.48.176.616.616,0,0,1-.478-.176A.626.626,0,0,1-21.167-8.021Zm3.932,1.682.035.8a2.31,2.31,0,0,1,1.9-.914q2.01,0,2.027,2.268V0h-1.084V-4.2a1.459,1.459,0,0,0-.313-1.014,1.256,1.256,0,0,0-.958-.328,1.564,1.564,0,0,0-.926.281,1.91,1.91,0,0,0-.621.738V0h-1.084V-6.34Zm8.3,3.117a3.714,3.714,0,0,1,.691-2.347,2.186,2.186,0,0,1,1.811-.888A2.2,2.2,0,0,1-4.667-5.7V-9h1.084V0h-1l-.053-.68a2.208,2.208,0,0,1-1.811.8,2.165,2.165,0,0,1-1.8-.9,3.756,3.756,0,0,1-.694-2.355Zm1.084.123A2.812,2.812,0,0,0-7.4-1.412,1.44,1.44,0,0,0-6.173-.8a1.581,1.581,0,0,0,1.506-.926V-4.641a1.593,1.593,0,0,0-1.494-.9A1.446,1.446,0,0,0-7.4-4.922,3.1,3.1,0,0,0-7.849-3.1ZM.729.117a2.77,2.77,0,0,1-2.1-.847,3.142,3.142,0,0,1-.809-2.265v-.2a3.8,3.8,0,0,1,.36-1.685A2.811,2.811,0,0,1-.809-6.038a2.534,2.534,0,0,1,1.4-.419,2.374,2.374,0,0,1,1.922.814A3.526,3.526,0,0,1,3.2-3.311v.451H-1.093A2.254,2.254,0,0,0-.545-1.345,1.722,1.722,0,0,0,.788-.768,1.888,1.888,0,0,0,1.761-1a2.444,2.444,0,0,0,.7-.621l.662.516A2.662,2.662,0,0,1,.729.117ZM.595-5.566a1.446,1.446,0,0,0-1.1.478A2.321,2.321,0,0,0-1.058-3.75H2.118v-.082a2.065,2.065,0,0,0-.445-1.28A1.361,1.361,0,0,0,.595-5.566Zm8.924,4.1,1.57-4.869H12.2L9.923,0H9.1L6.8-6.34H7.907ZM14.417,0H13.333V-6.34h1.084ZM13.245-8.021a.647.647,0,0,1,.161-.445.6.6,0,0,1,.478-.182.614.614,0,0,1,.48.182.64.64,0,0,1,.164.445.619.619,0,0,1-.164.439.626.626,0,0,1-.48.176.616.616,0,0,1-.478-.176A.626.626,0,0,1,13.245-8.021Zm2.643,4.8a3.714,3.714,0,0,1,.691-2.347,2.186,2.186,0,0,1,1.811-.888,2.2,2.2,0,0,1,1.764.762V-9h1.084V0h-1l-.053-.68a2.208,2.208,0,0,1-1.811.8,2.165,2.165,0,0,1-1.8-.9,3.756,3.756,0,0,1-.694-2.355Zm1.084.123a2.812,2.812,0,0,0,.445,1.688,1.44,1.44,0,0,0,1.23.609,1.581,1.581,0,0,0,1.506-.926V-4.641a1.593,1.593,0,0,0-1.494-.9,1.446,1.446,0,0,0-1.242.615A3.1,3.1,0,0,0,16.972-3.1ZM26.833,0a2.277,2.277,0,0,1-.152-.668,2.419,2.419,0,0,1-1.8.785,2.238,2.238,0,0,1-1.538-.53,1.716,1.716,0,0,1-.6-1.345A1.792,1.792,0,0,1,23.49-3.3a3.55,3.55,0,0,1,2.118-.548h1.055v-.5a1.217,1.217,0,0,0-.34-.905,1.366,1.366,0,0,0-1-.337,1.581,1.581,0,0,0-.973.293.863.863,0,0,0-.393.709h-1.09A1.5,1.5,0,0,1,23.2-5.5a2.3,2.3,0,0,1,.914-.7,3.075,3.075,0,0,1,1.269-.258,2.506,2.506,0,0,1,1.717.548A1.976,1.976,0,0,1,27.747-4.4v2.918A3.567,3.567,0,0,0,27.97-.094V0Zm-1.8-.826A1.905,1.905,0,0,0,26-1.09a1.6,1.6,0,0,0,.662-.686v-1.3h-.85q-1.992,0-1.992,1.166a.987.987,0,0,0,.34.8A1.306,1.306,0,0,0,25.034-.826ZM-58.708,14.537a9.059,9.059,0,0,1,.354-2.543A7.387,7.387,0,0,1-57.3,9.779a4.5,4.5,0,0,1,1.459-1.406l.223.715a4.667,4.667,0,0,0-1.4,2,8.687,8.687,0,0,0-.6,3.018l-.006.5a8.733,8.733,0,0,0,.826,3.926,4.689,4.689,0,0,0,1.184,1.559l-.223.662A4.644,4.644,0,0,1-57.325,19.3,8.144,8.144,0,0,1-58.708,14.537Zm3.879.24a3.714,3.714,0,0,1,.691-2.347,2.186,2.186,0,0,1,1.811-.888,2.2,2.2,0,0,1,1.764.762V9h1.084v9h-1l-.053-.68a2.208,2.208,0,0,1-1.811.8,2.165,2.165,0,0,1-1.8-.9,3.756,3.756,0,0,1-.694-2.355Zm1.084.123a2.812,2.812,0,0,0,.445,1.688,1.44,1.44,0,0,0,1.23.609,1.581,1.581,0,0,0,1.506-.926V13.359a1.593,1.593,0,0,0-1.494-.9,1.446,1.446,0,0,0-1.242.615A3.1,3.1,0,0,0-53.745,14.9ZM-46.62,18H-47.7V11.66h1.084Zm-1.172-8.021a.647.647,0,0,1,.161-.445.6.6,0,0,1,.478-.182.614.614,0,0,1,.48.182.64.64,0,0,1,.164.445.619.619,0,0,1-.164.439.626.626,0,0,1-.48.176.616.616,0,0,1-.478-.176A.626.626,0,0,1-47.792,9.979Zm6.6,6.34a.8.8,0,0,0-.331-.683,3.187,3.187,0,0,0-1.154-.419,5.457,5.457,0,0,1-1.307-.422,1.859,1.859,0,0,1-.715-.586,1.4,1.4,0,0,1-.231-.809,1.645,1.645,0,0,1,.659-1.318,2.574,2.574,0,0,1,1.685-.539,2.649,2.649,0,0,1,1.749.557,1.768,1.768,0,0,1,.671,1.424h-1.09a.979.979,0,0,0-.378-.768,1.416,1.416,0,0,0-.952-.322,1.482,1.482,0,0,0-.926.258.812.812,0,0,0-.334.674.658.658,0,0,0,.311.592,3.821,3.821,0,0,0,1.122.381,5.847,5.847,0,0,1,1.315.434,1.919,1.919,0,0,1,.747.606,1.491,1.491,0,0,1,.243.864,1.623,1.623,0,0,1-.68,1.362,2.851,2.851,0,0,1-1.764.513,3.193,3.193,0,0,1-1.348-.27,2.192,2.192,0,0,1-.917-.753,1.815,1.815,0,0,1-.331-1.046h1.084a1.122,1.122,0,0,0,.437.864,1.693,1.693,0,0,0,1.075.319,1.748,1.748,0,0,0,.987-.249A.765.765,0,0,0-41.194,16.318Zm7.852-1.418A3.8,3.8,0,0,1-34,17.232a2.122,2.122,0,0,1-1.793.885,2.325,2.325,0,0,1-1.816-.732v3.053H-38.7V11.66h.99l.053.7a2.233,2.233,0,0,1,1.84-.82,2.162,2.162,0,0,1,1.808.861,3.838,3.838,0,0,1,.665,2.4Zm-1.084-.123a2.8,2.8,0,0,0-.457-1.693,1.472,1.472,0,0,0-1.254-.621,1.593,1.593,0,0,0-1.477.873v3.029a1.6,1.6,0,0,0,1.488.867,1.465,1.465,0,0,0,1.239-.618A3.058,3.058,0,0,0-34.427,14.777Zm2.174-.006a3.745,3.745,0,0,1,.366-1.676,2.732,2.732,0,0,1,1.02-1.148,2.775,2.775,0,0,1,1.491-.4,2.674,2.674,0,0,1,2.095.9,3.449,3.449,0,0,1,.8,2.385V14.9a3.777,3.777,0,0,1-.354,1.661,2.692,2.692,0,0,1-1.014,1.146,2.807,2.807,0,0,1-1.515.41,2.667,2.667,0,0,1-2.089-.9,3.432,3.432,0,0,1-.8-2.373Zm1.09.129a2.712,2.712,0,0,0,.489,1.693,1.566,1.566,0,0,0,1.31.639,1.556,1.556,0,0,0,1.313-.647,2.966,2.966,0,0,0,.486-1.813,2.708,2.708,0,0,0-.5-1.69,1.574,1.574,0,0,0-1.315-.647,1.557,1.557,0,0,0-1.295.639A2.944,2.944,0,0,0-31.163,14.9Zm9.732,1.418a.8.8,0,0,0-.331-.683,3.187,3.187,0,0,0-1.154-.419,5.457,5.457,0,0,1-1.307-.422,1.859,1.859,0,0,1-.715-.586,1.4,1.4,0,0,1-.231-.809,1.645,1.645,0,0,1,.659-1.318,2.574,2.574,0,0,1,1.685-.539,2.649,2.649,0,0,1,1.749.557,1.768,1.768,0,0,1,.671,1.424H-21.5a.979.979,0,0,0-.378-.768,1.416,1.416,0,0,0-.952-.322,1.482,1.482,0,0,0-.926.258.812.812,0,0,0-.334.674.658.658,0,0,0,.311.592,3.821,3.821,0,0,0,1.122.381,5.847,5.847,0,0,1,1.315.434,1.919,1.919,0,0,1,.747.606,1.491,1.491,0,0,1,.243.864,1.623,1.623,0,0,1-.68,1.362,2.851,2.851,0,0,1-1.764.513,3.193,3.193,0,0,1-1.348-.27,2.192,2.192,0,0,1-.917-.753,1.815,1.815,0,0,1-.331-1.046H-24.3a1.122,1.122,0,0,0,.437.864,1.693,1.693,0,0,0,1.075.319,1.748,1.748,0,0,0,.987-.249A.765.765,0,0,0-21.431,16.318ZM-17.757,18h-1.084V11.66h1.084Zm-1.172-8.021a.647.647,0,0,1,.161-.445.6.6,0,0,1,.478-.182.614.614,0,0,1,.48.182.64.64,0,0,1,.164.445.619.619,0,0,1-.164.439.626.626,0,0,1-.48.176.616.616,0,0,1-.478-.176A.626.626,0,0,1-18.929,9.979Zm5.449,7.254a1.561,1.561,0,0,0,1.014-.352,1.237,1.237,0,0,0,.48-.879h1.025a1.966,1.966,0,0,1-.375,1.037,2.47,2.47,0,0,1-.923.785,2.663,2.663,0,0,1-1.222.293,2.612,2.612,0,0,1-2.06-.864,3.442,3.442,0,0,1-.765-2.364v-.182a3.817,3.817,0,0,1,.34-1.646,2.588,2.588,0,0,1,.976-1.119,2.771,2.771,0,0,1,1.5-.4,2.543,2.543,0,0,1,1.772.639,2.283,2.283,0,0,1,.753,1.658h-1.025a1.494,1.494,0,0,0-.466-1.011,1.449,1.449,0,0,0-1.034-.4,1.517,1.517,0,0,0-1.28.595,2.793,2.793,0,0,0-.454,1.72v.205a2.737,2.737,0,0,0,.451,1.688A1.524,1.524,0,0,0-13.479,17.232ZM-8.563,18H-9.647V11.66h1.084ZM-9.735,9.979a.647.647,0,0,1,.161-.445A.6.6,0,0,1-9.1,9.352a.614.614,0,0,1,.48.182.64.64,0,0,1,.164.445.619.619,0,0,1-.164.439.626.626,0,0,1-.48.176.616.616,0,0,1-.478-.176A.626.626,0,0,1-9.735,9.979Zm2.619,4.793A3.745,3.745,0,0,1-6.75,13.1a2.732,2.732,0,0,1,1.02-1.148,2.775,2.775,0,0,1,1.491-.4,2.674,2.674,0,0,1,2.095.9,3.449,3.449,0,0,1,.8,2.385V14.9A3.777,3.777,0,0,1-1.7,16.562a2.692,2.692,0,0,1-1.014,1.146,2.807,2.807,0,0,1-1.515.41,2.667,2.667,0,0,1-2.089-.9,3.432,3.432,0,0,1-.8-2.373Zm1.09.129a2.712,2.712,0,0,0,.489,1.693,1.566,1.566,0,0,0,1.31.639,1.556,1.556,0,0,0,1.313-.647,2.966,2.966,0,0,0,.486-1.813,2.708,2.708,0,0,0-.5-1.69,1.574,1.574,0,0,0-1.315-.647,1.557,1.557,0,0,0-1.295.639A2.944,2.944,0,0,0-6.026,14.9ZM-3.747,9h1.313L-4,10.723l-.873,0ZM1.04,11.66l.035.8a2.31,2.31,0,0,1,1.9-.914q2.01,0,2.027,2.268V18H3.917V13.8A1.459,1.459,0,0,0,3.6,12.791a1.256,1.256,0,0,0-.958-.328,1.564,1.564,0,0,0-.926.281,1.91,1.91,0,0,0-.621.738V18H.015V11.66Zm5.813,7.072H5.921L9.483,9.469h.926Zm7.793-6.1a3.248,3.248,0,0,0-.533-.041,1.428,1.428,0,0,0-1.447.908V18H11.581V11.66h1.055l.018.732a1.688,1.688,0,0,1,1.512-.85,1.107,1.107,0,0,1,.48.082Zm3.627,5.484a2.77,2.77,0,0,1-2.1-.847,3.142,3.142,0,0,1-.809-2.265v-.2a3.8,3.8,0,0,1,.36-1.685,2.811,2.811,0,0,1,1.008-1.16,2.534,2.534,0,0,1,1.4-.419,2.374,2.374,0,0,1,1.922.814,3.526,3.526,0,0,1,.686,2.332v.451H16.45A2.254,2.254,0,0,0,17,16.655a1.722,1.722,0,0,0,1.333.577A1.888,1.888,0,0,0,19.3,17a2.444,2.444,0,0,0,.7-.621l.662.516A2.662,2.662,0,0,1,18.272,18.117Zm-.135-5.684a1.446,1.446,0,0,0-1.1.478,2.321,2.321,0,0,0-.551,1.339h3.176v-.082a2.065,2.065,0,0,0-.445-1.28A1.361,1.361,0,0,0,18.138,12.434Zm6.4,4.8a1.561,1.561,0,0,0,1.014-.352,1.237,1.237,0,0,0,.48-.879h1.025a1.966,1.966,0,0,1-.375,1.037,2.47,2.47,0,0,1-.923.785,2.663,2.663,0,0,1-1.222.293,2.612,2.612,0,0,1-2.06-.864,3.442,3.442,0,0,1-.765-2.364v-.182a3.817,3.817,0,0,1,.34-1.646,2.588,2.588,0,0,1,.976-1.119,2.771,2.771,0,0,1,1.5-.4,2.543,2.543,0,0,1,1.772.639,2.283,2.283,0,0,1,.753,1.658H26.036a1.494,1.494,0,0,0-.466-1.011,1.449,1.449,0,0,0-1.034-.4,1.517,1.517,0,0,0-1.28.595,2.793,2.793,0,0,0-.454,1.72v.205a2.737,2.737,0,0,0,.451,1.688A1.524,1.524,0,0,0,24.542,17.232ZM29.458,18H28.374V11.66h1.084ZM28.286,9.979a.647.647,0,0,1,.161-.445.6.6,0,0,1,.478-.182.614.614,0,0,1,.48.182.64.64,0,0,1,.164.445.619.619,0,0,1-.164.439.626.626,0,0,1-.48.176.616.616,0,0,1-.478-.176A.626.626,0,0,1,28.286,9.979Zm5.449,7.254a1.561,1.561,0,0,0,1.014-.352,1.237,1.237,0,0,0,.48-.879h1.025a1.966,1.966,0,0,1-.375,1.037,2.47,2.47,0,0,1-.923.785,2.663,2.663,0,0,1-1.222.293,2.612,2.612,0,0,1-2.06-.864,3.442,3.442,0,0,1-.765-2.364v-.182a3.817,3.817,0,0,1,.34-1.646,2.588,2.588,0,0,1,.976-1.119,2.771,2.771,0,0,1,1.5-.4,2.543,2.543,0,0,1,1.772.639,2.283,2.283,0,0,1,.753,1.658H35.229a1.494,1.494,0,0,0-.466-1.011,1.449,1.449,0,0,0-1.034-.4,1.517,1.517,0,0,0-1.28.595A2.793,2.793,0,0,0,32,14.748v.205a2.737,2.737,0,0,0,.451,1.688A1.524,1.524,0,0,0,33.735,17.232ZM38.651,18H37.567V9h1.084ZM44.3,18a2.277,2.277,0,0,1-.152-.668,2.419,2.419,0,0,1-1.8.785,2.238,2.238,0,0,1-1.538-.53,1.716,1.716,0,0,1-.6-1.345,1.792,1.792,0,0,1,.753-1.538,3.55,3.55,0,0,1,2.118-.548H44.13v-.5a1.217,1.217,0,0,0-.34-.905,1.366,1.366,0,0,0-1-.337,1.581,1.581,0,0,0-.973.293.863.863,0,0,0-.393.709h-1.09a1.5,1.5,0,0,1,.337-.917,2.3,2.3,0,0,1,.914-.7,3.075,3.075,0,0,1,1.269-.258,2.506,2.506,0,0,1,1.717.548,1.976,1.976,0,0,1,.645,1.509v2.918a3.567,3.567,0,0,0,.223,1.389V18Zm-1.8-.826a1.905,1.905,0,0,0,.967-.264,1.6,1.6,0,0,0,.662-.686v-1.3h-.85q-1.992,0-1.992,1.166a.987.987,0,0,0,.34.8A1.306,1.306,0,0,0,42.5,17.174Zm5.531-5.514v7.072q0,1.828-1.658,1.828a2.023,2.023,0,0,1-.662-.1v-.862a2.1,2.1,0,0,0,.492.047.736.736,0,0,0,.554-.2.971.971,0,0,0,.19-.683v-7.1Zm-1.2-1.682A.65.65,0,0,1,47,9.536a.592.592,0,0,1,.472-.185.614.614,0,0,1,.48.182.64.64,0,0,1,.164.445.619.619,0,0,1-.164.439.626.626,0,0,1-.48.176A.606.606,0,0,1,47,10.418.632.632,0,0,1,46.837,9.979Zm5.572,8.139a2.77,2.77,0,0,1-2.1-.847,3.142,3.142,0,0,1-.809-2.265v-.2a3.8,3.8,0,0,1,.36-1.685,2.811,2.811,0,0,1,1.008-1.16,2.534,2.534,0,0,1,1.4-.419,2.374,2.374,0,0,1,1.922.814,3.526,3.526,0,0,1,.686,2.332v.451H50.587a2.254,2.254,0,0,0,.548,1.515,1.722,1.722,0,0,0,1.333.577A1.888,1.888,0,0,0,53.44,17a2.444,2.444,0,0,0,.7-.621l.662.516A2.662,2.662,0,0,1,52.409,18.117Zm-.135-5.684a1.446,1.446,0,0,0-1.1.478,2.321,2.321,0,0,0-.551,1.339H53.8v-.082a2.065,2.065,0,0,0-.445-1.28A1.361,1.361,0,0,0,52.274,12.434ZM58.638,14.6a9.063,9.063,0,0,1-.343,2.5,7.407,7.407,0,0,1-1.049,2.212,4.6,4.6,0,0,1-1.479,1.441l-.229-.662a4.711,4.711,0,0,0,1.45-2.147,9.29,9.29,0,0,0,.56-3.231v-.187a9.646,9.646,0,0,0-.258-2.288,7.722,7.722,0,0,0-.718-1.9,4.378,4.378,0,0,0-1.034-1.307l.229-.662A4.577,4.577,0,0,1,57.24,9.8a7.423,7.423,0,0,1,1.049,2.209A9.273,9.273,0,0,1,58.638,14.6Z" transform="translate(1293.951 6346.627)" fill="#12263f" stroke="rgba(0,0,0,0)" stroke-width="1"/><path d="M8.8,0H7.485L2.475-7.67V0H1.155V-9.953H2.475L7.5-2.249v-7.7H8.8Zm1.8-3.767a4.369,4.369,0,0,1,.427-1.955,3.187,3.187,0,0,1,1.189-1.34,3.238,3.238,0,0,1,1.74-.472A3.119,3.119,0,0,1,16.4-6.487a4.024,4.024,0,0,1,.933,2.782v.089a4.407,4.407,0,0,1-.414,1.938A3.14,3.14,0,0,1,15.74-.342a3.275,3.275,0,0,1-1.767.479A3.111,3.111,0,0,1,11.536-.909,4,4,0,0,1,10.6-3.678Zm1.271.15a3.164,3.164,0,0,0,.571,1.976A1.827,1.827,0,0,0,13.973-.9,1.816,1.816,0,0,0,15.5-1.651a3.46,3.46,0,0,0,.567-2.116,3.159,3.159,0,0,0-.578-1.972,1.836,1.836,0,0,0-1.535-.755,1.816,1.816,0,0,0-1.511.745A3.434,3.434,0,0,0,11.874-3.616Zm8.764-5.571V-7.4h1.381v.978H20.638v4.593a1.027,1.027,0,0,0,.185.667.777.777,0,0,0,.629.222,3.062,3.062,0,0,0,.6-.082V0a3.688,3.688,0,0,1-.971.136A1.575,1.575,0,0,1,19.8-.376a2.2,2.2,0,0,1-.431-1.456V-6.419H18.026V-7.4h1.347V-9.187ZM28.062,0a2.657,2.657,0,0,1-.178-.779,2.822,2.822,0,0,1-2.105.916,2.611,2.611,0,0,1-1.794-.619,2,2,0,0,1-.7-1.569,2.091,2.091,0,0,1,.878-1.794,4.142,4.142,0,0,1,2.471-.639h1.23v-.581a1.42,1.42,0,0,0-.4-1.056A1.593,1.593,0,0,0,26.3-6.515a1.844,1.844,0,0,0-1.135.342,1.007,1.007,0,0,0-.458.827H23.434a1.745,1.745,0,0,1,.393-1.07,2.683,2.683,0,0,1,1.066-.817,3.588,3.588,0,0,1,1.48-.3,2.924,2.924,0,0,1,2,.639,2.306,2.306,0,0,1,.752,1.76v3.4a4.162,4.162,0,0,0,.26,1.62V0Zm-2.1-.964a2.223,2.223,0,0,0,1.128-.308,1.861,1.861,0,0,0,.772-.8V-3.589h-.991q-2.324,0-2.324,1.36a1.151,1.151,0,0,0,.4.93A1.524,1.524,0,0,0,25.963-.964Zm5.106.3a.792.792,0,0,1,.195-.547.742.742,0,0,1,.584-.219.765.765,0,0,1,.591.219.776.776,0,0,1,.2.547.734.734,0,0,1-.2.526.778.778,0,0,1-.591.212.755.755,0,0,1-.584-.212A.748.748,0,0,1,31.069-.663ZM31.076-6.7a.792.792,0,0,1,.195-.547.742.742,0,0,1,.584-.219.765.765,0,0,1,.591.219.776.776,0,0,1,.2.547.734.734,0,0,1-.2.526.778.778,0,0,1-.591.212.755.755,0,0,1-.584-.212A.748.748,0,0,1,31.076-6.7ZM41.1-4.437A6.172,6.172,0,0,1,38.64-5.629a2.279,2.279,0,0,1-.769-1.747,2.408,2.408,0,0,1,.94-1.945,3.736,3.736,0,0,1,2.444-.769,4.078,4.078,0,0,1,1.829.4A3.007,3.007,0,0,1,44.328-8.6a2.8,2.8,0,0,1,.441,1.524H43.449A1.82,1.82,0,0,0,42.875-8.5a2.335,2.335,0,0,0-1.62-.518,2.391,2.391,0,0,0-1.514.428A1.428,1.428,0,0,0,39.2-7.4a1.285,1.285,0,0,0,.516,1.031,5.062,5.062,0,0,0,1.757.77,8.151,8.151,0,0,1,1.941.77,2.946,2.946,0,0,1,1.039.981,2.5,2.5,0,0,1,.338,1.319,2.326,2.326,0,0,1-.943,1.938,4.022,4.022,0,0,1-2.522.728,4.678,4.678,0,0,1-1.914-.393,3.221,3.221,0,0,1-1.371-1.077,2.627,2.627,0,0,1-.482-1.552h1.319a1.714,1.714,0,0,0,.667,1.425,2.806,2.806,0,0,0,1.781.523,2.58,2.58,0,0,0,1.593-.424,1.377,1.377,0,0,0,.554-1.155,1.351,1.351,0,0,0-.513-1.131A5.911,5.911,0,0,0,41.1-4.437Zm11-.164H47.783v3.527h5.011V0H46.471V-9.953h6.255V-8.88H47.783v3.206H52.1ZM62.077,0H60.758L55.747-7.67V0H54.428V-9.953h1.319l5.024,7.7v-7.7h1.306ZM69.9-2.6h-4.17L64.8,0H63.444l3.8-9.953h1.148L72.2,0H70.854ZM66.131-3.678h3.384l-1.7-4.655Zm10.63-.362a10.569,10.569,0,0,1,.414-2.967,8.618,8.618,0,0,1,1.234-2.584,5.249,5.249,0,0,1,1.7-1.641l.26.834A5.444,5.444,0,0,0,78.733-8.06a10.135,10.135,0,0,0-.7,3.521l-.007.581a10.188,10.188,0,0,0,.964,4.58A5.47,5.47,0,0,0,80.37,2.44l-.26.772a5.418,5.418,0,0,1-1.736-1.7A9.5,9.5,0,0,1,76.761-4.04ZM87.985,0H81.464V-.909l3.445-3.828a8.185,8.185,0,0,0,1.056-1.412,2.356,2.356,0,0,0,.291-1.125,1.786,1.786,0,0,0-.472-1.278,1.649,1.649,0,0,0-1.258-.5,1.953,1.953,0,0,0-1.466.537,2.05,2.05,0,0,0-.523,1.494H81.272a2.936,2.936,0,0,1,.885-2.222,3.282,3.282,0,0,1,2.369-.848,3.153,3.153,0,0,1,2.194.728,2.483,2.483,0,0,1,.807,1.938q0,1.47-1.873,3.5L82.988-1.032h5Zm7.581-4.245a5.784,5.784,0,0,1-.759,3.3A2.7,2.7,0,0,1,92.436.137,2.718,2.718,0,0,1,90.077-.919a5.49,5.49,0,0,1-.793-3.155V-5.763a5.655,5.655,0,0,1,.759-3.261,2.719,2.719,0,0,1,2.379-1.066,2.744,2.744,0,0,1,2.365,1.029,5.458,5.458,0,0,1,.779,3.175ZM94.3-5.975a4.634,4.634,0,0,0-.451-2.341,1.553,1.553,0,0,0-1.429-.735,1.532,1.532,0,0,0-1.415.731,4.525,4.525,0,0,0-.458,2.249v2.023a4.708,4.708,0,0,0,.468,2.382A1.55,1.55,0,0,0,92.436-.9a1.529,1.529,0,0,0,1.391-.725A4.538,4.538,0,0,0,94.3-3.9ZM103.708,0H97.187V-.909l3.445-3.828a8.185,8.185,0,0,0,1.056-1.412,2.356,2.356,0,0,0,.291-1.125,1.786,1.786,0,0,0-.472-1.278,1.649,1.649,0,0,0-1.258-.5,1.953,1.953,0,0,0-1.466.537,2.05,2.05,0,0,0-.523,1.494H97a2.936,2.936,0,0,1,.885-2.222,3.282,3.282,0,0,1,2.369-.848,3.153,3.153,0,0,1,2.194.728,2.483,2.483,0,0,1,.807,1.938q0,1.47-1.873,3.5L98.711-1.032h5Zm7.861,0h-6.521V-.909l3.445-3.828a8.185,8.185,0,0,0,1.056-1.412,2.356,2.356,0,0,0,.291-1.125,1.786,1.786,0,0,0-.472-1.278,1.649,1.649,0,0,0-1.258-.5,1.953,1.953,0,0,0-1.466.537,2.05,2.05,0,0,0-.523,1.494h-1.265a2.936,2.936,0,0,1,.885-2.222,3.282,3.282,0,0,1,2.369-.848,3.153,3.153,0,0,1,2.194.728,2.483,2.483,0,0,1,.807,1.938q0,1.47-1.873,3.5l-2.666,2.892h5Zm4.389-3.972a10.574,10.574,0,0,1-.4,2.922,8.641,8.641,0,0,1-1.224,2.581,5.361,5.361,0,0,1-1.726,1.682l-.267-.772a5.5,5.5,0,0,0,1.692-2.505,10.839,10.839,0,0,0,.653-3.77v-.219a11.253,11.253,0,0,0-.3-2.669,9.009,9.009,0,0,0-.837-2.211,5.108,5.108,0,0,0-1.207-1.524l.267-.772a5.34,5.34,0,0,1,1.719,1.668,8.66,8.66,0,0,1,1.224,2.577A10.818,10.818,0,0,1,115.958-3.972Zm1.976,3.309a.792.792,0,0,1,.195-.547.742.742,0,0,1,.584-.219.765.765,0,0,1,.591.219.776.776,0,0,1,.2.547.734.734,0,0,1-.2.526.778.778,0,0,1-.591.212.755.755,0,0,1-.584-.212A.748.748,0,0,1,117.934-.663Z" transform="translate(1264 6602)" fill="#12263f"/></g></svg>