<svg xmlns="http://www.w3.org/2000/svg" width="53" height="53" viewBox="0 0 53 53">
  <g id="Grupo_80723" data-name="Grupo 80723" transform="translate(-737 -6767)">
    <g id="Grupo_80712" data-name="Grupo 80712" transform="translate(137 -303)">
      <circle id="Elipse_4732" data-name="Elipse 4732" cx="26.5" cy="26.5" r="26.5" transform="translate(600 7070)" fill="#f0d1ff"/>
      <path id="Trazado_114602" data-name="Trazado 114602" d="M19.5,0A19.5,19.5,0,1,1,0,19.5,19.5,19.5,0,0,1,19.5,0Z" transform="translate(607 7077)" fill="#161730"/>
    </g>
    <path id="Trazado_586290" data-name="Trazado 586290" d="M4.5,0H-4.43V-1.934L-.316-6.258A4.909,4.909,0,0,0,1.2-9.009a1.913,1.913,0,0,0-.36-1.257A1.287,1.287,0,0,0-.2-10.7a1.3,1.3,0,0,0-1.1.576,2.366,2.366,0,0,0-.422,1.437H-4.693A4.2,4.2,0,0,1-4.1-10.859a4.129,4.129,0,0,1,1.635-1.56,4.856,4.856,0,0,1,2.338-.562,4.777,4.777,0,0,1,3.195.958A3.42,3.42,0,0,1,4.184-9.272,4,4,0,0,1,3.9-7.8a6.456,6.456,0,0,1-.875,1.5,22.029,22.029,0,0,1-1.912,2.1L-.536-2.285H4.5Z" transform="translate(764 6800)" fill="#fff" stroke="rgba(0,0,0,0)" stroke-width="1"/>
  </g>
</svg>
