<svg xmlns="http://www.w3.org/2000/svg" xmlns:xlink="http://www.w3.org/1999/xlink" width="85" height="85" viewBox="0 0 85 85">
  <defs>
    <clipPath id="clip-path">
      <rect id="Rectángulo_37060" data-name="Rectángulo 37060" width="57.595" height="84.938" fill="none"/>
    </clipPath>
  </defs>
  <g id="Grupo_849911" data-name="Grupo 849911" transform="translate(-1230 -7592)">
    <g id="Grupo_80937" data-name="Grupo 80937" transform="translate(0 796)">
      <circle id="Elipse_4737" data-name="Elipse 4737" cx="42.5" cy="42.5" r="42.5" transform="translate(1230 6796)" fill="#161730"/>
      <g id="Grupo_80716" data-name="Grupo 80716" transform="translate(1244.203 6796)">
        <g id="Grupo_80715" data-name="Grupo 80715" clip-path="url(#clip-path)">
          <path id="Trazado_114502" data-name="Trazado 114502" d="M54.23,52.142h.812l.814.829a13.925,13.925,0,0,0,.017,1.806c.076.576-.273,1.026-.4,1.5a13.229,13.229,0,0,1-1.458,3.182,8.8,8.8,0,0,1-5.3,4.041,19.251,19.251,0,0,0-3.539,1.7,12.806,12.806,0,0,1-5.886,1.515,11.443,11.443,0,0,0-1.947.02c-.931.158-1.741-.319-2.63-.372a6.378,6.378,0,0,1-2.27-.8c-.454-.212-.945-.343-1.424-.511a.8.8,0,0,0-.166,1.029,2.779,2.779,0,0,1,.275,1.87c-.207,1.858.408,3.646.386,5.5a8.447,8.447,0,0,0,.336,2.164c.183.688.088,1.4.3,2.02.557,1.605.676,3.328,1.345,4.954h1.4c.175.542.625.933.471,1.527l-.815.819H18.314c-.476-.289-.571-.843-.839-1.3.054-.489.6-.589.73-.963.547-.139,1.174.175,1.549-.64-.207-1.2.309-2.477.411-3.812.085-1.108.248-2.225.229-3.347-.007-.372.268-.557.386-.821-1.191-2.042-2.973-3.465-4.531-5.093a5.038,5.038,0,0,1-1.373-3.734c0-.488.55-.812.338-1.33a6.328,6.328,0,0,1,2.324-1.819c1.384-.262,2.613.537,3.739,1.668,0-2.324.564-4.551.418-6.863a14.924,14.924,0,0,1-5.434-2.575,4.855,4.855,0,0,0-1.789-.807A14.268,14.268,0,0,1,7.4,49.681a14.834,14.834,0,0,1-2.806-3.635A18.36,18.36,0,0,1,3.15,42.187c-.481-1.666-.175-3.34-.323-5.042A14.93,14.93,0,0,1,.465,32.718,7.481,7.481,0,0,1,.26,31.325,2.4,2.4,0,0,0,0,30.138c.309-1.763.307-3.481,1.233-4.909a10.176,10.176,0,0,1,3.578-3.644,11.4,11.4,0,0,1,.647-4.318,17.878,17.878,0,0,1,2.317-4.495c1.342-2.013,3.294-3.127,5.253-4.271a7.035,7.035,0,0,1,2.287-.778,2.161,2.161,0,0,0,1.633-1.184,12.342,12.342,0,0,1,4.464-4.78A12.471,12.471,0,0,1,25.73.075l.86.877v.5c.229.428.019.764-.219,1.1a2.583,2.583,0,0,1-.793.5c-3.464.941-5.5,3.476-7.03,6.566a4.322,4.322,0,0,1-2.275.922,10.886,10.886,0,0,0-8.406,9.229,7.412,7.412,0,0,1-2.693,5.321A6.431,6.431,0,0,0,4.3,34.031a6.775,6.775,0,0,1,1.294,4.284,12.531,12.531,0,0,0,7.743,11.767c2.8.554,5.156,2.171,7.77,3.613a2.834,2.834,0,0,0-.885-2.5c-4-5.428-8.091-10.787-12.138-16.179a20.894,20.894,0,0,1-1.7-2.426A4.131,4.131,0,0,1,7.3,27.36a3.76,3.76,0,0,1,5.062-.027c1.22.95,1.937,2.358,2.969,3.479.73-.257.739-.967,1.04-1.444a4.213,4.213,0,0,1,5.348-1.833A4.352,4.352,0,0,1,23.73,32.89a36.487,36.487,0,0,0-1.592,5.035A3.27,3.27,0,0,0,23.158,41.2a65.574,65.574,0,0,1,3.53-11.562,2.484,2.484,0,0,0-.326-2.2c-.887-1.709-2-3.282-2.811-5.035-.883-1.918-.493-3.647,1.016-4.444,1.616-.853,3.33-.27,4.441,1.488a10.869,10.869,0,0,0,1.531,2.441,16.185,16.185,0,0,0,2.426-3.007c.484-.593.941-1.211,1.429-1.8,1.2-1.463,2.839-1.877,4.167-1.082a3.626,3.626,0,0,1,1.5,4.59A20.076,20.076,0,0,1,38.071,23.8,11.332,11.332,0,0,0,36.6,26.334c.372.459.829.2,1.225.194a9.257,9.257,0,0,1,7.842,3.625,6.726,6.726,0,0,0,3.2,2.392,21.914,21.914,0,0,1,2.9,1.692,5.682,5.682,0,0,0,1.549-5.027,6.871,6.871,0,0,0-3.1-5.039,3.558,3.558,0,0,1-1.629-3.189A11.051,11.051,0,0,0,40.13,10.548,4.2,4.2,0,0,1,36.9,8.125,9.749,9.749,0,0,0,31.24,3.192c-.725-.285-1.8-.443-1.4-1.743-.163-.712.547-.868.821-1.449,4.089,1.057,7.289,3.167,9.022,7.328A14.651,14.651,0,0,1,45.8,10a15.027,15.027,0,0,1,4.539,5.66,20.91,20.91,0,0,1,1.339,5.839c.275.3.719.572,1.092.9A10.164,10.164,0,0,1,55.9,27.5a10.578,10.578,0,0,1,.229,4.164,8.058,8.058,0,0,1-2.056,4.571c-.263.277-.535.545-.853.87a15.256,15.256,0,0,1,1.41,4.644,13.766,13.766,0,0,1,2.164,2.563,7.006,7.006,0,0,1,.8,3.153c-.217.117-.087.54-.141.909-.45.076-.751.578-1.274.455-.9-.1-1.274-.7-1.417-1.532A4.753,4.753,0,0,0,52.8,44.192a3.149,3.149,0,0,1-1.286-2.524,6.669,6.669,0,0,0-5.115-6.43A4.009,4.009,0,0,1,43.711,33.1a5.192,5.192,0,0,0-2.676-2.514,6.215,6.215,0,0,0-3.489-.484,4.49,4.49,0,0,0-4.14,3.151,57.231,57.231,0,0,0-2.456,9.89,40.738,40.738,0,0,0-.6,10.177,3.033,3.033,0,0,0,1.641-1.189c2.312-2.321,4.583-4.682,6.9-7a4.532,4.532,0,0,1,3.581-1.644,3.754,3.754,0,0,1,3.4,2.438,4.161,4.161,0,0,1-.722,4.626c-1.784,1.921-3.562,3.865-5.523,5.592-1.847,1.626-3.537,3.4-5.271,5.137-.331.413-.887.651-.984,1.532a10.773,10.773,0,0,0,6.325.938A10.988,10.988,0,0,0,45.135,61.8,5.6,5.6,0,0,1,46.908,61,7.693,7.693,0,0,0,52.92,54.24c.121-.809-.041-2,1.31-2.1"/>
          <path id="Trazado_114503" data-name="Trazado 114503" d="M14.461,9.472a5.3,5.3,0,0,0,2.276-.663c1.77-.985,2.786-2.67,3.89-4.291a7.309,7.309,0,0,1,3.263-2.336c.027-.5.4-.282.651-.331a2.19,2.19,0,0,1,2.276-.663,1.713,1.713,0,0,1,1.3-.331c-.177.931.775.858,1.13,1.317,1.043-.059,1.807.668,2.638,1.1A7.11,7.11,0,0,1,35.07,6.506c.284.589.827.984.924,1.782.1.827,1.179,1.062,1.884,1.142a10.2,10.2,0,0,1,4.974,2.224,10.821,10.821,0,0,1,3.467,4.5,8.529,8.529,0,0,1,1,4.223,2.687,2.687,0,0,0,.488,2.254A7.762,7.762,0,0,1,51.907,28a4.192,4.192,0,0,1-.029,2.728,2.275,2.275,0,0,0-.022.97,11.99,11.99,0,0,1-1.614,2.664c-.348.16-.674-.2-1.018-.559a9.676,9.676,0,0,0-4.447-2.264,7.893,7.893,0,0,0-2.684-3.279,9.776,9.776,0,0,0-3.844-1.728,13.489,13.489,0,0,0-4.369.148,20.5,20.5,0,0,1,2.287-4.014,22.693,22.693,0,0,1,1.383-1.9,5.093,5.093,0,0,0,.627-3.525c-.576-.586-1.15-1.172-1.765-1.8-.389,0-.817.02-1.243-.005a2.16,2.16,0,0,0-1.9.909c-1.407,1.824-2.771,3.685-4.14,5.538-.082.11-.061.3-.11.584a5.685,5.685,0,0,1-1.456-2.2c-.3-.734-.832-1.284-1.123-2.011a1.6,1.6,0,0,0-1.422-.815c-.539-.037-1.08-.008-1.4-.008a3.287,3.287,0,0,0-1.66,1.174c-.065.272.053.53-.136.8a1.325,1.325,0,0,0,.039,1.469A36.1,36.1,0,0,0,24.4,25.42c.53.81.695,1.845,1.514,2.531a69.428,69.428,0,0,0-4.322,13.757c-.719-1-1.335-1.85-1.926-2.669a.853.853,0,0,1,.323-.907c-.143-1.792.686-3.326,1.254-4.933.382-1.08.972-2.125.608-3.413-.547-1.009-.967-2.271-2.811-2.744-2.315-.16-3.377-.078-5.064,4.291A16.176,16.176,0,0,1,11.848,28.6,6.154,6.154,0,0,0,8.517,26.11a5.3,5.3,0,0,0-2.548.787,4.673,4.673,0,0,0-1.556,2.822,3.146,3.146,0,0,0,.554,2.062A15.749,15.749,0,0,0,6.5,33.941c1.169,1.689,2.577,3.206,3.744,4.894,1.485,2.152,3.175,4.142,4.665,6.294.8,1.157,1.685,2.3,2.6,3.382a27.122,27.122,0,0,0,2.441,3.151v2.161l-2.665-1.279a.534.534,0,0,1-.133-.075A10.841,10.841,0,0,0,11.93,50.12c-.136-.029-.189-.279-.4-.226C7.224,47.38,5.356,43.442,5.26,38.533A6.538,6.538,0,0,0,4.2,34.981C1.357,30.549,2.05,25.85,6,22.424a2.73,2.73,0,0,0,1.172-1.886c.381-5.088,2.745-8.825,7.293-11.066" transform="translate(1.723 0.591)" fill="#3bbb56"/>
          <path id="Trazado_114504" data-name="Trazado 114504" d="M41.989,39.689a.649.649,0,0,0-.589.464c.09.676-.413,1.206-.382,1.841A5.888,5.888,0,0,1,39.4,46.1,7.368,7.368,0,0,1,34.568,49a3.6,3.6,0,0,0-1.624.766,8.318,8.318,0,0,1-5.587,1.855c-1.524-.525-3.051-1.048-4.529-1.7-.51-.224-1.145-.474-1-1.286a27.407,27.407,0,0,1,4.8-4.741,5.368,5.368,0,0,0,.695-.695q2.413-2.459,4.83-4.918a4.764,4.764,0,0,0,1.378-1.954V34.088a6.285,6.285,0,0,0-1.738-2.3c-.471.061-.843-.309-1.288-.369a3.741,3.741,0,0,0-3.226,1.238c-2.091,2.086-4.142,4.213-6.216,6.316A15.871,15.871,0,0,1,17.6,42.008V36.929a6.111,6.111,0,0,1,.059-2.292A4.339,4.339,0,0,0,17.9,32.6c-.015-.664.523-1.184.35-1.852.8-.865.73-2.033.95-3.071a8.2,8.2,0,0,1,4.733-6.056c1.542-.719,3.026-1.371,3.888-2.98a1.54,1.54,0,0,1,1.16-.815,3.934,3.934,0,0,1,2.276,1.7,7.01,7.01,0,0,1,1,1.733c.1.328.486.567.736.839a8.2,8.2,0,0,1,3.561,1.272,5.8,5.8,0,0,1,2.319,2.492,5.751,5.751,0,0,1,.844,2.949,2.833,2.833,0,0,0,.467,2.2c.571.019.832.785,1.475.892-.022.72.766.856.912,1.238.161.9.591,1.576.384,2.234.109.666.863.469.98,1-.309-.025-.262.214-.335.413a13.691,13.691,0,0,1-1.616,2.9" transform="translate(12.24 12.453)" fill="#2dac42"/>
          <path id="Trazado_114505" data-name="Trazado 114505" d="M17.752,1.184l-2.276.663c-.16-.421.279-.642.324-.994h1.559c.221,0,.414.032.392.331" transform="translate(10.789 0.596)" fill="#2daa42"/>
          <path id="Trazado_114506" data-name="Trazado 114506" d="M6.77,17.636a61.016,61.016,0,0,0,4.7,5.961h.994a3.26,3.26,0,0,0,.834-1.617c.3-1.024.753-2,1.1-3.007a1.99,1.99,0,0,1,1.675-1.362c.172.253.387.566.744,1.084v.963c-1.228,2.9-2.159,5.7-1.874,8.868,1.407,1.862,2.862,3.785,4.294,5.677h1.2c.375-.2.882.027,1.279-.5.982-2.084.771-4.728,2.191-6.814a.376.376,0,0,1,.431.022c.165.719-.409,1.291-.352,2.018.049.613.243,1.31-.3,1.85.214,1.145-.333,2.213-.33,3.34.01,3.479,0,6.955,0,10.434,0,.635-.112,1.3.781,1.862h1.046c4.045-4.082,7.986-8.3,12.447-12.182H38.86c.066.5.6.8.28,1.609-2.28,2.324-4.758,4.855-7.245,7.381a87.81,87.81,0,0,1-7.565,7.242c0,1.463.034,2.788-.008,4.111-.059,1.791.323,3.544.409,5.326a22.832,22.832,0,0,0,.623,4.684c.314,1.189.251,2.477.9,3.593.166.285.025.758.025,1.143.328.615-.015.809-.533.814-1.984.02-3.968.019-5.827,0a1.871,1.871,0,0,1-.452-1.83,23.528,23.528,0,0,1,.394-3.1c.98-3.493-.649-5.917-3.1-8a5.723,5.723,0,0,1-1.959-2.558c-.172-.549-.574-1.279.416-1.556.2-.051.274.122.381.226.805.783,1.476,1.746,2.73,1.884.071-.258.744.117.792-.452.457-.416,1.063.048,1.692-.319.119-2.176.367-4.4.455-6.644.083-2.091-.092-4.189.093-6.277A4.485,4.485,0,0,0,20.1,38.385C15.913,32.7,11.605,27.107,7.392,21.443a5.5,5.5,0,0,1-1.176-1.962c-.149-.671-.532-1.517.554-1.845" transform="translate(4.212 12.306)" fill="#92603e"/>
          <path id="Trazado_114507" data-name="Trazado 114507" d="M15.159,5.924a.662.662,0,0,1-.467.612c-1.634.515-2.479,1.986-3.612,3.087A8.746,8.746,0,0,0,9.317,12.51a10.053,10.053,0,0,0-.989,4.22c.01.438,0,.875,0,1.291-.522.494-1.082.9-1.583,1.345a8.259,8.259,0,0,0-2.973,5.514A15.035,15.035,0,0,0,3.966,28.5a8.872,8.872,0,0,0,1.65,3.272,3.34,3.34,0,0,1,.771,2.336c-.039.438.005.883-.008,1.325a12.85,12.85,0,0,0,2.315,7.137A10.335,10.335,0,0,0,12,45.952c.121.078.285.183.233.394A4.942,4.942,0,0,1,9.557,44.98,13.368,13.368,0,0,1,5.44,40.159a20.254,20.254,0,0,1-1.072-3.527c-.4-1.687-.109-3.345-.3-5.042C3.7,31,3.127,30.544,2.7,29.917a7.472,7.472,0,0,1-1.131-5.455,4.388,4.388,0,0,1,1.345-2.876c.431-.348.457-.982,1.1-1.213.493-.178.793-.8,1.366-1.029.275-.109.464-.443.69-.673a16.645,16.645,0,0,1,.713-5.006,8.853,8.853,0,0,1,1.728-3.391A11.3,11.3,0,0,1,10.929,7.9a12.128,12.128,0,0,1,4.23-1.981" transform="translate(1.025 4.14)" fill="#2dac42"/>
          <path id="Trazado_114508" data-name="Trazado 114508" d="M7.4,17.9a.252.252,0,0,0-.319.263c-.017.5-.005.992-.005,1.463.81,1.3,1.75,2.49,2.645,3.693.846,1.138,1.758,2.236,2.589,3.392,1.614,2.253,3.326,4.435,4.988,6.649,1.228,1.638,2.424,3.319,3.729,4.9a12.6,12.6,0,0,1,1.717,2.98c.048.161-.515.236-.4.654a3.888,3.888,0,0,1,.015.985c0,1.381.015,2.759,0,4.138a23.281,23.281,0,0,1-.267,4.011,22.9,22.9,0,0,0-.054,4.128c-.8.654-.849.69-1.432.183a.985.985,0,0,0-.844-.335c.109-.231.33-.472.307-.688-.2-1.964.484-3.866.343-5.82-.2-2.834.652-5.623.219-8.791-4.886-6.848-10.306-13.69-15.5-20.793v-.868l.95-.814A1.4,1.4,0,0,1,7.4,17.9" transform="translate(3.581 12.043)" fill="#835435"/>
          <path id="Trazado_114509" data-name="Trazado 114509" d="M28.7,18.119a14.349,14.349,0,0,0-2.161,3.119c-5.042,1.432-7.5,4.481-7.627,9.342l-.943.462c-.172-.566.318-.98.33-1.509.01-.469-.136-.982.321-1.342a10.157,10.157,0,0,1,.678-3.5c.4-1.57.972-3.1,1.492-4.631a3.368,3.368,0,0,1,1.677-1.746,6.935,6.935,0,0,1,6.233-.348c.015.005,0,.1,0,.156" transform="translate(12.527 12.154)" fill="#2b9237"/>
          <path id="Trazado_114510" data-name="Trazado 114510" d="M18.082,28.555c-.589,2.239-1.276,4.451-1.675,6.744-.066.377-.243,1.067-.873,1.208-.5.032-.555-.652-1.029-.663.048-.365.387-.494.539-.7.4-1.982.72-3.928,1.186-5.839a63.9,63.9,0,0,1,2.186-7.164A16.6,16.6,0,0,1,19.7,19.052a1.911,1.911,0,0,0-.2-2.438,4.693,4.693,0,0,1-.729-1.351c.758.085,1.118,1.04,1.906.7a3.623,3.623,0,0,1,1.3,1.989,43.419,43.419,0,0,0-2.3,6.472,5.977,5.977,0,0,1-.95,2.473c-.246.54-.189,1.2-.651,1.656" transform="translate(10.135 10.666)" fill="#835435"/>
          <path id="Trazado_114511" data-name="Trazado 114511" d="M12.227,38.771c-.321-.025-.364.212-.318.426a4.788,4.788,0,0,0,1.811,3.168,8.774,8.774,0,0,1,2.2,2.078c.484.629,1.035,1.194,1.515,1.819-.2.581.571,1.021.3,1.512-.676,1.232.126,2.681-.63,3.875.221,1.2-.306,2.327-.321,3.5a3.589,3.589,0,0,0,.056.486H23.15c.236-.189.09-.428.133-.632.681.119.068.629.646.994-1.83,0-3.279-.058-4.723.017a18.847,18.847,0,0,1-4.317-.45c-.172-.2.267-.236.246-.386-.192-1.359.448-2.655.318-3.989-.087-.892.4-1.644.36-2.509-.042-.822-.008-1.648-.008-2.453-.86-1.162-1.694-2.31-2.635-3.381-.9-1.026-2.132-1.7-2.854-2.873v-1.8a1.706,1.706,0,0,1,1.911.6" transform="translate(7.209 26.625)" fill="#835435"/>
          <path id="Trazado_114512" data-name="Trazado 114512" d="M19.442,21.035a4.991,4.991,0,0,1-1.3-1.988c1.157-.569,1.531-1.828,2.157-2.793.8-1.227,1.733-2.327,2.589-3.494.494-.674.763-1.561,1.67-1.909l.459.447a41.534,41.534,0,0,1-2.978,4.741c-1,1.593-1.75,3.319-2.6,5" transform="translate(12.676 7.582)" fill="#8f5e3c"/>
          <path id="Trazado_114513" data-name="Trazado 114513" d="M20.734,35.96c.445.865,1.332,1.035,2.115,1.3a8.475,8.475,0,0,0,1.461.4,4,4,0,0,1,1.952,1.277c-.037.1-.063.263-.116.272a14.787,14.787,0,0,1-7.007-1.407c-.029-.015-.022-.1-.056-.294a7.549,7.549,0,0,1,1.651-1.553" transform="translate(13.335 25.128)" fill="#2a8f35"/>
          <path id="Trazado_114514" data-name="Trazado 114514" d="M18.021,1.633C17,2.656,15.583,3.25,14.788,4.5a16.1,16.1,0,0,1-2.468,3.433,1.88,1.88,0,0,0-1.452.328,6.828,6.828,0,0,1,1.607-3.121,14.627,14.627,0,0,1,2.842-2.577,5.151,5.151,0,0,1,2.7-.929" transform="translate(7.594 1.141)" fill="#2dab41"/>
          <path id="Trazado_114515" data-name="Trazado 114515" d="M16.942,14.338l-.51.112c-.4-.116-.177-.688-.606-.831l.542-.454c.168.341.347.7.574,1.172" transform="translate(11.059 9.2)" fill="#593923"/>
          <path id="Trazado_114516" data-name="Trazado 114516" d="M16.61,23.769a4.98,4.98,0,0,1,.651-1.656,2.3,2.3,0,0,1-.326,1.656Z" transform="translate(11.607 15.452)" fill="#915f3d"/>
        </g>
      </g>
    </g>
  </g>
</svg>
