<svg xmlns="http://www.w3.org/2000/svg" width="41.475" height="25.305" viewBox="0 0 41.475 25.305">
  <path id="Trazado_586296" data-name="Trazado 586296" d="M8.47-18.27a12.947,12.947,0,0,0-1.155,5.915A12.947,12.947,0,0,0,8.47-6.44,3.806,3.806,0,0,0,12.075-4.2a3.806,3.806,0,0,0,3.6-2.24,12.947,12.947,0,0,0,1.155-5.915A12.947,12.947,0,0,0,15.68-18.27a3.806,3.806,0,0,0-3.6-2.24A3.806,3.806,0,0,0,8.47-18.27ZM12.075.28Q7,.28,4.48-3.168T1.96-12.373q0-5.758,2.52-9.205t7.6-3.448q5.075,0,7.6,3.448t2.52,9.205q0,5.758-2.52,9.205T12.075.28Zm21.28-11.69a31.289,31.289,0,0,0,3.1-3.518,4.422,4.422,0,0,0,.928-2.537,2.811,2.811,0,0,0-.805-2.048,2.764,2.764,0,0,0-2.065-.823q-2.31,0-4.375,3.29l-4.375-2.59a13.55,13.55,0,0,1,3.762-4.025,9.218,9.218,0,0,1,5.215-1.365A8.4,8.4,0,0,1,40.3-23.013a6.775,6.775,0,0,1,2.4,5.477,7.357,7.357,0,0,1-.963,3.623,23.655,23.655,0,0,1-3.552,4.427L33.775-4.9h9.66V0H26.18V-4.06Z" transform="translate(-1.96 25.025)" fill="#12263f"/>
</svg>
