<svg xmlns="http://www.w3.org/2000/svg" width="53" height="53" viewBox="0 0 53 53">
  <g id="Grupo_80735" data-name="Grupo 80735" transform="translate(2078 4918)">
    <g id="Grupo_80711" data-name="Grupo 80711" transform="translate(-2678 -11988)">
      <circle id="Elipse_4732" data-name="Elipse 4732" cx="26.5" cy="26.5" r="26.5" transform="translate(600 7070)" fill="#f0d1ff"/>
      <circle id="Elipse_4733" data-name="Elipse 4733" cx="19.5" cy="19.5" r="19.5" transform="translate(607 7077)" fill="#161730"/>
    </g>
    <path id="Trazado_586293" data-name="Trazado 586293" d="M-4.254-6.251l.782-6.546H4.008v2.285H-1.063l-.29,2.56a3.493,3.493,0,0,1,.831-.327A3.79,3.79,0,0,1,.483-8.42,3.754,3.754,0,0,1,3.415-7.291,4.549,4.549,0,0,1,4.438-4.122a4.541,4.541,0,0,1-.549,2.228A3.776,3.776,0,0,1,2.347-.36,4.87,4.87,0,0,1,0,.176a5.24,5.24,0,0,1-2.259-.5A4.052,4.052,0,0,1-3.911-1.682,3.308,3.308,0,0,1-4.5-3.636h2.971a1.68,1.68,0,0,0,.448,1.114,1.423,1.423,0,0,0,1.063.412q1.494,0,1.494-2.21,0-2.044-1.828-2.044A1.824,1.824,0,0,0-1.9-5.7Z" transform="translate(-2051 -4885)" fill="#fff" stroke="rgba(0,0,0,0)" stroke-width="1"/>
  </g>
</svg>
