<svg id="Grupo_157005" data-name="Grupo 157005" xmlns="http://www.w3.org/2000/svg" xmlns:xlink="http://www.w3.org/1999/xlink" width="69" height="50.35" viewBox="0 0 69 50.35">
  <defs>
    <clipPath id="clip-path">
      <rect id="Rectángulo_37329" data-name="Rectángulo 37329" width="69" height="50.349" fill="none"/>
    </clipPath>
  </defs>
  <g id="Grupo_157003" data-name="Grupo 157003" transform="translate(0 0)" clip-path="url(#clip-path)">
    <path id="Trazado_121307" data-name="Trazado 121307" d="M66.286,14.123c.389-.065.5-.428.8-.552V10.9c.765-.154,1.626-.239,1.889-1.1,0-.584-.041-1.17.01-1.751a1.968,1.968,0,0,0-1.016-1.944h-29.4V4.793a3.391,3.391,0,0,0,1.6-.96c-.159-1.116.258-2.326-.292-3.474A3.113,3.113,0,0,0,38.159,0Q19.577.014.994.007A2.585,2.585,0,0,0,.028,1.056V3.645A3.3,3.3,0,0,0,1.9,4.758v9.935c-.172.379-.75.327-1.027.709v.713a1.756,1.756,0,0,0,1.006.684V30.082l-.668.064-.425.785c-.1.389.644.43.309.813l.79.047V45.558l-1.5.619c-.67.967-.206,2.072-.357,2.978a2.487,2.487,0,0,0,.972,1.195H49.728c.193-.257.591-.362.666-.7.363-.7-.241-.913-.768-1.165-3.572-.209-7.149-.043-10.724-.092-1.372-.019-2.744-.008-4.218-.014a5.59,5.59,0,0,1,1.406-1.413q4.306-3.782,8.633-7.543a4.583,4.583,0,0,1,4.747-1.072,6.045,6.045,0,0,1,1.94,1.037c3.448,2.9,6.79,5.9,10.364,9-2.41.012-4.593,0-6.777.008a3.85,3.85,0,0,0-1.459.143c-.545.225-.884.56-.451,1.111-.107.326.148.5.394.7H68a2.277,2.277,0,0,0,.962-1.182V46.727a3.658,3.658,0,0,0-1.848-1.158V34.207c.485-.072.728-.413,1.049-.67v-.7c-.2-.376-.769-.334-1.044-.705V21.275a2.187,2.187,0,0,0,1.038-.672v-.7c-.175-.392-.773-.315-1.044-.785V16.853c-.257-.249-.456-.47-.831-.378-1.013-.429-1.238.191-1.419.83-.156.55.085,1.178-.434,1.654a1.852,1.852,0,0,1-1.15.24c-7.387,0-14.773.017-22.16-.019a3.9,3.9,0,0,1-1.9-.257A1.975,1.975,0,0,1,39.4,16.74a1.423,1.423,0,0,0,.022-1.665,5,5,0,0,1-.309-3.592,5.294,5.294,0,0,1,2.2-.3c7.067.085,14.133.013,21.2.04a5.3,5.3,0,0,1,1.935.178c.423.53.228,1.111.384,1.628.194.64.337,1.367,1.449,1.1" transform="translate(0 0)"/>
    <path id="Trazado_121308" data-name="Trazado 121308" d="M65,20.879c.261.017.269-.14.269-.3,0-.733,0-1.466,0-2.121.27-.459.683-.406,1.077-.4V15.7a1.9,1.9,0,0,1-1.113-.618V12.41H41.3a1.552,1.552,0,0,0-.442,1.2c-.03,2.031-.034,4.061,0,6.092a1.387,1.387,0,0,0,.435,1.175,1.572,1.572,0,0,0,.795.117q11.068.005,22.135,0A1.4,1.4,0,0,0,65,20.879" transform="translate(-0.063 -1.581)" fill="#0592fb"/>
    <path id="Trazado_121309" data-name="Trazado 121309" d="M49.644,54.267c.432.207.849.424.808.941h2.694v-.589l.423-.365h9.124l-.9-.783Q56.9,49.2,52.011,44.924a4.734,4.734,0,0,0-2.367-1.244c-.692-.1-1.054.351-1.455.7q-4.8,4.172-9.578,8.368c-.392.345-.912.654-.825,1.272a3.942,3.942,0,0,0,1.7.12c2.95.017,5.9,0,8.852.015a2.442,2.442,0,0,1,1.3.113" transform="translate(-0.058 -5.562)" fill="#796d78"/>
    <path id="Trazado_121310" data-name="Trazado 121310" d="M30.761,52.455c.389-.065.552-.376.795-.587q4.728-4.1,9.438-8.232V31.407a.52.52,0,0,0-.084-.081.236.236,0,0,0-.113-.043c-2.867,0-5.733,0-8.648,0v4.471l-.566.838a2.431,2.431,0,0,1-.282.1,4.944,4.944,0,0,0-.775.071,9.136,9.136,0,0,1-4.113-.08,1.641,1.641,0,0,1-1.043-1.567c.012-1.25,0-2.5,0-3.833H19.986a1.794,1.794,0,0,0-.443,1.438c-.013,3.133-.018,6.266,0,9.4a1.846,1.846,0,0,0,.541,1.531c1.69.559,3.643-.15,5.434.425a1.332,1.332,0,0,1,.774,1.387c.021,1.363.041,2.727,0,4.09-.038,1.141-.459,1.5-1.805,1.578-1.023.061-2.052,0-3.076.032-.568.019-1.181-.04-1.583.45a.753.753,0,0,0,.311.961c3.457-.079,7.04.143,10.624-.118" transform="translate(-0.03 -3.984)" fill="#febc85"/>
    <path id="Trazado_121311" data-name="Trazado 121311" d="M10.27,4.266c.042.241-.434.3-.268.584a4.162,4.162,0,0,1-2.426.357,1.666,1.666,0,0,0-.448,1.316c-.021,2.5-.025,5,0,7.5a1.517,1.517,0,0,0,.442,1.294,1.913,1.913,0,0,0,.931.116q13.49,0,26.982,0a1.7,1.7,0,0,0,.914-.113V5.228H13.647c-.211-.282-.609-.387-.683-.726a2.069,2.069,0,0,0-2.694-.236" transform="translate(-0.011 -0.495)" fill="#fdd302"/>
    <path id="Trazado_121312" data-name="Trazado 121312" d="M14.31,32.324c0-.353-.009-.705,0-1.058a5.292,5.292,0,0,1,.281-2.6l.9-.784H36.335V19.15H7.576a1.78,1.78,0,0,0-.45,1.429q-.024,5.146,0,10.29A1.824,1.824,0,0,0,7.645,32.4a59.862,59.862,0,0,0,6.665-.078" transform="translate(-0.011 -2.439)" fill="#fdd302"/>
    <path id="Trazado_121313" data-name="Trazado 121313" d="M41.3,28.506c1.37.094,1.878.532,1.883,1.654.009,1.683,0,3.367,0,5.05,1.255.188,15.39.249,22.035.093V24.271H41.3a4.615,4.615,0,0,0,0,4.235" transform="translate(-0.063 -3.091)" fill="#0592fb"/>
    <path id="Trazado_121314" data-name="Trazado 121314" d="M65.231,39.122H43.239v3.484c.657-.377,1.261-.764,1.909-1.086a5.236,5.236,0,0,1,2.167-.508c.719-.018,1.5-.259,2.183.189a6.065,6.065,0,0,1,3.713,1.822c2.869,2.534,5.765,5.045,8.675,7.586h3.346Z" transform="translate(-0.066 -4.983)" fill="#0592fb"/>
    <path id="Trazado_121315" data-name="Trazado 121315" d="M7.576,50.3H14.31V36.654c-2.217-.256-4.438-.046-6.575-.112a1.614,1.614,0,0,0-.606,1.569q-.031,5.38,0,10.759a1.781,1.781,0,0,0,.45,1.429" transform="translate(-0.011 -4.652)" fill="#fdd302"/>
    <path id="Trazado_121316" data-name="Trazado 121316" d="M25.908,43.75c0-.324-.288-.231-.482-.232-1.786-.005-3.574,0-5.444,0V31.281H16.623a.612.612,0,0,0-.1.079.179.179,0,0,0-.045.1q0,10.561,0,21.128a1.789,1.789,0,0,0,1.03.1q6.248.014,12.5-.005c.246,0,.656.234.75-.223H20.069c-.178-.328-.041-.641-.088-.941-1.672-.663-1.877-1.9-1.756-3.306.074-.853-.02-1.716.029-2.573.063-1.108.442-1.449,1.73-1.5,1.427-.061,2.858,0,4.286-.027a2.3,2.3,0,0,0,1.636-.353" transform="translate(-0.025 -3.984)" fill="#f5a86b"/>
    <path id="Trazado_121317" data-name="Trazado 121317" d="M7.571,50.283V36.638H14.3c0-.322-.287-.231-.48-.231-3.307-.005-6.614,0-9.973,0v13.88Z" transform="translate(-0.006 -4.635)" fill="#f9c500"/>
    <path id="Trazado_121318" data-name="Trazado 121318" d="M14.3,32.324H7.571V19.15H3.947a.559.559,0,0,0-.1.076.172.172,0,0,0-.048.1q0,6.563,0,13.134a1.808,1.808,0,0,0,1.031.094q4.429.017,8.858,0c.216,0,.568.165.615-.228" transform="translate(-0.006 -2.439)" fill="#f9c500"/>
    <path id="Trazado_121319" data-name="Trazado 121319" d="M36.393,15.516H7.571V5.4H3.81C3.788,7.061,3.8,8.725,3.8,10.388c0,1.679,0,3.357,0,5.011l.4.353c.1.079.333,0,.543,0q15.247.007,30.493-.011c.374,0,.886.293,1.153-.22" transform="translate(-0.006 -0.688)" fill="#f9c500"/>
    <path id="Trazado_121320" data-name="Trazado 121320" d="M49.638,54.2c-.048-.394-.4-.227-.617-.228q-4.912-.016-9.826-.008H37.651l.907-.791q5.092-4.448,10.188-8.89c.276-.24.48-.563.892-.669a4.563,4.563,0,0,0-1.844-.464,7.317,7.317,0,0,0-3.222,1.442c-3.558,3.194-7.2,6.321-10.8,9.472a.307.307,0,0,0,.052.081.2.2,0,0,0,.108.053q7.855,0,15.711,0" transform="translate(-0.052 -5.494)" fill="#685e68"/>
    <path id="Trazado_121321" data-name="Trazado 121321" d="M10.269,4.031c.623,0,1.251.038,1.868-.015.355-.031.537.209.826.25V3.675l.686-.586H38.014a1.043,1.043,0,0,0-.029-1.056H6.9c-.443.418-.385.735-.129,1.056.523,0,1.049.031,1.569-.009a3.114,3.114,0,0,1,1.579.3l.354.653" transform="translate(-0.01 -0.259)" fill="#f7c300"/>
    <path id="Trazado_121322" data-name="Trazado 121322" d="M65,20.879h-23.7V12.41H38.616c-.03,1.382,0,2.768-.016,4.171.693.014.759.555,1.051.894-.3.3-.323.873-1.021.852v2.788H39.8q12.089,0,24.179-.017c.325,0,.808.285,1.018-.219" transform="translate(-0.059 -1.581)" fill="#0181fa"/>
    <path id="Trazado_121323" data-name="Trazado 121323" d="M41.029,10.1H67.153c-.115-.361.3-.743-.265-.941a1.688,1.688,0,0,0-.913-.113q-12.006,0-24.012,0A3.483,3.483,0,0,0,41.1,9.1a.645.645,0,0,0-.07,1" transform="translate(-0.063 -1.151)" fill="#017ff6"/>
    <path id="Trazado_121324" data-name="Trazado 121324" d="M6.76,3.076V2.254c1.2-.178,26.34-.245,31.178-.082.162.288.02.6.069.9.541-.3.114-.742.329-1.141H2.282c-.443.227-.435.631-.306,1.141Z" transform="translate(-0.003 -0.247)" fill="#e1b200"/>
    <path id="Trazado_121325" data-name="Trazado 121325" d="M41.295,28.506V24.271H38.742a.659.659,0,0,0-.095.08.182.182,0,0,0-.044.1c0,1.325,0,2.649,0,4.053Z" transform="translate(-0.059 -3.091)" fill="#0181fb"/>
    <path id="Trazado_121326" data-name="Trazado 121326" d="M41.025,10.081v-.83a.629.629,0,0,1,.094-.073.267.267,0,0,1,.116-.037h25.65c.03-.148-.074-.227-.213-.231-.4-.012-.806,0-1.208,0H38.684a2.859,2.859,0,0,0-.07,1.176Z" transform="translate(-0.059 -1.134)" fill="#016ef0"/>
    <path id="Trazado_121327" data-name="Trazado 121327" d="M6.76,54.466H1.966c-.066.436-.177.816.352,1.157a2.943,2.943,0,0,0,.937.014q5.151.013,10.3-.006c.244,0,.652.232.745-.224a2.27,2.27,0,0,0-1.622-.363c-1.374-.023-2.749.008-4.124-.016a2.162,2.162,0,0,1-1.8-.562" transform="translate(-0.003 -6.937)" fill="#e1b200"/>
    <path id="Trazado_121328" data-name="Trazado 121328" d="M6.767,54.466v.816a.584.584,0,0,0,.09.083.224.224,0,0,0,.113.04q3.669,0,7.34,0c.6-.191.066-.594.416-.941Z" transform="translate(-0.01 -6.937)" fill="#f5c200"/>
    <path id="Trazado_121329" data-name="Trazado 121329" d="M29.965,31.247c.019-.227-.16-.235-.342-.235H27.59v4h1.3c.576-.6.361-1.314.4-1.99.038-.651-.032-1.324.678-1.775" transform="translate(-0.042 -3.95)" fill="#f94755"/>
    <path id="Trazado_121330" data-name="Trazado 121330" d="M29.967,31.281H28.9c-.033,1.251,0,2.508-.014,3.765h1.063c.033-1.251,0-2.509.015-3.765" transform="translate(-0.044 -3.984)" fill="#f9626d"/>
    <path id="Trazado_121331" data-name="Trazado 121331" d="M67.143,54.517H64.278l1.292,1.127h1.2c.5-.266.486-.669.373-1.127" transform="translate(-0.099 -6.943)" fill="#0178e9"/>
    <path id="Trazado_121332" data-name="Trazado 121332" d="M45.929,50.274c-.023.529-.482.75-.273,1.215l.822.521h1.448c.365-.239.423-.631.663-.934-.208-.46-.72-.6-1.125-.855-.571-.364-.923.431-1.535.053" transform="translate(-0.07 -6.384)" fill="#050405"/>
    <path id="Trazado_121333" data-name="Trazado 121333" d="M55.86,53.1v-.959c-.56-.466-1.268-.354-2.051-.371l-.608.726v.6c.846.738,1.358.751,2.659.005" transform="translate(-0.082 -6.593)" fill="#040404"/>
    <path id="Trazado_121334" data-name="Trazado 121334" d="M49.48,46.965l-.322.28v1l.369.322h1.86c.647-.373.374-.874.421-1.3l-.349-.3Z" transform="translate(-0.075 -5.982)" fill="#030203"/>
    <path id="Trazado_121335" data-name="Trazado 121335" d="M25.91,45.57H18.767l-.938.854c0,1.731,0,3.493,0,5.255,0,.256-.1.525.168.764.169.149.118.48.393.55a3.981,3.981,0,0,0,1.589.34H25.42a2.4,2.4,0,0,0,1.294-.931V46.151c-.295-.168-.415-.516-.8-.581" transform="translate(-0.027 -5.804)" fill="#010101"/>
    <path id="Trazado_121336" data-name="Trazado 121336" d="M24.566,51.7c.266.018.269-.143.269-.3,0-1.285,0-2.57,0-3.893H19.99c-.008,1.344,0,2.73,0,4.2h2.156c.555-.561.366-1.246.41-1.892a3.013,3.013,0,0,1,.2-1.478,1,1,0,0,1,1.151-.065c.667,1.058-.231,2.387.66,3.435" transform="translate(-0.031 -6.05)" fill="#f2eff2"/>
    <path id="Trazado_121337" data-name="Trazado 121337" d="M24.569,51.726V47.752c-.773-.054-1.555-.011-2.424-.03v4Z" transform="translate(-0.034 -6.078)" fill="#fafafa"/>
  </g>
</svg>
