<svg xmlns="http://www.w3.org/2000/svg" xmlns:xlink="http://www.w3.org/1999/xlink" width="72.948" height="72.721" viewBox="0 0 72.948 72.721">
  <defs>
    <clipPath id="clip-path">
      <rect id="Rectángulo_37594" data-name="Rectángulo 37594" width="72.948" height="72.721" transform="translate(0 0)" fill="none"/>
    </clipPath>
  </defs>
  <g id="Grupo_845837" data-name="Grupo 845837" transform="translate(0 0.001)">
    <g id="Grupo_845836" data-name="Grupo 845836" clip-path="url(#clip-path)">
      <path id="Trazado_583803" data-name="Trazado 583803" d="M27.973,40.1v1.964c0,.232-.03.438-.341.415.013.9.7.842,1.35.949a64.179,64.179,0,0,0,7.183-5.806,2.763,2.763,0,0,0,.762-2.161c.038-1.671.607-2.925,2.4-3.434a8.041,8.041,0,0,0,2.737-1.945c1.8-1.506,3.072-1.6,4.669-.429a2.613,2.613,0,0,1,.859,1.42c-.175-.111-.321-.286-.556-.153a4.354,4.354,0,0,0-.953,3.045c.4,1.539,0,3.136.326,4.682a.113.113,0,0,1-.045.078,1.288,1.288,0,0,1-.159-.06c-2.586,3.042-4.85,6.329-7.248,9.514A16.064,16.064,0,0,1,34.7,52.458c-.312.192-.735.373-.59.893a12.488,12.488,0,0,0,3.349-.208c.189.379-.024.953.1,1.567h.674q15.438,0,30.876-.017c.365,0,.911.335,1.117-.323-.81-.733-1.817-.525-2.755-.527q-13.08-.027-26.16-.012a10.011,10.011,0,0,1-1.864-.079c-.672-.127-1.043-.444-.68-1.169.592-.643,1.371-.443,2.083-.444q13.045-.018,26.091-.011a7.718,7.718,0,0,0,2.356-.169c1.106-.5,1.058-1.5,1.062-2.461.018-4.231.007-8.463.008-12.694q0-11.426-.008-22.85a3.98,3.98,0,0,0-.377-2.464,3.129,3.129,0,0,0-2.12-.411q-18.1-.015-36.2,0a3.4,3.4,0,0,0-1.98.329c-.648.707-.475,1.59-.476,2.416-.016,7.715-.006,15.431-.014,23.147a6.226,6.226,0,0,1-.131,2.006c-.19.536-.763.711-1.087,1.122" fill="#dfecfe"/>
      <path id="Trazado_583804" data-name="Trazado 583804" d="M47.053,29.564a2.458,2.458,0,0,0-1.288-1.158A1.644,1.644,0,0,0,45,28.2a20.914,20.914,0,0,0-3.031,1.208c.127.66-.509.479-.76.669-.317.241-.151.658-.464.843h-.717l-.208.607c-.749,0-1.374.624-2.005.441-1.538,1.421-1.331,3.212-1.316,4.879-.467.59-1.364.614-1.561,1.273a1.922,1.922,0,0,1-1.245,1.1c-.6.283-.893,1-1.62,1.02v.672c-1.047.67-2.474.829-2.9,2.233a1.566,1.566,0,0,1-1.536-.677A11.561,11.561,0,0,1,24.334,41a7.074,7.074,0,0,0-3.715-.913c-1.172.044-2.348.009-3.8.009,1.125-.864,2.206-1.359,2.619-2.863V31.49a5.329,5.329,0,0,0,2.4-2.621c0-.231-.025-.681,0-1.127A3.048,3.048,0,0,0,19.713,24.6a4.833,4.833,0,0,0-2.186-.5c-1.527.083-3.062.022-4.594.025A8.916,8.916,0,0,0,8.407,25.5a6.233,6.233,0,0,0-2.216,4.153,8.215,8.215,0,0,0,.117,3.507,11.143,11.143,0,0,0,2.2,3.361V40.1c-.539,0-1.038,0-1.538,0a6.488,6.488,0,0,0-5.578,3.089A7.66,7.66,0,0,0,.024,47.72C.056,51.851.1,55.984,0,60.113a11.073,11.073,0,0,0,.872,4.408,7.083,7.083,0,0,1,.534,2.839c-.038,1.747-.011,3.5-.011,5.361H3.782a1.765,1.765,0,0,0,.408-.769c.192-1.407-.033-2.83.166-4.235a.84.84,0,0,1,.259-.456c4.347-.392,8.684-.116,12.991-.141.852,1.917-.257,3.92.827,5.6h2.335c.016-.593.043-1.195.048-1.8.008-1.076.081-2.159-.016-3.226a10.193,10.193,0,0,1,.753-4.625,3.832,3.832,0,0,0,.281-1.409c.013-2.661.006-5.322.006-7.983V52.612c1.126.242,1.915.9,2.9,1.16a11.489,11.489,0,0,0,3.319.6,19.807,19.807,0,0,0,3.959-.285c.746-.175,1.283-.832,2.089-.736.477-.654,1.352-.715,1.9-1.333.51-.574,1.43-.768,1.624-1.673.727-.308.861-1.1,1.316-1.607.866-.974,1.574-2.057,2.361-3.085.651-.85,1.225-1.763,1.926-2.569a19.437,19.437,0,0,0,1.792-2.467,5.89,5.89,0,0,1,.964-.987c.13-.387-.179-.83.382-.891a13.993,13.993,0,0,0,0-4.757,8.649,8.649,0,0,1,1.022-3.059c.356-.57-.042-.952-.341-1.359"/>
      <path id="Trazado_583805" data-name="Trazado 583805" d="M37.854,51.992v2.2a.832.832,0,0,0,.117.12.287.287,0,0,0,.146.054q16.053,0,32.1,0a3.345,3.345,0,0,0,2.407-2.245,4.624,4.624,0,0,0,.317-2.078c0-15.686,0-31.373,0-46.822A4.237,4.237,0,0,0,69.654,0H29.6a4.894,4.894,0,0,0-2.618,2.515V39.972c.317.233.665.081.988.126.321,0,.642,0,.963,0,.232,0,.421-.046.4-.34a3.65,3.65,0,0,0,.157-1.829q.018-12.279.013-24.557a6.31,6.31,0,0,1,.091-1.85c.477-.439,1.071-.3,1.622-.3q18.62-.013,37.239,0a2.554,2.554,0,0,1,1.467.194,1.182,1.182,0,0,1,.289.96c-.016,12.832.073,25.664-.044,38.494a1.241,1.241,0,0,1-1.438.962q-14.523,0-29.044.007a3.68,3.68,0,0,0-1.834.157" fill="#010101"/>
      <path id="Trazado_583806" data-name="Trazado 583806" d="M18.433,72.721V66.764c-.389-.317-.856-.149-1.282-.15q-6.294-.024-12.589,0c-.272,0-.719-.239-.78.329a2.839,2.839,0,0,0,2.1.474c3.116.011,6.232,0,9.348.009a4.306,4.306,0,0,1,1.837.174c.789.505.487,1.309.556,2.01.1,1.045-.288,2.164.471,3.11Z" fill="#718799"/>
      <path id="Trazado_583807" data-name="Trazado 583807" d="M18.092,72.721c0-1.727,0-3.454,0-5.181,0-.245.121-.593-.337-.6a2.634,2.634,0,0,0-.334.514c-.418,1.294.089,2.693-.421,3.967a2.843,2.843,0,0,1-2.109.433q-4.641.02-9.281,0a3.712,3.712,0,0,0-1.824.182v.68Z" fill="#768da0"/>
      <path id="Trazado_583808" data-name="Trazado 583808" d="M32.743,24.467c.533.086.3.8.92.978h8.146l.815-.807V17.523c.365-.269.916-.3,1.031-.9.1-.536.718-.683.945-1.179-.214-.549-1.147-.656-.969-1.442a2.355,2.355,0,0,0-1.886.366,3.157,3.157,0,0,1-.657.945c-.361.34-1.084.312-1.156.83-.091.653-.764.629-.931.952a14.36,14.36,0,0,1-2.328,2.585c-.132.155-.237.406-.523.364a1,1,0,0,0-.641.843c-.047,1.424.66,2.009,2.049,1.834.875-.2,1.254-1.079,2-1.44.526.408.1.79.07,1.231a9.945,9.945,0,0,1-3.768.12c-.657-1.258-.329-2.6-.323-3.91a1.341,1.341,0,0,1,.274-.377h.649c.067-.9.017-1.809.033-2.718a4.756,4.756,0,0,0-2.726,0l-1.022,1.019a37.262,37.262,0,0,0,0,7.816" fill="#020202"/>
      <path id="Trazado_583809" data-name="Trazado 583809" d="M70.222,51.312a.263.263,0,0,0,.335-.269c.021-.338.006-.678.006-1.017V10.874h-1.5q-19.135,0-38.271.022c-.473,0-1.12-.424-1.46.318.134.093.133.32.341.34h40.2a3.428,3.428,0,0,1,.167,1.826q.018,18.051.017,36.1a3.621,3.621,0,0,0,.157,1.83" fill="#e5f2fe"/>
      <path id="Trazado_583810" data-name="Trazado 583810" d="M48.757,45.875v2.719a87.559,87.559,0,0,0,11.925,0V45.875a87.238,87.238,0,0,0-11.925,0" fill="#0a0a0b"/>
      <rect id="Rectángulo_37591" data-name="Rectángulo 37591" width="13.168" height="2.271" transform="translate(53.615 17.045)" fill="#0f0f11"/>
      <path id="Trazado_583811" data-name="Trazado 583811" d="M60.622,34.007H48.816v2.245c-.023-.021.014.025.06.054a.3.3,0,0,0,.148.052c3.846,0,7.692,0,11.6,0Z" fill="#0f1011"/>
      <path id="Trazado_583812" data-name="Trazado 583812" d="M46.031,24.127h9.881V21.748a87.7,87.7,0,0,0-9.3-.126c-.221,0-.4.188-.566.347a2.956,2.956,0,0,0-.015,2.158" fill="#0b0c0d"/>
      <path id="Trazado_583813" data-name="Trazado 583813" d="M57.275,29.224h-7.5V31.6c2.506.13,5.022.569,7.5-.238a3.047,3.047,0,0,0,0-2.141" fill="#0c0d0e"/>
      <path id="Trazado_583814" data-name="Trazado 583814" d="M49.779,41.118V43.5h7.5a3.086,3.086,0,0,0,0-2.133c-.426-.519-1.021-.427-1.577-.4a42.448,42.448,0,0,0-5.924.159" fill="#0c0d0e"/>
      <path id="Trazado_583815" data-name="Trazado 583815" d="M59.66,41.118v2.365c2.344.032,4.691,0,7.155.017V41.118a31.357,31.357,0,0,0-7.155,0" fill="#0e0f10"/>
      <path id="Trazado_583816" data-name="Trazado 583816" d="M66.815,31.6V29.238c-2.344-.032-4.691,0-7.155-.017V31.6a31.357,31.357,0,0,0,7.155,0" fill="#0e0f10"/>
      <path id="Trazado_583817" data-name="Trazado 583817" d="M70.222,51.312q0-19.152-.022-38.3c0-.471.425-1.116-.319-1.454V51.167c-.266.141-.334.5-.681.485-.112.075-.149.151-.112.226s.074.114.112.114a.839.839,0,0,0,1.022-.68" fill="#e6f3fe"/>
      <path id="Trazado_583818" data-name="Trazado 583818" d="M51.142,16.991H46.031a3.753,3.753,0,0,0,0,2.379h5.111a3.739,3.739,0,0,0,0-2.379" fill="#191a1c"/>
      <path id="Trazado_583819" data-name="Trazado 583819" d="M69.2,51.992v-.34q-15.028,0-30.058.024c-.41,0-1.022-.412-1.288.316Z" fill="#e7f5fe"/>
      <path id="Trazado_583820" data-name="Trazado 583820" d="M29.677,11.554q.014-.352-.341-.34V39.759a.262.262,0,0,0,.335-.268c.019-.451.006-.9.006-1.354Z" fill="#e9f6fe"/>
      <path id="Trazado_583821" data-name="Trazado 583821" d="M65.792,33.982H63.066a3.753,3.753,0,0,0,0,2.379h2.726a3.739,3.739,0,0,0,0-2.379" fill="#282b2e"/>
      <path id="Trazado_583822" data-name="Trazado 583822" d="M58.3,21.748v2.3c.745.176,1.513.012,2.385.121V21.748a3.771,3.771,0,0,0-2.385,0" fill="#1c1e20"/>
      <path id="Trazado_583823" data-name="Trazado 583823" d="M53.592,19.992h13.37c-1.251-.356-10.456-.433-13.37,0" fill="#e4f1fe"/>
      <path id="Trazado_583824" data-name="Trazado 583824" d="M66.745,16.371H53.359c1.3.355,10.595.426,13.386,0" fill="#e2effe"/>
      <path id="Trazado_583825" data-name="Trazado 583825" d="M60.682,48.594H48.757a.26.26,0,0,0,.269.334q5.694.012,11.387,0a.26.26,0,0,0,.269-.334" fill="#e9f6fe"/>
      <path id="Trazado_583826" data-name="Trazado 583826" d="M60.618,36.757h-12c1.234.357,9.07.432,12,0" fill="#e2effe"/>
      <path id="Trazado_583827" data-name="Trazado 583827" d="M48.826,33.582H60.849a62.14,62.14,0,0,0-12.023,0" fill="#e4f1fe"/>
      <path id="Trazado_583828" data-name="Trazado 583828" d="M48.757,45.875H60.682a.26.26,0,0,0-.269-.334q-5.694-.012-11.387,0a.26.26,0,0,0-.269.334" fill="#e9f7fe"/>
      <path id="Trazado_583829" data-name="Trazado 583829" d="M46.031,22.088a1.985,1.985,0,0,1,1.388-.344c2.831.009,5.662,0,8.493,0,0-.464-.361-.334-.607-.335q-4.568-.01-9.129,0c-.142.266-.5.335-.486.68.114.165.227.165.341,0" fill="#e5f2fe"/>
      <path id="Trazado_583830" data-name="Trazado 583830" d="M46.429,24.75h9.587c-1.169-.359-6.558-.431-9.587,0" fill="#e6f4fe"/>
      <path id="Trazado_583831" data-name="Trazado 583831" d="M32.743,24.467V16.651c-.039-.1-.079-.192-.119-.288a41.094,41.094,0,0,0-.119,8.378c.227.037.247-.106.238-.274" fill="#e7f5fe"/>
      <path id="Trazado_583832" data-name="Trazado 583832" d="M57.275,31.263a1.981,1.981,0,0,1-1.386.344c-2.037-.01-4.073,0-6.11,0,0,.463.359.32.606.335.28.018.563.005.845.005h5.9c.143-.267.5-.335.486-.68-.114-.165-.227-.165-.341,0" fill="#e5f2fe"/>
      <path id="Trazado_583833" data-name="Trazado 583833" d="M49.779,41.118c2.036,0,4.073.006,6.109,0a1.984,1.984,0,0,1,1.387.344c.094-.076.125-.151.094-.227s-.063-.113-.094-.113a.26.26,0,0,0-.269-.334q-3.479-.013-6.959,0a.26.26,0,0,0-.268.334" fill="#e4f2fe"/>
      <path id="Trazado_583834" data-name="Trazado 583834" d="M49.838,28.829h7.556a24.212,24.212,0,0,0-7.556,0" fill="#e6f4fe"/>
      <path id="Trazado_583835" data-name="Trazado 583835" d="M49.842,44.119h7.57a24.623,24.623,0,0,0-7.57,0" fill="#e6f4fe"/>
      <path id="Trazado_583836" data-name="Trazado 583836" d="M59.71,28.824h7.158a21.439,21.439,0,0,0-7.158,0" fill="#e6f4fe"/>
      <path id="Trazado_583837" data-name="Trazado 583837" d="M59.719,44.176c1.909,0,3.818.01,5.726-.008a3,3,0,0,0,1.349-.093,21.707,21.707,0,0,0-7.075.1" fill="#e6f4fe"/>
      <path id="Trazado_583838" data-name="Trazado 583838" d="M66.815,31.6H59.66a.26.26,0,0,0,.268.334q3.309.013,6.619,0a.26.26,0,0,0,.268-.334" fill="#e5f2fe"/>
      <path id="Trazado_583839" data-name="Trazado 583839" d="M59.66,41.118h7.155a.26.26,0,0,0-.268-.334q-3.309-.013-6.619,0a.26.26,0,0,0-.268.334" fill="#e4f2fe"/>
      <path id="Trazado_583840" data-name="Trazado 583840" d="M46.372,33.982v4.757c.041.207-.1.445.118.63.073-.043.213-.085.213-.129.011-1.611.01-3.221.009-4.832,0-.231-.017-.451-.34-.426" fill="#e9f7fe"/>
      <path id="Trazado_583841" data-name="Trazado 583841" d="M51.092,19.769H46.448c-.013.081-.025.156-.024.156a15.623,15.623,0,0,0,4.668-.156" fill="#e4f1fe"/>
      <path id="Trazado_583842" data-name="Trazado 583842" d="M46.426,16.593h4.65a5.077,5.077,0,0,0-2.313-.277c-.776-.023-1.554,0-2.332,0,0,.094,0,.188-.005.282" fill="#e2effe"/>
      <path id="Trazado_583843" data-name="Trazado 583843" d="M63.407,45.535c-.353-.033-.385.368-.661.433v2.5c.251.134.32.487.661.469a.814.814,0,0,0,.214-.415,8.91,8.91,0,0,1,0-2.568.83.83,0,0,0-.217-.415" fill="#e8f5fe"/>
      <path id="Trazado_583844" data-name="Trazado 583844" d="M65.452,48.933c.334.019.4-.325.681-.476V46.214a.3.3,0,0,0-.45.011,5.533,5.533,0,0,0-.454,2.252.84.84,0,0,0,.223.456" fill="#e8f6fe"/>
      <path id="Trazado_583845" data-name="Trazado 583845" d="M65.792,46.215h.341c.018-.333-.326-.4-.478-.68H63.407v.34a2.424,2.424,0,0,0,2.385.34" fill="#e8f6fe"/>
      <path id="Trazado_583846" data-name="Trazado 583846" d="M33.765,15.632h2.726a.258.258,0,0,0-.254-.332c-.919-.016-1.839-.008-2.83-.008a2.018,2.018,0,0,0,.2.335c.027.028.1.005.16.005" fill="#e9f7fe"/>
      <rect id="Rectángulo_37592" data-name="Rectángulo 37592" width="0.17" height="2.719" transform="translate(48.16 45.875)" fill="#e6f3fe"/>
      <path id="Trazado_583847" data-name="Trazado 583847" d="M35.81,20.729l.341-.68c-.3.022-.342-.174-.341-.406,0-.431,0-.862,0-1.293h-.341c-.121.827-.605,1.7.341,2.379" fill="#edfbfe"/>
      <path id="Trazado_583848" data-name="Trazado 583848" d="M36.889,15.695v2.6a3.668,3.668,0,0,0,0-2.6" fill="#e2effe"/>
      <path id="Trazado_583849" data-name="Trazado 583849" d="M47.053,29.564c0,.27-.058.548.227.743.228.155.071.41.114.616s-.093.436.112.623c.072-.035.212-.07.213-.108.014-.591.01-1.182.01-1.707-.239-.259-.472-.129-.676-.167" fill="#e7f4fe"/>
      <path id="Trazado_583850" data-name="Trazado 583850" d="M59.262,31.54V29.28a2.85,2.85,0,0,0,0,2.26" fill="#e6f3fe"/>
      <path id="Trazado_583851" data-name="Trazado 583851" d="M67.211,41.177v2.26a2.833,2.833,0,0,0,0-2.26" fill="#e3f0fe"/>
      <path id="Trazado_583852" data-name="Trazado 583852" d="M67.215,29.274v2.3c.126-.062.271-.1.271-.139.014-.715.01-1.43.01-2.146l-.281-.012" fill="#e3f0fe"/>
      <path id="Trazado_583853" data-name="Trazado 583853" d="M58.3,21.748h2.385a2.186,2.186,0,0,0-2.385,0" fill="#e5f2fe"/>
      <path id="Trazado_583854" data-name="Trazado 583854" d="M59.234,43.374V41.112a3.054,3.054,0,0,0,0,2.262" fill="#e6f3fe"/>
      <path id="Trazado_583855" data-name="Trazado 583855" d="M57.275,41.118V43.5a2.168,2.168,0,0,0,0-2.379" fill="#e9f7fe"/>
      <path id="Trazado_583856" data-name="Trazado 583856" d="M61.305,48.528v-2.26a2.866,2.866,0,0,0,0,2.26" fill="#e6f3fe"/>
      <path id="Trazado_583857" data-name="Trazado 583857" d="M46.031,19.369V16.99a2.168,2.168,0,0,0,0,2.379" fill="#e9f7fe"/>
      <path id="Trazado_583858" data-name="Trazado 583858" d="M51.142,16.991V19.37a2.168,2.168,0,0,0,0-2.379" fill="#e5f2fe"/>
      <path id="Trazado_583859" data-name="Trazado 583859" d="M61.3,24.059V21.8a2.884,2.884,0,0,0,0,2.26" fill="#e6f3fe"/>
      <path id="Trazado_583860" data-name="Trazado 583860" d="M63.067,36.36V33.981a2.168,2.168,0,0,0,0,2.379" fill="#e9f6fe"/>
      <path id="Trazado_583861" data-name="Trazado 583861" d="M67.439,19.307v-2.26a2.85,2.85,0,0,0,0,2.26" fill="#e3f0fe"/>
      <path id="Trazado_583862" data-name="Trazado 583862" d="M65.395,33.359H63.129a2.86,2.86,0,0,0,2.266,0" fill="#e4f1fe"/>
      <path id="Trazado_583863" data-name="Trazado 583863" d="M61.305,36.307v-2.5a1.919,1.919,0,0,0-.278,1.358c-.022.379-.005.761-.005,1.141l.283,0" fill="#e6f3fe"/>
      <path id="Trazado_583864" data-name="Trazado 583864" d="M48.356,36.292v-2.26a2.884,2.884,0,0,0,0,2.26" fill="#e6f4fe"/>
      <path id="Trazado_583865" data-name="Trazado 583865" d="M58.353,24.75h2.266a2.86,2.86,0,0,0-2.266,0" fill="#e6f4fe"/>
      <path id="Trazado_583866" data-name="Trazado 583866" d="M63.117,36.981h2.3c-.062-.126-.1-.27-.139-.271-.717-.013-1.434-.009-2.152-.009l-.012.28" fill="#e2effe"/>
      <path id="Trazado_583867" data-name="Trazado 583867" d="M56.538,24.068v-2.26a2.833,2.833,0,0,0,0,2.26" fill="#e2effe"/>
      <path id="Trazado_583868" data-name="Trazado 583868" d="M65.792,33.982v2.379a2.168,2.168,0,0,0,0-2.379" fill="#e9f7fe"/>
      <path id="Trazado_583869" data-name="Trazado 583869" d="M53.186,19.31c0-.491.017-.983-.007-1.473-.012-.264.12-.556-.206-.91a15.139,15.139,0,0,0-.162,2.381l.375,0" fill="#e4f1fe"/>
      <path id="Trazado_583870" data-name="Trazado 583870" d="M57.275,31.263h.341c0-.543,0-1.085,0-1.628,0-.231-.034-.434-.341-.411Z" fill="#e9f7fe"/>
      <path id="Trazado_583871" data-name="Trazado 583871" d="M65.452,48.933v-.34a1.452,1.452,0,0,0-2.044,0v.34Z" fill="#e9f6fe"/>
      <path id="Trazado_583872" data-name="Trazado 583872" d="M46.031,22.088H45.69c0,.543,0,1.085,0,1.628,0,.231.034.434.341.411Z" fill="#e9f7fe"/>
      <path id="Trazado_583873" data-name="Trazado 583873" d="M2.76,62.186a5.922,5.922,0,0,0,.686,1.974h15.16a10.477,10.477,0,0,0,.859-5.321c-.038-2.771-.01-5.543-.01-8.321l.82-.9c1.353-.059,2.25.959,3.4,1.042l2.547-6.02c-.08-.258-.425-.145-.641-.267a15.312,15.312,0,0,0-3.65-1.829,17.663,17.663,0,0,0-4.067-.068H6.193A6.728,6.728,0,0,0,3.478,44.3a2.453,2.453,0,0,0-.718,1.911q0,7.984,0,15.971" fill="#5489fe"/>
      <path id="Trazado_583874" data-name="Trazado 583874" d="M43.646,33.642a2.374,2.374,0,0,0,.675-1.915.873.873,0,0,0-1.087.1,21.906,21.906,0,0,1-1.7,1.465,5.928,5.928,0,0,1-1.977.866c-.015.005,0,.1,0,.161-.8,1.142.135,2.6-.681,3.738a.771.771,0,0,1-.642.661.773.773,0,0,0-.636.474c-.225.935-1.049,1.179-1.732,1.56-.184.1-.459.158-.525.339-.37,1.018-1.568,1.132-2.078,1.819a14.51,14.51,0,0,1-2.778,2.345c-.142.119-.166.377-.268.629H28.355l-2.413,5.492A2.17,2.17,0,0,0,27.818,52c.565-.039,1.135-.022,1.7-.005a7.877,7.877,0,0,0,4.855-1.826c.752-.54,1.707-.97,1.805-2.1.007-.086.152-.16.231-.241a5.136,5.136,0,0,0,1.805-2.479c.648.02.894-.7.881-.937-.036-.679.78-.432.834-1.022.089-.965,1.246-1.331,1.492-2.259.789-.079.543-1.047.962-1.232.585-.259.644-.756.921-1.157.464-1.676-.149-3.423.341-5.1" fill="#fecdb5"/>
      <path id="Trazado_583875" data-name="Trazado 583875" d="M3.782,72.041c.343-.018.478.362.874.36,4.333-.032,8.666-.02,13.095-.02v-5.1a96.3,96.3,0,0,0-9.775-.146,15.317,15.317,0,0,0-4.194.146Z" fill="#718799"/>
      <path id="Trazado_583876" data-name="Trazado 583876" d="M8.893,32.622a6.406,6.406,0,0,0,1.363,2.039,3.9,3.9,0,0,0,2.385,0c.211.038.288-.093.341-.263a37.27,37.27,0,0,1,2.071-5.174H18c.232,0,.457-.012.432-.339-.765-.353-1.594-.054-2.8-.25a11,11,0,0,0,3.478-.09.841.841,0,0,0,0-1.359c-1.829-.37-3.68-.055-5.516-.17-.661-.042-1.345.176-1.979-.17h-.774c-.553.167-.725,1.048-1.493,1.06-.088.46-.581.781-.459,1.319q0,1.7,0,3.4" fill="#c37120"/>
      <path id="Trazado_583877" data-name="Trazado 583877" d="M11.619,37.72h-.341a2.111,2.111,0,0,0,.157,2.131c.913-.208,1.868.057,2.776-.236.489-.276.123-.885.474-1.215-.1-.429.134-.705.535-1.022a2.123,2.123,0,0,0,1.51-.338,17.471,17.471,0,0,0,.134-4.1c0-.242-.221-.351-.475-.317-.673,1.158-.884,2.532-1.7,3.622.089.788-.415,1.167-1.022,1.475a2.609,2.609,0,0,1-2.044,0" fill="#fed3ba"/>
      <path id="Trazado_583878" data-name="Trazado 583878" d="M2.76,62.186a.26.26,0,0,0,.335-.269q.01-7.716,0-15.434a.26.26,0,0,0-.335-.268,2.671,2.671,0,0,0-.36,1.213q.049,6.772,0,13.544a2.672,2.672,0,0,0,.36,1.214" fill="#568dfe"/>
      <rect id="Rectángulo_37593" data-name="Rectángulo 37593" width="13.969" height="0.34" transform="translate(3.782 66.944)" fill="#73889b"/>
      <path id="Trazado_583879" data-name="Trazado 583879" d="M11.619,26.845c0,.459.355.335.6.335,2.3.008,4.6,0,6.9,0,0-.459-.355-.335-.6-.336-2.3-.007-4.6,0-6.9,0" fill="#ca7621"/>
      <path id="Trazado_583880" data-name="Trazado 583880" d="M38.876,38.059h.6a8.278,8.278,0,0,0,.083-1.911c.016-.609,0-1.218,0-1.827-.337-.018-.406.33-.681.479Z" fill="#fed1b9"/>
      <path id="Trazado_583881" data-name="Trazado 583881" d="M14.685,38.4c-.657.159-.211.685-.341,1.019-.863.471-1.859-.113-2.725.34-.308.023-.341-.179-.341-.411V37.719a.26.26,0,0,0-.334.262c-.017.663-.007,1.326-.007,2.053h3.748Z" fill="#f8c9b2"/>
      <path id="Trazado_583882" data-name="Trazado 583882" d="M8.893,32.622c.056,0,.159.012.162,0a6.662,6.662,0,0,0,0-3.394c0-.014-.106,0-.162,0s-.159-.012-.163,0a6.684,6.684,0,0,0,0,3.394c0,.014.107,0,.163,0" fill="#c77420"/>
      <path id="Trazado_583883" data-name="Trazado 583883" d="M16.389,32.622c.322-.025.34.194.34.425q0,2,0,3.993a.259.259,0,0,0,.334-.259c.011-1.7.006-3.407.006-5.18-.547.234-.748.546-.681,1.021" fill="#f5c7b0"/>
      <path id="Trazado_583884" data-name="Trazado 583884" d="M43.646,33.642l-.114-.285c-.209,0-.229.128-.228.293,0,1.161.007,2.321,0,3.481,0,.512.124,1.055-.278,1.5a.4.4,0,0,0,.116.1.471.471,0,0,0,.164,0c.456,0,.335-.349.337-.593.008-1.5,0-3,0-4.5" fill="#fcd4bb"/>
      <path id="Trazado_583885" data-name="Trazado 583885" d="M19.115,28.545v-.166a23.285,23.285,0,0,1-3.608.2c-.043,0-.079.074-.119.113.025.039.048.112.074.112.99.031,1.98.055,2.971.08.258-.051.652.168.682-.34" fill="#c77420"/>
      <path id="Trazado_583886" data-name="Trazado 583886" d="M12.641,34.661l-.11-.279c-.711.478-1.513.212-2.275.279a2.186,2.186,0,0,0,2.385,0" fill="#ca7521"/>
      <path id="Trazado_583887" data-name="Trazado 583887" d="M11.619,37.72a1.628,1.628,0,0,0,2.044,0Z" fill="#fed6bd"/>
      <path id="Trazado_583888" data-name="Trazado 583888" d="M29.336,8.156a.263.263,0,0,0,.269.334c.338.021.679.006,1.018.006H70.562c0-1.55,0-3.007,0-4.465a1.423,1.423,0,0,0-.684-1.312q-16.189.006-32.38.009a2.677,2.677,0,0,0-1.64.248c-.662.706.345,1.53-.172,2.284-.511.379-.906.194-1.221-.287-.227-.723.792-1.19.343-1.929a2.907,2.907,0,0,0-2.733-.051c-.536.706.332,1.361-.015,2.273-.117.271-.463.22-.812.088-.574-.772.413-1.557-.147-2.268-.72-.539-1.18-.168-1.572.444-.133,1.54.184,3.1-.2,4.626" fill="#5489fe"/>
      <path id="Trazado_583889" data-name="Trazado 583889" d="M32.062,3.4a.259.259,0,0,1,.266-.333q1.1-.024,2.194,0a.26.26,0,0,1,.266.333c.277.3.571.557,1.022.34V3.1c1.013.045,2.043-.345,3.038.315a2.378,2.378,0,0,1,1.366-.366c2.662.024,5.325.011,7.987.011,6.854,0,13.708.007,20.562-.017.366,0,.912.336,1.118-.323a2.341,2.341,0,0,0-1.732-.338q-11.324,0-22.648,0H30.181c-.246.376-.751.527-.845,1.019.114.163.227.163.341,0,.367-.144.668-.51,1.127-.338.152.056.274.145.236.338a.724.724,0,0,0,1.022,0" fill="#568dfe"/>
      <path id="Trazado_583890" data-name="Trazado 583890" d="M29.677,3.4h-.341V8.155c.455,0,.335-.348.337-.592.009-1.388,0-2.777,0-4.165" fill="#578ffe"/>
      <path id="Trazado_583891" data-name="Trazado 583891" d="M35.81,20.729c-.311.023-.341-.183-.341-.414V18.35c-.337-.026-.34.208-.34.439,0,1.405,0,2.811,0,4.267H40.16V20.095a.824.824,0,0,0-.6.634,3.278,3.278,0,0,1-.306,1.289c-.39.378-.915.324-1.4.41H36.371a2.341,2.341,0,0,1-.561-1.7" fill="#b8c2d1"/>
      <path id="Trazado_583892" data-name="Trazado 583892" d="M37.854,22.428c.4.688,1.053.134,1.5.371l.574-.572c-.239-.447.318-1.1-.372-1.5a4.889,4.889,0,0,0-1.7,1.7" fill="#e2effb"/>
      <path id="Trazado_583893" data-name="Trazado 583893" d="M63.407,48.594h2.044c.563-.729.273-1.579.341-2.379-.731-.561-1.583-.272-2.385-.34a2.573,2.573,0,0,0,0,2.719" fill="#1e2022"/>
      <path id="Trazado_583894" data-name="Trazado 583894" d="M18.366,63.6H3.628c1.266.355,11.84.433,14.738,0" fill="#558bfe"/>
      <path id="Trazado_583895" data-name="Trazado 583895" d="M11.619,39.758h2.307c.232,0,.442-.027.419-.34H12.037c-.231,0-.442.027-.418.34" fill="#fed4bc"/>
      <path id="Trazado_583896" data-name="Trazado 583896" d="M35.81,3.738c-.362-.049-.588-.506-1.022-.34-.547.513-1.157.991-1,1.935.6-.045.82.571,1.192.767.861.13,1.117-.5,1.514-.862a1.534,1.534,0,0,0-.68-1.5" fill="#05080f"/>
      <path id="Trazado_583897" data-name="Trazado 583897" d="M32.062,3.4H31.04c.228.688-.64.846-.7,1.484-.13.645.635.771.806,1.194.629.264.965-.309,1.523-.326V4.144c-.093-.194-.546-.323-.609-.746" fill="#060911"/>
      <path id="Trazado_583898" data-name="Trazado 583898" d="M39.394,6.117c.287-.434.979-.616.854-1.336-.092-.481-.576-.648-.815-1-.558-.065-1.121-.177-1.541.454V5.64l.47.477Z" fill="#050911"/>
    </g>
  </g>
</svg>
