<svg xmlns="http://www.w3.org/2000/svg" xmlns:xlink="http://www.w3.org/1999/xlink" width="58.872" height="50.63" viewBox="0 0 58.872 50.63">
  <defs>
    <clipPath id="clip-path">
      <rect id="Rectángulo_37332" data-name="Rectángulo 37332" width="58.872" height="50.63" fill="none"/>
    </clipPath>
  </defs>
  <g id="Grupo_157020" data-name="Grupo 157020" transform="translate(0 0)">
    <g id="Grupo_157008" data-name="Grupo 157008" transform="translate(0 0)" clip-path="url(#clip-path)">
      <path id="Trazado_121380" data-name="Trazado 121380" d="M1.781,44.484,2.4,45.1H8.179c.085.1.26.2.279.323A6.142,6.142,0,0,0,10.5,49.063a11.566,11.566,0,0,0,2.665,1.35,4.748,4.748,0,0,0,1.866.2,7.02,7.02,0,0,0,4.022-1.674,8.58,8.58,0,0,0,1.792-2.712.842.842,0,0,0,.069-.543c-.026-.285.186-.394.329-.559H38.662a7.3,7.3,0,0,0,2.2,3.909,6.394,6.394,0,0,0,8.455-.006,6.85,6.85,0,0,0,2.173-3.92h6.825l.556-.556V40.16a1.582,1.582,0,0,0-.894-.687q0-4.824,0-9.654a2.237,2.237,0,0,0-.216-1.063c-.651-1.3-1.247-2.626-1.855-3.947-.935-2.028-1.839-4.071-2.815-6.079-.158-.325-.212-.674-.379-1a3.677,3.677,0,0,0-.879-1.193H38.673V.578L37.966,0H24.484l-.536.536V7.3H13.47l-.607.74v5.729H2.426l-.567.567V27.552H.58L0,28.285v12.6l.714.531H1.781Z" transform="translate(0 0)"/>
      <path id="Trazado_121381" data-name="Trazado 121381" d="M53.628,32.876c-2.491,0-4.984-.027-7.474.02-.578.011-1.053-.393-1.626-.26-.713-.657-1.686-1.017-2.171-1.936a5.143,5.143,0,0,1-.7-2.472c.018-2.41.006-4.822.006-7.276H38.974c.021-.018-.012,0-.033.032a.184.184,0,0,0-.04.1c0,4.945,0,9.889,0,14.935l-.729.515H37.6l-.549-.659V32H2.106V42.03H6.075l.587.7v.652l-.784.547H3.951v1.785H8.439a.708.708,0,0,0,.321-.57,4.278,4.278,0,0,1,1.173-2.494,6.588,6.588,0,0,1,1.847-1.63,6.618,6.618,0,0,1,1.176-.489,6.412,6.412,0,0,1,4.71.266,5.906,5.906,0,0,1,3.5,4.47c.029.226.2.3.317.476H38.808c.14-.165.306-.281.335-.554a4.871,4.871,0,0,1,1.212-2.6,13.287,13.287,0,0,1,1.588-1.413,5.211,5.211,0,0,1,1.455-.668,6.562,6.562,0,0,1,4.621.248,6.739,6.739,0,0,1,2.608,2.2,4.087,4.087,0,0,1,.941,2.372c0,.121.153.242.282.431h1.778a2.067,2.067,0,0,0,.385-1.516q.016-4.928,0-9.856a2.067,2.067,0,0,0-.385-1.516" transform="translate(-0.252 -2.505)" fill="#9fd368"/>
      <path id="Trazado_121382" data-name="Trazado 121382" d="M40.273,2.1H37.579V6.07l-.614.614H32.6l-.571-.572v-4c-.439-.009-.883-.021-1.327-.026s-.909,0-1.4,0V27.745c.9.16,7.928.21,10.973.07Z" transform="translate(-3.505 -0.249)" fill="#fed1a5"/>
      <path id="Trazado_121383" data-name="Trazado 121383" d="M13.334,17.786H11.56V19.92l-.566.566H6.543l-.534-.534V17.819c-.583-.134-1.18,0-1.807-.081V29.62a89.321,89.321,0,0,0,9.131.069Z" transform="translate(-0.503 -2.122)" fill="#fed1a5"/>
      <path id="Trazado_121384" data-name="Trazado 121384" d="M25.891,19.62V10.49H22.284v1.2l-.725.581h-.633l-.534-.7V10.492H16.814a90.191,90.191,0,0,0-.068,9.129Z" transform="translate(-1.994 -1.255)" fill="#f6c191"/>
      <path id="Trazado_121385" data-name="Trazado 121385" d="M54.185,20.9H49.232c-.218.26-.1.576-.1.863-.013,1.761-.021,3.522,0,5.283a4.47,4.47,0,0,0,.249,2.405l1.35,1.35a8.57,8.57,0,0,0,3.122.22c1.646.021,3.293.005,4.94.005a1.3,1.3,0,0,0-.165-1.195c-1.331-2.731-2.529-5.524-3.849-8.261a1.474,1.474,0,0,0-.59-.671" transform="translate(-5.872 -2.5)" fill="#5d9beb"/>
      <path id="Trazado_121386" data-name="Trazado 121386" d="M16.732,23.041v7.287h9.111c-.012.013.019-.011.039-.044a.2.2,0,0,0,.035-.1c0-2.37,0-4.739,0-7.146H22.292v2.124l-.726.581h-.632l-.534-.7v-2Z" transform="translate(-2.002 -2.756)" fill="#e9af80"/>
      <path id="Trazado_121387" data-name="Trazado 121387" d="M14.477,45.191a6.054,6.054,0,0,0-2.75,2.74c-.093.769-.517,1.654-.13,2.5.167.368-.076.8.356,1.131.447.344.513,1.071,1,1.391a5.411,5.411,0,0,0,1.443.911,8.109,8.109,0,0,0,1.5.307,4.774,4.774,0,0,0,4.8-4.811,3.66,3.66,0,0,0-.413-1.661,5.251,5.251,0,0,0-.954-1.433,5.475,5.475,0,0,0-1.52-1.012,6.1,6.1,0,0,0-1.71-.342c-.622-.029-1.129.434-1.616.276" transform="translate(-1.368 -5.373)" fill="#646c77"/>
      <path id="Trazado_121388" data-name="Trazado 121388" d="M55.194,49.5a4.607,4.607,0,1,0-4.576,4.666A4.75,4.75,0,0,0,55.194,49.5" transform="translate(-5.501 -5.376)" fill="#646c77"/>
      <path id="Trazado_121389" data-name="Trazado 121389" d="M60.629,34.5V47.385h3.652c.065-.585.013-1.177.036-1.809H62.163l-.613-.6c0-.234,0-.464,0-.694l.571-.572h1.237c.074-.894,0-1.792.041-2.69-.453-.063-.658-.4-.929-.648v-.689c.268-.25.475-.584.9-.644V34.5Z" transform="translate(-7.253 -4.127)" fill="#8bc052"/>
      <path id="Trazado_121390" data-name="Trazado 121390" d="M54.878,20.9c1.451,3.413,3.152,6.713,4.6,10.126H62.2L57.517,20.9Z" transform="translate(-6.565 -2.5)" fill="#4a88db"/>
      <path id="Trazado_121391" data-name="Trazado 121391" d="M34.529,4.823H36.3V2.106c-.547-.059-1.138-.008-1.767-.03Z" transform="translate(-4.131 -0.248)" fill="#ec5565"/>
      <path id="Trazado_121392" data-name="Trazado 121392" d="M10.2,17.788H8.425c-.158.261-.052.53-.1.873.593.063,1.185.011,1.757.032.17-.283.064-.551.109-.905" transform="translate(-0.997 -2.128)" fill="#ec5565"/>
      <path id="Trazado_121393" data-name="Trazado 121393" d="M18.852,50.99c-.065-.372.256-.741.275-1.2.018-.477-.438-.8-.246-1.233l-1.109-1.11A2.947,2.947,0,0,0,14.95,47.4l-1.017,1.017a2.979,2.979,0,0,0-.005,2.778l1.143,1.1a3.824,3.824,0,0,0,2.42.061l1.362-1.363" transform="translate(-1.625 -5.63)"/>
      <path id="Trazado_121394" data-name="Trazado 121394" d="M52.258,52.189l1.082-1.082c-.063-.455.278-.806.294-1.269s-.383-.821-.242-1.276l-1.2-1.182a2.948,2.948,0,0,0-2.724.022l-1.142,1.223a2.857,2.857,0,0,0,.146,2.609l.958.958a2.924,2.924,0,0,0,2.831,0" transform="translate(-5.751 -5.629)"/>
      <path id="Trazado_121395" data-name="Trazado 121395" d="M16.933,50.98l.563-.58v-.71l-.634-.532h-.654l-.544.616v.641l.8.565Z" transform="translate(-1.874 -5.881)" fill="#c2c7cf"/>
      <path id="Trazado_121396" data-name="Trazado 121396" d="M50.889,50.978h.557l.568-.609V49.7l-.772-.563h-.495l-.567.575v.713l.709.553" transform="translate(-6.003 -5.878)" fill="#c2c7cf"/>
    </g>
  </g>
</svg>
