<svg xmlns="http://www.w3.org/2000/svg" width="41.37" height="25.305" viewBox="0 0 41.37 25.305">
  <path id="Trazado_586299" data-name="Trazado 586299" d="M8.47-18.27a12.947,12.947,0,0,0-1.155,5.915A12.947,12.947,0,0,0,8.47-6.44,3.806,3.806,0,0,0,12.075-4.2a3.806,3.806,0,0,0,3.6-2.24,12.947,12.947,0,0,0,1.155-5.915A12.947,12.947,0,0,0,15.68-18.27a3.806,3.806,0,0,0-3.6-2.24A3.806,3.806,0,0,0,8.47-18.27ZM12.075.28Q7,.28,4.48-3.168T1.96-12.373q0-5.758,2.52-9.205t7.6-3.448q5.075,0,7.6,3.448t2.52,9.205q0,5.758-2.52,9.205T12.075.28ZM41.86-24.465v4.725H32.2v4.095a8.928,8.928,0,0,1,2.485-.315,9.193,9.193,0,0,1,6.09,2.135A7.114,7.114,0,0,1,43.33-8.068a7.679,7.679,0,0,1-2.643,5.985A9.437,9.437,0,0,1,34.16.28a10.725,10.725,0,0,1-8.3-3.675l2.87-3.99q.315.315.84.77A11.679,11.679,0,0,0,31.5-5.408a5.868,5.868,0,0,0,2.8.753,3.949,3.949,0,0,0,2.485-.84A2.949,2.949,0,0,0,37.87-7.98,3,3,0,0,0,36.7-10.517a4.861,4.861,0,0,0-3.028-.892,9.3,9.3,0,0,0-4.3,1.33L27.09-12.53V-24.465Z" transform="translate(-1.96 25.025)" fill="#12263f"/>
</svg>
