<svg xmlns="http://www.w3.org/2000/svg" xmlns:xlink="http://www.w3.org/1999/xlink" width="53.548" height="53.795" viewBox="0 0 53.548 53.795">
  <defs>
    <clipPath id="clip-path">
      <rect id="Rect치ngulo_37331" data-name="Rect치ngulo 37331" width="53.548" height="53.795" transform="translate(0 0)" fill="none"/>
    </clipPath>
  </defs>
  <g id="Grupo_157019" data-name="Grupo 157019" transform="translate(0 0)">
    <g id="Grupo_157006" data-name="Grupo 157006" clip-path="url(#clip-path)">
      <path id="Trazado_121338" data-name="Trazado 121338" d="M1.791,51.955H0V53.69H24.934V51.961h-1.75V39.74c-1.8-.891-3.587-1.713-5.307-2.657a1.681,1.681,0,0,0-1.845-.034c-1.115.616-2.272,1.155-3.495,1.769-.163-.855-.005-1.662-.1-2.484-.231-.007-.393.237-.651.181-.21-.046-.416.168-.544.263-.247.185-.462.147-.811.2.195-1.115-.325-2.108-.212-3.178.047-.448-.292-.864-.223-1.363a2.921,2.921,0,0,0-.176-1.37A4.79,4.79,0,0,1,9.786,29.6H4.5a1.5,1.5,0,0,0-.055.931c.081.565-.228,1.051-.235,1.588a5.429,5.429,0,0,1-.037,1.666,4.464,4.464,0,0,0-.165,1.932c.042.535-.317.951-.259,1.477a3.973,3.973,0,0,1-.024,1.554,4.834,4.834,0,0,0-.2,1.037c-.5.405-1.172.438-1.735.842Z"/>
      <path id="Trazado_121339" data-name="Trazado 121339" d="M49.692,33.662l-1.18-1.184c-1.8-.284-2.131-.235-3.036.493a2.419,2.419,0,0,0-1.782-.723,2.806,2.806,0,0,0-1.782.717,2.62,2.62,0,0,0-3.114-.376l-1.077,1.08c-.3,1.325-.564,2.735-.944,4.113-.388,1.408-.6,2.855-1.063,4.252-.2.611-.236,1.3-.436,1.946a13.743,13.743,0,0,0-.45,1.818c-.2,1.254-.685,2.435-.894,3.657A3.6,3.6,0,0,0,38.21,53.7a2.4,2.4,0,0,0,1.637-.888,7,7,0,0,1,.752-.767,3.922,3.922,0,0,0,3.128,1.706,3.7,3.7,0,0,0,2.993-1.627c.437.118.627.461.88.709a3.174,3.174,0,0,0,3.173.832,3.565,3.565,0,0,0,2.738-4.139,9.74,9.74,0,0,0-.472-1.7c-.273-.874-.375-1.774-.622-2.646-.209-.735-.369-1.485-.6-2.212-.141-.439.1-.955-.292-1.332a9.355,9.355,0,0,0-.492-2.265c-.2-.8-.343-1.628-.589-2.429-.316-1.03-.5-2.112-.748-3.278"/>
      <path id="Trazado_121340" data-name="Trazado 121340" d="M.821,14.347H0v1.736H19.57V14.415c-.2-.213-.533.018-.824-.113V9.047c.221-.206.548.015.833-.118V4.806l-1.742-.847a6.038,6.038,0,0,0-.361-2.609L16.5.374A6.047,6.047,0,0,0,13.623.02Q9.666.01,5.71.019a5.653,5.653,0,0,0-2.6.332l-1.121,1.2A5.7,5.7,0,0,0,1.75,3.946L.01,4.794V8.9c.183.222.52-.049.811.14Z"/>
      <path id="Trazado_121341" data-name="Trazado 121341" d="M53.294,1.46,52.223.385a5.746,5.746,0,0,0-2.8-.365Q42.064.014,34.7.023a6.981,6.981,0,0,0-3.013.305L30.636,1.4a6.193,6.193,0,0,0-.315,2.814c-.006,2.649-.011,5.3,0,7.945a5.243,5.243,0,0,0,.227,2.471l1.254,1.244a7.047,7.047,0,0,0,2.9.254c5.169.01,10.339-.012,15.508.018a3.092,3.092,0,0,0,2.772-1.138,2.3,2.3,0,0,1,.235-.239,4.948,4.948,0,0,0,.312-2.443q.008-4.085,0-8.169a12.345,12.345,0,0,1,.013-1.453c.055-.458-.309-.805-.249-1.246"/>
      <path id="Trazado_121342" data-name="Trazado 121342" d="M32.842,17.881,30.574,19.29a2.009,2.009,0,0,1-1.318-.753,15.68,15.68,0,0,0-.544-2.373H24.826a8.556,8.556,0,0,0-.553,2.226c-.194.516-.688.661-1.174.909a11.1,11.1,0,0,1-2.29-1.361L17.866,20.89l1.349,2.228a2.537,2.537,0,0,1-.809,1.265,11.24,11.24,0,0,0-2.331.527v3.926a9.31,9.31,0,0,0,2.343.547,2.563,2.563,0,0,1,.8,1.253l-1.351,2.232,2.908,2.917,2.171-1.317a2.005,2.005,0,0,1,1.33.79c.1.269-.109.577.155.838.2.2.086.495.078.743-.011.319.322.467.322.774h3.85a14.372,14.372,0,0,0,.632-2.463,2.087,2.087,0,0,1,1.216-.691l2.158,1.306,2.924-2.933-1.3-2.138a2.512,2.512,0,0,1,.8-1.349,7.259,7.259,0,0,0,2.33-.48V24.939a5.135,5.135,0,0,0-2.26-.522,2.286,2.286,0,0,1-.886-1.245,17.845,17.845,0,0,1,1.38-2.3.463.463,0,0,0,0-.1.19.19,0,0,0-.043-.093c-.918-.923-1.837-1.845-2.789-2.8"/>
      <path id="Trazado_121343" data-name="Trazado 121343" d="M47.921,30.095l.332.333h1.412a22.636,22.636,0,0,0,.093-6.634,30.132,30.132,0,0,0-1.641-6.1c-.436.433-1.117.312-1.57.857a21.513,21.513,0,0,1,1.374,11.54" fill="#010101"/>
      <path id="Trazado_121344" data-name="Trazado 121344" d="M7.12,18.274a6.117,6.117,0,0,0-1.683-.611A22.965,22.965,0,0,0,3.551,27.7c.28.168.581.052.866.073s.575.005.916.005a21.214,21.214,0,0,1,1.787-9.5" fill="#010101"/>
      <path id="Trazado_121345" data-name="Trazado 121345" d="M21.688,6.022a13.237,13.237,0,0,1,3.275-.593A24.2,24.2,0,0,1,28.51,5.39V3.6H26.654a5.668,5.668,0,0,0-1.98.049c-.635.255-1.288-.063-1.8.209-.551.293-1.228.017-1.726.576.365.436.136,1.112.538,1.589" fill="#010101"/>
      <path id="Trazado_121346" data-name="Trazado 121346" d="M24.993,48.353v1.71a19.068,19.068,0,0,0,7.332-.667l-.464-1.644a23.311,23.311,0,0,1-6.868.6" fill="#010101"/>
      <path id="Trazado_121347" data-name="Trazado 121347" d="M10.642,38.982,3.571,41.823V51.871c-.008-.007.015.024.046.043a.192.192,0,0,0,.1.034h6.928Z" fill="#00a06c"/>
      <path id="Trazado_121348" data-name="Trazado 121348" d="M12.5,51.929h1.71V44.946a1.179,1.179,0,0,1,.113-.121.184.184,0,0,1,.1-.037c1.7,0,3.407,0,5.148,0v7.129c.6.068,1.178.017,1.788.039V40.823c-1.25-.6-2.568-1.2-3.841-1.874a1.053,1.053,0,0,0-1.172,0c-1.242.664-2.53,1.241-3.841,1.873Z" fill="#00b278"/>
      <path id="Trazado_121349" data-name="Trazado 121349" d="M5.815,34.974a17.609,17.609,0,0,1-.224,1.953A6.574,6.574,0,0,0,5.546,39a24.393,24.393,0,0,0,3.13-1.244,6.131,6.131,0,0,0-.344-2.784Z" fill="#00b277"/>
      <path id="Trazado_121350" data-name="Trazado 121350" d="M16.073,51.93h1.711V46.6c-.527-.059-1.1-.008-1.711-.03Z" fill="#00a06c"/>
      <path id="Trazado_121351" data-name="Trazado 121351" d="M8.188,31.655l-.278-.279H6.3A2.571,2.571,0,0,0,5.995,33.1H8.188Z" fill="#009e6a"/>
      <path id="Trazado_121352" data-name="Trazado 121352" d="M36.556,46.509c1.784.158,1.773-.1,3.806,1.259,0-.427.009-.786,0-1.145-.054-1.911.394-3.8.225-5.718a9.868,9.868,0,0,0,.2-3.484c.009-.482.314-.87.256-1.361a12.506,12.506,0,0,1-.013-1.464c-.18-.174-.367-.354-.57-.548h-.673l-.413.455c-.955,4.065-1.887,8.031-2.819,12.006" fill="#338cbe"/>
      <path id="Trazado_121353" data-name="Trazado 121353" d="M50.885,46.577c-.948-4.023-1.876-7.958-2.854-12.11l-.552-.4H46.9l-.525.812c-.018,1.589.391,3.406.235,5.247.415,1.177.04,2.417.252,3.59a30.764,30.764,0,0,1,.21,3.875c.118.144.277.142.326.085a3.347,3.347,0,0,1,2.894-1.1c.148.007.3,0,.592,0" fill="#338cbe"/>
      <path id="Trazado_121354" data-name="Trazado 121354" d="M42.148,46.866a4.179,4.179,0,0,1,3.1.016c-.054-.859.227-1.638-.163-2.414a1.583,1.583,0,0,1-.035-.654c0-.671-.048-1.346.012-2.011.069-.776-.335-1.475-.252-2.257a6.279,6.279,0,0,0-.021-2.223,15.4,15.4,0,0,1-.2-2.739l-.56-.535h-.672l-.54.6c0,.079,0,.225,0,.371.016,1.8-.387,3.579-.224,5.383a8.934,8.934,0,0,0-.2,3.372c0,.526-.323.948-.261,1.473a14.88,14.88,0,0,1,.012,1.618" fill="#338cbe"/>
      <path id="Trazado_121355" data-name="Trazado 121355" d="M43.359,48.34a1.962,1.962,0,0,0-1.417,2.349A1.985,1.985,0,0,0,43.149,51.9a1.917,1.917,0,0,0,2.368-1.348,1.831,1.831,0,0,0-2.158-2.213" fill="#00649b"/>
      <path id="Trazado_121356" data-name="Trazado 121356" d="M37.136,48.336a2.382,2.382,0,0,0-1.236.833c.023.538-.438,1.012-.175,1.559A1.849,1.849,0,0,0,36.89,51.9a1.908,1.908,0,0,0,2.382-1.372,1.82,1.82,0,0,0-2.136-2.189" fill="#006fad"/>
      <path id="Trazado_121357" data-name="Trazado 121357" d="M50.523,51.943a1.9,1.9,0,0,0,.026-3.543c-1.481-.056-1.646.027-2.363,1.186a1.9,1.9,0,0,0,2.337,2.357" fill="#006fad"/>
      <path id="Trazado_121358" data-name="Trazado 121358" d="M16.019,3.56V2.324l-.7-.5H4.076l-.516.517V3.56Z" fill="#0071ae"/>
      <path id="Trazado_121359" data-name="Trazado 121359" d="M11.554,14.305V9.01H8.077c.015-.013-.017.008-.038.038A.188.188,0,0,0,8,9.143c0,1.708,0,3.416,0,5.162Z" fill="#7db5d5"/>
      <path id="Trazado_121360" data-name="Trazado 121360" d="M13.394,14.325h3.5V9a15.3,15.3,0,0,0-1.7-.027c-.588-.01-1.177,0-1.8,0Z" fill="#7db5d5"/>
      <path id="Trazado_121361" data-name="Trazado 121361" d="M2.682,14.325h3.5V9a15.02,15.02,0,0,0-1.694-.027c-.589-.011-1.178,0-1.8,0Z" fill="#7db5d5"/>
      <path id="Trazado_121362" data-name="Trazado 121362" d="M1.774,5.872V7.147H5.687L6.539,5.39c-1.285,0-2.461-.031-3.635.017-.4.016-.7.429-1.13.465" fill="#338cbe"/>
      <path id="Trazado_121363" data-name="Trazado 121363" d="M17.8,7.143V6.005a3.285,3.285,0,0,0-2.481-.62c-.728.026-1.458,0-2.293,0l.863,1.753Z" fill="#338cbd"/>
      <path id="Trazado_121364" data-name="Trazado 121364" d="M7.674,7.164h4.139a18.138,18.138,0,0,0-.735-1.736H8.534c-.253.512-.528,1.066-.86,1.736" fill="#0070ad"/>
      <path id="Trazado_121365" data-name="Trazado 121365" d="M51.745,2.366l-.561-.553H32.641l-.519.722v7.711l.67.492h18.4l.551-.53Z" fill="#00b278"/>
      <path id="Trazado_121366" data-name="Trazado 121366" d="M38.332,14.31V12.553c-1.768,0-3.532,0-5.3,0-.277,0-.6.12-.847-.271a10.141,10.141,0,0,0-.12,1.491l.695.541Z" fill="#00a06b"/>
      <path id="Trazado_121367" data-name="Trazado 121367" d="M51.725,13.719V12.4a10.767,10.767,0,0,1-3,.145c-1.034.037-2.07.008-3.2.008-.063.564-.011,1.139-.033,1.751h5.746l.488-.585" fill="#00a06b"/>
      <rect id="Rect치ngulo_37330" data-name="Rect치ngulo 37330" width="3.494" height="1.72" transform="translate(40.16 12.588)" fill="#46c79c"/>
      <path id="Trazado_121368" data-name="Trazado 121368" d="M28.086,20.314a6,6,0,0,1-.723-2.356H26.13a8.942,8.942,0,0,1-.488,2c-.071.195-.214.38-.337.4a24,24,0,0,0-2.587.976c-.475-.571-1.279-.645-1.733-1.2-.339.338-.621.618-.958.955.538.459.614,1.264,1.207,1.743l-1.108,2.75c-.574.524-1.428.45-2.253.731v1.181a6.392,6.392,0,0,1,2.308.7c.221.944.718,1.787,1.047,2.784-.628.4-.6,1.244-1.19,1.618l1.028.973c.347-.539,1.185-.517,1.589-1.15.985.321,1.83.811,2.755,1.024a6,6,0,0,1,.723,2.357h1.233a8.875,8.875,0,0,1,.488-2c.07-.2.213-.381.337-.405a23.865,23.865,0,0,0,2.587-.976c.475.572,1.279.646,1.733,1.2l.958-.955c-.538-.459-.614-1.264-1.207-1.743l1.108-2.75c.574-.524,1.428-.449,2.253-.731V26.266a6.541,6.541,0,0,1-2.316-.737c-.213-.91-.71-1.753-1.039-2.749.626-.4.6-1.243,1.189-1.62l-1.028-.971c-.346.538-1.184.516-1.588,1.15-.985-.322-1.83-.812-2.755-1.025" fill="#d077a0"/>
      <path id="Trazado_121369" data-name="Trazado 121369" d="M5.362,44.768H8.855V43.024A14.944,14.944,0,0,0,7.165,43c-.588-.011-1.176,0-1.8,0Z"/>
      <path id="Trazado_121370" data-name="Trazado 121370" d="M5.361,49.245H8.855V47.5a15.45,15.45,0,0,0-1.691-.026c-.588-.01-1.177,0-1.8,0Z"/>
      <path id="Trazado_121371" data-name="Trazado 121371" d="M14.289,42.978h5.278V41.226c-1.718-.049-3.479,0-5.278-.027Z"/>
      <path id="Trazado_121372" data-name="Trazado 121372" d="M44.157,4.719c-.425-.17-.622-.595-.821-.736a2.863,2.863,0,0,0-2.584-.133c-.413.2-.6.691-1.059.869a2.007,2.007,0,0,0,0,3.134c.425.169.622.595.821.736a2.863,2.863,0,0,0,2.583.133c.413-.2.6-.691,1.06-.869a2.008,2.008,0,0,0,0-3.134"/>
      <path id="Trazado_121373" data-name="Trazado 121373" d="M37.461,4.495V3.633A15.137,15.137,0,0,0,35.729,3.6c-.589-.011-1.177,0-1.8,0V8.958c.532.034,1.113.008,1.69.013s1.178,0,1.771,0c.149-.31.033-.61.073-.9a.656.656,0,0,0,.032-.885c-.375-.38-.951-.241-1.278-.544a.574.574,0,0,1,0-.725c.407-.284.919-.185,1.272-.539a.658.658,0,0,0-.03-.888"/>
      <path id="Trazado_121374" data-name="Trazado 121374" d="M46.388,8.076v.862a15.137,15.137,0,0,0,1.732.031c.589.011,1.177,0,1.8,0V3.613c-.532-.034-1.113-.008-1.69-.013s-1.178,0-1.771,0c-.149.31-.033.61-.073.9a.656.656,0,0,0-.032.885c.375.38.951.241,1.278.544a.574.574,0,0,1,0,.725c-.407.284-.919.185-1.272.539a.658.658,0,0,0,.03.888"/>
      <path id="Trazado_121375" data-name="Trazado 121375" d="M37.461,4.495V5.35H35.713V7.118a15.785,15.785,0,0,0,1.69.095c.133.28.019.578.058.863h1.955c.152,0,.293-.014.277-.223-.626-1.639-.626-1.5,0-3.134.016-.209-.125-.224-.277-.224H37.461" fill="#46c79c"/>
      <path id="Trazado_121376" data-name="Trazado 121376" d="M46.388,8.076V7.221h1.748V5.453a15.785,15.785,0,0,0-1.69-.1c-.133-.28-.019-.578-.058-.863H44.433c-.152,0-.293.014-.277.223.626,1.639.626,1.495,0,3.134-.016.209.125.224.277.224h1.955" fill="#46c79c"/>
      <path id="Trazado_121377" data-name="Trazado 121377" d="M26.806,31.356a4.474,4.474,0,1,0-4.514-4.447,4.393,4.393,0,0,0,4.514,4.447" fill="#010000"/>
      <path id="Trazado_121378" data-name="Trazado 121378" d="M41.032,6.094v.5l.813.582h.432c.143-.174.307-.371.526-.635V5.917l-.651-.5h-.593l-.527.68" fill="#009b68"/>
      <path id="Trazado_121379" data-name="Trazado 121379" d="M25.585,24.425l-1.218,1.206a2.818,2.818,0,0,0,0,2.5l1.2,1.185a2.761,2.761,0,0,0,1.653.232,2.473,2.473,0,0,0,.775-.258,3.793,3.793,0,0,0,1.094-1.1,2.578,2.578,0,0,0,.358-1.308,2.06,2.06,0,0,0-.363-1.3A3.554,3.554,0,0,0,27.5,24.319a4.265,4.265,0,0,0-1.915.106" fill="#f7f9fa"/>
    </g>
  </g>
</svg>
