<svg xmlns="http://www.w3.org/2000/svg" xmlns:xlink="http://www.w3.org/1999/xlink" width="58.69" height="63.165" viewBox="0 0 58.69 63.165">
  <defs>
    <clipPath id="clip-path">
      <rect id="Rectángulo_37333" data-name="Rectángulo 37333" width="58.69" height="63.165" fill="none"/>
    </clipPath>
  </defs>
  <g id="Grupo_157021" data-name="Grupo 157021" transform="translate(0 0)">
    <g id="Grupo_157011" data-name="Grupo 157011" transform="translate(0 0)" clip-path="url(#clip-path)">
      <path id="Trazado_121398" data-name="Trazado 121398" d="M31.008,40.789l3.762-3.762v-.669l-5.131-5.13H28.8l-3.717,3.717c-.613-.618-1.546-.47-2.127-1.127V28.636a1.987,1.987,0,0,0-1.65-.646c-1.85.026-3.7.009-5.523.009a1.743,1.743,0,0,0-1.242,2.018c.047,1.351.012,2.706.012,4.117-.714-.013-1.206.474-1.772.655L9.274,31.281a2.32,2.32,0,0,0-2.384.791c-.994,1.04-2.028,2.041-3.046,3.059-.146.145-.3.281-.434.438a1.439,1.439,0,0,0,.059,2.182A16.6,16.6,0,0,0,6.749,40.72a9.48,9.48,0,0,0-.891,2.055H.622L0,43.568v7.268l.359.359H5.845a5.907,5.907,0,0,0,.78,1.885L2.974,56.73V58c1.461,1.461,2.97,2.967,4.475,4.478a1.59,1.59,0,0,0,1.215.562l3.731-3.732a13.991,13.991,0,0,1,2.158.778c0,1.432.012,2.821-.006,4.209a2.33,2.33,0,0,0,.37,1.436,2.332,2.332,0,0,0,1.5.271c1.973-.005,3.945,0,5.909,0l.619-.617c0-1.728,0-3.454,0-5.229.81-.166,1.4-.994,2.358-.8a7.886,7.886,0,0,0,1.742,1.974,7.571,7.571,0,0,0,2.06,1.71,1.718,1.718,0,0,0,1.278-.653c1.249-1.251,2.484-2.517,3.761-3.74.335-.322.384-.76.65-.985a1.836,1.836,0,0,0-.74-1.41c-.99-.986-1.977-1.976-2.992-2.991a6.418,6.418,0,0,1,.989-2.036H37.1l.656-.651V43.431c-.188-.347-.6-.375-.906-.621H31.919a11.053,11.053,0,0,1-.911-2.021" transform="translate(0 -2.845)"/>
      <path id="Trazado_121399" data-name="Trazado 121399" d="M51.147,24.168c.2-.2.407-.407.617-.619,0-1.552,0-3.115,0-4.676,0-.335.047-.675-.549-.867-1.139-.154-2.532.233-3.9-.221,0-.508.017-.914,0-1.317a2.648,2.648,0,0,0-.216-1.394c-.226-.379.048-.9-.212-1.392s-.121-1.135-.278-1.727a22.83,22.83,0,0,0-2.757-6.631,10.376,10.376,0,0,0-5.439-4.031c-.38-.128-.728.051-1.29-.23C36.906.908,36.863.286,36.27,0H29.45c-.454.232-.621.754-.862,1.142a8.224,8.224,0,0,0-4.38,1.832c-2.2,1.655-3.326,4-4.288,6.47-.166.426-.268.869-.448,1.3a12.183,12.183,0,0,0-.529,2.247c-.176.835-.247,1.683-.458,2.518a8.634,8.634,0,0,0-.036,2.124l-.367.367h-3.7l-.339.34v5.219l.573.614H51.147" transform="translate(-1.427 0)"/>
      <path id="Trazado_121400" data-name="Trazado 121400" d="M43.232,33.427a6.391,6.391,0,0,0,1.588,1.951H42.907l-.828.828c-.189,2.915-.125,4.4.225,5.284.729.553,1.622.207,2.461.393-.551.647-1.248,1.1-1.54,1.967.908,1.513,2.42,2.537,3.564,3.884h1.032l1.5-1.573c.268.966-.162,1.935.447,2.786a2.275,2.275,0,0,0,1.541.276c1.109,0,2.22,0,3.095,0,1.715-.373,1.4-1.587,1.436-2.647.163.119-.048-.066.117-.061.03,0,.059.049.087.076l1.143,1.142h1.277c.862-.871,1.753-1.779,2.654-2.677a1.866,1.866,0,0,0,.648-1.533l-1.613-1.612a17.844,17.844,0,0,1,2.243-.111l.561-.561V35.993c-.688-.879-1.744-.481-2.636-.62L61.692,34a1.827,1.827,0,0,0-.6-1.856c-.644-.636-1.294-1.266-1.916-1.922a2.069,2.069,0,0,0-2.014-.707l-1.3,1.38c-.088-1.209.294-2.456-1.355-2.895H50.614a2.967,2.967,0,0,0-1.238.95v1.954L47.967,29.5H46.813c-.6.6-1.246,1.223-1.867,1.874a6.666,6.666,0,0,0-1.715,2.056" transform="translate(-4.266 -2.846)"/>
      <path id="Trazado_121401" data-name="Trazado 121401" d="M8.534,33.885,5.649,36.77q1.24,1.241,2.482,2.483a3.031,3.031,0,0,1,.933,1.227A2.121,2.121,0,0,1,8.7,42.141a3.492,3.492,0,0,0-.446,1.166A8.41,8.41,0,0,1,7.48,45.03a2.132,2.132,0,0,1-1.414.258c-1.267-.013-2.534,0-3.837,0v4.141H7.177a2.329,2.329,0,0,1,.738,1.114,8.534,8.534,0,0,0,1.169,2.523V54.2L5.636,57.642,8.58,60.585a.33.33,0,0,0,.077,0,.2.2,0,0,0,.108-.033q1.7-1.7,3.4-3.392a2.067,2.067,0,0,1,1.635.482,6.423,6.423,0,0,0,1.686.682,2.944,2.944,0,0,1,1.537.932v4.754H21.2c0-1.292,0-2.594,0-3.9a1.635,1.635,0,0,1,.552-1.541,20.491,20.491,0,0,0,3.155-1.311c.661-.367,1.206-.022,1.679.447q1.269,1.26,2.53,2.529c.138.137.277.275.349.349L32.3,57.746v-.07L28.82,54.2a6.1,6.1,0,0,1,.881-2.468c.4-.7.486-1.531.885-2.242h5.042l.34-.34v-3.86c-1.32,0-2.663,0-4.006,0a5.2,5.2,0,0,1-.835-.067,1.246,1.246,0,0,1-1-1.032,13.494,13.494,0,0,0-1.3-3.143,2.17,2.17,0,0,1,.778-1.327c.907-.894,1.807-1.8,2.749-2.734a6.989,6.989,0,0,0-1.37-1.519c-.474-.513-.984-.993-1.438-1.447L26.186,37.37a3.026,3.026,0,0,1-1.856-.386,9.089,9.089,0,0,0-2.577-.883l-.573-.652v-4.94H17c0,1.292,0,2.594,0,3.9,0,.473.1.965-.3,1.368-1.014.7-2.336.8-3.4,1.494-.339.221-.709.07-1.1.129-.592-.592-1.186-1.214-1.81-1.8a10.735,10.735,0,0,0-1.854-1.709" transform="translate(-0.227 -3.101)" fill="#dadbdf"/>
      <path id="Trazado_121402" data-name="Trazado 121402" d="M37.47,12.8H35.24V2.515h-4.2V12.77H28.806V3.5a18.352,18.352,0,0,0-1.832.6,9.255,9.255,0,0,0-2.3,1.837,11.3,11.3,0,0,0-2.059,3.222,17.979,17.979,0,0,0-1.224,3.932,12.772,12.772,0,0,0-.493,3.495c.01.221-.144.362-.2.534a.877.877,0,0,0,.334,1.125H24.55v1.9c.016-.017-.008.018-.04.04a.206.206,0,0,1-.106.039c-2.708,0-5.414,0-8.16,0v1.89l.331.331q16.191,0,32.41,0c.349,0,.772.157,1-.5V20.233H26.84V18.3H45.17l.381-.414c.172-.543-.139-1.048-.231-1.583s.263-1.148-.243-1.625a7.881,7.881,0,0,0-.491-2.755,13.94,13.94,0,0,0-2.654-5.556,8.875,8.875,0,0,0-2.908-2.438c-.487-.267-1.069-.1-1.555-.486Z" transform="translate(-1.651 -0.256)" fill="#e2ab34"/>
      <path id="Trazado_121403" data-name="Trazado 121403" d="M53.873,33.295V30.537H51.917c-.075,1.053.161,2.156-.384,3.151a2.1,2.1,0,0,1-1.818.486l-2-2-1.506,1.507a25.088,25.088,0,0,0,1.966,2.108c.258.644-.349,1.11-.5,1.736-.937.674-2.071.19-3.142.411V39.8c.979.227,2.063-.2,3.083.324a2.984,2.984,0,0,0,.411.888c.286.305.074.628.217.944l-2.094,2.014a11.818,11.818,0,0,0,1.424,1.573c.433-.433.854-.863,1.285-1.285.854-.835,1.234-.9,2.274-.34a.841.841,0,0,0,.415.145,7.316,7.316,0,0,1,.366,3.141h1.929V44.521a2.107,2.107,0,0,1,2.371-.893l1.856,1.855,1.3-1.49L57.6,42.222c-.063-.95-.138-1.917,1.33-2.373h2.316V37.938h-2.7a2.266,2.266,0,0,1-.911-1.178,2.024,2.024,0,0,1,.8-2.082c.393-.35.768-.72,1.07-1l-1.342-1.345-1.755,1.755a2.3,2.3,0,0,1-2.534-.79" transform="translate(-4.527 -3.104)" fill="#97999f"/>
      <path id="Trazado_121404" data-name="Trazado 121404" d="M28.291,48.212a6.277,6.277,0,0,0-.456-3.013,8.476,8.476,0,0,0-2.69-3.642,8.691,8.691,0,0,0-7.4-1.43,8.513,8.513,0,0,0-4.5,3.076,7.047,7.047,0,0,0-1.467,3.45,7.537,7.537,0,0,0-.266,1.624A8.857,8.857,0,0,0,13.488,53.5a9.2,9.2,0,0,0,3.662,2.712c.4.2.932-.125,1.2.38,1.43-.1,2.861.16,4.291-.346a8.876,8.876,0,0,0,5.307-5.111,5.9,5.9,0,0,0,.343-2.927" transform="translate(-1.169 -4.048)"/>
      <path id="Trazado_121405" data-name="Trazado 121405" d="M49.246,40.394a4.184,4.184,0,0,0,2.959,3.054,3.8,3.8,0,0,0,2.788-.234,4.36,4.36,0,0,0,2.079-2.048,3.755,3.755,0,0,0,.429-2.486,3.992,3.992,0,0,0-1.024-2.033,5.152,5.152,0,0,0-1.57-1.259,4.915,4.915,0,0,0-2.229-.241,4.668,4.668,0,0,0-2.585,1.439,4.442,4.442,0,0,0-.845,3.806" transform="translate(-4.994 -3.568)"/>
      <path id="Trazado_121406" data-name="Trazado 121406" d="M20.431,42.275a5.911,5.911,0,0,0-4.62,1.772,6.153,6.153,0,0,0-1.845,4.677,7.39,7.39,0,0,0,.567,2.494,4.646,4.646,0,0,0,1.34,1.89,6.33,6.33,0,0,0,2.364,1.4,6.582,6.582,0,0,0,2.074.359,6.439,6.439,0,0,0,6.265-6.328,6.069,6.069,0,0,0-1.961-4.6,5.112,5.112,0,0,0-4.184-1.667" transform="translate(-1.419 -4.294)" fill="#f7f9fa"/>
      <path id="Trazado_121407" data-name="Trazado 121407" d="M52,41.191l1.587.614c.249-.054.471-.392.835-.235l1.135-1.195V38.745L54.446,37.62H52.708c-.862.152-.959.968-1.266,1.55-.391.739.334,1.279.553,2.021" transform="translate(-5.217 -3.824)" fill="#f5f7f8"/>
    </g>
  </g>
</svg>
