<svg xmlns="http://www.w3.org/2000/svg" width="42.385" height="25.305" viewBox="0 0 42.385 25.305">
  <path id="Trazado_586300" data-name="Trazado 586300" d="M8.47-18.27a12.947,12.947,0,0,0-1.155,5.915A12.947,12.947,0,0,0,8.47-6.44,3.806,3.806,0,0,0,12.075-4.2a3.806,3.806,0,0,0,3.6-2.24,12.947,12.947,0,0,0,1.155-5.915A12.947,12.947,0,0,0,15.68-18.27a3.806,3.806,0,0,0-3.6-2.24A3.806,3.806,0,0,0,8.47-18.27ZM12.075.28Q7,.28,4.48-3.168T1.96-12.373q0-5.758,2.52-9.205t7.6-3.448q5.075,0,7.6,3.448t2.52,9.205q0,5.758-2.52,9.205T12.075.28ZM36.54-20.335a4.283,4.283,0,0,0-3.518,1.523A7.719,7.719,0,0,0,31.5-14.665a8.75,8.75,0,0,1,4.83-1.47,7.861,7.861,0,0,1,5.722,2.24,7.963,7.963,0,0,1,2.293,5.968A7.668,7.668,0,0,1,41.878-1.96,8.892,8.892,0,0,1,35.665.28a9.579,9.579,0,0,1-4.5-1A7.245,7.245,0,0,1,28.21-3.5a16.494,16.494,0,0,1-2.1-8.68,19.15,19.15,0,0,1,.822-5.9,10.089,10.089,0,0,1,2.258-4.008,9.186,9.186,0,0,1,6.93-2.94,10.5,10.5,0,0,1,3.273.508,11.223,11.223,0,0,1,2.4,1.032,20.667,20.667,0,0,1,1.855,1.33l-2.59,3.85q-.21-.21-.612-.56a7.728,7.728,0,0,0-1.593-.91A5.409,5.409,0,0,0,36.54-20.335Zm-.717,8.82a4,4,0,0,0-2.73.963,3.166,3.166,0,0,0-1.1,2.5,3.7,3.7,0,0,0,1.05,2.642,3.475,3.475,0,0,0,2.625,1.1,3.7,3.7,0,0,0,2.625-.98,3.313,3.313,0,0,0,1.05-2.537,3.818,3.818,0,0,0-.945-2.625A3.26,3.26,0,0,0,35.823-11.515Z" transform="translate(-1.96 25.025)" fill="#12263f"/>
</svg>
