<svg xmlns="http://www.w3.org/2000/svg" xmlns:xlink="http://www.w3.org/1999/xlink" width="103" height="103" viewBox="0 0 103 103"><defs><filter id="a" x="0" y="0" width="103" height="103" filterUnits="userSpaceOnUse"><feOffset dy="3" input="SourceAlpha"/><feGaussianBlur stdDeviation="3" result="b"/><feFlood flood-opacity="0.161"/><feComposite operator="in" in2="b"/><feComposite in="SourceGraphic"/></filter><clipPath id="c"><rect width="50" height="50" fill="none"/></clipPath></defs><g transform="translate(-381 -4271)"><g transform="matrix(1, 0, 0, 1, 381, 4271)" filter="url(#a)"><rect width="85" height="85" rx="20" transform="translate(9 6)" fill="#fff"/></g><g transform="translate(408 4295)"><g transform="translate(0 0)" clip-path="url(#c)"><path d="M.8,31.743a2.6,2.6,0,0,0-.548,1.72c.076,2.289-.342,4.558-.2,6.887.008.133.3.271.551.482H2.548c.072.5-.269.91-.205,1.4a1.494,1.494,0,0,1-.168,1.285c-.033.037-.011.127,0,.191a15.206,15.206,0,0,1-.244,3.134c-.075.885-.117,1.768-.15,2.667l.508.478h3.9l.445-.494c.281-1.638.567-3.3.852-4.969.039.637.436,1.2.344,1.838-.041.293.29.468.213.8a1.072,1.072,0,0,0,.15.81c.19.323-.142.824.223,1.17-.1.445.274.605.5.843h3.9l.481-.481a7.768,7.768,0,0,1,.015-1.278c.067-.411-.42-.739-.107-1.2l1.054.515a20.847,20.847,0,0,0,4.67,1.671c.33.337.835.037,1.149.275.361.273.777.007,1.17.271.29.2.844-.051,1.237.055A19.5,19.5,0,0,0,26.2,50a6.037,6.037,0,0,0,1.286-.189c.415-.055.951.147,1.24-.05.408-.278.927.087,1.23-.349a12.664,12.664,0,0,0,3.595-.969,17.172,17.172,0,0,0,2.965-1.314,1.049,1.049,0,0,1,.289-.07c.284.421-.2.75-.133,1.159a7.917,7.917,0,0,1,.015,1.3l.533.464h3.841a1.648,1.648,0,0,0,.678-1.431,5.2,5.2,0,0,1,.208-.992c.074-.328-.149-.716.2-.991-.12-.705.273-1.34.342-2.037.286,1.66.572,3.321.86,4.992l.449.468h3.909l.485-.485a12.594,12.594,0,0,1,.015-1.558c.063-.5-.264-.89-.232-1.385.029-.452.2-.962-.168-1.385-.032-.037-.011-.127,0-.191.129-1.026-.323-2.02-.182-3.038.055-.4-.37-.679-.15-1.1h2.007c.085-.161.192-.365.3-.569l.171.113a15.484,15.484,0,0,0-.036-2.9,29.175,29.175,0,0,1-.159-3.827c-.012-.191.051-.426-.037-.567-.263-.419-.1-1-.536-1.329a4.123,4.123,0,0,1,.322-1.916c.151-.44-.087-.953.251-1.359-.124-.9.268-1.75.207-2.651-.059-.874.076-1.767-.046-2.628a6.831,6.831,0,0,1-.151-1.483,5.158,5.158,0,0,0-.242-1.376,11.566,11.566,0,0,0-.6-2.475c-.325-.747-.563-1.526-.844-2.282A27.324,27.324,0,0,0,45,10.056a22.046,22.046,0,0,0-2.811-3.033A24.406,24.406,0,0,0,37.6,3.533a35.986,35.986,0,0,0-6.1-2.7A12.7,12.7,0,0,1,29.221.412c-.6-.1-1.207-.043-1.772-.182A12.768,12.768,0,0,0,23.337.1a9.213,9.213,0,0,0-3.369.538,15.586,15.586,0,0,0-4.862,1.444,22.438,22.438,0,0,0-3.981,2.163A26.654,26.654,0,0,0,5.883,8.967a22.982,22.982,0,0,0-3.806,6.116c-.3.687-.486,1.424-.774,2.117-.278.672-.39,1.393-.674,2.062-.13.306.144.715-.214.984.13.613-.286,1.155-.2,1.773.1.726-.273,1.416-.2,2.163a13.036,13.036,0,0,1,0,2.24c-.033.433.2.78.221,1.188s-.186.84.163,1.2c-.114,1.018.561,1.926.4,2.938" transform="translate(0 0)"/><path d="M55.608.085c-.375-.157-.641.147-.988.231a8.093,8.093,0,0,1-.892,2.225,7.653,7.653,0,0,1-2.38,1.066l-.264.569a1.482,1.482,0,0,0,1.194.986A2.356,2.356,0,0,1,54.372,7.2a1.658,1.658,0,0,0,1.051,1.286c.12.031.216-.318.464-.252.409-.8.457-1.769,1.378-2.61a8.458,8.458,0,0,1,1.918-.686,1.373,1.373,0,0,0,.252-1.112l-.517-.458c-.147-.062-.387.039-.648-.086a3.353,3.353,0,0,1-1.7-1.219c.075-.485-.589-.865-.4-1.51L55.608.085" transform="translate(-9.527 -0.008)"/><path d="M2.341,5.683A6.623,6.623,0,0,1,3.551,8.146c.094.244.484-.023.465.384.356-.266.746-.261.912-.7.128-.336.243-.683.353-1.022A1.95,1.95,0,0,1,6.789,5.347a7.2,7.2,0,0,1,.693-.235,1.145,1.145,0,0,0,.931-.9c.061-.215-.282-.275-.179-.54A8.414,8.414,0,0,1,5.675,2.419,7.565,7.565,0,0,1,4.888.338c-.33-.107-.6-.374-1.107-.208L3.363.7c.173.486-.478.877-.44,1.452l-.83.83c-.582-.086-.952.657-1.543.373l-.5.5A1.23,1.23,0,0,0,.355,4.935a8.8,8.8,0,0,1,1.986.749" transform="translate(-0.004 -0.014)"/><path d="M46.608,29.579c.414.488.978.558,1.476.81a13.894,13.894,0,0,0,.513-4.365c-.032-.876.044-1.759-.019-2.632a21.58,21.58,0,0,0-.495-3.1,28.2,28.2,0,0,0-.853-2.87,19.241,19.241,0,0,0-2.083-4.3c-.529-.826-1.094-1.629-1.654-2.435a3.4,3.4,0,0,0-.409-.416c-.713-.713-1.421-1.429-2.138-2.137a18.962,18.962,0,0,0-2.962-2.242,29.732,29.732,0,0,0-2.6-1.513c-1.28-.67-2.7-1-4.034-1.554-.916.063-1.732-.529-2.658-.407a26.346,26.346,0,0,0-5.086-.191,12.682,12.682,0,0,0-3.146.417,6.282,6.282,0,0,0-1.591.376,12.5,12.5,0,0,1-1.525.556,21.955,21.955,0,0,0-4.22,2.049c-.858.536-1.677,1.137-2.5,1.72a3.408,3.408,0,0,0-.417.41c-.8.8-1.64,1.579-2.4,2.421a16.5,16.5,0,0,0-1.933,2.6c-.467.781-.945,1.548-1.363,2.362a38.165,38.165,0,0,0-1.56,3.938c-.189.5-.178,1.013-.339,1.513a2.85,2.85,0,0,0-.229,1.566A8.6,8.6,0,0,0,2.187,25a21.522,21.522,0,0,0,.02,2.825,4.851,4.851,0,0,0,.349,1.8c.1.187-.046.442.09.678.608.073.975-.424,1.564-.6a3.685,3.685,0,0,1-.186-3.274A5.128,5.128,0,0,1,5.9,24.248c.262-.205.577-.148.846-.332.329-.223.829.147,1.17-.225.363.362.893-.007,1.237.257.208.161.42.056.617.179A10.259,10.259,0,0,1,11.2,25.376a4,4,0,0,1,.892,2.26,3.562,3.562,0,0,1-.519,2.269l6.648,2a4.036,4.036,0,0,0,.9-1.376A7.086,7.086,0,0,1,22.208,27.8a4.33,4.33,0,0,1,2.569-.625c.482.051.977-.029,1.46.016a7.149,7.149,0,0,1,3.544,1.334,7.739,7.739,0,0,1,2.46,3.072,1.768,1.768,0,0,0,.264.315l6.68-2c.01-.075.024-.105.015-.121a3.075,3.075,0,0,1-.515-2.3,4.618,4.618,0,0,1,.559-1.707A9.41,9.41,0,0,1,40.3,24.659,6.129,6.129,0,0,1,41.64,23.9c.412-.093.859.072,1.25-.173.695.218,1.532.1,2.092.573a4.908,4.908,0,0,1,1.864,2.433,3.6,3.6,0,0,1-.238,2.847" transform="translate(-0.401 -0.407)" fill="#b7e5f8"/><path d="M40.97,42.554l-.277-.276-5.741,1.286a6.537,6.537,0,0,1-1.313,2.947,7.644,7.644,0,0,0-1.185,1.747,8.069,8.069,0,0,0-.521,1.643,6.926,6.926,0,0,0-.156,1.586l-.508.485h-7.22l-.453-.517a7.848,7.848,0,0,0-.791-3.415,6.081,6.081,0,0,0-1.013-1.421,10.618,10.618,0,0,1-1.322-2.386c-.081-.149-.012-.378-.012-.608-1.907-.552-3.857-.873-5.8-1.352l-.216.217c-.11.134.181.158.178.323a3.87,3.87,0,0,0,.182,1.868c-.151.962.275,1.886.193,2.842-.041.479.282.882.217,1.384a1.525,1.525,0,0,0,.175,1.28,12.7,12.7,0,0,0,.22,2.484,2.928,2.928,0,0,0,.695.543,23.354,23.354,0,0,0,4.814,2.015,10.787,10.787,0,0,0,2.247.493,5.048,5.048,0,0,1,1.084.182,3.722,3.722,0,0,0,1.193.174c.388,0,.776,0,1.158,0,.216-.22-.011-.513.161-.757h1.423c.15.2.037.431.07.647,2.488.586,9.433-1.621,11.328-3.318-.17-.465.164-.881.189-1.351s-.189-.963.179-1.386c.033-.037.013-.127,0-.191-.149-.963.276-1.886.194-2.843-.041-.478.283-.881.217-1.383a2.228,2.228,0,0,1,.146-1.294,3.076,3.076,0,0,0,.032-1.156c0-.186-.085-.411.229-.489" transform="translate(-2.689 -7.839)" fill="#b7e5f8"/><path d="M51.827,36.575l-.475-.475v-.78a.319.319,0,0,1,.063-.111,2.539,2.539,0,0,0,.89-2.169,6.5,6.5,0,0,1,0-.665c-1.074-1.877-2.939-2.427-4.574-.514a2.786,2.786,0,0,0,.813,3.561c.193.358-.134.56-.149.749-.334.664-.968.312-1.455.537-.811.376-1.728.511-2.586.81a16.219,16.219,0,0,0-2.5.8,4.337,4.337,0,0,0-1.591.4c-.532.136-.561.329-.211.908l6.518-1.437a1.679,1.679,0,0,1,.839.623c.19.442-.136.866-.184,1.323s.19.964-.171,1.391a.266.266,0,0,0-.015.186c.147.964-.275,1.889-.191,2.844.043.484-.275.884-.224,1.385.043.416.19.9-.17,1.284-.016.017,0,.064,0,.1a10.1,10.1,0,0,1-.185,2.163,8.322,8.322,0,0,1-.185,1.68c-.153.5.068,1.048-.188,1.584a2.95,2.95,0,0,0-.028,1.155h1.706c.155-.362-.1-.788.126-1.113.233-.34-.021-.728.136-1.017.2-.366.079-.758.2-1.093.314-.908.19-1.9.567-2.787-.149-.614.3-1.166.188-1.77-.054-.286.238-.431.208-.7a5.887,5.887,0,0,1-.006-.7L49.642,44c.369-.144.558.186.836.2.39.453.137,1.093.458,1.566-.029,1.007.412,1.953.386,2.958-.009.32.306.554.2.9-.111.36.2.642.2.991,0,.3-.13.651.187.894-.132.738.336,1.415.187,2.118l.27.27h1.479c-.061-.592.2-1.218-.167-1.817a.492.492,0,0,1-.012-.285c.131-1.059-.291-2.076-.216-3.138.029-.416-.225-.829-.186-1.284a1.87,1.87,0,0,0-.182-1.285c-.015-.022-.006-.064,0-.1.128-1.057-.281-2.078-.209-3.138.029-.424-.238-.824-.2-1.285a2.784,2.784,0,0,0-.148-1.3,3.728,3.728,0,0,1-.029-1.352.6.6,0,0,0-.319-.589c.7.071,1.221-.38,1.834-.156.041.921.213,1.821.281,2.734a14.029,14.029,0,0,0,.178,1.964,8.675,8.675,0,0,1,.167,1.778c.353.282.353.282.975.257,0-1.42.087-2.851-.038-4.263-.058-.654-.132-1.311-.161-1.971a3.281,3.281,0,0,0-3.59-2.094" transform="translate(-7.426 -5.688)" fill="#f15f5c"/><path d="M3.94,53.924H5.421l.251-.3c.048-.793.273-1.6.371-2.422a6.119,6.119,0,0,0,.238-1.864c.354-.894.209-1.888.572-2.786a2.071,2.071,0,0,0,.012-.775c-.007-.226.255-.339.208-.6a.843.843,0,0,1,.253-.879c.2-.076.377-.348.7-.31l.619.823.148-.154c.133.382-.1.788.19,1.2.212.3-.043.762.188,1.187a3.481,3.481,0,0,1,.185,1.268A7.684,7.684,0,0,1,9.6,50.076c-.046.318.322.559.19.893-.149.379.2.643.207.993a1.378,1.378,0,0,0,.155.916c.153.217.029.629.029.969.262.163.557.064.836.08s.575,0,.94,0c-.1-.526.172-1.04-.212-1.5-.016-.02-.006-.064,0-.1a10.045,10.045,0,0,0-.186-2.163,8.151,8.151,0,0,0-.185-1.68c-.153-.5.138-1.079-.211-1.574-.031-.043-.011-.128,0-.191.136-.995-.263-1.948-.214-2.943.02-.419-.228-.83-.187-1.285a1.852,1.852,0,0,0-.185-1.284,8.9,8.9,0,0,0-.222-2.31,1.679,1.679,0,0,1,.879-.715l6.521,1.44a.487.487,0,0,0,.221-.593c-.085-.194-.285-.266-.516-.345-1.6-.551-3.27-.853-4.824-1.529-.944.035-1.716-.693-2.678-.608-.165.015-.278-.244-.489-.217-.056-.27-.325-.465-.238-.864a2.852,2.852,0,0,0,1.153-2.642c-.147-1.128-.931-1.684-1.965-2.116a2.894,2.894,0,0,0-1.655.259A4.417,4.417,0,0,0,5.524,32.4a2.951,2.951,0,0,0,.94,2.883v.828l-.553.462a3.874,3.874,0,0,0-2.07.38,3.6,3.6,0,0,0-1.383,1.6,36.681,36.681,0,0,0-.274,5.891c0,.156,0,.312,0,.474.361.05.677.128.975-.275-.15-.931.309-1.9.2-2.926-.047-.437.263-.816.21-1.286a1.937,1.937,0,0,1,.15-1.3c.14-.237.024-.626.024-.925.617-.287,1.119.227,1.681.126.143.2-.186.217-.128.392a1.854,1.854,0,0,1,.009.388c.1,1.024-.347,2.013-.2,3.04a3.846,3.846,0,0,0-.2,1.772A7.772,7.772,0,0,0,4.7,45.211,1.657,1.657,0,0,1,4.529,46.5c-.031.04-.011.128,0,.191.134,1.058-.287,2.076-.216,3.138.028.415-.223.829-.185,1.284A3.33,3.33,0,0,1,3.97,52.4a5.527,5.527,0,0,0-.03,1.521" transform="translate(-0.405 -5.696)" fill="#31bcf8"/><path d="M26.842,49h5.075a5.311,5.311,0,0,1,.375-1.955c.168-.626.573-1.131.783-1.724.156-.44.569-.652.82-1.017a16.2,16.2,0,0,0,1.127-2.085c-.14-.389.2-.8.206-1.273a6.014,6.014,0,0,0-1.266-3.876,5.546,5.546,0,0,0-2.036-1.69,5.607,5.607,0,0,0-5.467.2,5.974,5.974,0,0,0-2.78,3.844,6.431,6.431,0,0,0,.282,3.459,4.773,4.773,0,0,0,1.084,1.686,8.859,8.859,0,0,1,1.787,3.653,2.988,2.988,0,0,1,.01.78" transform="translate(-4.392 -6.448)" fill="#fedf66"/><path d="M57.073,5.035,55.991,3.953a1.021,1.021,0,0,0-.344.55c-.089.228-.426.1-.484.344L56.328,5.86c.133,0-.03-.43.228-.52.2-.07.42-.121.517-.3" transform="translate(-10.287 -0.733)" fill="#f5bb4a"/><path d="M3.9,5.028c.1.191.329.23.526.318.224.1.142.408.4.541.46-.164.631-.774,1.165-.867-.086-.324-.436-.3-.628-.481S5.28,4,4.949,3.967L3.9,5.028" transform="translate(-0.728 -0.736)" fill="#f4bb4a"/><path d="M27.419,13.41c.161-.365-.246-.577-.192-.916a4.494,4.494,0,0,0,.008-.876A2.066,2.066,0,0,1,28.6,9.4c.591,0,1.3-.007,2.014,0a1.573,1.573,0,0,1,1.5,1.159,5.184,5.184,0,0,0,.267.571h1.429c.25-1.6-1.019-3.11-3.26-3.535V5.154H29.01v2.4a5.109,5.109,0,0,0-2.524,1.307,2.911,2.911,0,0,0-.809,2.009c0,.585.02,1.171,0,1.755a3.341,3.341,0,0,0,2.359,3.214A5.36,5.36,0,0,0,30,16.031c.325,0,.649,0,.979,0a2.2,2.2,0,0,1,.473.246,1.938,1.938,0,0,1,.853,1.68,4.5,4.5,0,0,1-.3,2.2c-.041.038-.205.2-.369.351a1.356,1.356,0,0,1-1,.406c-.713-.015-1.426,0-1.891,0a2.468,2.468,0,0,1-1.268-.834,3.439,3.439,0,0,1-.215-1.478h-1.5c-.5,2.13,1.04,3.744,3.2,4.078v2.5h1.546V22.7a2.12,2.12,0,0,0,1.056-.259,3.543,3.543,0,0,0,2.268-2.387,2.151,2.151,0,0,0,.033-.572c0-.649.01-1.3,0-1.949a3.124,3.124,0,0,0-1.593-2.672,3.956,3.956,0,0,0-2.095-.587,8.441,8.441,0,0,0-.974,0,1.668,1.668,0,0,1-1.5-.612,3.214,3.214,0,0,0-.281-.259" transform="translate(-4.786 -0.956)"/><path d="M52.223,23.876c.541-.433,1.047-.178,1.542-.295a4.064,4.064,0,0,0-.246-1.889,29.537,29.537,0,0,0-1.061-3.548,22.143,22.143,0,0,0-1.066-2.286,19.345,19.345,0,0,0-1.9-2.919A23.78,23.78,0,0,0,46.086,9.4a20.043,20.043,0,0,0-5.032-3.1,5.844,5.844,0,0,0-.761-.257c-.534.349-.438.995-.787,1.436.763.345,1.489.63,2.173.993A19.005,19.005,0,0,1,43.7,9.711a12.233,12.233,0,0,1,1.914,1.5c.581.611,1.187,1.2,1.787,1.793a11.753,11.753,0,0,1,1.521,2,16.194,16.194,0,0,1,1.206,2.029,20.287,20.287,0,0,1,.944,2.141c.246.744.443,1.508.687,2.251.249.762.188,1.581.469,2.446" transform="translate(-7.367 -1.121)"/><path d="M4.348,23.6c.509.17,1.049-.137,1.485.224a3.669,3.669,0,0,0,.29-1.061,16.3,16.3,0,0,1,.567-2.293,16.876,16.876,0,0,1,1.546-3.746,31.961,31.961,0,0,1,1.782-2.773,19.883,19.883,0,0,1,3.071-3.187,17.1,17.1,0,0,1,4.318-2.717c.193-.084.38-.181.569-.272-.334-.439-.37-1.009-.673-1.5a24.916,24.916,0,0,0-3.869,2.144,20.987,20.987,0,0,0-4.222,3.88,18.764,18.764,0,0,0-3.135,5.024,22.56,22.56,0,0,0-1.353,4.119,8.8,8.8,0,0,0-.377,2.16" transform="translate(-0.81 -1.163)"/><path d="M27.637,56.888h5V55.4l-.238-.239H27.881l-.244.244Z" transform="translate(-5.154 -10.231)" fill="#040505"/><path d="M25.721,41.014h1.468a2.766,2.766,0,0,1,2.547-2.542V36.984A2.645,2.645,0,0,0,28,37.249a3.71,3.71,0,0,0-1.886,1.711,2.872,2.872,0,0,0-.4,2.054" transform="translate(-4.786 -6.849)" fill="#020101"/></g></g></g></svg>