<svg id="Grupo_754512" data-name="Grupo 754512" xmlns="http://www.w3.org/2000/svg" xmlns:xlink="http://www.w3.org/1999/xlink" width="87.067" height="87" viewBox="0 0 87.067 87">
  <defs>
    <clipPath id="clip-path">
      <rect id="Rectángulo_37374" data-name="Rectángulo 37374" width="87.067" height="87" fill="none"/>
    </clipPath>
  </defs>
  <g id="Grupo_754511" data-name="Grupo 754511" transform="translate(0 0)" clip-path="url(#clip-path)">
    <path id="Trazado_245472" data-name="Trazado 245472" d="M87.034,66.848c0-.609-.012-.583-.644-.743-.737-.185-1.463-.415-2.189-.638-.31-.1-.665,0-.911-.361a.924.924,0,0,1-.037-1.271c.349-.582.655-1.189.975-1.787.076-.143.127-.3.212-.439.37-.607.376-.609-.049-1.034Q82,58.189,79.618,55.8c-.186-.188-.283-.189-.562-.075-.692.282-1.248.779-1.961,1.062-.127-.069-.1-.261-.049-.348a11.894,11.894,0,0,0,.673-2.264,13.723,13.723,0,0,0,.507-2.673,8.919,8.919,0,0,0,.21-2.113.741.741,0,0,1,.506-.8,17.148,17.148,0,0,0,2.609-1.764,14.047,14.047,0,0,0,3.105-3.542,8.4,8.4,0,0,0,1.059-2.011,12.805,12.805,0,0,0,.832-2.459c.322-.3-.054-.807.313-1.1-.133-.665.234-1.278.185-1.943a14.988,14.988,0,0,0-.033-1.924,9.78,9.78,0,0,0-.667-3.05,7.563,7.563,0,0,0-1.086-2.88,14.323,14.323,0,0,0-1.744-2.621,19.185,19.185,0,0,0-1.393-1.514,15.485,15.485,0,0,0-2.752-2.028,14.618,14.618,0,0,0-3.347-1.45,2.978,2.978,0,0,0-1.187-.291c-.34.046-.553-.26-.9-.2a1.057,1.057,0,0,1-.9-.146c-.106-.087-.34-.015-.515-.015-.585,0-1.172.033-1.754-.009s-1.1.23-1.682.215a3,3,0,0,0-1.126.216c-.251.1-.553.072-.761.28-.294-.21-.6-.4-.875-.634-.365-.315-.713-.643-1.1-.938a33.043,33.043,0,0,0-3.277-2.27c-.21-.124-.315-.418-.629-.391-.085.006-.1-.2-.067-.215.352-.2.057-.592.277-.864.2-.24-.058-.673.1-.91.209-.313.113-.61.137-.911.025-.319.006-.643.006-.963a14.387,14.387,0,0,0-.764-3.981A12.094,12.094,0,0,0,59.331,5.2,12.738,12.738,0,0,0,55.8,1.927,12.963,12.963,0,0,0,51.977.336,10.174,10.174,0,0,1,50.739.16,3.681,3.681,0,0,0,49.4.015c-.437-.021-.877-.018-1.314,0-.361.015-.685.277-1.068.173S46.325.37,45.95.4a7.98,7.98,0,0,0-1.083.33,5.3,5.3,0,0,0-.966.41,7.85,7.85,0,0,0-.95.458,13.732,13.732,0,0,0-3.438,2.9,11.531,11.531,0,0,0-1.818,2.837,18.257,18.257,0,0,0-.846,2.546c-.139.564-.149,1.145-.321,1.7-.127.409-.148.479-.509.532a13.354,13.354,0,0,0-3,.8c-.289.115-.274.045-.382-.188a8.844,8.844,0,0,0-1.906-2.28,5.516,5.516,0,0,0-1.22-.868,7.841,7.841,0,0,0-2.166-.9A4.65,4.65,0,0,0,25.6,8.427c-.558.081-1.151-.183-1.681.175A7.8,7.8,0,0,0,20.371,10a2.03,2.03,0,0,0-.57.512,1.784,1.784,0,0,1-1.812.735c-.43-.061-.88.028-1.313-.019a14.531,14.531,0,0,0-2.558.206,9.615,9.615,0,0,0-1.829.437,15,15,0,0,0-3.682,1.48,12.658,12.658,0,0,0-3.149,2.36c-.412.455-.862.873-1.3,1.3A10.01,10.01,0,0,0,2.485,19.3c-.227.4-.488.79-.7,1.2a17.106,17.106,0,0,0-.761,1.878A15.612,15.612,0,0,0,.422,24.31a4.354,4.354,0,0,0-.216,1.758,6.54,6.54,0,0,0-.182,2.118,9.144,9.144,0,0,0,.207,2.292c.091.694.312,1.387.462,2.073a13.83,13.83,0,0,0,1.095,2.885,15.385,15.385,0,0,0,1.594,2.591,14.907,14.907,0,0,1,1.211,1.506,3.27,3.27,0,0,0,1.032.874c.34.254.507.717.981.807A9.536,9.536,0,0,0,8.8,42.7a16.951,16.951,0,0,0,2.17,1.321c.383.17.268.525.291.831.019.271-.034.34-.353.422-.926.237-1.864.431-2.782.691a12.066,12.066,0,0,0-3.7,1.645A10.266,10.266,0,0,0,.8,52.141,13.351,13.351,0,0,0,.172,54.43a10.189,10.189,0,0,0-.134,2.215C.027,66.726.03,76.808.03,86.959H28.074V81.433a1.872,1.872,0,0,1,.789-.064q7.98,0,15.962,0c.35,0,.771.122,1.035-.028.377-.216.728-.1,1.086-.14.333-.036.683.052.978-.182.58.127,1.113-.177,1.682-.182a5.573,5.573,0,0,0,1.225-.224c.452-.106.914-.175,1.366-.288s.874-.292,1.338-.388a10.8,10.8,0,0,0,1.691-.559c.237-.092.334-.109.5.058.428.441.867.871,1.3,1.305q1.861,1.859,3.723,3.718c.327.325.379.3.786.054.606-.365,1.23-.7,1.849-1.04a2.083,2.083,0,0,0,.5-.273.686.686,0,0,1,.978-.1,1.023,1.023,0,0,1,.625.8,12.551,12.551,0,0,0,.614,2.2c.1.26-.082.582.224.786s.622.085.926.088c2.018.015,4.034.007,6.052.007.175,0,.351,0,.526,0a.379.379,0,0,0,.4-.361c.1-1.019.583-1.939.719-2.952.07-.521.916-.844,1.421-.6a14.019,14.019,0,0,1,1.49.831c.489.315,1.031.5,1.5.853C81.1,83,82.816,81.29,84.527,79.575c.319-.321.292-.352.024-.786-.358-.579-.688-1.175-1.022-1.767-.107-.188-.17-.4-.289-.582a.985.985,0,0,1,.65-1.569,20.407,20.407,0,0,0,2.279-.638c.258-.089.594.1.783-.23a1.728,1.728,0,0,0,.076-.931c.013-2.075.007-4.149.006-6.224M75.579,50.287c-.194.164-.107.376-.119.567s.069.447-.016.607a7.145,7.145,0,0,0-.33,1.441,10.684,10.684,0,0,0-.345,1.521c-.034.228-.125.348-.476.541.273-.459-.013-.725-.066-1.05-.1-.594-.1-.6-.692-.6q-3.157,0-6.313,0a1.959,1.959,0,0,0-.853.055c-.346.163-.131.524-.251.77-.012.025-.052.039-.058.064-.2.734-.447,1.462-.585,2.209a1.029,1.029,0,0,1-.637.789.705.705,0,0,1-.977-.125,1.592,1.592,0,0,0-.5-.257c-.6-.252-1.087-.722-1.717-.937-.173-.058-.236-.307-.492-.3-.291.007-.386.243-.54.394q-2.213,2.19-4.4,4.4c-.212.216-.528.353-.579.722-.045.325.362.365.356.646,0,.152.131.239.191.358.306.607.646,1.2,1.005,1.775.318.509.1,1.4-.467,1.517-.913.186-1.788.5-2.689.711-.662.158-.67.142-.67.8q0,3.244,0,6.486c0,.118.007.234,0,.351a.352.352,0,0,0,.337.415,3.847,3.847,0,0,1,1.147.234,7.449,7.449,0,0,1,1.166.34c.368.145.876.025,1.119.483.092.173.166.249-.084.371a19.167,19.167,0,0,1-2.315.977,29.269,29.269,0,0,1-4.553,1.275c-.254.04-.422.264-.717.206a.8.8,0,0,0-.8.161,4.836,4.836,0,0,0-1.608.2,6.069,6.069,0,0,0,.713-2.658h2.753V56.118c-2.257,0-4.476.013-6.7-.012a4.771,4.771,0,0,0-1.307.249c-.286.076-.562.192-.844.288q-2.767.94-5.536,1.876a6.384,6.384,0,0,1-2.289.419c-1.576-.052-3.156-.015-4.734-.015a1.273,1.273,0,0,0-.941.2,20.2,20.2,0,0,0-.394-2.889,10.563,10.563,0,0,0-.875-2.624,10.048,10.048,0,0,0-2.228-3.283,10.061,10.061,0,0,0-1.717-1.563,1,1,0,0,1-.483-1.028c.06-.726.013-1.46.015-2.191,0-.753,0-.753.728-.828a1.111,1.111,0,0,0,.322-.072,8.8,8.8,0,0,0,2.192-1.089,6.738,6.738,0,0,0,1.483-1.678,5.912,5.912,0,0,0,.887-3.135q0-.877,0-1.754c0-.937,0-.935.969-1.216.937-.271,1.832-.676,2.792-.884.359-.079.446-.26.447-.664a7.491,7.491,0,0,0-.037-2.006c-.189-.658-.121-1.32-.276-1.978a23.118,23.118,0,0,0-1.031-3.435,8.615,8.615,0,0,0-1.236-2.468.2.2,0,0,1,.024-.3,2.14,2.14,0,0,1,.379-.358A13.642,13.642,0,0,0,32.1,21.876a9.173,9.173,0,0,0,1.615-4.943c-.007-.35,0-.7,0-1.051,0-.282.172-.385.413-.443.795-.2,1.593-.386,2.379-.613.148-.042.163-.072.2.085.027.13.16.245.161.368a7.178,7.178,0,0,0,.9,2.786,10.878,10.878,0,0,0,2.1,3.074A14.22,14.22,0,0,0,41.571,22.7a13.855,13.855,0,0,0,3.441,1.864,19.15,19.15,0,0,0,2.962.67,10.306,10.306,0,0,0,1.836.027c.629.021,1.222-.3,1.857-.179a13.156,13.156,0,0,0,2.277-.852A7.552,7.552,0,0,0,57,22.526a11.58,11.58,0,0,0,2.835-3.19,1.245,1.245,0,0,1,.494-.547c.252-.107.356.228.541.346.862.546,1.712,1.113,2.531,1.72a1.373,1.373,0,0,1,.658.771c-.233.127-.465.252-.694.385-.049.028-.079.089-.127.121-.54.353-1.029.777-1.545,1.156A12.678,12.678,0,0,0,59.142,26c-.364.485-.634,1.029-.975,1.52a11.74,11.74,0,0,0-1.125,2.433,3.881,3.881,0,0,0-.337.995c-.04.391-.321.74-.192,1.153-.294.38-.042.867-.2,1.23a3.146,3.146,0,0,0-.146,1.254,5.658,5.658,0,0,0,.034,1.827c.186.573-.051,1.195.312,1.709a10.942,10.942,0,0,0,1.172,3.633,17.81,17.81,0,0,0,2.073,3.186,15.126,15.126,0,0,0,2.85,2.64,16.843,16.843,0,0,0,2.977,1.709,16.426,16.426,0,0,0,4.935,1.2,8.254,8.254,0,0,0,2.187-.009,16.935,16.935,0,0,0,2.057-.306c.191-.051.34-.194.535-.194.109,0,.251-.054.313.075a.245.245,0,0,1-.033.228" transform="translate(0 0)"/>
    <path id="Trazado_245473" data-name="Trazado 245473" d="M22.951,54.35a8.55,8.55,0,0,1-1.244-2.825,6.94,6.94,0,0,1-.145-1.685A6.666,6.666,0,0,1,23,45.962a4.269,4.269,0,0,1,1.23-1.248c.137-.075.137-.154.137-.268a13.351,13.351,0,0,0-.028-2.187,11.416,11.416,0,0,0-.385-1.934,9.783,9.783,0,0,0-1.411-2.911,5.333,5.333,0,0,0-1.688-1.767c-.337-.163-.564-.537-.919-.74a.964.964,0,0,0-.535-.2c-.438.013-.877.015-1.315,0a11.915,11.915,0,0,1-3.662-.68,9.608,9.608,0,0,1-3.12-1.775c-.17-.146-.257-.146-.5-.066a19.9,19.9,0,0,1-2.386.588,13.643,13.643,0,0,0-3.26,1.233,10.04,10.04,0,0,0-2.373,2.77,7.582,7.582,0,0,0-.849,4.457A8.184,8.184,0,0,0,2.6,43.668c.567,1.284,1.069,2.6,1.621,3.885A22.2,22.2,0,0,0,5.39,50.229a1.421,1.421,0,0,1,.224.612c.022.306.206.331.528.251.74-.183,1.456-.449,2.2-.61a13.858,13.858,0,0,0,1.948-.583,5.829,5.829,0,0,0,1.323-.41c.2-.133.339-.084.194-.446-.38-.952-.767-1.9-1.145-2.856-.468-1.178-.959-2.349-1.45-3.518-.158-.374-.022-.48.194-.582.438-.206.9-.361,1.356-.534.027-.01.06,0,.088,0,.285-.073.54-.465.792-.3.2.131.216.531.331.805.324.771.689,1.527.971,2.313.164.459.364.9.544,1.353.362.9.7,1.817,1.069,2.712.3.722.583,1.454.9,2.167.473,1.06.905,2.137,1.348,3.21.151.364.3.565.758.556,1.776-.036,3.556-.015,5.381-.015" transform="translate(0.926 15.794)" fill="#fe816e"/>
    <path id="Trazado_245474" data-name="Trazado 245474" d="M18.762,13.121h-2.8a6.56,6.56,0,0,1,.455-2.691,4.583,4.583,0,0,0-2.107.049.787.787,0,0,1-.249.03,10.754,10.754,0,0,0-2.759.546,16.332,16.332,0,0,0-3.732,1.973,23.858,23.858,0,0,0-2.107,1.909,18.213,18.213,0,0,0-2.644,4.251,10.183,10.183,0,0,0-.55,1.961,12.3,12.3,0,0,0-.328,4.145,18.579,18.579,0,0,0,.415,2.443,15.277,15.277,0,0,0,1.323,3.311,16.684,16.684,0,0,0,1,1.6,9.656,9.656,0,0,0,1.678,1.842A14.316,14.316,0,0,0,9.4,36.654c.3.151.486.465.81.526.149-.1.118-.218.118-.33,0-1.488-.007-2.978.007-4.468a.816.816,0,0,0-.283-.676c-.325-.294-.628-.612-.934-.926a5.2,5.2,0,0,1-1.6-4.157,5.966,5.966,0,0,1,.707-1.808,8.937,8.937,0,0,1,1.651-1.494c.555.127.443-.271.447-.573,0-.321.021-.644,0-.963A4.19,4.19,0,0,1,12.388,18a4.445,4.445,0,0,1,2.009-.652c3.244,0,6.486.018,9.729-.013a4.647,4.647,0,0,1,2.315.558A.9.9,0,0,0,27.5,17.8a5.638,5.638,0,0,0,2.2-2.925,4.774,4.774,0,0,0,.192-2.649,8.033,8.033,0,0,0-.617-1.764A4.713,4.713,0,0,0,27.161,8.3a5.924,5.924,0,0,0-2.928-.767,7.1,7.1,0,0,0-2.807.852A6.944,6.944,0,0,0,19.3,10.575c0,.509-.407.883-.409,1.423a9.15,9.15,0,0,0-.131,1.123" transform="translate(0.925 3.699)" fill="#656d78"/>
    <path id="Trazado_245475" data-name="Trazado 245475" d="M53.36,65.686a2.2,2.2,0,0,0,.4-1.233c.085-.552.453-1.02.4-1.6-.012-.148.155-.282.345-.324a13.509,13.509,0,0,0,2.71-1.072.7.7,0,0,1,.677-.031c.665.265,1.2.75,1.86,1.013a1.586,1.586,0,0,1,.359.188.406.406,0,0,0,.6-.081q.926-.935,1.86-1.858c.222-.219.16-.391.048-.671A20.476,20.476,0,0,0,61.6,58.163a1.123,1.123,0,0,1,.013-1.278,8.953,8.953,0,0,0,.949-2.319.559.559,0,0,1,.5-.467,20.967,20.967,0,0,0,2.436-.674c.157-.061.242-.076.24-.26-.006-.993-.015-1.988.006-2.98,0-.251-.124-.26-.3-.309-.547-.157-1.083-.368-1.638-.48-.3-.061-.558-.252-.89-.2-.17.025-.306-.149-.339-.324a10.817,10.817,0,0,0-1.119-2.78.622.622,0,0,1,0-.61c.3-.735.82-1.344,1.123-2.076.216-.524.242-.521-.1-.868-.574-.582-1.16-1.153-1.733-1.738-.213-.219-.386-.188-.67-.076-.762.3-1.377.868-2.152,1.154a.681.681,0,0,1-.677.009,11.2,11.2,0,0,0-2.7-1.095c-.252-.055-.346-.2-.4-.464q-.239-1.163-.579-2.3c-.058-.192-.136-.434-.515-.41-.931.057-1.869.024-2.8.015-.212,0-.227.157-.331.255-.294.276.042.72-.321.932.079.579-.394,1.034-.355,1.608a.363.363,0,0,1-.312.358,10.584,10.584,0,0,0-2.852,1.162.491.491,0,0,1-.543-.028c-.731-.416-1.49-.78-2.221-1.193a.469.469,0,0,0-.668.082q-.886.913-1.8,1.8a.472.472,0,0,0-.094.668c.413.731.777,1.49,1.195,2.219a.49.49,0,0,1,.037.543,12.816,12.816,0,0,0-1.166,2.849.457.457,0,0,1-.437.333c-.786.107-1.512.47-2.307.574a.511.511,0,0,0-.422.588c.049.873.015,1.751.016,2.628a.546.546,0,0,0,.444.574c.788.027,1.477.434,2.239.529.265.033.419.116.476.388a11.2,11.2,0,0,0,1.089,2.7.684.684,0,0,1,0,.679c-.274.75-.844,1.329-1.1,2.085-.173.5-.224.491.076.795.576.582,1.162,1.153,1.733,1.738.236.242.4.225.735.084.758-.319,1.389-.853,2.151-1.157a.637.637,0,0,1,.61-.006,14.074,14.074,0,0,0,2.779,1.122.431.431,0,0,1,.352.419c.081.793.486,1.509.567,2.313a.517.517,0,0,0,.576.44c.989-.058,1.985-.019,2.974-.019" transform="translate(18.501 18.485)" fill="#fbd670"/>
    <path id="Trazado_245476" data-name="Trazado 245476" d="M10.353,21.611c-.494,0-.929,0-1.363,0a1.387,1.387,0,0,0-1.348,1.958,1.829,1.829,0,0,0,.51.843c.462.446.916.9,1.362,1.363a1.818,1.818,0,0,1,.325.389,3.847,3.847,0,0,1,.531,1.979c-.039,3.065,0,6.133-.028,9.2A1.261,1.261,0,0,0,11.1,38.63a3.261,3.261,0,0,0,1.013.529c.367.055.656.427,1.084.336.379.382.907.089,1.363.313a3.474,3.474,0,0,0,1.389.037v-2.8H13.178V34.235H16.4c.614,0,1.227,0,1.84,0a3.445,3.445,0,0,0,3.18-2.382,3.654,3.654,0,0,0,.157-1.072c0-1.372,0-2.744,0-4.118,0-.4.088-.582.449-.662.959-.21,1.849-.629,2.8-.87a3.158,3.158,0,0,1,.623-.21.388.388,0,0,0,.324-.567,1.056,1.056,0,0,1-.157-.643A11.127,11.127,0,0,0,24.8,20.37c-.224-.577-.482-1.144-.743-1.709a17.164,17.164,0,0,0-1.128-1.893,1.654,1.654,0,0,0-1.508-.783c-3.214.033-6.428.016-9.642.013a1.317,1.317,0,0,0-1.318.834,1.258,1.258,0,0,0-.1.57c-.006,1.374,0,2.746,0,4.209" transform="translate(3.71 7.856)" fill="#efcfb3"/>
    <path id="Trazado_245477" data-name="Trazado 245477" d="M25.959,56.2q6.832,0,13.671,0a2.58,2.58,0,0,0,2.413-1.53A2.839,2.839,0,0,0,40.151,50.6a2.466,2.466,0,0,0-.7-.009q-11.96,0-23.925,0a3.3,3.3,0,0,1-2.054-.743,3.6,3.6,0,0,1-.938-1.621c-.355-.846-.719-1.688-1.043-2.547-.078-.207-.254-.224-.309-.166-.285.3-.747.009-1.008.331-1.162.189-2.243.68-3.4.9a6.137,6.137,0,0,1-1.347.359c-.073,0-.291.125-.116.428a23.21,23.21,0,0,1,1.049,2.452c.34.788.628,1.612.937,2.416a5.564,5.564,0,0,0,3.084,3.322,8.41,8.41,0,0,0,1.991.48H25.959" transform="translate(2.58 22.357)" fill="#efcfb3"/>
    <path id="Trazado_245478" data-name="Trazado 245478" d="M36.246,1.9a3.448,3.448,0,0,0-1.122.022c-.626.24-1.31.161-1.926.427a14.228,14.228,0,0,0-2.272,1.068c-.609.4-1.153.895-1.72,1.356-.085.067-.128.182-.2.263a9.435,9.435,0,0,0-1.876,2.9A5.39,5.39,0,0,0,26.718,9a12.537,12.537,0,0,0-.346,3.1c.015.233-.072.5.015.7.271.617.17,1.307.436,1.924a14.144,14.144,0,0,0,1.068,2.27c.4.609.9,1.153,1.356,1.72a2.874,2.874,0,0,0,.264.2,9.447,9.447,0,0,0,2.905,1.875,5.461,5.461,0,0,0,1.06.409,14.679,14.679,0,0,0,3.1.353,11.63,11.63,0,0,0,4.761-1.423,9.734,9.734,0,0,0,2.913-2.773,9.9,9.9,0,0,0,1.772-6.011,2.11,2.11,0,0,0-.013-.7c-.271-.617-.172-1.307-.436-1.924A14.484,14.484,0,0,0,44.5,6.45c-.4-.607-.9-1.15-1.356-1.718a2.646,2.646,0,0,0-.265-.2,9.373,9.373,0,0,0-2.9-1.876,4.359,4.359,0,0,0-1.062-.406,12.848,12.848,0,0,0-2.67-.348" transform="translate(12.95 0.915)" fill="#e5e8ec"/>
    <path id="Trazado_245479" data-name="Trazado 245479" d="M41.691,34.708a12.356,12.356,0,0,1,5.727-4.644,7.046,7.046,0,0,1-2.261-5.706A6.773,6.773,0,0,1,47.5,19.642a7.016,7.016,0,0,1,9.4,10.42,12.322,12.322,0,0,1,5.714,4.628,14.478,14.478,0,0,0,1.826-3.759,19.792,19.792,0,0,0,.288-4.643,12.882,12.882,0,0,0-2.938-6.758,13.018,13.018,0,0,0-1.612-1.606,11.847,11.847,0,0,0-1.763-1.236,12.316,12.316,0,0,0-1.917-.87,8.548,8.548,0,0,0-2.042-.553,21.981,21.981,0,0,0-2.291-.23c-.749,0-1.466.185-2.206.213a8.369,8.369,0,0,0-2.055.537,9.483,9.483,0,0,0-1.915.867,10.785,10.785,0,0,0-1.776,1.205,13.362,13.362,0,0,0-3.081,3.626,12.785,12.785,0,0,0-1.448,4.31,13.168,13.168,0,0,0,.188,4.694,11.623,11.623,0,0,0,1.821,4.221" transform="translate(19.439 7.389)" fill="#e5e8ec"/>
    <path id="Trazado_245480" data-name="Trazado 245480" d="M1.911,43.669v19.01H24.329V59.9h-.758c-3.183,0-6.367-.018-9.55.018a7.7,7.7,0,0,1-1.5-.224,7.485,7.485,0,0,1-1.392-.427A8.038,8.038,0,0,1,8.12,57.249a9.651,9.651,0,0,1-2-3.456c-.252-.744-.57-1.459-.856-2.187C5,50.928,4.749,50.24,4.45,49.578s-.5-1.386-.832-2.016c-.453-.87-.674-1.83-1.183-2.668a12.324,12.324,0,0,0-.524-1.225" transform="translate(0.939 21.462)" fill="#fe816e"/>
    <path id="Trazado_245481" data-name="Trazado 245481" d="M42.24,31.392a15.126,15.126,0,0,0,3.791,2.37,22.022,22.022,0,0,0,3.156.852,10.9,10.9,0,0,0,2.561.112,15.345,15.345,0,0,0,1.7-.291A11.582,11.582,0,0,0,56.6,33.349a9.281,9.281,0,0,0,1.861-1.213c.33-.264.741-.427.937-.813-2.006-3.068-4.753-4.974-8.548-4.974s-6.549,1.89-8.607,5.043" transform="translate(20.76 12.95)" fill="#b3dc7e"/>
    <path id="Trazado_245482" data-name="Trazado 245482" d="M25.364,49.81V41.394c-1.615,0-3.219-.061-4.815.03a3.128,3.128,0,0,0-1.851.789,5.3,5.3,0,0,0-1.3,1.474,3.6,3.6,0,0,0-.425,1.222,4.224,4.224,0,0,0,1.156,3.55,5.272,5.272,0,0,0,2.185,1.3,1.791,1.791,0,0,0,.592.049c1.46.006,2.922,0,4.455,0" transform="translate(8.329 20.334)" fill="#cbd0d8"/>
    <path id="Trazado_245483" data-name="Trazado 245483" d="M49.587,18.812a4.344,4.344,0,0,0-4.41,4.3,4.384,4.384,0,0,0,4.275,4.145,4.431,4.431,0,0,0,4.169-4.26c-.016-2.145-2.03-4.254-4.033-4.181" transform="translate(22.204 9.244)" fill="#efcfb3"/>
    <path id="Trazado_245484" data-name="Trazado 245484" d="M30.081,50.516V39.877c-1.368.464-2.71.923-4.057,1.374-.385.13-.776.248-1.169.349a.425.425,0,0,0-.371.486c0,.058,0,.118,0,.176v8.254Z" transform="translate(12.033 19.598)" fill="#e5e8ec"/>
    <path id="Trazado_245485" data-name="Trazado 245485" d="M32.91,39.518h-2.78v.765q0,5.378,0,10.758c0,.264-.076.518.327.656.322.112.471.564.865.655.073.409.494.547.667.864.119.221.2.376.479.316a2.273,2.273,0,0,1,.441,0Z" transform="translate(14.806 19.422)" fill="#fe816e"/>
    <path id="Trazado_245486" data-name="Trazado 245486" d="M58.287,49.854A8.506,8.506,0,0,0,55.4,43.526a8.389,8.389,0,1,0-11.1,12.585,8.074,8.074,0,0,0,5.96,2.1,8.22,8.22,0,0,0,5.9-2.89,8.518,8.518,0,0,0,2.121-5.465" transform="translate(20.356 20.341)"/>
    <path id="Trazado_245487" data-name="Trazado 245487" d="M16.94,19.25a1.4,1.4,0,1,0-1.4,1.432,1.334,1.334,0,0,0,1.4-1.432" transform="translate(6.946 8.785)" fill="#020202"/>
    <path id="Trazado_245488" data-name="Trazado 245488" d="M30.147,4.131V17.086l10.813-5.43c.58-.291,1.156-.591,1.742-.87.1-.046.225-.013.224-.183s-.133-.131-.228-.179q-3.665-1.83-7.323-3.677c-1.732-.87-3.466-1.735-5.228-2.616" transform="translate(14.817 2.03)"/>
    <path id="Trazado_245489" data-name="Trazado 245489" d="M54.532,48.95a5.641,5.641,0,0,0-5.672-5.684,4.538,4.538,0,0,0-1.714.3A6.174,6.174,0,0,0,44.9,44.916a6.357,6.357,0,0,0-1.332,2.248,4.457,4.457,0,0,0-.273,1.73,5.635,5.635,0,0,0,5.677,5.6,4.509,4.509,0,0,0,1.714-.3,6.154,6.154,0,0,0,2.245-1.345A6.322,6.322,0,0,0,54.264,50.6a3.414,3.414,0,0,0,.268-1.647" transform="translate(21.278 21.264)" fill="#e5e5e5"/>
    <path id="Trazado_245490" data-name="Trazado 245490" d="M32.03,11.016c1.18-.589,2.328-1.168,3.484-1.73.082-.04.157-.057.167-.149.013-.131-.064-.161-.183-.219-1.154-.559-2.3-1.142-3.468-1.73Z" transform="translate(15.742 3.532)" fill="#fd816d"/>
  </g>
</svg>
