<svg id="Grupo_754524" data-name="Grupo 754524" xmlns="http://www.w3.org/2000/svg" xmlns:xlink="http://www.w3.org/1999/xlink" width="82.995" height="82.927" viewBox="0 0 82.995 82.927">
  <defs>
    <clipPath id="clip-path">
      <rect id="Rectángulo_37383" data-name="Rectángulo 37383" width="82.995" height="82.927" fill="none"/>
    </clipPath>
  </defs>
  <g id="Grupo_754523" data-name="Grupo 754523" transform="translate(0 0)" clip-path="url(#clip-path)">
    <path id="Trazado_245551" data-name="Trazado 245551" d="M7.933.878C7.491.8,7.681.213,7.057.03,6.406.03,5.517,0,4.631.035A4.8,4.8,0,0,0,.257,3.309,5.175,5.175,0,0,0,0,4.9q0,11.591,0,23.182a4.58,4.58,0,0,0,1.447,3.486,4.529,4.529,0,0,0,3.134,1.3c4.853-.029,9.707-.012,14.453-.012,2.285,1.942,4.587,3.7,6.907,5.41.433-.231.9-.3,1.234-.747V33.326a.966.966,0,0,1,1.022-.483c1.744.015,3.49.008,5.235,0,.353,0,.73.074,1.059-.332V49.541H33.084c-9.62,0-19.241.012-28.862-.015a3.773,3.773,0,0,0-2.8,1.068A4.586,4.586,0,0,0,0,53.8c.012,3.155,0,6.312,0,9.458a3.065,3.065,0,0,0,1.133.709c1.179.3,1.376-.631,1.72-1.376.2-2.8.039-5.607.094-8.408A1.783,1.783,0,0,1,4.26,52.31a2.5,2.5,0,0,1,.7-.1c10.247,0,20.5-.057,30.741.032a1.944,1.944,0,0,1,1.216.925,2.143,2.143,0,0,1,.308.64c.094,6.44.024,12.876.045,19.086a1.6,1.6,0,0,1-1.507.572q-15.828.009-31.66,0a2.559,2.559,0,0,1-.7-.08c-.6-.3-.438-.874-.459-1.369a32.1,32.1,0,0,0-.1-3.653c-.264-.831-.607-1.563-1.708-1.284-.293-.023-.382.445-.723.3-.285.14.092.667-.41.61,0,3.6-.008,7.136,0,10.667a4.449,4.449,0,0,0,3.066,4.014,5.019,5.019,0,0,0,1.731.254c25.787,0,51.574,0,77.51,0l.623-.967V71.433a.594.594,0,0,1-.266-.558l-.825-.4c-1.111-.276-1.449.459-1.71,1.3-.267,2.562.069,5.141-.195,7.7a2.014,2.014,0,0,1-.269.329c-1,.412-2.034.1-3.048.186a16.336,16.336,0,0,1-3.732-.18c-.57-1.013-.177-2.107-.276-3.157a5.043,5.043,0,0,0-.244-1.928,1.6,1.6,0,0,0-1.651-1.059,1.541,1.541,0,0,0-1.328,1.277,12.8,12.8,0,0,0-.149,2.792,3.4,3.4,0,0,1-.278,1.906c-.412.441-.954.341-1.461.341q-11.139.007-22.277-.011c-.584,0-1.414.3-1.509-.754,0-1.074.018-2.146,0-3.219-.024-1.746-.291-2.087-1.968-2.52a2.21,2.21,0,0,1-.774-.3c-.528-.495-.358-1.144-.359-1.735q-.016-7.834,0-15.665a11.836,11.836,0,0,0-.254-2.654c.054-.789.578-.862,1.216-.792.7.454.815,1.245,1.074,1.931.851,2.248,1.781,4.47,2.561,6.744A3.716,3.716,0,0,0,48.9,63.754a3.774,3.774,0,0,0,3.735-2.512c.379-.81.782-1.609,1.263-2.573a15.64,15.64,0,0,1,1.471,2.737,3.85,3.85,0,0,0,7.148-.16c1.035-2.481,1.879-5.035,2.884-7.528a2.838,2.838,0,0,1,1-1.593c2.915.88,6.122,1.254,8.98,2.822,2.731,2.04,4.794,4.459,4.666,8.135a18.943,18.943,0,0,0,.106,3.054c.32.745.515,1.667,1.695,1.231.293.023.382-.444.723-.3.2-.189.094-.56.409-.687,0-1.316.045-2.636-.012-3.954a11.416,11.416,0,0,0-.827-3.611,12.874,12.874,0,0,0-3.661-5.126,11.218,11.218,0,0,0-4.5-2.435c-.261-.069-.371-.25-.59-.376V32.112a4.223,4.223,0,0,0,1.393-3.664c-.041-1.977-.011-3.957-.011-5.9a8.306,8.306,0,0,1-.954-1.628A3.443,3.443,0,0,0,72.5,19.8c0-2.377,0-4.723,0-7.07a7.6,7.6,0,0,0-3.154-6.306,6.287,6.287,0,0,0-3.27-1.305c-.761-.06-1.471-.495-2.2-.232-.2-.231-.4-.355-.43-.512C63.1,2.443,61.735,1.4,60.139.558A4.506,4.506,0,0,0,58.094.041c-2.217-.03-4.438-.081-6.65.018a18.883,18.883,0,0,0-3.259.649,6.509,6.509,0,0,0-1.624.513c-.474.254-.987.379-1.449.605-.828.406-1.574.981-2.365,1.471a16.283,16.283,0,0,0-2.585,2.3,13.022,13.022,0,0,0-2.105,2.665c-.059.1-.18.158-.344.3V3.434A8,8,0,0,0,36.375,1.4a4.884,4.884,0,0,0-3.4-1.385C25.994.045,19.013.03,12.036.03c-.163.175-.308.371-.576.276-.146.3-.279.579-.412.854a.58.58,0,0,0-.113.453c.19.881.884,1.129,1.639,1.3,6.7.131,13.4.026,20.092.06a2.093,2.093,0,0,1,2.271,1.434c.152,4.758.039,9.514.057,14.269a1.349,1.349,0,0,1-.219.8,5.551,5.551,0,0,0-2.046,4.685,44,44,0,0,1-.078,5.589c-.329.576-.9.418-1.391.432-1.832.05-3.667-.066-5.5.065-1.55.5-1.017,1.909-1.3,3.09-1.784-.771-2.86-2.583-4.755-3.093-4.307-.134-8.613-.021-12.917-.063A7.476,7.476,0,0,1,4.7,30.057a1.892,1.892,0,0,1-1.747-2.19q0-11.387,0-22.764C2.935,3.911,3.37,3.08,4.685,2.96a10.274,10.274,0,0,0,1.972-.122,2.755,2.755,0,0,0,.821-.389c.49-.426.905-.874.454-1.571" transform="translate(0 0)"/>
    <path id="Trazado_245552" data-name="Trazado 245552" d="M2.169,45.272c-.424.184-.438.7-.8.964a.952.952,0,0,1-.619.167v3.112c.317.142.6.413.982.282.388.166-.161.794.433.85a23.812,23.812,0,0,1,.152,4c.035.436-.2.951.311,1.277a4.787,4.787,0,0,0,1.4.1q15.532,0,31.062,0a2.994,2.994,0,0,0,1.655-.2,2.5,2.5,0,0,0,.238-1.636q.018-8.517,0-17.032a3.148,3.148,0,0,0-.279-1.781,1.747,1.747,0,0,1-.272-.543c-.044-.438-.353-.272-.578-.306q-16.283,0-32.567,0c-.5.195-.736.685-1.133.973v.724a56.326,56.326,0,0,1,0,9.054" transform="translate(0.384 17.568)" fill="#9fa9b6"/>
    <path id="Trazado_245553" data-name="Trazado 245553" d="M55,44.411c.175-2.2-.883-4-2.024-5.714-.3-.459-1.01-.741-1.366-1.24a4.631,4.631,0,0,0-1.424-1.249c-.427.53-.172,1.074-.014,1.6a17.879,17.879,0,0,1,.717,5.274c-.035,5.395-.015,10.791-.009,16.185a6.527,6.527,0,0,0,.161,2.094.945.945,0,0,0,.332.4,12.914,12.914,0,0,0,3.342-.1c.3-2.325.048-4.663.146-6.993.021-.5-.183-1.023.137-1.5.533-.065.154-.528.355-.785a2.192,2.192,0,0,0,1.061-.347V48.938c-.441.1-.714-.288-1.086-.377-.175-.226.2-.688-.329-.754a8.024,8.024,0,0,1,0-3.4" transform="translate(25.426 18.428)" fill="#b0e3f8"/>
    <path id="Trazado_245554" data-name="Trazado 245554" d="M8.564,1.148V.866c-.75,0-1.5-.044-2.247.018-.373.03-.564-.252-.868-.3v.687c-.16.266-.51.383-.567.727-.008.106.026.247.062.24,1.13-.247,2.277-.4,3.407-.643.2-.041.269-.235.213-.445" transform="translate(2.484 0.296)" fill="#f7fcfe"/>
    <path id="Trazado_245555" data-name="Trazado 245555" d="M63.278,62.732c0-6.765.029-13.529-.023-20.294a9.256,9.256,0,0,0-1.022-4.359c-.149-.279-.038-.543-.089-.81a23.974,23.974,0,0,0-3.917-1.476A44.944,44.944,0,0,1,52.4,34.119c-.673,1.725-1.338,3.419-1.993,5.118a35.686,35.686,0,0,0-1.258,3.43c-.213.782-.7,1.406-.97,2.146a1.369,1.369,0,0,1-.818.691c-.308.113-.717.167-.895.536-.394,0-.77,0-1.144,0a3.028,3.028,0,0,1-2.92-1.759c-.637-1.29-1.263-2.585-1.939-3.97-.527,1.449-1.441,2.633-1.85,4.071-.092.323-.575.518-.825.816a2.537,2.537,0,0,1-2.173.845c-.33-.011-.661,0-.99,0A.873.873,0,0,1,34.4,45.9c-.46-.53-1.45-.133-1.725-1.05-.186-.619-.644-1.159-.8-1.781a35.8,35.8,0,0,0-1.556-4.3,39.334,39.334,0,0,0-1.71-4.276c-.745-.276-1.42.2-2.143.314v.483a4.167,4.167,0,0,1,.429,2.319q0,8.687.008,17.374a3.034,3.034,0,0,0,.13,1.526,4.866,4.866,0,0,1,2.386.288,2.685,2.685,0,0,1,.447.41v4.678c.085.266.029.569.223.8.278.247.622.178.945.178q12.1.007,24.205,0a1.573,1.573,0,0,0,.963-.134c0-.984-.038-1.971.011-2.953.047-.948-.279-1.936.4-2.887.278-.092.6-.469,1.168-.371.263.3.567.653.967,1.112,0,1.514,0,3.2,0,4.879,0,.2-.107.5.279.5a.634.634,0,0,0,.136-.454c-.009-1.411.026-2.822-.021-4.233.172,1.494-.207,3.016.22,4.5a17.225,17.225,0,0,0,3.913-.092" transform="translate(13.47 17.366)" fill="#d2eefa"/>
    <path id="Trazado_245556" data-name="Trazado 245556" d="M10.188.957c.021.267-.161.282-.355.282-.783,0-1.566,0-2.517,0L6.583,2c-.014-.033-.045-.112-.077-.192-.214.044-.542-.14-.566.284a3.676,3.676,0,0,1-2.265,0H2.966l-1.274,1.3v.682a1.471,1.471,0,0,1,.143.955q0,10.928,0,21.856a1.468,1.468,0,0,1-.143.955c.107,1.358.33,1.619,1.7,1.981q7.186,0,14.373,0a2.057,2.057,0,0,1,1.485.279c.187.49.751.352,1.089.785.089.634.8.671,1.367,1.01a.89.89,0,0,0,1.117.748c.1.67.623.862,1.213,1.12.06-.754.021-1.526.026-2.292,0-.539.017-1.064.569-1.37a1.165,1.165,0,0,1,.4-.238c1.651-.192,3.326.172,4.969-.208a1,1,0,0,0,.281-.4,37.893,37.893,0,0,0,.131-5.749,6.075,6.075,0,0,1,1.242-3.938,4.735,4.735,0,0,0,1.041-3.4,20.4,20.4,0,0,1,1.239-8.556,5.638,5.638,0,0,0,.421-1.482A13.543,13.543,0,0,1,34.257,3.7c0-.066,0-.133,0-.2a2.36,2.36,0,0,0-1.577-1.409,2.022,2.022,0,0,0-.406,0,1.2,1.2,0,0,1-.813.143q-9.742,0-19.484,0c-.231,0-.472.053-.658-.146-.068-.521-.5-.177-.732-.306-.333-.178.178-.767-.4-.825" transform="translate(0.861 0.487)" fill="#f3fafe"/>
    <path id="Trazado_245557" data-name="Trazado 245557" d="M30.057,22.084c.62.048,1.073-.386,1.575-.617A17.692,17.692,0,0,1,36.7,20.05c2.369-.33,4.722-.124,7.079-.228a4.285,4.285,0,0,0,2.68-1.278,10.909,10.909,0,0,0,2.007-2.119q0-6.082,0-12.165a1.406,1.406,0,0,0-.753-1.218c-.309-.189-.465-.629-.693-.958-.578-.059-1.062-.481-1.67-.371a24.5,24.5,0,0,1-5.947,0H37.765c-.192,0-.364.026-.346.284a.973.973,0,0,0,.824.118A1.564,1.564,0,0,1,37.137,2a4.927,4.927,0,0,0-2.164.587A18.36,18.36,0,0,0,30.7,4.9c-.014.862-1.094.759-1.343,1.547-.189.6-1.026.895-1.437,1.494a15.566,15.566,0,0,0-2.434,5.512,22.264,22.264,0,0,1-.278,2.283A6.968,6.968,0,0,0,24.981,18c.113.112.213.211.362.361h3.4l.5.5v3.723c.281.081.509.148.533-.22a11.194,11.194,0,0,1-.109-2.84c.081-.187.282.1.122,0-.074-.047-.131-.023-.121.066.1.834-.41,1.766.391,2.488" transform="translate(12.709 0.863)" fill="#a9593d"/>
    <path id="Trazado_245558" data-name="Trazado 245558" d="M27.977,24.653c-.161.748.275,1.406.344,2.132a4.883,4.883,0,0,0,.806,1.909c.346.573.518,1.3,1.216,1.618.472,1.108,1.609,1.61,2.319,2.512a3.576,3.576,0,0,0,1.446.9c1.13.468,2.187,1.2,3.5,1.111q2.123-.011,4.248,0a2.433,2.433,0,0,0,1.8-.332,11.129,11.129,0,0,0,3.294-1.931c.254-.481-.032-.782-.432-.783-1.651,0-3.323-.347-4.949.217-1.366.57-.825.889-3.59.234-.293-.736-.869-1.406-.647-2.269A3.017,3.017,0,0,1,37.96,28.4a2.722,2.722,0,0,1,1.583-.611c.635-.1,1.171.329,1.743.546.365.205.685.539,1.13.534a54.924,54.924,0,0,0,7.012-.121.826.826,0,0,0,.293-.721c-.232-2.52-.085-5.046-.1-7.571-.006-1.526-.077-3.047-.125-4.569q-.641-1.279-1.281-2.559a1.766,1.766,0,0,0-1.1.791c-.576.963-1.717,1.269-2.651,1.722a7.1,7.1,0,0,1-3.409.634c-1.922-.083-3.852-.024-5.779-.018-.2,0-.5-.109-.5.279.478.266,1,.083,1.494.137q2.533,0,5.069,0c-1.646,0-3.294,0-4.94,0-.632-.069-1.289.148-1.906-.146a8.042,8.042,0,0,0-4.035,1.379,2.964,2.964,0,0,0-1.183.865c-.685-.116-.358.946-1.011.869-.519,1.12-.244,2.3-.228,3.45.008.457.216.914-.056,1.36" transform="translate(14.221 6.782)" fill="#fbcfa2"/>
    <path id="Trazado_245559" data-name="Trazado 245559" d="M1.692,52.812v.708l.991.99h.708a1.77,1.77,0,0,1,1.1-.142q15.892-.007,31.785,0a1.769,1.769,0,0,1,1.1.142h.284a2.817,2.817,0,0,0,.207-3.539,2.6,2.6,0,0,0-1.115-.136q-16.845,0-33.689,0a3.587,3.587,0,0,0-.844.068c-.786.468-.083,1.346-.524,1.909" transform="translate(0.861 25.872)" fill="#7f8a94"/>
    <path id="Trazado_245560" data-name="Trazado 245560" d="M40.562,31.205a48.175,48.175,0,0,0-.195,5.25L50.206,39.1V22.168h-2.5c0,.671.011,1.363-.006,2.054a1.734,1.734,0,0,1-.145.786c-.373.773-.729,1.441-1.678,1.686a2.248,2.248,0,0,0-1.2.854,6.762,6.762,0,0,1-.691.7,15.912,15.912,0,0,1-3.427,2.953,31.988,31.988,0,0,1,.214,4.394,33.005,33.005,0,0,0-.214-4.394" transform="translate(20.546 11.283)" fill="#924d36"/>
    <path id="Trazado_245561" data-name="Trazado 245561" d="M34.149,31.448c-.883-.963-1.938-1.574-2.754-2.414a13.368,13.368,0,0,1-2.553-3.448,9.814,9.814,0,0,1-1.18-3.045c-.012-.11-.187-.2-.385-.4H24.871a5.188,5.188,0,0,0-.128,2.082c-.018,4.224,0,8.446-.015,12.668a2.443,2.443,0,0,1-.14,1.376c.157.462.673.315.848.595l9.064-2.39q0-2.451,0-4.913c0-.192,0-.386-.349-.113-.08,1.308-.066,2.748-.069,3.674.072-.966-.124-2.452.069-3.674" transform="translate(12.514 11.271)" fill="#924d36"/>
    <path id="Trazado_245562" data-name="Trazado 245562" d="M32.855,34.442c-.177.739.466,1.219.6,1.87a1.629,1.629,0,0,1,1.163,1.166c2.757,1.133,2.478,1.094,5.168.077.237-.546.525-1.04,1.032-1.142.988-.979.8-2.141.812-3.264.006-.889,0-1.779,0-2.668a1.323,1.323,0,0,0-1.206-.2,15.36,15.36,0,0,1-6.289.027,1.358,1.358,0,0,0-.961.107c-.656,1.215-.164,2.528-.323,3.786v.241" transform="translate(16.707 15.383)" fill="#fbcfa2"/>
    <path id="Trazado_245563" data-name="Trazado 245563" d="M24.141,5.082a25.338,25.338,0,0,0-1.154,3.905c-.522,2.313-.081,4.64-.3,6.979A10.86,10.86,0,0,0,20.61,19.45a4.435,4.435,0,0,0-.139,1.061c-.023,2.212-.012,4.426-.012,6.639.658.872,1.453.647,2.266.282,0-2.1.008-4.2,0-6.3a3.341,3.341,0,0,1,.822-2.608c.1-.1.029-.356.038-.549.279-.377.931-.205,1.126-.73,0-3.6.012-7.2-.017-10.8,0-.484.291-1.179-.549-1.364" transform="translate(10.412 2.587)" fill="#dee9ee"/>
    <path id="Trazado_245564" data-name="Trazado 245564" d="M44.62,34.051a4.879,4.879,0,0,0-2.751-.613,6.077,6.077,0,0,1-.86,2.386c-.34.86-1.366,1.123-1.526,2.045-.911.115-1.539.875-2.577.952.853,1.723,1.66,3.351,2.484,5.016h1.55q1.831-4.869,3.68-9.786" transform="translate(18.784 16.995)" fill="#f2f9fd"/>
    <path id="Trazado_245565" data-name="Trazado 245565" d="M33.25,43.814c.234.045.483.039.564.293a2.982,2.982,0,0,0,1.634-1.663,36.851,36.851,0,0,1,1.708-3.634c-.914-.066-1.533-.851-2.49-.955-.462-.46-.961-.96-1.4-1.4-.3-1.089-1.064-1.907-1.079-2.946-1.136-.347-1.855.344-2.748.512,1.367,3.231,2.337,6.54,3.812,9.793" transform="translate(14.983 17.006)" fill="#f2f9fd"/>
    <path id="Trazado_245566" data-name="Trazado 245566" d="M23.653,22.2c0,.142-.027.4,0,.406.548.125.592.73.928.964h3.006V14.261c-1.21.11-2.47-.33-3.542.607-.133.275-.264.549-.4.825q0,3.253,0,6.507" transform="translate(12.033 7.254)" fill="#e07f85"/>
    <path id="Trazado_245567" data-name="Trazado 245567" d="M45.254,5.367c-.024-.424-.352-.24-.566-.282-.7.175-1.515-.309-2.134.361-.293,3.09-.053,6.188-.131,9.283,0,.086,0,.172,0,.258a15.5,15.5,0,0,0,1.254,2.8c.078.2.189.383.314.632.27-.641.2-1.446.981-1.738.8-.192.976-.807.987-1.506q.061-4.09,0-8.18a2.112,2.112,0,0,0-.7-1.631" transform="translate(21.583 2.584)" fill="#a9583d"/>
    <path id="Trazado_245568" data-name="Trazado 245568" d="M44.39,5.269c-.134.439.37.7.3,1.153a8.046,8.046,0,0,0-.014,1.266v8.441c-.063.32-.623,0-.567.457h3.241a.657.657,0,0,0,.1-.091.214.214,0,0,0,.053-.118c0-2.626,0-5.251,0-7.755-.318-.605-.564-1.118-.853-1.606A3.137,3.137,0,0,0,44.39,5.269" transform="translate(22.447 2.682)" fill="#924c36"/>
    <path id="Trazado_245569" data-name="Trazado 245569" d="M49.11,15.877c.042-.622-.4-.883-.85-1.132a3.276,3.276,0,0,0-2.63-.033,50.882,50.882,0,0,0-.124,8.305c.377.693,1.153.1,1.621.5,1.23-.1,1.705-.435,1.983-1.414a27.174,27.174,0,0,1,0-6.225" transform="translate(23.106 7.352)" fill="#e17f85"/>
    <path id="Trazado_245570" data-name="Trazado 245570" d="M36.185,55.356H1.919a.4.4,0,0,0,0,.566H36.606c.291-.263.137-.613.137-.916q.016-9.4-.006-18.806c0-.3.279-.759-.269-.931a3,3,0,0,0-.131,1.521c-.011,5.736,0,11.47-.017,17.2,0,.451.177.937-.136,1.363" transform="translate(0.916 17.951)" fill="#a0aab7"/>
    <path id="Trazado_245571" data-name="Trazado 245571" d="M1.975,51.238H37.94a.394.394,0,0,0,0-.566q-17.517,0-35.035.018c-.394,0-.931-.353-1.213.266.112.077.112.266.284.282" transform="translate(0.861 25.749)" fill="#808c96"/>
    <path id="Trazado_245572" data-name="Trazado 245572" d="M2.444,34.618a.218.218,0,0,0,.225.278c.329.017.659,0,.99,0q15.068,0,30.137-.018c.394,0,.933.355,1.215-.264a.218.218,0,0,0-.223-.278c-.329-.017-.658,0-.988,0q-14.959,0-29.92,0a1.942,1.942,0,0,0-1.435.282" transform="translate(1.241 17.471)" fill="#a3adba"/>
    <path id="Trazado_245573" data-name="Trazado 245573" d="M44.808,26.995v.566a46.725,46.725,0,0,1-5.573.151,5.778,5.778,0,0,0-2.073.131c-.023.281.174.284.365.284h7.842a10.386,10.386,0,0,0,1.421-5.093,12.676,12.676,0,0,1,0-4.243,12.033,12.033,0,0,0-1.292-2.81c-.092-.186.029-.614-.407-.585-.409.486-.275,1.071-.276,1.621Q44.8,22,44.808,26.995" transform="translate(18.913 7.835)" fill="#fcb883"/>
    <path id="Trazado_245574" data-name="Trazado 245574" d="M33.132,31.138a19.829,19.829,0,0,0,5.367.589c.475-.011.774-.46,1.289-.323a1.584,1.584,0,0,0,1.289-.252c.128-.086.362-.014.549-.014V28.932a8.44,8.44,0,0,1-2.76.521c-.219-.012-.592-.2-.638.272.3.238.6.1.985.106-1.331.086-2.585.009-3.836.024-.189-.044,0-.308-.032-.122-.012.06.021.091.1.1a1.012,1.012,0,0,0,.8-.107c-.032-.078-.059-.223-.094-.226-.495-.03-.993-.027-1.486-.062-.429-.03-.786-.4-1.251-.278l-.207-.11c-.063.045-.125.089-.19.133a2.62,2.62,0,0,0-.047,1.791c.053.056.106.11.16.166" transform="translate(16.714 14.726)" fill="#fdb882"/>
    <path id="Trazado_245575" data-name="Trazado 245575" d="M36.8,53.392a.218.218,0,0,0-.225-.278c-.329-.017-.659,0-.99,0q-15.776,0-31.553.018c-.394,0-.933-.355-1.215.264Z" transform="translate(1.434 26.989)" fill="#85919b"/>
    <path id="Trazado_245576" data-name="Trazado 245576" d="M18.676,20.479v-.421a.39.39,0,0,0-.365-.146c-4.9,0-9.8,0-14.7.015-.26,0-.691-.281-.791.27a1.806,1.806,0,0,0,1.3.284q7.279,0,14.562,0" transform="translate(1.434 10.106)" fill="#fafefe"/>
    <path id="Trazado_245577" data-name="Trazado 245577" d="M22.9,6.322c.471.048.273.416.275.641q.018,5.12.006,10.24a1.824,1.824,0,0,0,.285,1.284c.474-.05.273-.421.275-.647.014-3.531.009-7.062.009-10.593,0-1.366,0-2.731,0-4.1,0-.2.112-.5-.279-.506a5.052,5.052,0,0,0,0,2.546L22.9,6.322" transform="translate(11.655 1.346)" fill="#e4eff4"/>
    <path id="Trazado_245578" data-name="Trazado 245578" d="M55.142,53.367H29.228c-.291-.3.121-.785-.423-.848-.062.343-.51.582-.084,1.172.1.089.444-.048.754-.048q12.3.014,24.595-.014c.341,0,.85.344,1.071-.263" transform="translate(14.526 26.731)" fill="#dcf9fe"/>
    <path id="Trazado_245579" data-name="Trazado 245579" d="M25.819,50.644v1.127c0,.516,0,1.031,0,1.547,0,.45-.433.8-.284,1.287h1.308c.258-.5,1.046-.647.958-1.415-.222-.754.118-1.509,0-2.263.02-.258-.152-.282-.346-.282H25.819" transform="translate(12.981 25.777)" fill="#5d6a74"/>
    <path id="Trazado_245580" data-name="Trazado 245580" d="M40.634,3.4a.216.216,0,0,0-.278.223q-.009,5.86,0,11.719a.215.215,0,0,0,.278.223c.276.023.282-.169.282-.361,0-3.647-.011-7.293.018-10.94,0-.364-.252-.561-.3-.865" transform="translate(20.538 1.726)" fill="#ad5b3e"/>
    <path id="Trazado_245581" data-name="Trazado 245581" d="M1.692,26.785a.219.219,0,0,0,.278-.225c.02-.234.006-.471.006-.706q0-10.951-.015-21.9c0-.3.281-.759-.269-.931Z" transform="translate(0.861 1.537)" fill="#fefefe"/>
    <path id="Trazado_245582" data-name="Trazado 245582" d="M42.323,27.187a1.807,1.807,0,0,0,.285-1.295q0-5.152,0-10.3c-.424-.024-.241-.352-.284-.566a.215.215,0,0,0-.278.223q-.009,5.858,0,11.719a.216.216,0,0,0,.278.223" transform="translate(21.398 7.643)" fill="#fbd0a3"/>
    <path id="Trazado_245583" data-name="Trazado 245583" d="M27.03,56.114V35.044c-.189-.238-.392-.113-.566-.149.539,3.374.22,6.772.272,10.158.051,3.424,0,6.851.026,10.276,0,.257-.281.687.269.785" transform="translate(13.47 17.76)" fill="#d6f3fe"/>
    <path id="Trazado_245584" data-name="Trazado 245584" d="M8.156,1.707c-.08.033-.16.066-.249.1.044.062.086.175.128.175q10.287.011,20.572,0c.205,0,.5.109.506-.279Z" transform="translate(4.024 0.869)" fill="#fefefe"/>
    <path id="Trazado_245585" data-name="Trazado 245585" d="M24.587,55.452l.1.249c.062-.045.174-.088.174-.131q.011-10.1.008-20.205c.006-.2-.088-.291-.284-.284Z" transform="translate(12.514 17.855)" fill="#a2adba"/>
    <path id="Trazado_245586" data-name="Trazado 245586" d="M45.8,23.323V14.835c.616-.4,1.363.1,1.983-.282.021-.276-.169-.282-.362-.284H45.231v5.47q0,1.752,0,3.505c0,.193.008.383.282.361.078-.11.267-.11.284-.282" transform="translate(23.021 7.263)" fill="#e38086"/>
    <path id="Trazado_245587" data-name="Trazado 245587" d="M24.6,38.27c.472-.05.273-.418.275-.644.014-3,.009-6.006.009-9.009V22.144c-.472.048-.273.418-.275.644-.014,3-.009,6-.009,9.007Z" transform="translate(12.504 11.271)" fill="#954e37"/>
    <path id="Trazado_245588" data-name="Trazado 245588" d="M42.806,5.467h1.637c.193,0,.365-.024.346-.282-.3-.051-.5-.35-.872-.3a12.13,12.13,0,0,1-1.556.017c-.243.343-.112.727-.113,1.083q-.02,4.228,0,8.456c0,.226-.2.6.273.646.309-2.7.045-5.417.146-8.124.02-.5-.184-1.023.137-1.5" transform="translate(21.482 2.483)" fill="#ad5a3e"/>
    <path id="Trazado_245589" data-name="Trazado 245589" d="M36.974,25.873h5.232c.234.193.115.394.149.566.5-.195.735-.682,1.255-1.062h-6.27c-.081.152-.38.21-.367.5" transform="translate(18.819 12.916)" fill="#fbd1a3"/>
    <path id="Trazado_245590" data-name="Trazado 245590" d="M23.751,21.716a.216.216,0,0,0,.278-.223q.011-3.031,0-6.062a.215.215,0,0,0-.278-.222c-.05.3-.311.5-.3.866q.066,2.386,0,4.774c-.009.367.252.563.3.866" transform="translate(11.935 7.738)" fill="#e9848a"/>
    <path id="Trazado_245591" data-name="Trazado 245591" d="M24.539,19.989a8.553,8.553,0,0,0-1.26.014,1.674,1.674,0,0,1-1-.3v.282a22.031,22.031,0,0,1-3.875.149c-.5.035-1.025-.13-1.506.133v.284h7.5c.235-.192.115-.392.149-.566" transform="translate(8.598 10.03)" fill="#e6f1f6"/>
    <path id="Trazado_245592" data-name="Trazado 245592" d="M1.692,44.7c.033.08.065.16.1.247.062-.042.175-.083.175-.124q.011-4.339,0-8.678c0-.2.1-.5-.279-.5Z" transform="translate(0.861 18.142)" fill="#a7b1bf"/>
    <path id="Trazado_245593" data-name="Trazado 245593" d="M53.4,47.54l-.1-.249c-.062.044-.174.088-.174.13q-.011,4.305-.008,8.607c.471-.048.273-.415.275-.641.014-2.615.009-5.232.009-7.847" transform="translate(27.033 24.07)" fill="#b8eefe"/>
    <path id="Trazado_245594" data-name="Trazado 245594" d="M37.352,23.843c2.336,0,4.67.006,7.006-.009.225,0,.592.195.64-.273H39.209a8.085,8.085,0,0,0-1.269.014c-.45.071-.714-.432-1.154-.3a.693.693,0,0,0,.566.566" transform="translate(18.723 11.836)" fill="#fbd6a7"/>
    <path id="Trazado_245595" data-name="Trazado 245595" d="M28.062,22.454c.38,0,.279-.293.279-.5.008-1.437,0-2.875,0-4.313-.282-.015-.34.276-.567.4,0,.857.015,1.728,0,2.6-.015.626.495,1.163.288,1.815" transform="translate(14.136 8.981)" fill="#fdd4a7"/>
    <path id="Trazado_245596" data-name="Trazado 245596" d="M38.6,27.677a.216.216,0,0,0-.222-.278q-1.9-.014-3.8,0a.216.216,0,0,0-.222.278c.3.048.493.327.865.3a17.985,17.985,0,0,1,2.518,0c.371.026.561-.254.865-.3" transform="translate(17.479 13.942)" fill="#fed4a6"/>
    <path id="Trazado_245597" data-name="Trazado 245597" d="M33.224,29.188h.284c-.113-.531-.481-.232-.85-.238,0,1.989,0,3.975,0,5.962a.215.215,0,0,0,.278.217,21.843,21.843,0,0,0,.139-3.781,6.663,6.663,0,0,1,.146-2.159" transform="translate(16.622 14.695)" fill="#a57d59"/>
    <path id="Trazado_245598" data-name="Trazado 245598" d="M47.954,15.4a.216.216,0,0,0-.278.223q-.011,2.888,0,5.778a.216.216,0,0,0,.278.223Z" transform="translate(24.263 7.833)" fill="#e88389"/>
    <path id="Trazado_245599" data-name="Trazado 245599" d="M1.977,50.959V45.021a1.445,1.445,0,0,0-.279.143c-.024.02,0,.089,0,.136,0,1.72,0,3.44,0,5.161,0,.2-.1.495.279.5" transform="translate(0.858 22.915)" fill="#a7b1bf"/>
    <path id="Trazado_245600" data-name="Trazado 245600" d="M34.536,1.707a.216.216,0,0,0,.223.278q2.75.011,5.5,0a.216.216,0,0,0,.223-.278Z" transform="translate(17.575 0.869)" fill="#b15c40"/>
    <path id="Trazado_245601" data-name="Trazado 245601" d="M35.561,29.456H34.186a5.261,5.261,0,0,0,2.366.278,15.727,15.727,0,0,0,2.365-.089c-.433-.276-.916-.146-1.373-.189Z" transform="translate(17.4 14.992)" fill="#febd86"/>
    <path id="Trazado_245602" data-name="Trazado 245602" d="M52.294,53.115H48.33c-.1-.136-.189-.136-.284,0V53.4h4.248c.094-.062.124-.125.094-.189s-.062-.094-.094-.094" transform="translate(24.454 26.983)" fill="#dbf8fe"/>
    <path id="Trazado_245603" data-name="Trazado 245603" d="M43.638,17.646a.215.215,0,0,0-.278.222q-.014,1.9,0,3.8a.215.215,0,0,0,.278.222Z" transform="translate(22.066 8.978)" fill="#fec088"/>
    <path id="Trazado_245604" data-name="Trazado 245604" d="M27.124,50.833a.217.217,0,0,0-.278.22q-.02.912,0,1.823a.217.217,0,0,0,.278.22,4.548,4.548,0,0,0,.279-2.055.22.22,0,0,0-.279-.208" transform="translate(13.659 25.87)" fill="#616e78"/>
    <path id="Trazado_245605" data-name="Trazado 245605" d="M53.4,41.646a.216.216,0,0,0-.278.214c-.011,1.138-.006,2.277-.006,3.472a1.567,1.567,0,0,0,.279-.157c.024-.023,0-.089,0-.134Z" transform="translate(27.033 21.194)" fill="#b8eefe"/>
    <path id="Trazado_245606" data-name="Trazado 245606" d="M28.536,16.249a1.828,1.828,0,0,1-.3-.994c.059-.681.015-1.369.015-2.094-.41.085-.273.35-.276.518-.015.833-.008,1.666-.006,2.5,0,.192.014.376.282.355a.24.24,0,0,1,.284-.282" transform="translate(14.229 6.698)" fill="#ad5b3e"/>
    <path id="Trazado_245607" data-name="Trazado 245607" d="M50.861,53.081v.282q1.523,0,3.045,0c.192,0,.374-.015.353-.282Z" transform="translate(25.887 27.017)" fill="#b8eefe"/>
    <path id="Trazado_245608" data-name="Trazado 245608" d="M47.684,14.458H45.419a1.7,1.7,0,0,0,.146.279c.021.023.089,0,.136,0H48.25c-.024-.423-.352-.24-.566-.282" transform="translate(23.117 7.357)" fill="#e58187"/>
    <path id="Trazado_245609" data-name="Trazado 245609" d="M3.007,1.71a.214.214,0,0,0,.211.276c.764.014,1.529.006,2.352.006A1.6,1.6,0,0,0,5.4,1.714c-.021-.024-.086,0-.133,0Z" transform="translate(1.528 0.866)" fill="#fefefe"/>
    <path id="Trazado_245610" data-name="Trazado 245610" d="M1.975,51.114c.008-.2-.088-.29-.284-.282v1.98c.257.02.284-.149.284-.343V51.114" transform="translate(0.861 25.872)" fill="#85919b"/>
    <path id="Trazado_245611" data-name="Trazado 245611" d="M33.982,15.582h-1.7c-.02.255.149.284.343.284.453,0,.9,0,1.357,0,.094-.062.124-.125.094-.189s-.062-.094-.094-.094" transform="translate(16.43 7.931)" fill="#fed5a7"/>
    <path id="Trazado_245612" data-name="Trazado 245612" d="M45.7,20.269a.24.24,0,0,0-.284.282h1.7c.02-.25-.145-.282-.338-.282H45.7" transform="translate(23.117 10.316)" fill="#e68389"/>
    <path id="Trazado_245613" data-name="Trazado 245613" d="M33.033,1.894c.032.078.059.225.1.225.525.015,1.053.011,1.909.011a4.125,4.125,0,0,0-1.72-.235Z" transform="translate(16.813 0.964)" fill="#ad5b3e"/>
    <path id="Trazado_245614" data-name="Trazado 245614" d="M15.506,38.914c-.029-.125-.059-.254-.091-.388A14.751,14.751,0,0,0,11.754,39.8c-1.1,1.4-1.762,2.834-1.358,4.394.282,1.082.555,2.325,1.781,2.92.193.181.465.074.738.2a4.35,4.35,0,0,0,3.385.19,4.4,4.4,0,0,0,2.807-2.822,4.028,4.028,0,0,0-.241-3.32,3.736,3.736,0,0,0-3.359-2.449" transform="translate(5.231 19.609)" fill="#010101"/>
    <path id="Trazado_245615" data-name="Trazado 245615" d="M10.17,42.711v-1.6a1.791,1.791,0,0,0,0,1.6" transform="translate(5.078 20.924)" fill="#a1acb9"/>
    <path id="Trazado_245616" data-name="Trazado 245616" d="M12.8,45.056h1.6a1.721,1.721,0,0,0-1.6,0" transform="translate(6.513 22.829)" fill="#a1acb9"/>
    <path id="Trazado_245617" data-name="Trazado 245617" d="M48.048,54.783h.284V49.738a5.991,5.991,0,0,0-.279,2.5c-.021.845,0,1.693,0,2.54" transform="translate(24.452 25.315)" fill="#d4f0fd"/>
    <path id="Trazado_245618" data-name="Trazado 245618" d="M28.934,49.741V53.6a4.317,4.317,0,0,0,.232-1.933c.018-.644,0-1.289,0-1.935-.078,0-.158,0-.237.006" transform="translate(14.727 25.314)" fill="#d7f3fe"/>
    <path id="Trazado_245619" data-name="Trazado 245619" d="M10.335,5.117c0,.2.02.343-.14.442H9.565c-.083.1-.273.231-.3.392-.066.346-.244.708-.528.72-.623.027-.5.761-.9.857-.623.149-.607.595-.65,1.049-.694.189-.518.907-.818,1.329a5.7,5.7,0,0,0-.668,1.563,12.143,12.143,0,0,0-.272,4.946A13.866,13.866,0,0,0,6.941,20.6c.145.318.284.785.539.88.708.264.729,1.222,1.538,1.364a.7.7,0,0,1,.51.644c4.471,2.869,8.948,2.933,13.468.008,0-.614.816-.593,1.153-1.04.321-.427.656-.853,1.006-1.243a6.748,6.748,0,0,0,.874-1.486c.264-.5.5-1.014.727-1.535.237-.545.133-1.222.347-1.692a4.363,4.363,0,0,0,.2-1.886,3.09,3.09,0,0,0-.166-1.762c-.288-.5-.083-1.115-.326-1.7a9.348,9.348,0,0,1-.693-1.551c-.124-.566-.758-.848-.8-1.51-.041-.605-.847-.62-1.129-1.192-.213-.432-1.028-.521-1.148-1.24-.2-.269-.572.012-.859-.252a7.789,7.789,0,0,0-3.457-1.535A8.992,8.992,0,0,0,16.3,3.57,11.539,11.539,0,0,0,11.294,4.8c-.306.148-.62.092-.96.312" transform="translate(2.695 1.817)"/>
    <path id="Trazado_245620" data-name="Trazado 245620" d="M16.893,20.18c1.628,0,3.255,0,4.883,0,.2,0,.495.1.5-.279-1.628,0-3.256,0-4.883,0-.205,0-.495-.1-.5.279" transform="translate(8.598 10.123)" fill="#fafefe"/>
    <path id="Trazado_245621" data-name="Trazado 245621" d="M23.355,5.191V2.645c-.08.032-.229.063-.229.1q-.02,1.175,0,2.349c0,.033.149.065.229.1" transform="translate(11.765 1.346)" fill="#fafefe"/>
    <path id="Trazado_245622" data-name="Trazado 245622" d="M33.408,15.584v.282h5.615a7.239,7.239,0,0,0-2.789-.276c-.942-.026-1.885-.006-2.826-.006" transform="translate(17.004 7.928)" fill="#fed1a4"/>
    <path id="Trazado_245623" data-name="Trazado 245623" d="M40.539,28.144V33.22l.291-.009a28.359,28.359,0,0,0-.291-5.067" transform="translate(20.633 14.325)" fill="#954e37"/>
    <path id="Trazado_245624" data-name="Trazado 245624" d="M30.874,28.144a48.188,48.188,0,0,0-.041,5.072,15.843,15.843,0,0,0,.041-5.072" transform="translate(15.669 14.325)" fill="#954e37"/>
    <path id="Trazado_245625" data-name="Trazado 245625" d="M32.845,30.426v3.961c.379,0,.278-.29.279-.493.008-1.156,0-2.312,0-3.468-.1-.128-.189-.128-.284,0" transform="translate(16.717 15.437)" fill="#fed8a9"/>
    <path id="Trazado_245626" data-name="Trazado 245626" d="M21.773,21.9V15.2l-.142,0V22l.142-.1" transform="translate(11.01 7.739)" fill="#e5f0f6"/>
    <path id="Trazado_245627" data-name="Trazado 245627" d="M42.7,5.353,42.6,5.1c-.062.044-.174.088-.174.13q-.011,4.871-.008,9.739c.471-.048.273-.416.275-.641.014-2.994.009-5.986.009-8.978" transform="translate(21.589 2.598)" fill="#af5c3f"/>
    <path id="Trazado_245628" data-name="Trazado 245628" d="M32.845,31.062h.284v-1.98c-.26-.02-.284.152-.284.344v1.636" transform="translate(16.717 14.801)" fill="#fec189"/>
    <path id="Trazado_245629" data-name="Trazado 245629" d="M13.292,40.337c-1.287.818-1.287.818-1.274,2.985A1.257,1.257,0,0,1,13,44.3H14.64c.519-.321,1.08-.507,1.257-1.169A3.473,3.473,0,0,0,15.95,41.9a1.159,1.159,0,0,0-.287-.551,1.168,1.168,0,0,1-.691-.706c-.018-.051-.3-.089-.466-.2-.373-.249-.813-.051-1.213-.109" transform="translate(6.116 20.52)" fill="#f0f7fa"/>
    <path id="Trazado_245630" data-name="Trazado 245630" d="M23.944,12.916a5.815,5.815,0,0,0-.576-2.446,2.9,2.9,0,0,0-1.3-1.836c-.374-1.02-1.331-1.393-2.135-1.948a5.863,5.863,0,0,0-4.058-1.408,10.076,10.076,0,0,1-1.13-.008,5.5,5.5,0,0,0-2.455.566,5.8,5.8,0,0,0-2,1.284A4.39,4.39,0,0,0,9.065,8.172c-.229.406-.592.655-.844,1.026a7.054,7.054,0,0,0-1.266,3.72c-.02.423.021.848-.008,1.271a7.456,7.456,0,0,0,.908,3.721c.074.155.267.254.232.471-.006.035.038.077.059.115a1.118,1.118,0,0,1,.83.767,1.656,1.656,0,0,0,.966.967c.5.148.619.457.767.822a9.284,9.284,0,0,0,3.6,1.2,3.7,3.7,0,0,1,2.266,0,9.276,9.276,0,0,0,3.6-1.2c.065-.154.086-.373.205-.466.632-.492,1.412-.831,1.673-1.69,1.136-.266.9-1.544,1.581-2.144-.133-.745.459-1.388.3-2.137a2.167,2.167,0,0,1,0-1.7" transform="translate(3.53 2.674)" fill="#f5e166"/>
    <path id="Trazado_245631" data-name="Trazado 245631" d="M14.093,16.616a.217.217,0,0,0-.22-.278q-.912-.018-1.824,0a.215.215,0,0,0-.22.278Z" transform="translate(6.017 8.311)" fill="#f9e567"/>
    <path id="Trazado_245632" data-name="Trazado 245632" d="M18.309,10.332a1.347,1.347,0,0,0,0,1.7Z" transform="translate(9.165 5.259)" fill="#feea69"/>
    <path id="Trazado_245633" data-name="Trazado 245633" d="M19.382,14.4v-1.4c-.321-.4-.919-.475-1.026-.981-.51-.057-.3.333-.465.492-.279.166-.776-.1-.945.38-.323.933-1.252.839-1.938,1.064a4.4,4.4,0,0,1-2.553-.264,6.215,6.215,0,0,1-.558-.29c-.149-.88-1.029-.738-1.539-1.117-.364.232-.839.291-1.147.7v1.4a4.389,4.389,0,0,0,2.3,1.45,7.966,7.966,0,0,0,2.683.691,5.7,5.7,0,0,0,2.822-.679A5.415,5.415,0,0,0,19.382,14.4" transform="translate(4.689 6.119)" fill="#030301"/>
    <path id="Trazado_245634" data-name="Trazado 245634" d="M12.117,10.7V8.948L11.3,8.3a2.672,2.672,0,0,0-1.947.362,2.212,2.212,0,0,0-.309,1.717c.19.321.368.625.524.886.134.057.213.121.293.121,1.341.009,1.341.008,2.257-.685" transform="translate(4.581 4.202)" fill="#060603"/>
    <path id="Trazado_245635" data-name="Trazado 245635" d="M16.582,8.482c-.4-.311-1.086-.2-1.838-.21-.161.214-.356.474-.65.863v1.554a2.221,2.221,0,0,0,2.084.69c.346-.338.679-.662,1.006-.981a2.264,2.264,0,0,0-.6-1.916" transform="translate(7.173 4.204)" fill="#060502"/>
  </g>
</svg>
