<svg xmlns="http://www.w3.org/2000/svg" xmlns:xlink="http://www.w3.org/1999/xlink" width="103" height="103" viewBox="0 0 103 103"><defs><filter id="a" x="0" y="0" width="103" height="103" filterUnits="userSpaceOnUse"><feOffset dy="3" input="SourceAlpha"/><feGaussianBlur stdDeviation="3" result="b"/><feFlood flood-opacity="0.161"/><feComposite operator="in" in2="b"/><feComposite in="SourceGraphic"/></filter><clipPath id="c"><rect width="50" height="50" fill="none"/></clipPath></defs><g transform="translate(-381 -4153)"><g transform="translate(88 426)"><g transform="matrix(1, 0, 0, 1, 293, 3727)" filter="url(#a)"><rect width="85" height="85" rx="20" transform="translate(9 6)" fill="#fff"/></g></g><g transform="translate(408 4177)"><g transform="translate(0 0)" clip-path="url(#c)"><path d="M24.973,44.045a14.088,14.088,0,0,0,12.8,5.932c.709-.38,1.537-.241,2.282-.574.7-.314,1.473-.456,2.183-.812a15.9,15.9,0,0,0,2.017-1.216,10.076,10.076,0,0,0,1.928-1.61,13.127,13.127,0,0,0,1.527-1.871A20.343,20.343,0,0,0,48.8,41.827a14.7,14.7,0,0,0,.771-2.194,13.486,13.486,0,0,0-.5-8.205,14.283,14.283,0,0,0-4.982-6.412,14.011,14.011,0,0,0,4.686-5.666,15,15,0,0,0,1-3.208,13.164,13.164,0,0,0-.3-6.042,13.28,13.28,0,0,0-2.3-4.681,14.128,14.128,0,0,0-4.289-3.69A12.014,12.014,0,0,0,38.76.284c-3.877-.552-4.724-.146-7.752.793A14.075,14.075,0,0,0,25.03,5.984c-.315-.607-.9-.928-1.231-1.467a2.479,2.479,0,0,0-.877-.857c-.524-.316-.9-.831-1.421-1.187A13.842,13.842,0,0,0,16.795.444,13.337,13.337,0,0,0,14.64.066a7.949,7.949,0,0,0-2.208.026c-.616.136-1.249.152-1.864.338C10,.6,9.435.785,8.876.975A10.378,10.378,0,0,0,4.767,3.457c-.928.393-1.358,1.3-1.953,2.006A10.11,10.11,0,0,0,.826,9.154a27.124,27.124,0,0,0-.664,2.758c-.195,1.064-.053,2.1-.15,3.146.365.529.176,1.172.36,1.759.175.559.324,1.153.52,1.7a12.354,12.354,0,0,0,2.59,4.275C4.03,23.388,4.7,23.837,5.2,24.47c.182.234.473.3.728.534a14.014,14.014,0,0,0-4.705,5.678,15.013,15.013,0,0,0-1,3.207,13.14,13.14,0,0,0,.3,6.042,13.257,13.257,0,0,0,2.3,4.682,14.162,14.162,0,0,0,4.288,3.692,12.041,12.041,0,0,0,4.129,1.443c3.879.552,4.729.142,7.753-.792a14.676,14.676,0,0,0,5.98-4.912" transform="translate(0 0)"/><path d="M20.988,10.254a2.963,2.963,0,0,1,.246,1.673A2.8,2.8,0,0,1,20.4,13c-.213.134-.587-.123-.712.283V18.49a8.452,8.452,0,0,1,3.355-1.7c-.045-.351.235-.8-.152-1.208-.005-.7-.037-1.4-.012-2.106a15.257,15.257,0,0,1,1.187-5.039c.068-.172.344-.266.248-.545a11.219,11.219,0,0,0-5.386-4.883,11.549,11.549,0,0,0-6.491-.955,11.889,11.889,0,0,0-2.291.539,10.846,10.846,0,0,0-2.028.936A9.81,9.81,0,0,0,6.162,4.876a14.883,14.883,0,0,0-1.751,1.8,19.56,19.56,0,0,0-1.192,1.91,10,10,0,0,0-.855,2.157,10.215,10.215,0,0,0-.442,2.236,9.832,9.832,0,0,0,.034,2.505,16.794,16.794,0,0,0,.729,2.709A23.363,23.363,0,0,0,3.9,20.611a12.55,12.55,0,0,0,1.88,2.236,10.1,10.1,0,0,0,2.307,1.717,9.336,9.336,0,0,0,2.564,1.1,9.807,9.807,0,0,0,2.73.472,8.5,8.5,0,0,0,3.034-.314,4.663,4.663,0,0,1,.049-1.538c.2-.487.17-.99.318-1.473.158-.514.423-.955.653-1.51h-.907c-2.181,0-4.363,0-6.545,0a1.526,1.526,0,0,1-1.619-1.625c-.006-2.111,0-4.222,0-6.325l-.3-.3H7.716a2,2,0,0,1-.61-2.875c.671-.685,1.624-1.328,2.461-2.095.7-.645,1.5-1.191,2.147-1.9a3.317,3.317,0,0,1,2.109-.967,3.167,3.167,0,0,1,2.425.915c1.2,1.023,2.334,2.116,3.556,3.105.432.35.851.707,1.186,1.017" transform="translate(-0.293 -0.307)" fill="#e5e8ec"/><path d="M28.971,16.447h1.472a32.237,32.237,0,0,1-.12-3.572,2.439,2.439,0,0,1,.728-1.031c.2-.152.423-.378.638-.382.908-.017,1.744-.382,2.6-.452.47-.324.244-.857.443-1.264a4.61,4.61,0,0,0,.235-1.006,2.28,2.28,0,0,1,2.27-1.924c2.553-.006,5.105,0,7.634,0a9.915,9.915,0,0,1,1.009.536,2.849,2.849,0,0,1,.979,2.1,5.321,5.321,0,0,0,.428,1.564c.946.027,1.792.513,2.566.433A2.374,2.374,0,0,1,51.3,12.834c0,.82-.052,1.728.012,2.629A2.546,2.546,0,0,1,48.7,18.089a7.037,7.037,0,0,0-.7,0A2.755,2.755,0,0,1,45.56,19.7c-1.067-.034-1.638-.759-2.286-1.58H38.282c-.219.6-.808.907-1.186,1.383-.264-.03-.492-.02-.629.218-.1.05-.078.079-.02.148a7.75,7.75,0,0,1,1.616,3.248c.388-.092.784.071,1.268-.153a4.24,4.24,0,0,1,1.592-.045,12.9,12.9,0,0,1,4.753.929c.407.154.814.3,1.307.485a3.659,3.659,0,0,0,1.52-.956,14.179,14.179,0,0,0,1.638-1.635,11.918,11.918,0,0,0,2.167-3.931,11.266,11.266,0,0,0,.573-4.981,12,12,0,0,0-2.132-5.652,12.292,12.292,0,0,0-5.1-4.182,15.553,15.553,0,0,0-2.882-.841,9.715,9.715,0,0,0-2.241-.163,11.661,11.661,0,0,0-6.642,2.195,11.933,11.933,0,0,0-4.252,5.265,15.161,15.161,0,0,0-.737,2.619,20.73,20.73,0,0,0-.181,2.64,15.275,15.275,0,0,0,.254,1.739" transform="translate(-4.532 -0.316)" fill="#e5e8ec"/><path d="M38.728,29.135a8.748,8.748,0,0,1-.972,4.429c-.009-.009.012.018.04.035a.176.176,0,0,0,.088.029q5.487,0,10.975,0A1.855,1.855,0,0,1,50.017,35c0,3.106,0,6.49,0,9.873a1.424,1.424,0,0,1-.962,1.5c-.057.022-.1.092-.146.141H45.224c-.1.51,0,1.031-.061,1.582h1.582v1.613H37.165V48.138h1.527v-1.6H35.1A1.914,1.914,0,0,1,33.884,45.1V37.433a5.341,5.341,0,0,1-1.8.687c.039.43-.163.894.195,1.294-.1,1.047.2,2.111-.166,3.149-.149.418.11.92-.237,1.311a11.6,11.6,0,0,1-1.061,3.189,11.228,11.228,0,0,0,4.553,4.425,11.8,11.8,0,0,0,7.323,1.4,12,12,0,0,0,3.328-.94,13.134,13.134,0,0,0,2.5-1.471,18.713,18.713,0,0,0,2.007-1.971,2.989,2.989,0,0,0,.3-.372,18.1,18.1,0,0,0,1.539-2.687,5.494,5.494,0,0,0,.43-1.322,14.759,14.759,0,0,0,.429-2.141,9.675,9.675,0,0,0-.033-2.5,18.122,18.122,0,0,0-.711-2.716,19.552,19.552,0,0,0-1.25-2.5,12.731,12.731,0,0,0-1.91-2.225A10.083,10.083,0,0,0,47.1,30.389a9.291,9.291,0,0,0-2.563-1.1,10.187,10.187,0,0,0-2.821-.493,7.7,7.7,0,0,0-2.983.34" transform="translate(-4.865 -4.588)" fill="#e5e8ec"/><path d="M35.624,28.366a7.482,7.482,0,0,0-2.547-5.408,6.929,6.929,0,0,0-4.98-1.812,7.052,7.052,0,0,0-5.2,2.495,6.9,6.9,0,0,0-1.815,4.975,7.035,7.035,0,0,0,2.5,5.194,6.913,6.913,0,0,0,4.98,1.812,7.119,7.119,0,0,0,5.2-2.492,7.594,7.594,0,0,0,1.861-4.765" transform="translate(-3.327 -3.369)" fill="#fbd670"/><path d="M37.2,10.007a29.472,29.472,0,0,0-.638,3.389c-.12.067-.166.261-.365.276a16.532,16.532,0,0,0-3.07.6,2.175,2.175,0,0,1-.527.006v2.96l.482.456h1.177a2.726,2.726,0,0,1,2.43-1.6c1.064.034,1.636.755,2.284,1.578h4.986c.217-.588.808-.9,1.134-1.31a3.379,3.379,0,0,1,1.688-.258c.151.335.564.07.765.35.3.421.836.653,1,1.226h1.282l.474-.6c0-.8,0-1.707,0-2.612,0-.032-.006-.064-.013-.13-1.242-.189-2.452-.6-3.742-.687-.08-.081-.251-.17-.259-.271a25.978,25.978,0,0,0-.646-3.451,1.865,1.865,0,0,0-1.3-.279q-2.966,0-5.934,0a1.5,1.5,0,0,0-1.207.364" transform="translate(-5.147 -1.536)" fill="#b3dc7e"/><path d="M36.419,37.54v5.333H49.251V36.557c-.781-.15-8.8-.2-11.785-.068a1.808,1.808,0,0,1-1.047,1.051" transform="translate(-5.749 -5.802)" fill="#69d5f3"/><path d="M20.814,35.88v3.628a11.973,11.973,0,0,1-1.617.117v4.768h6.425v5.851A12.3,12.3,0,0,0,28.61,39.6a9.13,9.13,0,0,1-7.8-3.724" transform="translate(-3.031 -5.718)" fill="#e5e8ec"/><path d="M7.69,40.333V51.538h4.753c-.013.013.015-.007.034-.034a.166.166,0,0,0,.033-.086c0-2.073,0-4.146,0-6.253h3.222c.005-1.622,0-3.212,0-4.834Z" transform="translate(-1.214 -6.427)" fill="#ebc09b"/><path d="M23.373,52.761V48H15.4c.011-.01-.018.009-.035.036a.159.159,0,0,0-.033.086c0,1.537,0,3.073,0,4.643Z" transform="translate(-2.42 -7.648)" fill="#fee9a6"/><path d="M9.609,11.958c-.016.241-.067.4.042.579H20.8c.142-.108.039-.289.067-.431-.046-.231-.284-.1-.393-.233a15.616,15.616,0,0,0-2.209-1.967A20.153,20.153,0,0,0,16.113,8.1a1.274,1.274,0,0,0-1.8.029c-.408.275-.748.623-1.13.917-.744.573-1.36,1.293-2.163,1.8a6,6,0,0,0-.862.839c-.16.155-.268.4-.551.274" transform="translate(-1.513 -1.233)" fill="#ee7284"/><path d="M5.114,50.175V39.655H3.519V36.113A11.8,11.8,0,0,0,5.114,50.175" transform="translate(-0.296 -5.755)" fill="#e5e8ec"/><path d="M11.542,21.814h1.544V17.14a.888.888,0,0,1,.1-.106A.166.166,0,0,1,13.275,17c1.538,0,3.075,0,4.647,0v4.8c.545.061,1.064.015,1.614.034V15.393c-1.294,0-2.622,0-3.95,0H11.542Z" transform="translate(-1.822 -2.452)" fill="#deb18a"/><path d="M8.352,30.929c-1.122.49-1.219.571-3.6,2.994H17.842a6.494,6.494,0,0,1-.6-1.774,5.846,5.846,0,0,0-1.3.171,4.75,4.75,0,0,1-1.592.041A13.565,13.565,0,0,1,9.6,31.445c-.439-.156-.864-.342-1.252-.516" transform="translate(-0.75 -4.928)" fill="#e5e8ec"/><path d="M36.429,47.629H49.256v-1.5c-.837-.14-9.648-.188-12.827-.062Z" transform="translate(-5.751 -7.329)" fill="#cbd0d8"/><path d="M5.757,36.563V37.97c.864.15,7.993.2,11.249.071V36.559c-.779-.135-10.412-.136-11.249,0" transform="translate(-0.909 -5.81)" fill="#deb18a"/><path d="M21.191,55.656H9.173a12.781,12.781,0,0,0,5.992,1.589,13.173,13.173,0,0,0,6.026-1.589" transform="translate(-1.448 -8.869)" fill="#e4e7eb"/><rect width="3.155" height="1.548" transform="translate(35.53 41.957)" fill="#a9b1bc"/><path d="M15.348,19.264v3.151h1.57a13.766,13.766,0,0,0,.024-1.524c.009-.53,0-1.062,0-1.627Z" transform="translate(-2.423 -3.07)" fill="#a9b1bc"/><path d="M38,20.133v-.415l-.71-.494h-.4l-.492.509v.62l.558.464h.58L38,20.133" transform="translate(-5.746 -3.063)" fill="#9099a3"/><path d="M47.873,19.758v.589l.583.467h.553l.472-.571v-.521l-.5-.5h-.616l-.494.533" transform="translate(-7.558 -3.063)" fill="#9099a3"/><path d="M30.238,27.891H31.6a3.207,3.207,0,0,0-.256-2.007c-.358-.269-.657-.856-1.309-1.1V23.093H28.456V24.64h-1.62a10.359,10.359,0,0,0,.25,3.621c.339.27.629.769,1.137,1.04a3.109,3.109,0,0,0,.965.518.586.586,0,0,1,.421.878c-.484.181-.716-.066-.888-.493-.108-.265.042-.736-.5-.7H26.861a3.208,3.208,0,0,0,.256,2.007c.358.269.657.856,1.309,1.1V34.3H30V32.754h1.62a10.359,10.359,0,0,0-.25-3.621c-.339-.27-.629-.769-1.137-1.041a3.132,3.132,0,0,0-.964-.518.586.586,0,0,1-.422-.878c.484-.18.716.067.888.493.108.265-.042.736.5.7" transform="translate(-4.231 -3.68)"/><path d="M28.49,30.678a.155.155,0,0,1,.2.159c.01.3,0,.6,0,.968l.605.465h.971V31.144c-.128-.127-.3-.29-.49-.481-.438.139-.846-.134-1.288-.187Z" transform="translate(-4.498 -4.856)" fill="#f6d26e"/><path d="M30.55,28.5a.155.155,0,0,1-.2-.159c-.01-.3,0-.6,0-.968l-.605-.465h-.972v1.125l.491.481c.438-.139.846.134,1.288.187Z" transform="translate(-4.542 -4.288)" fill="#f6d26e"/><rect width="1.544" height="1.545" transform="translate(8.09 41.958)"/><path d="M11.171,46.062H9.625v1.572c.477.05,1,.006,1.546.026Z" transform="translate(-1.519 -7.34)"/><rect width="1.544" height="1.545" transform="translate(8.122 35.517)"/><path d="M13.455,43.8H15V42.23c-.475-.051-.993-.006-1.544-.025Z" transform="translate(-2.124 -6.725)"/><path d="M17.285,51.463h1.542V49.9c-.472-.091-.992.005-1.542-.051Z" transform="translate(-2.729 -7.945)"/><path d="M21.093,49.912v1.544h1.573c.051-.477.007-.994.026-1.544Z" transform="translate(-3.33 -7.954)"/></g></g></g></svg>