<svg xmlns="http://www.w3.org/2000/svg" xmlns:xlink="http://www.w3.org/1999/xlink" width="103" height="103" viewBox="0 0 103 103"><defs><filter id="a" x="0" y="0" width="103" height="103" filterUnits="userSpaceOnUse"><feOffset dy="3" input="SourceAlpha"/><feGaussianBlur stdDeviation="3" result="b"/><feFlood flood-opacity="0.161"/><feComposite operator="in" in2="b"/><feComposite in="SourceGraphic"/></filter><clipPath id="c"><rect width="50" height="50" fill="none"/></clipPath></defs><g transform="translate(-381 -4390)"><g transform="matrix(1, 0, 0, 1, 381, 4390)" filter="url(#a)"><rect width="85" height="85" rx="20" transform="translate(9 6)" fill="#fff"/></g><g transform="translate(408 4414)"><g transform="translate(0 0)" clip-path="url(#c)"><path d="M22.657,46.258c-.214-.409-.4-.757-.583-1.112.18-.564.7-1.019.571-1.742h.939a14.588,14.588,0,0,0,.442,2.358,8.167,8.167,0,0,0,.918,1.774,5.331,5.331,0,0,0,1.785,1.572A6.33,6.33,0,0,0,29.484,50q7.175,0,14.348,0a6.311,6.311,0,0,0,3.531-1.15,6.079,6.079,0,0,0,2.359-3.41A5.283,5.283,0,0,0,50,43.792c-.012-7.126.016-14.254-.027-21.381a5.929,5.929,0,0,0-1.728-4.165,8.331,8.331,0,0,0-2.979-1.784,1.628,1.628,0,0,0-.661-.051c-1.43-.007-2.86,0-4.313,0a2.157,2.157,0,0,1-.06-.855c-.006-1.985-.033-3.971.007-5.955a5.083,5.083,0,0,0-1.645-3.912A25.46,25.46,0,0,1,36.6,3.674a24.832,24.832,0,0,0-2.3-2.453A4.218,4.218,0,0,0,31.4,0Q22.808,0,14.218.009a3.979,3.979,0,0,0-3.09,1.262,5.084,5.084,0,0,0-1.048,1.423,5.183,5.183,0,0,0-.507,2.036q0,11.764,0,23.528V29.3a3.992,3.992,0,0,0-2.079.387,3.872,3.872,0,0,0-1.438,1.475c.032.916-.179,1.9.676,2.652A2.908,2.908,0,0,0,6.1,36.224c-.569.145-1.109.243-1.622.422a6.041,6.041,0,0,0-3.307,2.542,8.342,8.342,0,0,0-1,2.716A3.834,3.834,0,0,0,.02,43.292,7.272,7.272,0,0,0,1.88,47.5a6.605,6.605,0,0,0,1.87,1.4,7.242,7.242,0,0,0,1.537.544,14.694,14.694,0,0,0,3.148.148c3.839.022,7.679.01,11.518.008a2.58,2.58,0,0,0,2.016-.784,2.209,2.209,0,0,0,.691-1.665c-.02-.324,0-.649,0-.9" transform="translate(0 0)"/><path d="M16.242,29.65c2.017,0,4.036.03,6.051-.02.555-.014,1.044.205,1.579.232a1.1,1.1,0,0,1,.627.347,3.31,3.31,0,0,1,1.114,1.46v1.5a3.523,3.523,0,0,1-.611.953c.065.494.492.705.612,1.09v1.648a3.5,3.5,0,0,1-.621.988c.113.543.668.823.622,1.37a.592.592,0,0,0,.976.195c0-5.366.011-10.732-.017-16.1,0-.551.268-1.032.218-1.579a3.044,3.044,0,0,1,.422-1.383,4.656,4.656,0,0,1,.757-1.339,5.905,5.905,0,0,1,4.812-2.255c2.924,0,5.846,0,8.806,0V8.968H35.951c-.327-.235-.741-.294-.961-.886V1.919H34.01q-8.388,0-16.776,0a1.34,1.34,0,0,0-.992.194,1.779,1.779,0,0,0-.329,1.29q-.011,12.479,0,24.958a1.758,1.758,0,0,0,.329,1.289" transform="translate(-2.957 -0.353)" fill="#fed9a9"/><path d="M52.705,51.479a4.136,4.136,0,0,0,1.758-3.605q0-10.832,0-21.662a3.581,3.581,0,0,0-1.16-2.738c-.367-.343-.731-.69-1.129-1.005a2.482,2.482,0,0,0-.912-.41,5.934,5.934,0,0,0-1.652-.276c-4.585.024-9.17.008-13.755.016a4.911,4.911,0,0,0-2.8,1.005c-.042.029-.049.108-.072.163a2.552,2.552,0,0,0-.527,1.724c.007,7.17,0,14.34.015,21.51a2.883,2.883,0,0,0,.686,2.348c.594-.034.451-.525.488-.856.208-1.848.544-2.167,2.375-2.174h.389c1.992.011,2.335.347,2.339,2.3,0,.227,0,.454,0,.681-.011,1.727-.283,2-2.021,2.115-.377.024-.873-.131-1.022.451a2.433,2.433,0,0,0,1.951.711c4.578.052,9.156.024,13.734.02a3.6,3.6,0,0,0,1.314-.32" transform="translate(-6.033 -4.019)" fill="#7bcb91"/><path d="M33.095,48.818a2.559,2.559,0,0,1-.576-1.751c-.043-.713-.01-1.43-.01-2.146V24.911a5.73,5.73,0,0,0-.01-.877c-.05-.311.3-.494.2-.8a4.135,4.135,0,0,0-1.757,3.608v21.48a4.654,4.654,0,0,0,2.039,3.645,3.777,3.777,0,0,0,2.427.761q7.225-.016,14.448,0a2.98,2.98,0,0,0,2.232-.745c.1-.1.354.031.332-.236H37.371a4.011,4.011,0,0,1-1.934-.586.594.594,0,0,0-.414-.228,1.759,1.759,0,0,1-1.666-1.613.744.744,0,0,0-.263-.5" transform="translate(-5.752 -4.288)" fill="#4cb968"/><path d="M15.828,29.7V2.159a1.83,1.83,0,0,0-1.369.906,3.373,3.373,0,0,0-.776,2.013q-.006,12.233,0,24.467a.742.742,0,0,0,.055.151Z" transform="translate(-2.543 -0.399)" fill="#fdc376"/><path d="M9.914,56.566c.357,0,.714-.021,1.069,0a4.921,4.921,0,0,0,4.038-2.231,5.473,5.473,0,0,0,.926-3.5,5.856,5.856,0,0,0-.905-2.341,4.961,4.961,0,0,0-2.656-2.013,4.228,4.228,0,0,0-2.4-.232c-.031.006-.046.1-.069.16a4.769,4.769,0,0,0-2.7,3.8,5.748,5.748,0,0,0,2.7,6.355" transform="translate(-1.315 -8.521)" fill="#ed8600"/><path d="M9.363,38.545v.96l.474.467a29.5,29.5,0,0,0,5.675.206c1.916.038,3.835-.011,5.752.024.4.007.692-.329,1.067-.2l.5-.5v-.974a1.884,1.884,0,0,0-1.566-.685q-5.167,0-10.335,0a1.814,1.814,0,0,0-1.57.7" transform="translate(-1.74 -6.983)" fill="#fba432"/><path d="M9.844,42.632l-.478.5c.038.339-.169.762.305,1.06.665,0,1.377.011,2.088,0a3.986,3.986,0,0,1,2.047.474,1.328,1.328,0,0,0,.735.108c2.471.012,4.943.007,7.334.007a2.09,2.09,0,0,0,.955-.7V43.12l-.484-.488Z" transform="translate(-1.738 -7.867)" fill="#fd9711"/><path d="M9.577,56.617a1.21,1.21,0,0,0-.56-.637,5.8,5.8,0,0,1-1.341-1.589c-.34-.447-.335-1.088-.637-1.583-.054-1.767-.072-3.525,1.24-4.95.191-.69.94-.863,1.3-1.4a3.5,3.5,0,0,0-2.343.895,5.328,5.328,0,0,0-1.9,2.891,8.513,8.513,0,0,0-.057,1.534,4.914,4.914,0,0,0,3.506,4.654,2.145,2.145,0,0,0,.8.182" transform="translate(-0.978 -8.572)" fill="#cb7300"/><path d="M18.673,56.282a12.045,12.045,0,0,1-1.611,2.03c.127.03-.052-.033.029.069a.123.123,0,0,0,.076.048q3.211,0,6.416,0l.647-.647A1.31,1.31,0,0,0,24,56.563a1.682,1.682,0,0,0-1.2-.284c-1.362.01-2.724,0-4.131,0" transform="translate(-3.171 -10.385)" fill="#a96000"/><path d="M17.646,47.225a5.3,5.3,0,0,1,1.326,2.085h4.475a1.875,1.875,0,0,0,.922-.664v-.974l-.448-.448Z" transform="translate(-3.28 -8.715)" fill="#eb8600"/><path d="M19.7,51.773v2.085H24.1l.624-.624V52.2l-.427-.426Z" transform="translate(-3.661 -9.554)" fill="#ca7300"/><path d="M41.289,3.624V7.43l.244.244h3.573c.137-.2.024-.31-.093-.426q-1.205-1.2-2.406-2.406a3.8,3.8,0,0,1-.9-1.085c-.051-.115-.171-.191-.42-.131" transform="translate(-7.674 -0.665)" fill="#f7b052"/><path d="M28.665,47.857a1.338,1.338,0,0,1-.976-.195c0,.225-.013.451,0,.675a1.76,1.76,0,0,1-.462,1.453c-.3.31-.1.568.138.776h1.3Z" transform="translate(-5.033 -8.795)" fill="#fac074"/><path d="M3.019,53.688H1.891c.162.458.307.871.461,1.307h.856c.016-.027.081-.082.074-.128-.059-.387.186-.836-.264-1.179" transform="translate(-0.351 -9.907)" fill="#b46600"/><path d="M2.078,50.574c.211.418-.31.682-.1,1.11H3.066c-.1-.367.335-.655.194-1.11Z" transform="translate(-0.358 -9.333)" fill="#bd6b00"/><path d="M3.247,48.331H4.27c.023-.475.6-.616.7-1.17-.822.095-1.164.683-1.726,1.17" transform="translate(-0.604 -8.703)" fill="#b96900"/><path d="M3.806,57.069c.185.429.6.513.872.754.348-.352-.155-.5-.09-.778a1.217,1.217,0,0,0-.782.024" transform="translate(-0.707 -10.517)" fill="#ae6300"/><path d="M21.4,24.509c-.312-.263-.086-.508-.276-.65A.814.814,0,0,1,21,23.717a1.814,1.814,0,0,1,.684-1.027h1.732a2.209,2.209,0,0,0,.943.387c.234-.22.607-.373.541-.894l-.791-.656c-.318.091-.676-.27-1.145-.265v-.829l-.273-.272h-.835a1.652,1.652,0,0,0-.251,1.248,2.178,2.178,0,0,0-1.745,1.358c-.12.3.134.7-.222.97.352.272.116.661.215.966.351,1,1.281,1.315,2.114,1.647a4.2,4.2,0,0,1,1.738,1.082V28.79l-.642.7H21.644a3.132,3.132,0,0,1-1.331-.968h-.388a2.047,2.047,0,0,0-.48.755c.278,1.087,1.3,1.194,2.055,1.573.145.257.055.487.091.7l.483.483c.313-.006.657.081.894-.344v-.741c.37-.431.954-.317,1.323-.711a8.079,8.079,0,0,0,.81-1.272c0-.317-.015-.675,0-1.032A2.39,2.39,0,0,0,23.674,25.6c-.687-.368-1.416-.656-2.123-.988-.111-.051-.2-.143-.155-.108" transform="translate(-3.614 -3.72)" fill="#010100"/><path d="M38.781,18.334l.465-.533v-.567l-.545-.449H25.932c-.2.149-.518.154-.706.51v.579a1.585,1.585,0,0,0,1.246.467c4.091-.015,8.182-.008,12.308-.008" transform="translate(-4.689 -3.098)" fill="#040403"/><path d="M18.945,12.5c-.018.308-.347.495-.2.883.119.1.293.243.522.432H32.878c.442-.294.246-.709.279-1.063L32.9,12.5Z" transform="translate(-3.477 -2.307)"/><path d="M22.408,18.032c.015-.169.064-.343.2-.39.081-.3-.292-.342-.156-.614-1.027-.535-2.13-.128-3.235-.316l-.467.665v.483l.614.46c.41,0,.959,0,1.509,0a2.306,2.306,0,0,0,1.54-.285" transform="translate(-3.484 -3.084)" fill="#070605"/><path d="M38.668,12.494c-.37.231-.269.542-.289.862l.608.461H41.24l.325-.526a.5.5,0,0,0-.188-.8Z" transform="translate(-7.133 -2.306)" fill="#020201"/><path d="M40.208,31.075h1.757a5.267,5.267,0,0,1,2.648-.473c1.854.019,3.707.025,5.561,0,1.452-.021,1.833-.42,1.864-1.88a18.506,18.506,0,0,0-.023-1.853,1.314,1.314,0,0,0-.883-1.278c-3.206-.149-6.415-.029-9.622-.064q-1.264-.013-2.529.007a1.031,1.031,0,0,0-1.15.953,7.42,7.42,0,0,0,.2,3.643.94.94,0,0,0,.884.43,3.232,3.232,0,0,1,1.291.518" transform="translate(-7.008 -4.708)" fill="#3d99e1"/><path d="M39.44,30.785c.081-.394-.283-.515-.48-.781H37.487c-.49-.461-1.207-.179-1.718-.5a5.492,5.492,0,0,1-.125-3.4,3.227,3.227,0,0,1,2.313-.664c4.049-.062,8.1-.036,12.148-.026a.525.525,0,0,1,.268.1c.282.053.368.341.582.48v3.541L50.4,30c-2.547,0-5.2,0-7.849,0-.37,0-.77-.124-1.077.212l-.274.567c-.087.413.308.526.485.781,2.758,0,5.519.02,8.279-.008a2.559,2.559,0,0,0,2.557-2.579c.021-.779.032-1.561,0-2.339a2.45,2.45,0,0,0-1.645-2.52,1.846,1.846,0,0,0-.61-.172c-4.808,0-9.617-.03-14.425.026a2.216,2.216,0,0,0-2.087,1.773,12.393,12.393,0,0,0-.134,3.336,2.5,2.5,0,0,0,.782,1.795,2.6,2.6,0,0,0,1.851.7c.68-.042,1.364-.027,2.046,0a1.867,1.867,0,0,0,1.145-.3v-.488" transform="translate(-6.239 -4.418)"/><path d="M54.535,54.58a3.8,3.8,0,0,0,1.049-1.341V44.184a2.5,2.5,0,0,0-1.707-1.313c-.3,0-.879.015-1.46,0a2.266,2.266,0,0,0-2.283,1.289v9.329a3.126,3.126,0,0,0,1.252,1.12,1.28,1.28,0,0,0,.51.182c.584-.012,1.171-.036,1.751.007.339.026.548-.344.887-.215" transform="translate(-9.318 -7.91)"/><path d="M46.986,55.622c-.03-.222.308-.293.411-.536V51.8a1.582,1.582,0,0,1-.375-.694,3,3,0,0,0-2.384-.573c-.55,0-1.1,0-1.525,0a2.3,2.3,0,0,0-1.375,1.389c0,.7.017,1.54,0,2.382a1.66,1.66,0,0,0,1.061,1.7.991.991,0,0,1,.218.192c.612,0,1.229,0,1.846,0a2.476,2.476,0,0,0,2.127-.576" transform="translate(-7.757 -9.324)" fill="#010101"/><path d="M47.405,44.145a1.594,1.594,0,0,1-.392-.718,2.8,2.8,0,0,0-2.261-.555c-.584,0-1.167,0-1.651,0a2.262,2.262,0,0,0-1.343,1.385v2.985a2.661,2.661,0,0,0,1.258,1.293c.6,0,1.218,0,1.833,0a2.739,2.739,0,0,0,2.2-.594,1.844,1.844,0,0,1,.351-.682Z" transform="translate(-7.762 -7.91)" fill="#010101"/><path d="M33.582,53.853a2.979,2.979,0,0,0,.2,1.465c.091.091.188.177.272.275a1.622,1.622,0,0,0,1.49.607,3.2,3.2,0,0,1,.386,0c.55,0,1.1-.012,1.649,0a1.43,1.43,0,0,0,1.539-.941c.021-.055.091-.089.131-.126,0-.952-.028-1.891.008-2.829a1.337,1.337,0,0,0-1.064-1.581c-.081-.02-.143-.122-.219-.189-.8,0-1.612.029-2.419-.01a1.738,1.738,0,0,0-1.5.612c-.084.1-.182.184-.207.21a6.187,6.187,0,0,0-.263,2.508" transform="translate(-6.24 -9.323)" fill="#000101"/><path d="M34.83,42.872c-.448.161-.7.551-1.034.847a8.264,8.264,0,0,0-.021,3.914,2.713,2.713,0,0,0,1.176.9c.839,0,1.781,0,2.723,0a1.484,1.484,0,0,0,1.566-1.576c.006-1.005,0-2.012,0-3.006a1.979,1.979,0,0,0-1.886-1.081c-.842.007-1.684,0-2.525,0" transform="translate(-6.236 -7.911)" fill="#000101"/><path d="M46.189,40.438a1.69,1.69,0,0,0,1.194-1.253V36.048a3.076,3.076,0,0,0-.851-1.07h-3.9a2.707,2.707,0,0,0-.893,1.165c0,.813-.027,1.725.01,2.635a1.531,1.531,0,0,0,.937,1.559,1.422,1.422,0,0,0,.543.1c1.039.007,2.078,0,2.963,0" transform="translate(-7.756 -6.455)" fill="#000100"/><path d="M38.369,34.968c-1.057,0-2.128.01-3.2,0a1.429,1.429,0,0,0-1.107.4,1.68,1.68,0,0,0-.47,1.17c-.034.877-.011,1.757-.011,2.635.234.1.253.373.323.549a1.1,1.1,0,0,0,1.166.721h2.965a1.689,1.689,0,0,0,1.191-1.254V36.048a3.1,3.1,0,0,0-.859-1.08" transform="translate(-6.241 -6.452)" fill="#000100"/><path d="M50.137,35.975v3.584l.933.876c.815,0,1.691-.032,2.564.008A1.692,1.692,0,0,0,55.6,39.185V35.846l-.9-.879c-.984,0-1.99.028-2.993-.009a1.37,1.37,0,0,0-1.568,1.018" transform="translate(-9.319 -6.45)"/><path d="M10.794,53.286a2.012,2.012,0,0,0-.951-.573l-.338.566-.123-.1V54a1.93,1.93,0,0,0,1.1.721c.025.342.329.5.525.741h.514c.528-.17.475-.814.92-.961s.557-.55.81-.913V52.06A2.145,2.145,0,0,0,11.957,50.9c-.365-.152-.839-.237-1.039-.663.081-.456.415-.5.734-.422a4.423,4.423,0,0,1,.834.382c.194.047.242-.324.484-.2.217-.122-.02-.486.276-.487.087-.288-.291-.334-.142-.64-.82-.022-.989-.829-1.508-1.21-.328-.13-.519.2-.8.214a1.855,1.855,0,0,0-.238.479.57.57,0,0,1-.313.446c-.787.216-.62.975-.871,1.486-.125.253.33.47.178.784l.83.829a3.478,3.478,0,0,1,1.45.65.527.527,0,0,1-.2.735Z" transform="translate(-1.738 -8.79)" fill="#010100"/><path d="M50.735,25.824c.015-.192-.119-.195-.252-.195h-14a1.8,1.8,0,0,0-.977.739V29.82l.48.495h1.858c.022-.566-.279-1.083-.209-1.669a10.933,10.933,0,0,0,.01-1.65,1.739,1.739,0,0,1,.291-1.173Z" transform="translate(-6.6 -4.729)" fill="#1e80cc"/><path d="M54.37,44.982a.149.149,0,0,0-.153-.192q-1.018-.011-2.037,0a.149.149,0,0,0-.153.192c-.218,2.521-.033,5.043-.1,7.6a2.752,2.752,0,0,0,2.441.13,13.431,13.431,0,0,0,.085-2.783,42.831,42.831,0,0,0-.085-4.945" transform="translate(-9.65 -8.264)" fill="#fd9711"/><path d="M54.349,45.027V52.6c-.756.092-1.519,0-2.343.056V45.027c-.268,0-.192.208-.192.348,0,2.658,0,5.315,0,7.952l.26.26h2.2a1.994,1.994,0,0,0,.28-1.2c-.016-2.3,0-4.607-.014-6.91,0-.157.137-.412-.189-.446" transform="translate(-9.629 -8.309)" fill="#e78300"/><path d="M46.2,54.012V52.5a6.027,6.027,0,0,0-1.22-.043c-.418-.01-.835,0-1.318,0v1.562a2.489,2.489,0,0,0,2.538,0" transform="translate(-8.115 -9.677)" fill="#317f46"/><path d="M46.2,54.367H43.658v.973l1.22,0H46.2Z" transform="translate(-8.115 -10.032)" fill="#2c733f"/><path d="M46.2,46.349V44.832a6.026,6.026,0,0,0-1.22-.043c-.418-.01-.835,0-1.318,0v1.562a2.489,2.489,0,0,0,2.538,0" transform="translate(-8.115 -8.263)" fill="#317f46"/><path d="M46.2,46.7H43.658v.973l1.22,0H46.2Z" transform="translate(-8.115 -8.618)" fill="#2c733f"/><path d="M38.042,52.451H35.5v1.562a2.857,2.857,0,0,0,2.543.1,3.324,3.324,0,0,0,0-1.659" transform="translate(-6.599 -9.679)" fill="#307d45"/><path d="M38.042,52.451v1.562H35.5v.957h2.479a3.911,3.911,0,0,0,.151-2.519.443.443,0,0,0-.092,0" transform="translate(-6.599 -9.678)" fill="#2c723e"/><path d="M38.042,44.788H35.5V46.35a2.857,2.857,0,0,0,2.543.1,3.324,3.324,0,0,0,0-1.659" transform="translate(-6.599 -8.265)" fill="#307d45"/><path d="M38.042,44.787V46.35H35.5v.958h2.734c0-.783,0-1.576,0-2.369a.149.149,0,0,0-.191-.152" transform="translate(-6.599 -8.264)" fill="#2b713e"/><path d="M46.2,38.206V36.689a6.027,6.027,0,0,0-1.22-.043c-.418-.01-.835,0-1.318,0v1.562a2.489,2.489,0,0,0,2.538,0" transform="translate(-8.115 -6.761)" fill="#317e45"/><path d="M46.2,38.561H43.658v1.127a6.147,6.147,0,0,0,1.22.042c.418.01.835,0,1.318,0Z" transform="translate(-8.115 -7.116)" fill="#2b6f3d"/><path d="M35.5,36.859v1.562a2.855,2.855,0,0,0,2.543.1,3.315,3.315,0,0,0,0-1.659,7.063,7.063,0,0,0-2.538,0" transform="translate(-6.599 -6.781)" fill="#307c44"/><path d="M38.042,36.885v1.562H35.5V39.4h2.46l.274-.274v-2c0-.133-.008-.262-.2-.247" transform="translate(-6.599 -6.806)" fill="#2b6f3d"/><path d="M35.5,36.841h2.538a.149.149,0,0,0-.153-.192q-1.116-.01-2.232,0a.149.149,0,0,0-.153.192" transform="translate(-6.598 -6.762)" fill="#2b6f3d"/><path d="M54.35,36.645H51.812v.976c.2.239,0,.586.293.889a2.7,2.7,0,0,0,2.266-.052,4.089,4.089,0,0,0-.02-1.813" transform="translate(-9.63 -6.762)" fill="#fa9511"/><path d="M54.35,36.645v1.735H52.073c-.264-.161.191-.631-.261-.758v1.736h2.463l.271-.271V36.893c0-.133-.007-.263-.2-.248" transform="translate(-9.63 -6.762)" fill="#e38101"/></g></g></g></svg>